<?xml version="1.0" encoding="utf-8"?>
<!-- Generator: Adobe Illustrator 20.1.0, SVG Export Plug-In . SVG Version: 6.00 Build 0)  -->
<svg version="1.1" xmlns="http://www.w3.org/2000/svg" xmlns:xlink="http://www.w3.org/1999/xlink" x="0px" y="0px"
	 viewBox="0 0 470.8 570.5" style="enable-background:new 0 0 470.8 570.5;" xml:space="preserve">
<style type="text/css">
	.st0{fill:#FFFFFF;}
	.st1{fill:#1A1A1A;}
</style>
<g id="back">
	<path class="st0" d="M468.3,421.2c-0.8-1.1-1-1.8-1.2-2.3c-0.3-0.8-0.4-1.1-2.4-2c-2.7-1.2-5-3.7-5.9-4.7c-0.3-0.4-0.4-0.9-0.3-1.4
		l0.7-2.6c-0.1-0.7-0.5-6-1-8.4c-0.2-0.9-0.4-2-0.7-3.1c-0.6-2.3-1.2-4.8-1.3-6.7c-0.1-1.1,0.2-1.7,0.4-2.3c0.2-0.5,0.4-0.8-0.8-2.4
		c-0.5-0.7-0.8-1.2-1.1-1.6c-0.8-1.3-0.9-1.4-4.8-2.2c-3.3-0.6-5-0.9-5.9-0.9c-0.3,0-0.6-0.1-0.8-0.3c-0.2,0.3-0.4,0.5-0.8,0.7
		c-2.6,1-3.7,1.8-4.9,3.4c-1.3,1.8-2,5.7-2,7.2c0,0.8-0.3,1.5-0.7,2.2l-0.1,0.2c-0.3,0.6-1,1-1.7,0.8c-0.7-0.1-1.2-0.7-1.2-1.4
		c-0.3-7.4-0.6-14.3-0.9-20.6c0-0.6,0.3-1.2,0.9-1.4c0.5-0.3,1.2-0.2,1.6,0.2c3.4,3,6,4.6,7.7,5.6c0.3,0.2,0.6,0.4,0.9,0.5
		c-2.1-6-7.1-12.4-11-16.2c-0.3-0.3-0.4-0.6-0.4-1c-0.1-2.5-0.1-5-0.2-7.5c0-2.1-0.1-4.8,0-7.5l0.1-2.5c0-0.4,0-0.8,0-1.2
		c0-1.3,0-2.6,0-3.8c-0.1-9.5-0.4-18.8-0.7-27.8l-0.1-1.8c-0.3-10.1-0.7-19.6-1-25.8l-1-20.4c0-0.6,0.3-1.1,0.8-1.4
		c0.5-0.3,1.1-0.2,1.6,0.1c0.4,0.3,0.9,0.4,1.4,0.4c2,0,4.3-0.7,6.4-1.4l0.2-0.1c1.9-0.6,3.1-1,4-0.9c0.8,0.1,2.6-0.1,4.2-0.3
		c1.8-0.2,3.7-0.4,4.8-0.3c2,0.2,4.7,0.4,5.6-4.6c0.3-1.6,0.6-2.9,0.8-4c0.6-2.9,1-4.6,0.9-7.4c0-0.9,0-1.6,0-2.3
		c0-2.5,0-4.4-1.8-8.5c-0.5-1.2-1-2.3-1.5-3.4c-1.7-3.9-2.6-5.9-2.7-7c0-0.2-0.5-3.8-2.2-6.1c-1.6-2.1-3.5-9.3-3.6-10.2
		c0,0,0-0.1,0-0.1c0-0.1-0.3-1.2-3-7l-2.8,0.3c-0.8,0.1-1.5-0.5-1.6-1.3c-0.8-5.3-3.2-17.5-4.3-21.3c-0.2-0.6,0.1-1.3,0.6-1.7
		c-0.3-1.2-1.1-4.1-1.1-5.9c0-0.8-0.3-1.6-0.7-2.5c-0.5-1.4-1.2-3.1-1.1-5.6c0.2-4,0.1-16.5,0-20.6c0-2.2-0.8-3.9-1.6-5.6
		c-0.6-1.2-1.1-2.4-1.2-3.6c-0.2-2.5-0.2-4-0.2-6c0-1.9-0.5-8.6-1.2-11.2c-0.7-2.8-0.2-7.4,0.3-9.3c0.3-1.2-0.9-5.2-1.5-7.1
		c-0.3-1.1-0.5-1.5-0.5-1.8c-0.1-0.5,0-1.1,0.3-2.7c0.3-1.6,0.7-3.8,0.7-5.9c0-2.1-0.5-3.4-1.2-5.1c-0.5-1.2-1.1-2.6-1.6-4.6
		c-0.9-3.6-1.7-6.6-2-7.7c-0.1-0.5,0-0.9,0.3-1.3c0.4-0.5,0.6-1.7,0.6-3.8c0-1.4-0.6-3-1.2-4.6c-0.3-0.8-0.6-1.5-0.8-2.2
		c-0.4-1.4-3.1-3.4-4.8-4.4h-1c-0.4,0-0.8-0.2-1.1-0.5c-0.3-0.3-0.4-0.7-0.4-1.1c0.2-3.8,0-6.3-0.5-7.7c-2-5.4-6.2-6.2-13.5-5.9
		c-0.5,0-1.1,0.1-1.8,0.1c-0.5,0-1-0.2-1.3-0.5s-0.4-0.9-0.3-1.3c0.8-3.4,2.8-11.5,4.1-17.1c1.6-6.4,2.4-11.6-1.8-15.3
		c-0.4-0.4-0.8-0.5-1.4-0.4c-1.3,0.3-5,2.5-12,17.7c-1.8,3.9-6.3,14.3-8.2,18.6c-0.2,0.5-0.7,0.8-1.2,0.9
		c-6.4,0.8-12.4,1.5-15.3,1.8c-2.7,0.2-8.6,0.2-15.4,0c-10.3-0.2-23.1-0.4-29.6,0.6c-10.8,1.6-53.6,4.4-64.8,4.7
		c-1.9,0.1-4.9,0.2-8.7,0.3l-0.5,0c-27.1,1-52.9,1.8-58.1,0.6c-5.7-1.2-43.5-1.6-62.6-1.6c-0.2,0-20.2,1.9-27.1,0
		c-2.3-0.6-6.4-1.4-10.9-2c-0.5-0.1-1-0.4-1.2-0.9c-2.1-4.6-9-20-10.9-24.1C64.5,4.1,60.6,1.8,59.2,1.5c-0.6-0.1-1.1,0-1.5,0.4
		c-4.4,3.7-3.5,8.9-1.8,15.3c1.5,5.7,5.3,18.7,6.8,24c0.1,0.4,0.1,0.9-0.2,1.3c-0.2,0.4-0.6,0.6-1.1,0.7c-1.1,0.1-2.1,0.3-2.8,0.5
		c-1.5,0.4-3.6,0.4-5.7,0.4c-2.6,0-5.3,0-6.9,0.9c-0.6,0.3-2.2,3.4-4.3,24.7l-0.1,1.4c0,0.4-0.2,0.8-0.6,1c-0.3,0.3-0.7,0.4-1.1,0.3
		c-5.1-0.6-7.8,0-8.3,0.9c-0.7,1.5-1.1,4-1.4,6c-0.2,1.2-0.4,2.2-0.5,2.8c-0.5,1.6-0.6,3.4-0.7,5.8c-0.1,1.9-0.1,2,1,2.5
		c0.7,0.4,1,1.3,0.7,2l-0.5,1c-1.3,2.6-3,6.2-3,8.3c0,2.9,0,7.8,0.9,11.6c0.8,3.7,0.9,4.4,1.1,7.4l0,0.6c0.1,0.9,0.2,1.8,0.3,2.6
		c0.3,2.2,0.5,3.9-0.3,5.4c-1,1.9-2.8,11.4-2.8,13.5c0,0.8,0.2,1.4,0.4,2.2c0.3,1.1,0.7,2.5,0.5,5.1c-0.1,2.3,0.2,3.8,0.7,5.5
		c0.4,1.5,0.8,3.1,0.9,5.3c0.1,1.3,0.3,2.9,0.6,4.3c0.7,4,1.4,8.2-0.7,11c-2,2.7-1.3,8.1-0.8,12c0.1,1.1,0.3,2,0.3,2.7
		c0.2,2.2,0.3,5.6,0.4,8.8c0.1,1.9,0.1,3.7,0.2,5.3l0.1,1.2c0.3,6.4,0.5,13.3-0.1,15.8c-0.6,2.7-1,6.6-0.9,8.4c0,0.1,0,0.2,0.1,0.3
		c0.2,0.4,0.2,0.9,0,1.4c-0.3,0.5-0.3,0.8-0.3,1.2c0,0.9-0.1,2-1.3,4.4c-1.7,3.5-2.6,5.9-3.4,8.3c-0.3,0.7-0.5,1.5-0.8,2.2
		c-0.4,0.9-0.7,1.8-0.9,2.7c-0.7,2.2-1.4,4.1-2.5,5.8c-1.5,2.3-2,6.7-2,8.3c0,0.2,0,0.4,0.1,0.6c0.1,0.6-0.1,1.2-0.6,1.6
		c-0.5,0.4-1.2,0.4-1.7,0c-0.2-0.1-0.4-0.3-0.7-0.5c-0.5-0.4-0.8-0.6-1-0.5c-0.3,0.1-0.8,0.5-1.3,1.3c-1,1.5-1.9,2.6-2.6,3.3
		l0.7-0.2c0.5-0.1,1.1,0.1,1.5,0.5c0.4,0.4,0.5,1,0.3,1.5l-0.1,0.3c-0.1,0.2-0.3,0.5-0.5,0.6c-0.1,0.1-0.6,0.6-1.1,2
		c-0.2,0.6-0.6,1.3-0.9,1.9c-0.8,1.6-1.6,3.2-1.4,5.2c0.3,2.3,0.8,2.9,1.6,4.1c0.2,0.3,0.5,0.7,0.8,1.1c0.9,1.3,1.2,2.1,1.5,3.1
		c0.2,0.6,0.4,1.1,0.7,1.9c0.6,1.3,2.5,2.3,3.6,2.8c0.2,0.1,0.5,0.2,0.6,0.3c0.1,0.1,0.2,0.2,0.4,0.3c0,0,0,0,0,0
		c0.5-0.1,1.4-0.2,3.6-0.1c3.1,0.2,5.4,1,6.1,1.3c0,0,1.8,0.6,3.4,1.1c1.4,0.4,1.7,0.5,2.7,0.2c0.5-0.1,1-0.1,1.4,0.2
		c0.4,0.3,0.6,0.8,0.6,1.2c-0.3,12.1-0.3,19.8-0.1,22.3c0.5,6.4,1.9,26.8,3,48.7c0,0.6-0.3,1.2-0.9,1.5c-0.5,0.2-1,0.4-1.5,0.6
		c-2.5,0.9-6,2.2-6.3,4.5c-0.2,2.2-1.4,6.1-2.4,9.3c-0.4,1.2-0.7,2.3-0.9,3.1c-0.2,0.8-1,1.3-1.8,1.1c-1.4-0.4-2.4-0.7-3-1.1
		c-1.6-1-2.6-0.7-4.4-0.2c-0.3,0.1-0.5,0.2-0.8,0.2c-0.9,0.2-1.8,0.2-2.5,0.2c-1.9,0-2.6,0.2-3,1.3c-0.4,1.2-0.9,3.2-1.4,5.1
		c-0.5,1.9-1,3.8-1.3,4.8c-0.8,2.3-1.8,5.2-1.6,7.5c0.1,0.9,0,1.5-0.1,1.9c-0.1,0.7-0.2,1,0.7,2.2c0.3,0.5,0.4,1.1,0.1,1.6
		c-0.3,0.6-0.6,1-0.8,1.3c-0.5,0.7-0.8,1.1-1.5,4.3c-1.1,4.9-1.3,9.1-1.3,9.3c0,0,0.3,4.3,0.3,6.8c0,1-0.4,1.6-0.6,2.1
		c-0.4,0.6-0.6,1,1,2.7c2,2.2,3.1,2.8,4.6,3.6c0.6,0.3,1.2,0.6,2,1.1c2.5,1.6,5.8,1.6,7.4,1.6c0.3,0,0.3,0,0.5-0.5
		c0.1-0.2,0.2-0.5,0.5-0.7c0,0,0.1,0,0.1-0.1c0.6-0.5,1.6-0.5,3.2,0.1c3.9,1.5,8.6,1.6,8.7,1.6c0.2,0,1.1,0,2.2,0
		c0.5,0,0.9,0.2,1.2,0.5s0.4,0.8,0.3,1.2c-2.2,13.4-3,21.1-2.4,23.3c0.5,2,1.5,3.6,3.1,5.1c0.3,0.3,0.5,0.7,0.5,1.1
		c0,1.2,0,2.9,0.1,4.6c0.1,1.6,1,6.5,2.6,13.2c0.2,0.7-0.2,1.5-0.9,1.7c-0.9,0.3-1.8,0.9-2.6,1.6c-0.4,0.4-0.9,0.8-1.2,1.1
		c-2.8,2.5-3.6,3.2-2.7,6.2c1,3.3,0.8,5.4,0.5,8.4c-0.1,0.6-0.1,1.2-0.2,1.8c-0.3,3.5,0.5,14.2,3.3,18.7c0.4,0.6,0.3,1.3-0.2,1.8
		c-1.2,1.3-3,2.5-4.9,3.8c-4.7,3.2-10,6.8-9.7,12.9c0.4-0.1,1-0.1,1.4,0c0.1,0,0.2,0.1,0.3,0.2c0.2,0.1,0.4,0.4,0.9,0.8
		c0.5,0.5,1.5,1.5,1.9,1.5c0.2,0,0.2,0,0.3-0.3c0.1-0.2,0.2-0.4,0.3-0.5c0.2-0.2,0.4-0.4,0.6-0.5l0.2-0.1c0.5-0.3,1.1-0.3,1.6,0.1
		c0.4,0.3,0.8,0.8,1.1,1.7c0.1,0.3,0.3,0.4,0.3,0.4c0.1-0.1,0.4-0.5,0.5-0.7l0.1-0.2c0.3-0.4,0.8-0.6,1.3-0.6c0.6,0,1.4,0.2,2.2,0.6
		c0.3,0.1,0.7,0,1.3-0.2c0.8-0.2,1.7-0.5,2.6,0.1c0.2,0.1,0.3,0.2,0.4,0.3c0.5,0.4,0.8,0.7,3.6,0.7c0.5,0,1.2,0,1.9,0
		c5.7-0.1,16.1-2.2,17-2.6c0.1-0.1,0.5-0.2,0.9-0.5c4.5-2.4,6.8-3.1,8.2-2.7c0.2,0.1,0.4,0,0.5-0.1c0.8-0.7,1.1-3.7,1-5.6
		c-0.2-3.1-4.8-10.9-10.5-13.3c-0.4-0.2-0.7-0.5-0.8-0.9c-0.1-0.4-0.1-0.8,0.1-1.2c0.1-0.2,0.2-0.4,0.2-0.5c0.2-0.6,0.3-1.4-0.3-2
		c-1.7-2-2.3-4.5-2.2-5.9c0.1-1-1.7-4-3.3-5.7c-0.8-0.9-0.8-2.3-0.7-3.6c0-1.4,0-2.4-0.5-2.9c-1.2-1-1.5-1.3-1.8-2.7l-0.3-1.1
		c-0.6-2.5-1.4-5.8-5.1-7.5c-0.7-0.3-1.4-0.6-2.1-0.8c-0.5-0.1-0.8-0.5-1-0.9c-1.4-3.5-2.3-11.3-2.4-14.7c0-0.5,0.2-1,0.6-1.3
		c0.4-0.3,0.9-0.4,1.4-0.2c6.4,2.5,16.3,3.9,29.2,4.2c2.5,0.1,5.6,0.1,9,0.1c12.2,0,29-0.3,43.7-0.6c0.4,0,0.8,0.2,1.1,0.4
		c0.3,0.3,0.4,0.7,0.4,1.1c-0.1,3.1-0.5,13.6,0,20.9c0,0.7-0.4,1.4-1.2,1.6c-4.6,1.1-6.6,3.3-6.8,7.2c-0.1,2.5,0,6.9,0.2,11.5
		c0.3,9.2,0.5,15.8-0.2,17.9c0,0.1-0.1,0.2-0.1,0.4c0,0.3-0.1,0.6-0.3,0.8c-1.2,1.8-3.7,7.6-3.1,10.8c0.7,3.6,1.5,6.1,2,6.5
		c0.3,0.2,1,0.6,1.9,0.7c0.8,0.1,2,0,2.4,0c0.3-0.1,2.5-0.4,3.1-0.4c0,0,0.1,0,0.1,0c0.4,0.1,1.2,0.3,1.7,0.4
		c0.2,0.1,0.4,0.1,0.5,0.3l1.8,1.5c0,0,0.5,0.2,1.3,0.2c0.4,0,0.9-0.1,1.5-0.3c0.6-0.3,1-0.5,1.3-0.7c0.1-0.1,0.2-0.1,0.3-0.2
		c0.5-0.3,1.2-0.2,1.7,0.1c0.1,0.1,0.2,0.1,0.3,0.2c0,0,0.1,0.1,0.1,0.1c0.6,0.5,1.2,1,1.9,0.8c0.6-0.2,1.9-1.2,3.1-2.5
		c0-0.5,0.2-1.2,0.4-1.7c0.2-0.3,0.4-0.5,0.7-0.7c0,0,0.5-0.4,1.2-2.3c0.1-0.3,0.3-0.6,0.6-0.8c0,0,0.5-0.4,0.2-3.4
		c-0.3-3.9-1.5-8.2-2.1-9.6c-0.1-0.2-0.2-0.5-0.1-0.8c0.2-1.7,0.1-5.1,0-7.1c0-0.8,0-1.5,0-1.8c0-0.7,0.2-3,0.4-6
		c0.2-2,0.3-3.9,0.3-4.3c0-0.2,0-0.7,0.1-1.4l0-0.1c0.1-2.2,0.4-8.2,0-9.1c0-0.1-0.1-0.2-0.2-0.4c-2-4.5-5.3-6.8-9.9-6.8
		c-0.8,0-1.4-0.6-1.5-1.4c-0.2-3.6-0.1-15.4,0.1-20.5c0-0.8,0.7-1.4,1.5-1.5l8.5-0.2c20.4-0.5,41.6-0.9,56.9-1c0,0,0,0,0,0
		c0.4,0,0.8,0.2,1.1,0.5c0.3,0.3,0.4,0.7,0.4,1.1c-0.3,3.5-1.2,15.2-2.8,19.1c-0.2,0.5-0.8,0.9-1.3,0.9c-0.6,0-1.2,0-1.9,0.1
		c-7.8,0.5-7.8,4-7.8,6.5c0,1.2,0.4,2.5,0.8,3.8c0.5,1.7,0.8,2.7,0.6,3.6c-0.1,0.4-0.3,0.9-0.5,1.3c-0.7,1.5-1.1,2.8-0.2,4
		c0.3,0.4,0.7,0.9,1,1.3c1.4,1.8,3,3.9,2.6,6.1c-0.9,4.7-0.7,8.3,0.6,9.5c0.5,0.4,0.6,1.2,0.3,1.8c-0.8,1.5-1.6,2.9-2.4,4.2
		c-1.4,2.2-2.6,4.1-2.9,6.5c-0.7,4.8-0.1,11,3.9,12.5c1,0.4,1.7,0.5,2.2,0.5c0.4,0,0.5-0.1,0.8-0.4c0.6-0.8,1.2-1,2.4-0.9
		c0.4,0,0.8,0.1,1.2,0.2c3.1,0.4,8.3,1.1,10.3-0.1c2.5-1.5,7.2-3.6,8.8-3.7c0.2,0,0.4,0,0.7,0c1.5,0,3.5-0.1,5.8-2.9
		c1.3-1.6,2.1-2.9,2.6-3.8c0.7-1.1,0.8-1.3,0.9-1.4c0.3-0.3,0.7-0.5,1.1-0.5c1,0,3-0.1,3.7-0.2c0-0.2,0.1-0.6,0.1-0.8
		c0.1-1.2,0.2-3,1.5-4.1c0.9-0.8,2.1-1.3,3.1-1.6c1-0.4,1.9-0.7,2-1.1c0-0.2,0.1-0.3,0.2-0.5c0.6-1.8,0.7-2.9-0.5-3.8
		c-0.5-0.4-1.1-0.7-1.6-1.1c-1.4-0.9-3-1.9-5.5-4.2c-3.2-2.9-6.2-4.1-11.8-4.5l-4.3-0.3c-0.4,0-0.8-0.3-1.1-0.6
		c-0.3-0.3-0.4-0.8-0.3-1.2c0.4-1.9,0.6-4.4,0.5-6.2c-0.1-1.5-0.4-2.1-0.5-2.1c-1.4-1-6.5-6.4-7.2-7.8c-0.1-0.2-0.1-0.4-0.1-0.6
		c0-0.2,0-0.5,0-0.8c0.1-1,0.2-2.2-1.1-3.3c-0.4-0.3-0.7-0.6-1-0.9c-0.9-0.9-1.5-1.3-2.4-1.6c-0.4-0.1-0.8-0.5-1-0.9
		s-0.1-0.9,0.2-1.3c0.8-1.3,2.2-3.4,4.1-6.2c2.5-3.7,0.5-7.6-1.3-11.2l-0.1-0.2c-0.2-0.5-0.2-1,0.1-1.5c0.3-0.4,0.8-0.7,1.3-0.7
		c5.2,0,9.2,0.1,12.1,0.3c8.7,0.5,34.8,0.7,66.6,0.5c0,0,0,0,0,0c0.5,0,1,0.3,1.2,0.7c2.3,3.5,6.4,13.5,6.2,18.6
		c0,0.4-0.2,0.9-0.6,1.1c-0.4,0.3-0.8,0.4-1.2,0.3c-0.3-0.1-0.5-0.1-0.8-0.2c-1.9-0.5-2.9-0.6-3.2,0.1c-0.5,0.9-0.7,2-0.8,2.9
		c-0.1,0.6-0.2,1.1-0.3,1.4c-0.1,0.4-0.5,0.8-0.9,0.9c-0.7,0.3-2.2,1.3-2.9,2.4c-0.4,0.6-0.6,1.2-0.5,1.7c0.2,0.9,0.8,1.6,1.3,2.2
		c0.7,0.8,1.4,1.6,1.4,2.9c0,1.9,0,5,0.6,7.3c0.2,0.6,0,1.2-0.5,1.6c-0.5,0.4-1.1,0.4-1.6,0.2c-1.2-0.6-2.3-0.8-3.9-0.1
		c-3.1,1.5-5.9,3.7-6.4,5l-0.1,0.3c-0.5,1.3-1.6,4.2-1,5.1c0.1,0.2,0.5,0.2,0.7,0.2c0.6-0.1,1.2,0.3,1.5,0.9s0.1,1.2-0.3,1.7
		c-0.4,0.4-0.8,0.8-1.1,1.2c-1.5,1.8-3,3.8-2.7,5.3c0.2,0.7,0.8,1.3,2,1.7c1.5,0.6,2.6,0.8,3.6,1c1.7,0.4,2.8,0.6,3.8,2.5
		c0.5,0.9,0.7,1.6,0.8,2c0.1,0.3,0.2,0.4,0.2,0.4c0.2,0.1,1,0.2,1.4,0.2c2.8,0.3,4.1,0.7,7,2.2c0.4,0.2,0.7,0.4,0.9,0.6
		c0.3,0.3,0.5,0.6,0.5,1c0.4,0,1,0.1,1.7,0.1c1.8,0.1,2.7,0.4,3.4,0.8c0.3,0.2,0.5,0.2,0.5,0.2c0.2,0,0.7-0.3,1.5-0.9
		c0.3-0.2,0.5-0.4,0.8-0.6l0.1-0.1c2.4-1.9,4.5-3.5,8.3-2.9c2.8,0.4,3.6,0.2,4.4-0.1c0.4-0.1,0.8-0.2,1.3-0.3
		c1.2-0.2,4.1-0.8,5.2-3.3c0.4-1,1.2-1.6,2-2.1c1.3-1,2.4-1.7,1.5-4.5c-1.5-4.5-8.8-11.1-10.7-12.5c-0.6-0.4-1.3-0.8-2-1.1
		c-0.4-0.2-0.7-0.5-0.8-0.8c-0.2-0.4-0.1-0.8,0-1.2c1.2-2.5,1.7-5.1,1.6-5.9c-0.8-5.4-2.6-13.8-4.4-15.6c-0.5-0.5-0.9-1-1.3-1.5
		c-1.2-1.6-2.1-2.8-4.8-2.7c-0.4,0-0.8-0.1-1.1-0.4c-0.3-0.3-0.5-0.7-0.4-1.1c0.3-4.9-2.4-12.5-4.4-16.3c-0.2-0.5-0.2-1,0-1.5
		c0.3-0.4,0.8-0.7,1.3-0.7c24.7-0.2,48.6-0.5,67.5-1c0.4,0,0.8,0.1,1.1,0.4c0.3,0.3,0.4,0.7,0.4,1.1c-0.1,3.1-0.1,10.9,1.4,15.4
		c0.2,0.5,0.1,1.1-0.3,1.5c-0.4,0.4-0.9,0.6-1.5,0.4c-1.8-0.5-3.5-0.2-5.3,0.7c-2.7,1.4-2.8,4.4-2.7,4.8c0,0,0.2,0.2,0.4,0.4
		c0.5,0.5,0.9,1,1.2,1.5c0.2,0.4,0.2,0.8,0.1,1.2s-0.4,0.7-0.8,0.9c-0.6,0.3-1.1,0.4-1.5,0.5c-0.9,0.2-1.3,0.3-1.5,1.3
		c-0.2,0.6-0.4,1.2-0.7,1.9c-0.5,1.2-1.2,3.1-0.8,3.5c0.7,0.7,1.3,2.2,1.6,3.3c0.2,0.6,0,1.2-0.5,1.6c-0.6,0.5-1.9,1.7-1.3,2.9
		c0.3,0.7,0.8,1,1.3,1.3c1.2,0.7,1.5,1.3,1.2,2.6c-0.2,0.7-0.4,1.3-0.6,1.9c-0.5,1.3-0.7,1.8,0,2.6c0.5,0.6,0.5,1.5-0.1,2
		c-7.2,7.2-11,12-11.3,14.5c-0.2,1.6-0.7,3.2-1.2,4.8c-0.8,2.6-1.6,5.1-0.7,6.5c1.2,1.7,3.2,2.7,4,2.8c0.1-0.5,0.5-0.9,1-1
		c0.1,0,0.3-0.1,0.4-0.1c0.5,0,0.9,0.2,1.2,0.6c0.6,0.8,1.5,2,5.9,2.6c2,0.3,4.5,0.4,7.4,0.4c5.9,0,11-0.6,12.5-1.2
		c2.1-0.9,4.2-0.5,5.6-0.2c0.4,0.1,0.7,0.1,0.9,0.2c0.3-0.1,1.9-0.9,6.7-6.9c0.5-1.5,1.5-5.5,1.1-7.6l-0.1-0.4
		c-0.5-2.6-0.8-4.6-2.9-6.4c-2.1-1.8-4.2-6.8-4.6-7.8c-0.1-0.4-0.1-0.8,0-1.1c1.1-2.6,1.5-7.2,0.3-9c-1.3-1.9-1.7-4.9-1.4-9
		c0-0.2,0-0.3,0-0.3c-0.1-0.7-1.8-3.6-2.7-4.5c-0.4-0.4-0.6-0.9-0.6-1.4c0-0.4,0.2-0.7,0.4-1c0.2-0.3,0.6-0.5,1-0.6
		c0.5-0.1,0.8-0.2,0.8-0.3c0,0,0-0.4-1.3-1.4c-2.1-1.5-4.3-2.7-6-3.6c-0.8-0.4-1.6-0.8-2.1-1.2c-0.6-0.3-0.8-1-0.7-1.6
		c0.9-3.5,2-14.9,2.3-18.2c0.1-0.8,0.7-1.3,1.4-1.4c18.5-0.6,30.5-1.2,35.5-2c17.4-2.6,23.3-5.3,27.6-7.2c0,0,0.1,0,0.1,0
		c0.4-0.2,0.8-0.2,1.2,0c0.4,0.1,0.7,0.4,0.9,0.8c1.7,4,3.5,10.5,2.6,15.9l-0.9,6.2c-0.1,0.6-0.6,1.1-1.2,1.3
		c-1.1,0.2-1.8,0.1-2.3,0c-0.5-0.1-0.7-0.1-1.6,0.4c-1.9,1.3-3.6,8.9-2.6,11.7c0.8,2.3,0.7,6.8,0.6,10.8c0,0.8,0,1.3,0,1.7
		c0,0.5-0.1,1.3-0.3,2.2c-0.3,2-0.7,4.7,0.1,6.1c0.2,0.4,0.3,0.8,0.2,1.2c-0.1,0.4-0.4,0.7-0.7,0.9c-3.9,2.1-6,4-6.8,6
		c-0.3,0.8-0.9,1.9-1.5,3.1c-1.4,2.6-3.1,5.8-2.9,8c0.3,3.1,2.8,6.9,7.6,7.7c1.9,0.3,4.2,0.9,6.4,1.5c2.9,0.8,5.6,1.5,7.1,1.5
		c0.3,0,0.4,0,0.5,0c1.7-0.4,9-5.2,9.7-6.7c0.1-0.3,0.3-0.8,1-2c1-1.8,2.4-4.4,2.6-6.7c0.3-3.1-0.7-10.6-4.3-14.2
		c-0.5-0.5-0.6-1.3-0.2-1.8c0.7-1.2,1-2.3,0.9-3.1c-0.3-1.3-2.6-12.7-2.5-14.2c0-0.1,0-0.1,0-0.2c0.2-0.9,0.1-7.2-0.6-9.2
		c-0.6-1.5-1.9-2.3-2.4-2.6c-0.3-0.2-0.6-0.4-0.7-0.8l-0.1-0.3c-0.6-1.5-1.1-2-2.2-2c-0.6,0-1.2-0.5-1.4-1.1
		c-1.2-4.7-0.5-10.3,0.1-12.7c0.5-1.7,0.6-8.2,0.1-11.7c-0.1-0.4,0.1-0.9,0.4-1.2c3.1-3.2,4.2-9,3.3-17.7c-0.2-2.2-0.5-6.5-0.8-10
		c0-0.5,0.2-0.9,0.5-1.3c0.4-0.3,0.9-0.4,1.3-0.3c0.8,0.2,1.8,0.3,3.4,0.5l1,0.1c0.5,0.1,1,0.1,1.6,0.1c2.3,0,4.2-0.6,5.4-0.9
		c0.7-0.2,1-0.3,1.2-0.3c0.2,0,0.5,0,0.9-0.1c0.9-0.1,2.1-0.3,3.5,0.1c1.3,0.4,3,0.1,5-0.8c0.4-0.2,1-0.4,1.6-0.6
		c1.7-0.6,4-1.4,4.8-2.4c0.4-0.5,1.1-0.7,1.7-0.5c0.1-0.2,0.2-0.7,0.4-2c0.3-1.9,0.4-3.9,0.5-5.3c0.2-2.8,0.3-3.7,0.6-4.2
		c0-0.1,0.1-0.2,0.2-0.2l0.2-0.2C469.2,424.2,469.9,423.4,468.3,421.2z M38.6,420.6c0,0.7-0.5,1.3-1.2,1.4c-0.1,0-0.2,0-0.3,0
		c-0.6,0-1.1-0.3-1.4-0.9l-0.8-1.8c-0.1-0.1-0.1-0.3-0.1-0.4c-0.2-1.9-0.1-3.8,0-5.2c0.1-1.4,0.2-2.6,0-3.6
		c-0.4-1.9-1.4-6.4-1.6-7.5l-0.7-3.1c0,0,0-0.1,0-0.1c-0.5-3.5-1.8-5.9-2.9-6.4c-0.5-0.2-1.7-0.5-2.4-0.6c-0.5-0.1-1-0.5-1.1-1
		c-0.2-0.5-0.1-1.1,0.3-1.5c0.8-0.9,1.9-2.2,3.1-3.4c1.6-1.8,3.6-4,5.5-6c0.4-0.5,1-0.6,1.6-0.4c0.6,0.2,1,0.7,1,1.3
		C38.4,400.5,38.8,414,38.6,420.6z M39.1,195c-0.3,1-1.1,6.8-2.5,35.4c0,0.5-0.3,0.9-0.7,1.2c-0.2,0.1-0.5,0.2-0.8,0.2
		c-0.2,0-0.4,0-0.6-0.1l-0.2-0.1c-0.6-0.3-1-0.9-0.9-1.6c0.6-4,1.1-20.2,0.8-24.8c-0.4-5.6,0.2-11.4,0.8-15.4
		c0.6-4.3,0.7-10.8,0.6-12.3c0-0.5-0.4-2.6-0.7-4.9c-1-6.4-1.8-11.7-1.8-13.2c0-1.3,0.3-3.2,0.6-5.3c0.3-2,0.6-4.2,0.7-6.3
		c0.4-4.3-0.2-13.8-1-16.4c-0.8-2.8,0.5-17.3,1.3-20.7c0.3-1.3,0.7-2.9,1.1-4.3c0.4-1.6,0.8-3,1-4c0.1-0.8,0.9-1.3,1.6-1.2
		c0.8,0.1,1.4,0.7,1.4,1.5c0,2.6,0.1,7.9,0.1,15.1C40.2,161.6,40.3,191.6,39.1,195z M74.8,42.6c-0.3,0.4-0.7,0.6-1.2,0.6
		c0,0-0.1,0-0.1,0C71.9,43.1,70.4,43,69,43c-0.6,0-1.2-0.4-1.4-1c-1.4-3.9-4.4-12.9-4.9-15.3c-0.4-1.8-0.9-4.7-1.3-7
		c-0.1-0.7,0.3-1.4,1-1.7c0.7-0.2,1.4,0,1.8,0.7c3,5.4,7.5,14.4,10.8,22.5C75.2,41.6,75.1,42.1,74.8,42.6z M394.9,27.6
		c-0.5,2.4-1.2,5.7-2.4,9.3c-0.2,0.6-0.7,1-1.3,1c-1.4,0.2-2.8,0.3-4.3,0.5c-0.1,0-0.1,0-0.2,0c-0.5,0-0.9-0.2-1.2-0.6
		c-0.3-0.4-0.4-1-0.2-1.5c3.5-9,7-15.4,8-17.2c0.4-0.6,1.1-0.9,1.8-0.7c0.7,0.2,1.1,0.9,1,1.7C395.8,22.6,395.2,25.8,394.9,27.6z
		 M427.3,216.5c-0.1,0-0.2,0-0.3,0c-0.7-0.1-1.2-0.7-1.2-1.4c-1-19.8-1.8-32.4-2.3-36.4c-0.5-4-1.5-12.1-2.9-22.4l-0.1-0.6
		c-4.8-36.8-9.5-73-9.3-77.1c0-0.4,0-1,0-1.6c0-2.5,0.1-6.6,1.3-10.7c0.2-0.5,0.6-0.9,1.2-1.1c0.6-0.1,1.1,0.1,1.5,0.6
		c0.8,1,1.4,1.4,1.8,1.6c0.5,0.2,0.7,0.7,0.8,1.2c0,0,0,0,0,0.1c0.2,1,0.9,2.7,1.5,4.2c1,2.4,1.3,3.4,1.3,4c0,0.5-0.2,1.2-0.6,2.7
		c-0.4,1.6-1.1,3.7-0.8,4.6c0.1,0.5,0.5,1.1,0.8,1.9c0.7,1.5,1.7,3.4,1.8,5.2c0.1,0.9,0.3,1.8,0.5,2.7c0.5,1.8,1.1,3.9,0.4,6.5
		c-0.5,2.1,0.4,4,1.2,5.7c0.6,1.2,1.1,2.2,1,3.2c-0.1,0.8-0.2,1.9-0.5,3.1c-0.4,2.1-0.9,4.8-0.9,7.3c0,1.9,0.4,2.3,0.9,2.9
		c0.6,0.8,1.1,1.5,1.3,3.6c0.1,1.3,0.3,2.8,0.5,4.3c0.5,3.2,1,6.5,0.6,9.8c-0.2,2.1,0,4.3,0.2,6.4c0.3,2.7,0.5,5.3-0.1,7.7
		c-0.4,1.3-0.7,2-1,2.5c-0.6,1.1-0.8,1.6-0.1,6.4c0.9,5.9,2.4,9.1,3.1,10.7l0.1,0.1c0.1,0.3,0.2,0.5,0.3,0.6c0.1,0,0.2,0,0.3,0
		c0,0,0.1,0,0.2,0c0.8,0,1.5,0.5,1.6,1.3c0.3,1.6,2.5,16.2,3.3,20.7c0.1,0.4,0,0.8-0.3,1.2s-0.6,0.5-1,0.6l-0.5,0.1
		c-0.6,0.5-3,3-2.9,6c0,0.8,0.1,1.6,0.1,2.3c0,0,0,0,0,0l-1.5,0.1l1.5-0.1c0.1,2.4,0.3,4.1-0.1,5.5c-0.2,0.6-0.6,1.6-1.2,3
		C428.5,216.1,427.9,216.5,427.3,216.5z M438.5,413.2c-1,1.8-2.1,3.1-2.9,3.9c-0.3,0.3-0.7,0.4-1,0.4c-0.2,0-0.4,0-0.5-0.1
		c-0.5-0.2-0.9-0.7-0.9-1.3c-0.1-2.7-0.3-5.4-0.4-8.1c0-0.8,0.5-1.4,1.2-1.6c0.7-0.1,1.5,0.3,1.7,1c0.2,0.3,1,2,2.8,4
		C438.7,412,438.8,412.7,438.5,413.2z"/>
</g>
<g id="lines">
	<g>
		<path class="st1" d="M128.6,81.9c-1.3-0.1-2.7-0.2-4-0.3c-0.3,0-0.5,0.2-0.5,0.5c0,0.3,0.2,0.5,0.5,0.5c1.3,0.1,2.7,0.2,4,0.3
			c0,0,0,0,0,0c0.3,0,0.5-0.2,0.5-0.5C129.1,82.2,128.9,82,128.6,81.9z"/>
		<path class="st1" d="M134.6,82.4c-1.3-0.1-2.7-0.2-4-0.3c-0.3,0-0.5,0.2-0.5,0.5c0,0.3,0.2,0.5,0.5,0.5c1.3,0.1,2.7,0.2,4,0.3
			c0,0,0,0,0,0c0.3,0,0.5-0.2,0.5-0.5C135,82.7,134.8,82.5,134.6,82.4z"/>
		<path class="st1" d="M122.6,81.4l-4-0.4c-0.3,0-0.5,0.2-0.5,0.5c0,0.3,0.2,0.5,0.5,0.5l4,0.4c0,0,0,0,0,0c0.3,0,0.5-0.2,0.5-0.5
			C123.1,81.7,122.9,81.4,122.6,81.4z"/>
		<path class="st1" d="M116.6,80.9l-4-0.4c-0.3,0-0.5,0.2-0.5,0.5c0,0.3,0.2,0.5,0.5,0.5l4,0.4c0,0,0,0,0,0c0.3,0,0.5-0.2,0.5-0.5
			C117.1,81.1,116.9,80.9,116.6,80.9z"/>
		<path class="st1" d="M140.5,82.9c-1.3-0.1-2.6-0.2-4-0.3c-0.3,0-0.5,0.2-0.5,0.5s0.2,0.5,0.5,0.5c1.3,0.1,2.7,0.2,4,0.3
			c0,0,0,0,0,0c0.3,0,0.5-0.2,0.5-0.5C141,83.1,140.8,82.9,140.5,82.9z"/>
		<path class="st1" d="M164.5,83.8c-0.4,0-0.9,0-1.3,0c-0.5,0-1,0-1.6,0c-0.4,0-0.7,0-1.1,0c0,0,0,0,0,0c-0.3,0-0.5,0.2-0.5,0.5
			c0,0.3,0.2,0.5,0.5,0.5c0.3,0,0.7,0,1,0c0.6,0,1.2,0,1.7,0c0.4,0,0.9,0,1.3,0c0.3,0,0.5-0.2,0.5-0.5C165,84,164.8,83.8,164.5,83.8
			z"/>
		<path class="st1" d="M146.5,83.3c-1.3-0.1-2.6-0.2-4-0.3c-0.3,0-0.5,0.2-0.5,0.5c0,0.3,0.2,0.5,0.5,0.5c1.4,0.1,2.7,0.2,4,0.3
			c0,0,0,0,0,0c0.3,0,0.5-0.2,0.5-0.5C147,83.5,146.8,83.3,146.5,83.3z"/>
		<path class="st1" d="M176.4,82.9c-1.3,0.2-2.7,0.3-4,0.4c-0.3,0-0.5,0.3-0.5,0.5c0,0.3,0.2,0.5,0.5,0.5c0,0,0,0,0,0
			c1.3-0.1,2.7-0.3,4-0.4c0.3,0,0.5-0.3,0.4-0.6S176.7,82.8,176.4,82.9z"/>
		<path class="st1" d="M170.5,83.5c-1.3,0.1-2.7,0.2-4,0.3c-0.3,0-0.5,0.2-0.5,0.5c0,0.3,0.2,0.5,0.5,0.5c0,0,0,0,0,0
			c1.3-0.1,2.6-0.2,4-0.3c0.3,0,0.5-0.3,0.5-0.5C171,83.6,170.7,83.4,170.5,83.5z"/>
		<path class="st1" d="M158.5,83.8c-1.3,0-2.6-0.1-4-0.1c-0.3,0-0.5,0.2-0.5,0.5c0,0.3,0.2,0.5,0.5,0.5c1.4,0.1,2.7,0.1,4,0.1
			c0,0,0,0,0,0c0.3,0,0.5-0.2,0.5-0.5C159,84,158.8,83.8,158.5,83.8z"/>
		<path class="st1" d="M152.5,83.6c-1.3-0.1-2.6-0.1-4-0.2c-0.3,0-0.5,0.2-0.5,0.5c0,0.3,0.2,0.5,0.5,0.5c1.4,0.1,2.7,0.1,4,0.2
			c0,0,0,0,0,0c0.3,0,0.5-0.2,0.5-0.5C153,83.8,152.8,83.6,152.5,83.6z"/>
		<path class="st1" d="M104.7,79.8l-4-0.4c-0.3,0-0.5,0.2-0.5,0.5c0,0.3,0.2,0.5,0.5,0.5l4,0.4c0,0,0,0,0,0c0.3,0,0.5-0.2,0.5-0.5
			C105.1,80,104.9,79.8,104.7,79.8z"/>
		<path class="st1" d="M182.4,82.1c-1.3,0.2-2.6,0.4-4,0.5c-0.3,0-0.5,0.3-0.4,0.6c0,0.3,0.2,0.4,0.5,0.4c0,0,0,0,0.1,0
			c1.3-0.2,2.7-0.3,4-0.5c0.3,0,0.5-0.3,0.4-0.6C182.9,82.3,182.6,82.1,182.4,82.1z"/>
		<path class="st1" d="M74.6,78.6c-1.3,0-2.7,0.1-4,0.1c-0.3,0-0.5,0.2-0.5,0.5c0,0.3,0.2,0.5,0.5,0.5c0,0,0,0,0,0
			c1.3-0.1,2.7-0.1,4-0.1c0.3,0,0.5-0.2,0.5-0.5C75.1,78.8,74.9,78.6,74.6,78.6z"/>
		<path class="st1" d="M62.6,79.2c-1.4,0.1-2.7,0.2-4,0.2c-0.3,0-0.5,0.3-0.5,0.5c0,0.3,0.2,0.5,0.5,0.5c0,0,0,0,0,0
			c1.3-0.1,2.6-0.2,4-0.2c0.3,0,0.5-0.3,0.5-0.5C63.1,79.4,62.9,79.1,62.6,79.2z"/>
		<path class="st1" d="M110.6,80.3l-4-0.4c-0.3,0-0.5,0.2-0.5,0.5c0,0.3,0.2,0.5,0.5,0.5l4,0.4c0,0,0,0,0,0c0.3,0,0.5-0.2,0.5-0.5
			C111.1,80.6,110.9,80.3,110.6,80.3z"/>
		<path class="st1" d="M56.6,79.5c-1.4,0.1-2.7,0.2-4,0.3c-0.3,0-0.5,0.3-0.5,0.5c0,0.3,0.2,0.5,0.5,0.5c0,0,0,0,0,0
			c1.3-0.1,2.6-0.2,4-0.3c0.3,0,0.5-0.3,0.5-0.5C57.1,79.7,56.9,79.5,56.6,79.5z"/>
		<path class="st1" d="M80.6,78.5c-1.3,0-2.7,0-4,0.1c-0.3,0-0.5,0.2-0.5,0.5c0,0.3,0.2,0.5,0.5,0.5c0,0,0,0,0,0
			c1.3,0,2.7-0.1,4-0.1c0.3,0,0.5-0.2,0.5-0.5C81.1,78.7,80.9,78.5,80.6,78.5z"/>
		<path class="st1" d="M86.7,78.5c-1,0-2.1,0-3.2,0l-0.8,0c-0.3,0-0.5,0.2-0.5,0.5c0,0.3,0.2,0.5,0.5,0.5c0,0,0,0,0,0l0.8,0
			c1.1,0,2.1,0,3.2,0c0,0,0,0,0,0c0.3,0,0.5-0.2,0.5-0.5C87.2,78.7,86.9,78.5,86.7,78.5z"/>
		<path class="st1" d="M98.7,79.2c-1.3-0.1-2.5-0.2-3.6-0.3l-0.4,0c-0.3,0-0.5,0.2-0.5,0.5c0,0.3,0.2,0.5,0.5,0.5l0.4,0
			c1.1,0.1,2.3,0.2,3.6,0.3c0,0,0,0,0,0c0.3,0,0.5-0.2,0.5-0.5C99.2,79.5,99,79.2,98.7,79.2z"/>
		<path class="st1" d="M68.6,78.8c-1.3,0.1-2.7,0.1-4,0.2c-0.3,0-0.5,0.3-0.5,0.5c0,0.3,0.2,0.5,0.5,0.5c0,0,0,0,0,0
			c1.3-0.1,2.7-0.1,4-0.2c0.3,0,0.5-0.2,0.5-0.5S68.9,78.8,68.6,78.8z"/>
		<path class="st1" d="M92.7,78.7c-1.3-0.1-2.6-0.1-4-0.2c-0.3,0-0.5,0.2-0.5,0.5c0,0.3,0.2,0.5,0.5,0.5c1.4,0,2.7,0.1,4,0.2
			c0,0,0,0,0,0c0.3,0,0.5-0.2,0.5-0.5C93.2,79,93,78.7,92.7,78.7z"/>
		<path class="st1" d="M50.6,80c-1.4,0.1-2.8,0.2-4,0.3c-0.3,0-0.5,0.3-0.5,0.5c0,0.3,0.2,0.5,0.5,0.5c0,0,0,0,0,0
			c1.2-0.1,2.6-0.2,4-0.3c0.3,0,0.5-0.3,0.5-0.5C51.2,80.2,50.9,80,50.6,80z"/>
		<path class="st1" d="M271.9,81.2c-1.4-0.1-2.7-0.1-4-0.2c0,0,0,0,0,0c-0.3,0-0.5,0.2-0.5,0.5c0,0.3,0.2,0.5,0.5,0.5
			c1.3,0,2.6,0.1,4,0.2c0,0,0,0,0,0c0.3,0,0.5-0.2,0.5-0.5C272.4,81.5,272.2,81.2,271.9,81.2z"/>
		<path class="st1" d="M265.9,81C265.9,81,265.9,81,265.9,81c-1.3,0-2.7,0-4,0.1c-0.3,0-0.5,0.2-0.5,0.5c0,0.3,0.2,0.5,0.5,0.5
			c0,0,0,0,0,0c1.3-0.1,2.7-0.1,4-0.1c0.3,0,0.5-0.2,0.5-0.5S266.2,81,265.9,81z"/>
		<path class="st1" d="M277.9,81.7c-1.3-0.1-2.6-0.2-4-0.4c-0.2,0-0.5,0.2-0.5,0.5c0,0.3,0.2,0.5,0.5,0.5c1.4,0.1,2.7,0.2,4,0.4
			c0,0,0,0,0,0c0.3,0,0.5-0.2,0.5-0.5C278.4,82,278.2,81.7,277.9,81.7z"/>
		<path class="st1" d="M247.9,81.7C247.9,81.7,247.9,81.7,247.9,81.7c-1.4,0-2.7,0.1-4,0.1c-0.3,0-0.5,0.2-0.5,0.5
			c0,0.3,0.2,0.5,0.5,0.5c0,0,0,0,0,0c1.3,0,2.6,0,4-0.1c0.3,0,0.5-0.2,0.5-0.5C248.4,81.9,248.2,81.7,247.9,81.7z"/>
		<path class="st1" d="M253.9,81.5c-1.4,0.1-2.7,0.1-4,0.2c-0.3,0-0.5,0.2-0.5,0.5c0,0.3,0.2,0.5,0.5,0.5c0,0,0,0,0,0
			c1.3,0,2.6-0.1,4-0.2c0.3,0,0.5-0.2,0.5-0.5C254.4,81.7,254.2,81.4,253.9,81.5z"/>
		<path class="st1" d="M259.9,81.2c-1.4,0.1-2.8,0.1-4,0.2c-0.3,0-0.5,0.2-0.5,0.5c0,0.3,0.2,0.5,0.5,0.5c0,0,0,0,0,0
			c1.2-0.1,2.6-0.1,4-0.2c0.3,0,0.5-0.2,0.5-0.5C260.4,81.4,260.1,81.2,259.9,81.2z"/>
		<path class="st1" d="M283.9,82.2c-1.3-0.1-2.6-0.2-4-0.3c-0.3,0-0.5,0.2-0.5,0.5c0,0.3,0.2,0.5,0.5,0.5c1.3,0.1,2.7,0.2,4,0.3
			c0,0,0,0,0,0c0.3,0,0.5-0.2,0.5-0.5C284.3,82.5,284.1,82.2,283.9,82.2z"/>
		<path class="st1" d="M295.8,82.3l-4,0.1c-0.3,0-0.5,0.2-0.5,0.5c0,0.3,0.2,0.5,0.5,0.5c0,0,0,0,0,0l4-0.1c0.3,0,0.5-0.2,0.5-0.5
			S296.1,82.3,295.8,82.3z"/>
		<path class="st1" d="M289.8,82.4C289.8,82.4,289.8,82.4,289.8,82.4c-1.4,0-2.7,0-4,0c-0.3,0-0.5,0.2-0.5,0.5
			c0,0.3,0.2,0.5,0.5,0.5c0.8,0,1.6,0.1,2.4,0.1c0.5,0,1.1,0,1.6,0c0.3,0,0.5-0.2,0.5-0.5C290.3,82.6,290.1,82.4,289.8,82.4z"/>
		<path class="st1" d="M224.1,80.5c-0.8-0.2-1.6-0.3-2.4-0.5l-1.5-0.3c-0.3-0.1-0.5,0.1-0.6,0.4s0.1,0.5,0.4,0.6l1.5,0.3
			c0.8,0.2,1.6,0.3,2.4,0.5c0,0,0.1,0,0.1,0c0.2,0,0.4-0.2,0.5-0.4C224.6,80.9,224.4,80.6,224.1,80.5z"/>
		<path class="st1" d="M218.2,79.4c-1.5-0.3-2.8-0.5-4-0.6c-0.3,0-0.5,0.2-0.6,0.4c0,0.3,0.2,0.5,0.4,0.6c1.2,0.1,2.4,0.3,3.9,0.6
			c0,0,0.1,0,0.1,0c0.2,0,0.4-0.2,0.5-0.4C218.7,79.7,218.5,79.4,218.2,79.4z"/>
		<path class="st1" d="M212.2,78.5c-0.3,0-0.6,0-0.9-0.1c-0.9,0-1.9,0-3.2,0.1c-0.3,0-0.5,0.3-0.5,0.5c0,0.3,0.2,0.5,0.5,0.5
			c0,0,0,0,0,0c1.2-0.1,2.2-0.1,3.1-0.1c0.3,0,0.6,0,0.9,0.1c0.3,0,0.5-0.2,0.5-0.5C212.7,78.8,212.5,78.5,212.2,78.5z"/>
		<path class="st1" d="M206.2,78.7c-1.2,0.1-2.6,0.3-4,0.5c-0.3,0-0.5,0.3-0.4,0.6c0,0.3,0.2,0.4,0.5,0.4c0,0,0,0,0.1,0
			c1.4-0.2,2.7-0.4,4-0.5c0.3,0,0.5-0.3,0.4-0.5S206.4,78.7,206.2,78.7z"/>
		<path class="st1" d="M235.9,81.8L235.9,81.8h-0.6c-1.1,0-2.2,0-3.4-0.1c-0.3,0-0.5,0.2-0.5,0.5s0.2,0.5,0.5,0.5
			c1.2,0.1,2.3,0.1,3.5,0.1l0.5,0c0.3,0,0.5-0.2,0.5-0.5C236.4,82.1,236.2,81.8,235.9,81.8z"/>
		<path class="st1" d="M301.8,82.2L301.8,82.2c-1.4,0-2.7,0-4,0c-0.3,0-0.5,0.2-0.5,0.5c0,0.3,0.2,0.5,0.5,0.5c0,0,0,0,0,0
			c1.3,0,2.6,0,4,0c0.3,0,0.5-0.2,0.5-0.5C302.3,82.4,302.1,82.2,301.8,82.2z"/>
		<path class="st1" d="M241.9,81.8C241.9,81.8,241.9,81.8,241.9,81.8c-1.3,0-2.6,0-4,0c-0.3,0-0.5,0.2-0.5,0.5
			c0,0.3,0.2,0.5,0.5,0.5c0,0,0,0,0,0c1.4,0,2.7,0,4,0c0.3,0,0.5-0.2,0.5-0.5C242.4,82,242.2,81.8,241.9,81.8z"/>
		<path class="st1" d="M200.2,79.5c-1.3,0.2-2.6,0.4-4,0.6c-0.3,0-0.5,0.3-0.4,0.6c0,0.2,0.3,0.4,0.5,0.4c0,0,0,0,0.1,0
			c1.4-0.2,2.7-0.4,4-0.6c0.3,0,0.5-0.3,0.4-0.6C200.7,79.6,200.4,79.4,200.2,79.5z"/>
		<path class="st1" d="M230,81.5c-1.2-0.1-2.5-0.3-3.9-0.6c-0.3-0.1-0.5,0.1-0.6,0.4c0,0.3,0.1,0.5,0.4,0.6c1.4,0.3,2.8,0.5,4,0.6
			c0,0,0,0,0.1,0c0.2,0,0.5-0.2,0.5-0.4C230.5,81.8,230.3,81.5,230,81.5z"/>
		<path class="st1" d="M373.4,77.7c-1.4,0.1-2.7,0.3-4,0.4c-0.3,0-0.5,0.3-0.4,0.5c0,0.3,0.2,0.5,0.5,0.5c0,0,0,0,0.1,0
			c1.3-0.1,2.6-0.3,4-0.4c0.3,0,0.5-0.3,0.5-0.5C374,77.9,373.7,77.7,373.4,77.7z"/>
		<path class="st1" d="M361.5,78.9l-4,0.4c-0.3,0-0.5,0.3-0.4,0.6c0,0.3,0.2,0.4,0.5,0.4c0,0,0,0,0.1,0l4-0.4c0.3,0,0.5-0.3,0.4-0.6
			C362,79.1,361.8,78.9,361.5,78.9z"/>
		<path class="st1" d="M379.4,77.2c-1.4,0.1-2.7,0.2-4,0.3c-0.3,0-0.5,0.3-0.5,0.5c0,0.3,0.2,0.5,0.5,0.5c0,0,0,0,0,0
			c1.3-0.1,2.6-0.2,4-0.3c0.3,0,0.5-0.3,0.5-0.5C380,77.4,379.7,77.2,379.4,77.2z"/>
		<path class="st1" d="M367.5,78.3c-1.4,0.1-2.7,0.3-4,0.4c-0.3,0-0.5,0.3-0.4,0.6c0,0.3,0.2,0.4,0.5,0.4c0,0,0,0,0.1,0
			c1.2-0.1,2.6-0.3,4-0.4c0.3,0,0.5-0.3,0.4-0.5C368,78.5,367.7,78.3,367.5,78.3z"/>
		<path class="st1" d="M385.4,76.8c-1.3,0.1-2.7,0.2-4,0.2c-0.3,0-0.5,0.3-0.5,0.5c0,0.3,0.2,0.5,0.5,0.5c0,0,0,0,0,0
			c1.3-0.1,2.7-0.2,4-0.2c0.3,0,0.5-0.3,0.5-0.5C386,77,385.8,76.8,385.4,76.8z"/>
		<path class="st1" d="M403.5,76.8c-1.2-0.1-2.6-0.2-4-0.2c-0.3,0-0.5,0.2-0.5,0.5c0,0.3,0.2,0.5,0.5,0.5c1.4,0,2.7,0.1,4,0.2
			c0,0,0,0,0,0c0.3,0,0.5-0.2,0.5-0.5C404,77.1,403.8,76.8,403.5,76.8z"/>
		<path class="st1" d="M397.5,76.5c-1.3,0-2.7,0-4,0c-0.3,0-0.5,0.2-0.5,0.5c0,0.3,0.2,0.5,0.5,0.5c0,0,0,0,0,0c1.4,0,2.7,0,4,0
			c0.2,0,0.5-0.2,0.5-0.5C398,76.8,397.8,76.5,397.5,76.5z"/>
		<path class="st1" d="M307.8,82.3c-1.4,0-2.7-0.1-4-0.1c0,0,0,0,0,0c-0.3,0-0.5,0.2-0.5,0.5c0,0.3,0.2,0.5,0.5,0.5
			c1.3,0,2.6,0,4,0.1c0,0,0,0,0,0c0.3,0,0.5-0.2,0.5-0.5C308.3,82.5,308.1,82.3,307.8,82.3z"/>
		<path class="st1" d="M391.5,76.6c-1.3,0-2.7,0.1-4,0.1c-0.3,0-0.5,0.2-0.5,0.5c0,0.3,0.2,0.5,0.5,0.5c0,0,0,0,0,0
			c1.3-0.1,2.7-0.1,4-0.1c0.3,0,0.5-0.2,0.5-0.5C392,76.8,391.8,76.6,391.5,76.6z"/>
		<path class="st1" d="M319.8,82.9l-0.2,0c-1.3-0.1-2.6-0.2-3.8-0.3c-0.2,0-0.5,0.2-0.5,0.5c0,0.3,0.2,0.5,0.5,0.5
			c1.2,0.1,2.5,0.2,3.8,0.3l0.2,0c0,0,0,0,0,0c0.3,0,0.5-0.2,0.5-0.5C320.3,83.2,320.1,82.9,319.8,82.9z"/>
		<path class="st1" d="M313.8,82.5c-1.4-0.1-2.7-0.1-4-0.2c-0.3,0-0.5,0.2-0.5,0.5c0,0.3,0.2,0.5,0.5,0.5c1.3,0,2.6,0.1,4,0.2
			c0,0,0,0,0,0c0.3,0,0.5-0.2,0.5-0.5C314.3,82.8,314.1,82.5,313.8,82.5z"/>
		<path class="st1" d="M355.5,79.6l-0.3,0c-0.9,0.1-2.1,0.2-3.7,0.5c-0.3,0-0.5,0.3-0.4,0.6c0,0.2,0.3,0.4,0.5,0.4c0,0,0.1,0,0.1,0
			c1.6-0.3,2.7-0.4,3.6-0.5l0.3,0c0.3,0,0.5-0.3,0.5-0.5C356,79.7,355.8,79.5,355.5,79.6z"/>
		<path class="st1" d="M325.8,83.1C325.8,83.1,325.8,83.1,325.8,83.1l-0.8,0c0,0,0,0,0,0c-1.1,0-2.1,0-3.1-0.1
			c-0.3,0-0.5,0.2-0.5,0.5c0,0.3,0.2,0.5,0.5,0.5c1,0,2.1,0.1,3.2,0.1c0,0,0,0,0,0l0.8,0c0.3,0,0.5-0.2,0.5-0.5
			C326.3,83.3,326.1,83.1,325.8,83.1z"/>
		<path class="st1" d="M331.8,82.8c-1.4,0.1-2.7,0.2-4,0.2c-0.3,0-0.5,0.2-0.5,0.5c0,0.3,0.2,0.5,0.5,0.5c0,0,0,0,0,0
			c1.3,0,2.6-0.1,4-0.2c0.3,0,0.5-0.3,0.5-0.5C332.3,83,332,82.8,331.8,82.8z"/>
		<path class="st1" d="M349.5,80.4l-3.9,0.7c-0.3,0-0.5,0.3-0.4,0.6c0,0.2,0.3,0.4,0.5,0.4c0,0,0.1,0,0.1,0l3.9-0.7
			c0.3,0,0.5-0.3,0.4-0.6C350.1,80.5,349.8,80.3,349.5,80.4z"/>
		<path class="st1" d="M337.7,82.2c-1.3,0.2-2.6,0.3-4,0.4c-0.3,0-0.5,0.3-0.5,0.5c0,0.3,0.2,0.5,0.5,0.5c0,0,0,0,0,0
			c1.4-0.1,2.7-0.3,4-0.4c0.3,0,0.5-0.3,0.4-0.6C338.2,82.4,338,82.2,337.7,82.2z"/>
		<path class="st1" d="M343.6,81.4c-1.3,0.2-2.6,0.4-3.9,0.6c-0.3,0-0.5,0.3-0.4,0.6c0,0.3,0.2,0.4,0.5,0.4c0,0,0,0,0.1,0
			c1.4-0.2,2.7-0.4,4-0.6c0.3,0,0.5-0.3,0.4-0.6C344.2,81.5,343.9,81.3,343.6,81.4z"/>
		<path class="st1" d="M188.3,81.2c-1.3,0.2-2.6,0.4-4,0.6c-0.3,0-0.5,0.3-0.4,0.6c0,0.2,0.2,0.4,0.5,0.4c0,0,0,0,0.1,0
			c1.3-0.2,2.7-0.4,4-0.6c0.3,0,0.5-0.3,0.4-0.6C188.8,81.4,188.6,81.2,188.3,81.2z"/>
		<path class="st1" d="M194.2,80.3l-4,0.6c-0.3,0-0.5,0.3-0.4,0.6c0,0.2,0.3,0.4,0.5,0.4c0,0,0.1,0,0.1,0l4-0.6
			c0.3,0,0.5-0.3,0.4-0.6S194.5,80.3,194.2,80.3z"/>
		<path class="st1" d="M111.5,59.4c-0.2-0.3-0.5-0.4-0.9-0.4c-0.1,0-13.4,1.1-18-0.4c-3.3-1.1-14.5-2-18.7,0.1
			c-0.1,0-0.1,0.1-0.2,0.1c-1.3,1-1.6,4.4-1.4,6.3c0.2,1.7,0.7,2.8,1.6,3.2c0.2,0.1,0.4,0.1,0.7,0.1c0.1,0,7.5-1.5,17.6,0
			c3.5,0.5,6.8,0.7,9.6,0.7c5.4,0,9-0.7,9.2-0.7c0.3,0,0.5-0.2,0.6-0.4C113.3,65.4,113.3,62,111.5,59.4z M74.6,66.3
			c0.2,0,0.5,0,0.7-0.1C75.1,66.3,74.8,66.3,74.6,66.3C74.6,66.3,74.6,66.3,74.6,66.3z M92.4,66.4c-1.7-0.3-3.2-0.4-4.7-0.5
			c0.6,0,1.2,0.1,1.8,0.1c0,0,0,0,0,0c0.3,0,0.5-0.2,0.5-0.5c0-0.3-0.2-0.5-0.5-0.5c-1.2-0.1-2.6-0.1-4-0.2c0,0,0,0,0,0
			c-0.3,0-0.5,0.2-0.5,0.5c0,0.2,0.1,0.3,0.2,0.4c-0.5,0-1,0-1.4,0c0.1-0.1,0.2-0.2,0.2-0.4c0-0.3-0.2-0.5-0.5-0.5c0,0,0,0,0,0
			c-1.3,0-2.6,0.1-4,0.1c-0.3,0-0.5,0.2-0.5,0.5c0,0.1,0.1,0.3,0.2,0.3c-0.5,0-0.9,0.1-1.3,0.1c0.1-0.1,0.2-0.2,0.1-0.4
			c0-0.3-0.2-0.5-0.5-0.5c-1.2,0.1-2.2,0.1-2.9,0.2l-0.2,0c0-0.1,0-0.2,0-0.3c0-0.3,0-0.5-0.1-0.8c0.7-0.1,1.7-0.2,3-0.3
			c0.3,0,0.5-0.3,0.5-0.5c0-0.3-0.3-0.5-0.5-0.5C76,63,75,63.1,74.3,63.2c0-0.7,0.1-1.3,0.3-1.8c0.2,0,0.4-0.1,0.7-0.1
			c0.7-0.1,1.5-0.2,2.4-0.3c0.3,0,0.5-0.3,0.4-0.6c0-0.3-0.3-0.5-0.6-0.4c-0.9,0.1-1.7,0.2-2.4,0.3c-0.1,0-0.1,0-0.1,0c0,0,0,0,0,0
			c3.6-1.6,13.8-0.9,17,0.1c4,1.3,13.4,0.9,17.2,0.6c-0.2,0.1-0.3,0.3-0.3,0.5c0,0.3,0.2,0.4,0.5,0.4c0,0,0,0,0.1,0
			c0.4,0,0.8-0.1,1.1-0.1c0.2,0.6,0.3,1.1,0.3,1.7c-0.4,0-1,0-1.7,0c-0.3,0-0.5,0.2-0.5,0.5c0,0.3,0.2,0.5,0.5,0.5c0,0,0,0,0,0
			c0.6,0,1.2,0,1.6,0c-0.1,0.4-0.2,0.8-0.4,1.2c-0.2,0-0.5,0-1,0.1c-0.3,0-0.5,0.3-0.5,0.5c0,0.1,0,0.1,0,0.2
			c-0.3,0-0.7,0.1-1.1,0.1c0-0.1,0.1-0.2,0.1-0.2c0-0.3-0.2-0.5-0.5-0.5c-0.9,0-2,0-3.2,0l-0.8,0c0,0,0,0,0,0
			c-0.3,0-0.5,0.2-0.5,0.5c0,0.2,0.2,0.4,0.4,0.5C100.3,67.2,96.5,67.1,92.4,66.4z"/>
		<path class="st1" d="M184.5,62.9c-0.1-1-0.6-4.2-2.5-4.3c-0.8-0.1-3.1,0.3-7.6,1c-5.6,0.8-13.2,2-17,2c-2.6,0-5.7-0.3-8.6-0.7
			c-4.6-0.5-8.9-1-12-0.4c0,0,0,0,0,0c-0.7,0.1-1.2,0.7-1.5,1.7c-0.5,1.8-0.4,6.2,1,7.4c0.8,0.7,3.3,0.9,11.3,1.3
			c3.3,0.1,6.7,0.3,8.7,0.5c0.7,0.1,1.6,0.1,2.7,0.1c7,0,20.7-1.6,23.2-2.5C184.3,68.4,184.8,65.4,184.5,62.9z M156.6,69.4
			c-2.1-0.3-5.5-0.4-8.9-0.6c-3-0.1-6.8-0.3-8.8-0.6l1.5,0.1c0,0,0,0,0,0c0.3,0,0.5-0.2,0.5-0.5c0-0.3-0.2-0.5-0.5-0.5l-3.1-0.1
			c-0.1-0.3-0.1-0.6-0.2-1l3.3,0.1c0,0,0,0,0,0c0.3,0,0.5-0.2,0.5-0.5c0-0.3-0.2-0.5-0.5-0.5l-3.4-0.1c0-0.6,0-1.2,0-1.6
			c0.7,0,1.8,0,3,0.1c0,0,0,0,0,0c0.3,0,0.5-0.2,0.5-0.5c0-0.3-0.2-0.5-0.5-0.5c-1.2-0.1-2.2-0.1-2.9-0.1c0-0.1,0-0.1,0.1-0.2
			c2.8-0.5,7.1,0,11.2,0.5c3,0.3,6.2,0.7,8.8,0.7c4,0,11.4-1.1,17.3-2c3.1-0.5,6.3-1,7.1-1c0,0,0,0,0,0c0.1,0.1,0.3,0.5,0.4,0.9
			c-0.1,0-0.2-0.1-0.3-0.1c-0.9,0.1-2.2,0.2-4,0.4c-0.3,0-0.5,0.3-0.4,0.5c0,0.3,0.2,0.4,0.5,0.4c0,0,0,0,0.1,0
			c1.8-0.2,3.1-0.3,4-0.4c0.2,0,0.3-0.1,0.4-0.2c0.1,0.6,0.2,1.2,0.2,1.9c-0.1-0.1-0.2-0.1-0.3-0.1c-1.3,0.2-2.6,0.4-3.9,0.6
			c-0.3,0-0.5,0.3-0.4,0.6c0,0.3,0.2,0.4,0.5,0.4c0,0,0,0,0.1,0c1.3-0.2,2.7-0.4,4-0.6c0,0,0.1,0,0.1,0c0,0.2,0,0.3,0,0.5
			c0,0.2-0.1,0.4-0.1,0.6c0,0-0.1,0-0.1,0c-1.3,0.2-2.6,0.4-3.9,0.6c-0.3,0-0.5,0.3-0.4,0.6c0,0.3,0.2,0.4,0.5,0.4c0,0,0,0,0.1,0
			c1.1-0.1,2.2-0.3,3.4-0.5c-0.1,0-0.1,0.1-0.2,0.1C178.9,68,161.5,70,156.6,69.4z"/>
		<path class="st1" d="M210.5,70c0.5,0,1.1-0.1,1.9-0.3c1.8-0.4,4.4-1.1,8.5-0.6c6.1,0.7,22.2,0.3,24.5,0c0.7-0.1,1.6,0,2.4,0.2
			c1.4,0.2,2.6,0.4,3.5-0.4c1.2-1.1,1.5-5.6,1.1-7.7c-0.2-1.1-0.7-1.8-1.5-2c-1.8-0.6-15.9-0.2-19.8,0.3c-1.7,0.2-5.3-0.1-9.2-0.5
			c-5-0.5-10.1-0.9-12.8-0.5c-1.4,0.2-2.4,0.8-2.9,1.6c-0.8,1.3-0.4,2.9,0.1,4.2C207.2,67.2,208.3,70,210.5,70z M207.9,61.2
			c0.2-0.3,0.7-0.5,1.5-0.7c0.7-0.1,1.5-0.2,2.6-0.2c2.7,0,6.4,0.3,9.8,0.6c4.2,0.4,7.8,0.7,9.6,0.5c4.1-0.5,17.1-0.7,18.9-0.4
			c0.1,0.1,0.1,0.2,0.2,0.4c-0.4,0-1-0.1-1.8-0.1c0,0,0,0,0,0c-0.3,0-0.5,0.2-0.5,0.5c0,0.3,0.2,0.5,0.5,0.5c0.9,0,1.5,0,2,0.1
			c0,0.4,0,0.8,0,1.2c-0.3,0-0.7,0-1.1,0l-0.5,0c-0.3,0-0.5,0.2-0.5,0.5c0,0.3,0.2,0.5,0.5,0.5l0.5,0c0.4,0,0.8,0,1.1,0
			c0,0.5-0.1,1-0.2,1.4c-0.2,0-0.4,0.2-0.4,0.4c0,0.2,0.1,0.4,0.2,0.5c0,0.1-0.1,0.2-0.2,0.3c-0.2,0.2-1.3,0-1.9-0.1
			c-0.9-0.1-1.9-0.3-2.9-0.2c-2.2,0.2-18.2,0.7-24,0c-4.5-0.5-7.4,0.2-9.2,0.6c-0.6,0.1-1.1,0.3-1.4,0.3c-0.2,0-0.4-0.2-0.7-0.5
			c0.6-0.2,1.6-0.4,2.7-0.6c0.3,0,0.5-0.3,0.4-0.6c0-0.3-0.3-0.5-0.6-0.4c-1.3,0.2-2.4,0.5-3.1,0.7c-0.3-0.5-0.5-1.1-0.8-1.9
			c0.4-0.2,1.2-0.4,2.7-0.6c0.3,0,0.5-0.3,0.4-0.6c0-0.3-0.3-0.5-0.6-0.4c-1.4,0.1-2.3,0.4-2.9,0.6c0,0,0,0,0,0
			c-0.1-0.4-0.2-0.8-0.3-1.1c0.7-0.2,1.6-0.6,2.9-0.7c0.3,0,0.5-0.3,0.4-0.6c0-0.3-0.3-0.5-0.6-0.4c-1.3,0.2-2.2,0.4-2.9,0.7
			C207.8,61.5,207.9,61.3,207.9,61.2z"/>
		<path class="st1" d="M283.4,66c6,0.6,20.2,1.6,22.4-0.2c2.2-1.8,2.8-5,2-6.8l-0.2-0.4c-0.6-1.4-1.6-3.7-5.6-3
			c-3.7,0.6-12.4,1.4-16.4,1.1c-4.6-0.3-9.7,0-12.8,1c-1.1,0.3-2,1-2.5,2c-0.6,1.1-0.6,2.5-0.2,4c0.2,0.5,0.2,1,0.3,1.4
			c0.2,1.2,0.6,2.9,2.7,2.9c0.8,0,1.6-0.3,2.6-0.7C277.6,66.6,280.1,65.7,283.4,66z M273.1,65.9c-0.3,0-0.4,0-0.5-0.4
			c0.2-0.1,0.4-0.1,0.6-0.2c0.6-0.2,1.4-0.4,2.2-0.6c0.3-0.1,0.4-0.3,0.4-0.6c-0.1-0.3-0.3-0.4-0.6-0.4c-0.8,0.2-1.6,0.5-2.2,0.7
			c-0.2,0.1-0.4,0.1-0.6,0.2c-0.1-0.3-0.1-0.7-0.2-1.1c0.9-0.4,1.9-0.7,2.8-0.9c0.3-0.1,0.4-0.3,0.4-0.6c-0.1-0.3-0.3-0.4-0.6-0.4
			c-1,0.2-1.9,0.5-2.8,0.9c-0.1-0.4-0.1-0.7-0.1-1.1c0.7-0.2,1.7-0.5,3-0.7c0.3-0.1,0.4-0.3,0.4-0.6c-0.1-0.3-0.3-0.4-0.6-0.4
			c-0.9,0.2-1.7,0.4-2.4,0.5c0.3-0.3,0.6-0.6,1.1-0.7c2.9-0.9,7.7-1.2,12.1-0.9c4.3,0.3,13.1-0.4,16.9-1.1c2.5-0.4,2.9,0.5,3.5,1.8
			l0.2,0.4c0.3,0.7,0.2,2.1-0.5,3.3c-0.1-0.1-0.2-0.1-0.4-0.1c-1.2,0.1-2.6,0.2-4,0.3c-0.3,0-0.5,0.2-0.5,0.5c0,0.3,0.2,0.5,0.5,0.5
			c0,0,0,0,0,0c1.3-0.1,2.5-0.2,3.6-0.3c-0.1,0.1-0.2,0.2-0.3,0.2c-1.1,0.9-10.4,0.8-21-0.2c-3.8-0.4-6.6,0.7-8.5,1.3
			C274.3,65.7,273.6,65.9,273.1,65.9z"/>
		<path class="st1" d="M336.6,64c0.1,0,0.1,0,0.2,0c0.3,0,0.7-0.1,1.3-0.2c1.9-0.4,5.5-1,9.9-1.1c6.3-0.1,19.5,0.1,21.8,0.7
			c2.1,0.5,5.5,0.1,7.2-1.3c0.9-0.8,1-1.6,1-2.1l0-0.5c-0.1-2-0.4-5.8-5.3-6.1c-2.1-0.2-6.3-0.1-10.3,0c-3.7,0.1-8.4,0.2-9.2,0
			c-1.8-0.5-13.3-0.1-15.6,0c-0.1,0-0.1,0-0.2,0c-2.9,0.7-4.1,2-4.1,4.4c0,1.6,0.7,4.5,2,5.7C335.8,63.9,336.3,64,336.6,64z
			 M337.8,55.4c0.6,0,1.3,0,2-0.1c-0.1,0.1-0.2,0.3-0.2,0.5c0,0.2,0.3,0.4,0.5,0.4c0,0,0,0,0.1,0c1.2-0.2,2.5-0.3,3.9-0.3
			c0.3,0,0.5-0.2,0.5-0.5c0-0.1,0-0.1,0-0.2c0.4,0,0.7,0,1.1,0c0,0.1,0,0.1,0,0.2c0,0.3,0.2,0.5,0.5,0.5c0.6,0,1.2,0,1.8,0.1
			c0.7,0,1.4,0.1,2.2,0.1c0,0,0,0,0,0c0.3,0,0.5-0.2,0.5-0.5c0-0.2-0.1-0.3-0.2-0.4c0.6,0,1.1,0,1.5,0.1c-0.2,0.1-0.3,0.2-0.3,0.4
			c0,0.3,0.2,0.5,0.5,0.5c1.3,0.1,2.6,0.1,4,0.2c0,0,0,0,0,0c0.3,0,0.5-0.2,0.5-0.5c0-0.1,0-0.2-0.1-0.3c0.4,0,0.8,0,1.3,0
			c-0.1,0.1-0.2,0.2-0.2,0.4c0,0.3,0.2,0.5,0.5,0.5c1.3,0,2.7,0.1,4,0.1c0,0,0,0,0,0c0.3,0,0.5-0.2,0.5-0.5c0-0.3-0.2-0.5-0.5-0.5
			c-0.8,0-1.5-0.1-2.3-0.1c0.8,0,1.7,0,2.6-0.1c4-0.1,8.1-0.2,10.1,0c3,0.2,3.3,1.8,3.4,4.2l0,0.5c0,0.1,0,0.2-0.3,0.5
			c0,0-0.1,0.1-0.1,0.1c-0.1-0.1-0.2-0.1-0.4-0.1c-0.8,0-2.1,0.1-4,0c-0.3,0-0.5,0.2-0.5,0.5c0,0.3,0.2,0.5,0.5,0.5c0.4,0,0.7,0,1,0
			c-0.7,0-1.4,0-1.9-0.1c-0.2,0-0.4-0.1-0.7-0.1c0.1-0.1,0.1-0.2,0.1-0.3c0-0.3-0.2-0.5-0.5-0.5c-1.2,0-2.5-0.1-4-0.2
			c-0.3,0-0.5,0.2-0.5,0.5c0,0.1,0,0.1,0,0.2c-0.3,0-0.7,0-1.1,0c0-0.1,0-0.1,0.1-0.2c0-0.3-0.2-0.5-0.5-0.5
			c-1.1-0.1-2.2-0.2-3.5-0.3l-0.5,0c-0.3,0-0.5,0.2-0.5,0.5c0,0.2,0.1,0.4,0.2,0.5c-3.8-0.1-7.6-0.1-10.1-0.1c0.8,0,1.6-0.1,2.4-0.1
			c0.3,0,0.5-0.2,0.5-0.5s-0.2-0.5-0.5-0.5c-1.3,0-2.7,0.1-4,0.2c-0.3,0-0.5,0.3-0.5,0.5c0,0.2,0.1,0.4,0.3,0.4c-0.5,0-1,0-1.5,0.1
			c0.1-0.1,0.2-0.3,0.2-0.4c0-0.3-0.3-0.5-0.5-0.4c-1.3,0.1-2.6,0.3-4,0.5c-0.3,0-0.5,0.3-0.4,0.6c0,0.1,0.1,0.2,0.2,0.3
			c-0.4,0.1-0.8,0.1-1.2,0.2c0.1-0.1,0.1-0.2,0.1-0.3c0-0.3-0.3-0.5-0.6-0.4l-1.6,0.3c-0.6,0.1-1,0.2-1.5,0.2
			c-0.2-0.4-0.4-0.8-0.5-1.4c0.9-0.3,1.9-0.6,2.9-0.8c0.3-0.1,0.4-0.3,0.4-0.6c-0.1-0.3-0.3-0.4-0.6-0.4c-1,0.2-1.9,0.5-2.9,0.8
			c-0.1-0.4-0.1-0.7-0.1-1.1c0-0.1,0-0.2,0-0.3c0.6-0.3,1.5-0.6,2.9-0.9c0.3-0.1,0.4-0.3,0.4-0.6c-0.1-0.3-0.3-0.4-0.6-0.4
			c-0.8,0.2-1.5,0.4-2,0.6C336.3,55.9,336.9,55.6,337.8,55.4z"/>
		<path class="st1" d="M101.5,66.1c-1.4,0-2.7-0.1-4-0.2c-0.3,0-0.5,0.2-0.5,0.5c0,0.3,0.2,0.5,0.5,0.5c1.3,0.1,2.6,0.1,4,0.2
			c0,0,0,0,0,0c0.3,0,0.5-0.2,0.5-0.5C102,66.3,101.7,66.1,101.5,66.1z"/>
		<path class="st1" d="M95.5,65.7c-1.1-0.1-2-0.2-2.9-0.4c-0.3-0.1-0.7-0.1-1.1-0.2c-0.3,0-0.5,0.2-0.6,0.4c0,0.3,0.2,0.5,0.4,0.6
			c0.4,0,0.7,0.1,1,0.2c0.9,0.1,1.9,0.3,3,0.4c0,0,0,0,0,0c0.3,0,0.5-0.2,0.5-0.5C96,66,95.8,65.8,95.5,65.7z"/>
		<path class="st1" d="M89.2,62.7c-1.3-0.1-2.6-0.2-4-0.2c0,0,0,0,0,0c-0.3,0-0.5,0.2-0.5,0.5c0,0.3,0.2,0.5,0.5,0.5
			c1.4,0,2.7,0.1,4,0.2c0,0,0,0,0,0c0.3,0,0.5-0.2,0.5-0.5C89.7,63,89.5,62.8,89.2,62.7z"/>
		<path class="st1" d="M83.2,62.6C83.2,62.6,83.2,62.6,83.2,62.6c-1.3,0-2.7,0.1-4,0.2c-0.3,0-0.5,0.3-0.5,0.5
			c0,0.3,0.2,0.5,0.5,0.5c0,0,0,0,0,0c1.3-0.1,2.7-0.1,4-0.2c0.3,0,0.5-0.2,0.5-0.5C83.7,62.8,83.5,62.6,83.2,62.6z"/>
		<path class="st1" d="M101.2,64.6C101.2,64.6,101.2,64.6,101.2,64.6c0.3,0,0.5-0.2,0.5-0.5c0-0.3-0.2-0.5-0.5-0.5
			c-1.3,0-2.6-0.1-4-0.2c-0.3,0-0.5,0.2-0.5,0.5c0,0.3,0.2,0.5,0.5,0.5C98.5,64.5,99.9,64.6,101.2,64.6z"/>
		<path class="st1" d="M91.5,64c1.1,0.1,2.3,0.3,3.6,0.4c0,0,0,0,0,0c0.3,0,0.5-0.2,0.5-0.5c0-0.3-0.2-0.5-0.5-0.5
			c-1.3-0.1-2.5-0.2-3.6-0.4l-0.4,0c-0.3,0-0.5,0.2-0.6,0.4c0,0.3,0.2,0.5,0.4,0.6L91.5,64z"/>
		<path class="st1" d="M106.4,64.7C106.4,64.7,106.4,64.7,106.4,64.7l0.8,0c0.3,0,0.5-0.2,0.5-0.5c0-0.3-0.3-0.5-0.5-0.5l-0.7,0
			c-1,0-2.1,0-3.3,0c-0.3,0-0.5,0.2-0.5,0.5c0,0.3,0.2,0.5,0.5,0.5C104.3,64.7,105.4,64.7,106.4,64.7z"/>
		<path class="st1" d="M91.3,61.7c1.5,0.2,2.8,0.4,4,0.5c0,0,0,0,0.1,0c0.3,0,0.5-0.2,0.5-0.5c0-0.3-0.2-0.5-0.4-0.5
			c-1.2-0.1-2.4-0.3-3.9-0.5c-0.3,0-0.5,0.1-0.6,0.4C90.9,61.4,91.1,61.6,91.3,61.7z"/>
		<path class="st1" d="M83.5,59.7c-0.2,0-0.4,0-0.7,0c-1.1,0-2.2,0-3.4,0.1c-0.3,0-0.5,0.3-0.5,0.5c0,0.3,0.2,0.5,0.5,0.5
			c0,0,0,0,0,0c1.2-0.1,2.2-0.1,3.3-0.1c0.2,0,0.4,0,0.7,0c0.3,0,0.5-0.2,0.5-0.5C84,60,83.8,59.7,83.5,59.7z"/>
		<path class="st1" d="M97.3,62.3c1.3,0.1,2.7,0.1,4,0.1c0,0,0,0,0,0c0.3,0,0.5-0.2,0.5-0.5c0-0.3-0.2-0.5-0.5-0.5
			c-1.3,0-2.6-0.1-4-0.1c-0.3,0-0.5,0.2-0.5,0.5C96.8,62.1,97.1,62.3,97.3,62.3z"/>
		<path class="st1" d="M103.4,62.5C103.4,62.5,103.4,62.5,103.4,62.5c1.3,0,2.7-0.1,4-0.2c0.3,0,0.5-0.3,0.5-0.5s-0.3-0.5-0.5-0.5
			c-1.4,0.1-2.7,0.2-4,0.2c-0.3,0-0.5,0.2-0.5,0.5C102.9,62.2,103.1,62.5,103.4,62.5z"/>
		<path class="st1" d="M89.5,60.4c-0.9-0.1-1.8-0.3-2.7-0.4c-0.4-0.1-0.9-0.1-1.3-0.1c-0.3,0-0.5,0.2-0.5,0.5c0,0.3,0.2,0.5,0.5,0.5
			c0.4,0,0.8,0.1,1.3,0.1c0.9,0.1,1.7,0.2,2.7,0.4c0,0,0.1,0,0.1,0c0.2,0,0.5-0.2,0.5-0.4C90,60.7,89.8,60.4,89.5,60.4z"/>
		<path class="st1" d="M158.4,68c-1.9,0.1-3.2,0.1-3.5,0c-0.1,0-0.3,0-0.5,0c-0.3,0-0.5,0.2-0.5,0.5c0,0.3,0.2,0.5,0.5,0.5
			c0.2,0,0.4,0,0.5,0c0.1,0,0.4,0,0.7,0c0.6,0,1.6,0,2.8,0c0.3,0,0.5-0.2,0.5-0.5S158.7,68,158.4,68z"/>
		<path class="st1" d="M152.4,67.9c-1.1-0.1-2.5-0.1-4-0.2c-0.2,0-0.5,0.2-0.5,0.5s0.2,0.5,0.5,0.5c1.5,0.1,2.9,0.1,4,0.2
			c0,0,0,0,0,0c0.3,0,0.5-0.2,0.5-0.5C152.9,68.2,152.7,67.9,152.4,67.9z"/>
		<path class="st1" d="M176.3,66.8c-1.3,0.1-2.7,0.3-4,0.4c-0.3,0-0.5,0.3-0.5,0.5c0,0.3,0.2,0.5,0.5,0.5c0,0,0,0,0,0
			c1.3-0.1,2.7-0.3,4-0.4c0.3,0,0.5-0.3,0.4-0.6S176.6,66.7,176.3,66.8z"/>
		<path class="st1" d="M146.4,67.6l-4-0.2c-0.3,0-0.5,0.2-0.5,0.5c0,0.3,0.2,0.5,0.5,0.5l4,0.2c0,0,0,0,0,0c0.3,0,0.5-0.2,0.5-0.5
			C146.9,67.9,146.7,67.6,146.4,67.6z"/>
		<path class="st1" d="M164.4,67.7c-1.5,0.1-2.8,0.1-4,0.2c-0.3,0-0.5,0.2-0.5,0.5c0,0.3,0.2,0.5,0.5,0.5c0,0,0,0,0,0
			c1.2,0,2.5-0.1,4-0.2c0.3,0,0.5-0.3,0.5-0.5C164.9,67.9,164.7,67.7,164.4,67.7z"/>
		<path class="st1" d="M170.4,67.3c-1.4,0.1-2.7,0.2-4,0.3c-0.3,0-0.5,0.3-0.5,0.5c0,0.3,0.2,0.5,0.5,0.5c0,0,0,0,0,0
			c1.3-0.1,2.6-0.2,4-0.3c0.3,0,0.5-0.3,0.5-0.5C170.9,67.5,170.6,67.3,170.4,67.3z"/>
		<path class="st1" d="M152.4,65.9c-1.1-0.1-2.5-0.1-4-0.2c-0.2,0-0.5,0.2-0.5,0.5s0.2,0.5,0.5,0.5c1.5,0.1,2.9,0.1,4,0.2
			c0,0,0,0,0,0c0.3,0,0.5-0.2,0.5-0.5C152.9,66.2,152.7,65.9,152.4,65.9z"/>
		<path class="st1" d="M146.4,65.6l-4-0.2c-0.3,0-0.5,0.2-0.5,0.5c0,0.3,0.2,0.5,0.5,0.5l4,0.2c0,0,0,0,0,0c0.3,0,0.5-0.2,0.5-0.5
			C146.9,65.9,146.7,65.6,146.4,65.6z"/>
		<path class="st1" d="M176.3,64.8c-1.3,0.1-2.7,0.3-4,0.4c-0.3,0-0.5,0.3-0.5,0.5c0,0.3,0.2,0.5,0.5,0.5c0,0,0,0,0,0
			c1.3-0.1,2.7-0.3,4-0.4c0.3,0,0.5-0.3,0.4-0.6C176.9,64.9,176.6,64.7,176.3,64.8z"/>
		<path class="st1" d="M158.4,66c-1.9,0.1-3.2,0.1-3.5,0c-0.1,0-0.3,0-0.5,0c-0.3,0-0.5,0.2-0.5,0.5c0,0.3,0.2,0.5,0.5,0.5
			c0.2,0,0.4,0,0.5,0c0.1,0,0.4,0,0.7,0c0.6,0,1.6,0,2.8,0c0.3,0,0.5-0.2,0.5-0.5S158.7,66,158.4,66z"/>
		<path class="st1" d="M164.4,65.7c-1.5,0.1-2.8,0.1-4,0.2c-0.3,0-0.5,0.2-0.5,0.5c0,0.3,0.2,0.5,0.5,0.5c0,0,0,0,0,0
			c1.2,0,2.5-0.1,4-0.2c0.3,0,0.5-0.3,0.5-0.5C164.9,65.9,164.7,65.7,164.4,65.7z"/>
		<path class="st1" d="M170.4,65.3c-1.4,0.1-2.7,0.2-4,0.3c-0.3,0-0.5,0.3-0.5,0.5c0,0.3,0.2,0.5,0.5,0.5c0,0,0,0,0,0
			c1.3-0.1,2.6-0.2,4-0.3c0.3,0,0.5-0.3,0.5-0.5C170.9,65.5,170.6,65.3,170.4,65.3z"/>
		<path class="st1" d="M145.6,64.1l0.4,0.1c0,0,0.1,0,0.1,0c0.2,0,0.5-0.2,0.5-0.4c0-0.3-0.1-0.5-0.4-0.6l-0.4-0.1
			c-1-0.2-2.2-0.3-3.6-0.4c-0.3,0-0.5,0.2-0.5,0.5c0,0.3,0.2,0.5,0.5,0.5C143.4,63.9,144.6,64,145.6,64.1z"/>
		<path class="st1" d="M166.1,64.1c1.3-0.1,2.6-0.3,4-0.4c0.3,0,0.5-0.3,0.4-0.6c0-0.3-0.3-0.5-0.6-0.4c-1.3,0.2-2.7,0.3-4,0.4
			c-0.3,0-0.5,0.3-0.4,0.6C165.6,63.9,165.8,64.1,166.1,64.1C166,64.1,166.1,64.1,166.1,64.1z"/>
		<path class="st1" d="M154.5,65c1.1,0,2.3,0,3.6-0.1c0.3,0,0.5-0.3,0.5-0.5s-0.3-0.5-0.5-0.5c-1.3,0.1-2.4,0.1-3.5,0.1l-0.5,0
			c-0.3,0-0.5,0.2-0.5,0.5c0,0.3,0.2,0.5,0.5,0.5L154.5,65z"/>
		<path class="st1" d="M172,63.4c1.4-0.2,2.7-0.3,4-0.4c0.3,0,0.5-0.3,0.4-0.6c0-0.3-0.3-0.5-0.6-0.4c-1.3,0.1-2.6,0.3-4,0.4
			c-0.3,0-0.5,0.3-0.4,0.6C171.5,63.2,171.7,63.4,172,63.4C172,63.4,172,63.4,172,63.4z"/>
		<path class="st1" d="M152,64.9C152,64.9,152,64.9,152,64.9c0.3,0,0.5-0.2,0.5-0.5c0-0.3-0.2-0.5-0.5-0.5c-1.2-0.1-2.5-0.2-3.9-0.4
			c-0.3,0-0.5,0.2-0.6,0.4c0,0.3,0.2,0.5,0.4,0.6C149.5,64.7,150.8,64.8,152,64.9z"/>
		<path class="st1" d="M160.1,64.7c1.1-0.1,2.5-0.2,4-0.4c0.3,0,0.5-0.3,0.4-0.6c0-0.3-0.3-0.5-0.6-0.4c-1.5,0.2-2.9,0.3-4,0.4
			c-0.3,0-0.5,0.3-0.5,0.5C159.6,64.5,159.8,64.7,160.1,64.7C160.1,64.7,160.1,64.7,160.1,64.7z"/>
		<path class="st1" d="M224.6,63.1c1.6,0.2,2.9,0.3,4,0.3c0,0,0,0,0,0c0.3,0,0.5-0.2,0.5-0.5c0-0.3-0.2-0.5-0.5-0.5
			c-1.1-0.1-2.4-0.2-4-0.3c-0.3,0-0.5,0.2-0.5,0.4C224.1,62.8,224.3,63.1,224.6,63.1z"/>
		<path class="st1" d="M242.6,62.6C242.6,62.6,242.6,62.6,242.6,62.6c1.4-0.1,2.8-0.1,4-0.1c0.3,0,0.5-0.2,0.5-0.5
			c0-0.3-0.2-0.5-0.5-0.5c-1.2,0-2.6,0.1-4,0.1c-0.3,0-0.5,0.2-0.5,0.5C242.1,62.4,242.3,62.6,242.6,62.6z"/>
		<path class="st1" d="M230.6,63.5C230.6,63.5,230.6,63.5,230.6,63.5c0.3,0,0.6,0,0.8-0.1c0.5-0.1,1.7-0.2,3.2-0.3
			c0.3,0,0.5-0.3,0.5-0.5c0-0.3-0.3-0.5-0.5-0.5c-1.6,0.1-2.7,0.2-3.2,0.3c-0.2,0-0.4,0-0.7,0.1c-0.3,0-0.5,0.2-0.5,0.5
			C230.1,63.3,230.4,63.5,230.6,63.5z"/>
		<path class="st1" d="M218.6,62.4c1.4,0.2,2.7,0.3,4,0.5c0,0,0,0,0.1,0c0.3,0,0.5-0.2,0.5-0.4c0-0.3-0.2-0.5-0.4-0.6
			c-1.3-0.1-2.6-0.3-4-0.5c-0.3,0-0.5,0.2-0.6,0.4S218.3,62.3,218.6,62.4z"/>
		<path class="st1" d="M236.6,63C236.6,63,236.6,63,236.6,63c1.3-0.1,2.6-0.2,4-0.3c0.3,0,0.5-0.3,0.5-0.5c0-0.3-0.2-0.5-0.5-0.5
			c-1.4,0.1-2.8,0.2-4,0.3c-0.3,0-0.5,0.3-0.5,0.5C236.1,62.8,236.4,63,236.6,63z"/>
		<path class="st1" d="M212.8,61.8c1.1,0,2.4,0.1,3.7,0.3l0.1,0c0,0,0,0,0.1,0c0.2,0,0.5-0.2,0.5-0.4c0-0.3-0.2-0.5-0.4-0.6l-0.1,0
			c-1.4-0.2-2.7-0.3-3.8-0.3h-0.1c-0.3,0-0.5,0.2-0.5,0.5S212.5,61.8,212.8,61.8z"/>
		<path class="st1" d="M225.9,66.7c0,0.3,0.2,0.5,0.5,0.5c1.3,0.1,2.7,0.1,4,0.1c0,0,0,0,0,0c0.3,0,0.5-0.2,0.5-0.5
			c0-0.3-0.2-0.5-0.5-0.5c-1.3,0-2.7-0.1-4-0.1C226.2,66.3,225.9,66.5,225.9,66.7z"/>
		<path class="st1" d="M242.4,66.2c-1.1,0.1-2.4,0.1-4,0.2c-0.3,0-0.5,0.2-0.5,0.5c0,0.3,0.2,0.5,0.5,0.5c0,0,0,0,0,0
			c1.6,0,2.9-0.1,4-0.2c0.3,0,0.5-0.3,0.5-0.5S242.7,66.2,242.4,66.2z"/>
		<path class="st1" d="M236.4,66.4C236.4,66.4,236.4,66.4,236.4,66.4c-1.1,0-2.1,0-3.3,0l-0.7,0c0,0,0,0,0,0c-0.3,0-0.5,0.2-0.5,0.5
			c0,0.3,0.2,0.5,0.5,0.5l0.7,0c1.1,0,2.2,0,3.3,0c0.3,0,0.5-0.2,0.5-0.5C236.9,66.6,236.7,66.4,236.4,66.4z"/>
		<path class="st1" d="M244.4,66c-0.3,0-0.5,0.3-0.5,0.5c0,0.3,0.2,0.5,0.5,0.5c0,0,0,0,0,0c1.2-0.1,2.7-0.1,3.9,0
			c0.3,0,0.5-0.2,0.5-0.5c0-0.3-0.2-0.5-0.5-0.5C247.2,65.9,245.7,65.9,244.4,66z"/>
		<path class="st1" d="M224.5,66.2c-1.5-0.1-2.7-0.2-3.8-0.3l-0.1,0c-0.3,0-0.5,0.2-0.6,0.4s0.2,0.5,0.4,0.6l0.1,0
			c1.1,0.1,2.4,0.3,3.9,0.4c0,0,0,0,0,0c0.3,0,0.5-0.2,0.5-0.5C224.9,66.4,224.7,66.2,224.5,66.2z"/>
		<path class="st1" d="M218.5,65.6c-1.4-0.1-2.7,0-4.1,0.1c-0.3,0-0.5,0.3-0.5,0.5c0,0.3,0.2,0.5,0.5,0.5c0,0,0,0,0,0
			c1.3-0.1,2.6-0.1,3.9-0.1c0.3,0,0.5-0.2,0.5-0.5C219,65.9,218.8,65.6,218.5,65.6z"/>
		<path class="st1" d="M236.9,64.4c-0.3,0-0.5,0.3-0.5,0.5c0,0.3,0.2,0.5,0.5,0.5c0,0,0,0,0,0c1.3-0.1,2.7-0.2,4-0.2
			c0.3,0,0.5-0.3,0.5-0.5c0-0.3-0.3-0.5-0.5-0.5C239.6,64.2,238.3,64.3,236.9,64.4z"/>
		<path class="st1" d="M226,64c-0.3-0.1-0.6-0.1-0.9-0.2c-0.3-0.1-0.5,0.1-0.6,0.4c-0.1,0.3,0.1,0.5,0.4,0.6
			c0.3,0.1,0.6,0.1,0.9,0.2c0.9,0.2,1.8,0.4,3.1,0.5c0,0,0,0,0,0c0.3,0,0.5-0.2,0.5-0.5c0-0.3-0.2-0.5-0.5-0.5
			C227.8,64.3,227,64.2,226,64z"/>
		<path class="st1" d="M232,64.5c-0.4,0-0.7,0-1,0c0,0,0,0,0,0c-0.3,0-0.5,0.2-0.5,0.5c0,0.3,0.2,0.5,0.5,0.5c0.3,0,0.7,0,1.1,0
			c0.9,0,1.9,0,2.9-0.1c0.3,0,0.5-0.2,0.5-0.5c0-0.3-0.3-0.5-0.5-0.5C234,64.5,233,64.5,232,64.5z"/>
		<path class="st1" d="M242.9,64c-0.3,0-0.5,0.3-0.5,0.5c0,0.3,0.2,0.5,0.5,0.5c0,0,0,0,0,0c1.4-0.1,2.8-0.2,4-0.2
			c0.3,0,0.5-0.2,0.5-0.5c0-0.3-0.3-0.5-0.5-0.5C245.7,63.8,244.4,63.9,242.9,64z"/>
		<path class="st1" d="M218.6,63.6c0,0.3,0.2,0.5,0.5,0.5c1.5,0.1,2.8,0.2,3.9,0.3c0,0,0,0,0.1,0c0.2,0,0.5-0.2,0.5-0.4
			c0-0.3-0.2-0.5-0.4-0.6c-1.1-0.1-2.5-0.3-4-0.3C218.8,63.1,218.6,63.3,218.6,63.6z"/>
		<path class="st1" d="M213.1,63c-0.3,0-0.5,0.2-0.5,0.5c0,0.3,0.3,0.5,0.5,0.5c1.1,0,2.4,0,4,0c0,0,0,0,0,0c0.3,0,0.5-0.2,0.5-0.5
			c0-0.3-0.2-0.5-0.5-0.5C215.5,63,214.2,63,213.1,63z"/>
		<path class="st1" d="M289.3,63.2c-0.3,0-0.5,0.2-0.5,0.5c0,0.3,0.2,0.5,0.5,0.5c1.3,0.1,2.6,0.1,4,0.1c0,0,0,0,0,0
			c0.3,0,0.5-0.2,0.5-0.5c0-0.3-0.2-0.5-0.5-0.5C291.9,63.3,290.5,63.3,289.3,63.2z"/>
		<path class="st1" d="M281.3,62.7C281.3,62.7,281.3,62.7,281.3,62.7c-1.2,0-2.5,0.2-4.1,0.5c-0.3,0.1-0.4,0.3-0.4,0.6
			c0.1,0.2,0.3,0.4,0.5,0.4c0,0,0.1,0,0.1,0c1.5-0.3,2.8-0.5,3.9-0.5c0.3,0,0.5-0.2,0.5-0.5C281.8,63,281.5,62.7,281.3,62.7z"/>
		<path class="st1" d="M283.3,62.9c-0.3,0-0.5,0.2-0.5,0.5c0,0.3,0.2,0.5,0.5,0.5c1.1,0.1,2.5,0.2,4,0.3c0,0,0,0,0,0
			c0.3,0,0.5-0.2,0.5-0.5c0-0.3-0.2-0.5-0.5-0.5C285.7,63,284.4,62.9,283.3,62.9z"/>
		<path class="st1" d="M296.1,63.4l-0.9,0c0,0,0,0,0,0c-0.3,0-0.5,0.2-0.5,0.5c0,0.3,0.2,0.5,0.5,0.5l0.9,0c1,0,2.1,0,3.1,0
			c0.3,0,0.5-0.2,0.5-0.5c0-0.3-0.2-0.5-0.5-0.5C298.2,63.4,297.2,63.4,296.1,63.4z"/>
		<path class="st1" d="M300.7,59.2C300.7,59.2,300.7,59.2,300.7,59.2c1.7-0.1,3-0.2,4-0.3c0.3,0,0.5-0.3,0.4-0.5
			c0-0.3-0.3-0.5-0.5-0.4c-1,0.1-2.4,0.2-4,0.3c-0.3,0-0.5,0.3-0.5,0.5C300.2,59,300.4,59.2,300.7,59.2z"/>
		<path class="st1" d="M282.7,59.8C282.7,59.8,282.7,59.8,282.7,59.8c1.2-0.1,2.5-0.1,3.8-0.1l0.2,0c0,0,0,0,0,0
			c0.3,0,0.5-0.2,0.5-0.5c0-0.3-0.2-0.5-0.5-0.5l-0.2,0c-1.3,0-2.6,0-3.8,0.1c-0.3,0-0.5,0.2-0.5,0.5
			C282.2,59.6,282.4,59.8,282.7,59.8z"/>
		<path class="st1" d="M276.7,60.4C276.7,60.4,276.8,60.4,276.7,60.4c1.3-0.2,2.6-0.3,4-0.4c0.3,0,0.5-0.3,0.5-0.5
			c0-0.3-0.3-0.5-0.5-0.5c-1.4,0.1-2.7,0.3-4,0.4c-0.3,0-0.5,0.3-0.4,0.6C276.3,60.2,276.5,60.4,276.7,60.4z"/>
		<path class="st1" d="M294.7,59.6C294.7,59.6,294.7,59.6,294.7,59.6c1.4-0.1,2.8-0.1,4-0.2c0.3,0,0.5-0.3,0.5-0.5s-0.3-0.5-0.5-0.5
			c-1.2,0.1-2.6,0.2-4,0.2c-0.3,0-0.5,0.2-0.5,0.5C294.2,59.4,294.4,59.6,294.7,59.6z"/>
		<path class="st1" d="M288.7,59.8C288.7,59.8,288.7,59.8,288.7,59.8c1.4,0,2.7,0,4-0.1c0.3,0,0.5-0.2,0.5-0.5
			c0-0.3-0.2-0.5-0.5-0.5c0,0,0,0,0,0c-1.3,0-2.6,0.1-4,0.1c-0.3,0-0.5,0.2-0.5,0.5C288.2,59.5,288.4,59.8,288.7,59.8z"/>
		<path class="st1" d="M292.8,60.9c-1.4,0.1-2.8,0.1-3.9,0.1h-0.1c-0.3,0-0.5,0.2-0.5,0.5s0.3,0.5,0.5,0.5c1.2,0,2.5,0,4-0.1
			c0.3,0,0.5-0.2,0.5-0.5C293.3,61.1,293.1,60.8,292.8,60.9z"/>
		<path class="st1" d="M298.8,60.6c-1.3,0.1-2.6,0.2-4,0.2c-0.3,0-0.5,0.2-0.5,0.5c0,0.3,0.2,0.5,0.5,0.5c0,0,0,0,0,0
			c1.4-0.1,2.7-0.1,4-0.2c0.3,0,0.5-0.3,0.5-0.5C299.3,60.7,299,60.5,298.8,60.6z"/>
		<path class="st1" d="M276.9,62.2c1.3-0.2,2.6-0.4,3.9-0.4c0.3,0,0.5-0.2,0.5-0.5c0-0.3-0.3-0.5-0.5-0.5c-1.4,0.1-2.7,0.2-4,0.4
			c-0.3,0-0.5,0.3-0.4,0.6C276.4,62,276.6,62.2,276.9,62.2C276.9,62.2,276.9,62.2,276.9,62.2z"/>
		<path class="st1" d="M285.3,60.8c-0.8-0.1-1.6-0.1-2.4-0.1c0,0,0,0,0,0c-0.3,0-0.5,0.2-0.5,0.5c0,0.3,0.2,0.5,0.5,0.5
			c0.8,0,1.6,0,2.4,0.1c0.5,0,1,0.1,1.6,0.1c0,0,0,0,0,0c0.3,0,0.5-0.2,0.5-0.5c0-0.3-0.2-0.5-0.5-0.5
			C286.3,60.9,285.8,60.9,285.3,60.8z"/>
		<path class="st1" d="M304.8,60.1c-1.1,0.1-2.4,0.2-4,0.3c-0.3,0-0.5,0.3-0.5,0.5c0,0.3,0.2,0.5,0.5,0.5c0,0,0,0,0,0
			c1.5-0.1,2.9-0.2,4-0.3c0.3,0,0.5-0.3,0.5-0.5S305,60.1,304.8,60.1z"/>
		<path class="st1" d="M370,56.8c1.6,0,3,0.1,4,0.1c0,0,0,0,0,0c0.3,0,0.5-0.2,0.5-0.5c0-0.3-0.2-0.5-0.5-0.5c-1.1,0-2.4-0.1-4-0.1
			c-0.3,0-0.5,0.2-0.5,0.5C369.5,56.6,369.8,56.8,370,56.8z"/>
		<path class="st1" d="M364,56.6c1.4,0,2.7,0.1,4,0.1c0,0,0,0,0,0c0.3,0,0.5-0.2,0.5-0.5c0-0.3-0.2-0.5-0.5-0.5
			c-1.3,0-2.6-0.1-4-0.1c-0.3,0-0.5,0.2-0.5,0.5C363.5,56.4,363.8,56.6,364,56.6z"/>
		<path class="st1" d="M353.2,59.6c-0.3,0-0.5,0.2-0.5,0.5c0,0.3,0.2,0.5,0.5,0.5c1.3,0,2.7,0,4,0.1c0,0,0,0,0,0
			c0.3,0,0.5-0.2,0.5-0.5c0-0.3-0.2-0.5-0.5-0.5C355.9,59.6,354.6,59.6,353.2,59.6C353.2,59.6,353.2,59.6,353.2,59.6z"/>
		<path class="st1" d="M346.4,58.3c0.7,0,1.4,0,2.1,0.1c0.5,0,1.2,0.1,1.9,0.1c0,0,0,0,0,0c0.3,0,0.5-0.2,0.5-0.5
			c0-0.3-0.2-0.5-0.5-0.5c-0.7,0-1.3-0.1-1.9-0.1c-0.7,0-1.5-0.1-2.1-0.1c0,0,0,0,0,0c-0.3,0-0.5,0.2-0.5,0.5
			C345.9,58.1,346.1,58.3,346.4,58.3z"/>
		<path class="st1" d="M364.4,57.9C364.4,57.9,364.4,57.9,364.4,57.9c-0.3,0-0.5,0.2-0.5,0.5c0,0.3,0.2,0.5,0.5,0.5l4,0.1
			c0,0,0,0,0,0c0.3,0,0.5-0.2,0.5-0.5c0-0.3-0.2-0.5-0.5-0.5L364.4,57.9z"/>
		<path class="st1" d="M340.4,58.7C340.4,58.7,340.4,58.7,340.4,58.7c1.3-0.2,2.6-0.3,4-0.4c0.3,0,0.5-0.2,0.5-0.5s-0.3-0.5-0.5-0.5
			c-1.4,0.1-2.8,0.2-4,0.4c-0.3,0-0.5,0.3-0.4,0.6C339.9,58.5,340.1,58.7,340.4,58.7z"/>
		<path class="st1" d="M358.4,58.7l4,0.1c0,0,0,0,0,0c0.3,0,0.5-0.2,0.5-0.5c0-0.3-0.2-0.5-0.5-0.5l-4-0.1c-0.3,0-0.5,0.2-0.5,0.5
			S358.1,58.7,358.4,58.7z"/>
		<path class="st1" d="M370.4,58C370.4,58,370.4,58,370.4,58c-0.3,0-0.5,0.2-0.5,0.5c0,0.3,0.2,0.5,0.5,0.5c1.6,0,2.9,0.1,4,0.1
			c0,0,0,0,0,0c0.3,0,0.5-0.2,0.5-0.5c0-0.3-0.2-0.5-0.5-0.5C373.3,58.1,372,58.1,370.4,58z"/>
		<path class="st1" d="M352.3,58.5c1.2,0,2.6,0.1,4,0.1c0,0,0,0,0,0c0.3,0,0.5-0.2,0.5-0.5c0-0.3-0.2-0.5-0.5-0.5
			c-1.4,0-2.8-0.1-4-0.1c-0.3,0-0.5,0.2-0.5,0.5S352.1,58.5,352.3,58.5z"/>
		<path class="st1" d="M469.5,420.3c-0.7-0.9-0.9-1.5-1.1-2c-0.5-1.2-0.9-1.8-3.2-2.8c-2.4-1.1-4.6-3.4-5.4-4.3l0.7-2.6
			c0-0.1,0-0.2,0-0.4c0-0.2-0.5-6-1-8.7c-0.2-0.9-0.4-2-0.7-3.2c-0.5-2.2-1.1-4.7-1.3-6.5c-0.1-0.9,0.1-1.3,0.3-1.6
			c0.5-1.1,0.5-1.9-1-3.9c-0.5-0.6-0.7-1.1-1-1.5c-1.1-1.9-1.6-2.1-5.8-2.9c-3.4-0.6-5.2-0.9-6.1-1c-0.1-0.2-0.2-0.3-0.3-0.5
			c-1.8-6.2-6.9-13.2-11.8-18.1c-0.1-2.5-0.1-5-0.2-7.5c0-2.5-0.1-5,0-7.4l0-1.9c0-0.6,0-1.2,0-1.9c0-1.3,0-2.6,0-3.8
			c-0.1-10.1-0.5-20.2-0.8-29.6c-0.3-9.4-0.6-18.3-1-25.8c-0.4-7.6-0.6-13.8-0.8-18.3c0-0.8-0.1-1.5-0.1-2.2
			c0.6,0.4,1.3,0.7,2.3,0.7c2.2,0,4.7-0.8,6.9-1.5c1.4-0.5,2.9-0.9,3.5-0.9c1,0.1,2.7-0.1,4.6-0.3c1.7-0.2,3.5-0.4,4.5-0.3
			c2,0.2,6,0.5,7.2-5.8c0.3-1.6,0.6-2.9,0.8-4c0.6-2.9,1-4.8,0.9-7.7c0-0.9,0-1.6,0-2.3c0-2.6,0-4.6-1.9-9c-0.5-1.2-1-2.3-1.5-3.4
			c-1.4-3.2-2.5-5.7-2.6-6.6c-0.1-0.4-0.6-4.2-2.5-6.8c-1.3-1.8-3.2-8.6-3.3-9.4c0-0.2,0-0.9-3.3-7.9c-0.2-0.4-0.6-0.6-1-0.6
			l-3.1,0.3c-0.8-5.1-3.2-17.4-4.4-21.5c0,0,0.1,0,0.1,0c0.5-0.2,0.8-0.7,0.6-1.2c0,0-1.1-3.9-1.1-5.9c0-1.1-0.4-2-0.8-3
			c-0.5-1.3-1.1-2.8-1-4.9c0.2-4,0.1-16.6,0-20.7c-0.1-2.5-0.9-4.4-1.7-6.2c-0.5-1.2-1-2.2-1-3c-0.2-2.5-0.2-3.9-0.2-5.9
			c0-2-0.5-8.8-1.2-11.6c-0.6-2.5-0.1-6.9,0.3-8.5c0.4-1.5-0.5-4.6-1.5-8c-0.2-0.7-0.4-1.4-0.5-1.6c0-0.3,0.2-1.3,0.3-2.2
			c0.3-1.7,0.7-3.9,0.7-6.1c0-2.4-0.6-3.9-1.4-5.7c-0.5-1.2-1-2.5-1.5-4.4c-0.9-3.5-1.7-6.5-2-7.8c0.7-0.9,0.9-2.6,0.9-4.7
			c0-1.7-0.7-3.4-1.3-5.1c-0.3-0.7-0.5-1.4-0.7-2.1c-0.8-2.5-5.1-5-5.6-5.3c-0.1-0.1-0.3-0.1-0.5-0.1h-1.2c0.2-4,0-6.7-0.6-8.3
			c-2.6-6.9-8.6-7.1-15-6.8c-0.5,0-1.1,0.1-1.8,0.1c0.8-3.3,2.8-11.5,4.1-17.1c1.6-6.7,2.6-12.6-2.2-16.8c-0.8-0.7-1.7-0.9-2.7-0.7
			c-3.3,0.7-7.7,6.9-13.1,18.5c-1.9,4.1-6.8,15.3-8.2,18.6c-6.4,0.8-12.4,1.5-15.2,1.8c-2.7,0.2-8.5,0.1-15.3,0
			c-10.3-0.2-23.2-0.4-29.8,0.6c-10.7,1.6-53.5,4.4-64.6,4.7c-2,0.1-5.2,0.2-9.2,0.3c-16.9,0.6-52,1.9-57.7,0.7
			c-7.3-1.6-60.7-1.6-62.9-1.6c0,0-0.1,0-0.1,0c-0.2,0-19.9,1.8-26.5,0c-2.3-0.6-6.4-1.4-11.1-2c-1.9-4.2-8.9-20-10.9-24.1
			C69.3,10.7,63.8,1,59.5,0.1c-1-0.2-2,0-2.8,0.7c-5,4.3-4,10.2-2.3,16.8c1.5,5.8,5.5,19.4,6.8,24.1c-1.2,0.1-2.2,0.3-3.1,0.5
			c-1.3,0.4-3.3,0.4-5.3,0.4c-2.8,0-5.7,0-7.6,1.1c-0.9,0.5-2.6,1.4-5.1,25.9c0,0.5-0.1,0.9-0.1,1.4c-2.7-0.3-8.6-0.8-9.8,1.8
			c-0.8,1.6-1.2,4.3-1.5,6.4c-0.2,1.1-0.3,2.1-0.5,2.6c-0.5,1.8-0.7,3.6-0.8,6.1c-0.1,2.4,0.1,3,1.8,3.9c-0.2,0.3-0.3,0.7-0.5,1
			c-1.4,2.9-3.2,6.5-3.2,9c0,3,0,8,0.9,12c0.8,3.6,0.9,4.2,1.1,7.2l0,0.6c0.1,1,0.2,1.9,0.3,2.7c0.2,2,0.4,3.4-0.2,4.5
			c-1.1,2.1-3,11.9-3,14.2c0,1,0.2,1.8,0.4,2.5c0.3,1.1,0.6,2.2,0.5,4.6c-0.1,2.5,0.3,4.2,0.7,6c0.4,1.4,0.7,2.9,0.9,5
			c0.1,1.4,0.4,3,0.6,4.5c0.6,3.7,1.3,7.6-0.4,9.8c-2.4,3.2-1.6,8.9-1.1,13.1c0.1,1,0.3,1.9,0.3,2.6c0.2,2.2,0.3,5.5,0.4,8.8
			c0.1,1.9,0.1,3.7,0.2,5.3l0.1,1.2c0.2,4.5,0.6,12.9,0,15.4c-0.7,2.9-1.1,6.9-1,8.8c0,0.3,0.1,0.6,0.2,0.9
			c-0.4,0.8-0.5,1.3-0.5,1.9c0,0.6,0,1.4-1.2,3.8c-1.8,3.6-2.6,6-3.5,8.5c-0.3,0.7-0.5,1.4-0.8,2.2c-0.4,1-0.7,1.9-1,2.8
			c-0.7,2.1-1.3,3.9-2.3,5.4c-1.7,2.6-2.3,7.3-2.3,9.2c0,0.3,0,0.7,0.1,1c-0.2-0.1-0.4-0.3-0.6-0.4c-0.6-0.4-1.3-1-2.2-0.8
			c-0.8,0.1-1.5,0.8-2.3,2c-2,3.2-3.8,4.1-3.9,4.1c-0.5,0.2-0.7,0.8-0.5,1.2s0.7,0.8,1.2,0.6l2.9-0.6l-0.1,0.3
			c-0.5,0.4-1.1,1.1-1.6,2.7c-0.2,0.6-0.5,1.1-0.8,1.8c-0.8,1.7-1.8,3.6-1.5,6.1c0.3,2.7,1,3.6,1.9,4.8c0.2,0.3,0.5,0.6,0.7,1
			c0.8,1.1,1,1.8,1.3,2.7c0.2,0.6,0.4,1.2,0.8,2c0.8,1.8,3,2.9,4.3,3.5c0.2,0.1,0.4,0.2,0.6,0.3c0.3,0.4,0.7,0.6,1.4,0.4
			c0.4-0.1,1.3-0.2,3.2-0.1c3.3,0.2,5.5,1.2,5.6,1.2c0,0,1.9,0.6,3.5,1.1c0.9,0.3,1.5,0.4,2.1,0.4c0.5,0,0.9-0.1,1.5-0.3
			c-0.2,8.8-0.4,19.2-0.1,22.5c0.6,6.8,1.9,27.6,3,48.6c-0.4,0.2-0.9,0.4-1.4,0.5c-2.9,1.1-6.9,2.5-7.3,5.8c-0.2,2.1-1.4,5.9-2.3,9
			c-0.4,1.2-0.7,2.3-0.9,3.1c-1.1-0.3-2-0.6-2.5-0.9c-2.2-1.4-3.8-0.9-5.7-0.4c-0.3,0.1-0.5,0.2-0.8,0.2c-0.7,0.2-1.4,0.2-2.2,0.2
			c-1.5,0-3.6,0-4.4,2.3c-0.4,1.3-0.9,3.3-1.4,5.2c-0.5,1.8-0.9,3.7-1.2,4.6c-0.9,2.4-1.9,5.6-1.7,8.1c0,0.7,0,1.2-0.1,1.6
			c-0.2,1.1-0.2,1.8,0.9,3.3c-0.3,0.5-0.5,0.9-0.7,1.1c-0.6,0.9-1,1.5-1.8,4.8c-1.2,5.1-1.4,9.4-1.4,9.6c0,0,0,0.1,0,0.1
			c0,0,0.3,4.3,0.3,6.8c0,0.6-0.2,1-0.4,1.3c-0.8,1.3-0.8,2.3,1.2,4.5c2.2,2.4,3.5,3.1,5,4c0.6,0.3,1.2,0.6,1.9,1.1
			c2.9,1.8,6.5,1.8,8.2,1.8c1.2,0,1.7-0.9,1.9-1.3c0-0.1,0.1-0.3,0.2-0.3c0,0,0.3-0.2,1.8,0.4c4.1,1.5,8.9,1.7,9.2,1.7
			c0.1,0,0.6,0,1.2,0c0.3,0,0.7,0,1.1,0c-3,17.9-2.8,22.2-2.4,23.9c0.5,1.8,1.4,3.8,3.5,5.8c0,1.1,0,2.9,0.1,4.7
			c0.1,2.4,1.9,10.6,2.6,13.5c-1.1,0.4-2.2,1.1-3.1,1.9c-0.4,0.4-0.9,0.8-1.2,1.1c-2.8,2.6-4.3,3.8-3.1,7.8c0.9,3,0.7,4.9,0.4,7.9
			c-0.1,0.6-0.1,1.2-0.2,1.8c-0.3,3.4,0.4,14.5,3.5,19.6c-1.1,1.1-2.8,2.3-4.6,3.6c-4.9,3.3-11.1,7.5-10.3,14.9
			c0,0.3,0.2,0.6,0.4,0.7c0.2,0.2,0.5,0.2,0.8,0.1c0.4-0.1,1-0.2,1.1-0.1c0.1,0.1,0.4,0.4,0.7,0.6c0.9,0.9,1.9,1.9,2.9,1.9
			c1.2,0,1.5-0.9,1.7-1.3c0-0.1,0.1-0.2,0.1-0.2c0.2-0.1,0.3-0.1,0.3-0.1c0,0,0.3,0.2,0.6,1c0.3,0.8,0.8,1.2,1.5,1.3
			c1,0.1,1.6-0.7,1.9-1.3c0-0.1,0.1-0.1,0.1-0.2c0.3,0,0.9,0.1,1.6,0.4c0.8,0.4,1.6,0.1,2.4-0.1c0.6-0.2,1.1-0.3,1.3-0.1
			c0.1,0.1,0.3,0.2,0.4,0.3c0.9,0.7,1.5,1,4.6,1c0.5,0,1.2,0,1.9,0c5.7-0.1,16.6-2.3,17.6-2.7c0.2-0.1,0.5-0.3,1-0.5
			c1.4-0.7,5.7-3,7.1-2.6c0.7,0.2,1.3,0.1,1.8-0.4c1.9-1.5,1.6-6.9,1.5-6.9c-0.3-3.7-5.1-11.9-11.4-14.5c0.1-0.2,0.2-0.5,0.3-0.8
			c0.4-1.3,0.2-2.5-0.5-3.4c-1.4-1.7-1.9-3.8-1.8-4.7c0.2-1.9-2.6-5.8-3.6-6.9c-0.4-0.5-0.4-1.6-0.4-2.6c0-1.5,0.1-3.1-1.1-4.1
			c-1.1-0.9-1.1-0.9-1.3-1.9l-0.3-1.1c-0.6-2.6-1.6-6.6-5.9-8.5c-0.8-0.4-1.6-0.6-2.3-0.8c-1.2-3.1-2.2-10.5-2.3-14.3
			c5.9,2.3,15.1,4,29.7,4.3c2.6,0.1,5.7,0.1,9.1,0.1c11.7,0,27.4-0.3,43.7-0.6c-0.1,3.1-0.5,13.7,0,21.1c-3.9,0.9-7.7,2.9-8,8.6
			c-0.1,2.5,0,7,0.2,11.7c0.2,6.8,0.6,15.4-0.1,17.3c-0.1,0.3-0.2,0.6-0.2,0.9c-1.3,1.9-4.1,8.2-3.3,11.9c0.3,1.5,1.4,6.6,2.6,7.4
			c0.4,0.3,1.4,0.8,2.6,1c1,0.2,2.5,0,2.8,0c1.1-0.2,2.5-0.4,2.8-0.4c0.3,0,1,0.2,1.5,0.4l1.8,1.5c0,0,0.1,0.1,0.1,0.1
			c0.1,0,1.9,1,4.1,0c0.7-0.3,1.2-0.6,1.5-0.8c0.1,0,0.2-0.1,0.2-0.1c0.1,0.1,0.2,0.2,0.3,0.3c0.6,0.5,1.4,1.2,2.5,1.2
			c0.2,0,0.5,0,0.8-0.1c1.4-0.4,3.5-2.6,3.9-3.1c0.2-0.2,0.3-0.4,0.3-0.6c0-0.5,0.1-1.1,0.3-1.3c0.4-0.2,1.1-0.7,2-3.2
			c0,0,0,0,0.1,0c0.8-0.6,1.1-2,0.9-4.7c-0.3-4-1.6-8.6-2.3-10.1c0.2-1.8,0.1-5.1,0-7.3c0-0.8,0-1.4,0-1.8c0-0.7,0.2-3.6,0.4-5.9
			c0.2-2.4,0.3-3.9,0.3-4.3c0-0.2,0-0.7,0.1-1.4c0.3-6.4,0.3-9-0.2-9.9c0-0.1-0.1-0.2-0.2-0.3c-2.3-5-6-7.6-11.2-7.7
			c-0.2-3.5-0.1-15.2,0.1-20.3c2.8-0.1,5.6-0.1,8.4-0.2c20.6-0.5,41.6-0.9,57-1c-0.4,5.3-1.4,15.4-2.7,18.6c-0.6,0-1.3,0-2,0.1
			c-9.2,0.6-9.2,5.4-9.2,8c0,1.4,0.5,2.9,0.9,4.2c0.3,1,0.7,2.3,0.6,2.8c-0.1,0.3-0.2,0.7-0.4,1.1c-0.6,1.4-1.5,3.4-0.1,5.5
			c0.3,0.5,0.7,0.9,1,1.4c1.3,1.6,2.6,3.3,2.3,4.8c-0.7,3.3-1.3,8.7,1.1,10.9c-0.7,1.5-1.5,2.8-2.3,4.1c-1.4,2.3-2.7,4.4-3.2,7.1
			c-0.9,5.6,0,12.3,4.9,14.1c1.2,0.4,2.1,0.6,2.7,0.6c1,0,1.5-0.4,2-1c0.2-0.3,0.3-0.4,1-0.3c0.4,0,0.8,0.1,1.2,0.2
			c3.5,0.5,8.8,1.2,11.3-0.3c2.5-1.5,6.9-3.4,8.2-3.5c0.2,0,0.4,0,0.6,0c1.6,0,4.2-0.1,6.9-3.5c1.4-1.7,2.2-3.1,2.8-4.1
			c0.3-0.5,0.7-1.1,0.7-1.2c1.1,0,3.5-0.1,4.2-0.3c1-0.2,1.1-1.2,1.1-2.2c0.1-1,0.2-2.4,1-3.1c0.7-0.6,1.7-1,2.6-1.3
			c1.3-0.5,2.6-1,2.9-2.1c0-0.2,0.1-0.3,0.2-0.5c0.4-1.3,1.2-3.8-1-5.4c-0.6-0.4-1.1-0.8-1.7-1.1c-1.4-0.9-2.9-1.9-5.2-4
			c-3.4-3.2-6.7-4.4-12.7-4.9l-4.3-0.3c0.5-2.2,0.7-4.8,0.5-6.6c-0.1-2.3-0.7-3-1.1-3.3c-1.3-1-6.2-6.2-6.7-7.3c0-0.1,0-0.4,0-0.6
			c0.1-1.1,0.3-3-1.6-4.6c-0.4-0.3-0.7-0.6-1-0.9c-0.9-0.9-1.7-1.5-2.9-1.9c0.8-1.2,2.1-3.3,4.1-6.2c3-4.4,0.7-9-1.2-12.7
			c0-0.1-0.1-0.1-0.1-0.2c4.9,0,9,0.1,12.1,0.3c9,0.5,35.9,0.6,66.7,0.5c2.1,3.2,6.2,12.9,6,17.7c-0.3-0.1-0.5-0.1-0.8-0.2
			c-1.8-0.4-4-1-4.9,0.8c-0.5,1.1-0.8,2.3-1,3.3c-0.1,0.4-0.2,0.9-0.3,1.2c-1,0.4-2.7,1.6-3.7,3c-0.7,1-0.9,2-0.7,2.9
			c0.3,1.3,1,2.2,1.6,2.8c0.6,0.8,1,1.2,1,1.9c0,2,0,5.2,0.7,7.7c-1.5-0.8-3-1.1-5.2-0.1c-2.9,1.4-6.4,3.8-7.1,5.8l-0.1,0.3
			c-1,2.5-1.8,5-0.9,6.5c0.4,0.6,1.2,0.9,2.1,0.9c-0.4,0.4-0.8,0.9-1.2,1.3c-1.9,2.2-3.5,4.5-3,6.6c0.3,1.2,1.3,2.1,2.9,2.7
			c1.6,0.6,2.8,0.9,3.8,1.1c1.6,0.3,2.1,0.4,2.8,1.7c0.4,0.8,0.5,1.3,0.6,1.7c0.4,1.4,1,1.6,2.9,1.7c2.6,0.2,3.7,0.6,6.4,2
			c0.4,0.2,0.5,0.3,0.6,0.4c0,0.2,0,0.5,0.2,0.8c0.4,0.5,1.1,0.6,3,0.6c1.6,0,2.3,0.4,2.7,0.6c0.5,0.2,0.8,0.4,1.2,0.4
			c0.7,0,1.3-0.4,2.4-1.2c0.3-0.2,0.6-0.5,0.9-0.7c2.3-1.8,4-3.1,7.2-2.6c3.1,0.5,4.1,0.2,5.1-0.1c0.3-0.1,0.6-0.2,1.1-0.3
			c1.4-0.2,5-1,6.4-4.2c0.3-0.6,0.9-1,1.5-1.5c1.4-1,3.3-2.3,2-6.2c-1.7-5.2-9.8-12.2-11.2-13.2c-0.8-0.6-1.7-1-2.4-1.3
			c1.1-2.4,1.9-5.4,1.8-6.8c0-0.1-1.9-13.6-4.8-16.5c-0.4-0.4-0.8-0.9-1.2-1.4c-1.3-1.6-2.6-3.4-6-3.3c0.3-5.1-2.4-12.9-4.6-17.1
			c22.9-0.2,47.2-0.5,67.5-1c-0.1,3.4-0.1,11.2,1.5,15.9c-2.1-0.5-4.2-0.3-6.4,0.8c-3.4,1.7-3.8,5.6-3.5,6.5c0.1,0.3,0.4,0.6,0.8,1
			c0.2,0.2,0.7,0.8,0.9,1.1c-0.5,0.2-0.9,0.3-1.3,0.4c-1,0.3-2.1,0.6-2.6,2.4c-0.1,0.5-0.4,1.1-0.6,1.8c-0.8,2-1.6,4.1-0.4,5.2
			c0.4,0.4,0.9,1.6,1.2,2.6c-1.3,1-2.6,2.8-1.7,4.7c0.5,1.1,1.4,1.6,1.9,1.9c0.6,0.4,0.6,0.4,0.5,1c-0.1,0.6-0.3,1.1-0.6,1.6
			c-0.5,1.2-1.1,2.6,0.3,4.2c-4.9,4.9-11.3,11.6-11.7,15.4c-0.2,1.4-0.7,3-1.2,4.6c-0.9,3-1.8,5.8-0.5,7.8c1.5,2.3,4.5,3.8,5.8,3.4
			c0.5-0.1,0.8-0.5,0.9-1c0.9,1.2,2.1,2.5,6.9,3.2c2.2,0.3,4.9,0.5,7.6,0.5c5.5,0,11.1-0.6,13-1.3c1.7-0.7,3.5-0.4,4.8-0.1
			c0.4,0.1,0.8,0.1,1.1,0.2c0.5,0,1.9,0.2,8.1-7.6c0.1-0.1,0.1-0.2,0.2-0.3c0.1-0.2,1.7-5.5,1.2-8.4l-0.1-0.4
			c-0.5-2.6-0.9-5.1-3.4-7.3c-1.6-1.4-3.4-5.4-4.2-7.2c1.2-2.8,1.7-8,0.2-10.4c-1.1-1.6-1.5-4.3-1.2-8.1c0-0.2,0-0.3,0-0.4
			c0-1-2-4.4-3.1-5.5c-0.1-0.1-0.2-0.2-0.2-0.3c0-0.1,0-0.1,0.1-0.2c0.7-0.1,1.8-0.4,2-1.4c0.4-1.3-0.9-2.3-1.9-3.1
			c-2.1-1.5-4.4-2.7-6.2-3.7c-0.8-0.4-1.5-0.8-2.1-1.2c0.9-3.5,2-14.6,2.4-18.5c17-0.5,30.2-1.2,35.6-2c17.6-2.7,23.6-5.3,28-7.3
			c0.1,0,0.1-0.1,0.2-0.1c1.4,3.3,3.3,9.7,2.5,15l-0.9,6.2c-0.9,0.2-1.4,0.1-1.8,0c-0.8-0.2-1.4-0.2-2.7,0.7
			c-2.6,1.8-4.3,10.1-3.2,13.5c0.7,2.2,0.6,7.5,0.5,10.3c0,0.7,0,1.3,0,1.7c0,0.4-0.1,1.2-0.2,2c-0.4,2.3-0.8,5.3,0.3,7.1
			c-4.2,2.3-6.6,4.4-7.5,6.8c-0.3,0.8-0.9,1.8-1.5,3c-1.5,2.7-3.3,6.1-3.1,8.8c0.4,3.7,3.3,8.1,8.8,9.1c1.9,0.3,4.1,0.9,6.3,1.5
			c3,0.8,5.7,1.5,7.5,1.5c0.3,0,0.6,0,0.8-0.1c2.2-0.4,10.3-5.8,10.8-7.7c0.1-0.2,0.5-1,0.8-1.7c1-1.9,2.5-4.7,2.8-7.3
			c0.3-3.5-0.8-11.5-4.7-15.4c0.8-1.3,1.3-2.9,1-4.2c-0.7-3.5-2.5-12.8-2.5-13.8c0.2-1.1,0.2-7.6-0.7-10c-0.8-2-2.4-3-3.1-3.4
			c0-0.1-0.1-0.2-0.1-0.3c-0.6-1.4-1.4-2.8-3.5-2.9c-1.1-4.5-0.4-9.9,0.1-11.9c0.6-2,0.6-8.7,0.2-12.3c2.9-3,4.8-8.4,3.7-18.9
			c-0.2-2.1-0.5-6.1-0.8-9.9c0.9,0.2,2,0.4,3.6,0.5l1,0.1c0.6,0.1,1.2,0.1,1.7,0.1c2.6,0,4.6-0.6,5.8-1c0.3-0.1,0.8-0.2,0.9-0.2
			c0.3,0,0.6,0,1-0.1c0.8-0.1,1.8-0.2,2.9,0.1c1.7,0.5,3.6,0.2,6-0.9c0.4-0.2,0.9-0.4,1.5-0.6c2-0.7,4.4-1.5,5.5-2.8
			c0.3,0.1,0.7,0.3,1.2,0c0.6-0.3,0.9-1,1.2-3.2c0.3-2,0.4-3.9,0.5-5.4c0.1-1.4,0.2-3.2,0.4-3.6l0.2-0.2
			C470.4,425.1,471.9,423.6,469.5,420.3z M454.3,383.8c0.3,0.4,0.6,1,1.1,1.7c1,1.4,0.9,1.5,0.8,1.9c-0.2,0.5-0.5,1.2-0.4,2.5
			c0.1,2,0.7,4.5,1.3,6.8c0.3,1.1,0.5,2.2,0.7,3.1c0.4,2.3,0.9,7.3,1,8.3l-1.7,6.1c-1.5,1.5-4.2,3.9-5.5,4.2c-0.6,0.1-0.8,0-1.6-1
			c-0.6-0.7-1.3-1.6-2.6-2.3c-1-0.6-2.2-0.9-3.4-1.2c-1.8-0.5-3.6-0.9-4.9-2.3c-1.9-2.1-2.9-3.9-3.1-4.3c-0.2-1-1.6-8-1.6-10.3
			c0-1.3,0.5-2.3,0.9-3.2c0.4-0.8,0.8-1.6,0.8-2.5c0-1.4,0.7-5.2,1.9-6.9c1.1-1.5,2.1-2.2,4.5-3.2c0.2,0.4,0.5,0.6,0.9,0.6
			c0,0,0.1,0,0.1,0c0.5-0.1,0.8-0.5,0.8-0.9c0.9,0.1,2.6,0.4,5.5,0.9C453.6,382.5,453.6,382.6,454.3,383.8z M434.5,416
			c-0.1-1.7-0.2-4.5-0.4-8c0,0,0,0,0,0c0,0.1,1,2,3,4.4C436.4,413.9,435.5,415.1,434.5,416z M433.5,393c0,0.1-0.1,0.2-0.1,0.2
			c0,0,0,0,0-0.1c-0.3-6.1-0.6-13.1-0.9-20.5c3.5,3.1,6.2,4.7,7.9,5.8c0.6,0.4,1.2,0.7,1.5,1c-2.6,1-4.2,1.9-5.6,4
			c-1.6,2.2-2.3,6.4-2.3,8.1C434.1,391.8,433.8,392.3,433.5,393z M441.1,376.4c-1.9-1.1-4.8-3-8.6-6.6c0-0.8-0.1-1.6-0.1-2.4
			c0-1.3-0.1-2.7-0.1-4C435.7,367.1,439.2,371.9,441.1,376.4z M446.1,204.6c0.1,1.3,2.1,8.4,3.7,10.5c1.3,1.8,2,4.6,2.1,5.9
			c0.1,1.2,1.1,3.4,2.8,7.1c0.5,1,0.9,2.1,1.5,3.4c1.7,4,1.7,5.8,1.7,8.2c0,0.7,0,1.5,0,2.4c0.1,2.7-0.2,4.4-0.8,7.2
			c-0.2,1.1-0.5,2.4-0.8,4c-0.8,4.5-3.1,4.4-5.1,4.2c-1.1-0.1-2.9,0.1-4.8,0.3c-1.7,0.2-3.4,0.4-4.2,0.3c-1-0.1-2.5,0.4-4.3,0.9
			c-2.1,0.6-4.4,1.4-6.3,1.4c-1.7,0-2.4-1.8-3.5-4.9c-0.5-1.5-1.1-3.2-2-4.7c-1.5-2.7-0.8-8.5-0.2-13.1c0.3-2.8,0.6-5.3,0.4-6.8
			c-0.4-3.5,0.9-10.1,1.1-11c0.4-0.8,2.6-5.7,3.1-7.3c0.4-1.4,0.3-3.2,0.2-5.7c0-0.7-0.1-1.5-0.1-2.3c-0.1-2.6,1.9-4.8,2.6-5.5
			l0.9-0.1c0.1,0.1,0.3,0.1,0.5,0.1c0.1,0,0.2,0,0.2,0c0.2,0,0.3-0.1,0.4-0.2l3.9-0.4c0.1,0.4,0.5,0.7,0.9,0.7c0,0,0.1,0,0.1,0
			c0.5,0,0.8-0.4,0.9-0.8l2.4-0.2C444.6,201,445.9,204,446.1,204.6z M412.8,74.3c0.1-1.3,0.1-2.4,0.3-3.4c0.2-1.8,0.6-3.2,0.9-4.2
			c0.9,1.1,1.6,1.7,2.3,2c0,0,0,0.1,0,0.1c0.2,1.1,0.9,2.9,1.6,4.6c0.5,1.3,1.2,3.1,1.2,3.5c0,0.3-0.3,1.4-0.5,2.3
			c-0.7,2.4-1.1,4.2-0.8,5.3c0.2,0.6,0.5,1.4,0.9,2.2c0.7,1.4,1.5,3.1,1.6,4.6c0.1,1,0.3,2,0.6,3c0.5,1.7,1,3.5,0.4,5.7
			c-0.7,2.7,0.4,4.9,1.3,6.7c0.5,1,0.9,1.9,0.9,2.5c-0.1,0.7-0.2,1.7-0.4,2.9c-0.4,2.2-0.9,5-0.9,7.6c0,2.2,0.5,3,1.2,3.9
			c0.4,0.5,0.8,1,1,2.7c0.1,1.4,0.3,2.8,0.6,4.4c0.5,3.1,0.9,6.3,0.6,9.4c-0.2,2.3,0,4.5,0.2,6.7c0.3,2.6,0.5,5.1-0.1,7.1
			c-0.3,1.1-0.6,1.7-0.9,2.2c-0.8,1.4-1.1,2.2-0.2,7.4c1,6.1,2.5,9.5,3.2,11.1c0.1,0.3,0.3,0.6,0.3,0.7c0.1,0.3,0.3,0.6,0.7,0.7
			c0.2,0.1,0.6,0.2,1,0.2c0.1,0,0.2,0,0.3,0c0.5,3.4,2.5,16.3,3.3,20.7l-0.7,0.1c-0.2,0-0.4,0.1-0.5,0.2c-0.2,0.1-3.7,3.2-3.5,7.3
			c0,0.9,0.1,1.6,0.1,2.4c0.1,2.2,0.2,3.9-0.1,5c-0.2,0.6-0.6,1.6-1.1,2.8c0-0.3,0-0.7,0-1c-0.1-2.2-0.2-4.8-0.3-7.8
			c-0.2-3-0.4-6.4-0.6-10.1c-0.2-3.7-0.5-7.7-0.8-11.9c-0.2-2.1-0.4-4.3-0.7-6.6c-0.3-2.2-0.6-4.5-0.9-6.8
			c-1.2-9.2-2.5-18.9-3.8-28.7c-2.5-19.5-5.1-39.1-6.7-53.7c-0.2-1.8-0.4-3.6-0.5-5.2c-0.1-0.8-0.1-1.6-0.2-2.4
			c0-0.8-0.1-1.4-0.1-2.2C412.8,76.9,412.8,75.6,412.8,74.3z M438.7,196.6l-3.5,0.4c-0.6-3.5-2.3-14.3-3.3-20.8
			c0.8-0.2,1.7-0.4,2.5-0.7C435.5,179.1,437.9,191.4,438.7,196.6z M426.2,80.9c0.7,1.7,1.2,3,1.2,4.9c0,2-0.4,4.2-0.7,5.8
			c-0.3,1.5-0.4,2.3-0.3,2.9c0.1,0.3,0.2,0.9,0.5,1.9c0.5,1.7,1.8,5.8,1.5,6.9c-0.5,1.8-1.1,6.5-0.3,9.5c0.6,2.6,1.1,9.2,1.1,11.1
			c0,2,0,3.5,0.2,6.1c0.1,1.3,0.6,2.5,1.2,3.7c0.7,1.6,1.5,3.3,1.5,5.4c0.1,4.1,0.2,16.6,0,20.6c-0.2,2.6,0.5,4.4,1.1,5.8
			c0.4,0.9,0.6,1.6,0.6,2.3c0,1.6,0.6,4.2,1,5.5c-2.1,0.7-4.3,1.2-5.2,1.2c-0.1-0.1-0.1-0.3-0.2-0.5c-0.7-1.5-2.1-4.8-3.1-10.6
			c-0.7-4.7-0.5-5.1,0-6.1c0.3-0.5,0.7-1.3,1.1-2.6c0.7-2.4,0.4-5,0.1-7.8c-0.2-2.1-0.4-4.3-0.2-6.3c0.3-3.4-0.2-6.9-0.6-9.9
			c-0.2-1.5-0.4-2.9-0.5-4.2c-0.2-2.4-0.9-3.2-1.4-3.8c-0.4-0.5-0.8-0.9-0.8-2.6c0-2.5,0.5-5.1,0.9-7.3c0.2-1.2,0.4-2.3,0.5-3.1
			c0.1-1.1-0.5-2.3-1.1-3.5c-0.8-1.7-1.7-3.4-1.2-5.3c0.7-2.8,0.1-4.9-0.4-6.7c-0.2-0.9-0.5-1.8-0.5-2.6c-0.1-1.9-1.1-3.8-1.8-5.4
			c-0.4-0.7-0.7-1.4-0.8-1.8c-0.2-0.7,0.5-2.9,0.8-4.3c0.4-1.4,0.6-2.2,0.6-2.8c0-0.8-0.5-2-1.4-4.3c-0.4-1.1-0.9-2.2-1.2-3.1
			c0.2,0,0.3,0,0.5,0c1.2,0,2.7-0.4,3.6-0.7c0.4,1.4,1.1,4.1,1.9,7.3C425.1,78.3,425.7,79.7,426.2,80.9z M421.4,56.7
			c0.2,0.7,0.5,1.5,0.8,2.2c0.6,1.5,1.2,3.1,1.2,4.4c0,2.8-0.3,3.4-0.4,3.4c-1.2,0.5-3.8,1.1-4.3,0.9c-0.2-0.1-0.5-0.2-0.7-0.3
			c-0.7-0.3-1.4-0.6-2.4-1.9c-0.3-0.3-0.5-0.7-0.8-1.1c0.1-0.7-0.3-1.4-0.9-1.6c0,0,0,0,0,0c-0.9-1.7-1.8-3.6-2.5-5.6
			c-0.7-2.1,0-2.8,1.3-3.9c0.2-0.2,0.4-0.4,0.6-0.6h0.5c0.2,0.1,0.4,0.2,0.6,0.2c0.3,0,0.6,0,0.8-0.2h1.7
			C418.6,53.6,421.1,55.4,421.4,56.7z M400.8,18.1c-1.5,6-3.6,15-4.3,17.8c-1,0.1-2.1,0.2-3.3,0.3c1.1-3.7,1.8-7,2.1-8.5
			c0.2-1,2-10.4,1.8-11.7c0-0.2-0.1-0.4-0.2-0.5c2.1-3.8,3.6-7.5,4.4-9.6C402.6,8.8,402.2,12.6,400.8,18.1z M394.7,20
			c-0.4,2.5-0.9,5.6-1.3,7.3c-0.5,2.7-1.2,5.8-2.3,9.1c-1.4,0.2-2.8,0.3-4.3,0.5C389.6,29.7,392.7,23.5,394.7,20z M386.6,20.4
			c4.8-10.4,9.1-16.9,11.7-17.4c0.4-0.1,0.6,0,0.9,0.3c0.5,0.5,1,1,1.4,1.5c-0.6,1.7-2.3,6-4.6,10.3c-0.6,0-1.5,0.8-4.8,7.2
			c-1.4,2.8-4.1,8.2-6.6,14.9c-1.8,0.2-3.7,0.4-5.6,0.7C380.7,33.8,384.9,24.2,386.6,20.4z M58,2.3C58.4,2,58.7,1.9,59.1,2
			c2.7,0.6,7.2,7.1,12.2,17.4c1.9,3.8,8,17.6,10.4,23c-1.9-0.2-4-0.4-6-0.6C73,34.8,69.5,27.7,67.6,24c-4.5-8.9-5.5-9.8-6.1-9.9
			C59,9.8,57.3,5.5,56.6,3.8C57,3.3,57.5,2.8,58,2.3z M69,41.5c-1.6-4.5-4.4-13-4.9-15.1c-0.4-1.7-0.9-4.6-1.3-7
			c2.7,4.8,7.3,13.8,10.7,22.3C72,41.6,70.5,41.5,69,41.5z M56.4,17.1C55,11.6,54.5,7.8,56,4.9c0.8,2,2.4,5.8,4.6,9.7
			c-0.1,0.2-0.2,0.3-0.2,0.5c-0.2,1.5,1.9,11.6,1.9,11.7c0.5,2.2,3.1,10.2,4.7,14.7c-1.3,0-2.5,0-3.6,0.1
			C62,37.2,57.9,23.1,56.4,17.1z M35.1,230.3c-0.1,0-0.2-0.1-0.2-0.1c0.6-4,1.2-20.3,0.8-25.1c-0.4-5.5,0.2-11.2,0.8-15
			c0.6-4.5,0.8-11,0.6-12.6c0-0.5-0.3-2.1-0.7-4.9c-0.7-4.6-1.9-11.6-1.8-13.1c0-1.2,0.3-3.1,0.6-5.2c0.3-2,0.5-4.2,0.7-6.3
			c0.4-4.5-0.2-14.2-1.1-17c-0.7-2.3,0.5-16.4,1.3-20c0.3-1.3,0.7-2.8,1-4.3c0.4-1.7,0.8-3.1,1-4.1c0,2.7,0.1,8.2,0.1,15.2
			c0.3,23.7,0.9,72.9-0.5,76.7C37,196.3,36.1,208.4,35.1,230.3z M38.4,93.5c0-0.4,0-0.8,0-1.2c0,0,0.1,0,0.1-0.1
			C38.4,92.7,38.4,93.1,38.4,93.5z M29.4,88c0.1-2.4,0.2-4.1,0.7-5.6c0.2-0.7,0.4-1.7,0.6-2.9c0.3-2,0.7-4.5,1.4-5.8
			c0.4-0.9,4.3-1.1,7.8-0.7c-0.5,5.8-1,11.7-1.3,17c-0.8,0.4-1.8,1-2.1,1c-0.6,0.1-3.7,0.3-5.5-0.5l-0.4-0.2
			C29.4,89.6,29.4,89.6,29.4,88z M28.9,176.6c2.2-2.9,1.5-7.2,0.8-11.4c-0.3-1.5-0.5-3-0.6-4.3c-0.1-2.3-0.6-3.9-0.9-5.4
			c-0.4-1.7-0.8-3.2-0.7-5.4c0.2-2.7-0.2-4.1-0.5-5.3c-0.2-0.7-0.3-1.3-0.3-2c0-2.2,1.9-11.6,2.8-13.3c0.9-1.6,0.7-3.4,0.4-5.7
			c-0.1-0.8-0.2-1.6-0.3-2.6l0-0.6c-0.2-3-0.3-3.7-1.1-7.5c-0.9-3.8-0.9-8.6-0.9-11.5c0-2.1,1.7-5.6,3-8.1c0.2-0.4,0.4-0.8,0.5-1.1
			c1.2,0.4,2.6,0.5,3.7,0.5c0.6,0,1.2,0,1.6-0.1c0.1,1.6,0,3.7,0,5.4c0,1.2-0.1,2.1,0,2.6c0,0.7-0.6,3.1-1.1,5.2
			c-0.4,1.5-0.8,3-1.1,4.3c-0.7,3.1-2.2,18-1.3,21c0.8,2.5,1.4,12.1,1,16.2c-0.2,2.1-0.5,4.3-0.7,6.2c-0.3,2.2-0.5,4.1-0.6,5.4
			c-0.1,1.6,0.8,7,1.8,13.5c0.4,2.3,0.7,4.3,0.7,4.8c0.1,1.5,0,7.9-0.6,12.1c-0.6,3.9-1.2,9.8-0.8,15.5c0.4,5.1-0.4,23-0.9,25.1
			c-0.1,0.6-1.5,1.1-3,1c-0.9-0.1-1.5-0.4-1.6-0.8c-0.1-1.5,0.2-5.4,0.9-8.2c0.6-2.6,0.4-9.6,0.1-16l-0.1-1.2
			c-0.1-1.6-0.1-3.4-0.2-5.3c-0.1-3.2-0.2-6.6-0.4-8.8c-0.1-0.8-0.2-1.7-0.3-2.7C27.8,184.6,27,179.2,28.9,176.6z M18.9,257.2
			c1.1-1.7,1.8-3.6,2.5-5.9c0.3-0.9,0.6-1.8,0.9-2.7c0.3-0.8,0.5-1.5,0.8-2.2c0.9-2.5,1.7-4.8,3.4-8.3c1.3-2.8,1.4-3.9,1.4-4.6
			c0-0.2,0-0.4,0.1-0.6c0.4,0.2,1,0.3,1.5,0.4c0.2,0,0.5,0,0.7,0c1.4,0,2.9-0.4,3.8-1.3c0.4,0.2,0.7,0.3,1.1,0.5
			c0.2,0.6,0.7,1,1.3,1c0,0,0,0,0.1,0c0.2,0,0.3,0,0.5-0.1c0.3,0.1,0.5,0.3,0.6,0.4c0.1,0.6,0.1,2.1,0.2,3.4v5c0,0.2,0,0.3,0.1,0.5
			l5.1,10.1c0,0,0,0.1,0.1,0.1c0.9,1.2,3.2,4.7,3.6,5.8c0.4,0.9,0.2,2.5,0,4.8c-0.1,0.9-0.2,2-0.2,3.1c0,0.6-0.1,1.1-0.1,1.4
			c-0.3-0.1-0.7-0.1-1,0.1c-0.3,0.2-3.1,2.3-4,3l-3.9,0c-0.5-0.1-3-1.1-5.1-2.1l-1.8-4.9c-0.1-0.2-0.2-0.3-0.3-0.4l-3.9-3.1
			c-0.4-0.3-1-0.3-1.3,0.1l-5.2,5.2l-1.8,1.5c-0.4-0.4-1-1.1-1-2C16.9,263.5,17.5,259.3,18.9,257.2z M29.5,298.5
			c-1.6-0.5-3.4-1.1-3.4-1.1c-0.1-0.1-2.6-1.1-6.2-1.3c-1.9-0.1-2.9,0-3.5,0.1c-0.2-0.2-0.5-0.3-0.9-0.5c-1.1-0.5-2.8-1.4-3.3-2.6
			c-0.3-0.7-0.5-1.3-0.7-1.9c-0.3-0.9-0.6-1.8-1.5-3.2c-0.3-0.4-0.5-0.8-0.8-1.1c-0.9-1.1-1.3-1.7-1.6-3.9c-0.2-1.8,0.6-3.4,1.3-4.9
			c0.3-0.7,0.7-1.3,0.9-2c0.5-1.4,0.9-1.7,1-1.8c0.2-0.1,0.4-0.3,0.5-0.5l0.9-2.4c0.1-0.3,0.1-0.7-0.2-1s-0.6-0.4-1-0.3l-1,0.2
			c0.5-0.6,1.1-1.3,1.6-2.2c0.6-1,1-1.1,1-1.1c0.1,0,0.4,0.3,0.7,0.4c0.6,0.5,1.4,1.1,2.7,1.1c0.1,0,0.3,0,0.4-0.1
			c0.5,0.6,1,0.9,1.1,0.9c0.4,0.2,0.8,0.2,1.2-0.1l2.5-2c0,0,0.1,0,0.1-0.1l4.6-4.6l3,2.4l1.9,5c0.1,0.2,0.3,0.4,0.5,0.5
			c1.9,0.9,5.3,2.5,6.3,2.5h4.3c0.2,0,0.4-0.1,0.6-0.2c1.2-0.9,2.9-2.2,3.8-2.8c0.2,0.1,0.4,0.2,0.7,0.2l0.3,1.5c0,0,0,0.1,0,0.1
			c0,0,0.9,3,1.7,5.5c0.6,2,0.1,3.1,0.1,3.1c0,0.1-0.1,0.2-0.1,0.3c-0.4,1.7-0.9,3.7-1,3.9c-0.3,0.5-0.3,1.1-0.2,3.7
			c0,0.9,0.1,1.8,0.1,2.6c0,1.3-0.4,1.8-0.9,2.7c-0.3,0.5-0.7,1-1,1.7c-0.6,1.3-1.7,1.7-3,2.3c-0.2,0.1-0.5,0.2-0.7,0.3
			c-1.1,0.5-2.7,0.3-4.8-0.5c-1.3-0.5-2.3-0.3-3,0.1c-0.6,0-1.1,0.3-1.3,0.8c-0.1,0.1-0.2,0.1-0.4,0.2
			C31.2,298.9,31,298.9,29.5,298.5z M36.2,418.8c-0.2-1.8-0.1-3.4,0-4.9c0.1-1.5,0.2-2.9,0-4.1c-0.5-2.1-1.7-7.6-1.7-7.7l-0.7-3
			c-0.5-3.7-2-6.7-3.7-7.5c-0.5-0.3-1.4-0.5-2.8-0.7c0.8-1,2-2.3,3.2-3.5c1.7-1.8,3.6-4,5.4-6c0.8,16.6,1.4,32,1.1,39.2
			C36.7,419.7,36.3,419.1,36.2,418.8z M28.7,378.1c0.2-2,3.5-3.2,5.9-4.1c0.3-0.1,0.6-0.2,0.9-0.3c0.1,1.6,0.2,3.2,0.2,4.8
			c-2.1,2.5-4.6,5.3-6.8,7.6c-1.6,1.8-2.7,2.9-3.4,3.7c0.2-0.7,0.4-1.4,0.7-2.3C27.3,384.4,28.5,380.4,28.7,378.1z M5.4,411.3
			c0.1-0.5,0.2-1.1,0.1-2c-0.2-2.4,1.1-5.8,1.6-7.3c0.4-1,0.8-2.8,1.3-4.8c0.5-1.9,1-3.9,1.4-5.1c0.3-0.9,0.7-1,2.4-0.9
			c0.8,0,1.8,0,2.7-0.3c0.3-0.1,0.6-0.2,0.8-0.2c1.8-0.6,2.7-0.8,4,0.1c0.9,0.6,2.5,1.1,4.2,1.4c0,0,0,0,0,0c0,0,0,0,0,0
			c0.2,0,0.4,0.1,0.5,0.1c0.2,0.3,0.5,0.5,0.8,0.5c0.2,0,0.4-0.1,0.6-0.2c0.1,0,0.2,0,0.3,0.1c1.2,0.2,2.6,0.5,3,0.7
			c0.9,0.5,2.1,2.7,2.6,6.1c0,0,0,0.1,0,0.1l0.7,3c0,0.1,1.2,5.5,1.7,7.7c0.2,0.9,0.1,2.1,0,3.4c-0.1,1.6-0.3,3.4,0,5.4l0,0
			c0,0,0,0.1,0,0.1c0,0,0,0,0,0c-0.5-0.4-1.2-0.9-1.7-1.3c-0.8-0.6-1.5-1.3-2.3-1.8c-1.5-1-3-1.1-4.4-1.2c-1.2-0.1-2.4-0.2-3.5-0.8
			c-0.7-0.3-1.3-0.7-1.9-0.7c-0.5,0-0.9,0.2-1.3,0.7c-0.2,0.3-0.5,0.6-1.8,0.9c-1.6,0.3-2.4,0.5-3,0.6c-0.7,0.2-1,0.3-2.2,0.3
			c-2,0.1-4,0-5.8-2.3C5.3,412.2,5.3,412,5.4,411.3z M29.8,447.9c0,0-4.7-0.2-8.5-1.6c-2.4-0.9-3.7-0.7-4.4,0.9
			c0,0.1-0.1,0.1-0.1,0.2c-1.6,0-4.7,0-7.1-1.5c-0.8-0.5-1.4-0.8-2-1.1c-1.5-0.8-2.5-1.4-4.5-3.5c-1.3-1.5-1.2-1.7-0.9-2.2
			c0.3-0.5,0.7-1.2,0.7-2.3c0-2.4-0.3-6.3-0.3-6.8c0-0.5,0.2-4.5,1.3-9.1c0.7-3.1,1-3.5,1.5-4.1c0.1-0.2,0.3-0.4,0.5-0.7
			c2.2,2,4.6,2.1,6.5,2c1.4-0.1,1.8-0.2,2.6-0.4c0.5-0.1,1.3-0.3,2.9-0.6c1.7-0.3,2.4-0.9,2.9-1.5c0.2,0.1,0.4,0.2,0.8,0.4
			c1.6,0.8,3,1,4.3,1.1c1.3,0.1,2.4,0.2,3.5,0.9c0.6,0.4,1.4,1,2.1,1.6c1.4,1.2,2.5,2.1,3.5,2.1c0.2,0,0.3,0,0.5-0.1
			c0.4,0.9,0.9,2,1.4,3.1c0,0,0,0,0,0.1c-0.3,0.8,0.1,1.6,0.8,1.9c0,0,0.1,0,0.1,0c0.8,1.8,1.6,3.5,1.9,4.2c0.9,2.1,1.4,4.7,1.3,6.2
			c-0.1,0.9,0,1.7,0,2.4c0,0.8,0.1,1.7,0,3.1c-0.1,2.2-2.4,4-4.3,4.8c-0.4,0.2-1.1,0.3-1.8,0.4c-0.2-0.1-0.4-0.2-0.7-0.3
			c-0.5-0.1-1,0.1-1.3,0.4C31.4,447.9,30.4,447.9,29.8,447.9z M68.5,547.3c0.1,2.2-0.3,5-0.9,5.2c-1.9-0.5-5.4,1.2-8.5,2.8
			c-0.4,0.2-0.7,0.4-0.9,0.4c-0.9,0.3-11.3,2.4-16.8,2.5c-4.4,0.1-4.7-0.1-5.1-0.5c-0.1-0.1-0.3-0.2-0.5-0.4c-1-0.7-2.2-0.4-3-0.2
			c-0.3,0.1-0.8,0.2-1,0.2c-1.2-0.5-2.4-0.7-3.1-0.5c-0.5,0.1-0.7,0.5-1,0.9c0,0,0,0.1-0.1,0.1c-0.9-1.8-1.9-2.3-3.4-1.7
			c-0.7,0.3-1,0.9-1.1,1.3c-0.4-0.2-1.1-0.9-1.4-1.2c-0.4-0.4-0.7-0.7-1-0.9c-0.4-0.3-1-0.3-1.5-0.3c0-5.5,5-8.9,9.5-12
			c1.8-1.2,3.6-2.4,4.8-3.6c0.1,0,0.1,0.1,0.2,0.1c2,1.7,4.1,2.3,6,2.3c2.4,0,4.6-1,6.3-2.3c2.3-1.8,4.9-2.5,7.4-3.1
			c0.5-0.1,1-0.2,1.5-0.4c1.2-0.3,2.3-1,3.1-1.9C63.7,536.4,68.3,544.4,68.5,547.3z M43.7,500.4c3.4,1.5,4.2,4.6,4.8,7.1l0.3,1.1
			c0.3,1.4,0.5,1.7,2,3c0.4,0.4,0.4,1.5,0.4,2.5c0,1.4-0.1,2.9,0.9,4c1.6,1.8,3.2,4.7,3.1,5.3c-0.2,1.5,0.5,4.2,2.3,6.3
			c0.4,0.5,0.3,1.1,0.2,1.5c-0.4,1.1-1.6,2.5-3.3,3c-0.5,0.1-1,0.2-1.5,0.4c-2.6,0.6-5.5,1.3-8.2,3.4c-1.2,0.9-5.4,3.7-9.8,0
			c-3.2-2.7-4.5-15.2-4.2-19.6c0-0.7,0.1-1.3,0.2-1.8c0.3-3,0.5-5.3-0.5-8.6c-0.8-2.7-0.2-3.2,2.5-5.7c0.4-0.3,0.8-0.7,1.2-1.1
			c0.9-0.8,1.8-1.3,2.8-1.6c0,0,0.1,0,0.1,0c0.1,0,0.1,0,0.2,0c0.1,0,0.3-0.1,0.4-0.2c0.4-0.1,0.9-0.1,1.3-0.1
			C40.4,499.3,42,499.6,43.7,500.4C43.7,500.4,43.7,500.4,43.7,500.4z M39.9,497.3c-0.7-0.1-1.5-0.1-2.1,0
			c-0.6-2.9-2.4-10.9-2.5-13.1c-0.1-1.1-0.1-2.1-0.1-3.1c0.8,0.5,1.7,1,2.7,1.5C37.9,485.9,38.7,493.2,39.9,497.3z M139.9,559.2
			C139.8,559.2,139.8,559.2,139.9,559.2c-0.3,0.1-0.5,0.4-0.6,0.6c-0.3,1-0.9,2.2-1.1,2.5c-1,0.4-1.2,1.7-1.3,2.6
			c-1,1-2.2,2.1-2.8,2.3c-0.4,0.1-0.8-0.1-1.4-0.7c-0.1-0.1-0.3-0.2-0.4-0.3c-1.1-0.8-1.9-0.3-2.5,0c-0.3,0.2-0.7,0.4-1.3,0.7
			c-1.1,0.5-2.1,0.2-2.3,0.1l-1.9-1.5c-0.1-0.1-0.2-0.1-0.3-0.2c-0.1,0-1.3-0.4-2-0.5c-0.6-0.1-2.4,0.2-3.4,0.4
			c-0.4,0-1.5,0.1-2.2,0c-0.8-0.1-1.4-0.5-1.7-0.7c-0.3-0.5-1.1-2.7-1.8-6.2c-0.5-2.7,1.3-7.4,2.5-9.6c1.6,1.2,4.9,1.5,9.2,1.5
			c0.5,0,0.9,0,1.4,0c0.3,0,0.6,0,0.8,0c0.1,0,8.2-0.1,11.4-2.1c0.6,1.8,1.4,5.1,1.6,8.2C140.1,558.1,139.9,558.9,139.9,559.2z
			 M138.4,515.9c0.1,0.2,0.1,0.3,0.2,0.4c0.3,0.6,0.2,3.6,0,8.9c0,0.8-0.1,1.3-0.1,1.5c0,0.4-0.2,2.3-0.3,4.2
			c-0.2,2.6-0.5,5.2-0.5,6.1c0,0.4,0,1,0,1.8c0.1,2.2,0.2,5.8,0,7.3c-0.5,1-6.7,2.2-10.8,2.2c-0.2,0-0.5,0-0.9,0
			c-5.8,0.1-9-0.4-9.7-1.3c0-0.1-0.1-0.1,0-0.4c0.8-2.1,0.6-8.5,0.3-18c-0.2-4.7-0.3-9.1-0.2-11.5c0.3-5.5,4.3-6.5,9.8-7.4
			c0.5-0.1,0.9-0.1,1.4-0.2c0.2,0.1,0.3,0.1,0.5,0.1c0.1,0,0.2,0,0.3,0c0.1,0,0.2-0.1,0.3-0.1c0,0,0,0,0.1,0
			C135.5,509.4,137.6,514.2,138.4,515.9z M127,507.5c-0.4,0-0.7,0.1-1.1,0.1c-0.5,0.1-1,0.2-1.6,0.3c-0.5-7.3-0.1-17.8,0-20.7
			c0.9,0,1.8,0,2.7-0.1C126.9,491.6,126.7,503.3,127,507.5z M214.1,532.5c5.5,0.4,8.4,1.5,11.5,4.4c2.5,2.3,4.1,3.3,5.5,4.3
			c0.5,0.4,1.1,0.7,1.6,1.1c1,0.7,0.8,1.7,0.3,3.2c-0.1,0.2-0.1,0.4-0.2,0.6c-0.1,0.2-1.1,0.6-1.7,0.8c-1.1,0.4-2.3,0.9-3.3,1.7
			c-1.4,1.2-1.5,3.2-1.6,4.4c0,0.1,0,0.3,0,0.4c-0.8,0.1-2.4,0.2-3.3,0.2c-1.2,0-1.7,1-2.5,2.2c-0.5,0.9-1.3,2.2-2.6,3.8
			c-2.2,2.7-4,2.7-5.4,2.7c-0.3,0-0.5,0-0.7,0c-1.7,0.1-6.5,2.2-9.1,3.8c-1.9,1.1-7.2,0.4-10,0c-0.5-0.1-0.9-0.1-1.2-0.2
			c-1.7-0.2-2.3,0.4-2.8,1.1c-0.2,0.2-0.4,0.5-2.4-0.2c-5-1.8-3.8-10.9-3.6-11.9c0.3-2.3,1.5-4.2,2.9-6.3c0.8-1.3,1.6-2.7,2.4-4.3
			c0.1,0,0.3,0,0.4,0c2,0,4.1-1.8,5.9-3.5c1.1-1,2.3-2,3.3-2.5c1.1-0.5,2.6-0.9,4.1-1.3c2.5-0.6,5.1-1.3,6.6-2.7
			c0.5-0.5,0.9-1.3,1.3-2.2L214.1,532.5z M199.8,509.4C199.8,509.4,199.8,509.4,199.8,509.4c1.1,0.9,1,1.9,0.9,2.9
			c0,0.4-0.1,0.8,0,1.1c0.2,1.6,6.5,7.8,7.5,8.5c0.6,0.8,0.5,5.7-0.3,8.8c0,0,0,0,0,0c-0.3,1-0.6,1.8-1.1,2.2
			c-1.1,1-3.4,1.6-5.7,2.2c-1.6,0.4-3.2,0.8-4.4,1.4c-1.2,0.6-2.5,1.6-3.8,2.8c-1.8,1.6-3.9,3.4-5.1,2.8c-1.5-0.7-1.8-4.4-0.8-9.3
			c0.5-2.4-1.2-4.6-2.7-6.5c-0.3-0.4-0.7-0.9-1-1.3c-0.7-1-0.4-2.1,0.3-3.5c0.2-0.5,0.4-0.9,0.5-1.4c0.3-1-0.2-2.3-0.6-3.9
			c-0.4-1.2-0.8-2.6-0.8-3.6c0-2.5,0-5.6,7.3-6c0.8,0,1.4-0.1,2-0.1c0.1,0.1,0.3,0.1,0.4,0.1c0.2,0,0.3,0,0.5-0.1c0.1,0,0.2,0,0.3,0
			c3.7,0,4.4,0.7,5.7,1.9C199,508.7,199.4,509,199.8,509.4z M198.3,487.1c1.7,3.4,3.6,7.2,1.3,10.6c-2.4,3.5-4,5.9-4.6,6.9
			c-0.4,0-0.8-0.1-1.2-0.1c1.5-4.6,2.3-14.7,2.6-18.6c0.4,0,0.9,0,1.3,0C197.9,486.3,198.1,486.7,198.3,487.1z M302.6,534.6
			c1.8,1.4,9.1,7.9,10.5,12.3c0.8,2.5,0,3-1.3,4c-0.8,0.6-1.7,1.2-2.2,2.3c-1,2.3-3.7,2.9-4.9,3c-0.6,0.1-1,0.2-1.4,0.3
			c-0.8,0.3-1.6,0.5-4.2,0.1c-4-0.6-6.3,1.1-8.7,3c-0.3,0.2-0.6,0.4-0.9,0.7c-0.9,0.7-1.1,0.8-1.2,0.8c0,0-0.2-0.1-0.3-0.1
			c-0.6-0.3-1.5-0.8-3.6-0.8c-0.2,0-0.8,0-1.3-0.1c-0.2-0.7-1-1.2-1.7-1.6c-2.9-1.5-4.3-2-7.2-2.2c-0.3,0-0.8-0.1-1.1-0.1
			c0,0,0-0.1,0-0.1c-0.1-0.4-0.3-1.1-0.8-2.1c-1.1-2.1-2.5-2.4-4.2-2.7c-0.9-0.2-2-0.4-3.5-1c-1-0.4-1.5-0.8-1.7-1.4
			c-0.4-1.4,1.7-3.8,2.6-4.8c1.3-1.5,3.3-3.3,4.9-4.6c2.1-1.8,2.4-2.1,2.4-2.8c0-0.3-0.2-0.6-0.4-0.8c-0.4-0.3-0.9-0.2-1.2,0.1
			c-1.6,1.4-4.7,3.6-6.2,3.6c-0.1,0-0.2,0-0.1,0c-0.1-0.2-0.3-1,1.1-4.6l0.1-0.3c0.5-1.2,3.2-3.3,6.1-4.7c1.9-0.9,3-0.3,4.9,0.9
			c0.3,0.2,0.6,0.4,0.9,0.5c1.2,1.9,2.8,3.5,4.6,4.6c0.7,0.4,1.4,0.5,2,0.5c1.2,0,2.3-0.5,3.2-0.9c0.8-0.4,1.6-0.7,2.2-0.7
			c0.8,0,1.8,0.2,2.9,0.4c1.6,0.3,3.2,0.6,4.7,0.5c0.7,0,1.5-0.5,2.2-1.3c0.2-0.2,0.4-0.5,0.5-0.8C301,533.7,301.8,534,302.6,534.6z
			 M295.6,508.3c0.4,0.5,0.8,1.1,1.4,1.6c1.8,1.8,3.6,11,4.2,15.3c0.2,1.1-1.2,5.8-2.8,7.8c-0.4,0.5-0.7,0.6-0.7,0.6
			c-1.2,0.1-2.7-0.2-4.2-0.4c-1.1-0.2-2.2-0.4-3.1-0.4c-1.1-0.1-2.1,0.4-3.1,0.8c-1.5,0.6-2.5,1-3.5,0.4c-2.1-1.1-3.9-3.3-4.8-5.7
			c-0.8-2.2-0.8-5.9-0.8-7.9c0-1.5-0.8-2.4-1.5-3.2c-0.5-0.6-1-1.2-1.2-2c-0.3-1.4,2.4-3.4,3.1-3.5c1.1-0.2,1.3-1.4,1.6-2.7
			c0.2-0.9,0.4-2,0.8-2.8c0.1-0.1,0.3-0.2,0.5-0.2c0.5,0,1.4,0.2,2.1,0.4c1.4,0.3,3,0.7,4.3,0.3
			C292.9,504.7,294.1,506.3,295.6,508.3z M289.2,504c-0.6,0.1-1.3,0.3-2.1,0.6c-0.1,0-0.3,0-0.4,0.1c0.2-4.7-3.1-13.6-5.6-18
			c1.1,0,2.2,0,3.3,0C286.5,490.3,289.7,499.2,289.2,504z M375.4,546.8c2,1.7,2.3,3.6,2.8,6.1l0.1,0.4c0.4,2-0.6,5.8-1.1,7.3
			c-2.4,3-5.4,6.3-6.3,6.7c-0.2,0-0.5-0.1-0.8-0.1c-1.5-0.3-3.6-0.7-5.9,0.2c-2.4,1-13.2,1.7-19.6,0.7c-4.2-0.6-5-1.7-5.7-2.7
			c-0.4-0.5-0.8-1.1-1.6-1.6c-0.4-0.2-1.3-0.8-2.1-0.2c-0.6,0.5-0.5,1.2-0.2,1.8c-0.8-0.4-1.8-1.1-2.5-2.2c-0.8-1.2,0-3.7,0.8-6.1
			c0.5-1.6,1-3.3,1.2-4.9c0.3-2.3,4.1-7.2,11.3-14.3c1.2,0.8,2.7,1.5,4.2,2.2c1.7,0.8,3.6,1.7,4.6,2.6c0.7,0.6,1.5,0.9,2.3,0.9
			c2,0,4-1.6,5-2.4c0.2-0.2,0.4-0.3,0.5-0.4c1.2-0.7,5.8-2.2,7-1.1c0.6,0.5,1.3,0.6,2,0.2C372,541.9,373.7,545.3,375.4,546.8z
			 M367.3,510.3c0.5,0.4,0.8,0.6,0.9,0.8c-0.1,0-0.3,0.1-0.4,0.1c-0.2,0-0.4,0.1-0.6,0.2c-0.1,0.1-1,0.8-1,1.8
			c0,0.5,0.1,1.2,0.8,1.9c1,1,2.3,3.5,2.5,4.2c0,0.1,0,0.1,0,0.2c-0.1,1.6-0.4,6.3,1.5,9.3c1.2,1.9,0.5,6.8-0.4,8.7
			c0,0.1-0.1,0.2-0.1,0.2c-0.1,0.1-0.1,0.2-0.2,0.3c-2.8-2-9.1,1-9.1,1.1c-0.2,0.1-0.4,0.3-0.7,0.5c-1.7,1.3-3.6,2.6-4.7,1.6
			c-1.3-1.1-3.2-2-5.1-2.9c-1.7-0.8-3.4-1.6-4.5-2.5c-1.2-1-1-1.3-0.5-2.6c0.2-0.6,0.5-1.2,0.7-2c0.4-2.1-0.7-2.7-1.4-3.2
			c-0.5-0.3-0.8-0.5-1.1-1.1c-0.5-1.1,1.6-2.5,1.6-2.6c0.4-0.2,0.5-0.7,0.4-1.1c-0.1-0.5-0.8-3.2-1.9-4.2c-0.2-0.4,0.5-2.1,0.9-3
			c0.3-0.7,0.6-1.4,0.7-2c0.2-0.7,0.3-0.7,1.1-1c0.4-0.1,1-0.3,1.6-0.6c0.8-0.4,1.1-0.9,1.2-1.4c0.2-1.2-0.8-2.2-1.5-2.9
			c-0.1-0.1-0.2-0.2-0.3-0.3c0-0.6,0.3-3,2.5-4.1c2.8-1.4,5.4-1.1,8.3,1h0c0.7,0.5,1.6,1,2.9,1.7
			C363.1,507.7,365.3,508.9,367.3,510.3z M358.5,502.7C358.4,502.7,358.4,502.7,358.5,502.7C358.4,502.6,358.4,502.6,358.5,502.7
			c-2.3-3.2-2.4-12.4-2.3-17.1c1.5,0,3-0.1,4.4-0.1C360,491.3,359.1,499.5,358.5,502.7z M428.2,475.2c0.1,0,0.2-0.1,0.3-0.1
			c1-0.4,2-0.9,2.9-1.5c0.3,3.6,0.1,8.8-0.3,10.2c-0.1,0.3-0.2,0.7-0.3,1.2C430.4,481.1,429.2,477.5,428.2,475.2z M430.5,493.9
			c0.1,0.9,0.2,1.7,0.4,2.5c-0.3,0.1-0.6,0.1-0.9,0.2L430.5,493.9z M444.6,546.1c-0.2,2.2-1.6,4.8-2.6,6.5c-0.5,1-0.9,1.6-1,2.1
			c-0.7,1.1-7.2,5.9-9.3,6.3c-1.2,0.2-4.5-0.7-7.4-1.4c-2.2-0.6-4.5-1.2-6.4-1.5c-4.5-0.8-6.9-4.3-7.2-7.3c-0.2-2.1,1.5-5.2,2.8-7.7
			c0.7-1.2,1.3-2.3,1.6-3.2c0.7-2,3.1-3.9,7.2-6c1.6,0.9,4,1.8,6,2.5c1.3,0.5,2.5,0.9,3.1,1.2c0.3,0.1,0.6,0.2,0.9,0.2
			c1.3,0,2.7-1.3,4-2.5c0.6-0.6,1.5-1.4,1.9-1.5c0.9,0.1,1.8-0.6,2.4-1.2C443.7,535.8,444.9,542.9,444.6,546.1z M434.6,500
			c0.1,0.2,0.2,0.5,0.3,0.7c0.1,0.2,0.3,0.4,0.5,0.5c0,0,1.7,0.7,2.4,2.4c0.7,1.9,0.8,8.1,0.6,9c-0.2,1.4,2.5,14.4,2.5,14.5
			c0.2,0.8-0.2,2-1,3.1c-0.7,1-1.4,1.5-1.5,1.5c-1-0.1-2.1,0.8-3.4,2.1c-0.7,0.7-2.1,2-2.6,2c0,0,0,0,0,0c-0.7-0.3-1.9-0.8-3.3-1.3
			c-2.1-0.8-4.7-1.8-6.2-2.6c-1.3-0.8-0.8-4.2-0.4-6.2c0.1-0.9,0.3-1.7,0.3-2.3c0-0.4,0-1,0-1.7c0.1-3.1,0.3-8.4-0.6-11
			c-0.9-2.7,0.7-10,2.4-11.2c0.5-0.3,0.7-0.4,0.9-0.4c0.1,0,0.2,0,0.3,0c0.7,0.1,1.8,0.3,4.6-0.5C433.6,497.6,434,498.6,434.6,500z
			 M427.4,472.3c-0.8,0.3-1.5,0.7-2.4,1c-4.2,1.9-10,4.5-27.2,7.1c-20.5,3.1-163.1,4-185.6,2.8c-12.7-0.7-44.3,0-74.8,0.7
			c-26.2,0.6-53.2,1.2-67.8,0.9c-34.1-0.7-36.4-9-37.1-11.8c-0.4-1.4-0.2-6.6,2.5-23.4c0.8-0.1,1.6-0.3,2.1-0.5
			c2.5-1.1,5.3-3.4,5.5-6.5c0.1-1.5,0-2.5,0-3.3c0-0.7-0.1-1.3,0-2.1c0.2-2.1-0.6-5.2-1.4-7.1c-0.3-0.7-1.1-2.4-1.9-4.2c0,0,0,0,0,0
			c2.6-6.5-3.6-97.1-4.1-103c-0.2-2.6-0.2-11,0.1-23.7c0.2,0,0.5,0,0.8,0.1c2.7,1.1,4.8,1.2,6.4,0.5c0.2-0.1,0.5-0.2,0.7-0.3
			c1.5-0.6,3.1-1.4,4-3.3c0.3-0.5,0.5-1,0.8-1.4c0.6-0.9,1.3-1.9,1.3-3.8c0-0.9,0-1.8-0.1-2.7c0-1-0.1-2.3,0-2.7
			c0.1-0.3,0.4-1.2,1.2-4.3c0.2-0.5,0.7-2.1,0-4.5c-0.7-2.3-1.6-5-1.7-5.5l-0.6-2.9c0.1-0.4,0.1-1,0.2-1.6c0.1-1.1,0.2-2.2,0.2-3.1
			c0.2-2.7,0.4-4.4-0.2-5.7c-0.6-1.5-3.3-5.4-3.8-6.1l-5-9.9l0-4.8c0-1-0.1-3.5-0.3-4.1c-0.1-0.3-0.2-0.6-1.5-1.4
			c1.2-24.8,2.1-35,2.5-36.2c1.5-4,1.1-40.6,0.7-77.8c-0.1-7-0.1-12.6-0.1-15.2c0-4.7,0.4-12.5,1.1-20.8l2.6-0.2
			c0.3,0,0.5-0.3,0.5-0.5c0-0.3-0.3-0.5-0.5-0.5l-2.4,0.2c1.2-15.3,3.2-32,4.7-34.4c1.3-0.6,3.8-0.6,6-0.6c2.1,0,4.3,0,6.1-0.5
			c7-1.9,28,0.5,35.4,2.5c7,1.9,26,0.2,27.5,0.1c19.1,0,56.6,0.3,62.2,1.5c5.6,1.2,33.2,0.3,58.5-0.6c4-0.1,7.2-0.3,9.2-0.3
			c11.2-0.3,54.2-3.1,65-4.7c6.4-0.9,19.1-0.7,29.3-0.6c6.9,0.1,12.8,0.2,15.6-0.1c2.8-0.3,8.9-1,15.4-1.8
			c9.3-1.1,19.9-2.4,23.6-2.6c6.8-0.3,10.3,0.3,12,4.9c0.3,0.9,0.6,2.8,0.4,7.2h-0.2c-0.3,0-0.5,0.1-0.7,0.3
			c-0.3,0.3-0.5,0.5-0.8,0.7c-1.4,1.2-3.1,2.6-1.9,6c0.7,2,1.5,4,2.5,5.7c0,0,0,0.1-0.1,0.1c0,0-0.1,0.2-0.2,0.5
			c-0.1,0.3-0.3,0.7-0.5,1.3c-0.4,1.2-0.8,2.9-1.1,5.1c-0.1,1.1-0.2,2.3-0.3,3.7c-0.1,1.1-0.1,2.4-0.1,3.6c-0.1-0.1-0.1-0.1-0.3-0.2
			c-1.2-0.3-2.5-0.5-4-0.6c-0.3,0-0.5,0.2-0.6,0.4c0,0.3,0.2,0.5,0.4,0.6c1.4,0.2,2.8,0.4,3.9,0.6c0,0,0.1,0,0.1,0
			c0.1,0,0.3-0.1,0.3-0.1c0,0.7,0,1.6,0.1,2.4c0.1,0.8,0.1,1.6,0.2,2.5c0.1,1.7,0.4,3.5,0.5,5.3c1.6,14.7,4.2,34.3,6.7,53.8
			c1.3,9.8,2.6,19.5,3.8,28.7c0.3,2.3,0.6,4.5,0.9,6.7c0.3,2.2,0.4,4.3,0.6,6.4c0.3,4.2,0.5,8.2,0.7,11.9c0.2,3.7,0.4,7.1,0.5,10.1
			c0.2,3,0.3,5.6,0.5,7.8c0.1,1.1,0.1,2,0.2,2.9c0.1,0.8,0.1,1.5,0.2,2.1c0.2,0.7,0.4,1.2,0.6,1.4c-0.4,2.2-1.3,7.5-0.9,10.8
			c0.2,1.3-0.1,3.7-0.4,6.3c-0.6,5.2-1.3,11,0.5,14.3c0.8,1.5,1.3,3,1.9,4.5c0.2,0.5,0.4,1,0.6,1.5c-0.1,0.3-0.2,0.7-0.3,1.2
			c-0.1,0.6-0.2,1.3-0.1,2.2c0,0.9,0.1,1.8,0.1,2.9c0.2,4.4,0.4,10.7,0.6,18.3c0.3,7.6,0.6,16.4,1,25.8c0.3,9.4,0.7,19.5,0.9,29.6
			c0,1.3,0,2.5,0,3.7c0,0.6,0,1.3,0,1.9l0,1.9c0,2.6,0,5.1,0,7.5c0.1,5,0.2,9.9,0.4,14.6c0.3,9.5,0.7,18.3,1.1,25.8
			c0.7,14.5,1.2,24.4,1.3,25.1c-2.1,2.7-3.3,9.2-3.3,11.5c0,0.5,0,0.9,0,1.3c-0.1,1.9,0,2.6,1.7,5.1c0.9,1.2,1.2,2,1.4,2.7
			c0.3,0.8,0.6,1.6,1.5,2.5c0,0,0,0,0,0c0.3,4.5,0.7,9.4,0.9,11.9C435.6,469,430.3,471.2,427.4,472.3z M468.2,424.7l-0.2,0.2
			c-0.6,0.7-0.7,2-0.9,4.7c-0.1,1.6-0.2,3.4-0.5,5.3c-0.1,0.7-0.2,1.1-0.3,1.4c-0.6-0.1-1.2,0.1-1.7,0.8c-0.7,0.9-3,1.7-4.6,2.2
			c-0.7,0.2-1.3,0.4-1.7,0.6c-1.9,0.9-3.5,1.1-4.7,0.8c-1.5-0.4-2.8-0.2-3.7-0.1c-0.3,0-0.5,0.1-0.7,0.1c-0.4,0-0.8,0.1-1.5,0.3
			c-1.4,0.4-3.8,1.2-6.7,0.8l-1-0.1c-2.1-0.2-3.2-0.4-4-0.7c-0.2-0.7-0.8-1.2-1.6-1.2c0,0-0.1,0-0.1,0c-0.5-0.5-0.7-0.9-1-1.6
			c-0.3-0.8-0.7-1.7-1.7-3.2c-1.4-2-1.4-2.4-1.4-3.9c0-0.4,0-0.8,0-1.4c0-2.7,1.3-8.1,2.6-10c0.1,0,0.1,0,0.2,0
			c0.7,0,1.3-0.6,1.4-1.3c1.4-1,2.9-2.6,4.1-4.6c1.5,1.1,3.2,1.6,4.8,2c1.1,0.3,2.1,0.6,3,1c0.9,0.5,1.4,1.1,2,1.8
			c0.7,0.8,1.4,1.8,2.8,1.8c0.2,0,0.5,0,0.8-0.1c2.4-0.6,6.2-4.5,6.7-4.9c0.1-0.1,0.2-0.3,0.2-0.4l0.4-1.6c1.2,1.2,3,2.9,5.2,3.9
			c1.8,0.8,1.8,1,2.1,1.7c0.2,0.6,0.5,1.3,1.3,2.4C469.3,423.4,468.8,424,468.2,424.7z"/>
	</g>
</g>
</svg>
