<?xml version="1.0" encoding="utf-8"?>
<!-- Generator: Adobe Illustrator 20.1.0, SVG Export Plug-In . SVG Version: 6.00 Build 0)  -->
<svg version="1.1" xmlns="http://www.w3.org/2000/svg" xmlns:xlink="http://www.w3.org/1999/xlink" x="0px" y="0px"
	 viewBox="0 0 459 567" style="enable-background:new 0 0 459 567;" xml:space="preserve">
<style type="text/css">
	.st0{fill:#FFFFFF;}
	.st1{fill:none;stroke:#1A1A1A;stroke-width:2;stroke-miterlimit:10;}
	.st2{fill:none;stroke:#1A1A1A;stroke-width:3;stroke-miterlimit:10;}
	.st3{fill:none;stroke:#1A1A1A;stroke-width:2;stroke-linejoin:round;stroke-miterlimit:10;}
	.st4{fill:none;stroke:#1A1A1A;stroke-linejoin:round;stroke-miterlimit:10;}
	.st5{fill:none;stroke:#1A1A1A;stroke-width:2;stroke-linecap:round;stroke-miterlimit:10;}
</style>
<g id="back">
	<path class="st0" d="M456,387.5l-0.7-0.5l0-0.9c0.5-9.9-4.9-19.2-5.5-20.3l-0.8-1.4l1.4-0.7c0.2-0.1,0.5-0.3,0.4-0.8
		c0-0.9-0.9-2.3-2-3.1l-1.4-1.1l1.4-1.4c3.8-3.7,11.4-21,1.9-43c-8.5-19.8-16.8-27.3-19.1-29.1l-0.7-0.5l0.1-0.8
		c0.1-1.5-0.8-4-1.3-4.7c0,0,0,0,0,0c0,0-0.3-0.3-1.8-0.4l-1.9-0.1l0.6-1.8c0.4-1.1,0.8-2.9,1-5.5c0.2-3.6-2.9-6-4.8-7.5
		c-0.5-0.3-0.8-0.6-1-0.9l-0.1-0.2c-0.1-0.1-2.8-3.7-4.3-5.9l-0.5-0.8l0.5-0.8c0.1-0.2,0.2-0.3,0.2-0.5c0.3-1.1-0.1-1.8-1.1-3.3
		c-0.3-0.4-0.6-0.9-0.9-1.5l-0.4-0.7c-1.2-2.1-3.3-5.9-5.8-5.7l-1.6,0.1l0-1.6c-0.1-16.5-9.2-30-18.1-34.8
		c-3.6-1.9-7.6-2.7-11.6-2.2l-1.6,0.2l-0.1-1.6c-0.1-1.7-0.1-2.9-0.1-3.4c0.1-1.4,0.2-2.9,0.3-4.3c0.2-1.8,0.3-3.6,0.3-5.3
		c0-0.3,0-0.6,0-0.9l0-0.3l0.1-0.3c0.7-1.9,1.1-3.9,1.1-6c0-5.6-3.5-10.5-7.8-10.8c-1.5-0.1-3.6,0.4-5.7,1.4l-1.2,0.6l-0.7-1.2
		c-0.8-1.3-2.6-3.6-5.9-4.6c-3.5-1.1-7.8,2.5-9.9,6.5l-0.9,1.6l-1.4-1.1c-2.3-1.9-10.8-6.2-38.9-6.2c-36,0-54.9-26.2-54.9-52
		c0-11.6,1.6-17.9,3.2-24.5c1.8-7.3,3.7-14.9,3.7-30.4c0-30.2-25.1-61-49.7-61c-23.7,0-33.2,1.3-40.3,3.2l-1.5,0.4L166,4.1
		c-0.1-0.3-0.2-0.7-0.3-1c-0.2-0.6-1.3-1.4-3.2-1.6c-2.7-0.2-5.9,0.7-9.1,2.7c-1.7,1-3.4,2.3-5,3.9c-0.2,0.2-0.4,0.6,0.1,2.1
		l0.3,0.8l-0.5,0.7c-2.4,3.2-6.9,4.1-14.8,3c-20.3-3-49.7-3-66.5,3.8C43.4,28.1,29,41.7,24,59c-1.3,4.5-2,9.3-2,14.3
		c0,26,29.9,37.1,45.8,39.4c10.8,1.5,28.5,11.7,44.1,25.4c6.6,5.8,12.8,8.3,20.3,8.3c6.3,0,13.2-1.8,21.2-3.9c2.4-0.6,4.9-1.3,7.6-2
		c22.3-5.5,64-24.2,64-44.3c0-19.6-2.2-28.4-14.3-39c-11.5-9.9-32.9-9.9-52.1,0.1c-19.3,10-70.6,24.4-81.5,25.8
		c-6.8,0.9-29.9,3.2-39.3-5c-2.6-2.3-4-5.3-4-8.9c0-13.8,21.6-22.2,40.6-29.5c4.8-1.8,9.3-3.6,13.2-5.3c18.9-8.3,39.9-3.9,51.3-1.6
		l3.5,0.7l-3,2c-0.2,0.1-0.4,0.3-0.5,0.3c0.6,0.7,1.3,1.3,2.1,1.9c1.8,1.3,4.1,2.4,6.5,3c2.3,0.6,4.8,0.9,7,0.7
		c3.3-0.3,8.2-9.9,10.6-20.5l0.3-1.2l1.2,0c16.6,0.1,29.6,3.3,50.6,19.8c22,17.3,25.7,56.1,22.9,78c-3.1,24.2-32.3,40.6-43.3,44.9
		c-8.2,3.2-30.8,3-49,2.9l-0.1,0c-8-0.1-15.5-0.1-20.7,0.1c-4.5,0.2-9.3,1.5-14.1,3.9l-0.8,0.4l-0.7-0.5c-2.1-1.3-4.2-1.8-6.5-1.4
		c-3.3,0.6-4.6,1.5-5,2.1l-1,1.3l-1.2-1.2c-4.1-4.1-8.6-6.3-12.9-6.3c-3.4,0-6.9,3.3-6.9,9.4c0,1.1,0.2,2.3,0.5,3.6l0.5,1.9l-2,0
		c-1,0-1.9,0.3-2.7,0.9c-2.4,1.7-3.8,5.8-3.8,11.2c0,1.7-0.1,6.4-0.4,13.5l-0.1,2.3l-2.1-1c-2.4-1.1-6-2.1-9.5-0.5
		c-1.7,0.8-10.7,6.3-23.6,38.9l0.5,1.9l-2.1-0.1c-3.5-0.2-6.4,0.8-8.2,2.9c-1.4,1.6-2,3.5-1.8,5.4c0.2,1.7,1.1,3.3,2.5,4.6l1.6,1.5
		l-2,0.9c-6.8,3.3-9.2,11.7-9.2,18.6c0,1.4,0,2.8-0.1,4.1c-0.1,2.9-0.2,5.4,0.4,7.2l0.5,1.7l-1.7,0.2c-2.5,0.3-3.7,1.1-3.7,2.4
		c0,1.6,0.3,2.4,1.2,3l1.2,0.8l-0.8,1.2c-3.1,4.7-11.5,22.4-11.5,38c0,17.8,9.4,30.6,11.1,32.2l1.4,1.2l-1.3,1.2
		c-0.7,0.7-1.3,1.5-0.1,3.7c0,0,0.1,0.1,0.2,0.2l1.1,0.8l-0.6,1.2c-1.4,2.6-3.3,7.5-3.3,19.8c0,11.6,2.1,13.8,4.3,14.5
		c0.9,0.3,1.9-0.1,2.9-1l1.7-1.5l0.7,2.2c0.1,0.2,0.1,0.3,0.2,0.5c0.6,1.1,2,1.5,3.1,1.7c1.3,0.2,2.8-1.2,4.3-4l0.7-1.3l1.3,0.7
		c0.7,0.4,1.3,0.6,1.8,0.6l0.1,0c0.8,0,1.3-0.3,1.6-0.9c0.7-1.4-0.1-4-2.1-6.6l-0.5-0.7l0.3-0.9c1.8-6.6-0.2-17.3-2-22.6l-0.5-1.5
		l1.5-0.5c0.1,0,0.2-0.1,0.2-0.1c0.4-0.2,0.6-0.5,0.7-1c0.2-0.8-0.2-2-1-3.3l-1-1.5l1.6-0.7c0.2-0.1,0.3-0.2,0.5-0.2
		c3.2-2,12.6-16.5,12.6-33.2c0-14.8-10.3-33-12.4-36.5l-1-1.8l2-0.5c2.2-0.5,2.6-1.3,2.6-2.6c0-0.6-0.1-2.3-4.5-3.1l-2.6-0.5l1.7-2
		c3.8-4.5,7.8-17.3,7.1-26.5l-0.1-1.5l1.5-0.1c3.4-0.3,6-1.8,7.1-4.2c1.2-2.6,1.1-5.4-0.3-7.6l-0.8-1.2l1.2-0.8
		c4.6-6.1,16.9-16.8,22.1-19.8l2.4-1.4l-0.1,2.7c-1.5,32-3.6,70.6-5.2,82.8C61.3,332.3,50.3,465,53.7,481.8c1,4.9,2.2,10.5,4.1,15.4
		l0.7,1.9l-2,0.1c-4.2,0.3-7,1.3-8.5,2.9c-0.9,1.1-1.3,2.4-1.2,4c0.3,2.9,0.8,5.6,1.3,7.8c0.4,2,0.7,3.3,0.6,4.1l-0.1,2.1l-2.2-0.9
		c-0.2-0.1-0.3-0.1-0.5-0.2c-0.3-0.1-0.5-0.2-0.8-0.3c-2.4-0.8-3.9,0.2-4.4,0.6c-0.4,0.4-0.7,0.8-0.7,1.1c0.1,0.1,0.2,0.2,0.4,0.3
		l2.1,1.6l-2.5,1c-0.9,0.3-2,1.1-3.1,1.9c-3.4,2.4-8.1,5.8-12.8,2.8c-1.8-1.1-4.2-2.3-5.7-1.4c-1,0.6-1.3,2.1-1.2,3.2
		c0.1,1.5,1.4,2.4,2.4,2.8l1.7,0.7l-1,1.5c-0.1,0.2-0.2,0.4-0.2,0.7l0,0.1c-0.1,0.9-0.1,2.1,0.8,3.1c1.1,1.3,3.6,2,7.3,2.1
		c0.2,0,0.3,0,0.5,0c2.7,0,5.9-0.8,9.4-2.5L46,535l-6.2,6.1c-1.3,1.2-2.9,2.6-4,3.5c-1.9,1.6-4.8,4.1-4.8,4.8
		c0.2,1.4,2.3,4.8,4.4,5.5c1.1,0.3,2.1,0,3.1-1.1c3.4-3.9,9.8-15,11.9-20.3l1.5-3.8l1.4,3.8c0.1,0.4,0.2,0.7,0.3,1
		c0.1,0.5,0.3,0.8,0.4,0.8c0.1,0,0.3-0.1,0.5-0.3c1.3-1.2,2.8-5.2,1.9-8.4c0-0.2-0.1-0.4-0.3-0.6l-0.6-1.1l0.9-0.7
		c0.9-2.7,5.8-10.5,11.2-12.1l0.6-0.2l0.7,0.4c3.6,2.2,8,3.2,13,3.2c7.5,0,22.4-0.8,39.7-1.7c29.3-1.5,65.6-3.4,82.2-2.4
		c4.9,0.3,12.2,0.7,21.5,1.1l1,0l0.5,1.4c1.5,4.2,3.8,10.7,2.9,17l-0.3,1.7l-1.6-0.4c-1.1-0.3-2.1,0.3-3,1.7
		c-0.6,0.9-0.8,1.8-0.5,2.7l0.3,0.9L224,538c-0.8,0.7-2,1.8-3.4,3c-4.3,3.6-10.8,9-12,13c-0.4,1.2-0.6,2.7,0.4,3.6
		c0.5,0.4,1.3,0.7,2.3,0.7c1,0,1.8-0.2,2.2-0.4c0.7-0.3,2.3-2.4,3.9-4.5c3.2-4.1,4.9-6.1,6.2-6.5l1.9-1l0.4,2.1
		c0.5,3.8,1.7,9.2,4.2,13.1c2.2,3.4,4.7,4.1,6.3,4.2l0.2,0c2.6,0,4.6-1.5,4.9-1.9l0.6-0.8l0.8,0c0.6,0,1.5,0.1,2.5,0.1
		c1,0,1.8,0,2.5-0.1c0.9-0.1,1.6-0.7,1.8-1.5c0.3-1.5-1.4-3.3-4.5-4.8c-5.3-2.6-6.5-7.5-7.3-11.1c-0.2-0.9-0.4-1.7-0.6-2.3l-0.4-1.1
		l1-0.7c0.3-0.2,0.5-0.4,0.7-0.7c0.1-0.2,0.2-0.4,0.4-0.7c0.7-1.3,1.1-2.2,0.8-2.9c-0.2-0.4-0.6-0.7-1.3-0.9l-1.6-0.6l0.8-1.5
		c2.7-5.2,1.9-15.2,1.6-18.9l-0.1-1.7l1.7,0.1c30,1.2,72,2.4,90.8,2.4c1.6,0,3,0,4.2,0l0.8,0c12-0.2,30.2-0.5,43.5-5.5l0.7-0.3
		l0.9,0.3c0.8,0.3,1.6,0.6,2.6,0.8l0.7,0.2l0.2,0.5c0.5,0.3,0.9,0.6,1.2,0.9c0.8,0.7,1.6,1.4,4.1,1.9l1.5,0.3l-0.4,1.5
		c-0.3,1.1-0.7,3.8,0.6,6.2c1,1.9,3,3.2,5.7,3.8c0.5,0.1,1.1,0.2,1.7,0.4l0.7,0.1l0.3,0.6c0.5,0.8,0.8,1.6,1.1,2.6
		c0.9,2.5,2.1,6,8,11l0.6,0.5l0,0.7c0,0.8,0.3,1.5,0.9,2.1c0.6,0.5,1.3,0.7,1.9,0.5c0.9-0.3,1.6-1.4,2-3.2c0.6-2.8,0.9-6.8,1-11.8
		l0-1.5l1.5,0.1c1.8,0.1,3.6,0.1,5.2,0.1c8.7,0,10.6-0.9,11-1.2c1.3-0.9,1.8-2,1.6-2.9c-0.5-1.6-3.7-2.6-8.5-2.6c-0.9,0-1.7,0-2.7,0
		c-2.2,0-4.5,0-6.9,0l-1.3,0l-0.2-1.2c-0.5-3.3-3.1-7.4-5.8-9l-1.5-0.9l1.2-1.3c0.3-0.4,0.6-0.7,0.7-0.8c-0.4-2.1-2.1-4.2-5-6.3
		c-2.2-1.6-5-3-8.2-4.4l-1.3-0.5l0.5-1.3c0.7-2.1,1.1-4.4,1.1-6.8c0-24.9-3.3-110.1-5.7-130.7c-1.7-14.4-9-85.7-12.9-127.9l-0.3-3.6
		l2.8,2.3c7.5,6.2,13.4,12.8,17.5,19.5l0.6,0.9l-0.7,0.8c-0.8,1-0.8,1.9-0.2,3.1c1.4,2.8,2.7,4.3,3.7,5.6c0.4,0.5,0.8,1,1.2,1.5
		c0.2,0.3,0.6,0.6,1.4,0.7c0,0,0.1,0,0.1,0l0.9,0l0.5,0.7c1.5,2.5,6.2,13.5,7,18.9l0.1,1.1l-1,0.5c-0.9,0.5-1.1,0.8-1.1,0.9
		c0.1,0.4,0.1,0.8,0.1,1.2c0,0.8,0,1.5,0.3,2c0.2,0.2,0.4,0.6,1.3,0.8l1.7,0.3l-0.6,1.6c-1.8,5.1-4.7,18.3-3.8,35.4
		c1,18.2,16.4,33.5,24.1,36.2c0.4,0.1,0.8,0.2,1.3,0.3l1.6,0.3l-0.4,1.5c-0.5,2.2-0.2,3.3,1.1,3.9l1,0.5l-0.1,1.1
		c-0.4,3.1,0.5,11,1.9,14.5c1.1,2.7,4.7,5.8,7.8,7.8l0.9,0.6l-0.2,1c-0.2,0.8-0.4,1.6-0.6,2.4c-0.2,0.7-0.1,1.4,0.3,2
		c0.6,1.1,2,1.7,3,1.9c0.1,0,0.1,0,0.2,0c0.7,0,1.7-1.1,2.6-4.4l0.2-0.9l0.9-0.2c1.1-0.3,1.8-1.1,2-2.2
		C457.5,389.4,457,388.2,456,387.5z M61.8,94.9c16.6,0.8,46.3-3.4,65.4-11.7c7.2-3.1,13.8-6.9,20.1-10.6
		c13.7-7.9,26.5-15.3,44.2-15.3c3.7,0,7,0.4,9.9,1.3c13.9,4.3,13.4,18.1,13.2,24.8c0,0.8-0.1,1.5-0.1,2.1c0,5-9.1,27.9-50.9,40.9
		c-4,1.2-7.7,2.4-11,3.4c-15.8,5-23.9,7.5-29.1,7.5c-2.9,0-4.9-0.8-6.8-2.4c-1-0.8-2-1.9-3.4-3.6c-7.6-9.4-37.2-29.7-46.4-31.9
		c-1.7-0.4-3.6-0.9-5.6-1.5l-12.6-3.6L61.8,94.9z M63.2,510.3c-2.6,0.9-4.7,1.9-9.4,6.6l-2.4,2.4l-0.2-3.4c-0.1-3.1,0.1-5.6,0.6-7.6
		c1.6-5.4,6.1-5.1,8.1-5l0.8,0.1l0.4,0.7c0.8,1.4,1.8,2.6,2.7,3.7l1.5,1.7L63.2,510.3z M68.1,216.4c-2.4,0.5-6.7,2.3-13,7.8
		l-7.2,6.2l4.9-8.1c4.9-8,6.2-9.6,6.9-10.2l0.3-0.2l0.3-0.1c1.9-0.4,5-0.9,8.4,2l2.3,2L68.1,216.4z M96.5,180c-0.3,0-0.6,0-0.9,0
		c-4.4-0.1-8-0.2-10.9-0.4l-1.1-0.1l-0.3-1.1c-0.2-0.7-0.3-1.4-0.3-2c0-3.5,0.7-5.8,2-6.8c0.8-0.6,1.8-0.8,3-0.5
		c2.3,0.6,6.2,3.8,10.1,8.3l2.2,2.6L96.5,180z M208.9,27c-12.7-9.9-27-12.9-34.4-13.9l-10.1-1.2l10-1.7c11.9-2.1,34.2-4.2,50.3,4.9
		c20.6,11.6,27.9,37.9,27.9,56.8c0,9.8-1.7,15.3-3.3,20.6l-1-0.3v0l1,0.3c-0.3,0.9-0.6,1.9-0.8,2.8l-2.3,7.9l-0.7-8.2
		C243.8,74.2,238.2,49.9,208.9,27z M338.2,181.5c-0.7,0-1.2,0-1.7,0c-0.5,0-1.1,0-1.8,0c-13.4,0-59.9-2.1-79.7-4.1
		c-19.2-1.9-45.6-0.2-64,2.1c-9,1.1-41.3,1.3-69.5,1l-0.8,0l-0.4-0.6c-0.4-0.6-0.9-1.3-1.3-2c-0.5-0.8-1-1.6-1.5-2.3l-1.1-1.6
		l1.9-0.7c4.7-1.7,9.9-2.4,16.4-2.4c5.7,0,10.3,0.1,14.7,0.1c7.9,0.1,14.7,0.2,24.4-0.1c6.6-0.2,40.6-2.3,56.2-22
		c7-8.8,11.2-14.9,13.6-21.7l1.9-5.6l1,5.8c2.3,13.8,5.2,17.9,13.8,30.2l0.3,0.5c0.9,1.3,1.9,2.7,3,4.2c10.7,15.5,38,15.1,54.3,14.8
		c1.9,0,3.7-0.1,5.2-0.1c7.4,0,12.4,0.5,15.6,1.6l8.4,2.8L338.2,181.5z M357.5,180.8l-0.4,0.8l-0.9,0c-1.9,0-3.7,0-5.5-0.1l-2.3,0
		l0.9-2.1c1.5-3.4,4.3-6.6,6.3-6c1,0.3,2.6,1.5,3.8,2.4l1.3,1l-1.2,1.2C358.7,178.9,358,179.8,357.5,180.8z M372.7,182.4
		c-1-0.4-2.1-0.6-3.4-0.6v0c-1.4,0-2.9-0.1-4.5-0.1l-4.2-0.1l3.3-2.6c2.3-1.8,4.8-2.8,7-2.6c1.3,0.1,3.1,0.9,3.9,4.3l0.6,2.7
		L372.7,182.4z"/>
</g>
<g id="lines">
	<path class="st1" d="M70,208.8c13.7,3.4,113.4,4,125.8,3c12.5-1,70.4,0.7,84.2,2.4c10.8,1.3,69.5,0.7,97.1-2.6"/>
	<path class="st1" d="M132.4,191.3c-5.6,0.2-15.2-0.3-18.4-1.3c-3.3-1-2.3,7.3-1.8,8.1c0.5,0.8,4,2.3,13.4,2.3s24.3-0.4,26.8,0
		c3.8,0.6,5.6-1,5.3-3.4s1.9-6.6-4.4-6.1C147.1,191.5,133.4,191.3,132.4,191.3z"/>
	<path class="st1" d="M204.3,191.6c-3,0-2.9,2.5-2.9,5.7c0,3.2,1.5,4.2,3.7,4.2c2.2,0,36.6-0.2,42.3,0c5.7,0.2,4.7-2.5,4.8-3.7
		c0.2-1.2,1-5.9-2.5-6.2S208.5,191.6,204.3,191.6z"/>
	<path class="st1" d="M293.9,191.4c-2,1.2-1.9,9.6-0.8,10.3s18.5-0.2,24.6,0c6.1,0.2,13.5-0.1,16.8,0.3c3.4,0.4,4.5-4.3,4-6.3
		c-0.5-2-3.5-2.9-9.1-2.9C323.8,192.8,295.9,190.2,293.9,191.4z"/>
	<path class="st2" d="M378.3,225.3c3.3,41.1,11.4,118,13.1,133c2.4,20.2,5.7,104.7,5.7,130.6c0,25.9-40.4,26.3-61.6,26.6
		s-105.4-2.4-131.7-4s-101.7,4-121.9,4s-24.9-17.2-28.3-33.7c-3.4-16.5,7.4-148.2,10.1-168.7c2.7-20.5,6.7-112.8,6.7-122.2
		s4-13.1,8.1-11.8c4,1.3,96.3,2.4,112.5,0.4s43.4-4.1,64-2.1c20.5,2,70.7,4.3,81.5,4c4.7-0.1,22.2,0,32.7,0.3
		c10.4,0.3,7.4,10.4,7.1,18.9c0,0.7,0,0.9,0.1,3.2L378.3,225.3z"/>
	<path class="st1" d="M106.2,180.2c6.8-4.1,12.7-8.9,28.6-8.9s24,0.5,39.1,0c15.2-0.5,43.2-5.3,56.6-22.2
		c14.1-17.8,17.2-24.6,15.9-48.9c-1.3-24.3-6.9-49.9-37.1-73.5c-18.9-14.8-41.1-14.4-41.1-14.4"/>
	<path class="st1" d="M112.3,169.2c-2.1-1.5-4.5-2.3-7.3-1.7c-7.1,1.3-5.6,3.8-5.6,3.8"/>
	<path class="st1" d="M121.5,180.5c-1.3-1.7-3-4.7-4.3-6.3"/>
	<path class="st1" d="M78.9,179.6c-0.8-2-1.4-4.2-1.4-6.3c0-6.8,4.3-9.8,7.4-9.8c6.2,0,12.6,4.2,17.9,12"/>
	<path class="st1" d="M95.6,180c1.2,2.2,14.1-14.3,31.6-15s58.1,1.6,69.7-3c11.6-4.5,39.9-21,42.9-44.5c3-23.5-1.5-60.9-22.7-77.5
		s-34.6-19.7-51-19.7"/>
	<path class="st1" d="M84.2,179.6c-0.4-1-0.7-2.1-0.7-3.1c0-4,0.8-7.7,4.3-6.8c2.3,0.6,7.2,4.7,11.8,10.5"/>
	<path class="st1" d="M344.8,181.5c0.1-1.1,0.3-2.2,0.6-3.4c0.8-3.9,6.6-10.9,11.6-9.4c5.1,1.5,6.7,5.9,6.7,5.9"/>
	<path class="st1" d="M377,191.1c1-2,1.7-4.5,1.7-7.4c0-5.7-3.7-10.9-8.2-11.3c-4.1-0.3-11.4,3.5-13.9,9.2"/>
	<path class="st1" d="M374.5,183.5c-0.1-2.8-0.9-6.3-3.7-6.5c-3.1-0.3-6.6,2-8.9,4.7"/>
	<path class="st1" d="M349.1,181.5c0.1-0.5,0.3-1,0.4-1.4c1.5-4,4.4-6.7,5.9-6.2c1.5,0.5,4.5,3,4.5,3"/>
	<path class="st1" d="M343.5,181.8c-3-2.2-5.1-4.4-20.4-4.4s-47.8,2.5-59.9-15c-12.1-17.5-15.1-20.1-17.8-39.7"/>
	<path class="st1" d="M246.6,101c1.4-9.1,5.5-14.1,5.5-29.1s-5.2-43.8-27.6-56.4s-57.2-3.3-57.2-3.3"/>
	<path class="st1" d="M167.2,4.9c6.6-1.9,15.7-3.4,40.9-3.4s50.2,31.8,50.2,61.5s-6.9,30.6-6.9,54.9s17.8,51.5,54.4,51.5
		s40.1,7.3,40.1,7.3"/>
	<path class="st3" d="M149.2,22.7c2.6-8.3-3.2-13.1-1.3-14.9c9.5-8.9,17.4-7.2,18.2-4.8c3.9,12.4-5.4,38.5-11.5,39
		c-6.1,0.5-13-2-16.4-6.2C138.3,35.8,146.6,31.3,149.2,22.7z"/>
	<path class="st3" d="M141.2,33.8c-11.7-2.4-33.7-7.5-53.2,1.1S34.5,52.3,34.5,69.3s31.1,14.9,42.7,13.4c11.6-1.5,62.4-16,81.3-25.8
		s40.7-10.4,52.7,0c12,10.4,14.5,18.6,14.5,39.3s-42.9,39.5-64.4,44.8s-34,11.1-49.6-2.5s-33.3-23.7-43.9-25.3
		c-10.6-1.5-46.2-10.9-46.2-39.9S43.3,27.6,66.8,18c17.3-7.1,47-6.7,66.8-3.8c7.1,1,12.3,0.5,14.6-3.2"/>
	<path class="st3" d="M147.9,25.9c-7.9-2.1-40.5-11.2-67.2-1.1s-46,21-52.8,40.7S44.6,93.3,57.7,95s47-1.5,69.7-11.4
		s38.4-25.8,64.1-25.8S214,78.9,214,85.4c0,6.6-10.6,28-50.5,40.4s-42.2,14.4-49.7,5.1S76.6,101.1,67,98.8
		c-9.6-2.3-20.5-6.4-20.5-6.4"/>
	<path class="st4" d="M144.3,30.9c-5.3-1.3-23.4-9.6-45-4.3S67.5,39,63,40c-4.5,1-33.1,13.4-32.6,30.8s24.5,17.9,39.4,18.3
		c14.9,0.4,67.5-16.3,74.5-19.8s31.5-20.4,52.2-14.5s25,20.1,21.2,42.5s-77,44.2-86.6,43.7c-9.6-0.5-12.6,0-21.7-10.1
		s-35.4-23.2-49.7-26.3S25.3,90.1,23.9,76.8c-1.4-13.3,0.8-31.6,26-44.2s35.4-17.9,58.1-16.4c10.9,0.7,20.8,2,28.3,3.1
		c8.2,1.2,13.6,0,13.6,0"/>
	<path class="st4" d="M140.8,38.2c3.6-1.5,17-4.4,12.2-34.4"/>
	<path class="st4" d="M147.5,41.3c3.6-1.5,17.2-11.3,15-39.8"/>
	<path class="st1" d="M378.5,227.6c7.1,5.6,14.7,12.9,20,21.8"/>
	<path class="st1" d="M403.3,246.3c-4.7-17.5-17-27-25.9-31.4"/>
	<path class="st1" d="M376.5,205.3c4.2-0.9,9.1-0.4,13.5,2c8.8,4.7,18.7,18.3,18.4,36.5"/>
	<path class="st1" d="M404.7,245.3c-3.9,2.8-9,4.3-6.9,8.3c2,4,3.8,5.4,4.9,7.1c1.2,1.7,3.7,0.7,8.5-1.5c4.7-2.2,6.4-2.3,6.9-4.1
		c0.5-1.7-0.7-2.8-2-5.1c-1.4-2.3-4.1-7.9-7.7-6.3C404.7,245.3,404.7,245.3,404.7,245.3z"/>
	<path class="st1" d="M420.6,279.1c-1.8,0.5-10.4,2.3-10.1,4c0.3,1.8-0.8,4.5,3.3,4.5s6.8-1.8,8.3-1.8c1.5,0,8.8,0,9.3-1.3
		c0.5-1.3-0.5-4.5-1.3-5.6S423.7,278.3,420.6,279.1z"/>
	<path class="st1" d="M405.2,261.6c1.5,1.9,6.9,14.8,7.3,19.9"/>
	<path class="st1" d="M419.3,279.1c1.2-2.9,4.1-10,2.8-16.3c1.2,1.2,6.4,4,6.1,8.7c-0.3,4.7-1.5,6.9-1.5,6.9"/>
	<path class="st1" d="M417.4,256.3c1.3,2.1,4.7,6.5,4.7,6.5"/>
	<path class="st1" d="M409.5,260c2,2.9,7.4,13,11.5,14.9"/>
	<path class="st1" d="M413.8,287.7c-2.1,4.9-5.3,19.1-4.3,36.8c1,18.8,17.3,34.1,24.4,36.6c4.7,1.7,13-0.9,15.3-3.2
		c3.2-3.2,12-20.5,2-43.6c-9.9-23.1-19.8-29.6-19.8-29.6"/>
	<path class="st1" d="M436.2,361.7c-0.2,1.3-1.5,4.2,1.2,5.5c2.7,1.3,10.4-2,13-2.8c2.5-0.8-0.2-5.1-2.5-5.5"/>
	<path class="st1" d="M438.1,367.5c-0.7,2,0.1,11.2,1.8,15.4c1.7,4.2,9.5,9.8,14.1,10.5c4.5,0.7,5.2-5.2,1.9-6.6
		c-3.3-1.3-10.1-5.1-10.1-7.8s-2-11.2-0.9-12.7"/>
	<path class="st5" d="M449,383.3c-0.2-1.8-0.5-3.8-1.2-5.8"/>
	<path class="st1" d="M454.9,393.5c-1,4.3-2.4,5.6-3.5,5.3c-1.5-0.3-4.3-1.7-3.6-4.5c0.2-0.7,0.4-1.5,0.6-2.6"/>
	<path class="st1" d="M449.6,364.7c1.9,2.7,6.9,12.6,6.2,22.2"/>
	<path class="st5" d="M70.1,206.2c-2-1.3-7.1-3.7-11.8-1.5c-4.7,2.2-13.5,13-23.9,39.4"/>
	<path class="st5" d="M69.1,228.6c-3.2,0.3-18.8,13.5-24.1,20.6"/>
	<path class="st5" d="M39.5,244.8c4.3-5.4,18.8-32.1,20.8-32.5c2-0.4,5.6-1.1,9.4,3.2"/>
	<path class="st5" d="M69.1,215.7c-3.5,0.4-9.8,3.2-19.5,12.9"/>
	<path class="st5" d="M39.5,246.6c-4.7-1.7-11-2.4-14.7,1.9c-3.7,4.2-2.2,10.3,4.4,13.1s13.8,1.5,15.9-3S45.7,248.8,39.5,246.6z"/>
	<path class="st5" d="M22.8,292.3c-3.9,0.1-11.7-0.5-11.7,3.2c0,3.7,1.7,5.1,11.7,4.7c10-0.4,12.3-1,12.2-3.9
		C34.8,293.3,30.7,292,22.8,292.3z"/>
	<path class="st5" d="M16.4,292.2c-1.3-2.6-0.6-6.9-0.6-12.3s1.6-16.4,10.9-19.6"/>
	<path class="st5" d="M31,262.3c-2.5,1.9-8.3,11.3-8.4,17.3c-0.1,6.1-1.1,12.6-1.1,12.6"/>
	<path class="st5" d="M28.1,292.2c4-2.5,9.8-18.2,8.4-29.1"/>
	<path class="st5" d="M22.5,285.3c4.2-2.3,6.2-3.4,10-22.2"/>
	<path class="st5" d="M13.4,299.3c-1.9,2-12.2,21.7-12.2,39.1S10.2,369,12.4,371c2.1,2,15,2.3,18.7,0s12.8-16.9,12.8-33.6
		c0-16.7-12.8-37.3-12.8-37.3"/>
	<path class="st5" d="M13.7,371.7c-2.4,1.5-2.7,2.8-1.3,5.2s16.1,1.7,17.8,0.8c1.7-0.8,1.4-3.3-0.8-6"/>
	<path class="st5" d="M58.4,498.7c-6.7,0.1-12.6,1.8-12.1,7.5c0.5,5.7,2.2,10.8,1.9,12.1"/>
	<path class="st5" d="M56.9,524.4c0.8-2.9,6.4-11.5,12.1-12.2"/>
	<path class="st5" d="M56.9,526.4c-0.8-3.2-7.6-6.8-11.6-8.1s-5.9,1.7-5.7,2.4c0.2,0.7,12.2,7.4,13.5,13.8
		C53.9,538.6,58.3,531.7,56.9,526.4z"/>
	<path class="st5" d="M61.1,504c-3.1-0.3-7.2-0.6-8.7,4.5c-1.5,5.1,0,13.2,0,13.2"/>
	<path class="st5" d="M65,509.1c-3.9,1.5-5.8,1.3-13.3,9.2"/>
	<path class="st5" d="M13.5,377.7c-2.1,3.4-3.8,8.9-3.8,21c0,12.1,2.3,14.3,4.7,15s5.7-2.7,5.3-5.8c-0.4-3.2-6.1-23.5-0.9-29.4"/>
	<path class="st5" d="M21.4,378.6c0.2,4.8,3.2,17.4,8.4,22.8s4.9,10.3,1.4,10.1c-3.4-0.2-9.5-6.7-11.7-12.5c-2.3-5.9-2.9-12-2.9-12"
		/>
	<path class="st5" d="M28.1,410.7c-1.6,3.1-3.3,5.1-5.1,4.8c-3.1-0.5-4.7-2.4-3.5-5.6c0.8-2.3,2-3.3,2.8-4.6"/>
	<path class="st5" d="M28.8,378.1c1.9,4.4,4.5,16.7,2.4,24.1"/>
	<path class="st5" d="M233.4,533.6c2.2-5,0.8-16.2-1.1-20.8"/>
	<path class="st5" d="M225.9,512.6c1.5,4.3,4.6,11.5,3.4,18.6"/>
	<path class="st5" d="M239.4,513.1c0.2,3.6,1.7,16.5-2.2,21.9"/>
	<path class="st5" d="M229.7,532.5c-1.8-1.5-3.5-1.4-5.2,1c-1.6,2.4-0.6,4.8,3.8,7c4.4,2.1,9.3,2.3,10.5,0s3.2-4.8-2.3-5.6
		C230.9,534.1,229.7,532.5,229.7,532.5z"/>
	<path class="st5" d="M223.8,537.6c-2.9,2.9-13.9,10.7-15.7,16.3c-1.8,5.6,3.7,5.3,5.6,4.4c1.9-0.9,7.6-10.4,10.1-11"/>
	<path class="st5" d="M225.1,538.4c-0.4,2.3-0.4,2.3-0.4,2.3s-0.2,13,4.8,20.6s11.5,3.3,12.2,2.3c0.8-1,1.6-2.7-4.5-7.6
		c-6.2-4.9-5.3-13.4-5.3-13.4"/>
	<path class="st5" d="M237.2,541.8c1.5,2.8,1.1,10.5,8.1,13.9s4.9,7.1,2.5,7.3c-2.4,0.3-5.7,0-5.7,0"/>
	<path class="st5" d="M51.5,532.1c-0.9,4-8.7,17.6-12.5,22c-3.8,4.4-8.2-2.5-8.4-4.6c-0.2-2.1,11.6-9.5,10.9-12"/>
	<path class="st5" d="M50,531.3c-1.8,1.5-1.8,1.5-1.8,1.5s-11,9-20.1,8.7s-8.6-4-8.5-5.8c0.1-1.3,1.3-3.3,9-1.6
		c5.8,1.3,14.2-6.4,14.2-6.4"/>
	<path class="st5" d="M40.8,522.8c-3.2,0.2-9.8,9.1-16.4,5s-7.9-0.1-7.7,2.3c0.2,2.7,3.4,3.4,3.4,3.4"/>
	<path class="st5" d="M379.9,510c3.6,1.2,7,3.6,19.3,0.2c5.8-1.6,6.3-8.6,6.3-8.6"/>
	<path class="st5" d="M384.6,512c2.3,1.2,1.6,3.1,11.2,3.5c9.6,0.5,14.9-7.1,14.9-7.1c-0.8-5.1-8.6-9.3-14.9-11.9"/>
	<path class="st5" d="M391.1,515.5c-0.7,2-1.9,9.2,6.5,11.3s33,3.2,36.2,0.8c3.2-2.4,3-6.4-7.2-6.4s-25.8,0.6-29-5.4"/>
	<path class="st5" d="M416.4,528.8c0,4.3-0.2,9.3-1,13c-1.3,6.4-6.4,3.1-5.7,0c0.3-1.3,1.2-12.4,1.1-12.8"/>
	<path class="st5" d="M409,510.4c3.4,1.2,7.1,6.8,7.3,10.8"/>
	<path class="st5" d="M399.8,527.2c2.1,3.1,0.9,7.1,9.8,14.6"/>
</g>
</svg>
