<?xml version="1.0" encoding="utf-8"?>
<!-- Generator: Adobe Illustrator 20.1.0, SVG Export Plug-In . SVG Version: 6.00 Build 0)  -->
<svg version="1.1" xmlns="http://www.w3.org/2000/svg" xmlns:xlink="http://www.w3.org/1999/xlink" x="0px" y="0px"
	 viewBox="0 0 529.9 418.3" style="enable-background:new 0 0 529.9 418.3;" xml:space="preserve">
<style type="text/css">
	.st0{fill:#FFFFFF;}
	.st1{fill:#1A1A1A;}
</style>
<g id="back">
	<path class="st0" d="M487.9,152.4c-3.7-4.3-7.8-15.2-10.9-23.1c-1.4-3.7-2.6-6.9-3.4-8.4c-0.8-1.6-3.1-6.5-5.7-12.3
		c-5-10.9-11.2-24.6-13.9-29.2c-0.1-0.2-0.1-0.3-0.1-0.5c0.1-4.9-0.2-7-0.5-7.8c-0.6-1.8-2.1-3.2-4.5-4.3c-0.3-0.1-0.5-0.3-0.5-0.6
		c-2.5-7.1-4.9-15.6-4.7-18.2c0.2-3.1,0.5-13.6-5.2-16.9c-0.2-0.2-0.4-0.2-0.5-0.3c0,0-0.1,0-0.1,0c-0.1,0-0.1-0.1-0.2-0.1
		c-3.9-1.6-11.6,2-17.2,4.7c-3.6,1.7-5.2,2.4-5.9,2.5c-0.1,0-0.1,0-0.2,0c-0.9-0.1-2.1-0.1-3.4,0c-0.5,0.1-0.9-0.2-1.1-0.7
		c-3.3-9.7-8-15.5-11.2-19c-0.1-0.1-0.2-0.2-0.2-0.4c-0.2-0.6-0.7-1-1.4-1.3c-2.7-1-12.1-1-24.1,5.2c-7.1,3.7-11.9,5.4-14.6,6.2
		c-0.3,0.1-0.6,0-0.9-0.2c-0.3-0.2-0.4-0.5-0.4-0.8c0.1-5.5-1.5-13-3-17.2c-0.1-0.1-0.1-0.3-0.1-0.5c0.1-0.7,0-1.2-0.3-1.7
		c-2-3-9.5-8.6-18.9-5.9c-0.7,0.2-1.5,0.4-2.3,0.6c-9.5,2.6-23.7,6.5-28.4,19.2c-0.7,1.8-1.1,3.8-1.2,6.1c0,0,0,0,0,0.1
		c0,0.7,0,1.5,0,2.2l0,0.7c-0.2,12.8-0.1,26.8,1.5,32.7c0.1,0.5-0.1,1-0.6,1.2c0,0-0.1,0-0.1,0c-0.5,0.1-1-0.1-1.2-0.6
		C301,59.7,295.5,46,292,43c-2.2-1.9-7.7-8.2-11.2-25.2C278.3,5.2,273.4,4.2,267.3,3c-0.8-0.2-1.6-0.3-2.4-0.5
		c-7.3-1.6-9.7,3.3-11,6c-0.1,0.2-0.2,0.4-0.3,0.6c-0.2,0.5-1.1,2.3-1.7,4.6c0,0,0,0.1,0,0.1c-1.3,3.2-2.4,7.2-2.8,10.1
		c-0.1,0.4-0.4,0.8-0.8,0.9c-0.4,0.1-0.8-0.1-1.1-0.5c-1.7-2.8-4.4-7-7-9.8c-0.1-0.1-0.1-0.2-0.2-0.3c-1.8-3.9-4.9-7.2-8.8-9.6
		c-5.4-3.3-11.7-4.4-17-3.1c-1.1,0.3-2.2,0.7-3.1,1.3c-0.1,0-0.1,0.1-0.2,0.1c-9.8,3.3-12.2,14-12.8,20.1c0,0.5-0.4,0.8-0.9,0.9
		c-0.5,0.1-0.9-0.2-1.1-0.6c-0.8-2.2-1.8-4.1-2.8-5.5c0-0.1-0.1-0.1-0.1-0.2c-0.2-0.5-0.4-0.9-0.7-1.4c-4.2-8.7-14.7-7.9-22.4-7.4
		c-1.7,0.1-3.4,0.3-4.7,0.3c-5.3,0-6.4,3-7.3,5.6c-0.4,1.3-0.9,2.4-1.7,3.2c-1,0.9-1.4,2.5-0.9,4.7c0,0.1,0,0.2,0,0.3
		c-0.3,2-0.4,4.5-0.4,7.1c0,0.5-0.4,0.9-0.9,1c-0.5,0.1-1-0.3-1.1-0.8c-1.6-6.6-8.3-8.1-11.9-8.9c-3.8-0.9-6.5,1-9.7,3.3
		c-1.9,1.4-4.1,2.9-7,4.1c-2,0.9-3.6,1.9-4.7,3.2c-3.2,3.7-4.6,7.9-4.5,14.2c0,0.3-0.1,0.6-0.4,0.8c-0.3,0.2-0.6,0.2-0.9,0.1
		c-3.9-1.2-7.4-1.4-10.9-0.7c-3.2,0.7-5.1,1.6-5.9,2.6c-0.1,0.1-0.2,0.2-0.3,0.2c-6,8.6-40.7,79.5-49.3,114.4
		C45.3,174,43,178.7,41.2,182c-0.9,1.8-1.7,3.3-2.2,5.2c-0.9,3.5-0.8,6.7-0.6,9.6c0.1,2.9,0.2,5.5-0.8,7.5
		c-2.3,4.4-3.1,8.5-3.1,16.2c0,7.9,3.9,23.3,7.1,27.8c1.8,2.6,1.7,4.7,1.5,7c-0.1,1.5-0.3,3.2,0.1,5.1c1,4.9,9.3,32.3,15.3,44.5
		c6,12.1,12.4,13.5,18.1,14.8l0.4,0.1c2.8,0.6,7.9,4.7,13.4,9.2c0.2,0.2,0.3,0.4,0.4,0.7c0,0.3-0.1,0.5-0.2,0.7
		c-0.6,0.7-1.2,1.3-1.7,1.9c-1.6,1.6-3.4,3.5-5.2,5.4c-14.2,14.8-33.7,35-56.2,40.3c-3.1,0.7-22.9,15.5-24.3,17
		c-0.9,1.1-2.7,3-2,4.4c0.3,0.5,1.1,1.3,4.5,0.8c28.1-4.2,47.3-15.8,58.5-24.8c14-11.2,27.3-24.7,36.6-37.1c0.3-0.4,0.9-0.5,1.4-0.2
		c1.1,0.7,2,1.2,2.8,1.7c1,0.5,2.2,1.2,3.6,2c9.1,5.1,26.1,14.6,60.9,19.8c14.7,2.2,34.9,5.1,39.4,6.5c6.1,1.8,18.9,3.8,34.8,3.5
		c8.8-0.2,21.1,0.5,33,1.1l0.2,0c12.2,0.6,24.8,1.3,34.1,1.1c8.7-0.2,19.1-2.2,28.2-4.2c0.4-0.1,0.8,0.1,1,0.4
		c2.3,3.5,4.4,6.6,6.2,9.4c8.3,13,13.9,21.5,24.4,25.7c7.7,3.1,11.1,3.7,13.1,4.1c1.5,0.3,2.3,0.4,3.6,1.3
		c2.8,1.8,10.6,1.2,23.1-0.1c1.6-0.2,3.2-0.3,4.8-0.5c1-0.1,2.2-0.1,3.5-0.1c12.1,0,35.5,4,44.8,5.6l0.3,0c1.3,0.2,2.4,0.4,3.1,0.5
		c2.9,0.5,14.6,1.2,22.9,1.2c0,0,0,0,0,0c6.3,0,7.4-0.5,7.6-0.5c0.1-0.1,0.4-0.4,1-1c2.7-2.7,10.9-11,17.3-12.4
		c3.1-0.7,4.5-1.4,4.4-2.4c-0.1-1-2.1-2.1-7.3-2.2c-1,0-2.3-0.1-3.9-0.1c-8.1-0.2-22.9-0.5-31.5-1.6c-3.6-0.5-6.2-1-8.8-1.6
		c-4.8-1-9.4-2-17.9-1.8c-5.8,0.1-11.6,1.1-17.1,2.1c-7,1.2-14.1,2.4-21.8,2.1c-1.5-0.1-2.9-0.1-4.5-0.1l-0.2,0
		c-13.5-0.2-28.8-0.5-41.8-17.4c-3.3-4.3-6.2-8.7-8.9-13.2c-0.2-0.3-0.2-0.6,0-0.9s0.4-0.5,0.7-0.6c3.2-0.6,5.4-0.9,6.8-0.8
		c9.3,0.4,39.5-1.9,68.2-11.7c24.7-8.4,40.5-17.7,44-20.6c0.8-0.6,2.7-1.5,5.7-2.8c8.4-3.6,22.6-9.5,27.7-20.7l1.7-3.8
		c5.5-12,8.1-17.5,9.3-23c0.6-2.6,2-6.3,3.6-10.3c2-5,4-10.2,4.3-13.3l0-0.3c1.6-17.7-0.8-33.2-7.3-45.9
		C518.4,207.1,494.7,160.2,487.9,152.4z"/>
</g>
<g id="lines">
	<path class="st1" d="M522,212c-2.7-5.3-26.5-52.4-33.4-60.3c-3.6-4.1-7.7-14.9-10.7-22.8c-1.5-3.9-2.6-6.9-3.5-8.5
		c-0.8-1.6-3.1-6.5-5.7-12.2c-5-11-11.2-24.6-13.9-29.3c0.1-3.7-0.1-6.7-0.6-8.1c-0.8-2.3-2.6-3.8-5.1-4.8
		c-2.8-7.9-4.8-15.7-4.6-17.8c0.2-3.4,0.5-14.3-5.7-17.8c-0.2-0.2-0.4-0.3-0.7-0.4c-0.1,0-0.2-0.1-0.2-0.1c-4.3-1.8-11.9,1.8-18,4.7
		c-2.2,1-4.9,2.3-5.6,2.4c-1-0.1-2.2-0.1-3.6,0c-3.2-9.2-7.6-15.2-11.4-19.4c-0.2-0.6-0.7-1.4-2-1.9c-3.3-1.2-13-0.9-24.9,5.2
		c-6.7,3.5-11.5,5.3-14.5,6.1c0.1-5.8-1.6-13.5-3.1-17.6c0.1-0.9-0.1-1.7-0.5-2.4c-2.1-3.2-10.1-9.1-20-6.3
		c-0.7,0.2-1.5,0.4-2.3,0.7c-9.6,2.7-24.2,6.7-29,19.8c-0.7,2-1.1,4.1-1.2,6.4h0c0,0,0,0,0,0c0,0.8,0,1.5,0,2.3c0,0.2,0,0.4,0,0.7
		c-0.2,13.1-0.1,27,1.5,33c0,0,0,0,0,0c-1.8-4.6-7.2-18.1-10.9-21.3c-2.1-1.9-7.4-8-10.9-24.7c-2.7-13.2-8.1-14.3-14.4-15.5
		c-0.8-0.2-1.6-0.3-2.4-0.5C257-0.2,254.3,5.4,253,8.1c-0.1,0.2-0.2,0.4-0.3,0.6c-0.3,0.7-1.2,2.5-1.8,4.8c-1.2,3-2.4,7.1-2.8,10.4
		c-2.1-3.4-4.6-7.3-7.1-9.9c-1.9-4-5-7.5-9.2-10c-5.6-3.4-12.2-4.6-17.8-3.2c-1.3,0.3-2.4,0.8-3.3,1.4c-9.6,3.2-12.7,13.2-13.5,21
		c-1-2.7-2.1-4.6-3-5.7c-0.2-0.5-0.4-1-0.7-1.5c-4.5-9.3-15.4-8.5-23.4-7.9c-1.7,0.1-3.3,0.2-4.7,0.2c-6,0-7.3,3.6-8.2,6.3
		c-0.4,1.2-0.8,2.2-1.4,2.8c-1.5,1.3-1.7,3.3-1.3,5.6c-0.3,2.1-0.4,4.6-0.4,7.2c-1.8-7.2-8.9-8.8-12.7-9.7c-4.2-1-7.3,1.2-10.5,3.4
		c-1.9,1.3-4.1,2.9-6.8,4c-2.3,1-3.9,2.2-5,3.5l0,0c-3.4,3.8-4.8,8.2-4.7,14.8c-3.7-1.2-7.5-1.6-11.4-0.7c-3.4,0.8-5.5,1.7-6.5,3
		l-0.1,0c-5.4,7.2-40.9,79.6-49.7,115.1c-2.5,10.2-4.9,14.8-6.6,18.1c-0.9,1.8-1.8,3.4-2.3,5.4c-1,3.6-0.8,7-0.7,9.9
		c0.1,2.8,0.2,5.2-0.7,7c-2.4,4.6-3.2,8.8-3.2,16.7c0,8.3,3.9,23.6,7.3,28.4c1.6,2.3,1.5,4.1,1.3,6.4c-0.1,1.6-0.3,3.3,0.1,5.4
		c1,4.9,9.3,32.5,15.4,44.7c6.2,12.5,12.9,14,18.8,15.4l0.4,0.1c2.6,0.6,8,4.9,13,9c-0.6,0.6-1.1,1.2-1.7,1.8
		c-1.6,1.6-3.4,3.5-5.2,5.4c-14.2,14.7-33.5,34.8-55.7,40c-3.4,0.8-23.4,15.7-24.8,17.3c-1.1,1.2-3.2,3.6-2.1,5.5
		c0.6,1.1,1.9,1.5,3.3,1.5c0.7,0,1.5-0.1,2.2-0.2c28.3-4.2,47.7-15.9,59-25c13.1-10.5,26.8-23.9,36.8-37.2c1.1,0.7,2,1.3,2.9,1.7
		c1,0.5,2.2,1.2,3.6,1.9c9.2,5.1,26.3,14.7,61.2,19.9c14.7,2.2,34.8,5.1,39.3,6.5c6.2,1.8,19.1,3.9,35.1,3.6
		c8.8-0.2,21.2,0.5,33.2,1.1c10.9,0.6,22.1,1.1,31,1.1c1.1,0,2.2,0,3.2,0c8.6-0.2,19.1-2.2,28.4-4.2c2.3,3.4,4.3,6.6,6.2,9.4
		c8.5,13.1,14,21.8,24.8,26.1c7.8,3.1,11.2,3.8,13.3,4.2c1.5,0.3,2.1,0.4,3.3,1.2c3.2,2.1,11.1,1.4,23.7,0.1
		c1.6-0.2,3.2-0.3,4.8-0.5c10.3-1,37.7,3.7,48,5.4c1.4,0.2,2.6,0.4,3.4,0.6c3,0.5,14.8,1.3,23,1.3c4.2,0,7.5-0.2,8.2-0.8
		c0.2-0.2,0.5-0.4,1.1-1.1c2.6-2.7,10.7-10.8,16.8-12.1c2.8-0.6,5.4-1.5,5.2-3.5c-0.2-2.4-4.6-3-8.3-3.1c-1,0-2.4-0.1-4-0.1
		c-8-0.2-22.8-0.5-31.3-1.6c-3.5-0.5-6.2-1-8.8-1.6c-4.9-1-9.4-2-18.1-1.8c-5.9,0.2-11.7,1.1-17.3,2.1c-6.9,1.2-14,2.4-21.6,2.1
		c-1.5-0.1-3.1-0.1-4.7-0.1c-13.3-0.2-28.4-0.5-41-17c-3.4-4.4-6.3-8.8-8.8-13.1c2.4-0.4,5-0.9,6.5-0.8c9.4,0.4,39.7-1.9,68.6-11.7
		c24.8-8.4,40.8-17.8,44.3-20.8c0.7-0.6,3-1.6,5.5-2.6c8.6-3.6,22.9-9.7,28.2-21.2l1.7-3.8c5.6-12.1,8.1-17.6,9.4-23.2
		c0.6-2.5,2-6.2,3.5-10.1c2-5.1,4-10.3,4.3-13.6l0-0.3C531,240.6,528.6,224.9,522,212z M445.8,64.7c-2-0.5-4.1-0.9-6.4-1.4l-1.7-0.3
		c-6.6-1.3-14.8,0-19.3,1.3l0-0.5c-0.1-3.5-1-5.9-2.8-7.5c-1.8-1.7-4.4-2.2-7.3-2.3c0.1-0.1,0.2-0.2,0.3-0.3
		c5.4-5.3,14.3-14.1,26.8-15.8c2.5-0.3,3.7-1.4,4.3-2.4c1.8,3.2,2.2,8.3,1.9,12.5C441.5,50.9,443.8,58.9,445.8,64.7z M384.8,60.5
		c-0.4,0.1-0.8,0.2-1.1,0.4c-1.9,1.1-23.4,6.2-26.8,6.4c-0.1-1-0.6-1.7-1.4-2l0.1-0.1c0,0-0.4-0.4-1-0.9c0.4,0,0.8,0,1.2,0
		c1.3,0,2.7-0.1,4.3-0.4c8.9-1.3,36.6-14.4,41.3-17.1c3.2-1.9,10.7-3.8,15.7-4.5c-4.4,3.1-7.9,6.6-10.6,9.2c-1,1-1.9,1.8-2.6,2.5
		C396.2,54.6,387.3,59,384.8,60.5z M253.3,157.2c4.4,0,9.3,0.8,14.1,3.2c4.3,2.1,5.5,4.9,5.7,6.8C265.9,164.2,258.1,160,253.3,157.2
		z M268.7,157.7c-8.6-4.3-17.1-3.9-23.8-2.8c-0.7-0.9-2.1-1.9-3.8-3c-0.9-0.6-2-1.4-3.1-2.2c9.6-13.9,28.5-10.1,36.5-5.9
		c7.3,3.9,8.8,16.9,9.5,23.1c0.1,1.1,0.3,2.4,0.6,4c-2.4-0.3-5.3-1.2-8.4-2.4C276.2,165.6,275.2,160.9,268.7,157.7z M237.9,169.2
		c0.3-0.5,0.7-1,1-1.5c0.7,0.6,1.5,1.2,2.3,2c6.6,5.5,19.1,16.1,25.7,23.9c-1.5,0.4-4.1,1-7.3,1.4c-3.6,0.4-5.7-0.9-8-2.2
		c-0.8-0.5-1.5-0.9-2.4-1.3c-2.5-1.2-5.2-0.7-6.9-0.3c0,0-0.1,0-0.1,0c0-0.5,0-1,0.1-1.6C242.7,184.5,243.1,175.2,237.9,169.2z
		 M235.3,173.2c0.3-0.5,0.6-0.9,0.8-1.4c2.9,3.8,3.4,9.2,3.4,13.6c-2.1-0.7-5.9-2.5-10.5-5.3c0.3-0.1,0.6-0.3,0.9-0.5
		C232.6,177.9,234,175.5,235.3,173.2z M237.3,164.8l-0.8,0.8c0,0,0.1,0.1,0.2,0.1c-0.6,1-1.3,1.9-1.9,2.7c-0.8,1-1.4,2.2-2,3.2
		c-1.2,2.1-2.4,4.1-4.4,5.4c-3.5,2.2-9.5-4-14.9-10.3c-6.4-7.6-12.2-18.3-11.7-21.5c0-0.1,0.1-0.3,0.1-0.4c1.8-1.1,6-4.4,10.9-8.3
		c3.7-2.9,7.8-6.2,11.1-8.6c-0.4,5.5,1.6,13.9,5.9,18.6c3.1,3.4,6.8,5.9,9.4,7.7c1.1,0.7,2.3,1.6,2.9,2.1
		C240.7,159.2,239,162.2,237.3,164.8z M127.9,244.7c-1.5-8.3-2.6-17.2-3.5-27.7c2.5-0.2,4.8-0.8,6.6-1.7c2-1,5.5-3.2,9.5-5.7
		c4.4-2.7,10.7-6.7,15-8.9c-3.9,5.2-7.5,9.8-9.4,12C141.5,218.1,135.3,229.1,127.9,244.7z M159,196.1c-3.3,0.7-10.2,4.8-20.1,11
		c-4,2.5-7.4,4.6-9.3,5.6c-5.3,2.7-16.2,1.4-18.7-1.5c-2.8-3.2-8.7-10.6-15.8-19.8c-3.9-5.1-5.1-13.3-5.1-20
		c0.2,0.3,0.5,0.6,0.7,0.7c0.3,0.6,0.7,2.9,0.9,4.5c0.7,4.8,1.3,8,3.2,9c0.3,0.2,0.9,1.2,1.4,2c2.7,4.4,7.8,12.5,22.8,12.5
		c18.8,0,36.9-19.5,39.7-23.4c2.2-3.1,25.2-24.3,40.7-23.9c-0.8,0.6-1.7,1.4-2.7,2.2c-10.4,8.5-21.6,18-24.3,22.1
		C170.7,180.2,164.9,188.3,159,196.1z M155.6,129.9c1.8,0,4.6-1.2,8.9-3.1c4.6-2.1,10.3-4.6,13.4-4.4c3.8,0.3,6.4-0.6,10.1-1.8
		c2.6-0.9,5.7-1.9,10.4-3c7.8-1.7,12.3,6.1,15,10.7c0.7,1.2,1.2,2,1.7,2.7c-1.4,1.1-2.8,2.2-4.1,3.2c-4.6,3.6-9,7.1-10.6,8
		c-0.4,0.2-0.8,0.6-1.1,1.2c-3.5-0.7-8.9,0.9-14.1,2.5c-2,0.6-4,1.2-5.6,1.6c-1.6,0.4-3.9,1.1-6.9,2.1c-8.7,2.8-23.3,7.6-31.7,6.1
		c-11.9-2.1-27,0.6-32.2,3.3c-4.2,2.2-11,8.8-14.8,12.9c-0.3-0.9-0.6-1.6-1.1-2c0,0-2.1-1.9-2.1-5.7c0-3.8,2.3-10.1,12.8-18.5
		C122.9,130.3,152.3,129.9,155.6,129.9z M120.5,197.1c-0.5,0-0.9,0-1.4,0c-13.3,0-17.7-6.9-20.3-11.1c-0.9-1.5-1.6-2.5-2.5-3
		c-0.8-0.6-1.4-4.8-1.6-6.8c0-0.2-0.1-0.4-0.1-0.6c2.9-3.6,11.3-11.8,15.5-14c2.7-1.4,8.5-2.8,15.1-3.4c-1,5.5-2.1,11.5-3.1,16.6
		C120.9,180.5,120.4,188.2,120.5,197.1z M123.5,196.7c0-8.6,0.5-15.9,1.5-21.2c1.1-5.4,2.2-11.6,3.2-17.4c4.1-0.2,8.3,0,12.1,0.6
		c9.2,1.6,23.6-3.1,33.2-6.2c2.8-0.9,5.2-1.7,6.7-2c1.7-0.4,3.7-1,5.8-1.7c4.4-1.3,10.2-3.1,12.8-2.4c0.1,1,0.4,2.2,0.9,3.5
		c-17.6-0.5-41.9,23.2-43.3,25.1C154.1,178.1,139.2,194.1,123.5,196.7z M227,127.6c0.2-1.6,0.6-2.2,0.8-2.3c1.5-1,5,2.8,6.6,4.4
		c-0.8,0.3-1.6,0.5-2.4,0.8c-1.9,0.6-3.6,1.2-4.9,1.6C226.9,130.4,226.9,128.8,227,127.6z M233.3,145.7c-0.4-0.4-0.8-0.8-1.2-1.2
		c-2.2-2.4-3.7-6-4.5-9.4c1.3-0.4,3.2-1,5.3-1.8c6-2,17.3-5.8,19.1-5.8c0.5,0,1.3,0.1,2.1,0.2C247.2,132.5,236.9,141.9,233.3,145.7z
		 M285.6,158c1.2,2.4,2.2,5,3.2,7.6c2.4,6.2,4.9,12.6,10.3,17.9c9.7,9.4,34.4,39.1,41.9,49.8c-9.9,2.4-23.5,2.2-33.3-13.9
		c-14.4-23.6-19.9-44.9-20.8-52.9C286.6,164.2,286.3,161.2,285.6,158z M360.4,215.5c-1.6,7.6-6,13-8.6,13.9
		c-0.4,0.2-0.8,0.3-1.4,0.5c-1.6,0.7-3.8,1.5-6.4,2.3c-2.3-3.3-6.7-9-11.9-15.5c3.2-10.9,5.5-19.2,7.3-26.3
		c7.1,6.4,17.7,14.2,21.3,16.3C361.2,210.2,360.9,213.4,360.4,215.5z M329.8,214c-10.1-12.4-22.4-26.7-28.6-32.7
		c-4.9-4.8-7.2-10.6-9.6-16.8c-1.2-3-2.4-6.1-3.9-9.1c15.7,1.8,41.2,23.4,46.3,29.6c0.7,0.9,1.7,2,2.9,3.1
		C335.1,195.2,332.9,203.3,329.8,214z M351.6,232.8c0.5-0.2,0.9-0.4,1.3-0.5c4.2-1.6,8.8-8.7,10.4-16.1c0.9-3.9,0.9-7.7,0.1-11.3
		c3.8,5.7,5.2,12.1,5.4,14.6c0.1,1,0.6,9.8-4.1,15.1c-2.2,2.5-5.3,3.9-9.3,4.1c-7.4,0.4-13.6-0.4-19-1.6
		C343,236.2,348.5,234,351.6,232.8z M359.6,202.5c-6.3-4.3-19.2-14.2-23.4-19.4c-4.8-6-33.2-30.6-50.4-30.9c-1.2-2-2.7-3.9-4.5-5.8
		c-1.4-2.3-3.3-4.3-5.6-5.5c-7-3.7-21.8-7.1-33-0.2c5.6-5,12.6-10.8,16.3-12.5c3.3,0.3,6.9,0.3,10-0.8c4.4-1.6,4.7-1.5,8.7-0.5
		c0.6,0.2,1.3,0.3,2.1,0.5c1.1,0.3,2,0.5,2.8,0.7c4.2,1.1,6.7,1.7,16.4,2.7c11.6,1.2,34.8,21.2,35.2,25.7
		c0.6,6.5,7.4,25.2,20.7,38.8C357.3,197.7,358.7,200.1,359.6,202.5z M341.3,169.1c-2.5-5.7-3.8-10.4-3.9-12.7
		c-0.6-7-25.9-27.2-37.8-28.4c-9.4-1-11.9-1.6-15.9-2.6c-0.9-0.2-1.8-0.5-2.9-0.7c-0.8-0.2-1.5-0.4-2.1-0.5
		c-4.5-1.1-5.4-1.3-10.5,0.6c-3.7,1.3-8.7,0.7-12.4,0.2c-1.4-0.2-2.7-0.3-3.6-0.3c-1.8,0-7.2,1.7-14.6,4.1c-0.2-0.2-0.5-0.5-0.8-0.8
		c-2.6-2.8-6.9-7.5-10.6-5.1c-2.2,1.4-5.3,3.8-8.7,6.4c-0.4-0.5-0.9-1.4-1.5-2.4c-2.9-5-8.4-14.3-18.3-12.1c-4.8,1.1-8,2.2-10.7,3.1
		c-3.6,1.2-5.7,1.9-8.9,1.7c-3.9-0.3-9.7,2.3-14.9,4.6c-3.2,1.4-6.5,2.9-7.7,2.9c-1.8,0-11.6,0.1-23.3,2.8c0.1-1.3,0.1-2.4,0.1-3.2
		c-0.4-9.1,0.8-49.1,3.2-52.9c5.5-3.3,11.7-4.6,18.1-4.8c0.8,0,1.7,0,2.4,0c0.4,0,0.7,0,1.1,0c12.2,0.5,24.1,4.9,31.3,7.5
		c1.7,0.6,3.2,1.1,4.3,1.5c2,0.6,4.4,1.6,7.3,2.7c9.6,3.7,22.8,8.8,35.7,8.8c14.1,0,38-12.6,42-15.3c3.9-2.6,11.1-4.2,15-2.2
		l0.7,0.4l0.7-0.4c0.5-0.3,1.1-0.7,1.7-1c3.5-2.2,8.4-5.3,15.4-5.3c9.1,0,14.1,3.1,15.5,9.7c0.3,1.1,0.7,3,1.3,5.5
		c3.7,14.9,13.5,54.5,13.5,79.5c0,0.6,0,1.3,0,2.1C341.6,164.3,341.7,166.8,341.3,169.1z M111.3,61.3c-2.7-2.6-7.4-8.2-8.3-9.5
		c0.5-0.6,2.8-1.5,5.5-0.6c0.5,0.2,1.1,0.3,1.7,0.5c3.7,1,8.6,2.4,13.4,8.6c-0.4-0.3-0.7-0.5-0.9-0.6c-0.3-0.2-3.1-2.1-6.8-1.2
		C114.3,58.8,112.7,59.8,111.3,61.3z M163.7,66.4c0.1-0.2,0.2-0.4,0.2-0.7c0.5,0.3,0.9,0.6,1.4,0.9
		C164.7,66.6,164.2,66.5,163.7,66.4z M191,56.1c0.8,1,1.6,2,2.6,2.9l0,0c1.3,1.9-0.6,7.8-1.9,11.7c-0.4,1.2-0.7,2.2-1,3.1
		c-0.4-0.1-0.8-0.3-1.2-0.4c-2.9-1.1-6.7-2.4-10.9-3.7c0.8-0.4,1.4-0.9,2-1.4c0.7-0.5,1.2-1,2-1.2l0.8-0.2c3.2-1,8.1-2.5,8.1-5.5
		C191.6,60.3,191.4,58.4,191,56.1z M242.5,56c9,8.5,20.3,6.3,21.5,6c2.1-0.5,6.1-2,7.6-6.6c0.3,2.4,0.3,5.3,0,9
		c-0.5,5.5-0.7,8.4-0.6,9.9c-8.5,4.5-25,11.9-35.3,11.9c-1.8,0-3.7-0.1-5.6-0.3c0.2-4.4,3.7-12.8,5.6-17.5
		c2.8-6.6-0.9-14.5-3.5-20.2l-0.1-0.3l0,0c-3.4-8-12-19.9-14-22c-2.2-2.2-6.2-8.7-6.1-12.7c0.1-2.7,0.9-2.8,1.3-2.9
		c0.3,0,0.6-0.1,0.8-0.3c0.4-0.3,0.5-0.8,0.5-1.5c0.1-1.1,0.3-2.1,0.8-2.2c1.7-0.1,2.8,0.1,5.2,1.8c1.5,1,3,1,4.4,0.9
		c1.4,0,2.7-0.1,4,0.8c0.4,0.3,0.7,0.5,1.2,0.8c3,2,6.8,4.5,6.7,11.6c0,1.4-0.1,3-0.2,4.8C236.3,36.6,235.7,49.6,242.5,56z
		 M272.7,31.5c3.1,5.2,7.4,8.3,10.9,10.8c1.9,1.3,3.5,2.5,4.4,3.6c2.9,3.7,7.9,16.7,8.6,20.6c-0.9,0.5-1.7,1-2.5,1.5
		c-0.3,0.2-0.6,0.4-0.9,0.6c-5.6-2.2-13.5,0.3-17.2,2.8c-0.6,0.4-1.6,1-3.1,1.8c0-1.4,0.2-4,0.6-8.6c0.9-9.1-0.7-13.9-1.8-17.5
		c-0.1-0.2-0.1-0.4-0.2-0.7c-1.5-6.1-5.7-11.5-8.7-15.5c-1.9-2.4-3.5-4.5-3.7-5.8c-0.1-0.6-0.2-1.3-0.4-2c-0.6-3.4-1.3-7.2-0.2-10
		c1-2.6,1.7-3.8,2.1-4.3c0.8,1.5,1.8,1.3,2.8,1c0.4-0.1,0.8-0.3,1.3-0.3c0.5,0,0.9-0.1,1.5-0.2c2-0.4,4-0.8,5.6,1.9
		c0.8,1.4,0.4,3.7-0.2,6.3C270.9,21.6,269.9,26.6,272.7,31.5z M233.3,55.8c1.4,4,2.1,8.2,0.6,11.8c-2.8,6.7-5.6,13.6-5.8,18
		c-9.9-1.4-19.6-5.1-27.1-8c-2.9-1.1-5.4-2.1-7.4-2.7c-0.3-0.1-0.7-0.2-1-0.3c0.3-0.9,0.6-2,1-3.2c1.1-3.5,2.4-7.3,2.4-10.2
		c0.4,0.4,0.9,0.7,1.4,1.1c10.3,7.5,19.9,4.9,24.5,3.7c0.7-0.2,1.4-0.4,1.9-0.5c2.4-0.4,5.8-2.6,7.9-5.9
		C232.5,58.4,233,57.1,233.3,55.8z M329.7,74.4c-1-4.7-3.5-7.9-7.4-9.9c-0.9-1.8-2.2-4.2-3.5-6.5c-1.7-3-3.4-6.1-3.9-7.5
		c-0.4-1.1-0.9-2.6-1.4-4c-1-2.9-1.6-4.7-2.2-5.4c-0.4-0.5-1-2.1-0.9-3.7c0,0.3,0.1,0.6,0.2,0.9c0.4,1.3,1.3,2.2,2.8,2.8
		c4.3,1.6,9.5-0.6,14-2.6c2.4-1.1,4.7-2.1,6.5-2.3c1.5-0.2,2.7-0.4,3.8-0.6c2.6-0.5,4.7-0.9,10-0.3c5.9,0.7,19.2-4.8,28-8.4
		c3-1.2,5.4-2.2,6.5-2.5c0.5-0.1,0.9-0.3,1.4-0.4c3.4-1,7.1-2.2,9.9-1.6c-0.3,0.3-0.7,0.6-1.1,0.9c-0.4,0.3-1.4,1-2.9,2.1
		c-9.1,6.5-16.1,11.9-21.4,16.2c-5.5,2.7-17.9,10.5-19.4,15.2c-0.5,1.5-0.5,2.8-0.2,3.9l0,0c0,0,0,0,0,0c0.2,0.6,0.4,1.1,0.8,1.5
		c0.4,0.5,0.9,0.9,1.6,1.2c0.6,0.6,1.2,1.2,1.7,1.7c-4.9,1-18.1,7.1-22.8,9.3C329.7,74.5,329.7,74.4,329.7,74.4z M313.3,19.9
		c2-1.6,3.1-3.3,3.9-4.7c0.6-1,1.2-1.9,1.9-2.4c0.5-0.3,0.8-0.5,1.2-0.5c0.3,0,0.7,0.1,1.2,0.2c0.6,0.2,1.4,0.4,2.4,0.4
		c2.1,0,4.2-1.6,6-3c0.5-0.4,1.1-0.8,1.6-1.2c2.1-1.5,5.5-2.3,7.5-1.3c1.5,0.8,3.1,0.6,4.6,0.5c1.2-0.1,2.2-0.2,2.7,0.2
		c0.4,0.4,0.5,1.2,0.3,2c-0.4,1.2-1.5,2.6-3.5,2.9c-4.2,0.7-9.9,2.7-12.2,5.3c-0.9,1-4.6,2.7-7.5,4.1c-4.5,2.1-7,3.3-7.7,4.4
		c-0.2,0.3-0.5,0.6-0.8,1.1c-0.8,1.1-1.7,2.2-2.4,3.4c-0.1-0.7-0.3-1.4-0.6-2.2c-0.3-0.9-0.6-1.8-0.7-3
		C310.5,22.8,310.4,22.2,313.3,19.9z M414.2,39.8c1.3,0.2,3.1-0.7,7.2-2.6c5-2.4,12.5-5.9,15.6-4.6c0.1,0.1,0.3,0.1,0.4,0.2
		c0.1,0.1,0.2,0.4,0.1,0.8c-0.2,0.7-1.1,1.1-2.3,1.3c-5.5,0.8-10.3,2.7-14.4,5.2c-4.6,0-16.1,2.6-20.3,5.1
		c-4.5,2.7-32.1,15.6-40.6,16.9c-3.5,0.5-6.1,0.4-7.7-0.2c-0.6-0.7-1.3-1.3-1.7-1.9c-0.1-0.7-0.1-1.5,0.2-2.5
		c0.7-2.1,4.9-5.7,9.5-8.7c-3.4,3.3-4.9,5.7-4.9,7.3c0,0.9,0.4,1.6,1.1,2.1c6.7,4.5,33.9-9.1,40.3-12.8
		C407.3,39.1,413.5,39.8,414.2,39.8z M394.9,42.7c-12.1,6.9-32.6,15.2-36.9,13c0.3-1.8,5.4-7.9,33.1-27.9c1.5-1.1,2.5-1.8,3-2.2
		c1.7-1.3,3.5-3,4.6-4.6c2.8,3.3,6.5,8.5,9.2,16.3C404.4,38.2,399.9,39.9,394.9,42.7z M356.2,27.5c-0.6,0.1-1.1,0.2-1.3,0.2
		c-1.1,0-1.9,0.5-2.7,1c-0.8,0.5-1.5,0.9-2.6,1c-0.6,0-2.1-0.2-3.8-0.5c-4.8-0.9-11.3-2.1-15.6,0c-1.6,0.8-3.2,1.6-4.6,2.4
		c-1.7,0.9-3.7,2-4.8,2.4c0.1-1.4,1.3-4.2,4.7-6.1c1.2-0.7,2.5-1.5,3.8-2.4c4.3-2.7,9.7-6.1,13.8-6.1c4.3,0,8.8-3.5,10.9-7
		C355.2,16.6,356.4,22.9,356.2,27.5z M333.1,4.3c0.8-0.2,1.6-0.4,2.4-0.7c8.5-2.4,15.2,2.9,16.7,5.1c0.1,0.1,0.1,0.8-0.7,2.1
		c-1.6,2.7-5.2,5.6-8.4,5.6c-4.9,0-10.7,3.7-15.4,6.6c-1.3,0.8-2.6,1.6-3.7,2.3c-4.6,2.6-5.8,6.5-6,7.6c-0.3,1.4-0.2,2.7,0.4,3.4
		c1.4,1.9,4,0.5,8.7-2c1.4-0.7,3-1.6,4.5-2.3c3.4-1.7,9.6-0.5,13.8,0.2c2.1,0.4,3.5,0.6,4.5,0.6c1.9-0.1,3.1-0.9,4-1.5
		c0.4-0.3,0.9-0.5,1.1-0.5c2,0,8.2-1.5,19.2-7.2c10.9-5.6,19.5-5.9,22.2-5.2c0.1,0.1,0.3,0.3,0.4,0.4c-0.2,0.5-0.7,1.2-1.6,2.2
		c-3.6-1.4-8.3,0-12.2,1.2c-0.5,0.1-1,0.3-1.4,0.4c-1.2,0.4-3.6,1.4-6.7,2.6c-8.1,3.3-21.7,8.9-27,8.2c-5.6-0.7-7.9-0.2-10.6,0.3
		c-1.1,0.2-2.2,0.4-3.7,0.6c-2,0.2-4.5,1.3-7,2.4c-4.2,1.8-9,3.9-12.5,2.6c-0.9-0.3-1.4-0.8-1.6-1.5c-0.7-2.3,2.5-6.5,4-8.5
		c0.4-0.5,0.7-1,0.9-1.3c0.5-0.7,4.3-2.5,6.9-3.7c3.6-1.7,7-3.3,8.2-4.5c1.7-1.9,6.6-3.9,11-4.6c3-0.5,4.6-2.5,5.1-4.3
		c0.5-1.6,0.2-3.2-0.8-4.1c-1.2-1.1-2.7-0.9-4.3-0.7c-1.2,0.1-2.5,0.3-3.4-0.2c-3.1-1.7-7.4-0.1-9.5,1.4c-0.5,0.4-1.1,0.8-1.6,1.2
		c-1.6,1.2-3.4,2.6-4.8,2.6c-0.7,0-1.3-0.2-1.9-0.3c-1.1-0.3-2.4-0.7-4.1,0.5c-1,0.8-1.7,1.8-2.4,3c-0.8,1.3-1.7,2.8-3.5,4.2
		c-3.8,3-3.6,4.5-3,8.3c0.2,1.3,0.5,2.3,0.8,3.3c0.6,1.9,0.8,2.8-0.2,3.8c-2.6,2.6-1.2,7.2-0.1,8.6c0.4,0.5,1.2,3,1.9,4.8
		c0.5,1.5,1,3,1.5,4.1c0.6,1.5,2.3,4.5,4,7.7c0.8,1.5,1.7,3.1,2.4,4.5c-0.4-0.1-0.9-0.2-1.3-0.3c-2-3-12.5-19.4-13.1-33
		c0-1.1,0-1.9,0-2.4c0.1-1.9,0.4-3.7,1-5.4C310.4,10.5,324,6.8,333.1,4.3z M305,43.9c2.8,7.8,6.8,14.9,9.2,18.6
		c-1-0.1-1.9-0.1-3-0.1c-1.7,0-3.3,0.2-4.7,0.4C305.4,59.2,305.1,51.3,305,43.9z M250.6,21.2c0.3,1.2,0.8,2.3,1.6,3.4
		c1.6,2.1,3.4,6,5.2,9.7c1.9,3.9,3.6,7.6,5.2,9.7c2.5,3.3,4.1,8.2,0.2,11.6c-0.1,0.1-0.3,0.2-0.4,0.3c-0.5-6.9-4.6-12.4-6.7-15.1
		c-0.3-0.4-0.5-0.7-0.7-1c-0.5-0.7-0.6-2.1-0.7-3.4c-0.1-1.8-0.3-3.6-1.4-4.7c-0.5-0.5-1.5-2.2-2.7-4.2c-0.1-0.1-0.1-0.2-0.2-0.3
		C249.7,25.9,250,23.6,250.6,21.2z M248.5,28.5c1.3,2.3,2.3,3.9,2.9,4.6c0.6,0.7,0.7,2.1,0.8,3.5c0.1,1.6,0.3,3.2,1.1,4.3
		c0.2,0.3,0.5,0.6,0.8,1c2,2.6,6,7.9,6.3,14.5c-1-0.2-2.1-1.2-3.8-3c-1.2-1.2-2.6-2.6-4.3-3.7c-3.6-2.4-6.1-14.2-8.1-23.7
		c-0.5-2.4-1-4.7-1.5-6.9C244.8,22.3,246.9,25.8,248.5,28.5z M207,6.3c0,0.1-0.1,0.1-0.1,0.2c-2.8,6-0.4,14.8,2.4,20.4
		c2.2,4.3,5.4,8.8,8.3,12.7c2.7,3.7,5.3,7.3,6.3,9.8c0.7,1.7,0.4,3.7-0.7,5.6c-1.8,3-5.3,5.1-9.2,5.4c-4.2,0.4-8.6-1.1-13.5-4.7
		c0.6-11.2-0.1-19.5-1.3-25.5C198.5,25.2,199.1,12.3,207,6.3z M194.4,29.7c0.6-1.1,1.2-2.4,1.4-4.3c1.8,5.6,3.4,14.6,2.7,28.8
		c-1.6-1.4-3.4-2.9-5.1-4.8c-4.1-4.2-2.3-9.4-0.8-13.6c0.6-1.7,1.1-3.1,1.1-4.2C193.7,31.1,194,30.5,194.4,29.7z M160.1,15.4
		c0.9-2.5,1.5-4.3,5.4-4.3c1.5,0,3.1-0.1,4.9-0.3c7.5-0.6,16.8-1.3,20.4,6.2c3.2,6.7,2,9,0.9,11.1c-0.5,1-1.1,2.1-1.1,3.4
		c0,0.6-0.4,1.9-0.9,3.2c-1.5,4.2-3.9,11.1,1.5,16.7c8.6,8.9,16,12.6,23.1,11.9c4.8-0.5,9.2-3.1,11.4-6.9c1.7-2.7,2-5.7,1-8.3
		c-1.1-2.9-3.7-6.4-6.7-10.5c-2.8-3.8-6-8.2-8-12.3c-2.7-5.5-4.5-13.1-2.4-17.8c1-2.1,2.6-3.4,5.1-4c4.8-1.2,10.6-0.1,15.5,2.8
		c4.8,2.9,8,7.2,9.2,12c0.6,2.5,1.2,5.3,1.8,8.2c2.3,11,4.7,22.4,9.3,25.5c1.4,1,2.7,2.2,3.9,3.4c2.8,2.8,6,5.9,10.3,2.2
		c5.2-4.4,3.8-11.1,0.2-15.7c-1.4-1.8-3.1-5.5-4.8-9.1c-1.8-3.9-3.7-7.8-5.5-10.2c-2.6-3.6-0.7-9.7,0.8-12.8
		c0.1-0.2,0.2-0.4,0.3-0.7c1.3-2.7,3-6.2,8.7-4.9c0.9,0.2,1.7,0.4,2.5,0.5c6,1.2,9.7,1.9,12,13.2c2.5,12.4,6.8,22,11.8,26.3
		c2.8,2.5,7.8,14.2,10,20c-0.8,0.3-1.5,0.7-2.2,1.1c-1.1-5-5.8-17-8.8-20.8c-1.1-1.4-2.8-2.6-4.8-4c-3.4-2.4-7.5-5.3-10.4-10.2
		c-2.5-4.3-1.6-8.6-0.8-12.5c0.6-3.1,1.2-5.7-0.1-7.8c-2.4-3.9-5.7-3.2-7.7-2.8c-0.4,0.1-0.9,0.2-1.2,0.2c-0.8,0-1.4,0.2-1.8,0.4
		c-0.1,0-0.3,0.1-0.4,0.1c0-0.1-0.1-0.2-0.2-0.4c-0.4-1.1-1.1-1.2-1.5-1.2c0,0,0,0,0,0c-1.1,0-2.1,1-4.1,6
		c-1.4,3.4-0.6,7.5,0.1,11.1c0.1,0.7,0.2,1.3,0.3,1.9c0.3,1.7,2,3.9,4.1,6.6c2.8,3.6,6.2,8,7.8,12.9c0.1,0.6,0.3,1.2,0.5,1.9
		c0,0.2,0.1,0.4,0.1,0.6c1.8,8.8-2.3,11.6-6.1,12.4c-1.1,0.3-11.4,2.3-19.7-5.5c-6.2-5.8-5.6-18.2-5.1-27.3c0.1-1.7,0.2-3.4,0.2-4.8
		c0.1-8.3-4.5-11.3-7.6-13.3c-0.4-0.3-0.8-0.5-1.1-0.7c-1.8-1.3-3.6-1.2-5.2-1.2c-1.3,0-2.3,0.1-3.2-0.6c-2.6-1.8-4.1-2.3-6.5-2.2
		c-2.3,0.1-2.6,2.8-2.7,4c0,0,0,0,0,0.1c-1.2,0.2-2.6,1.1-2.7,4.7c-0.1,4.8,4.3,11.8,6.7,14.2c2,2,10.4,13.8,13.6,21.4l0,0l0,0
		c0.4,1,0.7,1.9,1,2.7c0.8,3.1-0.2,5.5-1.2,7.1c-1.8,2.8-4.7,4.6-6.6,5c-0.6,0.1-1.2,0.3-2,0.5c-4.6,1.2-13.3,3.6-22.8-3.3
		c-12.4-9-12-22.1-12-22.2c0-0.8,0.5-1.9,0.9-2.9c0.9-2.1,2-4.6,0.2-6.5c-1.9-2-1.1-5.2,0.3-7.6c1.9-3.2-0.4-5.4-1.2-6.2
		c-0.1-0.1-0.2-0.2-0.3-0.3c-0.2-0.3-0.8-1-5-0.5c-2.2-0.4-4.5-1-4.9-1.4c-0.1-0.3-0.4-0.6-0.7-0.7c-0.9-0.5-2.1-0.1-3.7,0.5
		c-0.9,0.3-2,0.7-2.7,0.7c-2.3,0.1-2.4,2.2-2.5,3.4c0,0.3,0,0.6-0.1,0.9c-0.5,0.1-1.9-0.3-2.7-0.5c-0.9-0.2-1.7-0.4-2.4-0.5
		c-0.8-0.1-1.4,0.2-1.7,0.6c-0.6,0.8-0.2,1.7,0.2,2.8c0.2,0.4,0.3,0.8,0.5,1.3c0.5,1.6,2,2.2,3,2.6c0.2,0.1,0.5,0.2,0.7,0.3
		c0,0.2-0.1,0.4-0.1,0.6c-0.2,0.8-0.4,1.9,0.4,2.7c0.4,0.4,1.2,0.8,2.4,1.3c0.9,0.4,1.9,0.8,2.4,1.2c0.4,0.3,1.3,2.5,2,3.9
		c0.8,1.7,1.5,3.4,2.1,4.2c0.6,0.7,1.9,1.5,3.7,2.7c2.8,1.7,6.5,4,8.4,6.7c3,4.3,3.9,11.7,3.9,13.9c0,1.5-5.1,3-6.7,3.5
		c-0.3,0.1-0.6,0.2-0.8,0.3c-1.2,0.4-1.9,1-2.7,1.6c-1,0.8-1.9,1.5-3.6,1.7l0.1,0.4c-0.9-0.2-1.8-0.5-2.7-0.7
		c1.7-0.6,2.7-1.7,3.7-2.7c0.8-0.8,1.5-1.6,2.7-2.2c1.5-0.8,2.7-1,3.7-1.1c1.2-0.2,2.4-0.4,3.4-1.5c1.1-1.2,1.6-3.2,1.2-5.2
		c-0.4-2.6-2.1-4.9-4.8-6.4c-5.1-3-17.6-13.1-20.6-16.9c-3.7-4.9-6-11.3-4.5-12.6C159.1,18.4,159.6,16.9,160.1,15.4z M185.2,44.1
		c-2.1-2-4.8-3.6-6.9-4.9c-1.4-0.8-2.8-1.7-3.2-2.2c-0.5-0.7-1.2-2.3-1.9-3.8c-1.1-2.5-1.8-4.1-2.6-4.7c-0.7-0.5-1.8-1-2.9-1.4
		c-0.6-0.3-1.6-0.7-1.8-0.8c-0.1-0.1,0-0.6,0.1-1c0.1-0.4,0.2-0.8,0.2-1.3c0-1.1-1.1-1.5-1.9-1.9c-0.8-0.3-1.7-0.7-1.9-1.4
		c-0.2-0.5-0.3-1-0.5-1.4c-0.1-0.2-0.2-0.4-0.2-0.7c0.5,0.1,1.2,0.2,1.8,0.4c2.1,0.5,4,1,4.8-0.3c0.3-0.5,0.4-1.2,0.4-1.9
		c0.1-1.5,0.3-1.5,0.6-1.5c1-0.1,2.1-0.4,3.2-0.8c0.7-0.2,1.6-0.5,2.1-0.6c0.4,0.6,1.6,1.6,6.5,2.3l0.1,0l0.1,0
		c1.4-0.2,3-0.2,3.5-0.1c0.1,0.1,0.2,0.2,0.3,0.3c1,1,1.9,2.1,0.9,3.8c-2.2,3.8-2.2,7.6,0,9.9c0.8,0.9,0.3,2.3-0.6,4.4
		c-0.5,1.2-1,2.4-1.1,3.6C184.5,39.8,184.7,41.8,185.2,44.1z M160,33.9c3.3,4.3,15.9,14.5,21.4,17.7c2.4,1.4,3.1,3.1,3.3,4.3
		c0.2,1.3-0.2,2.4-0.5,2.7c-0.3,0.3-0.6,0.4-1.7,0.6c-1.1,0.2-2.6,0.4-4.6,1.4c-1.6,0.8-2.6,1.9-3.5,2.9c-1.1,1.2-1.9,2.1-3.9,2.1
		c-2,0.1-6.3-3-10.4-6.9c-0.2-0.2-0.3-0.4-0.5-0.5c0.3-1.5,0.8-5.8-1.4-12.5c-1.6-4.8-2.3-12.2-2.1-18.2
		C157.4,30.2,159,32.6,160,33.9z M152.8,43.5c0.6-2,1.3-4.4,1.6-7.7c0.4,4,1,7.7,1.9,10.5c1.6,4.7,1.7,8.2,1.5,10.1
		c-0.2-0.2-0.5-0.4-0.7-0.7c-1.2-1.2-2.2-2.5-3.2-3.7C151.3,48.6,151.8,47,152.8,43.5z M144.7,41.8c0.2,3.7,1.6,6.8,3,9
		c-3.3-1.2-13.1-3.9-15.2-4.3c-2-0.3-9.6-4.5-9.4-9c0.1-2.7,2.2-3.2,5.2-3.6c1.2-0.2,2.3-0.3,2.9-0.8c0.7-0.5,1.3-1.4,2-2.4
		c1.2-1.6,2.7-3.7,4.4-4c0.8-0.2,2-0.3,3.2-0.3c2.2,0,4.6,0.6,5.5,2.8c0.6,1.7,0.2,3-0.4,4.8C145.3,35.9,144.5,38.3,144.7,41.8z
		 M125.4,30.6c3-1.3,5.3-2.9,7.3-4.3c2.6-1.8,4.4-3.1,6.7-3.1c0.5,0,0.9,0.1,1.4,0.2c5.8,1.3,11.4,3.3,10.7,11.7
		c-0.3,3.3-1,5.5-1.6,7.6c-0.7,2.3-1.3,4.3-0.7,6.7c-1.2-1.9-2.3-4.6-2.5-7.6c-0.2-3.1,0.5-5.2,1.1-7c0.7-2,1.3-3.8,0.4-6.2
		c-1.9-5-8.3-4.3-11-3.8c-2.4,0.5-4.2,2.9-5.6,4.8c-0.6,0.8-1.2,1.6-1.6,2c-0.3,0.2-1.3,0.3-2,0.5c-2.5,0.4-6.7,1-6.9,5.5
		c-0.3,5.8,8.3,10.6,11.1,11c0.7,0.1,2.2,0.5,3.9,0.9c-7.3-1.5-14-3.7-14.8-6.2C119.3,37.3,119.3,33.2,125.4,30.6z M117.7,41.8
		c0.2,0.8,0.5,1.6,0.7,2.3c2.5,7.4,26.9,9.8,29.6,10c2.2,0.2,4.9,1.8,7.2,3.8c0.9,0.9,1.8,1.9,2.8,2.8c1.4,1.6,2.4,3.2,2.8,4.3
		c0,0,0,0.1,0,0.1c-0.5,0.4-2,0.6-3.8,0.6c-1.1,0-2.3-0.1-3.4,0c-1.2,0-2.4-0.1-3.3-0.1c-0.9,0-1.7-0.1-2.5-0.1
		c-3.8-0.2-8.9-4-14.4-8.1c-5-3.7-10.4-7.7-16-10.2C117.4,45.2,117.5,43.5,117.7,41.8z M103.8,48.4c9.7-2.2,19.4,5,27.9,11.4
		c4.1,3.1,7.8,5.8,11.3,7.4c-1.3,0.4-2.6,0.8-3.9,1.3c-1-0.1-2.3-0.2-3.8-0.8c-1.9-1.2-4.2-2.7-6.3-4.1c-0.8-0.8-1.5-1.7-2.2-2.8
		c-5.6-8.3-11.8-10-15.9-11.2c-0.6-0.2-1.2-0.3-1.7-0.5c-3.2-1-6.4-0.2-7.7,1.2c-0.5,0.6-0.7,1.3-0.4,1.9c0.6,1.3,6,7.6,8.9,10.4
		c-0.2,0.2-0.3,0.5-0.5,0.7c-3.2-3.1-9.3-10.1-10.3-11.9c-0.2-0.3-0.4-0.8-0.3-1.1C99,50.2,99.8,49.3,103.8,48.4z M45.1,255.5
		c0.2-2.5,0.4-5.1-1.8-8.3c-3-4.3-6.7-19-6.7-26.6c0-7.5,0.7-11.2,2.8-15.3c1.3-2.5,1.2-5.4,1-8.5c-0.1-2.7-0.3-5.8,0.6-9
		c0.4-1.6,1.1-2.9,2-4.8c1.8-3.5,4.2-8.2,6.8-18.7C58,131.2,88,69.5,96.9,53.6c1.9,2.7,7.9,9.7,11.1,12.5
		c-5.1,10.5-20.9,57.7-25.8,78.7c-1.7,7.1-3.3,12.2-4.6,16.3c-2.7,8.4-4.3,13.4-3.1,24.8c1.7,16.4-2.7,60.2-3.7,67.4
		c-0.3,2.1-1.6,4.6-3.1,7.4c-2.9,5.5-6.5,12.3-5.2,21.1c1.3,8.6-2.1,14.5-4.2,17.4c-5.6-13.3-12.2-35.1-13.1-39.3
		C44.8,258.4,44.9,257,45.1,255.5z M77.5,317.9l-0.4-0.1c-5.5-1.3-11.2-2.5-16.8-13.8c-0.2-0.5-0.5-1-0.7-1.5c0,0,0,0,0.1-0.1
		c1.8-2.4,7.3-9.6,5.7-20.9c-1.1-7.9,2.1-13.9,4.9-19.3c1.6-3.1,3.1-5.8,3.4-8.4c1.1-7.3,5.5-51.5,3.8-68.1
		c-1.1-10.8,0.3-15.4,2.9-23.6c1.3-4.1,3-9.3,4.6-16.5c4.9-21.1,20.9-68.8,25.8-78.4c1.7-3.3,3.7-5.3,5.9-5.8
		c2.4-0.6,4.3,0.7,4.4,0.8c1,0.7,8.8,5.9,13.4,8.7c-0.2,0.1-0.3,0.2-0.5,0.3c-1,0.6-2.8,1.7-4,26.1c-0.6,12.6-0.8,25.6-0.6,29.4
		c0,0.9,0,2.2-0.1,3.8c-9.2,2.4-19.2,6.4-27.6,13c-7.7,6.2-12.3,12.1-13.6,17.7l0,0c-1.5,5.2-2.3,23.1,4.7,32.2
		c7.1,9.2,13.1,16.6,15.9,19.9c2.1,2.5,7.4,3.9,12.7,4c1.1,12.3,2.4,22.5,4.3,31.9c0,0.1,0.1,0.1,0.1,0.2c-2.2,4.8-4.5,9.9-6.8,15.4
		c-4.3,10-7.6,19.2-10.6,27.3c-5.3,14.6-9.7,26.5-16.6,35.4C86.1,322.9,80.8,318.7,77.5,317.9z M62.9,373.9
		c-11,8.8-29.9,20.2-57.6,24.4c-1.1,0.2-1.8,0.2-2.2,0.1c0.2-0.4,0.6-1,1.5-2c1.4-1.5,20.7-15.7,23.2-16.4
		c23-5.4,43.6-26.8,57.2-40.9c1.8-1.9,3.6-3.7,5.2-5.4c9.6-9.7,14.6-23.4,20.9-40.7c2.9-8.1,6.3-17.2,10.5-27.1
		c14.2-33.2,22.4-46.2,26.8-51.3c5.2-6,23-30.2,26.6-35.8c2.6-4.1,16.3-15.4,23.6-21.4c1.2-1,2.3-1.9,3.1-2.6
		c2.5,4.9,6.2,10.2,9.3,13.8c1.5,1.8,3.1,3.6,4.7,5.2c-4,10-21.5,23.3-32.9,29.1c-11.1,5.7-32.8,25.7-42.2,39
		c-9.7,13.6-24,49-27.4,67.8C110.4,326,89.7,352.4,62.9,373.9z M311,371.7c-9.2,0.2-21.8-0.5-33.9-1.1c-12-0.6-24.5-1.2-33.4-1.1
		c-20.7,0.4-32.9-3-34.2-3.4c-4.7-1.4-24.1-4.2-39.7-6.5c-34.4-5.1-51.2-14.5-60.2-19.5c-1.4-0.8-2.6-1.5-3.7-2
		c-0.7-0.4-1.5-0.9-2.5-1.5c6.7-9.3,11.5-18.4,12.9-26.3c2-10.7,7.8-27.6,14.2-42.3c6.4,23.3,15,42,25.2,54.1
		c0.3,0.4,0.7,0.5,1.1,0.5c0.3,0,0.7-0.1,1-0.4c0.6-0.5,0.7-1.5,0.2-2.1c-10.4-12.4-19.2-31.9-25.5-56.5c0,0,0,0,0-0.1
		c3.8-8.2,7.6-15.4,10.8-20c9.2-12.9,30.4-32.5,41.1-38c8.6-4.4,28.2-17.6,33.8-29.6c1,0.9,2,1.7,3,2.4l0,0
		c6.3,4.4,14.1,8.9,18.2,10c0,0.4,0,0.7,0,1c-0.1,3-0.2,4.7,1.5,4.9c0.6,0.1,1.3-0.1,2.1-0.2c1.5-0.3,3.4-0.7,5.1,0.1
		c0.7,0.3,1.3,0.7,2.1,1.1c2,1.2,4.5,2.7,8.2,2.7c0.5,0,1.1,0,1.7-0.1c4.5-0.5,7.7-1.4,8.9-1.8c0.3,0.4,0.6,0.8,0.8,1.2l1,1.6
		c5.5,8.8,7.3,11.7,8.1,16.3c0.6,3.6,2.9,6,5,8.2c1.3,1.4,2.5,2.6,3.2,4c2.1,4.2,10.7,26.4,10.7,32.7c0,5.1,3.1,11.1,5.4,15.5
		c0.8,1.6,1.6,3,1.9,3.9c0.4,1.1,0.6,2.9,0.9,4.8c0.6,3.9,1.2,8.2,3.1,10.9c2.2,3,5,14.5,6.5,20.7c0.2,0.9,0.4,1.6,0.6,2.3
		c5.9,23.5,14.9,39.8,21.4,49.3c0.1,0.1,0.1,0.2,0.2,0.3C328.8,369.7,319,371.5,311,371.7z M407,399.8c1.6,0,3.1,0,4.6,0.1
		c7.9,0.3,15.2-0.9,22.2-2.1c5.7-1,11.2-1.9,16.9-2c8.3-0.2,12.6,0.7,17.4,1.7c2.6,0.6,5.4,1.1,9,1.6c8.7,1.1,23.6,1.4,31.6,1.6
		c1.6,0,3,0.1,4,0.1c1.6,0,2.9,0.2,3.8,0.4c-0.3,0.1-0.8,0.2-1.3,0.3c-7,1.5-15.2,9.8-18.3,13c-0.3,0.3-0.5,0.5-0.7,0.7
		c-2.7,0.5-22.1,0.1-29-1c-0.8-0.1-2-0.3-3.4-0.6c-11.4-1.9-38.1-6.5-48.8-5.4c-1.6,0.2-3.2,0.3-4.8,0.5c-9.1,0.9-19.3,2-21.8,0.4
		c-1.7-1.1-2.7-1.3-4.3-1.6c-2-0.4-5.2-1-12.8-4c-9.9-4-15-11.9-23.4-25c-2.4-3.7-5.1-7.9-8.2-12.5c-6.4-9.3-15.2-25.3-20.9-48.4
		c-0.2-0.7-0.4-1.5-0.6-2.3c-2.3-9.2-4.7-18.5-7-21.7c-1.5-2-2.1-6.2-2.6-9.5c-0.3-2.2-0.6-4.1-1.1-5.4c-0.4-1.1-1.1-2.5-2-4.3
		c-2.1-4.1-5-9.7-5-14.1c0-7.2-9.1-30.2-11-34c-0.9-1.8-2.3-3.3-3.7-4.8c-1.9-2.1-3.8-4-4.2-6.7c-0.9-5.2-2.9-8.5-8.5-17.4l-1-1.6
		c-5.1-8.1-20.7-21.3-29.1-28.4c-1-0.8-1.9-1.6-2.6-2.2c1.5-2.3,2.9-4.9,4.2-7.3c1-0.2,2.1-0.3,3.2-0.4c5,3.3,26.1,15.4,37.1,16.4
		c2.5,10.6,8.4,28.1,19.9,47c4.3,7.1,9.3,11.3,14.5,13.7c3.8,5,13.2,30.4,16.6,46.6c3.1,14.9,5.1,32.4,5.3,46.9
		c0.1,11.6,6,32.5,22.1,53.6C377.2,399.3,393.7,399.5,407,399.8z M518.6,281.9c-1.2,5.3-3.7,10.7-9.2,22.6l-1.7,3.8
		c-4.8,10.5-18.5,16.3-26.7,19.7c-3.2,1.3-5.2,2.2-6.3,3.1c-2.9,2.4-18.5,11.8-43.3,20.2c-31.2,10.6-61.6,11.9-67.4,11.6
		c-1.6-0.1-4.2,0.3-8.2,1c-7.9-14.6-11.1-27.7-11.2-35.9c-0.2-14.6-2.2-32.4-5.4-47.5c-2.8-13.4-10.2-34.7-15.1-44.2
		c6.8,2.4,15.7,5.3,27.8,5.3c1.2,0,2.5,0,3.8-0.1c4.8-0.2,8.6-1.9,11.4-5.1c5.4-6.1,4.9-15.5,4.8-17.3c-0.3-3.7-3.1-15.6-11.8-22.4
		c-0.8-1.3-1.8-2.4-2.9-3.6c-6.1-6.2-10.7-13.4-13.9-20c1.5-3.6,1.4-7.8,1.3-11.3c0-0.7,0-1.4,0-2c0-25.3-9.8-65.2-13.6-80.2
		c-0.2-0.8-0.4-1.6-0.6-2.3c5.4-2.7,20.9-9.5,23.3-9.5c0.1,0,0.2,0,0.2,0c0.1,1.8,1.4,2.2,2.5,2.3c2.7,0.2,26.3-5.4,28.8-6.9
		c0.7,0.1,4,2.9,6.3,14.9c1.3,6.9,1.9,14.8,2.4,21.2c0.6,7,0.9,11.1,1.7,12.9c1.4,3.2,2.9,11.7,3,16c0.1,1.4,0.6,3.6,1.5,6.6
		c1.9,7,4.8,17.6,3.9,29.4c-0.9,11.5,0.6,15.4,1.7,18.2c0.5,1.4,0.9,2.3,0.9,3.9c0,9.9-0.4,79.3-2.2,94.5
		c-1.3,11-5.4,38.4-15.8,54.9c-0.4,0.7-0.2,1.6,0.5,2.1c0.2,0.2,0.5,0.2,0.8,0.2c0.5,0,1-0.2,1.3-0.7c10.7-17,14.9-44.9,16.2-56.1
		c1.9-16.5,2.2-94.1,2.2-94.8c0-2.2-0.6-3.6-1.1-5c-1-2.5-2.4-6-1.5-16.9c1-12.3-2.1-23.6-4-30.4c-0.7-2.7-1.3-4.8-1.4-5.9
		c-0.2-4.6-1.7-13.4-3.3-17c-0.6-1.4-1-6.5-1.4-11.9c-0.5-6.5-1.1-14.5-2.5-21.5c-1.4-7.7-3.6-13.2-6.2-15.8
		c3.6-1.9,10.7-4.8,16.3-5c4.4-0.2,7.4,0,9,1.5c1.1,1,1.7,2.8,1.8,5.4l0.1,1.4c0.4,9.4,1.2,28.8,5,35.3c3.6,6.1,13.4,36.9,16,46
		c2.2,7.7,10.8,38.6,12.8,49.1c2.1,11.2,12.2,29.4,16.4,32.8c0.3,0.2,0.6,0.3,0.9,0.3c0.4,0,0.9-0.2,1.2-0.6
		c0.5-0.6,0.4-1.6-0.2-2.1c-3.4-2.8-13.4-20.4-15.4-31c-0.2-1-0.4-2.1-0.7-3.4c7.5,7.7,23.2,26.4,28.2,37.6c3.9,8.6,6,24.9,7.7,38.1
		c1,7.3,1.8,13.6,2.7,16.9c0.2,0.7,0.8,1.1,1.4,1.1c0.1,0,0.3,0,0.4-0.1c0.8-0.2,1.3-1.1,1-1.9c-0.9-3-1.7-9.2-2.6-16.4
		c-1.7-13.4-3.9-30-8-38.9c-6.2-13.7-26.9-37.3-32.2-41.6c-3.2-13.2-8.8-33.2-10.9-40.7c-2.2-7.6-12.3-39.9-16.3-46.7
		c-3.2-5.4-4.1-22.5-4.5-31.7c3.3-1.1,11.8-2.7,18.6-1.4l1.7,0.3c6.5,1.2,11.6,2.2,12.7,5.4c1.3,3.8-0.6,25.5-2.1,36.6
		c-1.3,9.8-3.9,30.2,5.5,39.7c9,9.1,20.9,26,24.7,34c2.1,4.3,5.9,10.6,9.9,17.2c3.7,6.2,8,13.2,11.4,19.6
		c7.3,13.5,21.5,46.2,22.1,50.1c-0.3,0.8-0.6,1.6-0.9,2.4C520.7,275.3,519.2,279.1,518.6,281.9z M526.4,258.2l0,0.4
		c-0.1,1.5-0.7,3.6-1.5,5.9c-4-11.1-15.9-37.3-21.1-47c-3.5-6.5-7.7-13.5-11.5-19.7c-4-6.6-7.7-12.8-9.7-17
		c-3.9-8.1-16.1-25.5-25.3-34.8c-8.4-8.6-5.8-28.7-4.7-37.3c0.5-3.7,1.7-14.5,2.2-23.8c3.1,6.3,7.8,16.5,11.4,24.5
		c2.7,6,4.9,10.7,5.7,12.3c0.8,1.5,1.9,4.6,3.3,8.2c3.1,8.1,7.3,19.2,11.2,23.7c5.4,6.2,23.3,40.4,33,59.7
		C525.6,225.8,528,240.9,526.4,258.2z"/>
</g>
</svg>
