<?xml version="1.0" encoding="utf-8"?>
<!-- Generator: Adobe Illustrator 20.1.0, SVG Export Plug-In . SVG Version: 6.00 Build 0)  -->
<svg version="1.1" xmlns="http://www.w3.org/2000/svg" xmlns:xlink="http://www.w3.org/1999/xlink" x="0px" y="0px"
	 viewBox="0 0 393 566" style="enable-background:new 0 0 393 566;" xml:space="preserve">
<style type="text/css">
	.st0{fill:#FFFFFF;}
	.st1{fill:#1A1A1A;}
</style>
<g id="back">
	<g>
		<path class="st0" d="M382.9,290.3C382.9,290.3,382.9,290.3,382.9,290.3c-2.8-2.3-6-4.1-9.1-6c-8.6-5.1-17.6-10.5-21.8-24.7
			c-0.2-0.8-0.4-1.5-0.6-2.4c-5.1-20.9-10.3-25.7-17.5-27c-6.9-1.2-10-2.2-12-13.3c-2.1-11.8-10.4-29.8-24.5-31.3
			c-5.5-0.6-8.7-1.7-11.8-2.9c-1-0.4-1.9-0.7-2.9-1c-4.2-1.4-9-2.1-18.6-1.1c-11.1,1.1-28.8,5.3-44.4,8.9c-10,2.4-19.5,4.6-25.5,5.6
			c-0.5,0.1-1.1-0.1-1.4-0.6c-0.3-0.4-0.4-1-0.2-1.5c2.7-6.1,6.6-16.9,9.6-33.8c3.1-17.9,5-48.3,5-83.4V38.8c0,0,0,0,0-0.1
			c0,0,0,0,0-0.1l-2.6-7.7c-23.5,15.6-23.5,35.9-23.5,49.5c0,2.9,0.2,7.2,0.6,12.9c0,0.3-0.1,0.6-0.2,0.9
			c-4.2,7.1-6.9,14.3-6.9,18.7v33.3c0,22.4,4.9,39.3,9.5,47.6c0.3,0.5,0.2,1,0,1.5c-0.3,0.5-0.7,0.7-1.3,0.7
			c-14.2,0.2-33-1.6-43.2-7.1c-4.6-2.5-7.7-4.7-10.1-6.4c-4.6-3.3-6.9-4.9-12.4-3.8c-2.3,0.5-3.8,1.5-4.8,3.2
			c-1.4,2.5-1.1,5.6-0.7,7.3c0.1,0.7-0.3,1.4-1,1.7c-9.9,3.6-18.3,4.8-24.7,3.5c-7-1.4-13.3,5-18.8,10.7c-2.5,2.6-4.8,5-7.2,6.8
			c-3.4,2.5-6.8,5.5-10.1,8.3c-4.3,3.7-8.3,7.1-10.9,8.4c-1.6,0.8-3.2,2.5-4.9,5.1c-2.5,3.8-5.3,9.7-8.8,18.4
			c-4.7,11.8-23,69-23,99.8c0,7.7,4.7,10.1,8.2,11.8c1.7,0.8,3.1,1.6,3.8,2.7c1.1,1.7,0.5,3.1-0.6,6c-1.1,2.8-2.8,7.1-3.7,14.5
			c-1.3,11,1.2,34,2.9,49.2c0.5,4.7,0.9,8.4,1.1,10.8c0.2,2.2,1.2,5,3.3,8.7c6.2,11.2,19.2,25.5,23,29.6c3.2,3.4,5.2,5.9,6.8,7.9
			c1.6,2,2.8,3.5,4.2,4.6c1.6,1.3,3.9,1.3,6.2,1.2c1.5-0.1,3.2-0.1,4.6,0.3c3.6,1,5.3,2.9,5.3,5.8c0,1-0.4,2.2-0.9,3.5
			c-0.9,2.4-2.1,5.5-0.8,9.3c2,5.7,5.2,12.4,5.2,12.5c0.1,0,9-2.7,18.8,2.3c5.5,2.8,15.7,3.8,26.5,4.8c8.4,0.8,17.1,1.7,24,3.4
			c12.4,3.2,43,11.3,58.3,18.5c7.1,3.4,13.3,3.6,18.4,3.4c2-0.1,3.9-0.2,5.9-0.4c2.9-0.2,5.8-0.4,8.9-0.4c2.1,0,4.3,0.1,6.5,0.4
			c1.3,0.2,2.6,0.3,3.9,0.5l0.2,0c4,0.5,7.8,1,11.4,1c8.2,0,14.9-2.6,23.1-9c17.3-13.5,30.9-23.3,35.5-25.5
			c2.3-1.1,5.8-4.1,11.2-9.4c0,0,0.1-0.1,0.1-0.1c1.8-1.8,3.6-3.6,5.4-5.4c2.3-2.3,4.4-4.5,6.3-6.4c7.1-6.8,42.1-51.5,48-66.7
			c1.3-3.4,2.3-7.1,3-11.2c1.5-9,1.1-18.8,0.8-28.2c-0.1-3.1-0.2-6.3-0.3-9.4c-0.3-17.8,1.3-47.7,3-56c0.6-2.8,1.3-7.9,1.5-13.8
			C391.4,311.2,390.4,296.3,382.9,290.3z M197.1,162.6c-0.5,1.9-1,4.1-1.6,6.4c-0.2,0.7-0.8,1.1-1.5,1.1c0,0-0.1,0-0.1,0
			c-0.7-0.1-1.3-0.7-1.3-1.4c-0.9-16.5-3.3-52.6-6-71.3c-0.1-0.4,0-0.7,0.2-1.1c3.4-5,8-10.3,13.2-15.2c0.4-0.4,1.1-0.5,1.6-0.3
			c0.6,0.2,0.9,0.8,0.9,1.4C202.3,135.2,198.6,156.1,197.1,162.6z M200,42.5c0.5-0.4,1.1-0.4,1.6-0.2c0.5,0.3,0.8,0.8,0.8,1.4v27
			c0,0,0,0,0,0c0.1,0.6-0.1,1.2-0.6,1.6c-5,3.4-9.6,7.7-13.8,12.7c-0.3,0.4-0.7,0.5-1.2,0.5c-0.2,0-0.3,0-0.5-0.1
			c-0.6-0.2-1-0.8-1-1.4C185.3,72.9,187,52.8,200,42.5z M186,184c-0.1,0-0.2,0-0.3,0c-0.6,0-1.2-0.4-1.4-1c-2-5.6-4.7-15-4.7-32.4
			v-36.5c0-1.3,0.2-2.7,0.6-4.3c0.2-0.7,0.8-1.2,1.6-1.1c0.7,0.1,1.3,0.6,1.4,1.4c0.6,6.9,1.3,13.8,1.8,18.9c0.5,4.9,0.9,8.7,1,10.5
			c0.3,4.7,0.8,22.7,1.1,35.9l0.2,7.1C187.2,183.3,186.7,183.9,186,184z"/>
	</g>
</g>
<g id="lines">
	<path class="st1" d="M383.8,289.1c-2.9-2.3-6.1-4.2-9.2-6.1c-8.8-5.3-18-10.7-21.7-26.1c-5.3-21.7-10.9-26.7-18.7-28.1
		c-6.3-1.1-8.9-1.6-10.8-12c-2.2-12.2-10.9-30.9-25.8-32.5c-5.3-0.6-8.4-1.7-11.4-2.8c-4.9-1.8-9.5-3.5-22.1-2.2
		c-11.2,1.1-28.9,5.3-44.6,9c-9.9,2.3-19.4,4.6-25.4,5.6c3-6.6,6.8-17.5,9.7-34.1c3.2-18,5-48.5,5-83.7c0-0.2-0.1-0.4-0.2-0.5
		L239,45.4c0.4-0.4,0.4-1,0-1.4c-0.4-0.4-1-0.4-1.4,0l-30,29.7l-0.1,0l29.6-29.8c0.2-0.2,0.2-0.5,0-0.7c-0.2-0.2-0.5-0.2-0.7,0
		l-18.7,18.9l17.4-19c0.2-0.2,0.2-0.5,0-0.7c-0.2-0.2-0.5-0.2-0.7,0l-18.6,20.3l18-20.6c0.2-0.2,0.2-0.5,0-0.7
		c-0.2-0.2-0.5-0.2-0.7,0l-21.1,24.2l20.5-24.7c0.2-0.2,0.1-0.5-0.1-0.7c-0.2-0.2-0.5-0.1-0.7,0.1l-17,20.5L231,39.9
		c0.2-0.2,0.1-0.5-0.1-0.7c-0.2-0.2-0.5-0.1-0.7,0.1L209,66l20-26.7c0.2-0.2,0.1-0.5-0.1-0.7c-0.2-0.2-0.5-0.1-0.7,0.1l-12.1,16.2
		l11.7-16.6c0.2-0.2,0.1-0.5-0.1-0.7c-0.2-0.2-0.5-0.1-0.7,0.1l-12.5,17.8l12-18.1c0.2-0.2,0.1-0.5-0.1-0.7
		c-0.2-0.2-0.5-0.1-0.7,0.1L216,51.4l9.6-15c0.3-0.5,0.2-1.1-0.3-1.4c-0.5-0.3-1.1-0.2-1.4,0.3l-15.2,23.8V39.6c0.1,0,0.1,0,0.2,0
		c0.2-0.1,0.4-0.1,0.6-0.1c1.7-0.3,3.2-0.9,5.9-6.8c1-2.2,1.7-4.3,2.3-6.4c1.6-5.4,2.8-9.2,8.5-9.9c0.5-0.1,0.9-0.6,0.9-1.1
		c-0.1-0.5-0.6-0.9-1.1-0.9c-7,0.8-8.5,5.9-10.2,11.3c-0.6,2-1.3,4.1-2.2,6.1c-1.9,4.2-3,5.2-3.7,5.5c0.7-0.5,1.5-1.4,2.3-2.8
		c1.1-2,2.5-6.6,3.4-9.4c0.3-0.9,0.5-1.6,0.6-2c1.9-5.4,4.5-8.5,7.6-8.8c0.3,0,0.5-0.3,0.4-0.6c0-0.3-0.3-0.5-0.6-0.4
		c-3.5,0.4-6.3,3.6-8.4,9.5c-0.1,0.4-0.4,1.1-0.6,2c-0.1,0.2-0.1,0.4-0.2,0.6c0.2-0.6,0.3-1.2,0.5-1.8c0.2-0.9,0.4-1.6,0.5-2
		c1.7-5.5,4.2-8.6,7.2-9.2c0.3,0,0.5-0.3,0.4-0.6c0-0.3-0.3-0.5-0.6-0.4c-3.5,0.6-6.2,3.9-8,9.9c-0.1,0.4-0.3,1.1-0.5,2
		c-0.7,2.7-1.9,7.3-2.9,9.3c-1.1,2.2-2.2,2.9-3.1,3.2l0-0.1c0.9-0.4,2.3-1.3,3.4-3.8c1-2.1,2-6.8,2.6-9.6c0.2-0.9,0.4-1.6,0.5-2
		c1.5-5.5,3.9-8.8,6.9-9.4c0.3-0.1,0.4-0.3,0.4-0.6c-0.1-0.3-0.3-0.4-0.6-0.4c-3.5,0.7-6,4.1-7.6,10.1c-0.1,0.2-0.1,0.6-0.2,1
		c0.2-1.1,0.4-1.9,0.5-2.3c1.5-5.5,3.9-8.8,6.9-9.4c0.3-0.1,0.4-0.3,0.4-0.6c-0.1-0.3-0.3-0.4-0.6-0.4c-3.5,0.7-6,4.1-7.6,10.1
		c-0.1,0.5-0.3,1.4-0.5,2.6c-0.4,1.8-0.8,4.2-1.3,6.3c0-0.5,0-1.1,0-1.7c0.6-2.1,1.1-4.4,1.5-6c0.2-0.9,0.4-1.6,0.5-2
		c1.5-5.5,3.9-8.8,6.9-9.4c0.3-0.1,0.4-0.3,0.4-0.6c-0.1-0.3-0.3-0.4-0.6-0.4c-3.5,0.7-6,4.1-7.6,10.1c-0.1,0.4-0.3,1.1-0.5,2
		c0,0.2-0.1,0.4-0.1,0.6c0.7-5.7,2.6-12.2,8-13.3c0.3-0.1,0.4-0.3,0.4-0.6c-0.1-0.3-0.3-0.4-0.6-0.4c-6.9,1.5-8.6,10.4-9,16.9
		c0.4-6.8,2-16.3,8.3-17.7c0.3-0.1,0.4-0.3,0.4-0.6C218.5,4.1,218.2,4,218,4c-4.1,0.9-6.4,4.8-7.7,9.3c1-4.9,3.1-9.2,7.3-10.1
		c0.3-0.1,0.4-0.3,0.4-0.6c-0.1-0.3-0.3-0.4-0.6-0.4c-7.9,1.7-8.9,13.6-9.1,21c0-0.2,0-0.4,0-0.6c0-8.6,1.5-19.1,8.7-20.5
		c0.5-0.1,0.9-0.6,0.8-1.2s-0.6-0.9-1.2-0.8c-6.7,1.3-10.3,9-10.3,22.5c0,6.1-0.5,6.3-1.1,6.4c-0.2,0.1-0.4,0.1-0.6,0.2
		c0,0-0.1,0-0.1,0.1c0,0-0.1,0-0.1,0c-24.7,16-24.7,37.1-24.7,51.1c0,3,0.2,7.4,0.6,13c0,0,0,0,0,0c-4.6,7.6-7.1,14.9-7.1,19.5v33.3
		c0,24.4,5.6,41,9.7,48.4c-13.7,0.2-32.6-1.6-42.5-6.9c-4.5-2.4-7.5-4.6-10-6.4c-4.6-3.3-7.4-5.3-13.5-4c-2.7,0.5-4.6,1.9-5.8,3.9
		c-1.7,2.9-1.3,6.4-0.9,8.4c-4.7,1.7-15.2,5.2-23.9,3.5c-7.8-1.6-14.4,5.2-20.1,11.1c-2.4,2.5-4.8,4.9-7.1,6.6
		c-3.4,2.6-6.9,5.5-10.2,8.4c-4.2,3.6-8.2,7-10.6,8.2c-4.3,2.2-8.5,9.2-14.5,24.3C19,263.6,0.6,321,0.6,352c0,8.6,5.4,11.4,9,13.2
		c1.4,0.7,2.7,1.4,3.2,2.1c0.6,1,0.4,1.7-0.7,4.6c-1.1,2.9-2.9,7.3-3.8,14.9C7,398,9.6,421.1,11.3,436.4c0.5,4.7,0.9,8.4,1.1,10.7
		c0.8,10.6,20.6,32.6,26.6,39.2c3.1,3.4,5.1,5.8,6.7,7.8c1.7,2.1,2.9,3.6,4.4,4.8c2.1,1.7,4.8,1.6,7.2,1.5c1.5,0,2.9-0.1,4.1,0.3
		c3.7,1,4.2,2.7,4.2,4.3c0,0.8-0.4,1.8-0.8,2.9c-1,2.5-2.3,6-0.8,10.3c2,5.8,5.2,12.4,5.3,12.7c0.3,0.7,1.1,1,1.8,0.8
		c0.1,0,8.5-2.5,17.6,2.2c5.7,2.9,16.1,3.9,27,5c8.3,0.8,17,1.6,23.8,3.4c12.4,3.1,42.9,11.2,58,18.4c9.2,4.4,16.9,3.8,25,3.2
		c4.8-0.4,9.7-0.7,15.2-0.1c1.4,0.2,2.8,0.3,4.1,0.5c4.1,0.5,7.9,1,11.5,1c7.4,0,14.6-1.9,24-9.3c17.2-13.5,30.7-23.2,35.2-25.3
		c4.1-1.9,10.7-8.7,17.2-15.3c2.2-2.3,4.4-4.5,6.2-6.3c7.1-6.9,42.4-51.9,48.4-67.2c4.8-12.4,4.3-25.8,3.9-40
		c-0.1-3.1-0.2-6.3-0.3-9.4c-0.3-17.8,1.3-47.4,3-55.7C392.7,327.4,395.5,298.4,383.8,289.1z M373,285.6c3.2,1.9,6.2,3.7,8.9,5.9
		c6.5,5.2,7.9,18.9,7.5,30.6c-9.2,2.2-23.8,11.6-38,20.6c-10.3,6.5-19.9,12.7-25.6,14.8c-13.1,4.8-47.6,7.9-59.9,8
		c0.5-3.8,0.9-7,0.9-9.3c0-7.6-19-28.3-21.5-30.9c-1.7-2.5-3.1-4.8-4.4-6.9c24.5-22.6,89.4-54,109.8-57.4
		C355.3,275,364.3,280.4,373,285.6z M261.4,394.6c0.4,6.8-8.6,24.3-17.8,34.8c-8.3,9.5-28.2,13.2-53.1,9.7
		c-24.6-3.4-33.3-9.6-44.6-22.9c-10.9-12.8-12.5-21.7-11.8-24.9c0.1-0.4,0.2-0.8,0.4-1.3c1-3,2.7-8.1,1.6-37
		c-1.1-29,10.2-45.6,33.5-49.3c0.5-0.1,0.8-0.1,1.1-0.2c0.7-0.1,1.3-0.2,2-0.2c1.8,0,3.6,0.5,6,1.1c2.8,0.7,6.4,1.6,11.5,2.1
		c5.3,0.5,26-1.8,34.3-3.2c5-0.8,7.3,2.8,12,11.1c2,3.5,4.2,7.5,7.3,11.9c0,0,0.1,0.1,0.1,0.1c5.8,6.2,21,23.7,21,29.6
		c0,2.3-0.4,5.5-0.9,9.4c-0.4,0.1-0.8,0.5-0.8,0.9c0,0.4,0.2,0.7,0.5,0.9c-0.1,0.4-0.1,0.7-0.2,1.1
		C262.4,376.3,260.9,386.2,261.4,394.6z M297.2,187.2c13.2,1.4,21.2,19.2,23.2,30c2.1,11.4,5.4,13.1,13.2,14.5
		c5.7,1,10.9,3.7,16.3,25.9c0.1,0.4,0.2,0.9,0.3,1.3c-21.2,3.7-84.9,34.4-110.2,57.6c-0.6-1-1.2-2-1.7-3
		c-4.5-7.9-7.5-13.2-14.1-12.1c-3.6,0.6-9.4,1.4-15.4,2c2.9-11.1,9.4-23.6,15.8-35.6c4.5-8.7,9.2-17.7,12.5-26
		c7.6-19.4,33.4-48.5,45.3-58.3c0.9,0.3,1.8,0.6,2.6,0.9C288.1,185.4,291.5,186.6,297.2,187.2z M187.1,194.5
		c-0.8-2.2-1.7-4.5-2.6-6.7c-3.3-8.3-6.7-16.8-6.9-27c-0.1-6.3,0-14.3,0.1-21.3c0.1-8,0.2-15-0.1-17c-0.5-3.6,0.8-15.3,3.5-20.7
		c2.6-5.3,12.9-19.7,22.8-27.9L206,75c-1.6,1.3-3.2,2.7-4.7,4.1c0,0,0,0-0.1,0.1c-6.1,5.6-11.2,11.5-15,17.1c0,0,0,0.1-0.1,0.1
		c-4.5,6.7-7.1,12.9-7.1,17.8v36.5c0,23.3,4.4,33.2,9.8,43.7C188.2,194.4,187.7,194.4,187.1,194.5z M186.9,84
		c-0.3-18.5,4.8-32.8,14-40.3v27c0,0.1,0,0.1,0,0.2C195.6,74.6,190.9,79.2,186.9,84z M184.1,87.7c-0.6-10.9-0.3-18.8,0.9-23.6
		c2.8-11.3,11.3-25.1,20.5-28.9l1,2.9c-1.7,0.7-3.3,1.6-4.8,2.6c-0.2,0.1-0.3,0.1-0.4,0.3c-11.1,7.9-17.1,24.2-16.2,45.5
		C184.7,86.9,184.4,87.3,184.1,87.7z M207.1,32.7c0.1,0,0.2-0.1,0.2-0.1c-0.1,0.1-0.2,0.1-0.4,0.2C207,32.7,207,32.7,207.1,32.7z
		 M207.1,33.8c0.3-0.1,0.6-0.3,0.8-0.4c-0.3,0.3-0.5,0.5-0.8,0.6L207.1,33.8z M203,68.1V42.2c0.3-0.2,0.6-0.4,1-0.6
		c0.1,3,0.3,12.1,0.4,24.3L203,68.1z M186.3,99.7c3.1,23,5.7,66.8,6,75.4c-0.4,1.5-0.8,3.1-1.2,4.6c-0.9-24.2-1.7-38.5-2.1-41.3
		c-0.8-4.4-3.5-30.9-3.9-36.4C185.5,101.1,185.9,100.4,186.3,99.7z M194,168.6c-0.9-16-3.3-52.5-6-71.5c3.2-4.7,7.5-9.8,13-15
		c-0.1,52.8-3.8,73.6-5.4,80.1C195.2,164,194.6,166.2,194,168.6z M184.2,103.5c0.7,8.9,3.7,34.7,3.7,35c0.5,2.8,1.3,18.4,2.2,43.9
		l0,0.4c-0.7,2.4-1.3,4.6-1.9,6.1c-0.2-0.3-0.3-0.7-0.5-1c-0.1-2-0.2-6.5-0.3-12.2c-0.3-13.3-0.8-31.5-1.1-36.2
		c-0.1-1.7-0.5-5.6-1-10.5c-0.7-6.6-1.5-14.9-2.2-23.1c0,0,0-0.1,0-0.1C183.5,105,183.8,104.3,184.2,103.5z M181.6,110.3
		c0.6,6.8,1.3,13.3,1.8,18.8c0.5,4.9,0.9,8.8,1,10.5c0.3,4.6,0.8,22.8,1.1,36.1c0.1,2.6,0.1,4.9,0.2,6.9c-2.8-7.6-4.6-16.9-4.6-31.9
		v-36.5C181,113,181.2,111.7,181.6,110.3z M189.5,191.4c1.9-4.6,6.4-21.9,8-28.6c1.6-6.7,5.4-28.1,5.4-82.5c0.5-0.4,0.9-0.8,1.4-1.2
		c-0.1,11.6-0.3,22.7-0.7,32.9c-1.5,35.8-2.1,50.7-13.7,80.3C189.8,191.9,189.7,191.6,189.5,191.4z M201.8,159.3
		c-3.1,17.5-7.1,28.5-10.1,34.8c-0.2,0-0.4,0.1-0.7,0.1c-0.2-0.3-0.3-0.6-0.5-0.9c0,0,0.1-0.1,0.1-0.1c11.9-30.1,12.5-45.1,14-81.2
		c0.4-10.4,0.7-21.8,0.7-33.8c0.4-0.4,0.9-0.8,1.4-1.1C206.7,111.7,204.9,141.6,201.8,159.3z M205.3,64.4
		c-0.1-12.3-0.4-21.1-0.4-23.3c0.6-0.3,1.2-0.6,1.8-0.9v22.1L205.3,64.4z M209.9,35.9c-0.6,0.7-1.2,1-1.7,1.2l0-0.1
		C208.7,36.8,209.3,36.5,209.9,35.9z M207.5,34.9c1-0.5,1.8-1.5,2.6-3C209.3,33.8,208.3,34.5,207.5,34.9z M209.7,29.3
		c0,0.3-0.1,0.6-0.2,0.8c0-0.2,0.1-0.3,0.1-0.5c0-0.1,0-0.3,0-0.5c0-0.1,0.1-0.1,0.1-0.2C209.8,29.1,209.7,29.2,209.7,29.3z
		 M209.8,25.7c0-0.7,0-1.4,0.1-2.2C209.8,24.3,209.8,25,209.8,25.7C209.8,25.7,209.8,25.7,209.8,25.7z M209.9,23c0-0.1,0-0.2,0-0.3
		C209.9,22.8,209.9,22.9,209.9,23z M208.2,25.7c0,1.4-0.1,2.8-0.2,3.1c-0.5,1.3-1.1,1.9-1.9,2.1l0,0
		C207.5,30.4,208.1,29.3,208.2,25.7z M181.6,80.5c0-14.1,0-33.4,22.7-48.7l0.8,2.5c-9.9,4-18.3,18.2-21.2,29.6
		c-1.3,5.1-1.6,13.5-0.9,25.1c-0.4,0.6-0.8,1.1-1.1,1.7C181.8,86.4,181.6,83,181.6,80.5z M175.1,146.3V113c0-5,3.9-15.5,11.6-25.6
		c0,0,0,0,0,0c4.1-5.3,9.1-10.5,15.2-14.7l1,0.6c-10,8.4-20.2,22.7-22.8,28c-2.8,5.8-4,17.6-3.5,21.3c0.3,2,0.2,8.9,0.1,16.9
		c-0.1,7-0.2,15-0.1,21.3c0.2,10.4,3.6,19,6.9,27.4c0.8,2.1,1.7,4.2,2.5,6.4c-0.3,0-0.6,0-0.9,0
		C181.3,188.3,175.1,171.4,175.1,146.3z M113.6,182.7c0.8-1.3,2-2.1,3.8-2.5c4.9-1,6.7,0.3,11.2,3.5c2.5,1.8,5.6,4,10.3,6.6
		c13.7,7.4,40.9,7.9,51.8,6.9c5.4-0.5,16.5-3.1,29.3-6.1c15.6-3.7,33.2-7.8,44.2-8.9c7.9-0.8,12.3-0.4,15.8,0.5
		c-12.7,10.9-37.2,38.8-44.8,58.3c-3.2,8.2-7.9,17.2-12.4,25.8c-6.5,12.4-13.2,25.3-16.1,36.8c-7,0.7-13.6,1.2-16.3,0.9
		c-5-0.5-8.4-1.4-11.2-2.1c-2.9-0.8-5.2-1.3-7.7-1.1c-0.4-3.8-2.5-17.9-13.7-50c-13.2-37.5-29.8-52.1-44.5-61.1c0-0.1,0-0.1,0-0.2
		C113.3,190,111.9,185.6,113.6,182.7z M39.5,230.1c2.8-1.4,6.7-4.7,11.2-8.6c3.3-2.8,6.7-5.7,10-8.3c2.5-1.9,4.9-4.3,7.4-6.9
		c5.5-5.7,11.2-11.5,17.4-10.3c10.3,2.1,22.6-2.5,26.7-4c14.4,8.8,30.7,23.1,43.6,60.1c11.2,32.1,13.3,46.2,13.6,49.7
		c-0.1,0-0.1,0-0.2,0c-3.9,0.6-13.1,2.1-21.2,9.1c-1,0.9-2,1.9-2.9,2.9c-4.2-5.5-25-32.3-35.1-40.8c-10.6-9-56.8-31.2-74.3-39.3
		C37.1,231.9,38.3,230.7,39.5,230.1z M11,362.5c-3.6-1.8-7.4-3.7-7.4-10.5c0-30.6,18.2-87.4,22.9-99.2c2.4-6.1,5.3-12.9,8.2-17.5
		c17.2,7.9,63.6,30.2,74.1,39.1c10,8.5,31.6,36.4,35,40.8c-7.1,8.8-10.4,21.5-9.8,37.8c0.3,8.6,0.4,15.1,0.3,20
		c-51.1-12.5-82.4-10-103.2-8.4c-6.1,0.5-11.4,0.9-15.9,0.8C14.3,364.2,12.7,363.4,11,362.5z M14.3,436.1c-1.6-14.2-4.2-38-2.9-48.9
		c0.9-7.2,2.5-11.4,3.6-14.2c0.8-2.1,1.5-3.8,1.2-5.5c4.4,0,9.5-0.4,15.2-0.8c20.7-1.6,52-4.1,103,8.4c-0.3,9.7-1.2,12.4-1.8,14.2
		c-0.2,0.5-0.3,0.9-0.4,1.5c-0.6,2.7,0.1,7.2,3,13c-6.1,0.7-30.9,4-54.3,13c-20.5,7.8-51.3,27.7-63,37.1c-1.4-2.7-2.3-5.1-2.5-6.9
		C15.2,444.5,14.8,440.8,14.3,436.1z M66.8,517.3c-1.1-3.3-0.1-5.9,0.8-8.2c0.5-1.4,1-2.7,1-4c0-3.6-2.1-6-6.3-7.2
		c-1.7-0.5-3.4-0.4-5.1-0.4c-2,0.1-4,0.1-5.2-0.9c-1.3-1.1-2.4-2.4-4-4.4c-1.6-2-3.6-4.5-6.8-7.9c-8.2-8.8-17.5-20.1-22.4-28.6
		c11.4-9.2,42.3-29.2,62.8-37c24.4-9.3,50.3-12.5,54.5-12.9c1.9,3.5,4.6,7.4,8.3,11.7c4.9,5.7,9.3,10.2,14.6,13.7
		c-9,5.7-27.7,35.7-30.5,40.4c-5.1,8.8-39.7,43.8-57.1,56.9C70.4,526.2,68.3,521.5,66.8,517.3z M198.8,557.9
		c-15.3-7.3-46-15.4-58.5-18.6c-7-1.8-15.8-2.6-24.2-3.4c-10.7-1-20.7-2-26-4.7c-5.7-2.9-11.2-3.3-14.9-3.1
		c17.3-13.9,49.8-46.3,55.1-55.5c6.5-11.2,24.4-37.8,30.7-40.2c7.1,4.2,15.9,6.8,29.3,8.7c6.5,0.9,12.6,1.4,18.2,1.4
		c2.1,0,4.1-0.1,6-0.2c1.9,8,5.6,46.1,5.7,60.2c0,2,0.1,4.3,0.1,6.8c0.3,15.9,0.7,39.8-4.2,52.1C210.5,561.4,205,560.9,198.8,557.9z
		 M311.2,527.9c-7.1,3.4-29.2,20.5-35.8,25.7c-13.1,10.3-20.7,9.3-33.3,7.7c-1.3-0.2-2.7-0.3-4.1-0.5c-2.3-0.3-4.6-0.4-6.7-0.4
		c-3.2,0-6.1,0.2-9.1,0.4c-1.4,0.1-2.7,0.2-4,0.3c4.8-12.9,4.3-36.3,4-52c0-2.5-0.1-4.7-0.1-6.7c-0.1-13.2-3.6-51-5.7-60.3
		c13.1-1.1,23-5,28.6-11.4c2.6-3,5.4-6.8,7.9-10.8c10,15,26.9,39.5,33.2,45.5c5,4.8,29.9,29.5,35.6,53.6
		C317.7,523.1,313.7,526.7,311.2,527.9z M381.5,440.8c-5.7,14.6-40.8,59.5-47.6,66.1c-1.9,1.8-4,4-6.3,6.3c-1.3,1.3-2.7,2.7-4,4.1
		c-6.4-24.3-30.9-48.6-35.9-53.4c-4.6-4.4-16.8-21.1-33.4-45.9c4.7-7.7,8.4-16,9.1-21.5c12.1,0.5,31.6,1.4,48.8,10.4
		c14.7,7.7,28.1,8.9,38.9,9.9c2,0.2,4,0.4,5.8,0.6c9.7,1.1,23.8,10.4,27.5,13C383.7,433.9,382.8,437.4,381.5,440.8z M384.9,392.5
		c0,3.2,0.2,6.4,0.3,9.5c0.3,9.1,0.6,17.8-0.5,26.1c-4.8-3.2-17.9-11.6-27.6-12.7c-1.9-0.2-3.8-0.4-5.9-0.6
		c-10.6-1-23.7-2.2-38.1-9.6c-16.3-8.5-34.1-10-49.6-10.6c0,0,0-0.1,0-0.1c-0.5-8.2,1-18,2.1-25.9c0.1-0.4,0.1-0.8,0.2-1.2
		c0,0,0.1,0,0.1,0c12.4,0,47.4-3.2,60.8-8.1c5.8-2.1,15.6-8.4,26-15c13.1-8.4,27.9-17.8,36.8-20.2c-0.3,4.8-0.8,9.1-1.4,12.1
		C386.1,345.3,384.6,376.1,384.9,392.5z"/>
</g>
</svg>
