<?xml version="1.0" encoding="utf-8"?>
<!-- Generator: Adobe Illustrator 20.1.0, SVG Export Plug-In . SVG Version: 6.00 Build 0)  -->
<svg version="1.1" xmlns="http://www.w3.org/2000/svg" xmlns:xlink="http://www.w3.org/1999/xlink" x="0px" y="0px"
	 viewBox="0 0 306.1 568.7" style="enable-background:new 0 0 306.1 568.7;" xml:space="preserve">
<style type="text/css">
	.st0{fill:#FFFFFF;}
	.st1{fill:#1A1A1A;}
</style>
<g id="back">
	<g>
		<path class="st0" d="M137.4,25.2c-0.1,0.1-0.1,0.2-0.2,0.3c0,0,0,0.1,0.1,0.1c0.1-0.1,0.2-0.2,0.4-0.3
			C137.5,25.3,137.4,25.3,137.4,25.2z"/>
		<path class="st0" d="M176.5,25.5c-0.1-0.1-0.1-0.2-0.2-0.3c-0.1,0-0.2,0-0.2,0c0.1,0.1,0.3,0.2,0.4,0.3
			C176.4,25.6,176.5,25.5,176.5,25.5z"/>
		<path class="st0" d="M145.9,18.1c-1.4,0-2.5,1.1-2.5,2.5c0,0.5,0.1,1,0.4,1.4l0.4,0.6l-0.4,0.5l0.3-0.5l0.7,0.3
			c1.8,0.8,3.6-0.6,3.6-2.3c0-0.6-0.2-1.2-0.6-1.6l-0.5-0.6l0,0l-0.6-0.2C146.3,18.1,146.1,18.1,145.9,18.1z"/>
		<path class="st0" d="M131.4,43.5c-0.2,0-0.3,0-0.4,0c-1.4,0-2.5,1.1-2.5,2.5c0,0.7,0.3,1.3,0.8,1.8l0.5,0.5l-0.3,0.6
			c-0.3,0.6-0.5,1.1-0.8,1.6c0.3-0.5,0.5-1.1,0.8-1.6l0.3-0.7l0.8,0.1c0.2,0,0.4,0.1,0.5,0.1c1.4,0,2.5-1.1,2.5-2.5
			c0-0.7-0.3-1.4-0.8-1.9l-0.6-0.5l2-3.8l0.9,0.4c0.4,0.2,0.7,0.3,1.1,0.3c1.4,0,2.5-1.1,2.5-2.5c0-0.9-0.5-1.7-1.3-2.2l-0.8-0.5
			l0.3-0.7l-0.4,0.8l-0.6,0c-1.3,0.1-2.4,1.2-2.4,2.5c0,0.4,0.1,0.9,0.3,1.3l0.3,0.5l-2.1,4L131.4,43.5z"/>
		<path class="st0" d="M140.4,26.4c-1.4,0-2.5,1.1-2.5,2.5c0,0.5,0.2,1.1,0.5,1.5l0.4,0.6l0,0l0.7,0.3c1.7,0.6,3.4-0.7,3.4-2.4
			c0-0.7-0.3-1.4-0.8-1.9l-0.6-0.5l0,0l-0.7-0.1C140.6,26.4,140.5,26.4,140.4,26.4z"/>
		<path class="st0" d="M115.5,90.5c0-0.8-0.4-1.6-1-2l-0.6-0.4l0,0L113,88c0,0,0,0,0,0c-1.4,0-2.5,1.1-2.5,2.5
			c0,0.9,0.4,1.7,1.2,2.1l0.7,0.4l0,0l0.7,0C114.4,93,115.5,91.9,115.5,90.5z"/>
		<path class="st0" d="M247,166.6l-0.2-0.5c-0.4-1.1-0.9-2.1-1.4-3.2L247,166.6z"/>
		<path class="st0" d="M240.5,197.6c0-1.4-1.1-2.5-2.5-2.5l-1,0.1l0,0l-0.6,0.5c-0.6,0.5-1,1.2-1,2c0,1.5,1.3,2.7,2.8,2.5l0.7-0.1
			l0.4,0.6l-0.3-0.6l0.6-0.5C240.2,199,240.5,198.3,240.5,197.6z"/>
		<path class="st0" d="M74.6,200l0.7,0.1c0.2,0,0.3,0,0.4,0c1.4,0,2.5-1.1,2.5-2.5c0-0.8-0.3-1.5-1-2l-0.6-0.5l0,0l-0.9-0.1
			c0,0-0.1,0-0.1,0c-1.4,0-2.5,1.1-2.5,2.5c0,0.7,0.3,1.4,0.9,1.9L74.6,200l-0.3,0.6L74.6,200z"/>
		<path class="st0" d="M82.1,183c1.4,0,2.5-1.1,2.5-2.5c0-0.9-0.5-1.8-1.3-2.2l-0.7-0.4l0,0.1l-0.7,0.1c-1.3,0.1-2.3,1.2-2.3,2.5
			c0,0.8,0.3,1.5,0.9,1.9l0.5,0.4l0,0l1,0.1C82,183,82,183,82.1,183z"/>
		<path class="st0" d="M100.3,128.9l0.6,0c1.3-0.1,2.4-1.2,2.4-2.5c0-0.7-0.3-1.4-0.8-1.9L102,124l0,0l-0.8-0.1
			c-0.2,0-0.3-0.1-0.4-0.1c-1.4,0-2.5,1.1-2.5,2.5c0,0.9,0.5,1.7,1.3,2.2L100.3,128.9L100.3,128.9z"/>
		<path class="st0" d="M94.1,146.8c1.4,0,2.5-1.1,2.5-2.5c0-0.8-0.3-1.5-0.9-2l-0.6-0.5l0,0l-0.9-0.1c0,0-0.1,0-0.1,0
			c-1.4,0-2.5,1.1-2.5,2.5c0,0.7,0.3,1.4,0.8,1.9l0.5,0.5l0,0l0.8,0.1C93.9,146.7,94,146.8,94.1,146.8z"/>
		<path class="st0" d="M100.2,129.2l-0.1,0.3c0,0,0-0.1,0-0.1L100.2,129.2z"/>
		<path class="st0" d="M96.7,138.1l0.8,0c1.4,0,2.5-1.1,2.5-2.5c0-0.7-0.3-1.4-0.8-1.9l-0.5-0.5l0.2-0.6c0,0,0,0,0-0.1l-0.3,0.7
			l-0.8-0.1c-0.2,0-0.3-0.1-0.4-0.1c-1.4,0-2.5,1.1-2.5,2.5c0,0.8,0.4,1.6,1.1,2.1L96.7,138.1L96.7,138.1z"/>
		<path class="st0" d="M109.4,108.9c0-0.8-0.3-1.5-0.9-2l-0.5-0.4l0.3-1.1l-0.3,1l-1-0.1c0,0-0.1,0-0.1,0c-1.4,0-2.5,1.1-2.5,2.5
			c0,0.9,0.5,1.7,1.3,2.2l0.7,0.4l0,0l0.7,0C108.4,111.3,109.4,110.2,109.4,108.9z"/>
		<path class="st0" d="M118,82.4c0-0.8-0.4-1.5-1-2l-0.5-0.4l0,0l-0.9-0.1c0,0,0,0,0,0c-1.5,0-2.6,1.1-2.6,2.5
			c0,0.9,0.5,1.7,1.2,2.2l0.7,0.4l0,0l0.7,0C117,84.8,118,83.7,118,82.4z"/>
		<path class="st0" d="M119.1,75.5c1.4,0,2.5-1.1,2.5-2.5c0-0.9-0.4-1.7-1.2-2.2l-0.7-0.4l0,0l-0.7,0c-1.4,0-2.5,1.2-2.5,2.5
			c0,0.8,0.3,1.5,0.9,2l0.5,0.4l0,0l0.9,0.1C119,75.5,119,75.5,119.1,75.5z"/>
		<path class="st0" d="M76.9,194.5l-0.3,0.7L76.9,194.5c0.2-0.5,0.4-1.1,0.6-1.7C77.4,193.4,77.2,193.9,76.9,194.5z"/>
		<path class="st0" d="M80.1,185.7l-0.2,0.6L80.1,185.7c0.2-0.5,0.3-1,0.5-1.5C80.4,184.6,80.2,185.1,80.1,185.7z"/>
		<path class="st0" d="M78.8,191.4c1.4,0,2.5-1.1,2.5-2.5c0-0.8-0.4-1.5-1-2l-0.6-0.4l0,0l-0.9-0.1c0,0,0,0,0,0
			c-1.4,0-2.6,1.1-2.6,2.5c0,0.8,0.4,1.6,1.1,2.1l0.7,0.4l0,0L78.8,191.4C78.8,191.4,78.8,191.4,78.8,191.4z"/>
		<path class="st0" d="M84.9,173.8c1.4,0,2.5-1.1,2.5-2.5c0-0.9-0.5-1.8-1.3-2.2l-0.7-0.4l0,0l-0.7,0.1c-1.3,0.1-2.3,1.2-2.3,2.5
			c0,0.8,0.3,1.5,0.9,2l0.5,0.4l-0.2,0.6c0,0,0,0.1,0,0.1l0.2-0.7l1,0.1C84.9,173.8,84.9,173.8,84.9,173.8z"/>
		<path class="st0" d="M90.5,156.2c1.4,0,2.5-1.1,2.5-2.5c0-0.9-0.4-1.7-1.2-2.2l-0.7-0.4l0,0l-0.7,0c-1.4,0-2.5,1.2-2.5,2.5
			c0,0.8,0.3,1.5,0.9,1.9l0.5,0.4l0,0l0.9,0.1C90.4,156.2,90.5,156.2,90.5,156.2z"/>
		<path class="st0" d="M87.8,164.3c1.5,0,2.6-1.1,2.6-2.5c0-0.9-0.5-1.7-1.3-2.2l-0.7-0.4l0,0l-0.7,0c-1.4,0.1-2.4,1.2-2.4,2.5
			c0,0.8,0.4,1.5,1,2l0.5,0.4l0,0L87.8,164.3C87.8,164.3,87.8,164.3,87.8,164.3z"/>
		<path class="st0" d="M112.5,99.4c0-0.8-0.3-1.5-0.9-2L111,97l0.5-1.6L111,97l-1-0.1c0,0-0.1,0-0.1,0c-1.4,0-2.5,1.1-2.5,2.5
			c0,0.9,0.5,1.7,1.3,2.2l0.7,0.4l-0.2,0.8c-0.3,0.8-0.5,1.6-0.8,2.4c0.3-0.8,0.5-1.7,0.8-2.5l0.2-0.6l0.7,0
			C111.4,101.9,112.5,100.8,112.5,99.4z"/>
		<path class="st0" d="M95.3,103.5c1.7,0.6,3.3-0.7,3.3-2.4c0-0.9-0.5-1.7-1.2-2.2l-0.8-0.5l0,0.1l-0.6,0c-1.3,0.1-2.4,1.2-2.4,2.5
			c0,0.6,0.2,1.1,0.5,1.6l0.4,0.5l-1.6,3.4l1.5-3.4L95.3,103.5z"/>
		<path class="st0" d="M113.5,61.6l-0.3,0.7c-0.3,0.6-0.6,1.2-0.9,2c0.3-0.8,0.7-1.4,0.9-2.1L113.5,61.6l0.9,0.1c0,0,0.1,0,0.1,0
			c1.4,0,2.5-1.1,2.5-2.5c0-0.7-0.3-1.3-0.8-1.8l-0.5-0.5l0,0l-0.7-0.2c-0.2,0-0.4-0.1-0.5-0.1c-1.4,0-2.5,1.1-2.5,2.5
			c0,0.8,0.3,1.5,0.9,2L113.5,61.6z"/>
		<path class="st0" d="M106.1,77.7l-0.6,1.4L106.1,77.7l0.9,0.1c0.1,0,0.1,0,0.2,0c1.4,0,2.5-1.1,2.5-2.5c0-0.7-0.3-1.4-0.8-1.9
			l-0.5-0.5l0,0l-0.8-0.1c-0.2,0-0.3-0.1-0.4-0.1c-1.4,0-2.5,1.1-2.5,2.5c0,0.7,0.3,1.5,0.9,1.9L106.1,77.7z"/>
		<path class="st0" d="M117.8,53l-0.3,0.6c-0.1,0.2-0.2,0.5-0.4,0.7c0.1-0.2,0.2-0.4,0.3-0.6L117.8,53l0.7,0.2
			c0.2,0,0.4,0.1,0.6,0.1c1.4,0,2.5-1.1,2.5-2.5c0-0.7-0.3-1.3-0.8-1.8l-0.6-0.5l0,0l-0.7-0.1c-0.2,0-0.3-0.1-0.5-0.1
			c-1.4,0-2.5,1.1-2.5,2.5c0,0.6,0.3,1.3,0.7,1.8L117.8,53z"/>
		<path class="st0" d="M122.5,44.6L122.5,44.6l0.7,0.3c0.2,0.1,0.5,0.1,0.7,0.1c1.4,0,2.5-1.1,2.5-2.5c0-0.7-0.3-1.3-0.8-1.8
			l-0.6-0.6l0,0l-0.7-0.1c-0.2,0-0.4-0.1-0.5-0.1c-1.4,0-2.5,1.1-2.5,2.5c0,0.6,0.2,1.2,0.6,1.6L122.5,44.6z"/>
		<path class="st0" d="M136.7,22.8L136.7,22.8l0.7,0.3c1.8,0.7,3.5-0.6,3.5-2.3c0-0.5-0.2-1-0.5-1.5l-0.5-0.6l0,0l-0.7-0.3
			c-1.7-0.7-3.4,0.7-3.4,2.4c0,0.5,0.2,1,0.5,1.4L136.7,22.8z"/>
		<path class="st0" d="M127.1,36.9L127.1,36.9l0.7,0.3c1.7,0.6,3.4-0.7,3.4-2.4c0-0.7-0.3-1.3-0.7-1.8l-0.6-0.6l0,0l-0.7-0.1
			c-0.2,0-0.4-0.1-0.5-0.1c-1.4,0-2.5,1.1-2.5,2.5c0,0.5,0.2,1.1,0.5,1.5L127.1,36.9z"/>
		<path class="st0" d="M131.7,29.9L131.7,29.9l0.7,0.3c1.7,0.6,3.4-0.7,3.4-2.4c0-0.6-0.2-1.2-0.6-1.6l-0.5-0.6l0,0l-0.7-0.2
			c-1.6-0.5-3.3,0.8-3.3,2.4c0,0.5,0.2,1.1,0.5,1.5L131.7,29.9z"/>
		<path class="st0" d="M90.4,112L90.4,112l0.8,0.2c0.2,0,0.4,0.1,0.6,0.1c1.4,0,2.5-1.1,2.5-2.5c0-0.8-0.4-1.6-1.1-2.1l-0.7-0.5l0,0
			l-0.7,0c-0.7,0-1.4,0.2-1.9,0.7c-0.5,0.5-0.8,1.1-0.8,1.8c0,0.7,0.3,1.3,0.7,1.8L90.4,112z"/>
		<path class="st0" d="M53.8,195.9l0.5,0.4l0,0.1l0.9,0.1c0.1,0,0.1,0,0.2,0c1.4,0,2.5-1.1,2.5-2.5c0-0.8-0.4-1.6-1.1-2.1l-0.7-0.5
			l0,0l-0.9,0c-1.3,0-2.4,1.1-2.4,2.5C52.8,194.7,53.2,195.5,53.8,195.9z"/>
		<path class="st0" d="M300.8,404.6c0-28-4.1-79.8-5.4-83.2c-1.5-4-5.4-6.7-11.2-7.7c-1-0.2-2.1-0.3-3.2-0.4
			c-1.1-0.1-2.3-0.1-3.5-0.1l-2.5,0l1.8-1.8c2.9-2.8,4.4-6.4,4.4-10.8c0-5.6-1.5-8.1-2.7-10c-0.9-1.5-1.7-2.8-1.7-5.1
			c0-2.3,0.8-4.8,1.6-7.6c1.3-4.2,2.9-9.4,2.9-16.1c0-10.4-8.5-30-27.5-40.8l-1-0.5l0.6-0.9c2.1-3,3.4-8,4.1-11.7l0-0.2l0.1-0.2
			c0.2-0.2,0.3-0.5,0.5-0.7l0.4-0.6l0.7,0.1c0.2,0,0.3,0.1,0.5,0.1c1.4,0,2.5-1.1,2.5-2.5c0-1.1-0.7-2.1-1.8-2.4l-0.7-0.2l-0.7,0.2
			c-0.6,0.2-1.1,0.6-1.5,1.2l-0.5,0.8l-0.8-0.4c-1.5-0.7-3.9-1.6-7.2-1.9c-0.1,0.1-1.7,2.4-3.4,5.9l-0.4,0.9l0,0l-0.4,0.9
			c-0.9,2.2-1.6,4.3-2,6.4l-0.2,1.1l-1-0.3c-18-5.5-59.2-8.7-81.4-9.1l-1.6,0l0.7-1.4c0.3-0.5,0.4-1.1,0.4-1.8
			c0-1.2-1.7-2.5-6.5-2.5c-4.4,0-7,1.4-7,2.7c0,0.5,0.1,1,0.4,1.5l0.9,1.5l-1.7,0c-17.6,0.4-53.4,2.7-74.8,7.4l-1,0.2l-0.2-1
			c-0.3-1.5-0.8-3.1-1.4-4.6l-0.3-0.9l0,0l-0.4-1c-1.6-3.6-3.2-5.8-3.3-5.9c-2.6,0.2-5.1,0.9-7.2,1.9l-0.8,0.4l-0.5-0.8
			c-0.3-0.6-0.8-1-1.5-1.1l-0.7-0.2v0l-0.7,0.2c-1.1,0.3-1.8,1.3-1.8,2.4c0,1.4,1.1,2.5,2.5,2.5c0.2,0,0.3,0,0.5-0.1l0.7-0.1
			l0.4,0.6c0.3,0.5,0.5,0.8,0.8,1.2l0.1,0.2l0.1,0.2c0.6,2.2,1.7,5.4,3.4,7.9l0.7,1l-1.1,0.5c-23.5,9.6-34.5,32-34.5,44.1
			c0,6.8,1.6,11.9,2.9,16.1c0.9,2.9,1.6,5.4,1.6,7.6c0,2.3-0.8,3.6-1.7,5.1c-1.2,2-2.7,4.5-2.7,10.1c0,4.4,1.5,8,4.4,10.8l1.8,1.8
			l-2.5,0c-0.2,0-0.5,0-0.7,0c-1.4,0-2.7,0.1-3.9,0.2c-1.1,0.1-2.2,0.3-3.2,0.5c-5.2,1.2-8.5,3.7-10,7.5c-1.3,3.3-5.4,55.2-5.4,83.2
			c0,15.8-1.3,31.2-2.5,44.8c-0.9,11-1.8,21.3-1.8,29.9c0,18.5,0.2,22.7,6.8,30.7c3.8,4.6,11.2,15.6,18.3,26.2
			c4.7,6.9,9.1,13.5,12.3,18.1c8.3,11.6,10.1,13.5,24.1,13.5h181.1c14,0,15.8-1.9,24.1-13.5c3.3-4.6,7.6-11.1,12.3-18
			c7.2-10.7,14.5-21.6,18.4-26.3c6.5-7.9,6.8-12.1,6.8-30.7c0-8.5-0.9-18.9-1.8-29.9l1-0.1l-1,0.1
			C302.1,435.8,300.8,420.3,300.8,404.6z"/>
		<path class="st0" d="M71.4,153.5L72,154l0,0l0.9,0.1c0,0,0.1,0,0.1,0c1.4,0,2.5-1.1,2.5-2.5c0-0.7-0.3-1.4-0.9-1.9l-0.6-0.5l0,0
			l-0.9-0.1c-0.1,0-0.1,0-0.2,0c-1.4,0-2.5,1.1-2.5,2.5C70.5,152.3,70.8,153.1,71.4,153.5z"/>
		<path class="st0" d="M79.3,137.1L79.3,137.1l0.8,0.1c0.2,0,0.3,0.1,0.4,0.1c1.4,0,2.5-1.1,2.5-2.5c0-0.8-0.4-1.5-1-2l-0.6-0.5
			l1.6-3.6l0.8,0.1c0.2,0,0.3,0.1,0.4,0.1c1.4,0,2.5-1.1,2.5-2.5c0-0.8-0.4-1.5-1-2l-0.6-0.5l1.3-3c-0.4,0.8-0.7,1.6-1.1,2.4
			l-0.3,0.6l-0.9-0.1c0,0,0,0,0,0c-1.4,0-2.6,1.1-2.6,2.5c0,0.7,0.3,1.4,0.8,1.9l0.5,0.5l-1.6,3.6l-0.9,0c0,0,0,0,0,0
			c-1.4,0-2.6,1.1-2.6,2.5c0,0.7,0.3,1.4,0.8,1.9L79.3,137.1z"/>
		<path class="st0" d="M75.7,145.6L75.7,145.6l0.9,0.1c0.1,0,0.1,0,0.2,0c1.4,0,2.5-1.1,2.5-2.5c0-0.8-0.3-1.5-0.9-2l-0.6-0.5l0,0
			l-0.9-0.1c-0.1,0-0.1,0-0.2,0c-1.4,0-2.5,1.1-2.5,2.5c0,0.7,0.3,1.5,0.9,1.9L75.7,145.6z"/>
		<path class="st0" d="M172.8,20.8c0,1.7,1.7,3.1,3.5,2.3l0.7-0.3l0,0l0.4-0.6c0.3-0.4,0.5-0.9,0.5-1.4c0-1.7-1.7-3-3.4-2.4
			l-0.7,0.3l-0.5-0.6c0,0,0,0,0,0l0.5,0.6l-0.5,0.6C173,19.8,172.8,20.3,172.8,20.8z"/>
		<path class="st0" d="M199.2,61.7c0,0,0.1,0,0.1,0l0.9-0.1l0.3,0.7l-0.3-0.7l0.6-0.5c0.6-0.5,0.9-1.2,0.9-2c0-1.4-1.1-2.5-2.5-2.5
			c-0.2,0-0.3,0-0.5,0.1l-0.7,0.2l0,0l-0.5,0.5c-0.5,0.5-0.7,1.1-0.7,1.8C196.6,60.5,197.8,61.7,199.2,61.7z"/>
		<path class="st0" d="M194.6,53.3c0.2,0,0.4,0,0.6-0.1l0.7-0.2l0,0l0.5-0.5c0.5-0.5,0.7-1.1,0.7-1.8c0-1.6-1.4-2.8-3-2.5l-0.7,0.1
			l0,0l-0.5,0.5c-0.5,0.5-0.8,1.1-0.8,1.8C192,52.2,193.2,53.3,194.6,53.3z"/>
		<path class="st0" d="M182.1,30l0.4,0.5c0.3,0.4,0.5,0.8,0.8,1.2l0.4,0.7l-0.6,0.6c-0.5,0.5-0.7,1.1-0.7,1.8c0,1.4,1.1,2.5,2.5,2.5
			c0.3,0,0.6-0.1,0.9-0.2l0.8-0.3l0,0l0.4-0.5c0.3-0.4,0.5-1,0.5-1.5c0-1.4-1.1-2.5-2.5-2.5c-0.1,0-0.3,0-0.5,0.1l-0.7,0.1l-0.4-0.6
			c-0.3-0.5-0.6-1-1-1.4L182.1,30z"/>
		<path class="st0" d="M186.8,37.3l0.3,0.5c0.3,0.5,0.7,1.1,1,1.6l0.4,0.7l-0.6,0.6c-0.5,0.5-0.8,1.1-0.8,1.8c0,1.6,1.6,2.9,3.3,2.4
			l0.8-0.2l0,0l0.5-0.5c0.4-0.5,0.6-1,0.6-1.6c0-1.4-1.1-2.5-2.5-2.5c-0.1,0-0.3,0-0.5,0.1l-0.7,0.1l-0.4-0.6
			c-0.4-0.7-0.8-1.4-1.3-2L186.8,37.3z"/>
		<path class="st0" d="M142.6,15.6l-0.3,0.4L142.6,15.6l0.7,0.2c1.8,0.6,3.4-0.7,3.4-2.4c0-0.3-0.1-0.6-0.2-0.9l-0.2-0.6l0.4-0.4
			l-0.4,0.4l-0.7-0.5c-0.5-0.3-1-0.5-1.5-0.5c-1.4,0-2.5,1.1-2.5,2.5c0,0.5,0.2,1.1,0.5,1.5L142.6,15.6z"/>
		<path class="st0" d="M215,101c0,1.7,1.7,3,3.3,2.4l0.9-0.3l0-0.1l0.4-0.5c0.4-0.4,0.5-1,0.5-1.6c0-1.3-1.1-2.4-2.4-2.5l-0.6,0
			l0-0.1l-0.8,0.5C215.5,99.3,215,100.2,215,101z"/>
		<path class="st0" d="M219.3,109.7c0,1.4,1.1,2.5,2.5,2.5c0.2,0,0.4,0,0.6-0.1l0.8-0.2l0,0l0.5-0.5c0.5-0.5,0.7-1.1,0.7-1.8
			c0-0.7-0.3-1.3-0.8-1.8c-0.5-0.5-1.2-0.7-1.9-0.7l-0.7,0l0,0l-0.7,0.5C219.7,108.1,219.3,108.9,219.3,109.7z"/>
		<path class="st0" d="M235.4,139.5c0.1,0.2,0.2,0.4,0.3,0.6l0.3,0.7l-0.6,0.5c-0.6,0.5-0.9,1.2-0.9,2c0,1.4,1.1,2.5,2.5,2.5
			c0.1,0,0.1,0,0.2,0l0.9-0.1l1.5,3.6l-0.6,0.5c-0.6,0.5-0.9,1.2-0.9,1.9c0,1.4,1.1,2.5,2.5,2.5c0,0,0.1,0,0.1,0l0.9-0.1l1.3,3
			l-0.7,0.5c-0.7,0.5-1.2,1.3-1.2,2.1c0,1.4,1.1,2.5,2.5,2.5c0.2,0,0.4,0,0.6-0.1l0.8-0.2l0,0l0.4-0.5c0.4-0.5,0.7-1.1,0.7-1.7
			c0-1.4-1.1-2.5-2.5-2.5l-0.6,0l-1.3-3l0.6-0.5c0.6-0.5,1-1.2,1-2c0-1.4-1.1-2.5-2.5-2.5c-0.1,0-0.1,0-0.2,0l-0.9,0.1l-1.5-3.6
			l0.6-0.5c0.6-0.5,0.9-1.2,0.9-1.9c0-1.4-1.1-2.5-2.5-2.5c-0.1,0-0.1,0-0.2,0l-0.9,0.1l-0.3-0.7
			C235.5,139.9,235.4,139.7,235.4,139.5z"/>
		<path class="st0" d="M154.8,5.2l0.4,0.3c0.9,0.8,2.3,0.8,3.2,0l0.4-0.3l0.5,0.1c0.2,0.1,0.5,0.1,0.7,0.2l0.1,0
			c-0.1,0-0.2-0.1-0.2-0.1L159,5.2l0.3-0.9c0.1-0.3,0.1-0.5,0.1-0.7c0-1.4-1.1-2.5-2.5-2.5s-2.5,1.1-2.5,2.5c0,0.2,0,0.4,0.1,0.7
			l0.3,0.9l-0.9,0.3c0,0-0.1,0-0.1,0c0.2-0.1,0.5-0.2,0.7-0.2L154.8,5.2z"/>
		<path class="st0" d="M147.6,10.6c0.3-0.3,0.7-0.6,1-0.8l0.4-0.3l0.5,0.2c0.1,0,0.3,0.1,0.4,0.1l1.2,0.3l1-0.8
			c0.6-0.5,0.9-1.2,0.9-1.9c0-0.2,0-0.4-0.1-0.6l-0.2-0.9l-0.1,0l-0.5-0.4c-0.5-0.4-1.1-0.7-1.7-0.7c-1.4,0-2.5,1.1-2.5,2.5
			c0,0.5,0.2,1,0.5,1.4l0.5,0.8l-0.7,0.6C148.1,10.3,147.9,10.5,147.6,10.6z"/>
		<path class="st0" d="M177.3,23.2l0.2,0.2c0.3,0.5,0.7,0.9,1,1.4l0.5,0.6l-0.5,0.6c-0.4,0.5-0.6,1-0.6,1.6c0,1.4,1.1,2.5,2.5,2.5
			c0.3,0,0.6-0.1,0.9-0.2l0.7-0.3l0,0l0.4-0.6c0.3-0.4,0.5-1,0.5-1.5c0-1.6-1.6-2.9-3.3-2.4l-0.7,0.2l-0.4-0.6
			c-0.4-0.5-0.8-1-1.1-1.6L177.3,23.2z"/>
		<path class="st0" d="M162.4,10l1.2-0.3c0.1,0,0.3-0.1,0.4-0.1l0.5-0.2l0.4,0.3c0.3,0.2,0.6,0.5,0.9,0.7c-0.2-0.1-0.3-0.3-0.5-0.4
			l-0.7-0.6l0.5-0.8c0.3-0.4,0.5-0.9,0.5-1.4c0-1.4-1.1-2.5-2.5-2.5c-0.6,0-1.2,0.2-1.7,0.7L161,5.9l-0.1,0l-0.2,0.9
			c-0.1,0.2-0.1,0.4-0.1,0.6c0,0.7,0.3,1.4,0.9,1.9L162.4,10z"/>
		<path class="st0" d="M253.8,182.6l-0.7,0.5c-0.7,0.5-1.2,1.3-1.2,2.1c0,1.4,1.1,2.5,2.5,2.5c0.2,0,0.4,0,0.6-0.1l0.8-0.2l0.5,1.2
			l-0.5-1.3l0.5-0.5c0.4-0.5,0.7-1.1,0.7-1.7c0-1.4-1.1-2.5-2.5-2.5L253.8,182.6l-1.3-3.2L253.8,182.6z"/>
		<path class="st0" d="M167.5,11.9l-0.2,0.6c-0.1,0.3-0.2,0.6-0.2,0.9c0,1.7,1.6,3,3.4,2.4l0.6-0.2l0.4,0.4l-0.3-0.4l0.5-0.7
			c0.3-0.5,0.5-1,0.5-1.5c0-1.4-1.1-2.5-2.5-2.5c-0.5,0-1,0.2-1.5,0.5L167.5,11.9l-0.6-0.6c-0.3-0.2-0.5-0.4-0.8-0.7
			c0.3,0.2,0.6,0.5,0.9,0.8L167.5,11.9z"/>
		<path class="st0" d="M103.3,120.2l0.7,0c1.4,0,2.5-1.2,2.5-2.5c0-0.8-0.3-1.5-1-2l-0.5-0.4l0,0l-0.9-0.1c0,0,0,0,0,0
			c-1.5,0-2.6,1.1-2.6,2.5c0,0.9,0.4,1.7,1.2,2.1L103.3,120.2L103.3,120.2z"/>
		<path class="st0" d="M224.6,115.1l-0.7,0.5c-0.7,0.5-1.2,1.3-1.2,2.1c0,1.6,1.5,2.9,3.2,2.4l0.8-0.2l0-0.1l0.4-0.5
			c0.4-0.5,0.6-1,0.6-1.7c0-1.4-1.1-2.5-2.5-2.5L224.6,115.1l-1-2.2L224.6,115.1z"/>
		<path class="st0" d="M212.7,89l-0.7,0.5c-0.7,0.5-1.2,1.3-1.2,2.1c0,1.6,1.5,2.9,3.3,2.4l0.8-0.2l0-0.1l0.4-0.5
			c0.4-0.5,0.6-1.1,0.6-1.6c0-1.4-1.1-2.5-2.5-2.5L212.7,89l-0.3-0.7L212.7,89z"/>
		<path class="st0" d="M226.9,126.3c0,1.5,1.4,2.8,3,2.5l0.8-0.1l0.3,0.7l-0.3-0.7l0.5-0.5c0.5-0.5,0.8-1.2,0.8-1.9
			c0-1.4-1.1-2.5-2.5-2.5l-0.9,0.1l0,0l-0.6,0.5C227.3,124.8,226.9,125.5,226.9,126.3z"/>
		<path class="st0" d="M209.2,81.3l-0.6,0.5c-0.6,0.5-1,1.2-1,2c0,1.4,1.1,2.5,2.5,2.5c0.2,0,0.3,0,0.5-0.1l0.8-0.2l0,0l0.5-0.5
			c0.5-0.5,0.7-1.1,0.7-1.8c0-1.4-1.1-2.5-2.5-2.5L209.2,81.3l-0.3-0.7L209.2,81.3z"/>
		<path class="st0" d="M201.8,65.2l-0.7,0.5c-0.7,0.5-1.1,1.3-1.1,2.1c0,1.4,1.1,2.5,2.5,2.5c0.2,0,0.4,0,0.7-0.1L204,70l0,0
			l0.4-0.5c0.4-0.5,0.7-1.1,0.7-1.7c0-1.4-1.1-2.5-2.5-2.5L201.8,65.2l-0.2-0.5L201.8,65.2z"/>
		<path class="st0" d="M205.3,72.9l-0.5,0.5c-0.5,0.5-0.8,1.2-0.8,1.9c0,1.4,1.1,2.5,2.5,2.5c0.1,0,0.1,0,0.2,0l0.8-0.1l0,0l0.6-0.5
			c0.6-0.5,0.9-1.2,0.9-1.9c0-1.4-1.1-2.5-2.5-2.5c-0.1,0-0.2,0-0.3,0L205.3,72.9l-0.3-0.7L205.3,72.9z"/>
		<path class="st0" d="M135.1,25l-0.1,0.2L135.1,25C135.1,24.9,135.1,25,135.1,25z"/>
		<path class="st0" d="M230.6,134.7c0,1.5,1.4,2.8,2.9,2.5l0.8-0.1l0.4,0.7c0,0,0-0.1,0-0.1l-0.3-0.6l0.5-0.5
			c0.5-0.5,0.8-1.2,0.8-1.9c0-1.4-1.1-2.5-2.5-2.5l-0.9,0.1l0,0l-0.6,0.5C231,133.2,230.6,134,230.6,134.7z"/>
		<path class="st0" d="M154.3,12.1l-0.4-0.4c-0.3-0.4-0.8-0.6-1.3-0.7l-1.2-0.2l-0.9,0.8c-0.6,0.5-0.9,1.2-0.9,1.9
			c0,0.3,0.1,0.7,0.3,1.1l0.3,0.6l0,0l0.7,0.4c0.4,0.3,0.9,0.4,1.3,0.4c1.4,0,2.5-1.1,2.5-2.5c0-0.1,0-0.3-0.1-0.5L154.3,12.1
			L154.3,12.1z"/>
		<path class="st0" d="M72.2,207.1c1.4,0,2.5-1.1,2.5-2.5c0-0.7-0.3-1.3-0.8-1.8l-0.5-0.5l0.3-0.6l-0.3,0.6l-0.7-0.1
			c-0.2,0-0.3-0.1-0.5-0.1c-1.4,0-2.5,1.1-2.5,2.5c0,0.4,0.1,0.8,0.3,1.2l0.4,0.7l0,0l0.6,0.3C71.4,207,71.8,207.1,72.2,207.1z"/>
		<path class="st0" d="M164.1,13.4c0-0.7-0.3-1.4-0.9-1.9l-1-0.8L161,11c-0.5,0.1-0.9,0.3-1.3,0.7l-0.4,0.4l-0.1,0l-0.2,0.9
			c0,0.2-0.1,0.3-0.1,0.5c0,1.4,1.1,2.5,2.5,2.5c0.5,0,0.9-0.1,1.3-0.4l0.7-0.4l0,0l0.3-0.6C164,14.1,164.1,13.8,164.1,13.4z"/>
		<path class="st0" d="M241.4,202c-0.2,0-0.3,0-0.5,0.1l-0.7,0.1l0,0l-0.5,0.5c-0.5,0.5-0.8,1.1-0.8,1.8c0,1.4,1.1,2.5,2.5,2.5
			c0.4,0,0.8-0.1,1.2-0.3l0.6-0.3l0,0l0.4-0.7c0.2-0.4,0.3-0.8,0.3-1.2C243.9,203.1,242.8,202,241.4,202z"/>
		<path class="st0" d="M248.3,176.7c0,1.4,1.1,2.5,2.5,2.5c0.2,0,0.4,0,0.6-0.1l0.8-0.2l0,0l0.5-0.5c0.5-0.5,0.7-1.1,0.7-1.8
			c0-1.4-1.1-2.5-2.5-2.5l-0.7,0l0-0.1l-0.7,0.5C248.8,175.1,248.3,175.9,248.3,176.7z"/>
		<path class="st0" d="M245.1,169.2c0,1.4,1.1,2.5,2.5,2.5c0.2,0,0.4,0,0.6-0.1l0.8-0.2l0,0l0.5-0.5c0.4-0.5,0.7-1.1,0.7-1.7
			c0-1.4-1.1-2.5-2.5-2.5l-0.7,0l0-0.1l-0.7,0.5C245.5,167.5,245.1,168.3,245.1,169.2z"/>
		<path class="st0" d="M98.7,93.7l-0.9,2L98.7,93.7l0.8,0.3c1.7,0.5,3.2-0.8,3.2-2.4c0-0.9-0.4-1.7-1.2-2.1l-0.7-0.5l0,0.1l-0.6,0
			c-1.4,0-2.5,1.1-2.5,2.5c0,0.6,0.2,1.2,0.6,1.6L98.7,93.7z"/>
		<path class="st0" d="M57.8,187.5l-0.6,1.4L57.8,187.5l0.8,0.3c0.2,0.1,0.4,0.1,0.6,0.1c1.4,0,2.5-1.1,2.5-2.5
			c0-0.9-0.4-1.7-1.2-2.1l-0.7-0.5l0,0.1l-0.7,0c-1.4,0-2.5,1.2-2.5,2.5c0,0.7,0.2,1.3,0.7,1.7L57.8,187.5z"/>
		<path class="st0" d="M64.6,171.4L64.6,171.4l0.8,0.3c0.2,0.1,0.4,0.1,0.6,0.1c1.4,0,2.5-1.1,2.5-2.5c0-0.9-0.5-1.7-1.2-2.1
			l-0.7-0.5l0,0.1l-0.7,0c-1.4,0-2.5,1.2-2.5,2.5c0,0.7,0.2,1.3,0.7,1.7L64.6,171.4z"/>
		<path class="st0" d="M61.4,179l-0.3,0.6c0,0.1-0.1,0.2-0.1,0.3L61.4,179l0.8,0.2c0.2,0,0.4,0.1,0.6,0.1c1.4,0,2.5-1.1,2.5-2.5
			c0-0.9-0.4-1.7-1.2-2.1l-0.7-0.5l0.3-0.6l-0.3,0.6l-0.7,0c-1.4,0-2.5,1.1-2.5,2.5c0,0.6,0.3,1.3,0.7,1.8L61.4,179z"/>
		<path class="st0" d="M68.9,207.5l0.1-0.1c0.1-0.1,0.3-0.1,0.4-0.2c-0.1,0-0.2,0.1-0.2,0.1L68.9,207.5z"/>
		<path class="st0" d="M255.7,193.9c0,1.4,1.1,2.5,2.5,2.5l0.2,0l0.9-0.1l0-0.1l0.5-0.4c0.6-0.5,1-1.2,1-2c0-1.4-1.1-2.5-2.5-2.5
			c0,0,0,0-0.1,0l-0.7,0l0,0l-0.7,0.5C256.1,192.3,255.7,193.1,255.7,193.9z"/>
		<path class="st0" d="M244.1,207.1c0.2,0.1,0.3,0.2,0.5,0.3l0.2,0.1l-0.3-0.2C244.3,207.2,244.2,207.2,244.1,207.1z"/>
		<path class="st0" d="M68.7,161.8L68.7,161.8l0.8,0.3c0.2,0.1,0.4,0.1,0.6,0.1c1.4,0,2.5-1.1,2.5-2.5c0-0.9-0.5-1.7-1.2-2.1
			l-0.7-0.5l0.2-0.4l-0.2,0.5l-0.6,0c-1.4,0-2.5,1.2-2.5,2.5c0,0.6,0.2,1.3,0.7,1.7L68.7,161.8z"/>
		<path class="st0" d="M102.3,86.1l-1.2,2.7L102.3,86.1l0.8,0.2c0.2,0,0.4,0.1,0.5,0.1c1.4,0,2.5-1.1,2.5-2.5c0-0.8-0.4-1.5-1-2
			l-0.6-0.5l0,0l-0.8-0.1c0,0,0,0,0,0c-1.4,0-2.6,1.1-2.6,2.5c0,0.7,0.3,1.3,0.7,1.8L102.3,86.1z"/>
		<path class="st0" d="M108.9,71.5c-0.1,0.2-0.2,0.4-0.3,0.6l-0.3,0.7l0.3-0.7C108.7,72,108.8,71.8,108.9,71.5z"/>
		<path class="st0" d="M120,69.8l-0.1,0.2l0.1-0.3c0-0.1,0.1-0.2,0.1-0.3C120.1,69.5,120,69.7,120,69.8z"/>
		<path class="st0" d="M109.7,69.9l-0.3,0.6c0,0,0,0,0,0L109.7,69.9l0.8,0.3c0.2,0.1,0.4,0.1,0.6,0.1c1.4,0,2.5-1.1,2.5-2.5
			c0-0.8-0.4-1.6-1.1-2.1l-0.7-0.5l0,0l-0.8,0c-1.3,0-2.5,1.1-2.5,2.5c0,0.6,0.2,1.2,0.7,1.7L109.7,69.9z"/>
		<path class="st0" d="M86.9,119.8L86.9,119.8l0.8,0.3c1.7,0.5,3.2-0.8,3.2-2.4c0-0.9-0.4-1.7-1.2-2.2l-0.7-0.5l0.2-0.4l-0.2,0.4
			l-0.6,0c-1.4,0-2.5,1.2-2.5,2.5c0,0.6,0.2,1.2,0.6,1.6L86.9,119.8z"/>
		<path class="st0" d="M130.3,31.9l-0.1,0.2l0.2-0.3C130.3,31.8,130.3,31.9,130.3,31.9z"/>
		<path class="st0" d="M219.6,141.7c0,0-0.1,0-0.1,0l-0.8,0.1l-0.3-0.6c-0.2-0.4-0.3-0.7-0.5-1.2c0.2,0.4,0.3,0.7,0.5,1.1l0.3,0.7
			l-0.6,0.5c-0.6,0.5-1,1.2-1,2c0,1.4,1.1,2.5,2.5,2.5c0.1,0,0.2,0,0.3,0l0.8-0.1l0.4,0.7c0,0,0-0.1,0-0.1l-0.3-0.7l0.5-0.5
			c0.5-0.5,0.9-1.2,0.9-1.9C222.1,142.8,221,141.7,219.6,141.7z"/>
		<path class="st0" d="M206.3,99.4c0-1.4-1.1-2.5-2.5-2.5c0,0-0.1,0-0.1,0l-1,0.1l-0.2-0.8c-0.2-0.5-0.3-1.1-0.5-1.6
			c0.2,0.6,0.4,1.2,0.6,1.8l0.2,0.7l-0.5,0.4c-0.6,0.5-0.9,1.2-0.9,2c0,1.3,1,2.4,2.4,2.5l0.7,0l0.2,0.7c0.3,1,0.7,2.1,1,3.2
			l0.2,0.6l-0.5,0.4c-0.6,0.5-0.9,1.2-0.9,2c0,1.4,1.1,2.5,2.4,2.5l0.7,0l0.2,0.7c0.3,0.9,0.6,1.7,0.8,2.5l0.2,0.7l-0.6,0.4
			c-0.6,0.5-1,1.2-1,2c0,1.4,1.1,2.5,2.5,2.5l0.7,0l1.3,3.8l-0.5,0.4c-0.5,0.5-0.8,1.2-0.8,1.9c0,1.3,1,2.4,2.4,2.5l0.6,0l0,0.1
			l0.7-0.4c0.8-0.5,1.3-1.3,1.3-2.2c0-1.4-1.1-2.5-2.5-2.5c-0.1,0-0.2,0-0.3,0l-0.1,0l-0.8,0.1l-1.3-3.7l0.7-0.4
			c0.8-0.5,1.2-1.3,1.2-2.1c0-1.4-1.1-2.5-2.5-2.5l-1,0.1l-0.3-0.8c-0.3-0.8-0.5-1.5-0.8-2.3l-0.3-0.8l0.7-0.4
			c0.8-0.5,1.3-1.3,1.3-2.2c0-1.4-1.1-2.5-2.5-2.5c0,0-0.1,0-0.1,0l-1,0.1l-0.3-0.8c-0.3-0.9-0.6-1.9-0.9-2.9l-0.2-0.8l0.7-0.4
			C205.8,101.2,206.3,100.3,206.3,99.4z"/>
		<path class="st0" d="M231.8,177.9l-0.7-0.1l-0.1-0.4l0.1,0.3l-0.7,0.4c-0.8,0.4-1.3,1.3-1.3,2.2c0,1.4,1.1,2.5,2.5,2.5
			c0,0,0.1,0,0.1,0l1-0.1l1,3l-1-3l0.5-0.4c0.6-0.5,0.9-1.2,0.9-2C234.1,179.1,233.1,178,231.8,177.9z"/>
		<path class="st0" d="M234.8,186.3l-1,0.1l0,0l-0.6,0.4c-0.6,0.5-1,1.2-1,2c0,1.4,1.1,2.5,2.5,2.5l0.7,0l0.3,0.7
			c0.1,0.4,0.3,0.8,0.4,1.1c-0.1-0.3-0.3-0.7-0.4-1l-0.3-0.7l0.7-0.4c0.7-0.5,1.1-1.3,1.1-2.1C237.4,187.5,236.2,186.3,234.8,186.3z
			"/>
		<path class="st0" d="M223.2,151.2l-0.7-0.1l-0.7,0.4c-0.7,0.5-1.2,1.3-1.2,2.2c0,1.4,1.1,2.5,2.5,2.5c0.1,0,0.1,0,0.2,0l1-0.1l0,0
			l0.5-0.4c0.6-0.5,0.9-1.2,0.9-1.9C225.7,152.3,224.5,151.2,223.2,151.2z"/>
		<path class="st0" d="M229,168.8l-0.7-0.1l-0.7,0.4c-0.8,0.4-1.3,1.3-1.3,2.2c0,1.4,1.1,2.5,2.5,2.5c0,0,0.1,0,0.1,0l1-0.1l0,0
			l0.5-0.4c0.6-0.5,0.9-1.2,0.9-2C231.3,170,230.3,168.9,229,168.8z"/>
		<path class="st0" d="M198.2,79.8l-1,0.1l-0.3-0.8l0.3,0.9l-0.5,0.4c-0.6,0.5-1,1.2-1,2c0,1.4,1.1,2.5,2.4,2.5l0.7,0.1l0.7-0.4
			c0.8-0.5,1.2-1.3,1.2-2.2C200.7,81,199.6,79.8,198.2,79.8z"/>
		<path class="st0" d="M225.9,159.2l-0.7,0l-0.8-2.3l0.7,2.2l-0.7,0.4c-0.8,0.5-1.3,1.3-1.3,2.2c0,1.4,1.1,2.5,2.5,2.5l1-0.1l0,0
			l0.5-0.4c0.6-0.5,1-1.2,1-2C228.4,160.4,227.3,159.3,225.9,159.2z"/>
		<path class="st0" d="M127.8,52.1c0.1-0.1,0.1-0.3,0.2-0.4C127.9,51.9,127.9,52,127.8,52.1L127.8,52.1L127.8,52.1z"/>
		<path class="st0" d="M119.8,64.2c0,0.7,0.3,1.4,0.8,1.9l0.5,0.5l-0.2,0.6c-0.1,0.2-0.1,0.3-0.2,0.5c0-0.1,0.1-0.2,0.1-0.3l0.3-0.8
			l0.8,0.1c0.2,0,0.3,0.1,0.4,0.1c1.4,0,2.5-1.1,2.5-2.5c0-0.8-0.4-1.6-1.1-2.1l-0.7-0.5l0.5-1c0.1-0.2,0.2-0.3,0.2-0.5
			c-0.2,0.3-0.3,0.7-0.5,1l-0.3,0.6l-0.8,0C121,61.7,119.8,62.8,119.8,64.2z"/>
		<path class="st0" d="M138.4,31.6C138.4,31.6,138.4,31.6,138.4,31.6l0.2-0.3L138.4,31.6z"/>
		<polygon class="st0" points="149.6,15.6 149.6,15.6 149.6,15.6 		"/>
		<path class="st0" d="M127.3,53l-0.7,0c-0.7-0.1-1.4,0.2-1.9,0.7c-0.5,0.5-0.8,1.1-0.8,1.9c0,0.6,0.2,1.2,0.6,1.7l0.4,0.5l0,0
			l0.8,0.2c0.2,0.1,0.5,0.1,0.7,0.1c1.4,0,2.5-1.1,2.5-2.5c0-0.8-0.4-1.5-1-2L127.3,53L127.3,53z"/>
		<path class="st0" d="M186.3,53l-0.7,0.5c-0.6,0.5-1,1.2-1,2c0,1.6,1.5,2.9,3.2,2.4l0.8-0.2l0.4,0.7c0.1,0.2,0.2,0.3,0.3,0.5
			c-0.1-0.2-0.2-0.4-0.3-0.7l-0.3-0.6l0.5-0.5c0.4-0.5,0.6-1.1,0.6-1.7c0-1.4-1.1-2.5-2.5-2.5L186.3,53L186.3,53z"/>
		<path class="st0" d="M180.2,46c0,1.4,1.1,2.5,2.5,2.5c0.2,0,0.3,0,0.5-0.1l0.8-0.1l0.3,0.7c0.4,0.8,0.8,1.6,1.2,2.4
			c-0.4-0.8-0.8-1.6-1.2-2.4l-0.3-0.6l0.5-0.5c0.5-0.5,0.8-1.1,0.8-1.8c0-1.4-1.1-2.5-2.5-2.5c-0.1,0-0.2,0-0.3,0l-0.7,0.1l-0.4-0.6
			l0.3,0.6l-0.6,0.5C180.5,44.6,180.2,45.3,180.2,46z"/>
		<path class="st0" d="M168.8,22.9l0.7-0.3l0.8,1.1c-0.1-0.1-0.2-0.2-0.3-0.4l-0.5-0.7l0.4-0.6c0.3-0.4,0.4-0.9,0.4-1.4
			c0-1.6-1.6-2.9-3.3-2.4l-0.6,0.2l0,0l-0.5,0.6c-0.4,0.5-0.6,1.1-0.6,1.6C165.3,22.3,167.1,23.7,168.8,22.9z"/>
		<path class="st0" d="M216.2,133c-0.1,0-0.2,0-0.3,0l-0.8,0.1l-0.4-0.7c0,0,0-0.1,0-0.1c0,0.1,0.1,0.2,0.1,0.3l0.2,0.6l-0.5,0.5
			c-0.5,0.5-0.8,1.2-0.8,1.9c0,1.4,1.1,2.5,2.5,2.5l0.8,0l0,0l0.7-0.5c0.7-0.5,1.1-1.3,1.1-2.1C218.7,134.2,217.6,133,216.2,133z"/>
		<path class="st0" d="M175.1,37.9c0,1.8,1.9,3.1,3.6,2.3l0.9-0.4l0.4,0.9c0,0,0,0.1,0.1,0.1c-0.1-0.2-0.2-0.4-0.3-0.6l-0.3-0.5
			l0.3-0.5c0.2-0.4,0.3-0.8,0.3-1.3c0-1.3-1-2.4-2.4-2.5l-0.6,0l-0.4-0.7c0,0,0-0.1,0-0.1l0.3,0.7l-0.8,0.5
			C175.6,36.2,175.1,37,175.1,37.9z"/>
		<path class="st0" d="M189.8,60c-0.1-0.1-0.1-0.3-0.2-0.4C189.6,59.7,189.7,59.9,189.8,60c0,0,0,0.1,0.1,0.1
			C189.8,60.1,189.8,60,189.8,60z"/>
		<path class="st0" d="M194.6,70.5l-0.7-0.1l-0.7,0.4c-0.7,0.5-1.2,1.3-1.2,2.2c0,1.4,1.1,2.5,2.5,2.5c0,0,0.1,0,0.1,0l1-0.1
			l0.2,0.7c0,0,0,0,0-0.1l-0.2-0.7l0.5-0.4c0.6-0.5,0.9-1.2,0.9-2C197.1,71.6,196,70.5,194.6,70.5z"/>
		<path class="st0" d="M200.7,88l-0.9,0.1l-0.5-1.5l0.5,1.6l-0.6,0.4c-0.7,0.5-1,1.2-1,2c0,1.4,1.1,2.5,2.5,2.5l0.7,0l0.2,0.7
			c0,0,0,0,0,0l-0.2-0.7l0.7-0.4c0.7-0.5,1.2-1.3,1.2-2.1C203.2,89.1,202.1,88,200.7,88z"/>
		<path class="st0" d="M172.2,26.5l-0.6,0.5c-0.5,0.5-0.8,1.1-0.8,1.9c0,1.7,1.7,3,3.4,2.4l0.7-0.3l0,0l0.4-0.6
			c0.3-0.4,0.5-1,0.5-1.5c0-1.4-1.1-2.5-2.5-2.5c-0.1,0-0.3,0-0.4,0L172.2,26.5l-0.1-0.3L172.2,26.5z"/>
		<path class="st0" d="M213.7,129.7c0.1,0.3,0.3,0.7,0.4,1C213.9,130.4,213.8,130,213.7,129.7L213.7,129.7z"/>
		<path class="st0" d="M191.3,61.7h-0.6l-0.3-0.5l0.2,0.5l-0.7,0.5c-0.7,0.5-1.1,1.3-1.1,2.1c0,1.4,1.1,2.5,2.5,2.5
			c0.1,0,0.2,0,0.3,0l0.8-0.1l0.4,0.8c0-0.1,0-0.1-0.1-0.2l-0.2-0.6l0.5-0.5c0.5-0.5,0.8-1.2,0.8-1.9
			C193.8,62.8,192.7,61.7,191.3,61.7z"/>
	</g>
</g>
<g id="lines">
	<g>
		<path class="st1" d="M304.3,449.3c-1.2-13.6-2.5-29-2.5-44.7c0-28.1-4.1-80.1-5.4-83.5c-3-7.8-12.7-9-18.8-8.9
			c2.3-2.2,4.7-5.8,4.7-11.5c0-5.9-1.6-8.5-2.8-10.6c-0.9-1.5-1.5-2.5-1.5-4.6c0-2.1,0.7-4.5,1.6-7.4c1.3-4.2,2.9-9.5,2.9-16.4
			c0-9.2-7.3-30-28-41.7c2.3-3.2,3.6-8.5,4.3-12.1c0.2-0.2,0.3-0.5,0.5-0.8c0.2,0,0.4,0.1,0.7,0.1c2,0,3.5-1.6,3.5-3.5
			c0-1.6-1.1-2.9-2.5-3.4c0-1.2-0.1-2.4-0.4-3.6c0.8-0.6,1.4-1.7,1.4-2.8c0-2-1.6-3.5-3.5-3.5c0,0-0.1,0-0.1,0l-1.2-2.7
			c0.6-0.6,1-1.5,1-2.4c0-1.9-1.6-3.5-3.5-3.5l-1.1-2.5c0.6-0.6,1-1.5,1-2.4c0-1.9-1.6-3.5-3.5-3.5l-0.7-1.6c0.6-0.6,1-1.5,1-2.4
			c0-1.9-1.6-3.5-3.5-3.5l-1.6-3.7c0.6-0.6,0.9-1.5,0.9-2.4c0-1.9-1.6-3.5-3.5-3.5l-0.7-1.7c0.8-0.6,1.3-1.6,1.3-2.8
			c0-2-1.6-3.5-3.5-3.5c-0.2,0-0.3,0-0.5,0l-0.9-2.2c0.8-0.6,1.3-1.6,1.3-2.7c0-2-1.6-3.5-3.5-3.5c-0.1,0-0.3,0-0.4,0l-1-2.4
			c0.7-0.6,1.1-1.6,1.1-2.6c0-2-1.6-3.5-3.5-3.5c-0.1,0-0.2,0-0.3,0c-0.3-0.8-0.7-1.6-1-2.4c0.7-0.6,1.1-1.6,1.1-2.6
			c0-2-1.6-3.5-3.5-3.5c-0.1,0-0.2,0-0.3,0c-0.4-0.9-0.8-1.8-1.3-2.8c0.5-0.6,0.9-1.4,0.9-2.3c0-1.9-1.6-3.5-3.5-3.5l-0.9-2
			c0.6-0.6,1-1.5,1-2.5c0-2-1.6-3.5-3.5-3.5c-0.1,0-0.1,0-0.2,0l-1.4-3c0.5-0.6,0.8-1.3,0.8-2.2c0-1.9-1.5-3.4-3.3-3.5l-1.7-3.6
			c0.5-0.6,0.9-1.4,0.9-2.3c0-1.9-1.6-3.5-3.5-3.5l-0.8-1.8c0.6-0.6,1-1.5,1-2.5c0-2-1.6-3.5-3.5-3.5c-0.1,0-0.2,0-0.2,0l-1.1-2.3
			c0.8-0.6,1.3-1.6,1.3-2.7c0-2-1.6-3.5-3.5-3.5c-0.2,0-0.4,0-0.6,0.1l-0.8-1.7c0.6-0.6,0.9-1.4,0.9-2.4c0-2-1.6-3.5-3.5-3.5
			c0,0-0.1,0-0.1,0l-1.1-2.4c0.8-0.6,1.3-1.6,1.3-2.7c0-2-1.6-3.5-3.5-3.5c-0.3,0-0.5,0-0.7,0.1c-0.4-0.7-0.8-1.6-1.3-2.5
			c0.6-0.6,1-1.5,1-2.4c0-2-1.6-3.5-3.5-3.5c-0.2,0-0.5,0-0.7,0.1c-0.5-0.8-1-1.7-1.5-2.6c0.5-0.6,0.8-1.4,0.8-2.3
			c0-2-1.6-3.5-3.5-3.5c-0.2,0-0.5,0-0.7,0.1c-0.4-0.7-0.8-1.4-1.3-2c0.4-0.6,0.7-1.3,0.7-2.1c0-2-1.6-3.5-3.5-3.5
			c-0.3,0-0.5,0-0.7,0.1c-0.3-0.5-0.6-1-1-1.5c0.5-0.6,0.7-1.3,0.7-2.1c0-2-1.6-3.5-3.5-3.5c-0.4,0-0.7,0.1-1,0.2
			c-0.4-0.5-0.8-1.1-1.2-1.6c0.4-0.6,0.6-1.3,0.6-2c0-2-1.6-3.5-3.5-3.5c-0.4,0-0.9,0.1-1.3,0.2c-0.6-0.7-1.1-1.3-1.7-2
			c0.5-0.6,0.7-1.3,0.7-2.1c0-2-1.6-3.5-3.5-3.5c-0.8,0-1.5,0.3-2.1,0.7c-0.5-0.4-1-0.9-1.5-1.3c0.4-0.6,0.6-1.3,0.6-2
			c0-2-1.6-3.5-3.5-3.5c-0.9,0-1.8,0.4-2.4,0.9c-0.2-0.1-0.4-0.1-0.5-0.2c0.1-0.3,0.2-0.6,0.2-1c0-2-1.6-3.5-3.5-3.5
			s-3.5,1.6-3.5,3.5c0,0.3,0.1,0.7,0.2,1c-0.2,0.1-0.3,0.1-0.5,0.2c-0.6-0.6-1.5-1-2.4-1c-2,0-3.5,1.6-3.5,3.5c0,0.8,0.2,1.5,0.6,2
			c-0.5,0.4-1,0.8-1.5,1.3c-0.6-0.4-1.3-0.7-2.1-0.7c-2,0-3.5,1.6-3.5,3.5c0,0.8,0.3,1.5,0.7,2.1c-0.6,0.6-1.1,1.3-1.7,2
			c-0.4-0.2-0.8-0.2-1.3-0.2c-2,0-3.5,1.6-3.5,3.5c0,0.7,0.2,1.4,0.6,2c-0.4,0.5-0.8,1-1.2,1.6c-0.3-0.1-0.7-0.2-1-0.2
			c-2,0-3.5,1.6-3.5,3.5c0,0.8,0.3,1.5,0.7,2.1c-0.3,0.5-0.6,1-1,1.5c-0.2-0.1-0.5-0.1-0.7-0.1c-2,0-3.5,1.6-3.5,3.5
			c0,0.8,0.3,1.5,0.7,2.1c-0.4,0.7-0.8,1.4-1.3,2c-0.2,0-0.5-0.1-0.7-0.1c-2,0-3.5,1.6-3.5,3.5c0,0.9,0.3,1.7,0.8,2.3
			c-0.5,0.9-1,1.8-1.5,2.6c-0.2,0-0.5-0.1-0.7-0.1c-2,0-3.5,1.6-3.5,3.5c0,0.9,0.4,1.8,1,2.4c-0.5,0.9-0.9,1.7-1.3,2.5
			c-0.2-0.1-0.5-0.1-0.7-0.1c-2,0-3.5,1.6-3.5,3.5c0,1.1,0.5,2.1,1.3,2.7l-1.1,2.4c0,0-0.1,0-0.1,0c-2,0-3.5,1.6-3.5,3.5
			c0,0.9,0.4,1.7,0.9,2.4l-0.8,1.7c-0.2,0-0.4-0.1-0.6-0.1c-2,0-3.5,1.6-3.5,3.5c0,1.1,0.5,2,1.3,2.7l-1.1,2.3c-0.1,0-0.2,0-0.2,0
			c-2,0-3.5,1.6-3.5,3.5c0,1,0.4,1.8,1,2.5l-0.8,1.8c-1.9,0-3.5,1.6-3.5,3.5c0,0.9,0.3,1.7,0.9,2.3l-1.7,3.6
			c-1.9,0.1-3.3,1.6-3.3,3.5c0,0.8,0.3,1.6,0.8,2.2l-1.4,3c-0.1,0-0.1,0-0.2,0c-2,0-3.5,1.6-3.5,3.5c0,1,0.4,1.8,1,2.5l-0.9,2
			c-1.9,0-3.5,1.6-3.5,3.5c0,0.9,0.3,1.7,0.9,2.3c-0.4,1-0.9,1.9-1.3,2.8c-0.1,0-0.2,0-0.3,0c-2,0-3.5,1.6-3.5,3.5
			c0,1,0.4,1.9,1.1,2.6l-1,2.4c-0.1,0-0.2,0-0.3,0c-2,0-3.5,1.6-3.5,3.5c0,1,0.4,1.9,1.1,2.6l-1,2.4c-0.1,0-0.3,0-0.4,0
			c-2,0-3.5,1.6-3.5,3.5c0,1.1,0.5,2,1.3,2.7l-0.9,2.2c-0.2,0-0.3,0-0.5,0c-2,0-3.5,1.6-3.5,3.5c0,1.1,0.5,2.1,1.3,2.8l-0.7,1.7
			c-1.9,0-3.5,1.6-3.5,3.5c0,0.9,0.4,1.8,0.9,2.4l-1.6,3.7c-1.9,0-3.5,1.6-3.5,3.5c0,0.9,0.4,1.8,1,2.4l-0.7,1.6
			c-1.9,0-3.5,1.6-3.5,3.5c0,0.9,0.4,1.8,1,2.4l-1.1,2.5c-1.9,0-3.5,1.6-3.5,3.5c0,0.9,0.4,1.8,1,2.4l-1.2,2.7c0,0-0.1,0-0.1,0
			c-2,0-3.5,1.6-3.5,3.5c0,1.1,0.6,2.2,1.4,2.8c-0.3,1.2-0.4,2.4-0.4,3.6c-1.5,0.4-2.5,1.8-2.5,3.4c0,2,1.6,3.5,3.5,3.5
			c0.2,0,0.5,0,0.7-0.1c0.3,0.5,0.5,0.9,0.9,1.3c0.7,2.5,1.8,5.7,3.5,8.2c-26.1,10.6-35.1,34.9-35.1,45.1c0,6.9,1.6,12.2,2.9,16.4
			c0.9,2.8,1.6,5.3,1.6,7.4c0,2-0.6,3.1-1.5,4.6c-1.3,2.1-2.8,4.7-2.8,10.6c0,5.7,2.4,9.3,4.7,11.5c-6.2-0.1-15.8,1-18.8,8.9
			c-1.3,3.4-5.4,55.5-5.4,83.5c0,15.7-1.3,31.1-2.5,44.7c-0.9,11-1.8,21.4-1.8,30c0,18.8,0.2,23.1,7,31.3
			c3.8,4.6,11.1,15.5,18.2,26.1c4.7,7,9.1,13.6,12.4,18.2c8.4,11.7,10.4,14,24.9,14h181.1c14.5,0,16.5-2.2,24.9-14
			c3.3-4.6,7.7-11.2,12.4-18.2c7.1-10.6,14.4-21.5,18.2-26.1c6.8-8.2,7-12.5,7-31.3C306.1,470.6,305.2,460.3,304.3,449.3z
			 M243.9,215.4c1.3-6.3,4.7-11.8,5.8-13.4c4,0.5,6.6,1.9,7.6,2.5c-0.1,0.6-0.2,1.5-0.4,2.7c-0.1,0.1-0.1,0.2-0.2,0.2l0.1,0.1
			c-0.7,3.5-2,8.7-4.1,11.6C249.9,217.7,247,216.5,243.9,215.4z M150.9,203.5c-0.3,0-0.5,0.2-0.5,0.5v1.5c-0.3,0-0.6,0-1,0
			c-0.2-0.1-0.4-0.2-0.6-0.2c-1,0-1.5-1-1.5-1.7c0-0.4,1.6-1.7,6-1.7c4.1,0,5.5,1,5.5,1.5c0,1.6-0.6,2.2-2.2,2.2c0,0,0,0,0,0
			c-0.3,0-0.6,0-0.9,0V204c0-0.3-0.2-0.5-0.5-0.5s-0.5,0.2-0.5,0.5v1.5h-3.3V204C151.4,203.7,151.2,203.5,150.9,203.5z M153.3,199.9
			c-4.7,0-8,1.5-8,3.7c0,0.7,0.2,1.4,0.6,2c-19.6,0.4-54.6,3-75,7.5c-0.4-1.7-0.9-3.3-1.4-4.8c0.4-0.2,0.7-0.4,1.1-0.7
			c0.5,0.3,1.1,0.5,1.7,0.5c2,0,3.5-1.6,3.5-3.5c0-1-0.4-1.9-1.1-2.5c0.2-0.3,0.3-0.6,0.5-0.9c0.2,0,0.3,0.1,0.5,0.1
			c2,0,3.5-1.6,3.5-3.5c0-1.1-0.5-2.1-1.3-2.8c0.3-0.8,0.6-1.6,0.9-2.5c0,0,0,0,0,0c2,0,3.5-1.6,3.5-3.5c0-1.1-0.6-2.1-1.4-2.8
			c0.2-0.7,0.5-1.4,0.7-2.1c0.1,0,0.3,0,0.4,0c2,0,3.5-1.6,3.5-3.5c0-1.3-0.8-2.5-1.9-3.1c0.3-0.8,0.5-1.7,0.8-2.5
			c0.1,0,0.2,0,0.4,0c2,0,3.5-1.6,3.5-3.5c0-1.3-0.8-2.5-1.9-3.1c0.3-1,0.6-2,0.9-2.9c0.1,0,0.2,0,0.3,0c2,0,3.5-1.6,3.5-3.5
			c0-1.3-0.7-2.4-1.8-3c0.2-0.5,0.3-1,0.5-1.5c0.1,0,0.3,0,0.4,0c2,0,3.5-1.6,3.5-3.5c0-1.3-0.7-2.4-1.7-3c0.4-1,0.8-2,1.1-3
			c0.2,0,0.4,0.1,0.5,0.1c2,0,3.5-1.6,3.5-3.5c0-1.1-0.5-2.1-1.3-2.7c0.3-0.7,0.7-1.5,1.1-2.4c0,0,0.1,0,0.1,0c2,0,3.5-1.6,3.5-3.5
			c0-1-0.5-2-1.2-2.6c0.4-1,0.8-2.1,1.2-3.1c1.9-0.1,3.3-1.6,3.3-3.5c0-1-0.4-1.9-1.1-2.6c0.3-0.8,0.6-1.7,0.9-2.5
			c1.9,0,3.5-1.6,3.5-3.5c0-1.1-0.5-2.1-1.3-2.8c0.3-0.8,0.6-1.7,0.9-2.6c1.9-0.1,3.4-1.6,3.4-3.5c0-1.1-0.5-2.1-1.3-2.7
			c0.3-1.1,0.7-2.1,1-3.2c1.9-0.1,3.3-1.6,3.3-3.5c0-1.1-0.5-2.1-1.3-2.7l0.9-2.7c1.9,0,3.5-1.6,3.5-3.5c0-1.2-0.6-2.2-1.4-2.8
			l0.6-1.8c1.9-0.1,3.4-1.6,3.4-3.5c0-1.1-0.5-2.1-1.4-2.8c0.4-1.1,0.7-2.1,1-3.1c0.1,0,0.2,0,0.4,0c2,0,3.5-1.6,3.5-3.5
			c0-1.3-0.7-2.4-1.7-3c0.3-0.8,0.6-1.6,0.8-2.3c0.2,0,0.4,0.1,0.6,0.1c2,0,3.5-1.6,3.5-3.5c0-1.2-0.6-2.3-1.5-2.9
			c0.1-0.3,0.3-0.6,0.4-0.8c0.2-0.5,0.5-1,0.8-1.6c0.3,0.1,0.6,0.1,0.9,0.1c2,0,3.5-1.6,3.5-3.5c0-1.2-0.6-2.2-1.4-2.8
			c0.5-1,1.1-2.1,1.6-3.3c0.2,0,0.5,0.1,0.7,0.1c2,0,3.5-1.6,3.5-3.5c0-1-0.5-2-1.2-2.6c0.4-0.8,0.8-1.5,1.2-2.3
			c0.5,0.2,1,0.4,1.5,0.4c2,0,3.5-1.6,3.5-3.5c0-1.3-0.7-2.4-1.8-3.1c0.1-0.2,0.2-0.3,0.3-0.5c0.4-0.8,0.7-1.5,1.1-2.1
			c0.4,0.1,0.8,0.2,1.2,0.2c2,0,3.5-1.6,3.5-3.5c0-1-0.5-2-1.2-2.6c0.4-0.7,0.8-1.2,1.3-1.9c0.1-0.2,0.3-0.4,0.4-0.6
			c0.4,0.2,0.9,0.3,1.4,0.3c2,0,3.5-1.6,3.5-3.5c0-0.9-0.3-1.7-0.9-2.3c0.7-0.8,1.1-1.3,1.7-1.9c0.5,0.3,1.2,0.5,1.9,0.5
			c2,0,3.5-1.6,3.5-3.5c0-0.2,0-0.5-0.1-0.7c0.3-0.1,0.5-0.1,0.8-0.1h0.9c0.3,0,0.5,0,0.8,0.1c0,0.2-0.1,0.4-0.1,0.7
			c0,2,1.6,3.5,3.5,3.5c0.7,0,1.3-0.2,1.9-0.5c0.6,0.6,1,1.1,1.7,1.9c-0.5,0.6-0.9,1.4-0.9,2.3c0,2,1.6,3.5,3.5,3.5
			c0.5,0,1-0.1,1.4-0.3c0.1,0.2,0.3,0.4,0.4,0.6c0.5,0.6,0.9,1.2,1.3,1.9c-0.7,0.6-1.2,1.6-1.2,2.6c0,2,1.6,3.5,3.5,3.5
			c0.4,0,0.8-0.1,1.2-0.2c0.4,0.6,0.8,1.4,1.1,2.1c0.1,0.2,0.2,0.3,0.3,0.5c-1.1,0.6-1.8,1.7-1.8,3.1c0,2,1.6,3.5,3.5,3.5
			c0.6,0,1.1-0.1,1.5-0.4c0.4,0.8,0.8,1.5,1.2,2.3c-0.7,0.6-1.2,1.6-1.2,2.6c0,2,1.6,3.5,3.5,3.5c0.2,0,0.5,0,0.7-0.1
			c0.6,1.1,1.1,2.2,1.6,3.3c-0.9,0.6-1.4,1.7-1.4,2.8c0,2,1.6,3.5,3.5,3.5c0.3,0,0.6-0.1,0.9-0.1c0.3,0.6,0.6,1.1,0.8,1.6
			c0.1,0.2,0.3,0.5,0.4,0.8c-0.9,0.6-1.5,1.7-1.5,2.9c0,2,1.6,3.5,3.5,3.5c0.2,0,0.4,0,0.6-0.1c0.3,0.7,0.6,1.5,0.8,2.3
			c-1,0.6-1.7,1.7-1.7,3c0,2,1.6,3.5,3.5,3.5c0.1,0,0.2,0,0.4,0c0.3,1,0.7,2,1,3.1c-0.8,0.6-1.4,1.6-1.4,2.8c0,1.9,1.5,3.5,3.4,3.5
			l0.6,1.8c-0.9,0.6-1.4,1.7-1.4,2.8c0,1.9,1.6,3.5,3.5,3.5l0.9,2.7c-0.8,0.6-1.3,1.6-1.3,2.7c0,1.9,1.5,3.4,3.3,3.5
			c0.3,1.1,0.7,2.1,1,3.2c-0.8,0.6-1.3,1.6-1.3,2.7c0,1.9,1.5,3.4,3.4,3.5c0.3,0.9,0.6,1.7,0.9,2.6c-0.8,0.6-1.3,1.6-1.3,2.8
			c0,1.9,1.6,3.5,3.5,3.5c0.3,0.8,0.6,1.7,0.9,2.5c-0.7,0.6-1.1,1.6-1.1,2.6c0,1.9,1.5,3.4,3.3,3.5c0.4,1.1,0.8,2.1,1.2,3.1
			c-0.7,0.6-1.2,1.6-1.2,2.6c0,2,1.6,3.5,3.5,3.5c0,0,0.1,0,0.1,0c0.4,0.9,0.7,1.7,1.1,2.4c-0.8,0.6-1.3,1.6-1.3,2.7
			c0,2,1.6,3.5,3.5,3.5c0.2,0,0.4,0,0.5-0.1c0.4,0.9,0.8,1.9,1.1,3c-1,0.6-1.7,1.7-1.7,3c0,2,1.6,3.5,3.5,3.5c0.1,0,0.3,0,0.4,0
			c0.2,0.5,0.3,1,0.5,1.5c-1,0.6-1.8,1.7-1.8,3c0,2,1.6,3.5,3.5,3.5c0.1,0,0.2,0,0.3,0c0.3,1,0.6,2,0.9,2.9
			c-1.1,0.6-1.9,1.8-1.9,3.1c0,2,1.6,3.5,3.5,3.5c0.1,0,0.2,0,0.4,0c0.3,0.8,0.5,1.7,0.8,2.5c-1.1,0.6-1.9,1.8-1.9,3.1
			c0,2,1.6,3.5,3.5,3.5c0.1,0,0.3,0,0.4,0c0.2,0.7,0.5,1.4,0.7,2.1c-0.8,0.6-1.4,1.7-1.4,2.8c0,2,1.6,3.5,3.5,3.5c0,0,0,0,0,0
			c0.3,0.9,0.6,1.7,0.9,2.5c-0.8,0.6-1.3,1.6-1.3,2.8c0,2,1.6,3.5,3.5,3.5c0.2,0,0.3,0,0.5-0.1c0.2,0.3,0.3,0.6,0.5,0.9
			c-0.7,0.6-1.1,1.5-1.1,2.5c0,2,1.6,3.5,3.5,3.5c0.6,0,1.2-0.2,1.7-0.5c0.3,0.3,0.6,0.5,1,0.6c-0.8,2-1.6,4.2-2.1,6.6
			c-18.3-5.6-59.7-8.7-81.6-9.2c0.3-0.6,0.5-1.3,0.5-2.2C160.8,202.4,160.1,199.9,153.3,199.9z M73.8,204.5c0,0.8-0.7,1.5-1.5,1.5
			c-0.8,0-1.5-0.7-1.5-1.5c0-0.8,0.7-1.5,1.5-1.5C73.1,203,73.8,203.7,73.8,204.5z M77.2,197.6c0,0.8-0.7,1.5-1.5,1.5
			c-0.8,0-1.5-0.7-1.5-1.5c0-0.8,0.7-1.5,1.5-1.5C76.5,196.1,77.2,196.8,77.2,197.6z M78.8,187.3c0.8,0,1.5,0.7,1.5,1.5
			c0,0.8-0.7,1.5-1.5,1.5c-0.8,0-1.5-0.7-1.5-1.5C77.3,188,78,187.3,78.8,187.3z M82.1,178.9c0.8,0,1.5,0.7,1.5,1.5
			c0,0.8-0.7,1.5-1.5,1.5c-0.8,0-1.5-0.7-1.5-1.5C80.6,179.6,81.2,178.9,82.1,178.9z M84.9,169.8c0.8,0,1.5,0.7,1.5,1.5
			c0,0.8-0.7,1.5-1.5,1.5c-0.8,0-1.5-0.7-1.5-1.5C83.4,170.5,84.1,169.8,84.9,169.8z M87.8,160.2c0.8,0,1.5,0.7,1.5,1.5
			c0,0.8-0.7,1.5-1.5,1.5c-0.8,0-1.5-0.7-1.5-1.5C86.3,160.9,87,160.2,87.8,160.2z M90.5,152.1c0.8,0,1.5,0.7,1.5,1.5
			c0,0.8-0.7,1.5-1.5,1.5c-0.8,0-1.5-0.7-1.5-1.5C89,152.8,89.7,152.1,90.5,152.1z M94.1,142.7c0.8,0,1.5,0.7,1.5,1.5
			c0,0.8-0.7,1.5-1.5,1.5c-0.8,0-1.5-0.7-1.5-1.5C92.5,143.4,93.2,142.7,94.1,142.7z M99,135.6c0,0.8-0.7,1.5-1.5,1.5
			c-0.8,0-1.5-0.7-1.5-1.5c0-0.8,0.7-1.5,1.5-1.5C98.3,134,99,134.7,99,135.6z M102.3,126.3c0,0.8-0.7,1.5-1.5,1.5
			c-0.8,0-1.5-0.7-1.5-1.5c0-0.8,0.7-1.5,1.5-1.5C101.6,124.8,102.3,125.5,102.3,126.3z M105.5,117.7c0,0.8-0.7,1.5-1.5,1.5
			c-0.8,0-1.5-0.7-1.5-1.5c0-0.8,0.7-1.5,1.5-1.5C104.9,116.2,105.5,116.8,105.5,117.7z M108.4,108.9c0,0.8-0.7,1.5-1.5,1.5
			c-0.8,0-1.5-0.7-1.5-1.5c0-0.8,0.7-1.5,1.5-1.5C107.7,107.3,108.4,108,108.4,108.9z M111.5,99.4c0,0.8-0.7,1.5-1.5,1.5
			c-0.8,0-1.5-0.7-1.5-1.5c0-0.8,0.7-1.5,1.5-1.5C110.8,97.9,111.5,98.6,111.5,99.4z M113,89c0.8,0,1.5,0.7,1.5,1.5
			c0,0.8-0.7,1.5-1.5,1.5c-0.8,0-1.5-0.7-1.5-1.5C111.4,89.7,112.1,89,113,89z M117,82.4c0,0.8-0.7,1.5-1.5,1.5
			c-0.8,0-1.5-0.7-1.5-1.5c0-0.8,0.7-1.5,1.5-1.5C116.3,80.8,117,81.5,117,82.4z M119.1,71.4c0.8,0,1.5,0.7,1.5,1.5
			c0,0.8-0.7,1.5-1.5,1.5c-0.8,0-1.5-0.7-1.5-1.5C117.5,72.1,118.2,71.4,119.1,71.4z M126.5,54c0.8,0,1.5,0.7,1.5,1.5
			c0,0.8-0.7,1.5-1.5,1.5c-0.8,0-1.5-0.7-1.5-1.5C125,54.7,125.6,54,126.5,54z M122.4,62.7c0.8,0,1.5,0.7,1.5,1.5
			c0,0.8-0.7,1.5-1.5,1.5c-0.8,0-1.5-0.7-1.5-1.5C120.8,63.3,121.5,62.7,122.4,62.7z M132.5,46c0,0.8-0.7,1.5-1.5,1.5
			c-0.8,0-1.5-0.7-1.5-1.5c0-0.8,0.7-1.5,1.5-1.5C131.8,44.4,132.5,45.1,132.5,46z M136,36.4c0.8,0,1.5,0.7,1.5,1.5
			c0,0.8-0.7,1.5-1.5,1.5c-0.8,0-1.5-0.7-1.5-1.5C134.5,37,135.2,36.4,136,36.4z M141.9,28.9c0,0.8-0.7,1.5-1.5,1.5
			s-1.5-0.7-1.5-1.5c0-0.8,0.7-1.5,1.5-1.5S141.9,28,141.9,28.9z M147.4,20.6c0,0.8-0.7,1.5-1.5,1.5s-1.5-0.7-1.5-1.5
			c0-0.8,0.7-1.5,1.5-1.5S147.4,19.8,147.4,20.6z M154.1,7.3c0-0.3,0-0.6-0.1-0.8c0.2-0.1,0.4-0.1,0.6-0.2c0.6,0.5,1.4,0.8,2.2,0.8
			c0.8,0,1.6-0.3,2.2-0.8c0.2,0.1,0.4,0.1,0.6,0.2c-0.1,0.3-0.1,0.5-0.1,0.8c0,1.1,0.5,2,1.2,2.7c-0.7,0.1-1.3,0.5-1.8,1
			c-0.6-0.2-1.2-0.3-1.7-0.3h-0.9c-0.6,0-1.2,0.1-1.7,0.3c-0.5-0.5-1.1-0.8-1.8-1C153.6,9.3,154.1,8.4,154.1,7.3z M161.5,15
			c-0.8,0-1.5-0.7-1.5-1.5c0-0.8,0.7-1.5,1.5-1.5s1.5,0.7,1.5,1.5C163.1,14.3,162.4,15,161.5,15z M150.6,13.4c0-0.8,0.7-1.5,1.5-1.5
			s1.5,0.7,1.5,1.5c0,0.8-0.7,1.5-1.5,1.5S150.6,14.3,150.6,13.4z M167.8,22.1c-0.8,0-1.5-0.7-1.5-1.5c0-0.8,0.7-1.5,1.5-1.5
			s1.5,0.7,1.5,1.5C169.3,21.4,168.6,22.1,167.8,22.1z M173.3,30.4c-0.8,0-1.5-0.7-1.5-1.5c0-0.8,0.7-1.5,1.5-1.5s1.5,0.7,1.5,1.5
			C174.8,29.7,174.1,30.4,173.3,30.4z M177.6,39.4c-0.8,0-1.5-0.7-1.5-1.5c0-0.8,0.7-1.5,1.5-1.5s1.5,0.7,1.5,1.5
			C179.2,38.7,178.5,39.4,177.6,39.4z M182.7,47.5c-0.8,0-1.5-0.7-1.5-1.5c0-0.8,0.7-1.5,1.5-1.5s1.5,0.7,1.5,1.5
			C184.2,46.8,183.5,47.5,182.7,47.5z M191.3,65.7c-0.8,0-1.5-0.7-1.5-1.5c0-0.8,0.7-1.5,1.5-1.5s1.5,0.7,1.5,1.5
			C192.8,65,192.1,65.7,191.3,65.7z M187.2,57.1c-0.8,0-1.5-0.7-1.5-1.5c0-0.8,0.7-1.5,1.5-1.5s1.5,0.7,1.5,1.5
			C188.7,56.4,188,57.1,187.2,57.1z M194.6,74.5c-0.8,0-1.5-0.7-1.5-1.5c0-0.8,0.7-1.5,1.5-1.5s1.5,0.7,1.5,1.5
			C196.1,73.8,195.4,74.5,194.6,74.5z M198.2,83.9c-0.8,0-1.5-0.7-1.5-1.5c0-0.8,0.7-1.5,1.5-1.5s1.5,0.7,1.5,1.5
			C199.7,83.2,199,83.9,198.2,83.9z M200.7,92.1c-0.8,0-1.5-0.7-1.5-1.5c0-0.8,0.7-1.5,1.5-1.5s1.5,0.7,1.5,1.5
			C202.2,91.4,201.5,92.1,200.7,92.1z M203.7,101c-0.8,0-1.5-0.7-1.5-1.5c0-0.8,0.7-1.5,1.5-1.5s1.5,0.7,1.5,1.5
			C205.3,100.3,204.6,101,203.7,101z M206.8,110.4c-0.8,0-1.5-0.7-1.5-1.5c0-0.8,0.7-1.5,1.5-1.5s1.5,0.7,1.5,1.5
			C208.3,109.7,207.6,110.4,206.8,110.4z M209.6,119.2c-0.8,0-1.5-0.7-1.5-1.5c0-0.8,0.7-1.5,1.5-1.5s1.5,0.7,1.5,1.5
			C211.2,118.5,210.5,119.2,209.6,119.2z M212.9,127.8c-0.8,0-1.5-0.7-1.5-1.5c0-0.8,0.7-1.5,1.5-1.5s1.5,0.7,1.5,1.5
			C214.4,127.2,213.7,127.8,212.9,127.8z M216.2,137.1c-0.8,0-1.5-0.7-1.5-1.5c0-0.8,0.7-1.5,1.5-1.5s1.5,0.7,1.5,1.5
			C217.7,136.4,217,137.1,216.2,137.1z M219.6,145.8c-0.8,0-1.5-0.7-1.5-1.5c0-0.8,0.7-1.5,1.5-1.5s1.5,0.7,1.5,1.5
			C221.1,145.1,220.4,145.8,219.6,145.8z M223.1,155.2c-0.8,0-1.5-0.7-1.5-1.5c0-0.8,0.7-1.5,1.5-1.5s1.5,0.7,1.5,1.5
			C224.7,154.5,224,155.2,223.1,155.2z M225.8,163.3c-0.8,0-1.5-0.7-1.5-1.5c0-0.8,0.7-1.5,1.5-1.5s1.5,0.7,1.5,1.5
			C227.4,162.6,226.7,163.3,225.8,163.3z M228.7,172.8c-0.8,0-1.5-0.7-1.5-1.5c0-0.8,0.7-1.5,1.5-1.5s1.5,0.7,1.5,1.5
			C230.3,172.2,229.6,172.8,228.7,172.8z M231.6,182c-0.8,0-1.5-0.7-1.5-1.5c0-0.8,0.7-1.5,1.5-1.5s1.5,0.7,1.5,1.5
			C233.1,181.3,232.4,182,231.6,182z M234.8,190.4c-0.8,0-1.5-0.7-1.5-1.5c0-0.8,0.7-1.5,1.5-1.5s1.5,0.7,1.5,1.5
			C236.4,189.7,235.7,190.4,234.8,190.4z M238,199.1c-0.8,0-1.5-0.7-1.5-1.5c0-0.8,0.7-1.5,1.5-1.5s1.5,0.7,1.5,1.5
			C239.5,198.4,238.8,199.1,238,199.1z M241.4,206.1c-0.8,0-1.5-0.7-1.5-1.5c0-0.8,0.7-1.5,1.5-1.5s1.5,0.7,1.5,1.5
			C242.9,205.4,242.2,206.1,241.4,206.1z M261.4,203.7c0,0.8-0.7,1.5-1.5,1.5c-0.2,0-0.5-0.1-0.7-0.2c0.1-0.5,0.1-0.9,0.1-1
			c0-0.3-0.1-0.7-0.4-0.9c0,0-0.2-0.1-0.4-0.3c0.3-0.5,0.8-0.8,1.3-0.8C260.7,202.2,261.4,202.9,261.4,203.7z M259.8,193.9
			c0,0.8-0.7,1.5-1.5,1.5s-1.5-0.7-1.5-1.5c0-0.8,0.7-1.5,1.5-1.5S259.8,193.1,259.8,193.9z M256,185.2c0,0.8-0.7,1.5-1.5,1.5
			s-1.5-0.7-1.5-1.5c0-0.8,0.7-1.5,1.5-1.5S256,184.4,256,185.2z M252.4,176.7c0,0.8-0.7,1.5-1.5,1.5s-1.5-0.7-1.5-1.5
			c0-0.8,0.7-1.5,1.5-1.5S252.4,175.9,252.4,176.7z M249.2,169.2c0,0.8-0.7,1.5-1.5,1.5s-1.5-0.7-1.5-1.5c0-0.8,0.7-1.5,1.5-1.5
			S249.2,168.3,249.2,169.2z M245,159.6c0,0.8-0.7,1.5-1.5,1.5s-1.5-0.7-1.5-1.5c0-0.8,0.7-1.5,1.5-1.5S245,158.7,245,159.6z
			 M242.2,151.6c0,0.8-0.7,1.5-1.5,1.5s-1.5-0.7-1.5-1.5c0-0.8,0.7-1.5,1.5-1.5S242.2,150.7,242.2,151.6z M238.5,143.2
			c0,0.8-0.7,1.5-1.5,1.5s-1.5-0.7-1.5-1.5c0-0.8,0.7-1.5,1.5-1.5S238.5,142.3,238.5,143.2z M234.7,134.7c0,0.8-0.7,1.5-1.5,1.5
			s-1.5-0.7-1.5-1.5c0-0.8,0.7-1.5,1.5-1.5S234.7,133.9,234.7,134.7z M231,126.3c0,0.8-0.7,1.5-1.5,1.5s-1.5-0.7-1.5-1.5
			c0-0.8,0.7-1.5,1.5-1.5S231,125.5,231,126.3z M226.8,117.7c0,0.8-0.7,1.5-1.5,1.5s-1.5-0.7-1.5-1.5c0-0.8,0.7-1.5,1.5-1.5
			S226.8,116.8,226.8,117.7z M223.4,109.7c0,0.8-0.7,1.5-1.5,1.5s-1.5-0.7-1.5-1.5c0-0.8,0.7-1.5,1.5-1.5S223.4,108.9,223.4,109.7z
			 M219.1,101.1c0,0.8-0.7,1.5-1.5,1.5s-1.5-0.7-1.5-1.5c0-0.8,0.7-1.5,1.5-1.5S219.1,100.2,219.1,101.1z M214.9,91.6
			c0,0.8-0.7,1.5-1.5,1.5s-1.5-0.7-1.5-1.5c0-0.8,0.7-1.5,1.5-1.5S214.9,90.8,214.9,91.6z M211.6,83.8c0,0.8-0.7,1.5-1.5,1.5
			s-1.5-0.7-1.5-1.5c0-0.8,0.7-1.5,1.5-1.5S211.6,82.9,211.6,83.8z M208,75.2c0,0.8-0.7,1.5-1.5,1.5s-1.5-0.7-1.5-1.5
			c0-0.8,0.7-1.5,1.5-1.5S208,74.4,208,75.2z M204.1,67.7c0,0.8-0.7,1.5-1.5,1.5s-1.5-0.7-1.5-1.5c0-0.8,0.7-1.5,1.5-1.5
			S204.1,66.9,204.1,67.7z M200.7,59.1c0,0.8-0.7,1.5-1.5,1.5s-1.5-0.7-1.5-1.5c0-0.8,0.7-1.5,1.5-1.5S200.7,58.3,200.7,59.1z
			 M196.1,50.8c0,0.8-0.7,1.5-1.5,1.5s-1.5-0.7-1.5-1.5c0-0.8,0.7-1.5,1.5-1.5S196.1,49.9,196.1,50.8z M191.2,42.4
			c0,0.8-0.7,1.5-1.5,1.5s-1.5-0.7-1.5-1.5c0-0.8,0.7-1.5,1.5-1.5S191.2,41.6,191.2,42.4z M186.5,34.8c0,0.8-0.7,1.5-1.5,1.5
			s-1.5-0.7-1.5-1.5c0-0.8,0.7-1.5,1.5-1.5S186.5,34,186.5,34.8z M184.9,38.3c0.4,0,0.8-0.1,1.2-0.2c0.4,0.6,0.7,1.2,1.1,1.8
			c-0.7,0.6-1.1,1.5-1.1,2.5c0,2,1.6,3.5,3.5,3.5c0.4,0,0.7-0.1,1-0.2c0.5,0.8,0.9,1.6,1.4,2.4c-0.7,0.6-1.1,1.5-1.1,2.5
			c0,2,1.6,3.5,3.5,3.5c0.3,0,0.6,0,0.8-0.1c0.5,0.9,0.9,1.7,1.3,2.4c-0.6,0.6-1,1.5-1,2.5c0,2,1.6,3.5,3.5,3.5c0.1,0,0.2,0,0.4,0
			l1,2.2c-0.9,0.6-1.5,1.7-1.5,2.9c0,2,1.6,3.5,3.5,3.5c0.3,0,0.6-0.1,0.9-0.1l0.7,1.5c-0.7,0.6-1.2,1.6-1.2,2.6
			c0,2,1.6,3.5,3.5,3.5c0.2,0,0.3,0,0.4,0l1,2.2c-0.9,0.6-1.4,1.7-1.4,2.8c0,2,1.6,3.5,3.5,3.5c0.3,0,0.5,0,0.8-0.1l0.7,1.4
			c-1,0.6-1.6,1.7-1.6,3c0,2,1.6,3.5,3.5,3.5c0.3,0,0.7-0.1,1-0.2l1.4,3c-1,0.6-1.8,1.7-1.8,3c0,2,1.6,3.5,3.5,3.5
			c0.4,0,0.8-0.1,1.1-0.2l1.1,2.5c-0.9,0.6-1.5,1.7-1.5,2.9c0,2,1.6,3.5,3.5,3.5c0.3,0,0.5,0,0.8-0.1l0.7,1.5c-1,0.6-1.6,1.7-1.6,3
			c0,2,1.6,3.5,3.5,3.5c0.3,0,0.7-0.1,1-0.2c0.4,0.8,0.7,1.6,1.1,2.4c-0.8,0.6-1.4,1.7-1.4,2.8c0,2,1.6,3.5,3.5,3.5
			c0.2,0,0.4,0,0.6-0.1c0.3,0.7,0.6,1.4,0.9,2.2c-0.9,0.6-1.4,1.7-1.4,2.8c0,2,1.6,3.5,3.5,3.5c0.2,0,0.4,0,0.6-0.1l1,2.2
			c-0.8,0.6-1.3,1.6-1.3,2.7c0,2,1.6,3.5,3.5,3.5c0.1,0,0.3,0,0.4,0l1,2.2c-0.8,0.6-1.2,1.6-1.2,2.7c0,2,1.6,3.5,3.5,3.5
			c0.1,0,0.2,0,0.3,0l0.6,1.5c-1,0.6-1.7,1.7-1.7,3c0,2,1.6,3.5,3.5,3.5c0.3,0,0.6,0,0.9-0.1l1.4,3.2c-1,0.6-1.6,1.7-1.6,3
			c0,2,1.6,3.5,3.5,3.5c0.3,0,0.6,0,0.8-0.1l0.5,1.2c-1,0.6-1.6,1.7-1.6,3c0,2,1.6,3.5,3.5,3.5c0.3,0,0.5,0,0.8-0.1l0.9,2.1
			c-1,0.6-1.7,1.7-1.7,3c0,2,1.6,3.5,3.5,3.5c0.3,0,0.6,0,0.8-0.1l1,2.4c-0.9,0.6-1.5,1.7-1.5,2.9c0,2,1.6,3.5,3.5,3.5
			c0.1,0,0.2,0,0.2,0c0.2,1,0.3,2,0.3,2.9c-0.9,0.3-1.6,0.8-2,1.6c-1.6-0.8-4.1-1.7-7.5-2c-0.4,0-0.7,0.1-0.9,0.4
			c-0.1,0.2-1.8,2.5-3.5,6.1c-0.1-0.1-0.3-0.1-0.4-0.2c0.3-0.5,0.4-1.1,0.4-1.7c0-2-1.6-3.5-3.5-3.5c-0.2,0-0.5,0-0.7,0.1
			c-0.1-0.3-0.3-0.5-0.4-0.8c0.7-0.6,1.2-1.6,1.2-2.6c0-2-1.6-3.5-3.5-3.5c-0.1,0-0.2,0-0.3,0c-0.3-0.7-0.6-1.5-0.9-2.3
			c1-0.6,1.6-1.7,1.6-2.9c0-2-1.6-3.5-3.5-3.5c-0.1,0-0.2,0-0.3,0c-0.2-0.7-0.5-1.5-0.7-2.2c0.8-0.6,1.3-1.6,1.3-2.7
			c0-1.9-1.4-3.4-3.3-3.5c-0.3-1-0.6-1.9-0.9-2.9c0.8-0.6,1.3-1.6,1.3-2.7c0-1.8-1.4-3.4-3.2-3.5c-0.3-1.1-0.7-2.2-1-3.3
			c0.8-0.6,1.3-1.6,1.3-2.8c0-1.9-1.5-3.4-3.4-3.5c-0.2-0.6-0.4-1.2-0.6-1.9c0.8-0.6,1.3-1.6,1.3-2.7c0-1.9-1.5-3.5-3.5-3.5
			c-0.4-1.2-0.9-2.3-1.3-3.3c0.7-0.6,1.2-1.6,1.2-2.6c0-2-1.6-3.5-3.5-3.5c-0.1,0-0.2,0-0.4,0c-0.3-0.7-0.7-1.5-1-2.3
			c0.9-0.6,1.5-1.7,1.5-2.9c0-2-1.6-3.5-3.5-3.5c-0.2,0-0.4,0-0.6,0.1c-0.3-0.9-0.7-1.8-1-2.7c1.1-0.6,1.8-1.7,1.8-3.1
			c0-2-1.6-3.5-3.5-3.5c-0.2,0-0.4,0-0.6,0.1c-0.2-0.7-0.5-1.4-0.7-2.1c1-0.6,1.7-1.7,1.7-3c0-2-1.6-3.5-3.5-3.5c-0.1,0-0.2,0-0.3,0
			c-0.3-0.8-0.5-1.5-0.8-2.3c1.1-0.6,1.8-1.7,1.8-3c0-2-1.6-3.5-3.5-3.5c-0.1,0-0.2,0-0.4,0c-0.3-1-0.6-1.9-0.9-2.9
			c1.1-0.6,1.8-1.7,1.8-3.1c0-2-1.6-3.5-3.5-3.5c-0.1,0-0.2,0-0.4,0l-0.8-2.4c1-0.6,1.7-1.7,1.7-3c0-2-1.6-3.5-3.5-3.5
			c-0.1,0-0.1,0-0.2,0l-0.5-1.6c1-0.6,1.7-1.7,1.7-3c0-2-1.6-3.5-3.5-3.5c-0.1,0-0.2,0-0.3,0c-0.4-1.1-0.7-2.1-1-3.1
			c0.8-0.6,1.3-1.6,1.3-2.7c0-1.9-1.6-3.5-3.5-3.5c-0.3-0.9-0.7-1.8-1-2.7c0.7-0.6,1.1-1.6,1.1-2.6c0-2-1.6-3.5-3.5-3.5
			c0,0-0.1,0-0.1,0c-0.2-0.4-0.4-0.8-0.5-1.1c-0.3-0.5-0.6-1.1-0.9-1.7c0.6-0.6,0.9-1.4,0.9-2.3c0-2-1.6-3.5-3.5-3.5
			c-0.1,0-0.2,0-0.2,0c-0.6-1.1-1.1-2.3-1.7-3.5c0.7-0.6,1.1-1.5,1.1-2.5c0-2-1.6-3.5-3.5-3.5c-0.2,0-0.4,0-0.6,0.1
			c-0.5-0.9-1-1.9-1.5-2.8c0.3-0.5,0.5-1.1,0.5-1.8c0-1.9-1.5-3.4-3.3-3.5c-0.2-0.3-0.3-0.6-0.5-0.9c-0.4-0.8-0.8-1.7-1.3-2.4
			c0.5-0.6,0.7-1.3,0.7-2.1c0-2-1.6-3.5-3.5-3.5c-0.2,0-0.4,0-0.6,0.1c-0.5-0.8-1-1.5-1.5-2.2c-0.2-0.2-0.3-0.4-0.5-0.7
			c0.4-0.6,0.6-1.2,0.6-1.9c0-2-1.6-3.5-3.5-3.5c-0.4,0-0.7,0.1-1,0.2c-0.8-1-1.3-1.6-2-2.3c0.2-0.5,0.3-1,0.3-1.5
			c0-1.1-0.5-2-1.2-2.7c0.2,0,0.4-0.1,0.5-0.2c0.6,0.5,1.2,1,1.9,1.6c-0.1,0.4-0.2,0.8-0.2,1.3c0,2,1.6,3.5,3.5,3.5
			c0.4,0,0.8-0.1,1.2-0.2c0.6,0.6,1.1,1.3,1.7,2c-0.4,0.6-0.7,1.3-0.7,2.1c0,2,1.6,3.5,3.5,3.5c0.5,0,0.9-0.1,1.3-0.3
			c0.3,0.5,0.7,0.9,1,1.4c-0.5,0.6-0.8,1.4-0.8,2.3c0,2,1.6,3.5,3.5,3.5c0.4,0,0.8-0.1,1.2-0.2c0.3,0.4,0.5,0.8,0.8,1.2
			c-0.6,0.6-1,1.5-1,2.5C181.4,36.8,183,38.3,184.9,38.3z M182,27.8c0,0.8-0.7,1.5-1.5,1.5s-1.5-0.7-1.5-1.5c0-0.8,0.7-1.5,1.5-1.5
			S182,26.9,182,27.8z M176.9,20.8c0,0.8-0.7,1.5-1.5,1.5s-1.5-0.7-1.5-1.5c0-0.8,0.7-1.5,1.5-1.5S176.9,20,176.9,20.8z M169.6,11.9
			c0.8,0,1.5,0.7,1.5,1.5c0,0.8-0.7,1.5-1.5,1.5s-1.5-0.7-1.5-1.5C168.1,12.6,168.7,11.9,169.6,11.9z M163.1,5.8
			c0.8,0,1.5,0.7,1.5,1.5c0,0.8-0.7,1.5-1.5,1.5s-1.5-0.7-1.5-1.5C161.6,6.5,162.3,5.8,163.1,5.8z M156.8,2c0.8,0,1.5,0.7,1.5,1.5
			c0,0.8-0.7,1.5-1.5,1.5s-1.5-0.7-1.5-1.5C155.3,2.7,156,2,156.8,2z M150.5,5.8c0.8,0,1.5,0.7,1.5,1.5c0,0.8-0.7,1.5-1.5,1.5
			S149,8.2,149,7.3C149,6.5,149.7,5.8,150.5,5.8z M144.1,11.9c0.8,0,1.5,0.7,1.5,1.5c0,0.8-0.7,1.5-1.5,1.5c-0.8,0-1.5-0.7-1.5-1.5
			C142.5,12.6,143.2,11.9,144.1,11.9z M138.3,19.3c0.8,0,1.5,0.7,1.5,1.5c0,0.8-0.7,1.5-1.5,1.5c-0.8,0-1.5-0.7-1.5-1.5
			C136.8,20,137.5,19.3,138.3,19.3z M133.2,26.2c0.8,0,1.5,0.7,1.5,1.5c0,0.8-0.7,1.5-1.5,1.5c-0.8,0-1.5-0.7-1.5-1.5
			C131.7,26.9,132.4,26.2,133.2,26.2z M128.7,33.3c0.8,0,1.5,0.7,1.5,1.5c0,0.8-0.7,1.5-1.5,1.5c-0.8,0-1.5-0.7-1.5-1.5
			C127.2,34,127.9,33.3,128.7,33.3z M124,40.9c0.8,0,1.5,0.7,1.5,1.5c0,0.8-0.7,1.5-1.5,1.5c-0.8,0-1.5-0.7-1.5-1.5
			C122.4,41.6,123.1,40.9,124,40.9z M119.1,49.2c0.8,0,1.5,0.7,1.5,1.5c0,0.8-0.7,1.5-1.5,1.5c-0.8,0-1.5-0.7-1.5-1.5
			C117.5,49.9,118.2,49.2,119.1,49.2z M114.5,57.6c0.8,0,1.5,0.7,1.5,1.5c0,0.8-0.7,1.5-1.5,1.5c-0.8,0-1.5-0.7-1.5-1.5
			C113,58.3,113.7,57.6,114.5,57.6z M111.1,66.2c0.8,0,1.5,0.7,1.5,1.5c0,0.8-0.7,1.5-1.5,1.5c-0.8,0-1.5-0.7-1.5-1.5
			C109.6,66.9,110.3,66.2,111.1,66.2z M107.2,73.7c0.8,0,1.5,0.7,1.5,1.5c0,0.8-0.7,1.5-1.5,1.5c-0.8,0-1.5-0.7-1.5-1.5
			C105.6,74.4,106.3,73.7,107.2,73.7z M103.6,82.2c0.8,0,1.5,0.7,1.5,1.5c0,0.8-0.7,1.5-1.5,1.5c-0.8,0-1.5-0.7-1.5-1.5
			C102,82.9,102.7,82.2,103.6,82.2z M100.2,90.1c0.8,0,1.5,0.7,1.5,1.5c0,0.8-0.7,1.5-1.5,1.5c-0.8,0-1.5-0.7-1.5-1.5
			C98.7,90.8,99.4,90.1,100.2,90.1z M96.1,99.5c0.8,0,1.5,0.7,1.5,1.5c0,0.8-0.7,1.5-1.5,1.5c-0.8,0-1.5-0.7-1.5-1.5
			C94.6,100.2,95.2,99.5,96.1,99.5z M91.8,108.2c0.8,0,1.5,0.7,1.5,1.5c0,0.8-0.7,1.5-1.5,1.5c-0.8,0-1.5-0.7-1.5-1.5
			C90.2,108.9,90.9,108.2,91.8,108.2z M88.4,116.2c0.8,0,1.5,0.7,1.5,1.5c0,0.8-0.7,1.5-1.5,1.5c-0.8,0-1.5-0.7-1.5-1.5
			C86.9,116.8,87.6,116.2,88.4,116.2z M84.2,124.8c0.8,0,1.5,0.7,1.5,1.5c0,0.8-0.7,1.5-1.5,1.5c-0.8,0-1.5-0.7-1.5-1.5
			C82.7,125.5,83.4,124.8,84.2,124.8z M80.5,133.2c0.8,0,1.5,0.7,1.5,1.5c0,0.8-0.7,1.5-1.5,1.5c-0.8,0-1.5-0.7-1.5-1.5
			C79,133.9,79.7,133.2,80.5,133.2z M76.7,141.6c0.8,0,1.5,0.7,1.5,1.5c0,0.8-0.7,1.5-1.5,1.5c-0.8,0-1.5-0.7-1.5-1.5
			C75.2,142.3,75.9,141.6,76.7,141.6z M73,150c0.8,0,1.5,0.7,1.5,1.5c0,0.8-0.7,1.5-1.5,1.5c-0.8,0-1.5-0.7-1.5-1.5
			C71.5,150.7,72.2,150,73,150z M70.2,158c0.8,0,1.5,0.7,1.5,1.5c0,0.8-0.7,1.5-1.5,1.5c-0.8,0-1.5-0.7-1.5-1.5
			C68.6,158.7,69.3,158,70.2,158z M66,167.6c0.8,0,1.5,0.7,1.5,1.5c0,0.8-0.7,1.5-1.5,1.5c-0.8,0-1.5-0.7-1.5-1.5
			C64.5,168.3,65.2,167.6,66,167.6z M62.8,175.2c0.8,0,1.5,0.7,1.5,1.5c0,0.8-0.7,1.5-1.5,1.5c-0.8,0-1.5-0.7-1.5-1.5
			C61.2,175.9,61.9,175.2,62.8,175.2z M59.2,183.7c0.8,0,1.5,0.7,1.5,1.5c0,0.8-0.7,1.5-1.5,1.5c-0.8,0-1.5-0.7-1.5-1.5
			C57.7,184.4,58.4,183.7,59.2,183.7z M55.4,192.4c0.8,0,1.5,0.7,1.5,1.5c0,0.8-0.7,1.5-1.5,1.5c-0.8,0-1.5-0.7-1.5-1.5
			C53.8,193.1,54.5,192.4,55.4,192.4z M55.4,197.5c2,0,3.5-1.6,3.5-3.5c0-1.2-0.6-2.3-1.5-2.9l1-2.4c0.3,0.1,0.5,0.1,0.8,0.1
			c2,0,3.5-1.6,3.5-3.5c0-1.3-0.7-2.4-1.7-3l0.9-2.1c0.3,0.1,0.5,0.1,0.8,0.1c2,0,3.5-1.6,3.5-3.5c0-1.2-0.6-2.3-1.6-3l0.5-1.2
			c0.3,0.1,0.5,0.1,0.8,0.1c2,0,3.5-1.6,3.5-3.5c0-1.3-0.7-2.3-1.6-3l1.4-3.2c0.3,0.1,0.6,0.1,0.9,0.1c2,0,3.5-1.6,3.5-3.5
			c0-1.3-0.7-2.4-1.7-3l0.6-1.5c0.1,0,0.2,0,0.3,0c2,0,3.5-1.6,3.5-3.5c0-1.1-0.5-2-1.2-2.7l1-2.2c0.1,0,0.3,0,0.4,0
			c2,0,3.5-1.6,3.5-3.5c0-1.1-0.5-2.1-1.3-2.7l1-2.2c0.2,0,0.4,0.1,0.6,0.1c2,0,3.5-1.6,3.5-3.5c0-1.1-0.6-2.2-1.4-2.8l0.9-2.2
			c0.2,0,0.4,0.1,0.6,0.1c2,0,3.5-1.6,3.5-3.5c0-1.1-0.6-2.2-1.4-2.8c0.3-0.8,0.7-1.6,1.1-2.4c0.3,0.1,0.6,0.2,1,0.2
			c2,0,3.5-1.6,3.5-3.5c0-1.3-0.7-2.4-1.6-3l0.7-1.5c0.3,0.1,0.5,0.1,0.8,0.1c2,0,3.5-1.6,3.5-3.5c0-1.2-0.6-2.2-1.5-2.9l1.1-2.5
			c0.4,0.1,0.7,0.2,1.1,0.2c2,0,3.5-1.6,3.5-3.5c0-1.3-0.7-2.4-1.8-3l1.4-3c0.3,0.1,0.6,0.2,1,0.2c2,0,3.5-1.6,3.5-3.5
			c0-1.2-0.6-2.3-1.6-3l0.7-1.4c0.2,0.1,0.5,0.1,0.8,0.1c2,0,3.5-1.6,3.5-3.5c0-1.2-0.6-2.2-1.4-2.8l1-2.2c0.1,0,0.3,0,0.4,0
			c2,0,3.5-1.6,3.5-3.5c0-1-0.5-2-1.2-2.6l0.7-1.5c0.3,0.1,0.6,0.1,0.9,0.1c2,0,3.5-1.6,3.5-3.5c0-1.2-0.6-2.3-1.5-2.9l1-2.2
			c0.1,0,0.2,0,0.4,0c2,0,3.5-1.6,3.5-3.5c0-1-0.4-1.9-1-2.5c0.4-0.7,0.8-1.5,1.3-2.4c0.3,0.1,0.5,0.1,0.8,0.1c2,0,3.5-1.6,3.5-3.5
			c0-1-0.4-1.9-1.1-2.5c0.4-0.8,0.9-1.6,1.4-2.4c0.3,0.1,0.7,0.2,1,0.2c2,0,3.5-1.6,3.5-3.5c0-1-0.4-1.9-1.1-2.5
			c0.4-0.6,0.7-1.2,1.1-1.8c0.4,0.1,0.8,0.2,1.2,0.2c2,0,3.5-1.6,3.5-3.5c0-1-0.4-1.9-1-2.5c0.3-0.4,0.5-0.8,0.8-1.2
			c0.4,0.1,0.8,0.2,1.2,0.2c2,0,3.5-1.6,3.5-3.5c0-0.9-0.3-1.7-0.8-2.3c0.3-0.5,0.7-1,1-1.4c0.4,0.2,0.9,0.3,1.3,0.3
			c2,0,3.5-1.6,3.5-3.5c0-0.8-0.3-1.5-0.7-2.1c0.6-0.7,1.1-1.4,1.7-2c0.4,0.1,0.8,0.2,1.2,0.2c2,0,3.5-1.6,3.5-3.5
			c0-0.4-0.1-0.9-0.2-1.3c0.6-0.6,1.3-1.1,1.9-1.6c0.2,0.1,0.4,0.1,0.5,0.2c-0.7,0.6-1.2,1.6-1.2,2.7c0,0.5,0.1,1,0.3,1.5
			c-0.7,0.7-1.2,1.3-2,2.3c-0.3-0.1-0.7-0.2-1-0.2c-2,0-3.5,1.6-3.5,3.5c0,0.7,0.2,1.4,0.6,1.9c-0.2,0.2-0.3,0.4-0.5,0.7
			c-0.5,0.7-1,1.4-1.5,2.2c-0.2,0-0.4-0.1-0.6-0.1c-2,0-3.5,1.6-3.5,3.5c0,0.8,0.3,1.5,0.7,2.1c-0.5,0.8-0.9,1.6-1.3,2.4
			c-0.1,0.3-0.3,0.6-0.5,0.9c-1.8,0.1-3.3,1.6-3.3,3.5c0,0.6,0.2,1.2,0.5,1.8c-0.5,1-1,1.9-1.5,2.8c-0.2,0-0.4-0.1-0.6-0.1
			c-2,0-3.5,1.6-3.5,3.5c0,1,0.4,1.9,1.1,2.5c-0.6,1.2-1.2,2.4-1.7,3.5c-0.1,0-0.2,0-0.2,0c-2,0-3.5,1.6-3.5,3.5
			c0,0.9,0.3,1.7,0.9,2.3c-0.3,0.6-0.6,1.2-0.9,1.7c-0.2,0.3-0.3,0.7-0.5,1.1c0,0-0.1,0-0.1,0c-2,0-3.5,1.6-3.5,3.5
			c0,1,0.4,1.9,1.1,2.6c-0.3,0.8-0.6,1.7-1,2.7c-1.9,0-3.5,1.6-3.5,3.5c0,1.1,0.5,2.1,1.3,2.7c-0.3,1-0.7,2.1-1,3.1
			c-0.1,0-0.2,0-0.3,0c-2,0-3.5,1.6-3.5,3.5c0,1.3,0.7,2.4,1.7,3l-0.5,1.6c-0.1,0-0.1,0-0.2,0c-2,0-3.5,1.6-3.5,3.5
			c0,1.3,0.7,2.4,1.7,3l-0.8,2.4c-0.1,0-0.2,0-0.4,0c-2,0-3.5,1.6-3.5,3.5c0,1.3,0.7,2.5,1.8,3.1c-0.3,1-0.6,1.9-0.9,2.9
			c-0.1,0-0.2,0-0.4,0c-2,0-3.5,1.6-3.5,3.5c0,1.3,0.7,2.4,1.8,3c-0.3,0.8-0.5,1.5-0.8,2.3c-0.1,0-0.2,0-0.3,0c-2,0-3.5,1.6-3.5,3.5
			c0,1.3,0.7,2.4,1.7,3c-0.3,0.7-0.5,1.4-0.7,2.1c-0.2,0-0.4-0.1-0.6-0.1c-2,0-3.5,1.6-3.5,3.5c0,1.3,0.7,2.4,1.8,3.1
			c-0.3,0.9-0.7,1.8-1,2.7c-0.2,0-0.4-0.1-0.6-0.1c-2,0-3.5,1.6-3.5,3.5c0,1.2,0.6,2.3,1.5,2.9c-0.3,0.8-0.7,1.6-1,2.3
			c-0.1,0-0.2,0-0.4,0c-2,0-3.5,1.6-3.5,3.5c0,1,0.5,2,1.2,2.6c-0.4,1-0.8,2.1-1.3,3.3c-1.9,0-3.5,1.6-3.5,3.5c0,1.1,0.5,2,1.3,2.7
			c-0.2,0.6-0.4,1.2-0.6,1.9c-1.9,0.1-3.4,1.6-3.4,3.5c0,1.1,0.5,2.1,1.3,2.8c-0.3,1.1-0.7,2.2-1,3.3c-1.8,0.2-3.2,1.7-3.2,3.5
			c0,1.1,0.5,2.1,1.3,2.7c-0.3,1-0.6,1.9-0.9,2.9c-1.8,0.1-3.3,1.7-3.3,3.5c0,1.1,0.5,2.1,1.3,2.7c-0.2,0.7-0.5,1.5-0.7,2.2
			c-0.1,0-0.2,0-0.3,0c-2,0-3.5,1.6-3.5,3.5c0,1.2,0.6,2.3,1.6,2.9c-0.3,0.8-0.6,1.6-0.9,2.3c-0.1,0-0.2,0-0.3,0
			c-2,0-3.5,1.6-3.5,3.5c0,1.1,0.5,2,1.2,2.6c-0.1,0.3-0.3,0.5-0.4,0.8c-0.2,0-0.4-0.1-0.7-0.1c-2,0-3.5,1.6-3.5,3.5
			c0,0.6,0.2,1.2,0.4,1.7c-0.2,0.1-0.3,0.2-0.5,0.3c-1.6-3.7-3.3-6-3.4-6.1c-0.2-0.3-0.5-0.4-0.9-0.4c-3.4,0.3-5.9,1.2-7.5,2
			c-0.5-0.8-1.2-1.3-2-1.6c0-1,0.1-1.9,0.3-2.9C55.2,197.4,55.3,197.5,55.4,197.5z M52.3,203.7c0-0.8,0.7-1.5,1.5-1.5
			c0.6,0,1,0.3,1.3,0.8c-0.2,0.2-0.4,0.3-0.4,0.3c-0.3,0.2-0.4,0.6-0.4,0.9c0,0.1,0.1,0.4,0.2,0.9c-0.2,0.1-0.5,0.2-0.7,0.2
			C53,205.3,52.3,204.6,52.3,203.7z M56.5,204.5c1-0.6,3.6-2,7.5-2.5c0.9,1.4,3.6,5.7,4.9,11.5c-1.7,0.4-3.4,0.9-4.9,1.3
			c-1.1,0.3-2.2,0.7-3.3,1.1C58.1,212.2,56.8,206.4,56.5,204.5z M26.9,300.6c0-5,1.2-7.1,2.4-9c1-1.6,2-3.3,2-6.1
			c0-2.5-0.8-5.2-1.7-8.2c-1.3-4.3-2.8-9.1-2.8-15.5c0-10.1,9.6-35.3,38.2-44.1c18.2-5.6,63.2-9.1,86.2-9.1h3.8
			c23,0,68,3.6,86.2,9.1c28.6,8.8,38.2,33.9,38.2,44.1c0,6.5-1.5,11.3-2.8,15.5c-0.9,3-1.7,5.7-1.7,8.2c0,2.9,1,4.5,2,6.1
			c1.2,2,2.4,4,2.4,9c0,7.4-4.8,10.4-6.8,11.6c-0.3,0.2-0.5,0.3-0.7,0.5c-3.4,1.4-5.6,1.7-13-0.1c-2.6-0.6-4.7-2.3-6.2-4.9
			c-2.3-4.1-2.7-9.7-1-15.5c1.3-4.3,2.9-7.1,4.5-9.8c2.2-3.7,4.2-7.2,4.2-13.3c0-5.1-1.9-30.8-40.4-37.2
			c-27.4-4.6-40.8-5.6-56.8-5.8c0-0.4,0-0.8-0.1-1.1c1,0,2.1,0,3.1,0.1l0-1c-1.1,0-2.1,0-3.2-0.1c-0.7-3.7-2.8-6.9-5.8-8.5
			c-0.6-1.6-2.2-2.8-4-2.8c-1.8,0-3.4,1.1-4,2.8c-3,1.5-5.2,4.8-5.8,8.5c-1.2,0-2.4,0-3.5,0.1l0,1c1.1,0,2.2,0,3.4-0.1
			c0,0.4-0.1,0.7-0.1,1.1c-18.5,0.2-30.1,1.4-56.7,5.9c-38.4,6.5-40.4,32.1-40.4,37.2c0,6.1,2,9.6,4.2,13.3c1.6,2.7,3.2,5.5,4.5,9.8
			c1.7,5.8,1.4,11.5-1,15.5c-1.5,2.6-3.6,4.2-6.2,4.9c-7.4,1.8-9.6,1.5-13,0.1c-0.2-0.1-0.4-0.3-0.7-0.5
			C31.6,311,26.9,308,26.9,300.6z M148.8,217.8c0.1,0.6,0.4,1.1,0.7,1.6c-2,1.4-3.3,4-3.3,6.8c0,4.4,3.1,8,6.8,8
			c3.8,0,6.8-3.6,6.8-8c0-2.8-1.3-5.4-3.3-6.8c0.3-0.5,0.6-1,0.7-1.6c2.3,1.8,3.9,4.9,3.9,8.3c0,0.4,0,0.8-0.1,1.1
			c-0.5,5-3.9,8.7-8,8.7c-4.5,0-8.1-4.4-8.1-9.8C144.9,222.7,146.4,219.6,148.8,217.8z M157.7,224.7c0.1,0.4,0.1,0.8,0.1,1.2
			c-0.9,0-1.9,0-2.8,0l-6.8,0c0-0.4,0.1-0.8,0.1-1.1c1.2,0,2.4,0,3.6,0l0-1c-1.1,0-2.2,0-3.3,0c0.5-1.3,1.3-2.4,2.4-3
			c0.6,0.3,1.3,0.5,2,0.5c0.7,0,1.4-0.2,2-0.5c1.1,0.6,2,1.7,2.4,3c-1.1,0-2.3,0-3.5,0v1C155.2,224.7,156.5,224.7,157.7,224.7z
			 M157.3,228.9c-0.8,1.9-2.4,3.2-4.3,3.2c-1.9,0-3.5-1.3-4.3-3.2l6.3,0C155.8,228.9,156.5,228.9,157.3,228.9z M153,219.2
			c-1.3,0-2.3-1-2.3-2.3s1-2.3,2.3-2.3c1.3,0,2.3,1,2.3,2.3S154.3,219.2,153,219.2z M27.8,315.2c2.7,0,4.9,0.3,5.4,0.4
			c2.2,0.9,4,1.4,6.3,1.4c2.2,0,4.8-0.4,8.5-1.4c3.4-0.9,6.2-3,8.1-6.3c2.7-4.8,3.2-11.3,1.3-17.9c-1.4-4.7-3.2-7.8-4.8-10.5
			c-2.1-3.6-3.8-6.5-3.8-11.8c0-6.5,2.7-28.4,37.9-34.3c26.6-4.5,38-5.7,56.5-5.8c1.1,5.2,5,9.1,9.8,9.1c4.7,0,8.7-3.8,9.8-9
			c15.9,0.2,29.2,1.2,56.6,5.8c35.1,5.9,37.9,27.7,37.9,34.3c0,5.3-1.7,8.2-3.8,11.8c-1.6,2.7-3.4,5.9-4.8,10.5
			c-1.9,6.6-1.5,13.1,1.3,17.9c1.9,3.3,4.7,5.5,8.1,6.3c3.7,0.9,6.3,1.4,8.5,1.4c2.3,0,4.2-0.5,6.3-1.4c0.7-0.1,4-0.5,7.9-0.3
			c0.1,0.8,0.3,1.9,0.5,3.3l1-0.1c-0.2-1.3-0.3-2.3-0.5-3.1c0.7,0.1,1.4,0.2,2,0.3c2,14.3,6.9,63.2,6.9,86.9
			c0,14.9,1.2,29.3,2.3,42.1c0.9,10.3,1.7,20,1.7,28c0,18.1-0.4,21.2-6.1,28.2c-3.6,4.4-10.5,14.7-17.2,24.6
			c-4.4,6.5-8.5,12.7-11.6,17c-7.8,10.9-9.3,12.3-21.8,12.3H68c-12.5,0-14-1.4-21.8-12.3c-3.1-4.3-7.2-10.5-11.6-17
			c-6.7-10-13.6-20.2-17.2-24.6c-5.8-7-6.1-10-6.1-28.2c0-8,0.8-17.7,1.7-28c1.1-12.8,2.3-27.3,2.3-42.1c0-23,4-71.9,5.8-86.7
			c0.7-0.2,1.4-0.3,2-0.4c-0.1,0.6-0.2,1.3-0.3,2.3l1,0.1c0.1-1.2,0.3-2,0.3-2.5C25.4,315.2,26.7,315.2,27.8,315.2z M296.8,508.6
			c-3.9,4.7-11.3,15.7-18.4,26.3c-4.7,7-9.1,13.5-12.3,18.1c-8.2,11.4-9.5,12.7-22.4,12.7H62.5c-12.9,0-14.3-1.3-22.4-12.7
			c-3.3-4.6-7.7-11.2-12.4-18.1c-7.1-10.6-14.5-21.6-18.4-26.3C3.4,501.4,3,498.2,3,479.2c0-8.5,0.9-18.8,1.8-29.7
			c1.2-13.6,2.5-29.1,2.5-45c0-28.9,4.1-79.4,5.2-82.5c1.3-3.3,4.2-5,7.5-6c-1.8,15.2-5.7,63.6-5.7,86.4c0,14.8-1.2,29.3-2.3,42
			c-0.9,10.3-1.7,20-1.7,28.1c0,17.4,0.2,21.3,6.4,28.8c3.6,4.3,10.5,14.6,17.1,24.5c4.4,6.5,8.5,12.7,11.6,17.1
			c7.8,10.9,9.5,12.7,22.6,12.7h170.1c13.2,0,14.8-1.8,22.6-12.7c3.1-4.3,7.2-10.5,11.6-17.1c6.7-9.9,13.6-20.2,17.1-24.5
			c6.2-7.5,6.4-11.4,6.4-28.8c0-8-0.8-17.8-1.7-28.1c-1.1-12.8-2.3-27.2-2.3-42c0-23.6-4.9-71.9-6.9-86.7c3.8,0.8,7.3,2.6,8.7,6.3
			c1.1,3.1,5.2,53.6,5.2,82.5c0,15.9,1.3,31.3,2.5,45c0.9,10.9,1.8,21.3,1.8,29.7C303.1,498.2,302.7,501.4,296.8,508.6z"/>
		<path class="st1" d="M287.9,497l0.8,0.6c0.9-1.2,1.5-2.4,2.1-3.5l-0.9-0.4C289.3,494.8,288.7,495.9,287.9,497z"/>
		<path class="st1" d="M286,499.4c-0.5,0.6-1.1,1.4-1.8,2.3l0.8,0.6c0.7-0.9,1.3-1.7,1.8-2.3c0.2-0.3,0.5-0.6,0.7-0.9l-0.8-0.6
			C286.4,498.9,286.2,499.2,286,499.4z"/>
		<rect x="147.8" y="552.3" class="st1" width="4" height="1"/>
		<path class="st1" d="M20.9,349.8l-1-0.1c-0.1,1.3-0.2,2.7-0.3,4l1,0.1C20.7,352.5,20.8,351.1,20.9,349.8z"/>
		<path class="st1" d="M20.4,355.8l-1-0.1c-0.1,1.3-0.2,2.7-0.3,4l1,0.1C20.2,358.5,20.3,357.1,20.4,355.8z"/>
		<polygon class="st1" points="21.4,343.8 20.4,343.7 20,347.7 21,347.8 		"/>
		<path class="st1" d="M56,550.6l0.6-0.8c-0.9-0.7-1.9-1.5-2.9-2.6l-0.7,0.7C54,549.1,55,550,56,550.6z"/>
		<path class="st1" d="M20,361.8l-1-0.1c-0.1,1.3-0.2,2.7-0.3,4l1,0.1C19.8,364.5,19.9,363.1,20,361.8z"/>
		<path class="st1" d="M23,325.9l-1-0.1c-0.1,1.3-0.3,2.6-0.4,4l1,0.1C22.7,328.5,22.8,327.1,23,325.9z"/>
		<path class="st1" d="M23.6,319.9l-1-0.1c-0.1,1.2-0.3,2.5-0.4,4l1,0.1C23.3,322.4,23.4,321.1,23.6,319.9z"/>
		<path class="st1" d="M18.9,379.8l-1-0.1c-0.1,1.4-0.1,2.7-0.2,4l1,0C18.8,382.5,18.8,381.1,18.9,379.8z"/>
		<path class="st1" d="M18.6,385.8l-1,0c-0.1,1.4-0.1,2.7-0.2,4l1,0C18.5,388.5,18.5,387.1,18.6,385.8z"/>
		<rect x="141.8" y="552.3" class="st1" width="4" height="1"/>
		<path class="st1" d="M17.5,421.8l-1-0.1c-0.1,1.3-0.2,2.7-0.2,4l1,0.1C17.4,424.5,17.5,423.1,17.5,421.8z"/>
		<path class="st1" d="M61.9,551.9c-1.4-0.2-2.6-0.6-3.7-1.1l-0.4,0.9c1.1,0.5,2.4,0.9,3.9,1.2L61.9,551.9z"/>
		<path class="st1" d="M19.2,373.8l-1-0.1c-0.1,1.3-0.2,2.7-0.2,4l1,0.1C19.1,376.5,19.1,375.1,19.2,373.8z"/>
		<path class="st1" d="M19.6,367.8l-1-0.1c-0.1,1.3-0.2,2.7-0.3,4l1,0.1C19.4,370.5,19.5,369.1,19.6,367.8z"/>
		<rect x="81.8" y="552.3" class="st1" width="4" height="1"/>
		<rect x="117.8" y="552.3" class="st1" width="4" height="1"/>
		<rect x="123.8" y="552.3" class="st1" width="4" height="1"/>
		<rect x="111.8" y="552.3" class="st1" width="4" height="1"/>
		<rect x="105.8" y="552.3" class="st1" width="4" height="1"/>
		<rect x="129.8" y="552.3" class="st1" width="4" height="1"/>
		<rect x="135.8" y="552.3" class="st1" width="4" height="1"/>
		<path class="st1" d="M17.2,427.8l-1-0.1c-0.1,1.3-0.2,2.7-0.3,4l1,0.1C17,430.5,17.1,429.1,17.2,427.8z"/>
		<rect x="75.8" y="552.3" class="st1" width="4" height="1"/>
		<rect x="99.8" y="552.3" class="st1" width="4" height="1"/>
		<rect x="69.8" y="552.3" class="st1" width="4" height="1"/>
		<path class="st1" d="M67.8,552.3c-1.5,0-2.8-0.1-4-0.2l-0.1,1c1.1,0.1,2.5,0.2,4,0.2L67.8,552.3z"/>
		<rect x="87.8" y="552.3" class="st1" width="4" height="1"/>
		<rect x="93.8" y="552.3" class="st1" width="4" height="1"/>
		<path class="st1" d="M17.8,415.8l-1,0c-0.1,1.3-0.1,2.7-0.2,4l1,0.1C17.7,418.5,17.8,417.1,17.8,415.8z"/>
		<path class="st1" d="M22,503.5c0.7,1,1.5,2.1,2.3,3.2l0.8-0.6c-0.8-1.2-1.6-2.3-2.3-3.3L22,503.5z"/>
		<path class="st1" d="M52.4,545.7c-0.7-0.8-1.4-1.8-2.4-3.2l-0.8,0.6c1,1.3,1.7,2.4,2.4,3.2L52.4,545.7z"/>
		<path class="st1" d="M21.4,331.8c-0.1,1.3-0.2,2.6-0.4,4l1,0.1c0.1-1.4,0.2-2.7,0.4-4L21.4,331.8z"/>
		<path class="st1" d="M48.1,541.5l0.8-0.6l-0.5-0.7c-0.6-0.8-1.2-1.7-1.8-2.6l-0.8,0.6c0.6,0.9,1.3,1.8,1.8,2.6L48.1,541.5z"/>
		<path class="st1" d="M19.2,498.2l-0.8,0.6c0.3,0.4,0.7,0.8,1,1.3c0.4,0.5,0.9,1.2,1.5,1.9l0.8-0.6c-0.5-0.7-1-1.3-1.5-1.9
			C19.8,499,19.5,498.6,19.2,498.2z"/>
		<path class="st1" d="M20.5,341.7l1,0.1c0.1-1.4,0.2-2.7,0.3-4l-1-0.1C20.7,339.1,20.6,340.4,20.5,341.7z"/>
		<path class="st1" d="M17.2,395.7l1,0c0-1.3,0.1-2.6,0.1-4l-1,0C17.3,393.1,17.3,394.5,17.2,395.7z"/>
		<path class="st1" d="M32,516.1c-0.8-1.1-1.5-2.2-2.2-3.3l-0.8,0.6c0.7,1.1,1.5,2.2,2.2,3.3L32,516.1z"/>
		
			<rect x="33.3" y="517.7" transform="matrix(0.8297 -0.5582 0.5582 0.8297 -284.3288 107.3663)" class="st1" width="1" height="4"/>
		<path class="st1" d="M28.6,511.2c-0.8-1.1-1.5-2.2-2.3-3.3l-0.8,0.6c0.7,1,1.5,2.2,2.3,3.3L28.6,511.2z"/>
		<path class="st1" d="M45.4,536c-0.7-1.1-1.5-2.2-2.3-3.3l-0.8,0.6c0.8,1.1,1.5,2.3,2.3,3.3L45.4,536z"/>
		<rect x="40" y="527.7" transform="matrix(0.8292 -0.5589 0.5589 0.8292 -289.1348 113.1061)" class="st1" width="1" height="4"/>
		<rect x="36.7" y="522.7" transform="matrix(0.8303 -0.5573 0.5573 0.8303 -286.0936 109.735)" class="st1" width="1" height="4"/>
		<path class="st1" d="M16.9,413.8l1,0c0-1.3,0.1-2.7,0.1-4l-1,0C17,411.1,17,412.4,16.9,413.8z"/>
		<path class="st1" d="M14.7,457.7l-1-0.1c-0.1,1.4-0.2,2.7-0.3,4l1,0.1C14.6,460.4,14.6,459.1,14.7,457.7z"/>
		<path class="st1" d="M290.5,491.9l0.9,0.3c0.4-1.2,0.7-2.5,0.9-4l-1-0.1C291.2,489.5,290.9,490.7,290.5,491.9z"/>
		<path class="st1" d="M14.1,471.9c0-0.7,0-1.4,0-2.2l-1,0c0,0.7,0,1.5,0,2.2l0,1.8h1L14.1,471.9z"/>
		<path class="st1" d="M15.2,451.7l-1-0.1c-0.1,1.4-0.2,2.7-0.3,4l1,0.1C15,454.4,15.1,453.1,15.2,451.7z"/>
		
			<rect x="13" y="447.2" transform="matrix(8.595521e-02 -0.9963 0.9963 8.595521e-02 -432.2979 424.2042)" class="st1" width="4" height="1"/>
		
			<rect x="13.6" y="441.2" transform="matrix(8.401563e-02 -0.9965 0.9965 8.401563e-02 -425.9155 420.1071)" class="st1" width="4" height="1"/>
		<path class="st1" d="M14.1,475.7l-1,0c0,1.4,0,2.8,0,4l1,0C14.2,478.4,14.1,477.1,14.1,475.7z"/>
		<path class="st1" d="M16.7,433.8l-1-0.1c-0.1,1.3-0.2,2.7-0.3,4l1,0.1C16.5,436.5,16.6,435.1,16.7,433.8z"/>
		<path class="st1" d="M15.2,493.6c0.5,1.2,1.2,2.4,2,3.6l0.8-0.6c-0.8-1.2-1.4-2.3-1.9-3.4L15.2,493.6z"/>
		<path class="st1" d="M17.1,407.8l1,0c0-1.3,0-2.7,0-4l-1,0C17.1,405.1,17.1,406.4,17.1,407.8z"/>
		<path class="st1" d="M14.7,487.6l-1,0.1c0.2,1.5,0.5,2.8,0.8,4l1-0.3C15.1,490.3,14.9,489,14.7,487.6z"/>
		<path class="st1" d="M14.2,481.6l-1,0c0.1,1.5,0.1,2.9,0.2,4l1-0.1C14.4,484.4,14.3,483.2,14.2,481.6z"/>
		<path class="st1" d="M17.1,401.8l1,0c0-1.3,0-2.6,0.1-4l-1,0C17.2,399.2,17.1,400.5,17.1,401.8z"/>
		<path class="st1" d="M14.4,463.7l-1-0.1c-0.1,1.4-0.1,2.7-0.2,4l1,0C14.2,466.4,14.3,465,14.4,463.7z"/>
		<path class="st1" d="M288.1,408.3l1,0c0-1.3,0-2.7,0-4l-1,0C288,405.7,288,407,288.1,408.3z"/>
		<path class="st1" d="M287.7,390.3l1,0c-0.1-1.3-0.1-2.6-0.2-4l-1,0.1C287.5,387.7,287.6,389,287.7,390.3z"/>
		<path class="st1" d="M287,378.3l1-0.1c-0.1-1.3-0.2-2.7-0.3-4l-1,0.1C286.8,375.7,286.9,377,287,378.3z"/>
		<path class="st1" d="M288,402.3l1,0c0-1.3,0-2.6-0.1-4l-1,0C288,399.7,288,401.1,288,402.3z"/>
		<path class="st1" d="M282.7,330.5l1-0.1c-0.2-1.4-0.3-2.7-0.5-4l-1,0.1C282.4,327.7,282.6,329.1,282.7,330.5z"/>
		<path class="st1" d="M286.6,372.3l1-0.1c-0.1-1.3-0.2-2.7-0.3-4l-1,0.1C286.4,369.7,286.5,371,286.6,372.3z"/>
		<path class="st1" d="M287.4,384.3l1-0.1c-0.1-1.3-0.2-2.7-0.2-4l-1,0.1C287.2,381.7,287.3,383,287.4,384.3z"/>
		<path class="st1" d="M286.1,366.4l1-0.1c-0.1-1.3-0.2-2.7-0.3-4l-1,0.1C285.9,363.7,286,365,286.1,366.4z"/>
		<path class="st1" d="M284.5,348.4l1-0.1c-0.1-1.3-0.3-2.7-0.4-4l-1,0.1C284.3,345.7,284.4,347.1,284.5,348.4z"/>
		<path class="st1" d="M283.4,336.4l1-0.1c-0.1-1.4-0.3-2.7-0.4-4l-1,0.1C283.1,333.7,283.2,335.1,283.4,336.4z"/>
		<path class="st1" d="M284,342.4l1-0.1c-0.1-1.4-0.3-2.7-0.4-4l-1,0.1C283.7,339.7,283.8,341.1,284,342.4z"/>
		<path class="st1" d="M285.6,360.4l1-0.1c-0.1-1.3-0.2-2.7-0.3-4l-1,0.1C285.4,357.7,285.5,359,285.6,360.4z"/>
		<path class="st1" d="M285.1,354.4l1-0.1c-0.1-1.3-0.2-2.7-0.4-4l-1,0.1C284.8,351.7,285,353,285.1,354.4z"/>
		<path class="st1" d="M287.9,396.3l1,0c0-1.3-0.1-2.6-0.1-4l-1,0C287.8,393.7,287.9,395,287.9,396.3z"/>
		<path class="st1" d="M291.9,468.2l1,0c0-1.3-0.1-2.6-0.2-4l-1,0C291.9,465.6,291.9,466.9,291.9,468.2z"/>
		<path class="st1" d="M292,471.9l0,2.3l1,0l0-2.3c0-0.6,0-1.1,0-1.7l-1,0C292,470.8,292,471.3,292,471.9z"/>
		<path class="st1" d="M291.7,462.2l1-0.1c-0.1-1.3-0.2-2.6-0.3-4l-1,0.1C291.5,459.6,291.6,460.9,291.7,462.2z"/>
		<path class="st1" d="M291.6,486.1l1,0.1c0.1-1.2,0.2-2.5,0.3-4l-1,0C291.8,483.7,291.7,485,291.6,486.1z"/>
		<path class="st1" d="M291.9,480.2l1,0c0-1.2,0-2.6,0.1-4l-1,0C292,477.6,292,478.9,291.9,480.2z"/>
		<path class="st1" d="M291.3,456.2l1-0.1c-0.1-1.3-0.2-2.6-0.3-4l-1,0.1C291.1,453.6,291.2,454.9,291.3,456.2z"/>
		<path class="st1" d="M288.2,414.3l1,0c0-1.3-0.1-2.7-0.1-4l-1,0C288.1,411.7,288.2,413,288.2,414.3z"/>
		<path class="st1" d="M288.9,426.3l1-0.1c-0.1-1.3-0.2-2.7-0.3-4l-1,0.1C288.7,423.7,288.8,425,288.9,426.3z"/>
		
			<rect x="290.6" y="446.2" transform="matrix(0.9965 -8.401563e-02 8.401563e-02 0.9965 -36.6285 26.0449)" class="st1" width="1" height="4"/>
		<path class="st1" d="M289.3,432.3l1-0.1c-0.1-1.3-0.2-2.6-0.3-4l-1,0.1C289.1,429.7,289.2,431,289.3,432.3z"/>
		<path class="st1" d="M288.5,420.3l1-0.1c-0.1-1.3-0.1-2.7-0.2-4l-1,0C288.4,417.7,288.4,419,288.5,420.3z"/>
		
			<rect x="290.1" y="440.2" transform="matrix(0.9963 -8.595521e-02 8.595521e-02 0.9963 -36.9376 26.6176)" class="st1" width="1" height="4"/>
		<path class="st1" d="M289.8,438.3l1-0.1c-0.1-1.3-0.2-2.6-0.3-4l-1,0.1C289.6,435.7,289.7,437,289.8,438.3z"/>
		<path class="st1" d="M247.8,551.9l-0.4-0.9c-1.1,0.4-2.3,0.8-3.7,1l0.1,1C245.4,552.7,246.7,552.4,247.8,551.9z"/>
		<rect x="201.8" y="552.3" class="st1" width="4" height="1"/>
		<rect x="207.8" y="552.3" class="st1" width="4" height="1"/>
		<rect x="195.8" y="552.3" class="st1" width="4" height="1"/>
		<rect x="213.8" y="552.3" class="st1" width="4" height="1"/>
		<path class="st1" d="M283,324.4c-0.2-1.5-0.3-2.8-0.5-4l-1,0.1c0.2,1.2,0.3,2.5,0.5,4L283,324.4z"/>
		<rect x="219.8" y="552.3" class="st1" width="4" height="1"/>
		<rect x="189.8" y="552.3" class="st1" width="4" height="1"/>
		<rect x="183.8" y="552.3" class="st1" width="4" height="1"/>
		<rect x="165.8" y="552.3" class="st1" width="4" height="1"/>
		<rect x="153.8" y="552.3" class="st1" width="4" height="1"/>
		<rect x="159.8" y="552.3" class="st1" width="4" height="1"/>
		<rect x="177.8" y="552.3" class="st1" width="4" height="1"/>
		<rect x="171.8" y="552.3" class="st1" width="4" height="1"/>
		<rect x="225.8" y="552.3" class="st1" width="4" height="1"/>
		<path class="st1" d="M276.9,513.8l-0.8-0.6c-0.7,1.1-1.5,2.2-2.2,3.3l0.8,0.6C275.4,516,276.2,514.9,276.9,513.8z"/>
		<polygon class="st1" points="266.9,528.7 266,528.2 263.8,531.5 264.6,532.1 		"/>
		<rect x="266.7" y="524.6" transform="matrix(0.557 -0.8305 0.8305 0.557 -317.1189 455.8093)" class="st1" width="4" height="1"/>
		<rect x="270" y="519.7" transform="matrix(0.5583 -0.8296 0.8296 0.5583 -311.3905 455.4358)" class="st1" width="4" height="1"/>
		<path class="st1" d="M283.8,504l-0.8-0.6c-0.7,1-1.5,2.1-2.3,3.3l0.8,0.6C282.3,506,283.1,505,283.8,504z"/>
		<path class="st1" d="M280.3,508.9l-0.8-0.6c-0.7,1.1-1.5,2.2-2.3,3.3l0.8,0.6C278.8,511,279.6,509.9,280.3,508.9z"/>
		<path class="st1" d="M252.8,548.3l-0.7-0.7c-1,1.1-1.9,1.9-2.9,2.5l0.5,0.8C250.7,550.3,251.7,549.4,252.8,548.3z"/>
		<path class="st1" d="M241.8,553.2l-0.1-1c-1.1,0.1-2.4,0.1-4,0.2l0,1C239.4,553.3,240.7,553.2,241.8,553.2z"/>
		<path class="st1" d="M263.5,533.7l-0.8-0.6c-0.8,1.2-1.5,2.3-2.3,3.3l0.8,0.6C261.9,536,262.7,534.9,263.5,533.7z"/>
		<rect x="231.8" y="552.3" class="st1" width="4" height="1"/>
		<path class="st1" d="M258.6,540.8c0.5-0.7,1-1.4,1.5-2.2l-0.8-0.6c-0.5,0.8-1,1.5-1.5,2.2l-0.8,1.1l0.9,0.5L258.6,540.8z"/>
		<path class="st1" d="M256.6,543.6l-0.8-0.6c-1,1.3-1.7,2.3-2.4,3.1l0.8,0.6C254.8,545.9,255.6,544.9,256.6,543.6z"/>
		<path class="st1" d="M256.5,290.4l0.4-0.9l-0.9-0.4l-0.4,0.9c-0.4,0.9-0.8,1.9-1.2,2.8l0.9,0.4
			C255.7,292.3,256.1,291.4,256.5,290.4z"/>
		<path class="st1" d="M254.6,295l-0.9-0.3c-0.5,1.5-0.9,2.8-1,4l1,0.1C253.8,297.6,254.1,296.4,254.6,295z"/>
		<path class="st1" d="M255.9,305.8l-0.8,0.6c0.9,1.2,1.9,2.1,3,2.8l0.6-0.8C257.7,307.7,256.8,306.8,255.9,305.8z"/>
		<path class="st1" d="M252.6,300.7c0.1,1.4,0.5,2.7,1.3,4l0.8-0.5c-0.7-1.1-1.1-2.3-1.2-3.5L252.6,300.7z"/>
		<path class="st1" d="M261.9,278.5l-1-0.3c-0.3,1.3-0.8,2.5-1.3,3.7l0.9,0.4C261.1,281.2,261.6,279.9,261.9,278.5z"/>
		<path class="st1" d="M258,285.3c-0.4,0.6-0.7,1.3-1,1.9l0.9,0.5c0.3-0.7,0.7-1.3,1-1.9c0.3-0.5,0.6-1,0.9-1.6l-0.9-0.5
			C258.5,284.3,258.2,284.8,258,285.3z"/>
		<path class="st1" d="M249.1,241.2c1,0.8,2,1.7,3,2.6l0.7-0.7c-1-0.9-2-1.8-3-2.7L249.1,241.2z"/>
		<path class="st1" d="M263.2,266.5l-1,0c0,1.4-0.1,2.7-0.1,4l1,0.1C263.2,269.3,263.2,268,263.2,266.5z"/>
		<path class="st1" d="M262.3,258.5c-0.4-1.3-0.8-2.6-1.4-3.8l-0.9,0.4c0.5,1.2,1,2.5,1.3,3.7L262.3,258.5z"/>
		<path class="st1" d="M261.4,276.4l1,0.2c0.2-1.2,0.4-2.6,0.6-4l-1-0.1C261.8,273.9,261.6,275.2,261.4,276.4z"/>
		<path class="st1" d="M33.3,277.4l-1,0.2c0.3,1.4,0.6,2.6,0.7,3.9l1-0.1C33.9,280.1,33.6,278.8,33.3,277.4z"/>
		<path class="st1" d="M109.7,225.7l0.1,1c1.3-0.1,2.6-0.3,4-0.4l-0.1-1C112.3,225.4,111,225.6,109.7,225.7z"/>
		<path class="st1" d="M103.7,226.4l0.1,1c1.3-0.2,2.6-0.3,4-0.5l-0.1-1C106.3,226.1,105,226.2,103.7,226.4z"/>
		<path class="st1" d="M115.6,225.1l0.1,1c1.3-0.1,2.6-0.2,4-0.3l-0.1-1C118.3,224.9,116.9,225,115.6,225.1z"/>
		<path class="st1" d="M121.6,224.7l0.1,1c1.3-0.1,2.6-0.2,4-0.2l-0.1-1C124.3,224.5,122.9,224.6,121.6,224.7z"/>
		<path class="st1" d="M97.7,227.2l0.1,1c1.3-0.2,2.6-0.4,3.9-0.6l-0.1-1C100.3,226.8,99,227,97.7,227.2z"/>
		<path class="st1" d="M85.9,229.3l0.2,1c1.2-0.3,2.5-0.5,3.9-0.8l-0.2-1C88.5,228.8,87.2,229.1,85.9,229.3z"/>
		<path class="st1" d="M91.8,228.2l0.2,1c1.3-0.2,2.6-0.4,3.9-0.7l-0.2-1C94.4,227.7,93.1,228,91.8,228.2z"/>
		<path class="st1" d="M134.7,211.5l0-1c-1.3,0.1-2.6,0.1-4,0.2l0,1C132.1,211.6,133.4,211.5,134.7,211.5z"/>
		<path class="st1" d="M140.7,211.3l0-1c-1.3,0-2.6,0.1-4,0.1l0,1C138.1,211.4,139.4,211.3,140.7,211.3z"/>
		<path class="st1" d="M127.6,224.3l0.1,1c1.3-0.1,2.6-0.1,4-0.2l0-1C130.3,224.2,128.9,224.3,127.6,224.3z"/>
		<path class="st1" d="M128.7,211.8l-0.1-1c-1.3,0.1-2.7,0.1-4,0.2l0.1,1C126.1,211.9,127.4,211.8,128.7,211.8z"/>
		<path class="st1" d="M80.1,230.7l0.3,1c1.2-0.3,2.5-0.6,3.9-0.9l-0.2-1C82.6,230.1,81.3,230.4,80.1,230.7z"/>
		<path class="st1" d="M146.7,211.1l0-1c-1.3,0-2.6,0.1-4,0.1l0,1C144.1,211.2,145.4,211.1,146.7,211.1z"/>
		<path class="st1" d="M133.6,224.1l0,1c1.3,0,2.6-0.1,4-0.1l0-1C136.3,224,134.9,224,133.6,224.1z"/>
		<path class="st1" d="M50,290.4c0.5,1.2,1.1,2.4,1.5,3.5l0.9-0.4c-0.5-1.1-1-2.3-1.5-3.5l-0.1-0.2l-0.9,0.4L50,290.4z"/>
		<path class="st1" d="M74.3,232.4l0.3,1c1.2-0.4,2.5-0.8,3.8-1.1l-0.3-1C76.8,231.6,75.5,232,74.3,232.4z"/>
		<path class="st1" d="M53,299.5l1,0c-0.1-1.2-0.3-2.5-0.8-4l-1,0.3C52.7,297.2,52.9,298.4,53,299.5z"/>
		<path class="st1" d="M43.3,265.4l1,0c0-1.3,0.1-2.6,0.3-3.9l-1-0.2C43.4,262.6,43.3,264,43.3,265.4z"/>
		<path class="st1" d="M51.7,304.3c-0.1,0.2-0.2,0.4-0.4,0.5l0.8,0.6c0.1-0.2,0.3-0.4,0.4-0.6c0.7-1,1.1-2.1,1.3-3.3l-1-0.2
			C52.7,302.4,52.3,303.4,51.7,304.3z"/>
		<path class="st1" d="M43.3,267.4c0,1.4,0.1,2.8,0.2,4l1-0.1c-0.1-1.2-0.2-2.6-0.2-4L43.3,267.4z"/>
		<path class="st1" d="M45.3,277.2c-0.3-1.2-0.5-2.5-0.6-3.9l-1,0.1c0.2,1.5,0.4,2.8,0.6,4L45.3,277.2z"/>
		<path class="st1" d="M47.2,308.8l0.5,0.9c1.2-0.7,2.2-1.5,3.2-2.6l-0.8-0.7C49.3,307.4,48.3,308.2,47.2,308.8z"/>
		<path class="st1" d="M57.8,239.7l0.6,0.8c1.1-0.8,2.3-1.6,3.3-2.2l-0.5-0.9C60.1,238.1,58.9,238.9,57.8,239.7z"/>
		<path class="st1" d="M68.6,234.4l0.4,0.9c1.2-0.5,2.5-0.9,3.7-1.3l-0.3-0.9C71.1,233.4,69.8,233.9,68.6,234.4z"/>
		<path class="st1" d="M44,259.3l1,0.2c0.3-1.2,0.7-2.5,1.2-3.7l-0.9-0.4C44.8,256.7,44.4,258,44,259.3z"/>
		<path class="st1" d="M44.9,279.4c0.4,1.3,0.9,2.5,1.5,3.8l0.9-0.4c-0.6-1.2-1-2.4-1.4-3.6L44.9,279.4z"/>
		<path class="st1" d="M122.7,212.1l-0.1-1c-1.3,0.1-2.7,0.2-4,0.3l0.1,1C120.1,212.3,121.4,212.2,122.7,212.1z"/>
		<path class="st1" d="M49.1,288.4L50,288c-0.5-1-1-1.8-1.4-2.7l-0.5-0.9l-0.9,0.5l0.5,0.9C48.2,286.6,48.7,287.5,49.1,288.4z"/>
		<path class="st1" d="M75.1,217.9l-0.2-1c-1.3,0.3-2.6,0.5-3.9,0.8l0.2,1C72.5,218.4,73.8,218.1,75.1,217.9z"/>
		<path class="st1" d="M40.2,238.6l-0.8-0.6c-0.8,1.1-1.6,2.2-2.4,3.3l0.8,0.6C38.6,240.7,39.4,239.6,40.2,238.6z"/>
		<path class="st1" d="M36.8,243.5l-0.8-0.5c-0.7,1.2-1.4,2.3-2,3.5l0.9,0.5C35.4,245.7,36.1,244.6,36.8,243.5z"/>
		<path class="st1" d="M44.1,234.1l-0.7-0.7c-0.9,1-1.8,2-2.7,3l0.8,0.6C42.3,236,43.2,235,44.1,234.1z"/>
		<path class="st1" d="M33.9,248.6l-0.9-0.4c-0.6,1.2-1.2,2.5-1.6,3.7l0.9,0.4C32.7,251.1,33.3,249.9,33.9,248.6z"/>
		<path class="st1" d="M46.1,253.6L47,254c0.6-1.2,1.2-2.3,1.9-3.4l-0.8-0.5C47.3,251.2,46.7,252.4,46.1,253.6z"/>
		<path class="st1" d="M48.4,230l-0.7-0.8c-1,0.9-2,1.8-3,2.7l0.7,0.7C46.4,231.7,47.4,230.8,48.4,230z"/>
		<path class="st1" d="M30.6,265.7l-1,0.1c0.2,1.3,0.4,2.6,0.7,4l1-0.2C31,268.3,30.8,267,30.6,265.7z"/>
		<path class="st1" d="M31.8,275.7l1-0.3c-0.1-0.5-0.3-1-0.4-1.5c-0.2-0.8-0.4-1.6-0.6-2.3l-1,0.2c0.2,0.8,0.4,1.6,0.6,2.4
			C31.5,274.7,31.7,275.2,31.8,275.7z"/>
		<path class="st1" d="M32,295.3L32,295.3l-0.9-0.4c-0.6,1.2-1.1,2.4-1.5,3.7l1,0.2C30.9,297.6,31.4,296.5,32,295.3z"/>
		<path class="st1" d="M31.6,254.1l-0.9-0.3c-0.5,1.4-0.8,2.7-1,3.9l1,0.2C30.8,256.8,31.1,255.5,31.6,254.1z"/>
		<path class="st1" d="M30.3,301.2c0-0.2,0-0.3,0-0.5l-1,0c0,0.2,0,0.4,0,0.6c0,1.3,0.2,2.5,0.6,3.6l0.9-0.3
			C30.5,303.5,30.3,302.4,30.3,301.2z"/>
		<path class="st1" d="M30.3,260.6c0-0.2,0-0.5,0-0.7l-1-0.1c0,0.3,0,0.5,0,0.8c0,1.1,0,2.2,0.1,3.3l1-0.1
			C30.4,262.8,30.3,261.7,30.3,260.6z"/>
		<path class="st1" d="M52.5,245.9l-0.7-0.7c-0.9,1-1.8,2.1-2.5,3.2l0.8,0.6C50.8,247.9,51.6,246.9,52.5,245.9z"/>
		<path class="st1" d="M116.7,212.6l-0.1-1c-1.3,0.1-2.7,0.2-4,0.3l0.1,1C114.1,212.8,115.4,212.7,116.7,212.6z"/>
		<path class="st1" d="M92.9,215l-0.1-1c-1.3,0.2-2.7,0.4-4,0.5l0.1,1C90.2,215.4,91.6,215.2,92.9,215z"/>
		<path class="st1" d="M87,215.8l-0.1-1c-1.3,0.2-2.7,0.4-4,0.6l0.2,1C84.3,216.2,85.6,216,87,215.8z"/>
		<path class="st1" d="M81,216.8l-0.2-1c-1.3,0.2-2.6,0.5-3.9,0.7l0.2,1C78.4,217.2,79.7,217,81,216.8z"/>
		<path class="st1" d="M98.8,214.3l-0.1-1c-1.3,0.2-2.7,0.3-4,0.5l0.1,1C96.2,214.6,97.5,214.4,98.8,214.3z"/>
		<path class="st1" d="M104.8,213.6l-0.1-1c-1.3,0.1-2.7,0.3-4,0.4l0.1,1C102.2,213.9,103.5,213.8,104.8,213.6z"/>
		<path class="st1" d="M110.8,213.1l-0.1-1c-1.3,0.1-2.7,0.2-4,0.4l0.1,1C108.1,213.3,109.4,213.2,110.8,213.1z"/>
		<path class="st1" d="M58.2,223.3l-0.5-0.9c-1.2,0.6-2.4,1.3-3.5,2l0.5,0.8C55.9,224.6,57.1,223.9,58.2,223.3z"/>
		<path class="st1" d="M41.7,310.3l0.1,1c1.5-0.1,2.8-0.4,4-0.8l-0.3-0.9C44.4,310,43.1,310.2,41.7,310.3z"/>
		<path class="st1" d="M53.1,226.4l-0.6-0.8c-1.1,0.7-2.2,1.6-3.2,2.4l0.6,0.8C51,227.9,52.1,227.1,53.1,226.4z"/>
		<path class="st1" d="M56.8,241.8l-0.6-0.8c-1,0.9-2,1.8-3,2.7l0.7,0.7C54.8,243.5,55.8,242.6,56.8,241.8z"/>
		<path class="st1" d="M63.6,220.9l-0.4-0.9c-1.2,0.5-2.5,1-3.7,1.6l0.4,0.9C61.2,221.9,62.4,221.3,63.6,220.9z"/>
		<path class="st1" d="M63,236.6l0.4,0.9l0.2-0.1c0.5-0.2,1.1-0.4,2-0.8c0.5-0.2,1-0.4,1.5-0.6l-0.4-0.9c-0.6,0.2-1.1,0.4-1.5,0.6
			c-0.8,0.3-1.4,0.6-1.9,0.8L63,236.6z"/>
		<path class="st1" d="M69.3,219.1l-0.2-1c-1.3,0.3-2.6,0.7-3.9,1.1l0.3,0.9C66.7,219.8,68,219.4,69.3,219.1z"/>
		<path class="st1" d="M273,247.1c-0.6-1.2-1.3-2.4-2-3.5l-0.9,0.5c0.7,1.1,1.4,2.3,2,3.5L273,247.1z"/>
		<path class="st1" d="M257.9,228.5c-1-0.9-2.1-1.7-3.2-2.4l-0.6,0.8c1.1,0.8,2.1,1.6,3.2,2.4L257.9,228.5z"/>
		<path class="st1" d="M256.8,247.7c-0.8-1.1-1.7-2.1-2.6-3.1l-0.7,0.7c0.9,1,1.8,2,2.5,3L256.8,247.7z"/>
		<path class="st1" d="M253,224.9c-1.1-0.7-2.3-1.4-3.5-2.1l-0.5,0.9c1.1,0.6,2.3,1.3,3.4,2L253,224.9z"/>
		<path class="st1" d="M259.2,253.3l0.9-0.5c-0.6-1.2-1.3-2.4-2.1-3.5l-0.8,0.6C257.9,251,258.6,252.1,259.2,253.3z"/>
		<path class="st1" d="M262.3,232.5c-0.9-1-1.9-1.9-2.9-2.8l-0.7,0.8c1,0.9,2,1.8,2.9,2.7L262.3,232.5z"/>
		<path class="st1" d="M266.4,237c-0.8-1-1.7-2.1-2.6-3l-0.7,0.7c0.9,1,1.8,2,2.6,3L266.4,237z"/>
		<path class="st1" d="M262.2,264.6l1,0c0-1.3-0.2-2.7-0.5-4l-1,0.2C262,262,262.2,263.3,262.2,264.6z"/>
		<path class="st1" d="M236.3,217.9c-1.3-0.3-2.6-0.6-3.9-0.8l-0.2,1c1.3,0.3,2.6,0.5,3.9,0.8L236.3,217.9z"/>
		<path class="st1" d="M233.1,233.7c1.3,0.4,2.5,0.9,3.8,1.3l0.4-0.9c-1.2-0.5-2.5-0.9-3.8-1.3L233.1,233.7z"/>
		<path class="st1" d="M244.2,238c1,0.5,2.2,1.2,3.3,2l0.6-0.8c-1.2-0.9-2.4-1.6-3.5-2.1L244.2,238z"/>
		<path class="st1" d="M242.2,219.5c-1.3-0.4-2.6-0.8-3.9-1.2l-0.3,1c1.3,0.3,2.5,0.7,3.8,1.2L242.2,219.5z"/>
		<path class="st1" d="M266,311.4l0.4,0c1.3,0,2.5-0.2,3.7-0.5l-0.3-1c-1.1,0.3-2.2,0.5-3.4,0.5l-0.4,0L266,311.4z"/>
		<path class="st1" d="M239.1,234.8l-0.4,0.9c0.9,0.4,1.6,0.7,2.3,0.9c0.5,0.2,1,0.4,1.4,0.6l0.4-0.9c-0.4-0.2-0.9-0.3-1.4-0.6
			C240.7,235.5,240,235.2,239.1,234.8z"/>
		<path class="st1" d="M247.7,221.9c-1.2-0.6-2.4-1.2-3.7-1.7l-0.4,0.9c1.2,0.5,2.4,1,3.6,1.6L247.7,221.9z"/>
		<path class="st1" d="M275.4,305.2l0.9,0.4c0.6-1.2,0.9-2.6,0.9-4.1l-1,0C276.2,302.8,275.9,304.1,275.4,305.2z"/>
		<path class="st1" d="M272.7,290.3c0.4,1.6,0.9,2.9,1.3,3.9l0.9-0.4c-0.4-0.9-0.9-2.1-1.3-3.7L272.7,290.3z"/>
		<path class="st1" d="M273.4,282.1c0.1-1.2,0.4-2.5,0.6-3.7l-1-0.2c-0.3,1.3-0.5,2.6-0.7,3.8l0,0.1l1,0.1L273.4,282.1z"/>
		<path class="st1" d="M276.1,299.6l1-0.2c-0.2-1.5-0.8-2.8-1.3-3.9l-0.9,0.4C275.5,297.3,275.9,298.3,276.1,299.6z"/>
		<path class="st1" d="M227.4,232c1.3,0.4,2.6,0.7,3.8,1.1l0.3-1c-1.2-0.4-2.5-0.8-3.9-1.1L227.4,232z"/>
		<path class="st1" d="M272.2,285.7c0,0.9,0,1.7,0.1,2.5l1-0.1c-0.1-0.8-0.1-1.6-0.1-2.4c0-0.5,0-1,0-1.5l-1-0.1
			C272.2,284.7,272.2,285.2,272.2,285.7z"/>
		<path class="st1" d="M271.6,309.2l0.5,0.9c1.3-0.7,2.4-1.6,3.2-2.7l-0.8-0.6C273.7,307.8,272.7,308.6,271.6,309.2z"/>
		<path class="st1" d="M259.9,310.2c1.2,0.5,2.5,0.9,4,1l0.1-1c-1.4-0.2-2.6-0.5-3.7-1L259.9,310.2z"/>
		<path class="st1" d="M274.6,253l0.9-0.3c-0.4-1.2-1-2.5-1.6-3.7l-0.9,0.4C273.6,250.6,274.1,251.8,274.6,253z"/>
		<path class="st1" d="M270,241.9c-0.7-1.1-1.5-2.2-2.3-3.3l-0.8,0.6c0.8,1,1.6,2.1,2.3,3.2L270,241.9z"/>
		<path class="st1" d="M276.1,258.7l1-0.1c-0.2-1.2-0.5-2.5-0.9-4l-1,0.3C275.6,256.3,275.9,257.6,276.1,258.7z"/>
		<path class="st1" d="M275.1,270.4l1,0.2c0.3-1.4,0.6-2.7,0.8-4l-1-0.1C275.7,267.8,275.4,269.1,275.1,270.4z"/>
		<path class="st1" d="M274.2,273.9c-0.2,0.8-0.4,1.5-0.6,2.3l1,0.2c0.2-0.8,0.4-1.5,0.6-2.3c0.1-0.5,0.3-1,0.4-1.5l-1-0.3
			C274.5,272.9,274.3,273.4,274.2,273.9z"/>
		<path class="st1" d="M276.1,264.6l1,0.1c0.1-1.3,0.2-2.6,0.2-4l-1,0C276.2,262,276.2,263.3,276.1,264.6z"/>
		<path class="st1" d="M152.7,211.1v-1c-1.3,0-2.6,0-4,0l0,1C150.1,211.1,151.4,211.1,152.7,211.1z"/>
		<path class="st1" d="M174.1,225.1c1.4,0.1,2.7,0.1,4,0.2l0-1c-1.3-0.1-2.6-0.1-4-0.2L174.1,225.1z"/>
		<path class="st1" d="M176.7,210.7c-1.4-0.1-2.7-0.1-4-0.2l0,1c1.3,0.1,2.6,0.1,4,0.2L176.7,210.7z"/>
		<path class="st1" d="M168.1,224.9c1.4,0,2.7,0.1,4,0.1l0-1c-1.3,0-2.6-0.1-4-0.1L168.1,224.9z"/>
		<path class="st1" d="M180.1,225.4c1.4,0.1,2.7,0.2,4,0.2l0.1-1c-1.3-0.1-2.6-0.2-4-0.2L180.1,225.4z"/>
		<path class="st1" d="M170.7,210.4c-1.4-0.1-2.7-0.1-4-0.1l0,1c1.3,0,2.6,0.1,4,0.1L170.7,210.4z"/>
		<path class="st1" d="M182.7,211.1c-1.3-0.1-2.7-0.2-4-0.2l-0.1,1c1.3,0.1,2.6,0.2,4,0.2L182.7,211.1z"/>
		<path class="st1" d="M188.7,211.5c-1.3-0.1-2.7-0.2-4-0.3l-0.1,1c1.3,0.1,2.6,0.2,4,0.3L188.7,211.5z"/>
		<path class="st1" d="M164.7,210.2c-1.4,0-2.7-0.1-4-0.1l0,1c1.3,0,2.6,0.1,4,0.1L164.7,210.2z"/>
		<path class="st1" d="M32.9,293.4c0.6-1.3,0.9-2.6,1.2-3.9l-1-0.2c-0.2,1.3-0.6,2.4-1.1,3.7L32.9,293.4z"/>
		<path class="st1" d="M33.3,283.4c0.1,0.8,0.1,1.6,0.1,2.3c0,0.6,0,1.1-0.1,1.6l1,0.1c0-0.5,0.1-1.1,0.1-1.7c0-0.7,0-1.5-0.1-2.4
			L33.3,283.4z"/>
		<path class="st1" d="M31.7,306.2l-0.8,0.5c0.7,1.2,1.7,2.2,3,2.9l0.5-0.8C33.2,308.1,32.3,307.2,31.7,306.2z"/>
		<path class="st1" d="M35.7,310.6c1.3,0.5,2.6,0.8,4.1,0.8l0-1c-1.3,0-2.6-0.3-3.7-0.7L35.7,310.6z"/>
		<path class="st1" d="M230.4,216.7c-1.3-0.2-2.6-0.5-3.9-0.7l-0.2,1c1.3,0.2,2.6,0.5,3.9,0.7L230.4,216.7z"/>
		<path class="st1" d="M158.7,210.1c-1.4,0-2.7,0-4,0l0,1c1.3,0,2.6,0,4,0L158.7,210.1z"/>
		<path class="st1" d="M218.6,214.7c-1.3-0.2-2.6-0.4-4-0.6l-0.1,1c1.3,0.2,2.6,0.4,4,0.6L218.6,214.7z"/>
		<path class="st1" d="M209.8,228.4c1.4,0.2,2.7,0.4,3.9,0.7l0.2-1c-1.3-0.2-2.6-0.4-4-0.7L209.8,228.4z"/>
		<path class="st1" d="M212.6,213.9c-1.3-0.2-2.6-0.3-4-0.5l-0.1,1c1.3,0.2,2.6,0.3,4,0.5L212.6,213.9z"/>
		<path class="st1" d="M215.7,229.4c1.4,0.3,2.7,0.5,3.9,0.8l0.2-1c-1.2-0.3-2.6-0.5-3.9-0.8L215.7,229.4z"/>
		<path class="st1" d="M221.6,230.6c1.4,0.3,2.7,0.6,3.9,0.9l0.2-1c-1.2-0.3-2.5-0.6-3.9-0.9L221.6,230.6z"/>
		<path class="st1" d="M224.5,215.6c-1.3-0.2-2.6-0.4-4-0.6l-0.2,1c1.3,0.2,2.6,0.4,3.9,0.6L224.5,215.6z"/>
		<path class="st1" d="M198,226.8c1.4,0.1,2.7,0.3,4,0.5l0.1-1c-1.3-0.2-2.6-0.3-4-0.5L198,226.8z"/>
		<path class="st1" d="M203.9,227.5c1.4,0.2,2.7,0.4,4,0.5l0.1-1c-1.3-0.2-2.6-0.4-4-0.5L203.9,227.5z"/>
		<path class="st1" d="M192,226.2c1.4,0.1,2.7,0.2,4,0.4l0.1-1c-1.3-0.1-2.6-0.3-4-0.4L192,226.2z"/>
		<path class="st1" d="M194.7,212c-1.3-0.1-2.7-0.2-4-0.3l-0.1,1c1.3,0.1,2.7,0.2,4,0.3L194.7,212z"/>
		<path class="st1" d="M200.7,212.5c-1.3-0.1-2.7-0.3-4-0.4l-0.1,1c1.3,0.1,2.7,0.2,4,0.4L200.7,212.5z"/>
		<path class="st1" d="M186,225.8c1.4,0.1,2.7,0.2,4,0.3l0.1-1c-1.3-0.1-2.6-0.2-4-0.3L186,225.8z"/>
		<path class="st1" d="M206.7,213.1c-1.3-0.1-2.7-0.3-4-0.4l-0.1,1c1.3,0.1,2.7,0.3,4,0.4L206.7,213.1z"/>
	</g>
</g>
</svg>
