<?xml version="1.0" encoding="utf-8"?>
<!-- Generator: Adobe Illustrator 20.1.0, SVG Export Plug-In . SVG Version: 6.00 Build 0)  -->
<svg version="1.1" xmlns="http://www.w3.org/2000/svg" xmlns:xlink="http://www.w3.org/1999/xlink" x="0px" y="0px"
	 viewBox="0 0 422.5 418.6" style="enable-background:new 0 0 422.5 418.6;" xml:space="preserve">
<style type="text/css">
	.st0{fill:#FFFFFF;}
	.st1{display:none;}
	.st2{display:inline;fill:#FFFFFF;}
	.st3{fill:#1A1A1A;}
</style>
<g id="back_1_">
	<path class="st0" d="M412.4,379.8l-0.3-0.1l0-0.4c-0.1-0.8-0.1-1.6-0.3-2.4c-0.6-4.5-1-9.7-1.2-15.4l0-0.3l0.3-0.2
		c3.9-2.4,6.3-6.5,6.3-11.1c0-4.2-2-8.1-5.4-10.6l-0.3-0.2l0-0.3c0.2-2.1,0.5-3.8,0.7-5.1c0.3-1.7,0.4-6.2,0.1-13.8l0-0.3l0.3-0.2
		c4.5-2.2,7.2-6.7,7.2-11.6c0-5.3-3.3-10.2-8.3-12.1l-0.3-0.1l0-0.3c-0.3-5.4-0.6-11.1-1-17l0-0.4l0.4-0.1c4.9-2,8-6.7,8-12
		c0-5.9-4-11.1-9.7-12.6l-0.4-0.1l0-0.4c-0.1-0.9-0.1-1.6-0.2-2.1c-0.2-2.4-0.6-7.2-1-14.3l0-0.4l0.4-0.1c5-2,8.3-6.7,8.3-12.1
		c0-5.9-4-11-9.6-12.5l-0.4-0.1l0-0.4c-0.2-3.4-0.3-6.4-0.3-6.6l0-132.7c0-32.8-11.4-39-35.3-39.9l-0.5,0v-4.2l0.3-0.2
		c2.7-1.6,4.3-4.4,4.3-7.6c0-4.9-4-8.8-8.9-8.8l-0.2,0l-0.1-0.1c-4.2-2-11.1-3-20.4,3.3c-2.8,1.9-4.9,4.1-6.1,6.5l-0.2,0.3l-0.5,0
		c-3.5,0-7.6,2.4-10.8,4.6c-1.8,1.2-5.5,4.9-6.3,5.8l-0.2,0.2H272l-47.5-14.4v5.2l-0.6,0c-2.9-0.2-4.1-1.5-4.3-4.5l0-0.3l0.3-0.2
		c2.7-1.5,4.4-4.3,4.4-7.4c0-4.6-3.8-8.4-8.4-8.4c-3.1,0-5.9,1.7-7.4,4.5L208,6.7l-0.5-0.9c-1.5-2.8-4.3-4.5-7.4-4.5
		c-4.6,0-8.4,3.8-8.4,8.4c0,3.1,1.7,5.9,4.4,7.4l0.3,0.2l0,0.3c-0.2,3-1.4,4.2-4.3,4.5l-0.6,0v-5.2l-47.5,14.4H94.7l-0.2-0.2
		c-0.9-0.9-4.5-4.6-6.3-5.8c-3.4-2.3-7.4-4.7-10.9-4.6l-0.3,0l-0.2-0.3c-1.2-2.4-3.2-4.5-6.1-6.5c-9.3-6.3-16.3-5.3-20.4-3.3
		l-0.1,0.1l-0.3,0c-4.8,0-8.8,4-8.8,8.8c0,3.1,1.6,5.9,4.3,7.6l0.3,0.2v4.1l-0.5,0c-17.9,0.5-34.4,5.3-34.8,35.9
		c-0.4,28.3,0,126,0,137.1l-0.1,0.7c-0.2,1.3-0.4,2.4-0.5,4.4l0,0.2l0.1,0.6l-0.4,0.2c-4.9,2-8,6.7-8,12c0,4.8,2.6,9.1,6.8,11.4
		l0.3,0.2l0,0.3c-0.1,2.7-0.1,5.5-0.1,9.3l0,9.4L8,253c-4.1,2.3-6.7,6.6-6.7,11.3c0,4.8,2.7,9.2,6.9,11.5l0.3,0.1l0,0.3
		c0.2,6.5,0.3,13.8,0.5,20.1l0,0.3l-0.3,0.2c-3.8,2.4-6.1,6.5-6.1,11c0,4.5,2.3,8.7,6.2,11l0.3,0.2l0,0.3
		c-0.1,8.4-0.3,14.8-0.9,18.8l0,0.3L8,338.6c-4.1,2.3-6.7,6.6-6.7,11.3c0,3.9,1.7,7.6,4.8,10.1l0.2,0.2l0,0.3
		c-0.2,8-0.1,14.8,0.3,20.3l0.1,1.1l0.8-0.1l-0.7,1c-1.8,2.3-2.7,5-2.7,7.9c0,7.2,5.8,13,13,13c2.9,0,5.6-0.9,7.9-2.7l0.2-0.1l0.2,0
		c4.4,0.7,10,1.5,16.4,2.2l0.4,0l0.1,0.4c0.9,6.3,6.5,11.1,12.8,11.1c5.6,0,10.5-3.5,12.3-8.8l0.1-0.4l0.4,0
		c6,0.5,12.5,0.9,19.2,1.3l0.4,0l0.1,0.3c1.8,5.3,6.7,8.9,12.3,8.9c5,0,9.7-3,11.8-7.6l0.2-0.3l0.4,0c6.9,0.3,14.1,0.6,21.4,0.9
		l0.3,0l0.1,0.3c2,4.8,6.7,8,12,8c4.9,0,9.4-2.8,11.6-7.2l0.2-0.3l0.3,0c6.6,0.2,13.2,0.4,19.5,0.5l0.3,0l0.2,0.3
		c2.3,4.1,6.7,6.7,11.4,6.7c4.5,0,8.8-2.4,11.2-6.4l0.2-0.3l0.3,0c5.2,0,10.2,0.1,14.9,0.1c1.8,0,3.6,0,5.4,0l0.3,0l0.2,0.3
		c2.4,4,6.5,6.3,11.1,6.3c4.6,0,8.9-2.5,11.2-6.4l0.2-0.3l0.3,0c6-0.1,12.1-0.1,18.2-0.2l0.3,0l0.2,0.2c2.4,3.3,6.4,5.3,10.5,5.3
		c4.3,0,8.3-2.1,10.7-5.7l0.2-0.2l0.3,0c9-0.2,17-0.4,24.4-0.6l0.3,0l0.2,0.2c2.5,3.1,6.2,4.9,10.2,4.9c4.2,0,8.2-2.1,10.6-5.5
		l0.2-0.2l0.3,0c7.3-0.2,14.3-0.5,20.9-0.7l0.3,0l0.2,0.3c2.4,3.9,6.5,6.2,11.1,6.2c5,0,9.4-2.8,11.6-7.2l0.1-0.3l0.3,0
		c11.6-0.6,18.7-1.2,21-1.8c1.7-0.4,3.4-1,4.9-1.9l0.3-0.1l0.3,0.1c1.9,1.1,4.1,1.7,6.3,1.7c7.2,0,13-5.8,13-13
		C421.2,386.5,417.6,381.6,412.4,379.8z M341.1,32.9l-11.2,0c-1,0-1-0.7-1-0.8c-0.1-1.6,6.8-6,8.5-6.2c0,0,0.1,0,0.1,0
		c0.8,0,0.9,0.6,0.9,0.7c0.4,3.1,2.1,5.4,2.1,5.4L341.1,32.9z M358.6,13.9l0.2,0l0.6,0.6l-0.3,0.4c-1,1.4-1.5,3-1.5,4.6
		c0,1.4,0.4,2.8,1.1,4l0.6,0.7l-0.4,0.4c-0.5,0.4-1,1-1.7,1.4c-4.8,2.4-11.3-4.9-11.3-4.9c1-1.4,1.1-3,3.5-4.7
		C352.9,13.9,354.8,13.6,358.6,13.9z M70.9,21.3l-1.1-0.5l-1,0.5c-3.4,1-6.1,6.3-6.1,6.3c-1.7-0.5-3-0.5-4.7-1.7
		c-0.7-0.5-1.3-0.9-1.7-1.4l-0.4-0.4l0.5-0.5l0.1-0.2c0.7-1.2,1.1-2.6,1.1-4c0-1.7-0.5-3.3-1.5-4.6l-0.3-0.4l0.6-0.6l0.2,0
		c3.8-0.3,5.7,0.1,9.3,2.5C68.3,18,69.9,19.9,70.9,21.3z M88.2,32.9H74.1l0.7-0.9c0.2-0.2,1.7-2.4,2.1-5.4c0-0.3,0.2-0.5,0.5-0.6
		c1.2-0.5,6,3,9.7,5.9L88.2,32.9z M208.5,9.2l0,0.5c0,3,1.8,5.6,4.5,6.8l0.4,0.2l-0.2,0.9l0,0.2c0,9.3,4.5,11.2,11.8,11.2h0.5v4
		h-35.2v-4.1l0.6,0.1c0,0,4.8,0.8,8.3-2.2c2.3-2,3.5-5.3,3.5-9.8c0-0.5,4.7-2.8,4.7-7.2V9.2H208.5z"/>
</g>
<g id="lines">
	<g id="back" class="st1">
		<path class="st2" d="M411.4,378.7l-0.3-0.1v-0.4c-0.1-0.8-0.1-1.6-0.3-2.4c-0.6-4.5-1-9.7-1.2-15.4v-0.3l0.3-0.2
			c3.9-2.4,6.3-6.5,6.3-11.1c0-4.2-2-8.1-5.4-10.6l-0.3-0.2v-0.3c0.2-2.1,0.5-3.8,0.7-5.1c0.3-1.7,0.4-6.2,0.1-13.8v-0.3l0.3-0.2
			c4.5-2.2,7.2-6.7,7.2-11.6c0-5.3-3.3-10.2-8.3-12.1l-0.3-0.1v-0.3c-0.3-5.4-0.6-11.1-1-17v-0.4l0.4-0.1c4.9-2,8-6.7,8-12
			c0-5.9-4-11.1-9.7-12.6l-0.4-0.1v-0.4c-0.1-0.9-0.1-1.6-0.2-2.1c-0.2-2.4-0.6-7.2-1-14.3v-0.4l0.4-0.1c5-2,8.3-6.7,8.3-12.1
			c0-5.9-4-11-9.6-12.5L405,210v-0.4c-0.2-3.4-0.3-6.4-0.3-6.6V70.3c0-32.8-11.4-39-35.3-39.9h-0.5v-4.2l0.3-0.2
			c2.7-1.6,4.3-4.4,4.3-7.6c0-4.9-4-8.8-8.9-8.8h-0.2l-0.1-0.1c-4.2-2-11.1-3-20.4,3.3c-2.8,1.9-4.9,4.1-6.1,6.5l-0.2,0.3h-0.5
			c-3.5,0-7.6,2.4-10.8,4.6c-1.8,1.2-5.5,4.9-6.3,5.8l-0.2,0.2h-48.5l-47.5-14.4V21h-0.6c-2.9-0.2-4.1-1.5-4.3-4.5v-0.3l0.3-0.2
			c2.7-1.5,4.4-4.3,4.4-7.4c0-4.6-3.8-8.4-8.4-8.4c-3.1,0-5.9,1.7-7.4,4.5l-0.5,0.9l-0.5-0.9c-1.5-2.8-4.3-4.5-7.4-4.5
			c-4.6,0-8.4,3.8-8.4,8.4c0,3.1,1.7,5.9,4.4,7.4l0.3,0.2v0.3c-0.2,3-1.4,4.2-4.3,4.5h-0.6v-5.2l-47.5,14.4H93.7L93.5,30
			c-0.9-0.9-4.5-4.6-6.3-5.8c-3.4-2.3-7.4-4.7-10.9-4.6H76l-0.2-0.3c-1.2-2.4-3.2-4.5-6.1-6.5c-9.4-6.2-16.3-5.2-20.5-3.2l-0.1,0.1
			h-0.3c-4.8,0-8.8,4-8.8,8.8c0,3.1,1.6,5.9,4.3,7.6l0.3,0.2v4.1h-0.5C26.2,30.8,9.7,35.6,9.3,66.1c-0.4,28.3,0,126,0,137.1
			l-0.1,0.7c-0.2,1.3-0.4,2.4-0.5,4.4v0.2l0.1,0.6l-0.4,0.2c-4.9,2-8,6.7-8,12c0,4.8,2.6,9.1,6.8,11.4l0.3,0.2v0.3
			c-0.1,2.7-0.1,5.5-0.1,9.3v9.4L7,252c-4.1,2.3-6.7,6.6-6.7,11.3c0,4.8,2.7,9.2,6.9,11.5l0.3,0.1v0.3c0.2,6.5,0.3,13.8,0.5,20.1
			v0.3l-0.3,0.2c-3.8,2.4-6.1,6.5-6.1,11s2.3,8.7,6.2,11l0.3,0.2v0.3c-0.1,8.4-0.3,14.8-0.9,18.8v0.3L7,337.5
			c-4.1,2.3-6.7,6.6-6.7,11.3c0,3.9,1.7,7.6,4.8,10.1l0.2,0.2v0.3c-0.2,8-0.1,14.8,0.3,20.3l0.1,1.1l0.8-0.1l-0.7,1
			c-1.8,2.3-2.7,5-2.7,7.9c0,7.2,5.8,13,13,13c2.9,0,5.6-0.9,7.9-2.7l0.2-0.1h0.2c4.4,0.7,10,1.5,16.4,2.2h0.4l0.1,0.4
			c0.9,6.3,6.5,11.1,12.8,11.1c5.6,0,10.5-3.5,12.3-8.8l0.1-0.4h0.4c6,0.5,12.5,0.9,19.2,1.3h0.4l0.1,0.3c1.8,5.3,6.7,8.9,12.3,8.9
			c5,0,9.7-3,11.8-7.6l0.2-0.3h0.4c6.9,0.3,14.1,0.6,21.4,0.9h0.3l0.1,0.3c2,4.8,6.7,8,12,8c4.9,0,9.4-2.8,11.6-7.2l0.2-0.3h0.3
			c6.6,0.2,13.2,0.4,19.5,0.5h0.3l0.2,0.3c2.3,4.1,6.7,6.7,11.4,6.7c4.5,0,8.8-2.4,11.2-6.4l0.2-0.3h0.3c5.2,0,10.2,0.1,14.9,0.1
			c1.8,0,3.6,0,5.4,0h0.3l0.2,0.3c2.4,4,6.5,6.3,11.1,6.3s8.9-2.5,11.2-6.4l0.2-0.3h0.3c6-0.1,12.1-0.1,18.2-0.2h0.3l0.2,0.2
			c2.4,3.3,6.4,5.3,10.5,5.3c4.3,0,8.3-2.1,10.7-5.7l0.2-0.2h0.3c9-0.2,17-0.4,24.4-0.6h0.3l0.2,0.2c2.5,3.1,6.2,4.9,10.2,4.9
			c4.2,0,8.2-2.1,10.6-5.5l0.2-0.2h0.3c7.3-0.2,14.3-0.5,20.9-0.7h0.3l0.2,0.3c2.4,3.9,6.5,6.2,11.1,6.2c5,0,9.4-2.8,11.6-7.2
			l0.1-0.3h0.3c11.6-0.6,18.7-1.2,21-1.8c1.7-0.4,3.4-1,4.9-1.9l0.3-0.1l0.3,0.1c1.9,1.1,4.1,1.7,6.3,1.7c7.2,0,13-5.8,13-13
			C420.2,385.5,416.6,380.5,411.4,378.7z M340.1,31.8h-11.2c-1,0-1-0.7-1-0.8c-0.1-1.6,6.8-6,8.5-6.2h0.1c0.8,0,0.9,0.6,0.9,0.7
			c0.4,3.1,2.1,5.4,2.1,5.4L340.1,31.8z M357.6,12.8h0.2l0.6,0.6l-0.3,0.4c-1,1.4-1.5,3-1.5,4.6c0,1.4,0.4,2.8,1.1,4l0.6,0.7
			l-0.4,0.4c-0.5,0.4-1,1-1.7,1.4c-4.8,2.4-11.3-4.9-11.3-4.9c1-1.4,1.1-3,3.5-4.7C351.9,12.9,353.8,12.5,357.6,12.8z M69.9,20.3
			l-1.1-0.5l-1,0.5c-3.4,1-6.1,6.3-6.1,6.3c-1.7-0.5-3-0.5-4.7-1.7c-0.7-0.5-1.3-0.9-1.7-1.4l-0.4-0.4l0.5-0.5l0.1-0.2
			c0.7-1.2,1.1-2.6,1.1-4c0-1.7-0.5-3.3-1.5-4.6l-0.3-0.4l0.6-0.6h0.2c3.8-0.3,5.7,0.1,9.3,2.5C67.3,16.9,68.9,18.9,69.9,20.3z
			 M87.2,31.8H73.1l0.7-0.9c0.2-0.2,1.7-2.4,2.1-5.4c0-0.3,0.2-0.5,0.5-0.6c1.2-0.5,6,3,9.7,5.9L87.2,31.8z M207.5,8.1v0.5
			c0,3,1.8,5.6,4.5,6.8l0.4,0.2l-0.2,0.9v0.2c0,9.3,4.5,11.2,11.8,11.2h0.5v4h-35.2v-4.1l0.6,0.1c0,0,4.8,0.8,8.3-2.2
			c2.3-2,3.5-5.3,3.5-9.8c0-0.5,4.7-2.8,4.7-7.2V8.2h1.1V8.1z"/>
	</g>
	<g>
		<path class="st3" d="M22.8,191.5c8.7,0,12.3-14,12.3-21.5v-48.8c0-4.8,3-9.7,9.7-9.7h323c4.9,0,8.5,0.2,10.7,2.6
			c0,0.1,0.1,0.2,0.2,0.3c0,0,0.1,0,0.2,0.1c1.7,2.1,2.6,5.6,2.6,11.5v2.8c-0.1,0-0.2,0-0.3,0.1c-0.2,0.2-0.2,0.5-0.1,0.7
			c0,0,0.1,0.1,0.3,0.4v34.5c-0.2,0.2-0.3,0.3-0.3,0.3c-0.2,0.2-0.2,0.5,0,0.7c0.1,0.1,0.2,0.1,0.3,0.2v1.4c-0.1,0-0.1,0-0.2,0.1
			c-0.2,0.1-0.3,0.4-0.2,0.7c0.1,0.2,0.2,0.4,0.4,0.6v1.4c0,19.7,10.9,22,11.4,22.1c0.1,0,0.1,0,0.2,0c0.2,0,0.5-0.1,0.6-0.2
			c0.2-0.2,0.4-0.5,0.4-0.8V67.8l0-1.4c0-6,0-11.7-3.9-15.7c-3.4-3.4-9.3-5-18.2-5H40.5c-11.9,0-18.7,3.2-18.7,19.8v125.1
			C21.8,191.1,22.3,191.5,22.8,191.5z M23.8,160.6c0.4,0.6,0.8,1.1,1.2,1.7c1.1,1.5,2.3,3.3,2.3,4.2c0,1-1.9,1.7-3.4,2V160.6z
			 M23.8,189.4v-15.2c1.9-0.6,6.6-2.2,9.3-4.7v0.5C33.1,176.3,30.3,188.3,23.8,189.4z M33.1,163.4c-2.1-2.4-5.8-7.8-5.8-15.1
			c0-7.3,3.7-13.7,5.8-16.7V163.4z M36.3,112.9c-1.7-2.5-6.2-10.2-6.2-20c0-11.7,9.9-28,19.8-28.5c0.3,3.6,2.8,25.7,19.3,25.7
			C81.2,90.1,87,85,87,74.5c0-8.5-8.4-15.6-13.7-15.6c-4.3,0-5.3-4.2-5.3-4.3c0,0-0.1-1,0.6-1.7c0.4-0.4,1-0.6,1.8-0.6
			c0.8,0,1.4,0.2,1.8,0.7c0.7,0.7,0.6,1.8,0.6,1.8c0,0.1,0,0.3,0.1,0.4c0.1,0.1,0.2,0.2,0.4,0.2c1.8,0,2-2.2,2-7.5H90
			c18.2,13.8,16.4,24.9,16.2,25.9C90.6,96.6,71,109.2,70.8,109.3c-0.1,0.1-0.2,0.2-0.2,0.3h-4c0-6.5-0.7-19.4-13.8-19.4
			c-14.9,0-16.1,10.1-16.1,13.3c0,3.4,1.6,6,2.7,7.3C38.2,111.3,37.2,112,36.3,112.9z M101.3,47.6c1.8,2.4,5.1,7.2,5.1,7.3
			c0.1,0.1,0.3,0.2,0.4,0.2c0.1,0,0.1,0,0.2,0c0.2-0.1,0.3-0.3,0.3-0.5c0,0-0.4-4,2-7h5.8c-1.9,3.6-5.3,12.9-2.9,21.3
			c0.1,0.2,0.2,0.3,0.4,0.4c0,0,0.1,0,0.1,0c0.1,0,0.3-0.1,0.4-0.2c0,0,3.4-3.9,7.8-3.6c0.2,0,0.4-0.1,0.5-0.3s0-0.4-0.2-0.6
			c0,0-3.9-3.2-3.9-7.5c0-4,1.7-6,5.1-6c0.9,0,1.6,0.2,2,0.7c0.7,0.8,0.6,1.9,0.6,1.9c0,0.1,0,0.1,0,0.2c0,0,0.2,0.8-0.1,1.3
			c-0.3,0.4-1,0.7-2,0.7c-0.3,0-0.5,0.2-0.5,0.5c0,0-0.1,1.2,0.8,2.1c0.8,0.8,2.1,1.3,3.7,1.3c4,0,5.4-3.2,5.4-6.1
			c0-2.7-1-4.8-1.8-6.1h16.5c-5.9,2.3-13.1,9.2-13.1,14.3c0,0.1,0.1,0.3,0.2,0.4c0.1,0.1,0.3,0.1,0.4,0.1c0.1,0,6.2-1,10.3,0.7
			c0.1,0,0.1,0,0.2,0c0.1,0,0.3-0.1,0.4-0.2c0.1-0.2,0.2-0.4,0.1-0.6c0,0-1.9-3.3-1.9-5.9c0-2.2,4.4-4.1,7.9-4.1
			c1.2,0,2.6,0.2,4,0.4c2.7,0.3,4.4,0.5,5.1-0.1c0.2-0.2,0.3-0.5,0.3-0.8c0-1-0.4-3-1.1-4.3h4.2c0.1,0.3,0.1,0.5,0.2,0.9
			c0.5,2,1.2,5,0.1,6.5c-0.5,0.7-1.4,1-2.6,1c-3.9,0-5.5-0.1-6.7-0.2c-0.7,0-1.3-0.1-2.1-0.1c-2.4,0-4.9,1-4.9,2.9
			c0,1.9,2.4,4.6,7.6,4.6c5.3,0,13-2.9,16.7-5.5c1-0.7,1.8-2.2,1.9-3.8c0.1-1.3-0.1-3.6-2.2-6.3h27.8l-3.7,3.6h-14
			c-0.3,0-0.5,0.2-0.5,0.5v14.7l-11.5,11.4c-0.1,0.1-0.1,0.2-0.1,0.4s0.1,0.3,0.1,0.4l11.3,11.2v15.1c0,0.3,0.2,0.5,0.5,0.5h14.1
			l4.9,4.1h-23.5V99.3c0-11.4-9.7-16.9-9.8-17c-0.2-0.1-0.4-0.1-0.6,0.1c-0.2,0.1-0.2,0.3-0.2,0.5c0,0,1.6,4.9,1.6,15.7
			c0,10.3-4.7,10.6-4.7,10.6c-0.2,0-0.4,0.2-0.5,0.4h-7.6c3.8-1.9,8.6-6.3,8.6-15.9c0-15.6-12.4-23.2-12.6-23.3
			c-0.2-0.1-0.3-0.1-0.5,0c-0.2,0.1-0.3,0.3-0.2,0.4c0,0,0.1,4.9,0.1,10.5c0,5.2-5.1,6.6-5.3,6.7c-0.2,0.1-0.4,0.3-0.4,0.5
			c0,0.2,0.2,0.4,0.5,0.4c2.1,0,5.7,0.6,5.7,5l0,0.8c0,1.8,0,3.1-0.6,3.7c-0.5,0.5-1.4,0.7-2.9,0.7c-2.1,0-2.5-1.1-2.9-2.2
			c-0.3-0.9-0.7-2-2.1-2c-2.8,0-5,4.1-5,7.4c0,2.7,1.2,4.2,2.8,6.2c0.2,0.3,0.5,0.6,0.7,0.9h-5.2c-0.7-0.8-1.8-2.8-1.8-7.5
			c0-7.3,6.4-11.2,6.5-11.2c0.2-0.1,0.3-0.4,0.2-0.6c-0.1-0.2-0.3-0.4-0.5-0.3c-0.1,0-8.4,0.9-20.7,0.9c-10.9,0-17.4,11.2-17.7,11.6
			c-0.1,0.2-0.1,0.5,0.1,0.6c0.2,0.2,0.5,0.2,0.6,0c0.1-0.1,6.1-5,16.1-5c10.3,0,13.2,9.7,13.6,11.5h-3.8c0,0,0-0.1,0-0.1
			c-0.1-0.2-2.6-5-9.8-5c-6.5,0-15.3,3.4-18.8,4.8c-0.1,0.1-0.2,0.2-0.3,0.3H89.9c2.1-1.4,5.3-4,10.6-10c8.1-9.2,9-20,9-20.2
			c0-0.2-0.1-0.4-0.3-0.5s-0.5,0-0.6,0.2c-5.7,8.8-23.3,26.8-26.8,30.5h-9.6c4-2.7,21-15,34.9-35.6c0,0,0.1-0.1,0.1-0.1
			c0.1-0.5,2.9-11.7-15.5-26.2H101.3z M102.6,47.6h5.6c-1.3,1.9-1.7,4-1.8,5.4C105.4,51.6,103.8,49.3,102.6,47.6z M129.4,47.6
			c0.7,1,2,3.2,2,6.1c0,1.2-0.3,5.1-4.4,5.1c-1.4,0-2.4-0.3-3-0.9c-0.3-0.3-0.5-0.7-0.5-1c1.1-0.1,1.9-0.5,2.3-1.1
			c0.6-0.8,0.4-1.8,0.3-2.1c0-0.4,0-1.6-0.9-2.5c-0.6-0.7-1.6-1-2.7-1c-3.9,0-6.1,2.5-6.1,7c0,3.4,2.1,6.1,3.4,7.4
			c-3.1,0.3-5.6,2.3-6.7,3.3c-1.9-8.2,1.7-17.3,3.3-20.2H129.4z M158.8,47.6c0.6,0.9,1.2,3,1.2,4.3c-0.3,0.4-2.8,0.1-4.3-0.1
			c-1.4-0.2-2.9-0.4-4.2-0.4c-3.6,0-8.9,2-8.9,5.1c0,1.9,0.9,4,1.5,5.3c-3.4-1-7.5-0.6-9-0.4c0.6-5.7,10.4-13.6,15.7-13.6
			c0.2,0,0.3-0.1,0.4-0.2H158.8z M170.9,47.6c2.4,2.6,2.6,5,2.5,6.2c-0.1,1.6-0.8,2.6-1.5,3c-3.5,2.5-11,5.3-16.1,5.3
			c-4.9,0-6.6-2.5-6.6-3.6c0-1.2,2-1.9,3.9-1.9c0.8,0,1.4,0,2,0.1c1.2,0.1,2.8,0.2,6.7,0.2c1.5,0,2.7-0.5,3.4-1.4
			c1.5-1.9,0.6-5.2,0.1-7.3c-0.1-0.2-0.1-0.4-0.2-0.6H170.9z M214.1,47.6l4.6,4.5c0.1,0.1,0.2,0.1,0.3,0.1h13.7v14.4
			c0,0.1,0.1,0.3,0.1,0.4l11.3,11.2l-11.1,11c-0.1,0.1-0.1,0.2-0.1,0.4v14.8h-13.8c-0.1,0-0.2,0-0.3,0.1l-6,5h-9.9l-6-5
			c-0.1-0.1-0.2-0.1-0.3-0.1h-13.8V89.6c0-0.1-0.1-0.3-0.1-0.4l-11.1-11L182.7,67c0.1-0.1,0.1-0.2,0.1-0.4V52.2h13.7
			c0.1,0,0.3-0.1,0.3-0.1l4.6-4.5H214.1z M250.4,47.6c0,0.2-0.1,0.4-0.2,0.6c-0.5,2.2-1.4,5.4,0.1,7.3c0.7,0.9,1.8,1.4,3.4,1.4
			c4,0,5.6-0.1,6.7-0.2c0.7,0,1.2-0.1,2-0.1c1.9,0,3.9,0.7,3.9,1.9c0,1.1-1.7,3.6-6.6,3.6c-5.1,0-12.6-2.8-16.1-5.3
			c-0.6-0.4-1.3-1.5-1.5-3c-0.1-1.2,0.1-3.6,2.5-6.2H250.4z M241.2,53.9c0.1,1.6,0.8,3,1.9,3.8c3.6,2.6,11.4,5.5,16.7,5.5
			c5.2,0,7.6-2.7,7.6-4.6c0-1.9-2.5-2.9-4.9-2.9c-0.8,0-1.4,0-2.1,0.1c-1.2,0.1-2.7,0.2-6.7,0.2c-1.2,0-2.1-0.3-2.6-1
			c-1.2-1.5-0.4-4.5,0.1-6.5c0.1-0.3,0.1-0.6,0.2-0.9h4.2c-0.7,1.3-1.1,3.3-1.1,4.3c0,0.3,0.1,0.6,0.3,0.8c0.7,0.6,2.4,0.4,5.1,0.1
			c1.4-0.2,2.8-0.4,4-0.4c3.6,0,7.9,1.9,7.9,4.1c0,2.6-1.9,5.9-1.9,5.9c-0.1,0.2-0.1,0.4,0.1,0.6c0.1,0.1,0.2,0.2,0.4,0.2
			c0.1,0,0.1,0,0.2,0c4.1-1.6,10.2-0.7,10.3-0.7c0.1,0,0.3,0,0.4-0.1c0.1-0.1,0.2-0.2,0.2-0.4c0-5.1-7.2-12-13.1-14.3H285
			c-0.8,1.3-1.8,3.4-1.8,6.1c0,3,1.4,6.1,5.4,6.1c1.7,0,3-0.4,3.7-1.3c0.9-1,0.8-2.1,0.8-2.1c0-0.3-0.2-0.5-0.5-0.5
			c-1,0-1.7-0.2-2-0.7c-0.4-0.5-0.1-1.3-0.1-1.3c0-0.1,0-0.1,0-0.2c0,0-0.1-1.1,0.6-1.9c0.4-0.5,1.1-0.7,2-0.7c3.4,0,5.1,2,5.1,6
			c0,4.2-3.9,7.4-3.9,7.5c-0.2,0.1-0.2,0.4-0.2,0.6s0.3,0.3,0.5,0.3c4.3-0.2,7.7,3.6,7.8,3.6c0.1,0.1,0.2,0.2,0.4,0.2
			c0,0,0.1,0,0.1,0c0.2,0,0.3-0.2,0.4-0.3c2.4-8.3-1-17.6-2.9-21.3h5.8c2.4,3,2,6.9,2,7c0,0.2,0.1,0.4,0.3,0.5c0.1,0,0.1,0,0.2,0
			c0.2,0,0.3-0.1,0.4-0.2c0-0.1,3.4-4.9,5.1-7.3h9.7c-18.5,14.5-15.7,25.7-15.5,26.2c0,0.1,0,0.1,0.1,0.1
			c13.9,20.6,30.9,32.9,34.9,35.6h-9.6c-3.6-3.6-21.1-21.7-26.8-30.5c-0.1-0.2-0.4-0.3-0.6-0.2c-0.2,0.1-0.4,0.3-0.3,0.5
			c0,0.1,0.8,10.9,9,20.2c5.2,6,8.4,8.6,10.6,10h-10.8c0-0.1-0.1-0.3-0.3-0.3c-3.5-1.4-12.3-4.8-18.8-4.8c-7.2,0-9.7,4.8-9.8,5
			c0,0,0,0.1,0,0.1h-3.8c0.4-1.7,3.3-11.5,13.6-11.5c9.9,0,16,4.9,16.1,5c0.2,0.2,0.5,0.2,0.6,0c0.2-0.2,0.2-0.4,0.1-0.6
			c-0.3-0.5-6.8-11.6-17.7-11.6c-12.3,0-20.6-0.9-20.7-0.9c-0.2,0-0.5,0.1-0.5,0.3c-0.1,0.2,0,0.5,0.2,0.6c0.1,0,6.5,3.9,6.5,11.2
			c0,4.7-1,6.7-1.8,7.5h-5.2c0.3-0.3,0.5-0.6,0.7-0.9c1.6-2.1,2.8-3.5,2.8-6.2c0-3.4-2.2-7.4-5-7.4c-1.4,0-1.8,1.1-2.1,2
			c-0.4,1.1-0.7,2.2-2.9,2.2c-1.5,0-2.4-0.2-2.9-0.7c-0.7-0.7-0.6-1.9-0.6-3.7l0-0.8c0-4.3,3.6-5,5.7-5c0.3,0,0.5-0.2,0.5-0.4
			c0-0.2-0.1-0.5-0.4-0.5c-0.1,0-5.3-1.5-5.3-6.7c0-5.6,0.1-10.4,0.1-10.5c0-0.2-0.1-0.4-0.2-0.4c-0.2-0.1-0.4-0.1-0.5,0
			c-0.1,0.1-12.6,7.7-12.6,23.3c0,9.6,4.8,13.9,8.6,15.9h-7.6c-0.1-0.2-0.2-0.3-0.5-0.4c0,0-4.7-0.2-4.7-10.6
			c0-10.8,1.6-15.6,1.6-15.7c0.1-0.2,0-0.4-0.2-0.5c-0.2-0.1-0.4-0.2-0.6-0.1c-0.1,0.1-9.8,5.6-9.8,17v10.3h-23.5l4.9-4.1h14.1
			c0.3,0,0.5-0.2,0.5-0.5V89.8l11.3-11.2c0.1-0.1,0.1-0.2,0.1-0.4s-0.1-0.3-0.1-0.4l-11.5-11.4V51.7c0-0.3-0.2-0.5-0.5-0.5h-14
			l-3.7-3.6h27.8C241.3,50.3,241.1,52.6,241.2,53.9z M264.5,47.6c0.1,0.1,0.2,0.2,0.4,0.2c5.2,0,15,7.9,15.7,13.6
			c-1.5-0.2-5.6-0.6-9,0.4c0.6-1.3,1.5-3.4,1.5-5.3c0-3.1-5.3-5.1-8.9-5.1c-1.3,0-2.7,0.2-4.2,0.4c-1.5,0.2-4,0.5-4.3,0.1
			c0-1.3,0.6-3.3,1.2-4.3H264.5z M299.3,47.6c1.7,2.9,5.3,12,3.3,20.2c-1.1-1-3.6-3-6.7-3.3c1.3-1.3,3.4-4,3.4-7.4
			c0-4.5-2.2-7-6.1-7c-1.2,0-2.1,0.4-2.7,1c-0.9,0.9-0.9,2.2-0.9,2.5c-0.1,0.3-0.3,1.3,0.3,2.1c0.4,0.6,1.2,1,2.3,1.1
			c-0.1,0.3-0.2,0.6-0.5,1c-0.6,0.6-1.6,0.9-3,0.9c-4.1,0-4.4-3.9-4.4-5.1c0-2.8,1.3-5.1,2-6.1H299.3z M307.5,47.6h5.6
			c-1.2,1.7-2.8,4-3.8,5.4C309.2,51.6,308.8,49.5,307.5,47.6z M332.5,109.6h-4.8c-2-1-5.2-3.2-11.8-10.7c-5.8-6.6-7.8-14-8.4-17.5
			C313.8,90.2,328.1,105,332.5,109.6z M312.7,109.6h-25.6c0.7-1.1,3.2-4.1,8.7-4.1C301.4,105.4,308.7,108,312.7,109.6z M280,109.6
			c0.8-1.2,1.5-3.5,1.5-7.5c0-5.6-3.4-9.3-5.5-11c3.1,0.3,10,0.8,18.9,0.8c7.5,0,12.9,5.8,15.4,9c-2.7-1.5-7.7-3.8-14.5-3.8
			c-11.5,0-14.4,11.7-14.6,12.5H280z M262.1,109.6c-3.5-1.2-10.1-4.8-10.1-15.9c0-12.8,8.7-20,11.3-21.9c0,1.7-0.1,5.4-0.1,9.5
			c0,3.8,2.4,5.8,4.2,6.8c-3,0.6-4.7,2.6-4.7,5.8l0,0.8c0,2,0,3.5,0.9,4.4c0.7,0.7,1.8,1,3.6,1c2.8,0,3.4-1.7,3.8-2.9
			c0.3-1,0.5-1.3,1.1-1.3c2.1,0,4,3.6,4,6.4c0,2.4-1,3.6-2.6,5.6c-0.3,0.4-0.7,0.9-1.1,1.4c0,0-0.1,0.1-0.1,0.2H262.1z M249.5,109.6
			h-10.7V99.3c0-8.6,5.8-13.6,8.2-15.4c-0.5,2.1-1.3,6.8-1.3,14.7C245.7,105.8,247.9,108.5,249.5,109.6z M176.8,109.6h-10.7
			c1.7-1,3.8-3.8,3.8-10.9c0-7.9-0.8-12.6-1.3-14.7c2.4,1.8,8.2,6.8,8.2,15.4V109.6z M143.3,109.6c0-0.1,0-0.1-0.1-0.2
			c-0.4-0.5-0.8-1-1.1-1.4c-1.6-2-2.6-3.3-2.6-5.6c0-2.8,1.9-6.4,4-6.4c0.6,0,0.8,0.3,1.1,1.3c0.4,1.2,1,2.9,3.8,2.9
			c1.8,0,2.9-0.3,3.6-1c1-1,0.9-2.4,0.9-4.4l0-0.8c0-3.2-1.7-5.2-4.7-5.8c1.8-1,4.2-3.1,4.2-6.8c0-4.1,0-7.8-0.1-9.5
			c2.7,1.9,11.3,9.1,11.3,21.9c0,11.1-6.5,14.7-10,15.9H143.3z M134.4,109.6c-0.2-0.8-3.1-12.5-14.6-12.5c-6.8,0-11.8,2.2-14.5,3.8
			c2.4-3.2,7.9-9,15.4-9c9,0,15.8-0.5,18.9-0.8c-2.1,1.7-5.5,5.4-5.5,11c0,4.1,0.7,6.3,1.5,7.5H134.4z M128.5,109.6h-25.6
			c4-1.6,11.3-4.1,16.9-4.1C125.3,105.4,127.8,108.5,128.5,109.6z M83.1,109.6c4.4-4.5,18.7-19.4,25-28.2
			c-0.6,3.5-2.6,10.9-8.4,17.5c-6.6,7.5-9.8,9.7-11.8,10.7H83.1z M40.4,110.3c-0.9-1.1-2.6-3.6-2.6-6.9c0-2.9,1.1-12.3,15.1-12.3
			c12.1,0,12.8,12.1,12.8,18.4h-5.2c0-0.3,0-0.7,0-1.1c0.1-3.3,0.2-7.7-2.5-10.4c-1.4-1.5-3.5-2.2-6.2-2.2c-3.3,0-5.7,0.8-7.1,2.3
			c-1.9,1.9-1.7,4.5-1.7,5.5c0,0.1,0,0.2,0,0.3c0,1.3,1,4.4,3.3,4.4c0.9,0,1.5-0.2,1.8-0.7c0.5-0.6,0.3-1.3,0.2-1.4
			c0,0-0.4-1.1,0.2-1.8c0.4-0.5,1.2-0.8,2.3-0.8c3.5,0,4,1.2,4,6.1h-10C43.2,109.6,41.7,109.8,40.4,110.3z M47.3,106.4
			c0,0,0.1,0.3-0.1,0.5c-0.2,0.2-0.5,0.3-1,0.3c-1.6,0-2.3-2.4-2.3-3.4c0-0.1,0-0.2,0-0.3c0-0.9-0.2-3.1,1.4-4.8
			c1.3-1.4,3.4-2,6.4-2c2.4,0,4.3,0.6,5.5,1.9c2.4,2.4,2.3,6.6,2.2,9.7c0,0.4,0,0.8,0,1.1h-3.6c0-4.8-0.5-7.1-5-7.1
			c-1.5,0-2.5,0.4-3.1,1.2C46.8,104.9,47.3,106.4,47.3,106.4z M356.2,108.4c-0.1-3.1-0.2-7.3,2.2-9.7c1.2-1.3,3.1-1.9,5.5-1.9
			c3,0,5.1,0.7,6.4,2c1.6,1.6,1.4,3.8,1.4,4.8c0,0.1,0,0.2,0,0.3c0,0.9-0.7,3.4-2.3,3.4c-0.5,0-0.9-0.1-1-0.3
			c-0.2-0.2-0.1-0.5-0.1-0.5c0-0.1,0.5-1.6-0.3-2.7c-0.6-0.8-1.6-1.2-3.1-1.2c-4.5,0-5,2.3-5,7.1h-3.6
			C356.3,109.2,356.2,108.8,356.2,108.4z M360.8,109.6c0-4.8,0.5-6.1,4-6.1c1.1,0,1.9,0.3,2.3,0.8c0.5,0.7,0.2,1.8,0.2,1.8
			c0,0.1-0.2,0.8,0.2,1.4c0.4,0.5,1,0.7,1.8,0.7c2.4,0,3.3-3.1,3.3-4.4c0-0.1,0-0.2,0-0.3c0-1,0.2-3.6-1.7-5.5
			c-1.5-1.6-3.9-2.3-7.1-2.3c-2.7,0-4.8,0.7-6.2,2.2c-2.7,2.7-2.6,7.2-2.5,10.4c0,0.4,0,0.8,0,1.1H350c0-6.2,0.7-18.4,12.8-18.4
			c14,0,15.1,9.4,15.1,12.3c0,3.2-1.6,5.6-2.6,6.8c-2.2-0.5-4.7-0.7-7.5-0.7H360.8z M376.4,110.5c1-1.4,2.5-3.9,2.5-7.1
			c0-3.1-1.2-13.3-16.1-13.3c-13.1,0-13.8,12.8-13.8,19.4h-4c0-0.1-0.1-0.2-0.2-0.3c-0.2-0.1-19.8-12.7-35.4-35.8
			c-0.2-1-2-12,16.2-25.9h14.6c0,5.3,0.2,7.5,2,7.5c0.1,0,0.3-0.1,0.4-0.2c0.1-0.1,0.1-0.2,0.1-0.4c0,0,0-1.1,0.6-1.8
			c0.4-0.4,1-0.7,1.8-0.7c0.8,0,1.4,0.2,1.8,0.6c0.6,0.7,0.6,1.6,0.6,1.6c0,0.1-1,4.4-5.3,4.4c-5.3,0-13.7,7.1-13.7,15.6
			c0,10.5,5.8,15.6,17.7,15.6c16.6,0,19-22.1,19.3-25.7c9.9,0.5,19.8,16.7,19.8,28.5c0,9.4-4,16.7-5.9,19.6
			C378.7,111.5,377.6,110.9,376.4,110.5z M380.3,113.1c1.9-2.9,6.2-10.5,6.2-20.3c0-12.6-10.5-29.5-21.3-29.5
			c-0.3,0-0.5,0.2-0.5,0.5c0,0.3-1.4,25.3-18.4,25.3c-11.2,0-16.7-4.8-16.7-14.6c0-8.4,8.3-14.6,12.7-14.6c5.1,0,6.3-5.1,6.3-5.2
			c0-0.1,0.1-1.5-0.8-2.5c-0.6-0.6-1.5-1-2.6-1c-1.1,0-2,0.3-2.6,1c-0.5,0.6-0.7,1.2-0.8,1.7c-0.5-0.7-0.6-2.7-0.6-6.3H357
			c1.4,2.5,6.5,10.8,13.2,10.8c7.6,0,8.5-6.7,8.7-10.3c4.4,0.6,7.6,1.9,9.7,3.9c-1.3,2.4-5.4,9.5-11.8,9.5c-0.3,0-0.5,0.2-0.5,0.5
			s0.2,0.5,0.5,0.5c2.5,0,13.5,10.5,15.3,20l0,19.3c-0.5,3.4-2,5.7-3.4,7.9c-1.6,2.6-3.2,5-3.2,9c0,4.5,2,8.3,3.8,11.7
			c1.2,2.2,2.3,4.2,2.7,6.3l0,21.4c-0.4,1.1-1.4,2.4-2.2,3.7c-1.3,1.9-2.4,3.6-2.4,4.7c0,2,3.2,2.8,4.7,3.1l0,3.6
			c-1.8-0.6-6.1-2.1-8.6-4.2v-5.2c2.2-2.6,5.9-8.1,5.9-15.6c0-7.5-3.7-14-5.9-17.1v-5C383.5,119.5,382.4,115.5,380.3,113.1z
			 M392.1,168.6c-1.6-0.3-3.7-1-3.7-2c0-0.9,1.2-2.6,2.3-4.2c0.5-0.7,1-1.5,1.4-2.1L392.1,168.6z M392.1,105.6l0,28
			c-0.5-1.2-1.2-2.5-1.9-3.7c-1.8-3.4-3.7-6.9-3.7-11.2c0-3.7,1.5-6,3-8.5C390.4,108.9,391.4,107.4,392.1,105.6z M388.4,148.2
			c0,6.3-2.8,11.2-4.9,14v-29.3C385.6,136.3,388.4,141.9,388.4,148.2z M383.5,170.3c2.9,2.1,7,3.5,8.6,4l0,15.2
			C389.5,188.3,383.7,184.1,383.5,170.3z M392.1,66.4l0,12.5c-2.8-7.3-9.5-14.3-13.3-16.7c5.6-1.2,9.2-7,10.5-9.5
			C392.1,56.1,392.1,61.1,392.1,66.4z M377.9,47.9c-0.3,6.4-2.7,9.4-7.7,9.4c-5.6,0-10.3-7-12-9.8h13.7
			C374.1,47.6,376.1,47.7,377.9,47.9z M57.4,47.6c-1.6,2.8-6.4,9.8-12,9.8c-5,0-7.4-3.1-7.7-9.7c0.9,0,1.8-0.1,2.8-0.1H57.4z
			 M36.8,47.8c0.1,3.5,0.9,10.6,8.7,10.6c6.6,0,11.8-8.3,13.2-10.8h15.8c0,3.6-0.1,5.6-0.6,6.3c-0.1-0.5-0.3-1.2-0.8-1.7
			c-0.6-0.6-1.5-1-2.6-1c-1.1,0-2,0.3-2.6,1c-0.9,1-0.8,2.4-0.8,2.5c0,0.1,1.2,5.2,6.3,5.2C77.6,59.9,86,66,86,74.5
			c0,9.8-5.4,14.6-16.7,14.6c-17,0-18.4-25-18.4-25.3c0-0.3-0.2-0.5-0.5-0.5c-10.8,0-21.3,16.9-21.3,29.5c0,10.4,4.9,18.4,6.5,20.8
			c-1.6,2-2.6,4.6-2.6,7.7v8.5c-1.8,2.3-6.8,9.6-6.8,18.4c0,8.8,5,14.7,6.8,16.7v3.2c-2.1,2.5-7,4.3-9.3,5v-3.6
			c1.6-0.3,4.4-1.1,4.4-3c0-1.2-1.1-2.8-2.4-4.7c-0.7-1.1-1.5-2.2-2-3.2v-22.9c0.6-1.8,1.5-3.5,2.5-5.4c1.8-3.4,3.8-7.1,3.8-11.7
			c0-4-1.6-6.4-3.2-9c-1.2-1.9-2.5-3.9-3.1-6.6V81.3c2.4-9.2,12.6-18.9,15-18.9c0.3,0,0.5-0.2,0.5-0.5s-0.2-0.5-0.5-0.5
			c-6.3,0-10.6-7.2-11.8-9.6C29.2,49.2,32.5,48.1,36.8,47.8z M23.8,133.1v-26.9c0.7,1.5,1.5,2.8,2.3,4.1c1.6,2.5,3,4.8,3,8.5
			c0,4.3-1.9,7.8-3.7,11.2C24.9,131,24.3,132,23.8,133.1z M26.4,52.8c1.4,2.6,4.9,8.3,10.4,9.4c-3.7,2.2-10.1,8.9-13,16V65.4
			C23.8,59.5,24.7,55.5,26.4,52.8z"/>
		<path class="st3" d="M413.2,380c-0.1-0.8-0.2-1.7-0.3-2.5c-0.6-4.5-1-9.7-1.2-15.4c3.9-2.4,6.6-6.7,6.6-11.6c0-4.6-2.3-8.6-5.7-11
			c0.2-2,0.5-3.8,0.7-5.1c0.3-1.7,0.4-6.3,0.1-14c4.5-2.2,7.6-6.8,7.6-12.1c0-5.8-3.6-10.7-8.7-12.6c-0.3-5.5-0.7-11.2-1-17.2
			c4.9-2,8.4-6.9,8.4-12.5c0-6.3-4.4-11.6-10.2-13.1c-0.1-0.9-0.1-1.6-0.2-2.2c-0.2-2.4-0.6-7.2-1-14.4c5.1-1.9,8.7-6.9,8.7-12.6
			c0-6.3-4.3-11.5-10.1-13.1c-0.2-3.5-0.3-6.5-0.3-6.7V70.7c0-34-12.3-39.6-35.9-40.4v-3.5c2.7-1.6,4.6-4.6,4.6-8
			c0-5.1-4.2-9.3-9.3-9.3c0,0-0.1,0-0.1,0c-4.3-2-11.5-3.1-21,3.4c-3,2-5.1,4.3-6.3,6.7c-3.7-0.1-7.8,2.3-11.3,4.7
			c-1.8,1.2-5.4,4.8-6.5,6h-48.2l-47.1-14.3c-0.3-0.1-0.6,0-0.9,0.2c-0.3,0.2-0.4,0.5-0.4,0.8v4c-2.5-0.2-3.8-1-4-4.1
			c2.8-1.5,4.7-4.5,4.7-7.8c0-4.9-4-8.9-8.9-8.9c-3.5,0-6.5,2-7.9,4.9C206.5,2,203.5,0,200,0c-4.9,0-8.9,4-8.9,8.9
			c0,3.4,1.9,6.3,4.7,7.8c-0.2,3.1-1.5,3.9-4,4.1v-4c0-0.3-0.1-0.6-0.4-0.8c-0.3-0.2-0.6-0.2-0.9-0.2l-47.1,14.3h-49
			c-1.1-1.1-4.7-4.7-6.5-6c-3.6-2.4-7.6-4.8-11.3-4.7c-1.2-2.5-3.3-4.7-6.3-6.7c-9.5-6.4-16.6-5.4-21-3.4c0,0-0.1,0-0.1,0
			c-5.1,0-9.3,4.2-9.3,9.3c0,3.4,1.8,6.4,4.6,8v3.5C26.8,30.7,9.4,35.5,9,66.6c-0.4,29,0,133.7,0,137.6L9,204.9
			c-0.2,1.3-0.4,2.4-0.5,4.4c0,0.2,0,0.4,0,0.5c-5,2-8.5,6.9-8.5,12.5c0,5.1,2.9,9.6,7.2,11.9c-0.1,3.1-0.1,6.2-0.1,9.3
			c0,0.6,0,1.1,0,1.6c0,0.3,0,0.7,0,1c0,0.7,0,1.3,0,2c0,0.4,0,0.8,0,1.1l0,3.4c-4.2,2.3-7,6.7-7,11.8c0,5.2,3,9.7,7.3,12
			c0.2,6.6,0.4,13.9,0.5,20.2c-3.8,2.4-6.4,6.6-6.4,11.5c0,4.9,2.6,9.2,6.5,11.5c-0.1,8.4-0.3,14.9-0.9,18.9c-4.2,2.3-7,6.7-7,11.8
			c0,4.2,2,8,5,10.5c-0.3,8.8-0.1,16.3,0.5,22.1l0.1,0c-1.8,2.3-2.9,5.2-2.9,8.3c0,7.4,6.1,13.5,13.5,13.5c3.1,0,6-1.1,8.3-2.9
			c4.5,0.7,10,1.5,16.5,2.2c0.9,6.6,6.5,11.6,13.4,11.6c6,0,11-3.9,12.8-9.3c6,0.5,12.5,0.9,19.4,1.3c1.8,5.4,6.8,9.3,12.8,9.3
			c5.5,0,10.2-3.3,12.3-8c7,0.3,14.2,0.7,21.6,0.9c2,4.9,6.9,8.4,12.5,8.4c5.3,0,9.9-3.1,12.1-7.6c6.6,0.2,13.2,0.4,19.7,0.5
			c2.3,4.2,6.7,7.1,11.9,7.1c5,0,9.3-2.7,11.6-6.7c5.2,0,10.2,0.1,14.9,0.1c1.8,0,3.6,0,5.4,0c2.4,4,6.7,6.6,11.6,6.6
			c5,0,9.4-2.7,11.7-6.8c6.1-0.1,12.2-0.1,18.3-0.2c2.5,3.4,6.4,5.6,10.9,5.6c4.7,0,8.8-2.4,11.2-6c8.2-0.2,15.8-0.3,24.5-0.6
			c2.5,3.2,6.3,5.2,10.6,5.2c4.6,0,8.6-2.3,11.1-5.8c7.4-0.2,14.5-0.5,21-0.7c2.4,3.9,6.6,6.5,11.5,6.5c5.3,0,9.9-3.1,12.1-7.6
			c11.7-0.6,18.8-1.2,21.2-1.8c1.8-0.4,3.5-1.1,5-1.9c2,1.1,4.2,1.8,6.7,1.8c7.4,0,13.5-6.1,13.5-13.5
			C422.5,386.8,418.6,381.8,413.2,380z M410,377.9c0.1,0.5,0.1,1,0.2,1.4c-0.4,0-0.8-0.1-1.2-0.1c-1.3,0-2.6,0.2-3.8,0.6
			c-1.8-5.6-2.8-11-3-16.1c0.9,0.2,1.8,0.3,2.8,0.3c1.4,0,2.7-0.2,3.9-0.6C409,368.7,409.4,373.6,410,377.9z M395.5,392.8
			c0,0.7,0.1,1.3,0.2,2c-5.3,0.5-12,1-19.6,1.6c-2.1-4.1-6.2-7.1-11-7.5c0-3.1,0.3-6.2,0.6-9.5c0.4-3.8,0.8-7.8,0.6-11.6
			c5.8-1.2,10.3-6.2,10.7-12.3c2.8-0.2,5.4-0.8,7.9-1.3c2.2-0.5,4.4-0.9,6.7-1.2c0.9,4.7,4.1,8.5,8.5,10.2
			c0.1,5.5,1.2,11.4,3.2,17.4C398.7,382.7,395.5,387.4,395.5,392.8z M351.1,398.1c-5.7,0.4-11.6,0.8-17.7,1.2
			c-1.3-5.8-6.4-10.1-12.5-10.5c-0.3-5.1-0.7-11.2-1.3-18.2c6.2-1,11-6.2,11.3-12.6c4.6-0.4,8.5-1.8,9.8-2.3
			c1.6-0.6,5.6-0.7,8.8-0.8c0.1,0,0.2,0,0.3,0c0.2,7.3,6.2,13.2,13.5,13.2c0.3,0,0.5,0,0.8,0c0.1,3.7-0.3,7.5-0.6,11.2
			c-0.3,3.2-0.6,6.5-0.6,9.7C357.5,389.3,352.8,393,351.1,398.1z M306.9,401c-6.7,0.4-13.3,0.8-19.5,1.1
			c-0.8-6.4-6.1-11.4-12.6-11.8c0.5-3.6,1.1-7.8,1.7-12.6c0.1,0,0.1,0,0.2,0c7.2,0,13-5.6,13.5-12.7c4.7-1,10-2.3,14.6-3.5
			c1.8,5.4,6.8,9.3,12.8,9.3c0.1,0,0.1,0,0.2,0c0.6,7,1,13.1,1.3,18.1C312.6,389.5,307.5,394.6,306.9,401z M260.5,403.3
			c-5,0.2-9.7,0.4-14,0.5c-0.6-6.9-6.4-12.3-13.4-12.3c-0.1,0-0.2,0-0.3,0c0.1-1.7,0.3-5.2,0.5-9.8c7.4-0.1,13.3-6.1,13.3-13.5
			c0-0.2,0-0.4,0-0.6c1.8-0.3,3.5-0.5,4.9-0.8c1.7-0.3,3.1-0.5,3.8-0.6c1.4-0.2,4.4-0.4,8.1-0.5c0.7,6,5.3,10.7,11.2,11.7
			c-0.6,4.9-1.2,9.2-1.7,12.8C266,390.9,260.7,396.5,260.5,403.3z M219.6,404c-5-0.1-10.6-0.2-16.8-0.3c-0.7-6.7-6.3-12-13.2-12.1
			c-0.4-5.7-0.6-10.9-0.6-15.4c0.6,0.1,1.1,0.1,1.7,0.1c7,0,12.7-5.3,13.4-12.1c4.6,0.4,7.5,0.7,8,0.9c1,0.4,4.1,1.2,7.4,2
			c0,0.4-0.1,0.8-0.1,1.1c0,6.8,5.1,12.5,11.7,13.4c-0.2,5-0.4,8.6-0.5,10.2C224.7,392.8,220.1,397.8,219.6,404z M176.1,403
			c-5.5-0.2-11.3-0.4-17.1-0.6c-1.2-6.1-6.5-10.7-12.9-10.8l0.4-14c7.1-0.4,12.8-6.3,12.8-13.5c0,0,0,0,0,0c3.8,0,7.4,0,10.9,0
			c2.5,0,4.9,0,7.2,0c0.6,5.6,4.5,10.1,9.7,11.6c0,4.7,0.1,10,0.6,15.9C181.7,392.5,177,397.1,176.1,403z M132.8,401.3
			c-7-0.3-13.8-0.6-20.3-1c-1.4-5.6-6.3-9.8-12.3-10.1c0.1-4.6,0.3-9.7,0.7-15.3c6.8-0.1,12.3-5.1,13.2-11.7
			c5.4,0.2,11.4,0.4,18.2,0.5c0,0.1,0,0.3,0,0.4c0,7,5.4,12.8,12.2,13.4l-0.4,14.1C138.7,392.4,134.3,396.2,132.8,401.3z
			 M55.6,388.9c0.1-4,0.3-9.8,0.5-16.7c0.3,0,0.7,0.1,1,0.1c7.2,0,13-5.6,13.5-12.6c6.2,0.7,11.8,1.3,16.7,1.8c0,0,0,0.1,0,0.1
			c0,6.8,5.1,12.5,11.6,13.4c-0.4,5.6-0.6,10.8-0.7,15.5c-5.2,0.5-9.6,3.9-11.4,8.6c-7.1-0.5-13.7-0.9-19.8-1.4
			C65.2,392.8,60.8,389.4,55.6,388.9z M44.7,263.5c-7.4-1.2-13.6-2.3-18.5-3.4c-1.9-5.2-6.8-9-12.7-9c-1.2,0-2.4,0.2-3.5,0.5l0-2.6
			c0-0.2,0-0.5,0-0.7c0-0.7,0-1.3,0-2c0-0.3,0-0.7,0-1c0-0.5,0-1.1,0-1.6c0-2.6,0-5.2,0.1-8.1c1.1,0.3,2.2,0.4,3.4,0.4
			c7.1,0,13-5.5,13.5-12.5c4.5,0.5,10.2,1,17,1.5c-0.2,0.9-0.3,1.9-0.3,2.9c0,6.3,4.3,11.6,10.2,13.1c0,3.9,0.2,9.4,0.6,14.6
			C50,256.4,46.4,259.4,44.7,263.5z M394.4,204.1c0.5,2.2,1.1,5.2,1.7,8.3c-3.2,2.1-5.5,5.6-6,9.5c-4.6,0-10.2,0.2-17,0.6
			c-1.1-5.8-5.8-10.2-11.7-10.9c-0.4-5.4-0.8-11.5-1.1-16.9c6.4-0.9,11.4-6.2,11.7-12.8C374.6,191.8,381.9,200.8,394.4,204.1z
			 M400.6,236.9c1,6.1,1.8,11.5,2.4,16c-4.6,1.2-8.3,4.7-9.6,9.2c-4.6,0.7-9.5,1.4-14.6,2.1c-0.8-6.2-5.9-11.1-12.2-11.7
			c-0.5-4.2-1.3-9.2-2.2-14.7c5.3-1.8,9-6.8,9-12.7c0-0.2,0-0.3,0-0.5c6.7-0.4,12.2-0.6,16.7-0.6
			C390.2,230.3,394.6,235.5,400.6,236.9z M404.7,279.4l0,0.3c0.3,4.6,0.7,9.8,1,15.2c-6.5,0.9-11.6,6.6-11.6,13.3c0,0.3,0,0.6,0,0.9
			c-4.4,0.6-9.1,1.2-14,1.7c-0.1-6.9-5.3-12.6-12.1-13.3c0-5.7-0.1-12.4-0.2-18.3c6.2-1.2,10.8-6.5,11-13c4.9-0.7,9.6-1.3,14.1-2
			c-0.1,0.6-0.1,1.2-0.1,1.8C392.7,272.9,398,278.6,404.7,279.4z M404.9,337c-7.4,0-13.5,6.1-13.5,13.5c0,0.2,0,0.3,0,0.5
			c-2.4,0.3-4.7,0.8-6.9,1.2c-2.5,0.5-4.9,1-7.5,1.3c-0.5-5.8-4.7-10.6-10.2-12c0.5-1.4,0.8-2.8,1.1-4.1c0.3-1.4,0.6-2.7,1.1-4
			c1.2-3.1,1.6-6.2,1.1-9.4c5.2-1.3,9.2-5.7,10-11.1c5-0.6,9.8-1.2,14.4-1.8c1.2,5.7,6,10,11.9,10.6c-0.1,5.9-0.5,11-1.1,15.4
			C405.1,337,405,337,404.9,337z M363.5,366.1c-6.3,0-11.5-5.2-11.5-11.5s5.2-11.5,11.5-11.5c6.3,0,11.5,5.2,11.5,11.5
			S369.9,366.1,363.5,366.1z M350.1,352.9c-0.2,0-0.3,0-0.5,0c-3.5,0.1-7.6,0.3-9.4,0.9c-1.2,0.4-4.9,1.8-9.2,2.1
			c-0.5-5.5-4.3-10-9.4-11.6c0.6-4,1.1-8.9,1.6-14.5c7.1-0.1,12.9-5.6,13.3-12.6c5.9-0.5,11.8-1,17.5-1.6c1.9,5.1,6.8,8.8,12.6,8.8
			c0.5,0,0.9,0,1.4-0.1c0.4,2.8,0.1,5.5-1,8.3c-0.6,1.4-0.9,2.8-1.2,4.3c-0.3,1.3-0.6,2.7-1.2,4.2c-0.4,0-0.8-0.1-1.2-0.1
			C356.6,341.1,351,346.3,350.1,352.9z M317.6,368.8c-6.3,0-11.5-5.2-11.5-11.5c0-6.3,5.2-11.5,11.5-11.5c6.3,0,11.5,5.2,11.5,11.5
			C329.1,363.7,324,368.8,317.6,368.8z M304.1,357.3c0,0.8,0.1,1.5,0.2,2.2c-4.5,1.2-9.6,2.4-14.2,3.4c-0.5-5.9-4.9-10.8-10.6-12
			c0.5-5.2,1-10.2,1.4-14.5c6-1.3,10.6-6.7,10.6-13.2c0-0.9-0.1-1.8-0.3-2.7c6.2-0.4,12.5-0.8,18.6-1.2c1.2,5.4,5.7,9.6,11.3,10.4
			c-0.5,5.5-1,10.3-1.5,14.2c-0.7-0.1-1.4-0.2-2.1-0.2C310.2,343.8,304.1,349.9,304.1,357.3z M265.2,364.1c0-6.3,5.2-11.5,11.5-11.5
			s11.5,5.2,11.5,11.5s-5.2,11.5-11.5,11.5S265.2,370.5,265.2,364.1z M263.2,363.8c-3.7,0.1-6.8,0.4-8.2,0.5
			c-0.7,0.1-2.1,0.3-3.9,0.6c-1.4,0.2-3.1,0.5-4.8,0.7c-1.1-5.8-5.9-10.2-11.9-10.8c0.3-6.8,0.5-13.4,0.7-19.6
			c6.3-1,11.1-6.3,11.4-12.7c6-0.2,12.1-0.4,18.1-0.6c0,0.5-0.1,0.9-0.1,1.4c0,7.4,6.1,13.5,13.5,13.5c0.3,0,0.6,0,0.9,0
			c-0.4,4.3-0.9,9-1.4,14c-0.3,0-0.6,0-0.9,0C269.4,350.6,263.4,356.5,263.2,363.8z M233.1,379.7c-6.3,0-11.5-5.2-11.5-11.5
			c0-6.3,5.2-11.5,11.5-11.5s11.5,5.2,11.5,11.5C244.6,374.6,239.4,379.7,233.1,379.7z M219.9,365.1c-3.4-0.8-6.2-1.6-7-1.9
			c-1.1-0.4-6.2-0.9-8.7-1.1c-0.3-6.8-5.7-12.3-12.5-12.8c0.2-3.9,0.4-8.6,0.5-14c7,0,12.8-5.5,13.4-12.4c2.6,0,5.1,0,7.7,0
			c2.1,0,4.3,0,6.4,0c0.6,6.9,6.4,12.3,13.4,12.3c0,0,0,0,0.1,0c-0.2,6.2-0.4,12.7-0.7,19.4C226.3,355.1,221.3,359.4,219.9,365.1z
			 M179.3,362.8c0-6.3,5.2-11.5,11.5-11.5s11.5,5.2,11.5,11.5c0,6.3-5.2,11.5-11.5,11.5S179.3,369.1,179.3,362.8z M177.3,362.1
			c-5.3,0-11.6,0-18.2,0c-0.9-6-5.8-10.7-11.8-11.4l0.5-15.4c0.3,0,0.5,0,0.8,0c7.4,0,13.5-6.1,13.5-13.5c0,0,0-0.1,0-0.1
			c5.6,0.3,11.2,0.5,16.7,0.7c0.3,6.5,5.2,11.9,11.6,12.8c-0.1,5.5-0.3,10.2-0.5,14.1C183,349.8,177.6,355.3,177.3,362.1z
			 M145.8,375.6c-6.3,0-11.5-5.2-11.5-11.5s5.2-11.5,11.5-11.5c6.3,0,11.5,5.2,11.5,11.5S152.1,375.6,145.8,375.6z M132.5,361.8
			c-6.7-0.1-12.9-0.3-18.2-0.5c-0.1-6.4-4.7-11.8-10.8-13c0.7-6,1.4-11.8,2-16.9c0.2,0,0.5,0,0.7,0c7.1,0,12.9-5.5,13.4-12.4
			c5.2,0.4,10.4,0.8,15.5,1.2c-0.1,0.6-0.1,1.2-0.1,1.8c0,6.5,4.6,11.9,10.7,13.2l-0.5,15.6C138.9,350.9,133.6,355.6,132.5,361.8z
			 M100.8,372.9c-6.3,0-11.5-5.2-11.5-11.5s5.2-11.5,11.5-11.5c6.3,0,11.5,5.2,11.5,11.5S107.1,372.9,100.8,372.9z M91.8,269.5
			c-7.3-0.8-14.5-1.6-21.3-2.4c-0.8-6.7-6.5-11.9-13.4-11.9c-0.3,0-0.5,0-0.7,0c-0.4-5-0.5-10.2-0.6-14c0.4,0,0.9,0.1,1.3,0.1
			c7.4,0,13.5-6.1,13.5-13.5c0-0.4,0-0.7-0.1-1.1c5.4,0.3,11.1,0.7,17,1c-0.2,0.9-0.3,1.8-0.3,2.8c0,7.2,5.6,13,12.7,13.5
			c0.5,5,1.1,10.3,1.7,15.7C96.8,260.9,93,264.7,91.8,269.5z M88.9,181.5c-6.2-0.5-12.3-1.1-18.3-1.6c-0.1-6.8-5.2-12.4-11.7-13.3
			c1-3.6,2.2-7.3,3.4-11c0.4-1.1,0.7-2.2,1.1-3.2c0.6,0.1,1.3,0.2,1.9,0.2c7.2,0,13.1-5.7,13.5-12.8c3.8,0.6,8.1,1.3,12.6,1.9
			c0.6,6.7,6.1,11.9,12.9,12.2c-0.6,5.7-1.2,11.3-1.8,16.7c-0.1,0-0.3,0-0.4,0C95.6,170.6,90.1,175.3,88.9,181.5z M65.3,127.6
			c6.3,0,11.5,5.2,11.5,11.5c0,6.3-5.2,11.5-11.5,11.5c-6.3,0-11.5-5.2-11.5-11.5C53.8,132.8,59,127.6,65.3,127.6z M116.4,140.5
			c0,6.3-5.2,11.5-11.5,11.5c-6.3,0-11.5-5.2-11.5-11.5c0-6.3,5.2-11.5,11.5-11.5C111.2,129,116.4,134.2,116.4,140.5z M117.8,144.5
			c4.5,0.3,8.9,0.6,13.2,0.8c0.3,6.1,4.6,11.1,10.4,12.4c0.2,4.6,0.5,10.5,0.9,17.5c-4.6,1.3-8.2,4.9-9.5,9.5
			c-5.6-0.3-11.4-0.7-17.1-1.1c-0.3-6.4-5-11.6-11.1-12.7c0.6-5.5,1.2-11.2,1.8-16.9C111.7,153.3,116.2,149.5,117.8,144.5z
			 M155.9,144.6c0,6.3-5.2,11.5-11.5,11.5c-6.3,0-11.5-5.2-11.5-11.5c0-6.3,5.2-11.5,11.5-11.5C150.8,133.1,155.9,138.2,155.9,144.6
			z M157.9,145.4c6.2-0.2,11.6-0.5,16.9-1c1.2,6.1,6.4,10.7,12.8,11c0,7,0.1,13.8,0.1,19.5c-6.1,0.8-11,5.8-11.6,11.9
			c-5.4-0.2-11.1-0.4-16.9-0.7c-1-6.5-6.6-11.4-13.3-11.4c-0.5,0-1.1,0-1.6,0.1c-0.4-6.6-0.7-12.3-0.9-16.8c0.4,0,0.7,0.1,1.1,0.1
			C151.6,158.1,157.5,152.5,157.9,145.4z M188.1,130.4c6.3,0,11.5,5.2,11.5,11.5c0,6.3-5.2,11.5-11.5,11.5
			c-6.3,0-11.5-5.2-11.5-11.5C176.6,135.5,181.7,130.4,188.1,130.4z M201.5,142.9l16.8,0.1c-0.1,0.5-0.1,1-0.1,1.5
			c0,7.2,5.7,13.1,12.8,13.5c0.1,6.3,0.1,12,0.1,16.7c-6.8,0.3-12.3,5.6-12.9,12.3c-5.5,0.1-10.7,0.2-15.4,0.2
			c-0.5-6.9-6.2-12.4-13.2-12.5c0-5.7-0.1-12.5-0.1-19.5C195.9,154.6,201,149.4,201.5,142.9z M231.7,133.1c6.3,0,11.5,5.2,11.5,11.5
			c0,6.3-5.2,11.5-11.5,11.5c-6.3,0-11.5-5.2-11.5-11.5C220.2,138.2,225.4,133.1,231.7,133.1z M245.1,143.3c4.7,0,9.4,0,14.1,0.1
			c0.7,6.8,6.5,12,13.4,12c0.5,0,1,0,1.4-0.1c0.3,4.4,0.4,7.9,0.3,10.4c-0.1,1.5-0.1,3.7-0.2,6.4c-6.9,0.6-12.3,6.4-12.3,13.4
			c-5.8,0.3-11.4,0.5-16.8,0.7c-0.9-6-5.8-10.8-11.9-11.4c0-4.7,0-10.5-0.1-16.8c6.8-0.7,12.2-6.4,12.2-13.4
			C245.2,144.1,245.2,143.7,245.1,143.3z M272.6,130.4c6.3,0,11.5,5.2,11.5,11.5c0,6.3-5.2,11.5-11.5,11.5
			c-6.3,0-11.5-5.2-11.5-11.5C261.1,135.5,266.3,130.4,272.6,130.4z M286,143.3c4.9,0,9.2-0.1,12.9-0.1c1.3,6.1,6.7,10.8,13.2,10.8
			c0.8,0,1.6-0.1,2.4-0.2c1,7.2,1.8,13.4,2.4,18.4c-5.6,0.9-10.1,5.3-11.2,10.8c-5.5,0.3-11.2,0.7-17,1c-0.7-6.5-6-11.6-12.6-12
			c0.1-2.7,0.1-4.8,0.2-6.3c0.1-2.6,0-6.3-0.3-10.9C281.3,153.5,285.4,148.9,286,143.3z M312.2,129c6.3,0,11.5,5.2,11.5,11.5
			c0,6.3-5.2,11.5-11.5,11.5c-6.3,0-11.5-5.2-11.5-11.5C300.7,134.2,305.8,129,312.2,129z M325.5,142.4c4.1-0.1,8.9-0.1,14.2-0.1
			c0.9,6.6,6.5,11.6,13.4,11.6c0.5,0,1,0,1.4-0.1c0.6,5.2,1.2,10.1,1.7,14.2c-6,1-10.7,6.1-11.1,12.2c-3.9,0.3-8.4,0.6-13.3,0.9
			c-1.8-5.4-6.8-9.3-12.8-9.3c0,0-0.1,0-0.1,0c-0.6-5.1-1.4-11.4-2.4-18.7C321.2,151.7,324.8,147.5,325.5,142.4z M353.1,129
			c6.3,0,11.5,5.2,11.5,11.5c0,6.3-5.2,11.5-11.5,11.5s-11.5-5.2-11.5-11.5C341.6,134.2,346.7,129,353.1,129z M366.4,142.7
			c1.8,0,3.3,0.1,4.5,0.1v30.7c0,0.9,0,1.9,0.1,2.8c-2-4.9-6.9-8.4-12.5-8.4c-0.1,0-0.2,0-0.3,0c-0.5-4.1-1.1-9.1-1.7-14.4
			C361.6,152.2,365.5,148,366.4,142.7z M366.7,322.5c-6.3,0-11.5-5.2-11.5-11.5c0-6.3,5.2-11.5,11.5-11.5c6.3,0,11.5,5.2,11.5,11.5
			C378.2,317.3,373,322.5,366.7,322.5z M366.1,297.5c-7.2,0.3-12.9,6.2-12.9,13.5c0,0.9,0.1,1.9,0.3,2.8c-5.6,0.5-11.3,1.1-17,1.6
			c-0.5-6.3-5.5-11.4-11.7-12.2c0.3-7.9,0.5-14.9,0.7-19.7c5.9-1.1,10.5-6,11-12c5.3-0.6,10.6-1.1,15.8-1.7c1.6,5.7,6.8,9.9,13,9.9
			c0.2,0,0.4,0,0.5,0C366,285.3,366.1,291.8,366.1,297.5z M323.1,327.9c-6.3,0-11.5-5.2-11.5-11.5c0-6.3,5.2-11.5,11.5-11.5
			s11.5,5.2,11.5,11.5C334.6,322.8,329.4,327.9,323.1,327.9z M278.1,334.7c-6.3,0-11.5-5.2-11.5-11.5c0-6.3,5.2-11.5,11.5-11.5
			c6.3,0,11.5,5.2,11.5,11.5C289.6,329.6,284.4,334.7,278.1,334.7z M265,319.8c-6.2,0.3-12.4,0.5-18.5,0.7
			c-0.6-5.9-5-10.6-10.7-11.8c0.1-6.3,0.2-12.1,0.2-17.3c6-1.4,10.6-6.7,10.6-13.2c0-0.2,0-0.4,0-0.6c6.3-0.2,12.8-0.5,19.4-0.8
			c0,0,0,0,0,0c0,7.2,5.6,13,12.6,13.5c0.5,7.7,0.9,14.3,1.1,19.5c-0.5-0.1-1.1-0.1-1.6-0.1C271.8,309.7,266.5,314,265,319.8z
			 M233.1,333.4c-6.3,0-11.5-5.2-11.5-11.5s5.2-11.5,11.5-11.5s11.5,5.2,11.5,11.5S239.4,333.4,233.1,333.4z M219.6,321
			c-4.6,0-9.3,0-14,0c-0.4-7-6.2-12.6-13.3-12.6c-0.1-6.4-0.2-12.4-0.3-18.1c6.5-0.6,11.6-5.7,12.2-12.2c3.8,0,7.6,0.1,11.4,0.1
			c1.3,0,2.7,0,4,0c0,0,0,0,0,0.1c0,7.4,6.1,13.5,13.5,13.5c0.3,0,0.6,0,0.9,0c0,5-0.1,10.6-0.2,16.7c-0.3,0-0.5,0-0.8,0
			C225.9,308.4,220,314,219.6,321z M192.1,333.4c-6.3,0-11.5-5.2-11.5-11.5s5.2-11.5,11.5-11.5c6.3,0,11.5,5.2,11.5,11.5
			S198.5,333.4,192.1,333.4z M178.7,320.4c-5.5-0.2-11.2-0.4-16.9-0.7c-1-6.2-6.2-11-12.6-11.3c0.5-6.1,1.1-14.4,1.4-21.2
			c4.9-1.3,8.7-5.4,9.7-10.4c5.7,0.3,11.4,0.5,16.9,0.7c0.3,6.9,5.8,12.5,12.7,12.9c0.1,5.7,0.2,11.7,0.3,18.2
			C184.2,309.4,179.4,314.3,178.7,320.4z M137,321.9c0-6.3,5.2-11.5,11.5-11.5c6.3,0,11.5,5.2,11.5,11.5s-5.2,11.5-11.5,11.5
			C142.2,333.4,137,328.2,137,321.9z M133.7,273.1c-5.1-0.4-10.3-0.8-15.4-1.2c-0.4-7-6.3-12.6-13.5-12.6c-0.4,0-0.9,0-1.3,0.1
			c-0.6-5.3-1.2-10.5-1.6-15.4c6.9-0.6,12.3-6.4,12.3-13.4c0-0.4,0-0.9-0.1-1.3c6.4,0.3,12.9,0.6,19.5,0.9c0,0.1,0,0.3,0,0.4
			c0,7.3,5.8,13.3,13.1,13.5c0.4,6.3,0.9,12,1.2,16.7c-0.3,0-0.5,0-0.8,0C140.1,260.6,134.2,266.1,133.7,273.1z M145.8,176.7
			c6.3,0,11.5,5.2,11.5,11.5c0,6.3-5.2,11.5-11.5,11.5c-6.3,0-11.5-5.2-11.5-11.5C134.3,181.9,139.4,176.7,145.8,176.7z
			 M145.9,201.7c7.4,0,13.4-6.1,13.4-13.5c0,0,0,0,0-0.1c5.8,0.3,11.3,0.5,16.7,0.6c0.3,6.7,5.4,12.1,12,12.8
			c0.1,4.9,0.3,10.7,0.4,16.9c-5.6,1-10.1,5.5-11,11.2c-5.5-0.2-11.2-0.4-16.9-0.6c-0.6-6.8-6.4-12.2-13.4-12.2c-0.1,0-0.2,0-0.3,0
			C146.5,211.9,146.2,206.8,145.9,201.7z M189.4,176.7c6.3,0,11.5,5.2,11.5,11.5c0,6.3-5.2,11.5-11.5,11.5
			c-6.3,0-11.5-5.2-11.5-11.5C177.9,181.9,183.1,176.7,189.4,176.7z M202.9,189.3c4.7,0,9.8-0.1,15.4-0.2
			c0.4,6.5,5.4,11.8,11.9,12.6c-0.1,6.5-0.1,14.1-0.1,19.6c-5.4,0.7-9.8,4.5-11.2,9.6c-4.6-0.1-9.4-0.1-14.5-0.3
			c-0.7-6.8-6.4-12.2-13.4-12.2c-0.1,0-0.3,0-0.4,0c-0.2-6.2-0.3-11.9-0.4-16.7C196.8,201.4,202.4,196,202.9,189.3z M231.7,176.7
			c6.3,0,11.5,5.2,11.5,11.5c0,6.3-5.2,11.5-11.5,11.5c-6.3,0-11.5-5.2-11.5-11.5C220.2,181.9,225.4,176.7,231.7,176.7z
			 M245.2,188.2C245.2,188.2,245.2,188.2,245.2,188.2c5.4-0.2,11-0.5,16.8-0.8c0.9,6.1,5.8,10.8,12,11.5c0,7.1,0,14.4,0.1,20.9
			c-5.8,0.5-10.5,4.8-11.8,10.3c-6.2,0.3-12.1,0.5-17.6,0.6c-1.7-5.5-6.7-9.4-12.6-9.6c0-5.4,0-12.9,0.1-19.4
			C239.3,201.5,245.2,195.5,245.2,188.2z M275.3,174c6.3,0,11.5,5.2,11.5,11.5c0,6.3-5.2,11.5-11.5,11.5c-6.3,0-11.5-5.2-11.5-11.5
			C263.8,179.2,269,174,275.3,174z M288.8,186c5.7-0.3,11.3-0.7,16.7-1c0,0.2,0,0.3,0,0.5c0,7.1,5.5,12.9,12.5,13.4v16.7
			c-6.4,0.5-11.6,5.5-12.4,11.8c-6.3,0.5-12.1,0.8-17.6,1.2c-1.8-5-6.4-8.6-12-8.9c-0.1-6.4-0.1-13.7-0.1-20.8
			C282.9,198.7,288.5,193,288.8,186z M319,174c6.3,0,11.5,5.2,11.5,11.5c0,6.3-5.2,11.5-11.5,11.5c-6.3,0-11.5-5.2-11.5-11.5
			C307.5,179.2,312.6,174,319,174z M332.5,185.5c0-0.8-0.1-1.5-0.2-2.2c4.7-0.3,9-0.6,12.8-0.9c0.5,6.9,6.2,12.4,13.3,12.5
			c0.3,5.4,0.7,11.3,1.1,16.7c-7,0.2-12.7,5.8-13,12.8c-4.7,0.4-9.5,0.7-14.5,1.1c-1.5-5.4-6.3-9.4-12-9.8v-16.7
			C327,198.4,332.5,192.6,332.5,185.5z M323.1,281.6c-6.3,0-11.5-5.2-11.5-11.5c0-6.3,5.2-11.5,11.5-11.5s11.5,5.2,11.5,11.5
			C334.6,276.4,329.4,281.6,323.1,281.6z M309.6,270c0,0.6,0.1,1.2,0.1,1.8c-5.8,0.5-11.6,1-17.3,1.4c-1.6-5.7-6.8-9.8-13-9.8
			c-0.3,0-0.5,0-0.8,0c-0.5-6.4-0.9-12.2-1.3-16.8c6.5-1,11.5-6.6,11.5-13.3c0-0.9-0.1-1.8-0.3-2.6c5.3-0.3,10.8-0.7,16.9-1.1
			c0.2,7.3,6.2,13.2,13.5,13.2c0.5,0,1,0,1.4-0.1c0.9,5.2,1.6,9.9,2.1,14C315.3,256.9,309.6,262.8,309.6,270z M279.4,288.4
			c-6.3,0-11.5-5.2-11.5-11.5c0-6.3,5.2-11.5,11.5-11.5s11.5,5.2,11.5,11.5C290.9,283.2,285.8,288.4,279.4,288.4z M266.1,274.8
			c-6.7,0.3-13.3,0.6-19.8,0.8c-1.1-5.5-5.4-9.8-10.9-10.7c-0.3-6.8-0.8-12.4-1.4-17.1c6.4-1.1,11.2-6.6,11.2-13.3
			c0-0.7-0.1-1.3-0.2-1.9c5.3-0.1,10.9-0.3,16.8-0.6c0,0.4-0.1,0.8-0.1,1.1c0,7.4,6.1,13.5,13.5,13.5c0,0,0,0,0,0
			c0.4,4.7,0.8,10.5,1.3,16.9C271.2,264.8,266.9,269.3,266.1,274.8z M233.1,289.7c-6.3,0-11.5-5.2-11.5-11.5s5.2-11.5,11.5-11.5
			s11.5,5.2,11.5,11.5S239.4,289.7,233.1,289.7z M219.7,276.2c-5,0-10.2,0-15.5-0.1c-0.4-6.9-5.9-12.3-12.7-12.7
			c-0.1-5.3-0.3-11.5-0.4-18.1c7.1-0.2,12.8-5.8,13.2-12.8c4.9,0.1,9.6,0.2,14.1,0.3c-0.1,0.6-0.1,1.2-0.1,1.8
			c0,7.4,6.1,13.5,13.5,13.5c0.1,0,0.2,0,0.3,0c0.6,4.6,1.1,10.1,1.4,16.7c-0.1,0-0.2,0-0.3,0C226.3,264.7,220.7,269.7,219.7,276.2z
			 M190.8,288.4c-6.3,0-11.5-5.2-11.5-11.5c0-6.3,5.2-11.5,11.5-11.5s11.5,5.2,11.5,11.5C202.3,283.2,197.1,288.4,190.8,288.4z
			 M177.4,275.5c-5.5-0.2-11.1-0.4-16.7-0.7c0-0.2,0-0.4,0-0.6c0-6.5-4.6-11.9-10.7-13.2c-0.4-4.8-0.8-10.6-1.2-17
			c6.5-0.8,11.5-6.1,11.9-12.7c5.6,0.2,11.2,0.4,16.7,0.6c0,0,0,0,0,0c0,6.9,5.2,12.5,11.8,13.4c0.2,6.6,0.3,12.9,0.4,18.2
			C183.1,264,178,269.1,177.4,275.5z M190.8,220.4c6.3,0,11.5,5.2,11.5,11.5s-5.2,11.5-11.5,11.5s-11.5-5.2-11.5-11.5
			S184.4,220.4,190.8,220.4z M231.7,223.1c6.3,0,11.5,5.2,11.5,11.5c0,6.3-5.2,11.5-11.5,11.5c-6.3,0-11.5-5.2-11.5-11.5
			C220.2,228.3,225.4,223.1,231.7,223.1z M275.3,221.7c6.3,0,11.5,5.2,11.5,11.5c0,6.3-5.2,11.5-11.5,11.5
			c-6.3,0-11.5-5.2-11.5-11.5C263.8,226.9,269,221.7,275.3,221.7z M319,240.6c-6.3,0-11.5-5.2-11.5-11.5s5.2-11.5,11.5-11.5
			c6.3,0,11.5,5.2,11.5,11.5S325.3,240.6,319,240.6z M147.1,219c6.3,0,11.5,5.2,11.5,11.5c0,6.3-5.2,11.5-11.5,11.5
			c-6.3,0-11.5-5.2-11.5-11.5C135.6,224.2,140.8,219,147.1,219z M147.1,262.6c6.3,0,11.5,5.2,11.5,11.5c0,6.3-5.2,11.5-11.5,11.5
			c-6.3,0-11.5-5.2-11.5-11.5C135.6,267.8,140.8,262.6,147.1,262.6z M281.7,310.3c-0.3-5.3-0.6-12-1.2-19.9
			c6.9-0.6,12.4-6.4,12.4-13.4c0-0.6,0-1.1-0.1-1.7c5.7-0.4,11.5-0.9,17.3-1.4c1.6,5.6,6.8,9.8,13,9.8c0.1,0,0.3,0,0.4,0
			c-0.1,4.8-0.3,11.7-0.6,19.4c-7.3,0.1-13.2,6.1-13.2,13.5c0,0.3,0,0.6,0,0.9c-6.2,0.4-12.6,0.8-18.9,1.2
			C289.2,314.5,285.9,311.4,281.7,310.3z M365.3,277.5c-6.3,0-11.5-5.2-11.5-11.5s5.2-11.5,11.5-11.5s11.5,5.2,11.5,11.5
			S371.7,277.5,365.3,277.5z M351.8,266c0,0.5,0,1.1,0.1,1.6c-5.1,0.6-10.2,1.2-15.4,1.7c-0.4-6.6-5.5-11.9-12-12.6
			c-0.5-4.2-1.3-9.1-2.2-14.4c5.8-1.5,10.1-6.8,10.1-13.1c0-0.6,0-1.1-0.1-1.7c4.8-0.4,9.5-0.7,14.1-1.1c0.7,6.8,6.4,12.2,13.4,12.2
			c0.9,0,1.7-0.1,2.5-0.2c0.8,5.3,1.5,10.1,2.1,14.2C357.4,252.9,351.8,258.8,351.8,266z M359.9,236.5c-6.3,0-11.5-5.2-11.5-11.5
			c0-6.3,5.2-11.5,11.5-11.5s11.5,5.2,11.5,11.5C371.4,231.4,366.2,236.5,359.9,236.5z M358.5,192.9c-6.3,0-11.5-5.2-11.5-11.5
			c0-6.3,5.2-11.5,11.5-11.5c6.3,0,11.5,5.2,11.5,11.5C370,187.7,364.9,192.9,358.5,192.9z M102.1,172.6c6.3,0,11.5,5.2,11.5,11.5
			c0,6.3-5.2,11.5-11.5,11.5c-6.3,0-11.5-5.2-11.5-11.5C90.6,177.8,95.8,172.6,102.1,172.6z M102.1,197.6c7,0,12.7-5.3,13.4-12
			c5.7,0.4,11.3,0.8,16.8,1.1c-0.1,0.5-0.1,1-0.1,1.5c0,6.8,5,12.4,11.6,13.3c0.3,5.2,0.7,10.4,1,15.6c-5.6,1-10,5.3-11,10.9
			c-6.7-0.3-13.4-0.6-20-1c-1.5-5.8-6.7-10.1-12.9-10.1C101.1,211.6,101.5,205.1,102.1,197.6C102.1,197.6,102.1,197.6,102.1,197.6z
			 M100.8,219c6.3,0,11.5,5.2,11.5,11.5c0,6.3-5.2,11.5-11.5,11.5c-6.3,0-11.5-5.2-11.5-11.5C89.3,224.2,94.4,219,100.8,219z
			 M104.9,261.3c6.3,0,11.5,5.2,11.5,11.5s-5.2,11.5-11.5,11.5c-6.3,0-11.5-5.2-11.5-11.5S98.5,261.3,104.9,261.3z M118.3,273.9
			c5.1,0.4,10.3,0.8,15.4,1.2c0.5,7,6.3,12.5,13.5,12.5c0.5,0,1,0,1.5-0.1c-0.3,5.5-0.8,12.7-1.4,20.9c-5.6,0.5-10.2,4.5-11.7,9.7
			c-5.2-0.4-10.6-0.8-15.9-1.2c-0.4-6.6-5.6-11.9-12.1-12.6c-0.1-5-0.5-11-1.2-18.2C112.8,285.5,117.8,280.3,118.3,273.9z
			 M106.2,306.3c6.3,0,11.5,5.2,11.5,11.5s-5.2,11.5-11.5,11.5s-11.5-5.2-11.5-11.5S99.9,306.3,106.2,306.3z M370.9,140.8
			c-1.2,0-2.6-0.1-4.3-0.1c0-0.1,0-0.1,0-0.2c0-7.4-6.1-13.5-13.5-13.5c0,0,0,0,0,0c-0.3-1.8-0.5-3.8-0.7-5.2h18.6V140.8z
			 M350.3,121.8c0.2,1.2,0.4,3,0.8,5.4c-6.4,1-11.4,6.5-11.5,13.2c-5.2,0-9.8,0-13.9,0.1c0-7.2-5.8-13.1-13-13.4
			c-0.3-2.3-0.6-4.1-0.8-5.3H350.3z M309.8,121.8c0.2,1.1,0.5,3,0.8,5.3c-6.7,0.8-12,6.5-12,13.4c0,0.3,0,0.5,0,0.7
			c-3.6,0-7.8,0.1-12.6,0.1c-0.3-7.1-6.1-12.9-13.2-13c-0.4-2.8-0.8-5.2-1-6.6H309.8z M269.8,121.8c0.2,1.4,0.6,3.8,1,6.7
			c-6.4,0.9-11.4,6.2-11.7,12.8c-4.8,0-9.6,0-14.4-0.1c-1.4-5.6-6.3-9.8-12.3-10.1c-0.1-3.8-0.3-7-0.4-9.4H269.8z M230.1,121.8
			c0.1,2.3,0.3,5.5,0.4,9.4c-5.7,0.5-10.3,4.6-11.8,9.9l-17.2-0.1c-0.5-6.6-5.7-11.9-12.2-12.5c-0.1-3.5-0.1-5.5-0.2-6.7H230.1z
			 M187.2,121.8c0,1.1,0.1,3.1,0.2,6.6c-7.1,0.4-12.7,6.3-12.7,13.5c0,0.2,0,0.4,0,0.5c-5.2,0.5-10.6,0.8-16.7,1
			c-0.5-6.1-5.1-11.1-11.1-12.1c1-4,1.9-7.7,2.4-9.5H187.2z M144.7,131.1c-0.1,0-0.2,0-0.3,0c-7,0-12.8,5.4-13.4,12.2
			c-4.1-0.2-8.4-0.4-12.8-0.8c0.1-0.7,0.2-1.3,0.2-2c0-5.8-3.7-10.8-8.9-12.7c0.4-3.3,0.7-5.1,0.9-6h36.7
			C146.6,123.8,145.7,127.4,144.7,131.1z M107.5,127.3c-0.9-0.2-1.7-0.3-2.6-0.3c-7.2,0-13.1,5.6-13.5,12.7
			c-4.5-0.6-8.8-1.2-12.7-1.9c-0.7-6.8-6.4-12.2-13.4-12.2c-0.8,0-1.6,0.1-2.3,0.2c-0.5-1.6-1.1-3-1.5-4.1h46.8
			C108.1,123,107.8,124.8,107.5,127.3z M59.4,121.8c0.4,1,1,2.7,1.6,4.6c-5,1.7-8.8,6.3-9.2,11.8c-2,0.6-3.8,1.3-5.3,1.9v-18.3H59.4
			z M46.6,142.3c1.2-0.5,3-1.3,5.3-2c0.5,5.6,4.3,10.2,9.5,11.8c-0.3,1-0.7,2-1,3c-1.3,3.8-2.5,7.7-3.6,11.5
			c-4.1,0.1-7.8,2.1-10.2,5.1V142.3z M46.5,175.8c1.7-4.2,5.8-7.2,10.7-7.2c6.3,0,11.5,5.2,11.5,11.5s-5.2,11.5-11.5,11.5
			c-5.9,0-10.8-4.5-11.4-10.3C46.1,179.5,46.3,177.7,46.5,175.8z M57.1,193.5c6.8,0,12.4-5.1,13.4-11.6c5.9,0.5,12,1.1,18.2,1.6
			c0,0.2,0,0.4,0,0.6c0,6.8,5,12.3,11.5,13.3c-0.6,7.6-1,14.2-1.2,19.7c-5,0.7-9.1,4.1-10.8,8.6c-6.2-0.4-12.2-0.7-17.9-1.1
			c-1.4-6-6.7-10.4-13.1-10.4c-0.2,0-0.4,0-0.5,0c0.1-5.3,0.1-12.1,0.2-20.8C56.9,193.5,57,193.5,57.1,193.5z M57.1,216.3
			c6.3,0,11.5,5.2,11.5,11.5c0,6.3-5.2,11.5-11.5,11.5s-11.5-5.2-11.5-11.5C45.6,221.4,50.8,216.3,57.1,216.3z M57.1,257.2
			c6.3,0,11.5,5.2,11.5,11.5s-5.2,11.5-11.5,11.5s-11.5-5.2-11.5-11.5S50.8,257.2,57.1,257.2z M70.6,269.1
			c6.7,0.8,13.7,1.6,20.8,2.3c0,0.4-0.1,0.9-0.1,1.3c0,7.3,5.8,13.2,13,13.5c0.6,7.2,1,13.1,1.2,18.1c-6,0.3-10.9,4.5-12.4,10.1
			c-6.2-0.6-12.4-1.3-18.5-2c-0.6-6.4-5.8-11.5-12.2-12.1c0-5.5-0.4-12-1.4-18.7C66.5,279.9,70.4,275,70.6,269.1z M61.2,302.2
			c6.3,0,11.5,5.2,11.5,11.5c0,6.3-5.2,11.5-11.5,11.5c-6.3,0-11.5-5.2-11.5-11.5C49.7,307.3,54.9,302.2,61.2,302.2z M61.2,327.2
			c7.2,0,13.1-5.7,13.5-12.8c5.9,0.7,12,1.4,18.1,2c0,0.5-0.1,0.9-0.1,1.4c0,6.5,4.6,12,10.8,13.2c-0.6,5.2-1.3,10.9-2,16.9
			c-0.2,0-0.5,0-0.7,0c-6.7,0-12.3,5-13.3,11.4c-4.9-0.5-10.6-1.1-16.9-1.8c-0.6-6.8-6.2-12.2-13.2-12.3c0.4-7.2,0.9-13.3,1.4-18.2
			C59.6,327.1,60.4,327.2,61.2,327.2z M57.1,347.2c6.3,0,11.5,5.2,11.5,11.5s-5.2,11.5-11.5,11.5s-11.5-5.2-11.5-11.5
			S50.8,347.2,57.1,347.2z M416.4,350.5c0,6.3-5.2,11.5-11.5,11.5c-6.3,0-11.5-5.2-11.5-11.5c0-6.3,5.2-11.5,11.5-11.5
			C411.2,339,416.4,344.2,416.4,350.5z M410.4,333.8c-0.2,1.1-0.4,2.6-0.6,4.2c-0.8-0.3-1.7-0.6-2.6-0.7c0.6-4.4,1-9.6,1.1-15.5
			c0.8,0,1.5-0.1,2.2-0.3C410.8,329.8,410.6,332.8,410.4,333.8z M419.1,308.2c0,6.3-5.2,11.5-11.5,11.5c-6.3,0-11.5-5.2-11.5-11.5
			c0-6.3,5.2-11.5,11.5-11.5C414,296.7,419.1,301.9,419.1,308.2z M409.3,294.9c-0.5-0.1-1.1-0.1-1.6-0.1c-0.3-5.4-0.7-10.6-1-15.2
			l0-0.1c0.6,0,1.1-0.1,1.7-0.2C408.7,284.6,409,289.9,409.3,294.9z M417.8,266c0,6.3-5.2,11.5-11.5,11.5s-11.5-5.2-11.5-11.5
			c0-0.7,0.1-1.4,0.2-2.1c0,0,0,0,0,0l0-0.1c1-5.3,5.7-9.3,11.3-9.3C412.6,254.5,417.8,259.6,417.8,266z M406.4,251
			c0,0.4,0.1,0.9,0.1,1.5c-0.1,0-0.2,0-0.2,0c-0.4,0-0.9,0-1.3,0.1c-0.5-4.4-1.3-9.5-2.3-15.4c0.3,0,0.6,0,0.9,0
			c0.6,0,1.2-0.1,1.8-0.1C405.8,244,406.1,248.7,406.4,251z M415,223.7c0,6.3-5.2,11.5-11.5,11.5c-6.3,0-11.5-5.2-11.5-11.5
			s5.2-11.5,11.5-11.5C409.9,212.2,415,217.3,415,223.7z M403.5,210.2c-2,0-3.9,0.4-5.6,1.2c-0.5-2.5-1-4.9-1.4-6.8
			c2.2,0.4,4.6,0.7,7.1,0.8c0,1.2,0.1,2.9,0.2,4.8C403.8,210.2,403.6,210.2,403.5,210.2z M368.7,30.2c-1.8,0-3.6-0.1-5.5-0.1v-2
			c0.1-0.1,0.3-0.2,0.4-0.4c0.7,0.2,1.6,0.3,2.3,0.3c1,0,1.9-0.1,2.8-0.4V30.2z M345.4,26.1L345.4,26.1c0-0.1-0.1-0.1-0.1-0.2
			c-0.1-0.1-0.2-0.3-0.4-0.4c-0.5-0.7-0.4-1.4-0.1-1.9c0,0,0.3-0.7,1-1.7c2.2,0.8,4.7,2.4,5.7,5.6c0.2,0.8,0.4,1.6,0.5,2.5H346
			C346.3,28.4,346,27.1,345.4,26.1z M352.9,26c-1.3-3.1-3.8-4.7-6-5.6c0.9-1.2,2.2-2.4,3.8-3.5c2.8-1.9,4.4-2.4,6.9-2.3
			c-0.6,1.3-1,2.7-1,4.2c0,1.6,0.4,3.1,1.2,4.5c-0.3,0.2-0.6,0.5-1,0.7C355.5,24.8,354.2,25.5,352.9,26z M353.9,30.1
			c-0.1-0.8-0.2-1.5-0.3-2.2c1.5-0.6,3-1.3,4.4-2.4c5.5-3.9,6.7-8,7-9.5c0.3-0.1,0.6-0.2,1-0.2c0.6,0,1.1,0.2,1.6,0.5
			c-0.4,2.7-1.8,7.2-5.9,10.6h-0.4v0.3c-1.5,1.1-3.3,2.1-5.5,2.9H353.9z M361.2,29.7v0.4c-0.2,0-0.5,0-0.7,0
			C360.7,30,361,29.8,361.2,29.7z M373.3,18.7c0,4-3.3,7.3-7.3,7.3c-0.2,0-0.4,0-0.7,0c0.7-0.8,1.3-1.7,1.7-2.5
			c2.2-0.5,3.8-2.4,3.8-4.8c0-2.7-2.2-4.9-4.9-4.9S361,16,361,18.7c0,0.3,0,0.7,0.1,1c-0.5,0.7-1.1,1.4-1.8,2.1
			c-0.5-1-0.7-2-0.7-3.1c0-4,3.3-7.3,7.3-7.3S373.3,14.7,373.3,18.7z M339.4,23.2c0.5-3.2,2.7-6.2,6.5-8.7
			c6.9-4.6,12.3-5.1,16.2-4.2c-1.2,0.6-2.3,1.4-3.2,2.4c-3.7-0.2-5.7,0.1-9.3,2.6c-4.6,3.1-6.6,7.5-6.6,7.7
			c-0.8,1.6-0.5,3.2,0.8,4.4c0.5,0.7,0.4,1.8,0.3,2.8h-3.2C340,28.8,338.9,26.2,339.4,23.2z M338.5,30.1h-6.3
			c1.4-1.3,3.1-2.2,5.3-2.9C337.8,28.4,338.2,29.3,338.5,30.1z M328.3,25.8c3-2,6.5-4.1,9.4-4.3c-0.1,0.4-0.2,0.9-0.3,1.3
			c-0.1,0.8-0.2,1.6-0.1,2.4c-3.3,1-5.9,2.6-7.7,4.8l0.2,0.1h-6.3C325,28.6,327.2,26.6,328.3,25.8z M226.1,18.1l39.5,12h-39.5V18.1z
			 M191.8,29.7c6.6-0.2,12.4-2.1,12.4-12.9c0,0,0,0,0,0c1.6-0.9,2.9-2.2,3.7-3.8c0.8,1.6,2.1,3,3.7,3.8c0,0,0,0,0,0
			c0,10.8,5.8,12.7,12.4,12.9v0.5h-32.3V29.7z M224.1,22.8v4.8c-6.4-0.2-10.2-2.1-10.4-10.1c0.7,0.2,1.4,0.3,2.2,0.3
			c0.8,0,1.6-0.1,2.3-0.3C218.7,21.7,221.4,22.7,224.1,22.8z M215.9,2c3.8,0,6.9,3.1,6.9,6.9s-3.1,6.9-6.9,6.9s-6.9-3.1-6.9-6.9
			S212.1,2,215.9,2z M193.1,8.9c0-3.8,3.1-6.9,6.9-6.9s6.9,3.1,6.9,6.9s-3.1,6.9-6.9,6.9S193.1,12.7,193.1,8.9z M197.7,17.5
			c0.7,0.2,1.5,0.3,2.3,0.3c0.7,0,1.5-0.1,2.2-0.3c-0.2,8-4,10-10.4,10.1v-4.8C194.5,22.7,197.2,21.7,197.7,17.5z M189.8,18.1v12
			h-39.5L189.8,18.1z M86.8,25.8c1.1,0.8,3.3,2.8,4.8,4.3h-6.3l0.2-0.1c-1.8-2.2-4.4-3.8-7.7-4.8c0-0.8,0-1.6-0.1-2.4
			c-0.1-0.5-0.2-0.9-0.3-1.3C80.4,21.7,83.8,23.8,86.8,25.8z M77.6,27.2c2.2,0.7,3.9,1.6,5.3,2.9h-6.3C77,29.3,77.4,28.4,77.6,27.2z
			 M69.2,14.4c3.8,2.6,6,5.5,6.5,8.7c0.5,3.1-0.7,5.7-1.4,7h-3.2C71,29.1,71,28,71.4,27.3c1.3-1.2,1.6-2.8,0.8-4.4
			c-0.1-0.2-2-4.6-6.7-7.7c-3.7-2.5-5.6-2.8-9.3-2.6c-0.9-1-2-1.8-3.2-2.4C57,9.3,62.4,9.8,69.2,14.4z M59.4,30.1
			c-2.2-0.8-4-1.8-5.5-2.9v-0.3h-0.4c-4.1-3.4-5.5-7.9-5.9-10.6c0.5-0.3,1-0.5,1.6-0.5c0.3,0,0.7,0.1,1,0.2c0.3,1.6,1.5,5.7,7,9.5
			c1.4,1,2.9,1.8,4.4,2.4c-0.2,0.7-0.3,1.4-0.3,2.2H59.4z M54.7,30.1H54v-0.4C54.2,29.8,54.4,30,54.7,30.1z M62.2,26
			c-1.3-0.5-2.6-1.2-3.9-2.1c-0.3-0.2-0.7-0.5-1-0.7c0.7-1.4,1.2-2.9,1.2-4.5c0-1.5-0.4-2.9-1-4.2c2.6-0.1,4.1,0.4,6.9,2.3
			c1.6,1.1,2.8,2.3,3.8,3.5C66,21.3,63.6,22.9,62.2,26z M63.8,27.6c1-3.2,3.5-4.8,5.7-5.6c0.6,1,1,1.7,1,1.7
			c0.2,0.5,0.4,1.1-0.1,1.8c-0.1,0.1-0.3,0.3-0.4,0.4c-0.1,0-0.1,0.1-0.1,0.1l0,0c-0.7,1-0.9,2.3-0.7,4h-5.9
			C63.4,29.2,63.5,28.4,63.8,27.6z M41.9,18.7c0-4,3.3-7.3,7.3-7.3c4,0,7.3,3.3,7.3,7.3c0,1.1-0.2,2.1-0.7,3.1
			c-0.7-0.7-1.3-1.4-1.8-2.1c0.1-0.3,0.1-0.7,0.1-1c0-2.7-2.2-4.9-4.9-4.9c-2.7,0-4.9,2.2-4.9,4.9c0,2.3,1.6,4.3,3.8,4.8
			c0.5,0.8,1.1,1.7,1.7,2.5c-0.2,0-0.5,0-0.7,0C45.2,26.1,41.9,22.8,41.9,18.7z M46.5,27.6c0.9,0.3,1.8,0.4,2.8,0.4
			c0.7,0,1.6-0.1,2.3-0.3c0.1,0.1,0.3,0.2,0.4,0.4v2h-3.2c-0.7,0-1.5,0-2.3,0V27.6z M12,66.6c0.4-28,13.7-33.5,36.7-33.5h311.4
			c30.2,0,43.5,1.5,43.5,37.6v131.7c-20.4-0.7-29.7-15.3-29.7-28.9v-53.2c0-0.8-0.7-1.5-1.5-1.5H45.1c-0.8,0-1.5,0.7-1.5,1.5v52.3
			c0,18.8-11.5,29.8-31.6,30.3C12,189.6,11.7,94.1,12,66.6z M11.8,205.8c16.9-0.4,28.4-7.8,32.8-20.7c1.7,4.2,5.5,7.4,10.1,8.2
			c-0.1,8.9-0.1,15.8-0.2,21.2c-4.6,0.9-8.4,4.1-10,8.3c-7.1-0.6-13-1.1-17.6-1.6c-0.5-7-6.4-12.5-13.4-12.5c-0.7,0-1.4,0.1-2,0.2
			C11.6,207.7,11.7,206.8,11.8,205.8z M2,222.3c0-6.3,5.2-11.5,11.5-11.5c6.3,0,11.5,5.2,11.5,11.5c0,6.3-5.2,11.5-11.5,11.5
			C7.2,233.8,2,228.7,2,222.3z M2,264.6c0-6.3,5.2-11.5,11.5-11.5c6.3,0,11.5,5.2,11.5,11.5c0,6.3-5.2,11.5-11.5,11.5
			C7.2,276.1,2,270.9,2,264.6z M10.3,277.7c1,0.2,2.1,0.4,3.2,0.4c7.4,0,13.5-6.1,13.5-13.5c0-0.8-0.1-1.6-0.2-2.3
			c4.7,1,10.5,2.1,17.3,3.2c-0.3,1-0.4,2.1-0.4,3.3c0,7.4,6.1,13.5,13.5,13.5c0.7,0,1.4-0.1,2-0.2c0.9,6.5,1.4,12.8,1.3,18.2
			c-5.5,0.3-10.1,3.9-11.9,8.8c-7.5-1.1-14.5-2.1-20.4-3.1c-1.1-6.3-6.6-11.1-13.3-11.1c-1.4,0-2.8,0.2-4.1,0.6
			C10.6,289.8,10.5,283.5,10.3,277.7z M3.4,308.2c0-6.3,5.2-11.5,11.5-11.5c6.3,0,11.5,5.2,11.5,11.5c0,6.3-5.2,11.5-11.5,11.5
			C8.5,319.7,3.4,314.6,3.4,308.2z M10.9,321.1c1.3,0.4,2.6,0.6,4,0.6c7.4,0,13.5-6.1,13.5-13.5c0-0.1,0-0.2,0-0.3
			c5.8,1,12.5,2,19.7,3c-0.2,0.9-0.3,1.8-0.3,2.7c0,5.9,3.8,10.9,9.1,12.7c-0.5,5-1,11.4-1.4,18.9c-5.2,0.7-9.4,4.3-11.1,9.1
			c-6.6-0.8-12.6-1.6-17.5-2.2c0.1-0.6,0.1-1.1,0.1-1.7c0-7.4-6.1-13.5-13.5-13.5c-1.1,0-2.2,0.2-3.3,0.4
			C10.6,333.5,10.8,328,10.9,321.1z M2,350.5c0-6.3,5.2-11.5,11.5-11.5c6.3,0,11.5,5.2,11.5,11.5c0,6.3-5.2,11.5-11.5,11.5
			C7.2,362,2,356.9,2,350.5z M13.5,364c6.2,0,11.4-4.2,13-9.8c4.8,0.6,10.8,1.4,17.4,2.2c-0.1,0.8-0.2,1.5-0.2,2.3
			c0,6.4,4.5,11.8,10.5,13.2c-0.3,7.1-0.4,13-0.5,17c-4.6,0.3-8.5,2.8-10.7,6.5c-5.1-0.5-9.6-1.1-13.4-1.7c0.1-0.7,0.2-1.5,0.2-2.3
			c0-7.4-6.1-13.5-13.5-13.5c-3,0-5.7,1-7.9,2.6c-0.4-4.9-0.5-10.9-0.3-17.7C9.7,363.6,11.5,364,13.5,364z M29,395.6
			c3.7,0.5,8,1.1,12.9,1.6c-0.5,1.2-0.8,2.6-0.9,3.9c-5.3-0.6-9.9-1.2-13.9-1.8C27.9,398.3,28.6,397,29,395.6z M16.2,402.9
			c-6.3,0-11.5-5.2-11.5-11.5s5.2-11.5,11.5-11.5c6.3,0,11.5,5.2,11.5,11.5S22.6,402.9,16.2,402.9z M54.4,413.8
			c-6.3,0-11.5-5.2-11.5-11.5c0-6.3,5.2-11.5,11.5-11.5c6.3,0,11.5,5.2,11.5,11.5C65.9,408.7,60.8,413.8,54.4,413.8z M67.8,403.6
			c0-0.4,0.1-0.8,0.1-1.3c0-0.9-0.1-1.9-0.3-2.8c5.7,0.4,12,0.9,18.6,1.3c-0.2,0.9-0.3,1.9-0.3,2.8c0,0.4,0,0.8,0.1,1.1
			C79.6,404.4,73.5,404,67.8,403.6z M99.4,415.2c-6.3,0-11.5-5.2-11.5-11.5s5.2-11.5,11.5-11.5c6.3,0,11.5,5.2,11.5,11.5
			S105.8,415.2,99.4,415.2z M112.7,406.3c0.2-0.8,0.3-1.7,0.3-2.6c0-0.4,0-0.9-0.1-1.3c6.3,0.3,12.9,0.6,19.6,0.9
			c-0.1,0.6-0.1,1.1-0.1,1.7c0,0.7,0.1,1.4,0.2,2.1C125.7,406.9,119.1,406.6,112.7,406.3z M145.8,416.6c-6.3,0-11.5-5.2-11.5-11.5
			s5.2-11.5,11.5-11.5c6.3,0,11.5,5.2,11.5,11.5S152.1,416.6,145.8,416.6z M158.9,408c0.2-1,0.3-2,0.3-3c0-0.2,0-0.4,0-0.6
			c5.7,0.2,11.3,0.4,16.7,0.6c0,0,0,0,0,0.1c0,1.2,0.2,2.3,0.5,3.4C170.7,408.3,164.8,408.2,158.9,408z M189.4,416.6
			c-6.3,0-11.5-5.2-11.5-11.5s5.2-11.5,11.5-11.5c6.3,0,11.5,5.2,11.5,11.5c0,1.3-0.2,2.6-0.7,3.8c0,0,0,0,0,0l0,0.1
			C198.6,413.4,194.4,416.6,189.4,416.6z M216,408.9c-4.3,0-8.9,0-13.7-0.1c0.3-1,0.5-2.1,0.5-3.1c6.1,0.1,11.7,0.2,16.7,0.3
			c0.1,1,0.2,2,0.5,2.9C218.8,408.9,217.4,408.9,216,408.9z M233.1,416.6c-6.3,0-11.5-5.2-11.5-11.5s5.2-11.5,11.5-11.5
			s11.5,5.2,11.5,11.5S239.4,416.6,233.1,416.6z M246,408.8c0.3-0.9,0.4-1.9,0.5-3c4.3-0.1,9-0.3,14.1-0.5c0.1,1.1,0.4,2.2,0.8,3.3
			C256.3,408.7,251.1,408.7,246,408.8z M274,415.2c-6.3,0-11.5-5.2-11.5-11.5s5.2-11.5,11.5-11.5s11.5,5.2,11.5,11.5
			c0,1.6-0.3,3.1-0.9,4.5c-0.1,0-0.2,0-0.3,0l0,0.5C282.4,412.6,278.5,415.2,274,415.2z M286.7,408.2c0.5-1.3,0.7-2.7,0.8-4.1
			c6.2-0.3,12.8-0.7,19.4-1.1c0.1,1.7,0.4,3.2,1.1,4.7C300.5,407.9,293.8,408,286.7,408.2z M320.3,413.8c-6.3,0-11.5-5.2-11.5-11.5
			c0-6.3,5.2-11.5,11.5-11.5s11.5,5.2,11.5,11.5C331.8,408.7,326.7,413.8,320.3,413.8z M333,407c0.5-1.5,0.8-3,0.8-4.6
			c0-0.3,0-0.7-0.1-1c5.8-0.4,11.4-0.8,16.9-1.1c-0.1,0.7-0.2,1.4-0.2,2.1c0,1.4,0.2,2.7,0.6,4C345.4,406.6,339.3,406.8,333,407z
			 M364,413.8c-6.3,0-11.5-5.2-11.5-11.5c0-6.3,5.2-11.5,11.5-11.5c6.3,0,11.5,5.2,11.5,11.5C375.5,408.7,370.3,413.8,364,413.8z
			 M396.6,403.5c-1.5,0.3-6,0.9-19.4,1.7c0.2-0.9,0.3-1.9,0.3-2.8c0-1.4-0.2-2.8-0.6-4c7.4-0.6,14-1.1,19.2-1.5
			c0.7,2.2,1.9,4.2,3.5,5.7C398.6,402.9,397.6,403.3,396.6,403.5z M409,404.3c-6.3,0-11.5-5.2-11.5-11.5s5.2-11.5,11.5-11.5
			s11.5,5.2,11.5,11.5S415.3,404.3,409,404.3z"/>
		<path class="st3" d="M207.9,89c5.7,0,10.4-4.7,10.4-10.4c0-5.7-4.7-10.4-10.4-10.4c-5.7,0-10.4,4.7-10.4,10.4
			C197.5,84.3,202.1,89,207.9,89z M207.9,69.2c5.2,0,9.4,4.2,9.4,9.4c0,5.2-4.2,9.4-9.4,9.4s-9.4-4.2-9.4-9.4
			C198.5,73.4,202.7,69.2,207.9,69.2z"/>
		<path class="st3" d="M113,87.8c0,0,0.1,0,0.1,0c0.2,0,0.3-0.1,0.4-0.2c0-0.1,3.8-5.2,10.5-5.2c3.2,0,4.6,0.7,6.2,1.4
			c1.8,0.9,3.9,1.8,8.7,1.8c5.1,0,7-3.4,7-5.6c0-1.3,0-4.9-3.2-4.9c-1.1,0-1.8,0.2-2.7,0.4c-1.2,0.3-2.7,0.8-6.1,0.8
			c-5.3,0-6.6-6.5-6.7-6.8c0-0.2-0.3-0.4-0.5-0.4c-3.9,0-7.1,1.3-9.5,3.8c-5,5.3-4.7,14.1-4.6,14.5C112.7,87.6,112.8,87.8,113,87.8z
			 M118,73.6c2.1-2.2,4.9-3.4,8.4-3.4c0.4,1.6,2.3,7.2,7.6,7.2c3.5,0,5.1-0.4,6.4-0.8c0.8-0.2,1.5-0.4,2.4-0.4c2,0,2.2,1.9,2.2,3.9
			c0,1.2-1.1,4.6-6,4.6c-4.6,0-6.5-0.9-8.3-1.7c-1.7-0.8-3.2-1.5-6.6-1.5c-5.3,0-8.8,2.9-10.4,4.6C113.8,83.4,114.4,77.4,118,73.6z"
			/>
		<path class="st3" d="M57.2,66.8c0,0,0.1,0,0.1,0c0.2,0,0.4-0.1,0.5-0.3c0-0.1,2.5-5.1,8.9-5.1c0.2,0,0.4-0.1,0.5-0.3
			c0.1-0.2,0-0.4-0.1-0.5c-3.2-3.2-3-8.2-3-8.3c0-0.1,0-0.3-0.1-0.4c-0.1-0.1-0.2-0.2-0.4-0.2c-5,0-6.7,7.5-6.7,14.5
			C56.8,66.5,57,66.8,57.2,66.8z M63.1,52.8c0,1.3,0.3,4.8,2.6,7.6c-4.1,0.3-6.5,2.6-7.8,4.1C58.1,59.1,59.6,53.3,63.1,52.8z"/>
		<path class="st3" d="M62.2,67.2c0,0.7,0.2,1.5,0.3,2.2c0.1,0.7,0.4,1.8,0.2,2.1c-0.8,0-2.8-1.2-3.9-1.9c-0.2-0.1-0.4-0.1-0.5,0
			C58.1,69.6,58,69.8,58,70c0,2.2,0.6,13.4,12,13.4c10.4,0,12.8-6.2,12.8-8.4c0-2-0.9-5.8-4.3-5.8c-1.9,0-2.5,0.5-3,1
			c-0.3,0.3-0.5,0.5-1.3,0.5c-0.8,0-1.7-1.4-2.6-2.8c-1.1-1.9-2.3-3.8-4-3.8C64.2,64.1,62.2,65.2,62.2,67.2z M67.6,65.1
			c1.2,0,2.2,1.8,3.2,3.3c1,1.7,2,3.3,3.4,3.3c1.2,0,1.6-0.4,2-0.8c0.3-0.4,0.6-0.7,2.2-0.7c3.3,0,3.3,4.7,3.3,4.8
			c0,0.1-0.5,7.4-11.8,7.4c-9.4,0-10.8-8.2-11-11.4c1,0.6,2.7,1.5,3.7,1.5c0.4,0,0.7-0.2,0.8-0.4c0.5-0.6,0.3-1.6,0-2.9
			c-0.1-0.7-0.3-1.4-0.3-2C63.2,65.2,66.6,65.1,67.6,65.1z"/>
		<path class="st3" d="M165,75.5c0.1,0.1,0.2,0.2,0.4,0.2c0.1,0,0.2,0,0.2-0.1c0.5-0.3,11.2-6.6,11.2-16c0-0.2-0.1-0.4-0.3-0.5
			c-0.2-0.1-0.4-0.1-0.5,0.1c-0.1,0.1-9.4,7.5-20.2,7.5c-0.2,0-0.4,0.1-0.5,0.4c-0.1,0.2,0,0.4,0.2,0.6
			C155.7,67.6,161.9,71.8,165,75.5z M175.9,60.6c-0.7,7.4-8.6,12.8-10.3,13.9c-2.4-2.7-6.2-5.5-8.1-6.9
			C166,67.1,173.4,62.4,175.9,60.6z"/>
		<path class="st3" d="M137.4,72c1.5,0,3.2-0.4,4.9-0.9c1.8-0.5,3.6-1,5.4-1c0.2,0,0.4-0.2,0.5-0.4s-0.1-0.5-0.3-0.6
			c-0.2-0.1-6.1-3-10.1-3c-3.2,0-7,0.3-7,2.5C130.7,70.5,134.3,72,137.4,72z M137.7,67.2c2.5,0,5.9,1.3,7.9,2.1
			c-1.2,0.2-2.5,0.5-3.7,0.9c-1.6,0.4-3.2,0.9-4.6,0.9c-3.1,0-5.6-1.5-5.6-2.4C131.7,68.1,132.5,67.2,137.7,67.2z"/>
		<path class="st3" d="M186.5,57.4c-3.1,3.1-2.9,7,0.6,10.4c2,2,4,2.2,5.7,2.4c1.2,0.1,2.2,0.2,3,1c0.4,0.4,0.4,1.3,0,2.3
			c-0.4,1-1.1,1.8-1.7,1.8c-1.1,0-1.9-0.6-2.9-1.4c-1.3-1-2.8-2.3-5.7-2.3c-4.9,0-7.8,2.6-7.8,7s2.9,7,7.8,7c2.9,0,4.4-1.3,5.7-2.3
			c1-0.8,1.7-1.4,2.9-1.4c0.5,0,1.2,0.7,1.6,1.8c0.4,1,0.4,2,0.1,2.4c-0.8,0.8-1.8,0.9-3,1c-1.6,0.2-3.6,0.4-5.7,2.4
			c-3.4,3.4-3.7,7.3-0.6,10.4c3.1,3.1,7,2.9,10.4-0.6c2-2,2.2-4,2.4-5.7c0.1-1.2,0.2-2.2,1-3c0.7-0.7,1.8-0.3,2.3-0.2
			c1.1,0.5,1.9,1.3,1.9,1.9c0,1.1-0.6,1.9-1.4,2.9c-1,1.3-2.3,2.8-2.3,5.7c0,4.9,2.6,7.8,7,7.8s7-2.9,7-7.8c0-2.9-1.3-4.4-2.3-5.7
			c-0.8-1-1.4-1.7-1.4-2.9c0-0.7,0.8-1.5,1.7-1.9c0.4-0.1,1.6-0.6,2.4,0.2c0.8,0.8,0.9,1.8,1,3c0.2,1.6,0.4,3.6,2.4,5.7
			c3.4,3.4,7.3,3.7,10.4,0.6c3.1-3.1,2.9-7-0.6-10.4c-2-2-4-2.2-5.7-2.4c-1.2-0.1-2.2-0.2-3-1c-0.4-0.4-0.4-1.4,0-2.4
			c0.4-1,1.1-1.7,1.7-1.7c1.1,0,1.9,0.6,2.9,1.4c1.3,1,2.8,2.3,5.7,2.3c4.9,0,7.8-2.6,7.8-7s-2.9-7-7.8-7c-2.9,0-4.4,1.3-5.7,2.3
			c-1,0.8-1.7,1.4-2.9,1.4c-0.6,0-1.2-0.6-1.6-1.6c-0.4-1-0.5-2.1-0.1-2.5c0.8-0.8,1.8-0.9,3-1c1.6-0.2,3.6-0.4,5.7-2.4
			c3.4-3.4,3.7-7.3,0.6-10.4c-3.1-3.1-7-2.9-10.4,0.6c-2,2-2.2,4-2.4,5.7c-0.1,1.2-0.2,2.2-1,3c-0.6,0.6-1.6,0.4-2.2,0.2
			c-1.1-0.5-2-1.4-2-1.9c0-1.1,0.6-1.9,1.4-2.9c1-1.3,2.3-2.8,2.3-5.7c0-4.9-2.6-7.8-7-7.8s-7,2.9-7,7.8c0,2.9,1.3,4.4,2.3,5.7
			c0.8,1,1.4,1.7,1.4,2.9c0,1-1,1.5-1.5,1.7c-1.1,0.5-2.3,0.4-2.7,0c-0.8-0.8-0.9-1.8-1-3C199.2,62,199,60,197,58
			C193.5,54.6,189.6,54.4,186.5,57.4z M198.3,63.8c0.1,1.3,0.2,2.6,1.3,3.6c0.8,0.8,2.5,0.7,3.7,0.2c1.3-0.5,2.1-1.5,2.1-2.6
			c0-1.5-0.8-2.5-1.7-3.5c-1-1.3-2.1-2.5-2.1-5c0-4.4,2.1-6.8,6-6.8s6,2.4,6,6.8c0,2.5-1.1,3.8-2.1,5c-0.9,1-1.7,2-1.7,3.5
			c0,1.1,1.3,2.3,2.6,2.8c1.3,0.5,2.5,0.4,3.3-0.4c1-1,1.2-2.3,1.3-3.6c0.2-1.6,0.3-3.3,2.1-5c1.6-1.6,3.2-2.4,4.7-2.5
			c1.5-0.1,3,0.6,4.3,1.9s2,2.8,1.9,4.3c-0.1,1.6-0.9,3.2-2.5,4.7c-1.8,1.8-3.4,1.9-5,2.1c-1.3,0.1-2.6,0.3-3.6,1.3
			c-0.8,0.8-0.6,2.4-0.1,3.6c0.6,1.4,1.5,2.2,2.5,2.2c1.5,0,2.5-0.8,3.5-1.7c1.3-1,2.5-2.1,5-2.1c4.4,0,6.8,2.1,6.8,6s-2.4,6-6.8,6
			c-2.5,0-3.8-1.1-5-2.1c-1-0.9-2-1.7-3.5-1.7c-1.2,0-2.2,1.3-2.6,2.3c-0.5,1.1-0.6,2.6,0.2,3.5c1,1,2.3,1.2,3.6,1.3
			c1.6,0.2,3.3,0.3,5,2.1c3.1,3.1,3.3,6.3,0.6,9c-2.7,2.7-5.9,2.5-9-0.6c-1.8-1.8-1.9-3.4-2.1-5c-0.1-1.3-0.3-2.6-1.3-3.6
			c-0.8-0.8-2.1-1-3.5-0.4c-1.4,0.6-2.4,1.7-2.4,2.8c0,1.5,0.8,2.5,1.7,3.5c1,1.2,2.1,2.5,2.1,5c0,4.4-2.1,6.8-6,6.8s-6-2.4-6-6.8
			c0-2.5,1.1-3.8,2.1-5c0.9-1,1.7-2,1.7-3.5c0-1.2-1.2-2.3-2.5-2.8c-0.5-0.2-1.1-0.3-1.5-0.3c-0.7,0-1.3,0.2-1.8,0.7
			c-1,1-1.2,2.3-1.3,3.6c-0.2,1.6-0.3,3.3-2.1,5c-3.1,3.1-6.3,3.3-9,0.6c-2.7-2.7-2.5-5.9,0.6-9c1.8-1.8,3.4-1.9,5-2.1
			c1.3-0.1,2.6-0.3,3.6-1.3c0.8-0.8,0.6-2.3,0.2-3.4c-0.5-1.1-1.4-2.4-2.6-2.4c-1.5,0-2.5,0.8-3.5,1.7c-1.2,1-2.5,2.1-5,2.1
			c-4.4,0-6.8-2.1-6.8-6s2.4-6,6.8-6c2.5,0,3.8,1.1,5,2.1c1,0.9,2,1.7,3.5,1.7c1.2,0,2.2-1.3,2.6-2.4c0.5-1.1,0.6-2.6-0.2-3.4
			c-1-1-2.3-1.2-3.6-1.3c-1.6-0.2-3.3-0.3-5-2.1c-1.6-1.6-2.4-3.2-2.5-4.7c-0.1-1.5,0.6-3,1.9-4.3s2.8-2,4.3-1.9
			c1.6,0.1,3.2,0.9,4.7,2.5C198,60.5,198.2,62.1,198.3,63.8z"/>
		<path class="st3" d="M275.6,75.5c-0.9-0.2-1.6-0.4-2.7-0.4c-3.2,0-3.2,3.6-3.2,4.9c0,2.2,1.9,5.6,7,5.6c4.9,0,6.9-1,8.7-1.8
			c1.6-0.7,3-1.4,6.2-1.4c6.6,0,10.5,5.2,10.5,5.2c0.1,0.1,0.2,0.2,0.4,0.2c0,0,0.1,0,0.1,0c0.2-0.1,0.3-0.2,0.4-0.5
			c0-0.4,0.4-9.2-4.6-14.5c-2.4-2.5-5.6-3.8-9.5-3.8c-0.2,0-0.4,0.2-0.5,0.4c-0.1,0.3-1.4,6.8-6.7,6.8
			C278.3,76.3,276.8,75.9,275.6,75.5z M289.2,70.1c3.5,0.1,6.3,1.2,8.4,3.4c3.6,3.8,4.3,9.8,4.4,12.4c-1.6-1.6-5.1-4.6-10.4-4.6
			c-3.4,0-5,0.7-6.6,1.5c-1.8,0.8-3.7,1.7-8.3,1.7c-4.9,0-6-3.4-6-4.6c0-2.8,0.6-3.9,2.2-3.9c1,0,1.6,0.2,2.4,0.4
			c1.3,0.4,2.8,0.8,6.4,0.8C287,77.3,288.8,71.7,289.2,70.1z"/>
		<path class="st3" d="M352.1,51.8c-0.1,0-0.3,0.1-0.4,0.2c-0.1,0.1-0.1,0.2-0.1,0.4c0,0,0.2,5-3,8.3c-0.1,0.1-0.2,0.4-0.1,0.5
			s0.3,0.3,0.5,0.3c6.4,0,8.8,4.9,8.9,5.1c0.1,0.2,0.3,0.3,0.5,0.3c0,0,0.1,0,0.1,0c0.2-0.1,0.4-0.3,0.4-0.5
			C358.8,59.3,357,51.8,352.1,51.8z M350,60.5c2.3-2.8,2.6-6.3,2.6-7.6c3.5,0.5,4.9,6.2,5.2,11.7C356.5,63,354.1,60.8,350,60.5z"/>
		<path class="st3" d="M357.4,69.5c-0.2-0.1-0.4-0.1-0.5,0c-1.1,0.7-3.1,1.9-3.9,1.9c-0.2-0.2,0.1-1.4,0.2-2.1
			c0.2-0.8,0.3-1.5,0.3-2.2c0-1.9-2-3.1-5.4-3.1c-1.7,0-2.9,1.9-4,3.8c-0.9,1.4-1.7,2.8-2.6,2.8c-0.8,0-1-0.2-1.3-0.5
			c-0.5-0.6-1.1-1-3-1c-3.4,0-4.3,3.8-4.3,5.8c0,2.2,2.3,8.4,12.8,8.4c11.5,0,12-11.1,12-13.4C357.6,69.8,357.5,69.6,357.4,69.5z
			 M345.6,82.4c-11.3,0-11.8-7.4-11.8-7.4c0,0,0-4.8,3.3-4.8c1.6,0,1.9,0.3,2.2,0.7c0.4,0.5,0.8,0.8,2,0.8c1.4,0,2.4-1.6,3.4-3.3
			c0.9-1.5,2-3.3,3.2-3.3c1,0,4.4,0.2,4.4,2.1c0,0.6-0.1,1.3-0.3,2c-0.3,1.3-0.5,2.3,0,2.9c0.1,0.2,0.4,0.4,0.8,0.4
			c1,0,2.7-0.9,3.7-1.5C356.4,74.1,355,82.4,345.6,82.4z"/>
		<path class="st3" d="M250,75.6c0.1,0,0.2,0.1,0.2,0.1c0.1,0,0.3-0.1,0.4-0.2c3.2-3.7,9.4-7.9,9.4-7.9c0.2-0.1,0.3-0.4,0.2-0.6
			c-0.1-0.2-0.3-0.4-0.5-0.4c-10.9,0-20.1-7.4-20.2-7.5c-0.2-0.1-0.4-0.1-0.5-0.1c-0.2,0.1-0.3,0.3-0.3,0.5
			C238.7,69.1,249.5,75.4,250,75.6z M258.2,67.6c-1.9,1.4-5.7,4.2-8.1,6.9c-1.8-1.1-9.7-6.5-10.3-13.9
			C242.2,62.4,249.6,67.1,258.2,67.6z"/>
		<path class="st3" d="M268,70.1c1.8,0,3.6,0.5,5.4,1c1.7,0.5,3.3,0.9,4.9,0.9c3.1,0,6.6-1.5,6.6-3.4c0-2.2-3.7-2.5-7-2.5
			c-4,0-9.9,2.9-10.1,3c-0.2,0.1-0.3,0.3-0.3,0.6C267.6,70,267.8,70.1,268,70.1z M277.9,67.2c5.2,0,6,0.9,6,1.5
			c0,0.9-2.5,2.4-5.6,2.4c-1.4,0-3-0.4-4.6-0.9c-1.2-0.3-2.4-0.7-3.7-0.9C272,68.4,275.4,67.2,277.9,67.2z"/>
	</g>
</g>
</svg>
