<?xml version="1.0" encoding="utf-8"?>
<!-- Generator: Adobe Illustrator 20.1.0, SVG Export Plug-In . SVG Version: 6.00 Build 0)  -->
<svg version="1.1" xmlns="http://www.w3.org/2000/svg" xmlns:xlink="http://www.w3.org/1999/xlink" x="0px" y="0px"
	 viewBox="0 0 396.9 568.1" style="enable-background:new 0 0 396.9 568.1;" xml:space="preserve">
<style type="text/css">
	.st0{fill:#FFFFFF;}
	.st1{fill:#1A1A1A;}
</style>
<g id="back">
	<path class="st0" d="M391.1,540.7c1.8-8.9,4.8-33.9,4.3-48.3c-0.1-2.3-0.1-6.9-0.1-13.3c0-33.1-0.1-110.5-12-137.1
		c-13-29.1-39.5-64-56.5-74.7l-0.6-0.4l-0.1-0.7c-0.1-0.5-0.1-1-0.2-1.5l-0.2-1.4l1.4-0.3c2.4-0.5,4.5-1.6,5.9-3l0.3-0.6l0.7-0.2
		c1.3-0.3,2.7-0.6,3.7,0c1.3,0.7,1.3,2,1.3,3c0,0.3,0,0.6,0.1,0.8c0.1,0.3,0.7,2.8,3.6,2.6l1.2-0.1l0.4,1.1c0.4,1.4,1.3,2.4,4.1,3.3
		c0.9,0.3,1.7,0.3,2.7,0.1l0.3-0.1c3-0.2,7.3-0.8,10.5-2.2c4.5-1.9,5.4-12.8,5.1-18.9l0-0.3l0.1-0.3c1.2-3.6,11.4-35.2,11.4-50.9
		c0-37.8-13-58.3-29.5-84.3l-0.3-0.4c-16.2-25.6-67.7-80.8-85.1-96C246,1.5,225,1.5,214.9,1.5c-5.5,0-13.1,4.4-20.5,8.6
		c-1.1,0.6-2.2,1.3-3.3,1.9c-2.3,1.3-6.9,3.1-12.8,5.5C162.9,23.7,136.9,34,121,47.6C105.2,61.1,88.4,86,77.3,102.5
		c-4.2,6.2-7.7,11.5-10.2,14.7c-9.1,11.7-24,42.4-27.3,66.1c-3,21.3-5.7,48-4.7,54l0.1,0.3l-0.1,0.3c-1.6,5.6-4.2,16.1-3.8,19.8
		c0.5,3.9,2.1,5.6,5.4,5.6c0.1,0,0.2,0,0.4,0c2.7-0.1,5.4-0.9,7.8-2.4l0.3-0.2l1.1-0.1c1.4-0.2,2.7-0.3,3.8-0.3c0.3,0,0.7,0,1,0
		c2,0.2,3.7,1,5.4,1.8c1.1,0.5,2.2,1,3.1,1.2c0.7,0.1,1.8,0.2,2.9,0.3l1,0l0.3,1c0.3,0.8,0.7,1.5,1.3,2.3l1.1,1.4l-1.5,0.9
		c-4.5,2.6-8.7,5.3-12.3,7.9C30.7,292.8,15.3,334.7,8,354.9c-1.3,3.6-2.3,6.4-3.1,8.3c-3.9,9.6-3.6,26.1-3.1,49
		c0.2,8.1,0.4,17.3,0.4,27c0,38.2,14.4,110.8,14.5,111.5c1.7,8.1,6.8,9.2,12.9,9.7c6.6,0.6,152.3,5.7,175.1,6.2c1.5,0,3.7,0,6.5,0
		c33.6,0,150.1-2.6,160.8-4.9C381.7,559.6,388.8,551.8,391.1,540.7z M345.2,258.5c-0.4,0.9-0.7,1.6-0.9,2.3l0,0
		c-0.1,0.1-0.1,0.2-0.1,0.3l-0.8,2.2l-1.7-1.6c-0.4-0.4-0.6-0.8-0.7-1.2l0-0.2c0-0.1,0-0.9-0.4-1.6l-1.5-2.5l2.9,0.3
		c0.5,0,1,0.1,1.6,0l2.7-0.2L345.2,258.5z M68.7,266.9l-0.8-0.8c-0.1-0.1-0.2-0.2-0.3-0.3l-1.9-2.1l3.3-0.4c0.2,0,0.3-0.1,0.5-0.1
		l0.3,0.7l0.1-0.1c0.1,0.1,0.1,0.1,0.2,0.2l-0.1,0.1l0.7,1.7L68.7,266.9z M72.6,263.7l-1.1-4.7c-0.1-0.2-0.1-0.4-0.1-0.4
		c-0.1-0.1-0.1-0.2-0.2-0.3l-0.1-0.1l-1.4-2.6l2.9,0.4c0.4,0,0.8,0.1,1.1,0.2l1.7,0.4L72.6,263.7z M320.5,245.3l-0.4-0.7
		c-5.2-9.4-12.4-10.8-18.6-12l-0.3-0.1c-8.8-1.8-34-9.3-53.7-15.6c-9.8-3.1-23.1-5.1-38.3-5.7l-2.2-0.1l1.1-2.7l0.4-0.3
		c2.3-1.5,4-3.2,4.2-4.1c0.1-0.5-0.1-0.9-0.2-1.1c-0.8-1.2-3.1-2.1-5.8-2.3c-5-0.4-18.8-0.5-21.6,1.2c-0.8,0.5-1.2,1-1.2,1.6
		c0,0.8,0.6,2.4,3.7,4.8l0.3,0.2l0.2,0.3c0.1,0.3,0.3,0.5,0.4,0.7l1.2,2.1l-2.4,0.2c-8.5,0.7-18.6,2-25.8,3.2
		c-12,2-32.4,14.3-33.3,14.8c-1.7,1-8.1,3-17.5,6c-9.5,2.9-20.2,6.2-24.9,8.5c-3.4,1.6-5.9,4.2-8.1,8l-0.6,1l-1.1-0.3
		c-2.5-0.7-5.9-1-7.4,0l-0.5,0.3c-1,0.6-2.2,1.4-3.2,2.5l-0.4,0.4l-0.6,0c-0.2,0-0.4,0.1-0.5,0.1c-0.2,0.1-0.4,0.1-0.8,0.2
		c-0.2,0-0.4,0-0.7,0c-3,0-5.4-2.4-6.1-3.1l-0.2-0.2l-0.1-0.3c-0.1-0.4-0.6-1.7-1.6-2.7l-0.5-0.4v-0.6c0-11.6-5.3-20.6-6.3-22.3
		l-0.3-0.5l0.1-0.6c1.1-6.2,0-10.4-0.6-12.6c-0.3-1-0.4-1.4-0.4-1.7c0.1-2,6.3-23.2,11.7-38.6c2-5.8,4.6-13.5,7.2-20.8
		c4.2-12.3,8.5-24.9,9.7-27.7c2-4.5,48.9-56.2,56.5-61.2c0.8-0.5,2.1-1.4,3.9-2.6C150.1,49.8,197,18,217.1,18l0.1,0
		c24.1,0.1,40.2,13,63.8,34.1c25.6,22.8,61.6,72.3,77.9,99.2c14.4,23.8,11.7,38.9,9.9,48.9c-0.3,1.9-0.7,3.7-0.8,5.4
		c-0.6,6.2-4.8,16.5-12.6,30.4l-0.5,0.9c-1.9,3.5-4.3,9.8-4.9,12.6l-0.1,0.3l-0.1,0.2c-0.2,0.4-1,1.7-2,3.5l-0.4,0.8l-0.9,0
		c-0.4,0-0.9,0.1-1.5,0.1c-1,0.1-2.2,0.2-3.6,0.1l-0.3-0.1c-0.3-0.1-0.5-0.2-0.9-0.5c-0.7-0.5-1.8-1.2-3.9-1.3l-1.1-0.1l-0.3-1.1
		c-0.3-1.4-1.1-2.6-3.6-4c-2.1-1.2-6.6-1.9-10-2.1L320.5,245.3z M323.9,254.4c-0.2-0.8-0.5-1.7-0.8-2.6l-0.4-1.2l2.7-1.5l0.3,0
		c0.8-0.1,3.7-0.3,5.3,1c0.3,0.2,0.5,0.5,0.7,0.8l0.9,1.7l-1.9,0.4c-2,0.5-3.5,1.1-4.3,1.9l-1.8,1.8L323.9,254.4z"/>
</g>
<g id="lines">
	<g>
		<path class="st1" d="M396.9,492.3c-0.1-2.3-0.1-6.9-0.1-13.2c0-33.2-0.1-110.9-12.1-137.7c-13.4-29.8-40.1-64.7-57.1-75.4
			c-0.1-0.5-0.1-1-0.2-1.5c2.7-0.6,5.1-1.8,6.7-3.5c0.1-0.1,0.1-0.2,0.2-0.3c1.1-0.2,2.2-0.4,2.7-0.2c0.5,0.3,0.6,0.7,0.6,1.7
			c0,0.4,0,0.7,0.1,1.1c0.3,1.5,1.6,3.8,4.7,3.8c0.2,0,0.3,0,0.5,0c0.7,2.1,2.1,3.3,5.1,4.3c0.7,0.2,1.3,0.3,1.9,0.3
			c0.5,0,1.1-0.1,1.6-0.2c3-0.2,7.5-0.8,10.9-2.3c6.4-2.7,6.1-17.8,6.1-20.3c0.9-2.9,11.5-35.3,11.5-51.3
			c0-38.2-13.1-58.9-29.8-85.1l-0.3-0.4c-16.3-25.7-67.9-81.1-85.4-96.4C246.5,0,225.2,0,214.9,0c-5.9,0-13.7,4.5-21.2,8.8
			c-1.1,0.6-2.2,1.3-3.2,1.9c-2.2,1.2-6.8,3.1-12.6,5.4c-15.6,6.2-41.7,16.7-57.8,30.4c-16,13.7-32.9,38.7-44,55.2
			c-4.1,6.1-7.7,11.4-10.2,14.6C56.6,128,41.6,159.1,38.2,183c-3,21.6-5.7,48.3-4.7,54.5c-0.6,1.9-4.4,15.5-3.8,20.4
			c0.6,4.6,2.8,6.9,6.9,6.9c0.1,0,0.3,0,0.5,0c3-0.1,5.9-1,8.5-2.6c0.3,0,0.5-0.1,0.8-0.1c1.7-0.2,3.2-0.4,4.5-0.3
			c1.7,0.2,3.3,0.9,4.9,1.7c1.2,0.6,2.3,1.1,3.4,1.3c0.8,0.1,1.9,0.3,3.2,0.3c0.3,1,0.8,1.9,1.6,2.8c-4.4,2.5-8.6,5.2-12.4,8
			C29.4,291.8,14,334.1,6.6,354.4c-1.3,3.5-2.3,6.3-3.1,8.3c-4,9.9-3.7,26.6-3.2,49.6c0.2,8.1,0.4,17.3,0.4,26.9
			c0,38.4,14.4,111.1,14.5,111.8c1.9,9.1,8.1,10.3,14.2,10.9c6.6,0.6,152.4,5.7,175.2,6.2c1.6,0,3.8,0,6.5,0
			c34.4,0,150.3-2.6,161.1-4.9c10.3-2.2,17.8-10.5,20.2-22.1C394.4,532.1,397.4,506.9,396.9,492.3z M296.2,246.3
			c-4.5-3.5-8.1-6.3-10.8-7.7c-6.8-3.4-52-17.6-85-17.3c-31.9,0.3-57.7,12.4-70.1,18.2c-2.2,1-3.9,1.8-5.1,2.3
			c-1.3,0.5-3.6,1.3-6.4,2.3c-10,3.5-27.2,9.6-43.9,17.9c0.3-0.7,0.6-1.4,0.9-2.1c2.3-6,4.6-11.6,10.6-14.5
			c4.6-2.3,15.3-5.6,24.7-8.5c9.8-3,15.9-4.9,17.8-6.1c0.9-0.5,21.1-12.6,32.8-14.6c10.3-1.8,28.3-3.7,36.8-3.7
			c24.9,0,40.1,3.2,48.5,5.8c15.2,4.8,43.7,13.6,53.9,15.6l0.3,0.1c8.7,1.7,19.5,3.9,23.2,30.3c-0.3-0.1-0.6-0.3-0.9-0.4
			C313.4,259.6,303.9,252.2,296.2,246.3z M69,265c-0.1-0.1-0.2-0.2-0.2-0.3c0.2,0,0.3,0,0.5-0.1c0.2,0,0.5-0.1,0.7-0.2
			C69.6,264.7,69.3,264.8,69,265z M65.8,258.9c-0.5,0.1-1.2,0.1-2.2,0c0.3-2.8,2.6-4.2,4.6-5.5l0.5-0.3c1.4-0.9,4.6-0.6,6.6-0.1
			c-0.4,0.9-0.8,1.8-1.2,2.7c-1.4-0.4-3.7-0.7-5,0.2c-0.2,0.1-0.4,0.3-0.7,0.4C67.6,256.9,66.4,257.5,65.8,258.9z M44.6,255.7
			c-0.2-6.9-2.8-15.3-3.6-17.8c0.2-0.2,0.5-0.3,0.7-0.5c2.6-1.7,5.4-3.5,6.3-8.1c2,3.9,5.1,11.4,4.9,20.3c-0.2,1.6-1.2,3.6-2.7,5.5
			C47.6,255.1,45.8,255.5,44.6,255.7z M348.5,249.1c-0.3,0.4-1.1,1.8-2,3.5c-0.5,0-1.1,0.1-1.7,0.1c-1,0.1-2.1,0.2-3.3,0.1
			c-0.1,0-0.3-0.2-0.5-0.3c-0.8-0.5-2.1-1.4-4.6-1.6c-0.5-2.1-1.7-3.5-4.4-5c-3-1.7-8.8-2.1-10.7-2.3c-5.6-10-13.4-11.5-19.6-12.8
			l-0.3-0.1c-8.7-1.7-33.9-9.3-53.6-15.5c-10-3.2-23.3-5.2-38.7-5.8c0-0.1,0.1-0.2,0.1-0.3c1.1-0.8,4.3-3,4.8-4.9
			c0.2-0.8,0.1-1.7-0.4-2.4c-1.1-1.6-3.7-2.7-6.9-3c-3.8-0.3-18.9-0.7-22.5,1.4c-1.5,0.9-1.9,2-1.9,2.8c-0.1,1.8,1.3,3.8,4.3,6
			c0.2,0.3,0.3,0.5,0.4,0.7c-8.7,0.7-18.9,2-25.9,3.2c-12.3,2.1-32.9,14.4-33.8,15c-1.7,1-9.6,3.5-17.2,5.8
			c-9.5,2.9-20.3,6.3-25.1,8.6c-4.2,2-6.8,5.2-8.8,8.6c-2.4-0.7-6.5-1.3-8.7,0.2l-0.5,0.3c-1.1,0.7-2.4,1.5-3.5,2.7
			c-0.4,0-0.7,0.1-0.9,0.2c-0.1,0-0.3,0.1-0.5,0.1c-2.6,0.3-4.9-2-5.5-2.6c-0.2-0.6-0.8-2.1-2-3.3c0-12-5.4-21.2-6.6-23.1
			c1.1-6.5,0-10.9-0.7-13.3c-0.2-0.6-0.3-1.1-0.3-1.3c0.1-1.6,6.1-22.4,11.6-38.1c2-5.8,4.7-13.5,7.2-20.9
			c4.2-12.2,8.5-24.9,9.7-27.5c1.7-3.9,48.5-55.7,56-60.5c0.8-0.5,2.1-1.4,3.9-2.6c15.3-10.4,62-41.9,81.5-41.9c0,0,0.1,0,0.1,0
			c23.6,0.1,39.5,12.8,62.8,33.7c25.4,22.7,61.4,72,77.6,98.9c14.1,23.4,11.4,38.1,9.7,47.9c-0.3,2-0.7,3.8-0.8,5.5
			c-0.6,6-4.7,16-12.4,29.8l-0.5,0.9C351.5,239.7,349.1,246.2,348.5,249.1z M342.9,260.3c0,0.1-0.1,0.2-0.1,0.3c0,0,0,0,0,0
			c-0.2-0.2-0.3-0.3-0.3-0.4c0-0.4-0.1-1.4-0.7-2.4c0.4,0,0.8,0.1,1.2,0.1c0.3,0,0.5,0,0.8,0C343.4,258.7,343.1,259.6,342.9,260.3z
			 M324.6,251.3l1.4-0.7c0.9-0.1,3.1-0.1,4.1,0.7c0.1,0.1,0.2,0.2,0.3,0.4c-2.3,0.5-4,1.3-5,2.3
			C325.1,253.1,324.8,252.2,324.6,251.3z M332.5,255.4c0.1-0.7,0.1-1.3,0-2.1c0-0.3,0-0.6,0-1c0-1-0.4-1.9-1.2-2.5
			c-1.9-1.6-5.5-1.2-5.9-1.1c-0.1,0-0.2,0.1-0.3,0.1l-1.2,0.7c-0.5-1.3-0.9-2.4-1.5-3.5c2.3,0.2,6.5,0.7,8.6,1.9
			c3.2,1.8,3.6,3,3.7,6.6c0,0.6,0,1.1-0.1,1.6c0,0-0.1,0-0.1,0c-0.8,0-1.5,0-2-0.1C332.5,255.7,332.5,255.5,332.5,255.4z
			 M344.8,255.8c-1.9,0.3-3.9,0.1-5.6-0.5l-0.1-0.1c-0.7-0.3-1.5-0.6-2.3-0.8c0,0,0-0.1,0-0.1c0-0.4,0-0.8-0.1-1.2
			c1.7,0.2,2.5,0.8,3.2,1.2c0.5,0.3,0.9,0.6,1.4,0.6c0.4,0,0.8,0,1.1,0c1,0,1.8-0.1,2.6-0.2c0.1,0,0.2,0,0.4,0
			C345.2,255.1,345,255.4,344.8,255.8z M208.8,207.2c-1.8-1.7-7.3-2.7-10.5-2.6c-2.6,0.1-8.9,1.2-11.1,2.7c-2.6-2.2-2.9-3.4-2.9-3.9
			c0-0.2,0-0.6,1-1.2c2.7-1.6,16.3-1.5,21.3-1.1c3.1,0.2,4.9,1.3,5.4,2.1c0.3,0.4,0.2,0.6,0.2,0.7
			C211.9,204.6,210.3,206.1,208.8,207.2z M189.3,209.8c-0.1-0.1-0.1-0.3-0.2-0.4c-0.1-0.1-0.2-0.3-0.5-0.7c1.4-0.8,6.3-2,9.8-2.1
			c3.7-0.1,8.2,1.2,9,2c-0.2,0.4-0.3,0.7-0.5,1c-2.8-0.1-5.6-0.1-8.5-0.1C196,209.4,192.8,209.6,189.3,209.8z M73,258.7
			c-0.1-0.3-0.2-0.7-0.4-0.9c0,0,0-0.1-0.1-0.1c0-0.1-0.1-0.1-0.1-0.2c0.3,0,0.7,0.1,0.9,0.2C73.2,258,73.1,258.3,73,258.7z
			 M54.6,255.7c0,0,0-0.1,0-0.1l-1.3-1.7c0.4-0.8,0.8-1.6,1-2.3c0.4,0.7,0.6,1.3,0.6,1.3c0,0.1,0.1,0.3,0.2,0.4
			c0.1,0.2,3,3.5,6.7,3.5c0.1,0,0.2,0,0.3,0c-0.2,0.6-0.4,1.2-0.5,1.9c-0.4-0.1-0.8-0.2-1.2-0.3c-0.7-0.2-1.2-0.5-1.8-0.9
			C57.7,256.9,56.6,256.2,54.6,255.7z M326.8,260.3c1,0.6,2.4,0.9,3.9,0.9c-1,0.6-2.2,1-3.5,1.3C327,261.8,326.9,261.1,326.8,260.3z
			 M339.6,263c0-0.2,0-0.4,0-0.7c0-0.9-0.1-2.5-1.6-3.4c-1.2-0.7-2.6-0.4-4.2,0c-0.9,0.2-1.8,0.4-2.7,0.4c-2,0.1-4.3-0.5-4.8-2.4
			c-0.1-0.4,0-0.7,0.2-1c0.5-0.8,2-1.6,4.1-2.1c0,0.5,0,0.9,0,1.2c-0.6,0.5-0.7,1-0.7,1.4c0.1,1.7,3.3,1.8,4.7,1.7
			c0.6,0,1.1-0.1,1.7-0.2c1.1-0.2,2-0.3,2.8,0.1c1.4,0.7,1.5,2,1.5,2.4c0,0.8,0.5,1.6,1.3,2.2c0.9,0.7,2,1,3.2,1
			c0.6,0,1.3-0.1,1.9-0.3c0.4-0.1,0.8-0.2,1.2-0.3c0,0,0,0,0,0c1.6-0.4,3-0.9,4.1-1.2c-0.1,0.6-0.3,1.1-0.5,1.6
			c-0.2,0-0.4,0-0.5,0.1c-1.2,0.7-5.7,1.6-8.4,1.8C340.3,265.4,339.7,263.4,339.6,263z M349.3,260.4c0.5-1.3,1.2-2.8,1.9-3.9
			c0.4,0.9,0.8,2,0.9,3.1C351.5,259.8,350.5,260.1,349.3,260.4z M344.9,266.9c0.9-0.1,1.8-0.3,2.7-0.5c0.4,0.5,1,0.7,1.7,0.7
			c0.1,0,0.2,0,0.3,0c2.2-0.2,3.9-2.2,4.5-5.3c0.6-3.1-1.7-7.5-2-8c-0.2-0.3-0.5-0.5-0.8-0.5c-0.4,0-0.7,0.2-0.9,0.5
			c-0.1,0.2-2.8,4.3-3.5,7.3c-0.2,0.1-0.4,0.1-0.7,0.2c-0.7,0.2-1.3,0.2-1.8,0.2c0,0,0-0.1,0-0.1c0-0.1,0.1-0.2,0.1-0.4
			c0.7-2,2-4.6,3.2-6.8c0,0,0,0,0,0c0.8-1.5,1.5-2.7,2-3.5l7.4,2.2c0.2,1.5,0.4,5.7-0.7,9.4c-0.6,1.9-2.4,5.7-4.9,7
			c-0.2,0.1-0.4,0.2-0.6,0.2c-0.9,0.1-1.6,0.1-2,0.1c-0.2,0-0.3-0.1-0.5-0.1C346.1,268.8,345.3,268,344.9,266.9z M361.6,267.4
			c-2,0.8-4.4,1.4-6.6,1.7c2.2-2.4,3.3-5.7,3.4-6.2c1.3-4,1-8.3,0.8-10.1l7.2-2.6C366.5,255.4,365.7,265.7,361.6,267.4z M40.2,183.3
			c3.3-23.5,18.1-54.2,27.2-65.8c2.5-3.2,6.1-8.5,10.2-14.7c11.1-16.5,27.9-41.3,43.7-54.8c15.8-13.5,41.7-23.8,57.2-30
			c5.9-2.4,10.5-4.2,12.8-5.5c1.1-0.6,2.2-1.2,3.3-1.9C202,6.4,209.5,2,214.9,2c10,0,30.9,0,48.2,15.2c17.4,15.2,68.8,70.4,85,95.9
			l0.3,0.4c16.5,25.9,29.5,46.4,29.5,84.1c0,15.1-9.9,46.3-11.3,50.4l-7,2.5c0.3-0.5,0.5-1.1,0.9-1.7c0.1-0.2,0-0.5-0.2-0.7
			c-0.2-0.1-0.5,0-0.7,0.2c-0.5,1.1-1,2-1.4,2.6l-0.1,0l-7.5-2.3c0.8-3,2.9-8.6,4.7-11.8l0.5-0.9c2.9-5.2,11.8-21,12.7-30.5
			c0.1-1.6,0.5-3.3,0.8-5.3c1.8-10.1,4.5-25.3-10-49.3c-16.2-27-52.4-76.5-78-99.3c-23.7-21.2-39.9-34-64.1-34.2c0,0-0.1,0-0.1,0
			c-20.2,0-67.2,31.8-82.7,42.2c-1.8,1.2-3.1,2.1-3.9,2.6c-7.7,5-54.7,56.9-56.7,61.4c-1.2,2.7-5.3,14.9-9.7,27.7
			c-2.5,7.4-5.1,15-7.2,20.9c-5.3,15.1-11.7,37-11.7,38.8c0,0.5,0.2,1,0.4,1.9c0.6,2.3,1.8,6.5,0.6,12.8c0,0,0,0.1,0,0.1
			c0,0,0,0.1,0,0.1c0.1,6.1-2.5,7.8-5.6,9.8c-0.4,0.2-0.8,0.5-1.1,0.8c0,0-0.1,0-0.1,0c-0.3,0-0.5,0.1-0.5,0.4
			c-0.9,0.4-2.4,0.4-3.3,0C34.8,231.1,36.9,207.1,40.2,183.3z M31.7,257.6c-0.5-4,2.5-15.1,3.5-18.7c1.3,0.4,2.8,0.3,3.9,0
			c0.9,2.8,3.3,10.9,3.4,17.1c-1-0.1-2-0.6-2.4-0.9c0,0,0,0,0,0c0-5.1-1.2-11.7-1.3-12c-0.1-0.5-0.5-0.8-1-0.8c-0.2,0-0.4,0-0.6,0
			c-0.3,0-0.6,0.1-0.8,0c-0.3-0.1-0.6,0-0.8,0.1c-0.2,0.2-0.4,0.4-0.4,0.7c-0.1,0.4-1.5,9.7-1.3,12.9c0.1,2.3,0.6,3.3,1.2,4
			c0.7,1.1,1.8,1.8,3.4,2c0.2,0,0.3,0,0.5,0.1c-0.8,0.3-1.7,0.5-2.2,0.5c-0.1,0-0.3,0-0.4,0C34.5,262.7,32.3,262.1,31.7,257.6z
			 M38.1,251.5c-0.5,0.4-1.3,1.2-2,2c0.2-3,0.8-7.3,1.1-9.2C37.4,245.8,37.8,248.6,38.1,251.5z M56.6,261.6
			c-1.7-0.8-3.5-1.7-5.6-1.9c-1.5-0.1-3.1,0.1-4.9,0.3c-2.3,0.3-4.8,0.6-7.1,0.2c-0.7-0.1-1.2-0.3-1.6-0.6c-0.1-0.1-0.2-0.2-0.3-0.3
			c-0.1-0.1-0.2-0.2-0.3-0.3c-0.5-1-0.2-2.3,0.1-3c0.2-0.5,0.7-1.1,1.3-1.7c0,0.3,0,0.6,0,0.9c-0.1,0.3,0,0.7,0.3,1.1
			c0.7,1,2.8,1.9,4.5,1.9c0.5,0,1-0.1,1.7-0.3c1.5-0.3,3.7-0.8,7.2-0.5c3.1,0.3,4.4,1.1,5.5,1.9c0.7,0.5,1.4,0.9,2.5,1.2
			c0.8,0.2,2.8,0.7,4.7,0.7c0.8,0,1.7-0.1,2.3-0.4c0.4-0.1,0.6-0.5,0.6-0.9c0.2-0.8,0.8-1.1,1.8-1.7c0.2-0.1,0.3-0.2,0.5-0.3
			c0.5,0.2,0.6,0.4,0.8,0.7c0.1,0.1,0.1,0.3,0.2,0.4c0.1,0.2,0.3,1.3-0.2,2.3c-0.4,0.8-1,1.3-1.8,1.5c-3,0.5-7.2,0.4-9.3,0
			C58.8,262.6,57.7,262.1,56.6,261.6z M64.5,265c0.6,0,1.2,0,1.9-0.1c0.2,0.4,0.5,0.7,0.8,1c-0.5,0.3-0.9,0.5-1.4,0.8
			C65.2,266.2,64.8,265.6,64.5,265z M371.7,560.2c-10.8,2.3-141.2,5.3-167,4.8c-22.8-0.5-168.4-5.6-175-6.2
			c-6.8-0.6-10.2-2-11.5-8.5c-0.3-1.4-0.7-3.6-1.3-6.4l6.9,0.7c0,0,0.1,0,0.1,0c0.5,0,0.9-0.4,1-0.9c0.1-0.5-0.3-1-0.9-1.1l-7.5-0.7
			c-0.6-3-1.2-6.6-1.9-10.7c3.6,0.4,7.1,0.8,7.6,1.1c0.1,0.1,0.3,0.1,0.4,0.1c0.4,0,0.7-0.2,0.9-0.6c0.2-0.5,0-1.1-0.5-1.3
			c-0.9-0.4-5.8-1-8.8-1.3c-0.5-3-1.1-6.3-1.6-9.7l8,1.7c0.1,0,0.1,0,0.2,0c0.5,0,0.9-0.3,1-0.8c0.1-0.5-0.2-1.1-0.8-1.2l-8.8-1.9
			c-0.5-3-1-6-1.5-9.2l8.7,2.6c0.1,0,0.2,0,0.3,0c0.4,0,0.8-0.3,1-0.7c0.2-0.5-0.1-1.1-0.7-1.2l-9.6-2.9c-0.5-3.6-1.1-7.3-1.6-11
			l8.6,2.4c0.1,0,0.2,0,0.3,0c0.4,0,0.8-0.3,1-0.7c0.1-0.5-0.2-1.1-0.7-1.2l-9.5-2.6c-0.5-3.6-1-7.2-1.4-10.8l8.1,2.7
			c0.1,0,0.2,0.1,0.3,0.1c0.4,0,0.8-0.3,0.9-0.7c0.2-0.5-0.1-1.1-0.6-1.3l-9-3c-0.5-3.7-0.9-7.4-1.3-11.1l8.5,3
			c0.1,0,0.2,0.1,0.3,0.1c0.4,0,0.8-0.3,0.9-0.7c0.2-0.5-0.1-1.1-0.6-1.3l-9.4-3.4C5,463,4.6,459.4,4.4,456c2.3,0.9,5.9,2.3,7.7,2.9
			c0.1,0,0.2,0.1,0.3,0.1c0.4,0,0.8-0.3,0.9-0.7c0.2-0.5-0.1-1.1-0.6-1.3c-2-0.7-6.4-2.4-8.5-3.2c-0.3-3.8-0.4-7.3-0.5-10.7l8.3,3.4
			c0.1,0.1,0.3,0.1,0.4,0.1c0.4,0,0.8-0.2,0.9-0.6c0.2-0.5,0-1.1-0.5-1.3l-9.1-3.7c0-0.6,0-1.1,0-1.7c0-2.8,0-5.6,0-8.3l8.3,4.1
			c0.1,0.1,0.3,0.1,0.4,0.1c0.4,0,0.7-0.2,0.9-0.6c0.2-0.5,0-1.1-0.5-1.3l-9.2-4.5c0-3.5-0.1-6.9-0.2-10.1l8.5,3.8
			c0.1,0.1,0.3,0.1,0.4,0.1c0.4,0,0.7-0.2,0.9-0.6c0.2-0.5,0-1.1-0.5-1.3l-9.4-4.2c0-1.4-0.1-2.8-0.1-4.2c0-2-0.1-4-0.1-6l7.8,2.9
			c0.1,0,0.2,0.1,0.4,0.1c0.4,0,0.8-0.2,0.9-0.6c0.2-0.5-0.1-1.1-0.6-1.3l-8.5-3.2c-0.1-3.3-0.1-6.4-0.1-9.4l7.9,3.1
			c0.1,0,0.2,0.1,0.4,0.1c0.4,0,0.8-0.2,0.9-0.6c0.2-0.5-0.1-1.1-0.6-1.3L3,392.5c0-3.9,0.1-7.5,0.2-10.8l7.7,3
			c0.1,0,0.2,0.1,0.4,0.1c0.4,0,0.8-0.2,0.9-0.6c0.2-0.5,0-1.1-0.6-1.3l-8.3-3.3c0.3-4.4,0.8-8.2,1.5-11.5l7,3.3
			c0.1,0.1,0.3,0.1,0.4,0.1c0.4,0,0.7-0.2,0.9-0.6c0.2-0.5,0-1.1-0.5-1.3l-7.4-3.5c0.2-0.8,0.5-1.6,0.8-2.3c0.7-1.7,1.5-3.9,2.6-6.8
			l5.3,3.3c0.2,0.1,0.3,0.1,0.5,0.1c0.3,0,0.7-0.2,0.9-0.5c0.3-0.5,0.1-1.1-0.3-1.4l-5.7-3.5c1-2.6,2-5.6,3.2-8.8l5.2,3
			c0.2,0.1,0.3,0.1,0.5,0.1c0.3,0,0.7-0.2,0.9-0.5c0.3-0.5,0.1-1.1-0.4-1.4l-5.5-3.2c0.9-2.4,1.9-5,3-7.6l4.9,2.2
			c0.1,0.1,0.3,0.1,0.4,0.1c0.4,0,0.7-0.2,0.9-0.6c0.2-0.5,0-1.1-0.5-1.3l-5-2.3c1.1-2.6,2.2-5.3,3.4-8.1l4.9,2.8
			c0.2,0.1,0.3,0.1,0.5,0.1c0.3,0,0.7-0.2,0.9-0.5c0.3-0.5,0.1-1.1-0.4-1.4l-5-2.9c1.1-2.6,2.3-5.1,3.6-7.7l4.2,2.7
			c0.2,0.1,0.4,0.2,0.5,0.2c0.3,0,0.6-0.2,0.8-0.5c0.3-0.5,0.2-1.1-0.3-1.4l-4.4-2.9c1.3-2.6,2.6-5.2,4-7.8l5.4,4.7
			c0.2,0.2,0.4,0.2,0.6,0.2c0.3,0,0.6-0.1,0.8-0.4c0.4-0.4,0.3-1.1-0.1-1.4l-5.8-4.9c1.6-2.8,3.3-5.6,5-8.2l6,4.2
			c0.2,0.1,0.4,0.2,0.6,0.2c0.3,0,0.6-0.2,0.8-0.4c0.3-0.5,0.2-1.1-0.3-1.4l-6-4.2c2.2-3.3,4.6-6.4,7-9.2l4.9,5
			c0.2,0.2,0.5,0.3,0.7,0.3c0.3,0,0.5-0.1,0.7-0.3c0.4-0.4,0.4-1,0-1.4l-5-5.1c2.1-2.3,4.3-4.3,6.5-6.1l3.3,4.1
			c0.2,0.2,0.5,0.4,0.8,0.4c0.2,0,0.4-0.1,0.6-0.2c0.4-0.3,0.5-1,0.2-1.4l-3.3-4.1c2.9-2.1,5.9-4.1,9.1-6l1.8,3
			c0.2,0.3,0.5,0.5,0.9,0.5c0.2,0,0.4,0,0.5-0.1c0.5-0.3,0.6-0.9,0.3-1.4l-1.8-3c2.1-1.3,4.3-2.5,6.5-3.6c0,0,0,0,0,0l1.8,2.5
			c0.2,0.3,0.5,0.4,0.8,0.4c0.2,0,0.4-0.1,0.6-0.2c0.4-0.3,0.5-1,0.2-1.4l-1.6-2.2c0,0,0,0,0,0c2.3-1.2,4.7-2.4,7.1-3.5l1.5,2.9
			c0.2,0.3,0.5,0.5,0.9,0.5c0.2,0,0.3,0,0.5-0.1c0.5-0.3,0.7-0.9,0.4-1.3l-1.5-2.8c2-0.9,4-1.8,5.9-2.7l0.9,1.7
			c0.2,0.3,0.5,0.5,0.9,0.5c0.2,0,0.3,0,0.5-0.1c0.5-0.3,0.7-0.9,0.4-1.4l-0.9-1.6c2.1-0.9,4.2-1.8,6.2-2.6l1.2,2.2
			c0.2,0.3,0.5,0.5,0.9,0.5c0.2,0,0.3,0,0.5-0.1c0.5-0.3,0.7-0.9,0.4-1.4l-1.1-2c8.9-3.6,16.8-6.4,22.4-8.3c2.9-1,5.2-1.8,6.5-2.4
			c1.3-0.5,3-1.3,5.2-2.4c12.2-5.7,37.6-17.7,68.9-17.9c0.3,0,0.6,0,0.9,0c32.4,0,76.1,13.7,82.7,17c2.4,1.2,6.1,4.1,10.3,7.3
			c1.1,0.9,2.3,1.8,3.5,2.7l-1.2,2.5c-0.2,0.5,0,1.1,0.5,1.3c0.1,0.1,0.3,0.1,0.4,0.1c0.4,0,0.7-0.2,0.9-0.6l1-2.1
			c1.5,1.1,3,2.3,4.6,3.4l-1.1,2.1c-0.2,0.5,0,1.1,0.5,1.3c0.1,0.1,0.3,0.1,0.4,0.1c0.4,0,0.7-0.2,0.9-0.6l0.9-1.8
			c1.6,1.1,3.3,2.3,5,3.3l-1.1,2.5c-0.2,0.5,0,1.1,0.5,1.3c0.1,0.1,0.3,0.1,0.4,0.1c0.4,0,0.7-0.2,0.9-0.6l1-2.2c2,1.2,4,2.3,6,3.3
			l-1.4,2c-0.3,0.5-0.2,1.1,0.3,1.4c0.2,0.1,0.4,0.2,0.6,0.2c0.3,0,0.6-0.2,0.8-0.4l1.5-2.3c0.7,0.3,1.3,0.6,2,0.9
			c1.2,0.5,2.4,1.2,3.7,2l-2,3.7c-0.3,0.5-0.1,1.1,0.4,1.4c0.2,0.1,0.3,0.1,0.5,0.1c0.4,0,0.7-0.2,0.9-0.5l2-3.5
			c2.6,1.8,5.5,4.3,8.5,7.2l-3.2,4.4c-0.3,0.4-0.2,1.1,0.2,1.4c0.2,0.1,0.4,0.2,0.6,0.2c0.3,0,0.6-0.1,0.8-0.4l3.1-4.2
			c2.1,2.1,4.2,4.3,6.4,6.8l-5.1,5.7c-0.4,0.4-0.3,1,0.1,1.4c0.2,0.2,0.4,0.3,0.7,0.3c0.3,0,0.5-0.1,0.7-0.3l4.9-5.5
			c2.5,2.8,4.9,5.8,7.4,9l-5.2,3.9c-0.4,0.3-0.5,1-0.2,1.4c0.2,0.3,0.5,0.4,0.8,0.4c0.2,0,0.4-0.1,0.6-0.2l5.2-4
			c1.8,2.3,3.5,4.7,5.3,7.1l-5.5,5.1c-0.4,0.4-0.4,1,0,1.4c0.2,0.2,0.5,0.3,0.7,0.3c0.2,0,0.5-0.1,0.7-0.3l5.3-5
			c1.9,2.6,3.7,5.3,5.5,8.1l-4.3,3c-0.4,0.3-0.6,0.9-0.2,1.4c0.2,0.3,0.5,0.4,0.8,0.4c0.2,0,0.4-0.1,0.6-0.2l4.2-3
			c1.5,2.3,2.9,4.7,4.4,7l-4.1,2.6c-0.5,0.3-0.6,0.9-0.3,1.4c0.2,0.3,0.5,0.5,0.8,0.5c0.2,0,0.4,0,0.5-0.2l4.1-2.6
			c1.5,2.5,2.9,5.1,4.2,7.6l-4.7,2.4c-0.5,0.2-0.7,0.8-0.4,1.3c0.2,0.3,0.5,0.5,0.9,0.5c0.2,0,0.3,0,0.4-0.1l4.8-2.4
			c1.3,2.5,2.5,4.9,3.6,7.3l-5.6,3.6c-0.5,0.3-0.6,0.9-0.3,1.4c0.2,0.3,0.5,0.5,0.8,0.5c0.2,0,0.4-0.1,0.5-0.2l5.4-3.4
			c1.1,2.5,2.1,5.4,3,8.8l-6.3,4.2c-0.5,0.3-0.6,0.9-0.3,1.4c0.2,0.3,0.5,0.4,0.8,0.4c0.2,0,0.4-0.1,0.6-0.2l5.7-3.9
			c0.8,3.1,1.5,6.4,2.1,10l-8.3,4.4c-0.5,0.3-0.7,0.9-0.4,1.4c0.2,0.3,0.5,0.5,0.9,0.5c0.2,0,0.3,0,0.5-0.1l7.7-4.1
			c0.6,3.7,1.2,7.6,1.6,11.6l-8.6,3.9c-0.5,0.2-0.7,0.8-0.5,1.3c0.2,0.4,0.5,0.6,0.9,0.6c0.1,0,0.3,0,0.4-0.1l8-3.6
			c0.4,3.4,0.7,6.9,1.1,10.5l-8.7,3.8c-0.5,0.2-0.7,0.8-0.5,1.3c0.2,0.4,0.5,0.6,0.9,0.6c0.1,0,0.3,0,0.4-0.1l8.1-3.5
			c0.3,3,0.5,6.1,0.7,9.2l-8.7,3.7c-0.5,0.2-0.7,0.8-0.5,1.3c0.2,0.4,0.5,0.6,0.9,0.6c0.1,0,0.3,0,0.4-0.1l8.1-3.4
			c0.2,3.5,0.4,7,0.6,10.5l-9.4,4.7c-0.5,0.2-0.7,0.8-0.4,1.3c0.2,0.3,0.5,0.6,0.9,0.6c0.2,0,0.3,0,0.4-0.1l8.6-4.3
			c0.1,3.2,0.3,6.4,0.4,9.5l-9.1,4.9c-0.5,0.3-0.7,0.9-0.4,1.4c0.2,0.3,0.5,0.5,0.9,0.5c0.2,0,0.3,0,0.5-0.1l8.2-4.4
			c0.1,3.5,0.2,6.9,0.3,10.3l-9.2,4.2c-0.5,0.2-0.7,0.8-0.5,1.3c0.2,0.4,0.5,0.6,0.9,0.6c0.1,0,0.3,0,0.4-0.1l8.4-3.8
			c0.1,3.7,0.1,7.4,0.2,10.9c-1.4,0.6-6.8,3.1-9.1,3.9c-0.5,0.2-0.8,0.8-0.6,1.3c0.2,0.4,0.5,0.6,0.9,0.6c0.1,0,0.2,0,0.4-0.1
			c2-0.8,6.3-2.7,8.4-3.6c0,3.8,0.1,7.4,0.1,10.9l-9.4,3.8c-0.5,0.2-0.8,0.8-0.5,1.3c0.2,0.4,0.5,0.6,0.9,0.6c0.1,0,0.3,0,0.4-0.1
			l8.6-3.5c0,4,0,7.8,0,11.1l-9.2,3.5c-0.5,0.2-0.8,0.8-0.6,1.3c0.2,0.4,0.5,0.6,0.9,0.6c0.1,0,0.2,0,0.4-0.1l8.5-3.2
			c0,5.1,0,9.1,0.1,11.6l-9.2,2.9c-0.5,0.2-0.8,0.7-0.6,1.3c0.1,0.4,0.5,0.7,1,0.7c0.1,0,0.2,0,0.3,0l8.7-2.8c0.1,3,0,6.5-0.1,10.2
			l-9.9,3.5c-0.5,0.2-0.8,0.8-0.6,1.3c0.1,0.4,0.5,0.7,0.9,0.7c0.1,0,0.2,0,0.3-0.1l9.2-3.2c-0.2,2.9-0.4,5.8-0.6,8.7l-9.1,2.4
			c-0.5,0.1-0.9,0.7-0.7,1.2c0.1,0.4,0.5,0.7,1,0.7c0.1,0,0.2,0,0.3,0l8.4-2.2c-0.3,3.6-0.7,7.1-1.1,10.3c-3,0.4-7.8,1.2-8.7,1.7
			c-0.5,0.2-0.7,0.8-0.4,1.3c0.2,0.4,0.5,0.6,0.9,0.6c0.1,0,0.3,0,0.4-0.1c0.5-0.2,4-0.8,7.5-1.4c-0.6,4.6-1.2,8.5-1.7,11.2
			l-6.7,0.9c-0.5,0.1-0.9,0.6-0.9,1.1c0.1,0.5,0.5,0.9,1,0.9c0,0,0.1,0,0.1,0l5.9-0.8C386.8,551.6,380.3,558.4,371.7,560.2z"/>
		<path class="st1" d="M352.7,127.9c0.1,0.2,0.3,0.2,0.4,0.2c0.1,0,0.2,0,0.3-0.1c0.2-0.1,0.3-0.5,0.2-0.7c-0.7-1.1-1.4-2.3-2.1-3.4
			c-0.2-0.2-0.5-0.3-0.7-0.2c-0.2,0.1-0.3,0.5-0.2,0.7C351.3,125.6,352,126.8,352.7,127.9z"/>
		<path class="st1" d="M358.8,138.2c0.1,0.2,0.3,0.3,0.4,0.3c0.1,0,0.2,0,0.2-0.1c0.2-0.1,0.3-0.4,0.2-0.7c-0.6-1.2-1.3-2.3-2-3.5
			c-0.1-0.2-0.4-0.3-0.7-0.2c-0.2,0.1-0.3,0.4-0.2,0.7C357.5,135.9,358.1,137.1,358.8,138.2z"/>
		<path class="st1" d="M371.2,167.5c0.4,1.3,0.8,2.6,1.1,3.8c0.1,0.2,0.3,0.4,0.5,0.4c0,0,0.1,0,0.1,0c0.3-0.1,0.4-0.3,0.4-0.6
			c-0.3-1.3-0.7-2.6-1.1-3.9c-0.1-0.3-0.4-0.4-0.6-0.3C371.3,167,371.2,167.3,371.2,167.5z"/>
		<path class="st1" d="M355.8,133c0.1,0.2,0.3,0.2,0.4,0.2c0.1,0,0.2,0,0.3-0.1c0.2-0.1,0.3-0.4,0.2-0.7c-0.7-1.1-1.4-2.3-2.1-3.4
			c-0.1-0.2-0.4-0.3-0.7-0.2c-0.2,0.1-0.3,0.5-0.2,0.7C354.5,130.7,355.1,131.9,355.8,133z"/>
		<path class="st1" d="M346.2,117.8c0.1,0.1,0.3,0.2,0.4,0.2c0.1,0,0.2,0,0.3-0.1c0.2-0.2,0.3-0.5,0.1-0.7c-0.7-1.1-1.5-2.2-2.3-3.3
			c-0.2-0.2-0.5-0.3-0.7-0.1c-0.2,0.2-0.3,0.5-0.1,0.7C344.7,115.6,345.4,116.7,346.2,117.8z"/>
		<path class="st1" d="M342.8,112.9c0.1,0.1,0.3,0.2,0.4,0.2c0.1,0,0.2,0,0.3-0.1c0.2-0.2,0.3-0.5,0.1-0.7c-0.8-1.1-1.5-2.2-2.3-3.3
			c-0.2-0.2-0.5-0.3-0.7-0.1c-0.2,0.2-0.3,0.5-0.1,0.7C341.2,110.7,342,111.8,342.8,112.9z"/>
		<path class="st1" d="M367.2,156.3c0.5,1.3,1,2.5,1.5,3.7c0.1,0.2,0.3,0.3,0.5,0.3c0.1,0,0.1,0,0.2,0c0.3-0.1,0.4-0.4,0.3-0.6
			c-0.5-1.2-0.9-2.4-1.5-3.7c-0.1-0.3-0.4-0.4-0.7-0.3C367.2,155.7,367.1,156,367.2,156.3z"/>
		<path class="st1" d="M369.3,161.9c0.5,1.3,0.9,2.6,1.3,3.8c0.1,0.2,0.3,0.3,0.5,0.3c0.1,0,0.1,0,0.2,0c0.3-0.1,0.4-0.4,0.3-0.6
			c-0.4-1.2-0.8-2.5-1.3-3.8c-0.1-0.3-0.4-0.4-0.6-0.3C369.4,161.3,369.2,161.6,369.3,161.9z"/>
		<path class="st1" d="M339.3,108c0.1,0.1,0.3,0.2,0.4,0.2c0.1,0,0.2,0,0.3-0.1c0.2-0.2,0.3-0.5,0.1-0.7c-0.8-1.1-1.6-2.2-2.4-3.2
			c-0.2-0.2-0.5-0.3-0.7-0.1c-0.2,0.2-0.3,0.5-0.1,0.7C337.7,105.9,338.5,106.9,339.3,108z"/>
		<path class="st1" d="M364.9,150.8c0.6,1.3,1.1,2.5,1.6,3.7c0.1,0.2,0.3,0.3,0.5,0.3c0.1,0,0.1,0,0.2,0c0.3-0.1,0.4-0.4,0.3-0.7
			c-0.5-1.2-1-2.4-1.6-3.7c-0.1-0.3-0.4-0.4-0.7-0.3C364.9,150.2,364.7,150.5,364.9,150.8z"/>
		<path class="st1" d="M362.4,145.3c0.2,0.5,0.5,1,0.7,1.5c0.3,0.7,0.7,1.4,1,2.1c0.1,0.2,0.3,0.3,0.5,0.3c0.1,0,0.1,0,0.2,0
			c0.3-0.1,0.4-0.4,0.3-0.7c-0.3-0.7-0.6-1.4-1-2.1c-0.2-0.5-0.5-1-0.7-1.5c-0.1-0.3-0.4-0.4-0.7-0.2
			C362.4,144.8,362.3,145.1,362.4,145.3z"/>
		<path class="st1" d="M359.7,140c0.6,1.2,1.2,2.4,1.8,3.6c0.1,0.2,0.3,0.3,0.4,0.3c0.1,0,0.2,0,0.2-0.1c0.2-0.1,0.3-0.4,0.2-0.7
			c-0.6-1.2-1.2-2.4-1.8-3.6c-0.1-0.2-0.4-0.3-0.7-0.2C359.7,139.4,359.6,139.7,359.7,140z"/>
		<path class="st1" d="M349.5,122.8c0.1,0.1,0.3,0.2,0.4,0.2c0.1,0,0.2,0,0.3-0.1c0.2-0.2,0.3-0.5,0.1-0.7c-0.7-1.1-1.5-2.2-2.2-3.3
			c-0.2-0.2-0.5-0.3-0.7-0.1c-0.2,0.2-0.3,0.5-0.1,0.7C348,120.6,348.8,121.7,349.5,122.8z"/>
		<path class="st1" d="M305.7,65.8c0.1,0.1,0.2,0.2,0.4,0.2c0.1,0,0.2,0,0.3-0.1c0.2-0.2,0.2-0.5,0.1-0.7c-0.9-1-1.8-2-2.6-3
			c-0.2-0.2-0.5-0.2-0.7,0c-0.2,0.2-0.2,0.5,0,0.7C303.9,63.8,304.8,64.8,305.7,65.8z"/>
		<path class="st1" d="M309.6,70.3c0.1,0.1,0.2,0.2,0.4,0.2c0.1,0,0.2,0,0.3-0.1c0.2-0.2,0.2-0.5,0.1-0.7c-0.9-1-1.7-2-2.6-3
			c-0.2-0.2-0.5-0.2-0.7-0.1c-0.2,0.2-0.2,0.5-0.1,0.7C307.8,68.3,308.7,69.3,309.6,70.3z"/>
		<path class="st1" d="M313.5,74.9c0.1,0.1,0.2,0.2,0.4,0.2c0.1,0,0.2,0,0.3-0.1c0.2-0.2,0.2-0.5,0.1-0.7c-0.9-1-1.7-2.1-2.6-3.1
			c-0.2-0.2-0.5-0.2-0.7-0.1s-0.2,0.5-0.1,0.7C311.7,72.9,312.6,73.9,313.5,74.9z"/>
		<path class="st1" d="M301.7,61.3c0.1,0.1,0.2,0.2,0.4,0.2c0.1,0,0.2,0,0.3-0.1c0.2-0.2,0.2-0.5,0-0.7c-0.9-1-1.8-2-2.7-3
			c-0.2-0.2-0.5-0.2-0.7,0c-0.2,0.2-0.2,0.5,0,0.7C299.9,59.3,300.8,60.3,301.7,61.3z"/>
		<path class="st1" d="M296.6,55.5l1.2,1.3c0.1,0.1,0.2,0.2,0.4,0.2c0.1,0,0.2,0,0.3-0.1c0.2-0.2,0.2-0.5,0-0.7l-1.2-1.3
			c-0.5-0.6-1-1.1-1.5-1.7c-0.2-0.2-0.5-0.2-0.7,0c-0.2,0.2-0.2,0.5,0,0.7C295.6,54.4,296.1,54.9,296.6,55.5z"/>
		<path class="st1" d="M328.5,93.6c0.1,0.1,0.2,0.2,0.4,0.2c0.1,0,0.2,0,0.3-0.1c0.2-0.2,0.3-0.5,0.1-0.7c-0.8-1.1-1.6-2.1-2.5-3.2
			c-0.2-0.2-0.5-0.3-0.7-0.1c-0.2,0.2-0.3,0.5-0.1,0.7C326.9,91.5,327.7,92.6,328.5,93.6z"/>
		<path class="st1" d="M293.7,52.4c0.1,0.1,0.2,0.2,0.4,0.2c0.1,0,0.2,0,0.3-0.1c0.2-0.2,0.2-0.5,0-0.7c-0.9-1-1.8-1.9-2.8-2.9
			c-0.2-0.2-0.5-0.2-0.7,0c-0.2,0.2-0.2,0.5,0,0.7C291.9,50.5,292.8,51.4,293.7,52.4z"/>
		<path class="st1" d="M317.3,79.5c0.1,0.1,0.2,0.2,0.4,0.2c0.1,0,0.2,0,0.3-0.1c0.2-0.2,0.2-0.5,0.1-0.7c-0.9-1-1.7-2.1-2.6-3.1
			c-0.2-0.2-0.5-0.2-0.7-0.1c-0.2,0.2-0.2,0.5-0.1,0.7C315.6,77.5,316.4,78.5,317.3,79.5z"/>
		<path class="st1" d="M332.2,98.4c0.1,0.1,0.2,0.2,0.4,0.2c0.1,0,0.2,0,0.3-0.1c0.2-0.2,0.3-0.5,0.1-0.7c-0.8-1.1-1.6-2.1-2.4-3.2
			c-0.2-0.2-0.5-0.3-0.7-0.1c-0.2,0.2-0.3,0.5-0.1,0.7C330.5,96.3,331.4,97.3,332.2,98.4z"/>
		<path class="st1" d="M324.8,88.9c0.1,0.1,0.2,0.2,0.4,0.2c0.1,0,0.2,0,0.3-0.1c0.2-0.2,0.3-0.5,0.1-0.7c-0.8-1.1-1.7-2.1-2.5-3.1
			c-0.2-0.2-0.5-0.2-0.7-0.1c-0.2,0.2-0.3,0.5-0.1,0.7C323.2,86.8,324,87.8,324.8,88.9z"/>
		<path class="st1" d="M321.1,84.2c0.1,0.1,0.2,0.2,0.4,0.2c0.1,0,0.2,0,0.3-0.1c0.2-0.2,0.2-0.5,0.1-0.7c-0.8-1-1.7-2.1-2.5-3.1
			c-0.2-0.2-0.5-0.2-0.7-0.1c-0.2,0.2-0.2,0.5-0.1,0.7C319.4,82.1,320.2,83.2,321.1,84.2z"/>
		<path class="st1" d="M335.8,103.2c0.1,0.1,0.2,0.2,0.4,0.2c0.1,0,0.2,0,0.3-0.1c0.2-0.2,0.3-0.5,0.1-0.7c-0.8-1.1-1.6-2.1-2.4-3.2
			c-0.2-0.2-0.5-0.3-0.7-0.1c-0.2,0.2-0.3,0.5-0.1,0.7C334.2,101,335,102.1,335.8,103.2z"/>
		<path class="st1" d="M44.1,193.8c0,0,0.1,0,0.1,0c0.2,0,0.4-0.2,0.5-0.4c0.3-1.2,0.6-2.5,0.9-3.9c0.1-0.3-0.1-0.5-0.4-0.6
			c-0.3-0.1-0.5,0.1-0.6,0.4c-0.3,1.4-0.7,2.7-0.9,3.9C43.7,193.5,43.9,193.7,44.1,193.8z"/>
		<path class="st1" d="M43.1,199.7C43.1,199.7,43.1,199.7,43.1,199.7c0.3,0,0.5-0.2,0.6-0.4c0.2-1.2,0.4-2.5,0.7-3.9
			c0.1-0.3-0.1-0.5-0.4-0.6c-0.3-0.1-0.5,0.1-0.6,0.4c-0.3,1.4-0.5,2.8-0.7,4C42.6,199.4,42.8,199.7,43.1,199.7z"/>
		<path class="st1" d="M362.7,242.7c-0.3-0.1-0.5,0-0.7,0.3c-0.6,1.3-1.1,2.6-1.6,3.7c-0.1,0.3,0,0.5,0.2,0.7c0.1,0,0.1,0,0.2,0
			c0.2,0,0.4-0.1,0.5-0.3c0.5-1.1,1.1-2.3,1.6-3.7C363.1,243.1,363,242.8,362.7,242.7z"/>
		<path class="st1" d="M42.4,205.7C42.4,205.7,42.4,205.7,42.4,205.7c0.3,0,0.5-0.2,0.6-0.4l0.5-4c0-0.3-0.2-0.5-0.4-0.6
			c-0.3,0-0.5,0.2-0.6,0.4l-0.5,4C41.9,205.4,42.1,205.6,42.4,205.7z"/>
		<path class="st1" d="M45.5,187.9c0,0,0.1,0,0.1,0c0.2,0,0.4-0.1,0.5-0.4c0.3-1.2,0.7-2.5,1.1-3.9c0.1-0.3-0.1-0.5-0.3-0.6
			c-0.3-0.1-0.5,0.1-0.6,0.3c-0.4,1.3-0.7,2.6-1.1,3.9C45.1,187.6,45.3,187.9,45.5,187.9z"/>
		<path class="st1" d="M47.2,182.2c0,0,0.1,0,0.1,0c0.2,0,0.4-0.1,0.5-0.4c0.4-1.3,0.8-2.5,1.2-3.8c0.1-0.3-0.1-0.5-0.3-0.6
			c-0.3-0.1-0.5,0.1-0.6,0.3c-0.4,1.3-0.8,2.6-1.2,3.8C46.7,181.8,46.9,182.1,47.2,182.2z"/>
		<path class="st1" d="M372.8,173.3c0.3,1.3,0.6,2.6,0.8,3.9c0,0.2,0.3,0.4,0.5,0.4c0,0,0.1,0,0.1,0c0.3,0,0.5-0.3,0.4-0.6
			c-0.2-1.3-0.5-2.6-0.8-3.9c-0.1-0.3-0.3-0.4-0.6-0.4C372.9,172.7,372.7,173,372.8,173.3z"/>
		<path class="st1" d="M41.7,211.6C41.7,211.6,41.8,211.6,41.7,211.6c0.3,0,0.5-0.2,0.6-0.4l0.4-4c0-0.3-0.2-0.5-0.4-0.6
			c-0.3,0-0.5,0.2-0.6,0.4l-0.4,4C41.3,211.3,41.5,211.6,41.7,211.6z"/>
		<path class="st1" d="M39.4,235.5C39.4,235.5,39.4,235.5,39.4,235.5c0.3,0,0.5-0.2,0.5-0.5c0.1-1.3,0.2-2.6,0.3-4
			c0-0.3-0.2-0.5-0.5-0.5c-0.3,0-0.5,0.2-0.5,0.5c-0.1,1.4-0.2,2.7-0.3,4C38.9,235.3,39.1,235.5,39.4,235.5z"/>
		<path class="st1" d="M41.1,217.6C41.1,217.6,41.1,217.6,41.1,217.6c0.3,0,0.5-0.2,0.5-0.4c0.1-1.3,0.3-2.6,0.4-4
			c0-0.3-0.2-0.5-0.4-0.6c-0.3,0-0.5,0.2-0.6,0.4c-0.1,1.3-0.3,2.7-0.4,4C40.6,217.3,40.8,217.6,41.1,217.6z"/>
		<path class="st1" d="M40.5,223.6C40.5,223.6,40.5,223.6,40.5,223.6c0.3,0,0.5-0.2,0.5-0.4c0.1-1.3,0.3-2.6,0.4-4
			c0-0.3-0.2-0.5-0.4-0.5c-0.3,0-0.5,0.2-0.5,0.4c-0.1,1.3-0.3,2.7-0.4,4C40,223.3,40.2,223.5,40.5,223.6z"/>
		<path class="st1" d="M39.9,229.5C39.9,229.5,39.9,229.5,39.9,229.5c0.3,0,0.5-0.2,0.5-0.5c0.1-1.3,0.2-2.6,0.4-4
			c0-0.3-0.2-0.5-0.4-0.5c-0.3,0-0.5,0.2-0.5,0.4c-0.1,1.3-0.3,2.7-0.4,4C39.4,229.3,39.6,229.5,39.9,229.5z"/>
		<path class="st1" d="M375,196.5c-0.3,0-0.5,0.2-0.5,0.5l-0.1,3.3c0,0.2,0,0.4,0,0.7c0,0.3,0.2,0.5,0.5,0.5c0,0,0,0,0,0
			c0.3,0,0.5-0.2,0.5-0.5c0-0.2,0-0.5,0-0.7l0.1-3.3C375.5,196.7,375.3,196.5,375,196.5z"/>
		<path class="st1" d="M375.1,190.5c-0.3,0-0.5,0.2-0.5,0.5c0,1.3-0.1,2.6-0.1,4c0,0.3,0.2,0.5,0.5,0.5c0,0,0,0,0,0
			c0.3,0,0.5-0.2,0.5-0.5c0-1.4,0.1-2.7,0.1-4C375.6,190.7,375.4,190.5,375.1,190.5z"/>
		<path class="st1" d="M373.9,179.1c0.2,1.3,0.3,2.6,0.5,3.9c0,0.3,0.2,0.5,0.5,0.5c0,0,0,0,0,0c0.3,0,0.5-0.3,0.5-0.5
			c-0.1-1.3-0.3-2.7-0.5-4c0-0.3-0.3-0.5-0.6-0.4C374.1,178.6,373.9,178.8,373.9,179.1z"/>
		<path class="st1" d="M375,184.5c-0.3,0-0.5,0.3-0.5,0.5c0.1,1.3,0.1,2.6,0.1,4c0,0.3,0.2,0.5,0.5,0.5c0,0,0,0,0,0
			c0.3,0,0.5-0.2,0.5-0.5c0-1.4,0-2.7-0.1-4C375.5,184.7,375.3,184.5,375,184.5z"/>
		<path class="st1" d="M365,237.1c-0.3-0.1-0.5,0-0.6,0.3c-0.5,1.3-1,2.5-1.5,3.7c-0.1,0.3,0,0.5,0.3,0.7c0.1,0,0.1,0,0.2,0
			c0.2,0,0.4-0.1,0.5-0.3c0.5-1.2,1-2.4,1.5-3.7C365.4,237.5,365.3,237.2,365,237.1z"/>
		<path class="st1" d="M374.7,202.5c-0.3,0-0.5,0.2-0.5,0.4c-0.1,1.2-0.3,2.5-0.6,3.9c0,0.3,0.1,0.5,0.4,0.6c0,0,0.1,0,0.1,0
			c0.2,0,0.4-0.2,0.5-0.4c0.2-1.4,0.4-2.8,0.6-4C375.1,202.8,374.9,202.5,374.7,202.5z"/>
		<path class="st1" d="M367.1,231.5c-0.3-0.1-0.5,0-0.6,0.3c-0.5,1.3-0.9,2.5-1.4,3.7c-0.1,0.3,0,0.5,0.3,0.6c0.1,0,0.1,0,0.2,0
			c0.2,0,0.4-0.1,0.5-0.3c0.5-1.2,0.9-2.5,1.4-3.8C367.5,231.9,367.4,231.6,367.1,231.5z"/>
		<path class="st1" d="M48.9,176.4c0.1,0,0.1,0,0.2,0c0.2,0,0.4-0.1,0.5-0.3c0.4-1.3,0.8-2.5,1.2-3.8c0.1-0.3-0.1-0.5-0.3-0.6
			c-0.3-0.1-0.5,0.1-0.6,0.3c-0.4,1.3-0.8,2.6-1.2,3.8C48.5,176,48.6,176.3,48.9,176.4z"/>
		<path class="st1" d="M373.8,208.4c-0.3-0.1-0.5,0.1-0.6,0.4c-0.2,1.2-0.5,2.5-0.9,3.9c-0.1,0.3,0.1,0.5,0.4,0.6c0,0,0.1,0,0.1,0
			c0.2,0,0.4-0.2,0.5-0.4c0.3-1.4,0.6-2.7,0.9-3.9C374.2,208.8,374,208.5,373.8,208.4z"/>
		<path class="st1" d="M370.9,220.1c-0.3-0.1-0.5,0.1-0.6,0.3c-0.4,1.3-0.8,2.5-1.2,3.8c-0.1,0.3,0.1,0.5,0.3,0.6c0.1,0,0.1,0,0.2,0
			c0.2,0,0.4-0.1,0.5-0.3c0.4-1.3,0.8-2.6,1.2-3.8C371.3,220.4,371.1,220.2,370.9,220.1z"/>
		<path class="st1" d="M372.5,214.3c-0.3-0.1-0.5,0.1-0.6,0.4c-0.3,1.3-0.7,2.6-1,3.9c-0.1,0.3,0.1,0.5,0.3,0.6c0,0,0.1,0,0.1,0
			c0.2,0,0.4-0.1,0.5-0.4c0.4-1.3,0.7-2.6,1.1-3.9C372.9,214.6,372.7,214.4,372.5,214.3z"/>
		<path class="st1" d="M369.1,225.8c-0.3-0.1-0.5,0.1-0.6,0.3c-0.4,1.3-0.9,2.5-1.3,3.8c-0.1,0.3,0,0.5,0.3,0.6c0.1,0,0.1,0,0.2,0
			c0.2,0,0.4-0.1,0.5-0.3c0.4-1.2,0.9-2.5,1.3-3.8C369.5,226.2,369.3,225.9,369.1,225.8z"/>
		<path class="st1" d="M100,82.1c0.1,0,0.3-0.1,0.4-0.2c0.8-1,1.7-2.1,2.5-3.1c0.2-0.2,0.1-0.5-0.1-0.7c-0.2-0.2-0.5-0.1-0.7,0.1
			c-0.8,1-1.7,2.1-2.5,3.1c-0.2,0.2-0.1,0.5,0.1,0.7C99.8,82,99.9,82.1,100,82.1z"/>
		<path class="st1" d="M103.7,77.4c0.1,0,0.3-0.1,0.4-0.2c0.8-1,1.7-2.1,2.5-3.1c0.2-0.2,0.1-0.5-0.1-0.7c-0.2-0.2-0.5-0.1-0.7,0.1
			c-0.9,1-1.7,2.1-2.5,3.1c-0.2,0.2-0.1,0.5,0.1,0.7C103.5,77.3,103.6,77.4,103.7,77.4z"/>
		<path class="st1" d="M137.7,43.7c0.1,0,0.2,0,0.3-0.1c1.1-0.6,2.2-1.3,3.5-2c0.2-0.1,0.3-0.4,0.2-0.7s-0.4-0.3-0.7-0.2
			c-1.2,0.7-2.4,1.4-3.5,2c-0.2,0.1-0.3,0.4-0.2,0.7C137.4,43.7,137.6,43.7,137.7,43.7z"/>
		<path class="st1" d="M88.9,96.3c0.2,0,0.3-0.1,0.4-0.2c0.8-1,1.6-2.1,2.4-3.2c0.2-0.2,0.1-0.5-0.1-0.7c-0.2-0.2-0.5-0.1-0.7,0.1
			c-0.8,1.1-1.6,2.1-2.4,3.2c-0.2,0.2-0.1,0.5,0.1,0.7C88.7,96.3,88.8,96.3,88.9,96.3z"/>
		<path class="st1" d="M92.6,91.5c0.1,0,0.3-0.1,0.4-0.2c0.8-1,1.6-2.1,2.4-3.2c0.2-0.2,0.1-0.5-0.1-0.7c-0.2-0.2-0.5-0.1-0.7,0.1
			c-0.8,1.1-1.6,2.1-2.5,3.2c-0.2,0.2-0.1,0.5,0.1,0.7C92.4,91.5,92.5,91.5,92.6,91.5z"/>
		<path class="st1" d="M85.3,101.1c0.2,0,0.3-0.1,0.4-0.2c0.8-1,1.6-2.1,2.4-3.2c0.2-0.2,0.1-0.5-0.1-0.7c-0.2-0.2-0.5-0.1-0.7,0.1
			c-0.8,1.1-1.6,2.2-2.4,3.2c-0.2,0.2-0.1,0.5,0.1,0.7C85.1,101.1,85.2,101.1,85.3,101.1z"/>
		<path class="st1" d="M107.6,72.7c0.1,0,0.3-0.1,0.4-0.2c0.9-1,1.7-2,2.6-3.1c0.2-0.2,0.2-0.5-0.1-0.7c-0.2-0.2-0.5-0.2-0.7,0.1
			c-0.9,1-1.7,2-2.6,3.1c-0.2,0.2-0.1,0.5,0.1,0.7C107.3,72.7,107.4,72.7,107.6,72.7z"/>
		<path class="st1" d="M128.1,50.8c0.1,0,0.2,0,0.3-0.1c1.1-0.9,2.1-1.8,3-2.6c0.2-0.2,0.3-0.5,0.1-0.7c-0.2-0.2-0.5-0.3-0.7-0.1
			c-1,0.8-2,1.6-3.1,2.6c-0.2,0.2-0.2,0.5,0,0.7C127.8,50.7,127.9,50.8,128.1,50.8z"/>
		<path class="st1" d="M132.7,47c0.1,0,0.2,0,0.3-0.1c0.4-0.3,0.7-0.5,1.1-0.7c0.7-0.5,1.4-1,2.2-1.5c0.2-0.1,0.3-0.5,0.2-0.7
			c-0.1-0.2-0.5-0.3-0.7-0.2c-0.8,0.5-1.6,1-2.3,1.5c-0.4,0.2-0.7,0.5-1.1,0.8c-0.2,0.2-0.3,0.5-0.1,0.7
			C132.4,46.9,132.6,47,132.7,47z"/>
		<path class="st1" d="M123.7,54.9c0.1,0,0.3,0,0.4-0.1c1-1,1.9-1.9,2.9-2.8c0.2-0.2,0.2-0.5,0-0.7c-0.2-0.2-0.5-0.2-0.7,0
			c-0.9,0.9-1.9,1.8-2.9,2.8c-0.2,0.2-0.2,0.5,0,0.7C123.4,54.9,123.5,54.9,123.7,54.9z"/>
		<path class="st1" d="M115.4,63.6c0.1,0,0.3-0.1,0.4-0.2c0.9-1,1.8-2,2.7-3c0.2-0.2,0.2-0.5,0-0.7c-0.2-0.2-0.5-0.2-0.7,0
			c-0.9,1-1.8,2-2.7,3c-0.2,0.2-0.2,0.5,0,0.7C115.2,63.6,115.3,63.6,115.4,63.6z"/>
		<path class="st1" d="M111.4,68.1c0.1,0,0.3-0.1,0.4-0.2c0.9-1,1.8-2,2.6-3c0.2-0.2,0.2-0.5,0-0.7s-0.5-0.2-0.7,0
			c-0.9,1-1.8,2-2.6,3c-0.2,0.2-0.2,0.5,0.1,0.7C111.2,68.1,111.3,68.1,111.4,68.1z"/>
		<path class="st1" d="M119.5,59.2c0.1,0,0.3-0.1,0.4-0.2c0.9-1,1.9-1.9,2.8-2.9c0.2-0.2,0.2-0.5,0-0.7c-0.2-0.2-0.5-0.2-0.7,0
			c-0.9,0.9-1.8,1.9-2.8,2.9c-0.2,0.2-0.2,0.5,0,0.7C119.2,59.2,119.3,59.2,119.5,59.2z"/>
		<path class="st1" d="M96.3,86.8c0.1,0,0.3-0.1,0.4-0.2c0.8-1,1.6-2.1,2.5-3.1c0.2-0.2,0.1-0.5-0.1-0.7c-0.2-0.2-0.5-0.1-0.7,0.1
			c-0.8,1.1-1.7,2.1-2.5,3.2c-0.2,0.2-0.1,0.5,0.1,0.7C96,86.7,96.2,86.8,96.3,86.8z"/>
		<path class="st1" d="M54.8,159.4c0.1,0,0.1,0,0.2,0c0.2,0,0.4-0.1,0.5-0.3c0.5-1.3,0.9-2.5,1.4-3.8c0.1-0.3,0-0.5-0.3-0.6
			c-0.3-0.1-0.5,0-0.6,0.3c-0.5,1.3-0.9,2.5-1.4,3.8C54.4,159,54.5,159.3,54.8,159.4z"/>
		<path class="st1" d="M61.3,142.6c0.1,0,0.1,0,0.2,0c0.2,0,0.4-0.1,0.5-0.3c0.5-1.2,1-2.5,1.6-3.7c0.1-0.3,0-0.5-0.3-0.7
			c-0.3-0.1-0.5,0-0.7,0.3c-0.5,1.2-1,2.4-1.6,3.7C60.9,142.2,61.1,142.5,61.3,142.6z"/>
		<path class="st1" d="M59.1,148.1c0.1,0,0.1,0,0.2,0c0.2,0,0.4-0.1,0.5-0.3c0.5-1.2,1-2.5,1.5-3.7c0.1-0.3,0-0.5-0.3-0.7
			c-0.3-0.1-0.5,0-0.7,0.3c-0.5,1.2-1,2.5-1.5,3.7C58.7,147.7,58.8,148,59.1,148.1z"/>
		<path class="st1" d="M56.9,153.7c0.1,0,0.1,0,0.2,0c0.2,0,0.4-0.1,0.5-0.3c0.5-1.2,1-2.5,1.4-3.7c0.1-0.3,0-0.5-0.3-0.6
			c-0.3-0.1-0.5,0-0.6,0.3c-0.5,1.2-1,2.5-1.5,3.7C56.5,153.3,56.6,153.6,56.9,153.7z"/>
		<path class="st1" d="M50.8,170.7c0.1,0,0.1,0,0.2,0c0.2,0,0.4-0.1,0.5-0.3c0.4-1.3,0.9-2.5,1.3-3.8c0.1-0.3,0-0.5-0.3-0.6
			c-0.3-0.1-0.5,0-0.6,0.3c-0.4,1.3-0.9,2.5-1.3,3.8C50.4,170.3,50.5,170.6,50.8,170.7z"/>
		<path class="st1" d="M81.7,105.9c0.2,0,0.3-0.1,0.4-0.2l2.4-3.2c0.2-0.2,0.1-0.5-0.1-0.7c-0.2-0.2-0.5-0.1-0.7,0.1l-2.4,3.2
			c-0.2,0.2-0.1,0.5,0.1,0.7C81.5,105.9,81.6,105.9,81.7,105.9z"/>
		<path class="st1" d="M52.7,165c0.1,0,0.1,0,0.2,0c0.2,0,0.4-0.1,0.5-0.3c0.4-1.3,0.9-2.5,1.3-3.8c0.1-0.3,0-0.5-0.3-0.6
			c-0.3-0.1-0.5,0-0.6,0.3c-0.5,1.3-0.9,2.5-1.4,3.8C52.3,164.6,52.5,164.9,52.7,165z"/>
		<path class="st1" d="M71.4,120.8c0.1,0,0.2,0.1,0.2,0.1c0.2,0,0.4-0.1,0.4-0.3c0.7-1.2,1.3-2.4,2-3.5c0.1-0.2,0.1-0.5-0.2-0.7
			s-0.5-0.1-0.7,0.2c-0.6,1.1-1.3,2.3-2,3.5C71.1,120.3,71.1,120.6,71.4,120.8z"/>
		<path class="st1" d="M74.4,115.5c0.1,0.1,0.2,0.1,0.3,0.1c0.2,0,0.3-0.1,0.4-0.2c0.6-1,1.2-1.9,1.8-2.6l0.5-0.7
			c0.2-0.2,0.1-0.5-0.1-0.7c-0.2-0.2-0.5-0.1-0.7,0.1l-0.5,0.7c-0.6,0.8-1.2,1.6-1.8,2.6C74.1,115.1,74.1,115.4,74.4,115.5z"/>
		<path class="st1" d="M78.1,110.7c0.2,0,0.3-0.1,0.4-0.2l2.4-3.2c0.2-0.2,0.1-0.5-0.1-0.7c-0.2-0.2-0.5-0.1-0.7,0.1l-2.4,3.2
			c-0.2,0.2-0.1,0.5,0.1,0.7C77.9,110.7,78,110.7,78.1,110.7z"/>
		<path class="st1" d="M66.1,131.6c0.1,0,0.1,0,0.2,0c0.2,0,0.4-0.1,0.5-0.3c0.6-1.2,1.1-2.5,1.7-3.6c0.1-0.2,0-0.5-0.2-0.7
			c-0.2-0.1-0.5,0-0.7,0.2c-0.6,1.2-1.1,2.4-1.7,3.6C65.7,131.1,65.9,131.4,66.1,131.6z"/>
		<path class="st1" d="M68.7,126.1c0.1,0,0.1,0.1,0.2,0.1c0.2,0,0.4-0.1,0.4-0.3c0.6-1.2,1.2-2.4,1.8-3.6c0.1-0.2,0-0.5-0.2-0.7
			c-0.2-0.1-0.5,0-0.7,0.2c-0.6,1.1-1.2,2.3-1.8,3.6C68.3,125.7,68.4,126,68.7,126.1z"/>
		<path class="st1" d="M63.7,137c0.1,0,0.1,0,0.2,0c0.2,0,0.4-0.1,0.5-0.3c0.5-1.2,1.1-2.5,1.6-3.7c0.1-0.3,0-0.5-0.3-0.7
			c-0.3-0.1-0.5,0-0.7,0.3c-0.5,1.2-1.1,2.4-1.6,3.7C63.3,136.6,63.4,136.9,63.7,137z"/>
		<path class="st1" d="M164.4,30c0.1,0,0.1,0,0.2,0c1.2-0.6,2.4-1.1,3.6-1.7c0.3-0.1,0.4-0.4,0.2-0.7c-0.1-0.3-0.4-0.4-0.7-0.2
			c-1.2,0.6-2.4,1.1-3.6,1.7c-0.3,0.1-0.4,0.4-0.2,0.7C164.1,29.9,164.3,30,164.4,30z"/>
		<path class="st1" d="M243.2,13.9c1.2,0.5,2.4,1.1,3.6,1.7c0.1,0,0.1,0.1,0.2,0.1c0.2,0,0.4-0.1,0.4-0.3c0.1-0.2,0-0.5-0.2-0.7
			c-1.2-0.6-2.4-1.2-3.6-1.8c-0.3-0.1-0.5,0-0.7,0.2C242.9,13.5,243,13.8,243.2,13.9z"/>
		<path class="st1" d="M253.8,19.5c1.1,0.7,2.3,1.4,3.4,2.1c0.1,0.1,0.2,0.1,0.3,0.1c0.2,0,0.3-0.1,0.4-0.2c0.1-0.2,0.1-0.5-0.2-0.7
			c-1.1-0.7-2.3-1.4-3.4-2.1c-0.2-0.1-0.5-0.1-0.7,0.2C253.4,19,253.5,19.3,253.8,19.5z"/>
		<path class="st1" d="M220.4,8.1c0.2,0,0.3,0,0.4,0c1.1,0,2.3,0.1,3.5,0.2c0,0,0,0,0,0c0.3,0,0.5-0.2,0.5-0.5
			c0-0.3-0.2-0.5-0.5-0.5c-1.2-0.1-2.4-0.2-3.6-0.2c-0.2,0-0.3,0-0.5,0c-0.3,0-0.5,0.3-0.5,0.5C219.8,8,220.1,8.2,220.4,8.1z"/>
		<path class="st1" d="M248.6,16.5c1.2,0.6,2.3,1.3,3.5,1.9c0.1,0,0.2,0.1,0.3,0.1c0.2,0,0.3-0.1,0.4-0.2c0.1-0.2,0.1-0.5-0.2-0.7
			c-1.2-0.7-2.4-1.3-3.5-2c-0.2-0.1-0.5,0-0.7,0.2C248.2,16.1,248.3,16.4,248.6,16.5z"/>
		<path class="st1" d="M232,9.7c1.2,0.3,2.5,0.7,3.8,1.2c0.1,0,0.1,0,0.2,0c0.2,0,0.4-0.1,0.5-0.3c0.1-0.3-0.1-0.5-0.3-0.6
			c-1.3-0.4-2.6-0.8-3.9-1.2c-0.3-0.1-0.5,0.1-0.6,0.4C231.6,9.4,231.8,9.7,232,9.7z"/>
		<path class="st1" d="M143,40.8c0.1,0,0.2,0,0.2-0.1c1.1-0.6,2.3-1.3,3.5-1.9c0.2-0.1,0.3-0.4,0.2-0.7c-0.1-0.2-0.4-0.3-0.7-0.2
			c-1.2,0.6-2.4,1.3-3.5,1.9c-0.2,0.1-0.3,0.4-0.2,0.7C142.6,40.7,142.8,40.8,143,40.8z"/>
		<path class="st1" d="M237.7,11.6c1.2,0.4,2.4,0.9,3.7,1.5c0.1,0,0.1,0,0.2,0c0.2,0,0.4-0.1,0.5-0.3c0.1-0.3,0-0.5-0.3-0.7
			c-1.3-0.5-2.5-1-3.7-1.5c-0.3-0.1-0.5,0-0.6,0.3C237.3,11.2,237.4,11.5,237.7,11.6z"/>
		<path class="st1" d="M280.8,39.8c0.1,0.1,0.2,0.1,0.3,0.1c0.1,0,0.3-0.1,0.4-0.2c0.2-0.2,0.2-0.5,0-0.7c-1-0.9-2-1.8-3-2.7
			c-0.2-0.2-0.5-0.2-0.7,0.1c-0.2,0.2-0.2,0.5,0.1,0.7C278.8,38.1,279.8,38.9,280.8,39.8z"/>
		<path class="st1" d="M276.3,35.9c0.1,0.1,0.2,0.1,0.3,0.1c0.1,0,0.3-0.1,0.4-0.2c0.2-0.2,0.2-0.5-0.1-0.7c-1-0.9-2-1.7-3.1-2.6
			c-0.2-0.2-0.5-0.1-0.7,0.1c-0.2,0.2-0.1,0.5,0.1,0.7C274.3,34.2,275.3,35,276.3,35.9z"/>
		<path class="st1" d="M258.8,22.7c1.1,0.7,2.2,1.5,3.3,2.2c0.1,0.1,0.2,0.1,0.3,0.1c0.2,0,0.3-0.1,0.4-0.2c0.2-0.2,0.1-0.5-0.1-0.7
			c-1.1-0.8-2.2-1.5-3.3-2.3c-0.2-0.2-0.5-0.1-0.7,0.1C258.5,22.2,258.6,22.5,258.8,22.7z"/>
		<path class="st1" d="M285.2,43.9c0.1,0.1,0.2,0.1,0.3,0.1c0.1,0,0.3-0.1,0.4-0.2c0.2-0.2,0.2-0.5,0-0.7c-1-0.9-1.9-1.8-2.9-2.7
			c-0.2-0.2-0.5-0.2-0.7,0c-0.2,0.2-0.2,0.5,0,0.7C283.3,42.1,284.3,43,285.2,43.9z"/>
		<path class="st1" d="M271.7,32.1c0.1,0.1,0.2,0.1,0.3,0.1c0.1,0,0.3-0.1,0.4-0.2c0.2-0.2,0.1-0.5-0.1-0.7c-1-0.8-2.1-1.7-3.2-2.5
			c-0.2-0.2-0.5-0.1-0.7,0.1c-0.2,0.2-0.1,0.5,0.1,0.7C269.6,30.4,270.7,31.2,271.7,32.1z"/>
		<path class="st1" d="M267,28.4c0.1,0.1,0.2,0.1,0.3,0.1c0.2,0,0.3-0.1,0.4-0.2c0.2-0.2,0.1-0.5-0.1-0.7c-1.1-0.8-2.2-1.6-3.2-2.4
			c-0.2-0.2-0.5-0.1-0.7,0.1c-0.2,0.2-0.1,0.5,0.1,0.7C264.8,26.8,265.9,27.6,267,28.4z"/>
		<path class="st1" d="M226.2,8.5c1.3,0.2,2.6,0.4,3.9,0.7c0,0,0.1,0,0.1,0c0.2,0,0.4-0.2,0.5-0.4c0.1-0.3-0.1-0.5-0.4-0.6
			c-1.3-0.3-2.7-0.6-4-0.7c-0.3,0-0.5,0.1-0.6,0.4C225.8,8.2,226,8.5,226.2,8.5z"/>
		<path class="st1" d="M289.5,48.1c0.1,0.1,0.2,0.1,0.4,0.1s0.3,0,0.4-0.1c0.2-0.2,0.2-0.5,0-0.7c-0.9-0.9-1.9-1.9-2.9-2.8
			c-0.2-0.2-0.5-0.2-0.7,0c-0.2,0.2-0.2,0.5,0,0.7C287.6,46.2,288.6,47.1,289.5,48.1z"/>
		<path class="st1" d="M175.4,24.9c0.1,0,0.1,0,0.2,0c1.2-0.5,2.4-1.1,3.7-1.6c0.3-0.1,0.4-0.4,0.3-0.7c-0.1-0.3-0.4-0.4-0.7-0.3
			c-1.2,0.5-2.4,1.1-3.7,1.6c-0.3,0.1-0.4,0.4-0.3,0.7C175,24.8,175.2,24.9,175.4,24.9z"/>
		<path class="st1" d="M159,32.5c0.1,0,0.1,0,0.2-0.1c1.2-0.6,2.4-1.2,3.6-1.7c0.2-0.1,0.4-0.4,0.2-0.7c-0.1-0.2-0.4-0.4-0.7-0.2
			c-1.2,0.6-2.4,1.2-3.6,1.7c-0.2,0.1-0.4,0.4-0.2,0.7C158.7,32.4,158.8,32.5,159,32.5z"/>
		<path class="st1" d="M169.9,27.4c0.1,0,0.1,0,0.2,0c1.2-0.6,2.4-1.1,3.6-1.7c0.3-0.1,0.4-0.4,0.3-0.7c-0.1-0.3-0.4-0.4-0.7-0.3
			c-1.2,0.6-2.4,1.1-3.6,1.7c-0.3,0.1-0.4,0.4-0.2,0.7C169.5,27.3,169.7,27.4,169.9,27.4z"/>
		<path class="st1" d="M153.6,35.2c0.1,0,0.2,0,0.2-0.1c1.2-0.6,2.4-1.2,3.6-1.8c0.2-0.1,0.4-0.4,0.2-0.7c-0.1-0.2-0.4-0.4-0.7-0.2
			c-1.2,0.6-2.4,1.2-3.6,1.8c-0.2,0.1-0.3,0.4-0.2,0.7C153.3,35.1,153.4,35.2,153.6,35.2z"/>
		<path class="st1" d="M148.3,37.9c0.1,0,0.2,0,0.2-0.1c1.2-0.6,2.3-1.2,3.6-1.8c0.2-0.1,0.3-0.4,0.2-0.7c-0.1-0.2-0.4-0.3-0.7-0.2
			c-1.2,0.6-2.4,1.2-3.6,1.8c-0.2,0.1-0.3,0.4-0.2,0.7C147.9,37.8,148.1,37.9,148.3,37.9z"/>
		<path class="st1" d="M186.4,20.1c0.1,0,0.1,0,0.2,0c1.2-0.5,2.5-1,3.7-1.6c0.3-0.1,0.4-0.4,0.3-0.7c-0.1-0.3-0.4-0.4-0.7-0.3
			c-1.2,0.5-2.5,1-3.7,1.6c-0.3,0.1-0.4,0.4-0.3,0.7C186,20,186.2,20.1,186.4,20.1z"/>
		<path class="st1" d="M203.1,13.4c0.1,0,0.1,0,0.2,0c1.3-0.5,2.6-1,3.8-1.4c0.3-0.1,0.4-0.4,0.3-0.6c-0.1-0.3-0.4-0.4-0.6-0.3
			c-1.2,0.4-2.5,0.9-3.8,1.4c-0.3,0.1-0.4,0.4-0.3,0.6C202.7,13.3,202.9,13.4,203.1,13.4z"/>
		<path class="st1" d="M197.5,15.6c0.1,0,0.1,0,0.2,0c1.3-0.5,2.5-1,3.7-1.5c0.3-0.1,0.4-0.4,0.3-0.6c-0.1-0.3-0.4-0.4-0.6-0.3
			c-1.2,0.5-2.5,1-3.7,1.5c-0.3,0.1-0.4,0.4-0.3,0.6C197.1,15.4,197.3,15.6,197.5,15.6z"/>
		<path class="st1" d="M208.7,11.3c0.1,0,0.1,0,0.2,0c1.3-0.5,2.6-0.9,3.8-1.3c0.3-0.1,0.4-0.4,0.3-0.6c-0.1-0.3-0.4-0.4-0.6-0.3
			c-1.2,0.4-2.5,0.8-3.8,1.3c-0.3,0.1-0.4,0.4-0.3,0.6C208.3,11.2,208.5,11.3,208.7,11.3z"/>
		<path class="st1" d="M180.9,22.5c0.1,0,0.1,0,0.2,0c1.2-0.5,2.5-1.1,3.7-1.6c0.3-0.1,0.4-0.4,0.3-0.7c-0.1-0.3-0.4-0.4-0.7-0.3
			c-1.2,0.5-2.4,1.1-3.7,1.6c-0.3,0.1-0.4,0.4-0.3,0.7C180.5,22.4,180.7,22.5,180.9,22.5z"/>
		<path class="st1" d="M191.9,17.8c0.1,0,0.1,0,0.2,0c1.3-0.5,2.5-1,3.7-1.5c0.3-0.1,0.4-0.4,0.3-0.7c-0.1-0.3-0.4-0.4-0.7-0.3
			c-1.2,0.5-2.5,1-3.7,1.5c-0.3,0.1-0.4,0.4-0.3,0.7C191.5,17.7,191.7,17.8,191.9,17.8z"/>
		<path class="st1" d="M214.5,9.5c0,0,0.1,0,0.1,0c1.5-0.4,2.8-0.8,3.8-1c0.3-0.1,0.4-0.3,0.4-0.6c-0.1-0.3-0.3-0.4-0.6-0.4
			c-1.1,0.2-2.4,0.6-3.9,1c-0.3,0.1-0.4,0.4-0.3,0.6C214,9.3,214.2,9.5,214.5,9.5z"/>
	</g>
</g>
</svg>
