<?xml version="1.0" encoding="utf-8"?>
<!-- Generator: Adobe Illustrator 20.1.0, SVG Export Plug-In . SVG Version: 6.00 Build 0)  -->
<svg version="1.1" xmlns="http://www.w3.org/2000/svg" xmlns:xlink="http://www.w3.org/1999/xlink" x="0px" y="0px"
	 viewBox="0 0 413.4 369.6" style="enable-background:new 0 0 413.4 369.6;" xml:space="preserve">
<style type="text/css">
	.st0{fill:#FFFFFF;}
	.st1{fill:#1A1A1A;}
</style>
<g id="back">
	<path class="st0" d="M409.8,71.2c0-1-1.6-2.6-3.6-4.7l-0.5-0.5c-0.4-0.4-0.8-0.8-1.2-1.4c-0.3-0.4-0.4-0.9-0.2-1.3
		c0.1-0.5,0.5-0.8,0.9-1c3.9-1.4,6.7-6.3,6.7-11.8c0-6.6-3.9-12-8.8-12.2c-0.5,0.1-1-0.1-1.3-0.5c-0.7-0.9-1.5-1.8-2.2-2.7
		c-0.4-0.4-0.4-1-0.2-1.5c1-2.2,1-3.9,1-5.7c0-3.3-1.5-9-7.3-9c-5.6,0-9.9,6.2-9.9,9.3v7.2c0,0.8-0.6,1.5-1.5,1.5
		c-1.8,0-3.9,0.2-6.2,0.5c-0.4,0.1-0.9-0.1-1.2-0.4s-0.5-0.7-0.5-1.1v-3.7c0-4-2.3-6.2-6.2-6.2h-47.3c-0.8,0-1.5-0.7-1.5-1.5v-11
		h-24.5c-0.8,0-1.5-0.7-1.5-1.5v-0.5h-10.5c-0.8,0-1.5-0.7-1.5-1.5V1.5h-21V10c0,0.8-0.7,1.5-1.5,1.5h-10.5V12
		c0,0.8-0.7,1.5-1.5,1.5h-24.5v11c0,0.8-0.7,1.5-1.5,1.5H173c-4,0-6.2,2.3-6.2,6.2V36c0,0.4-0.2,0.8-0.5,1.1
		c-0.3,0.3-0.8,0.4-1.2,0.4c-3.2-0.4-5.8-0.5-8.1-0.5c-0.4,0-0.8-0.1-1.1-0.4c-0.3-0.3-0.5-0.7-0.5-1.1V29c0-3.1-4.3-9.3-9.9-9.3
		c-5.8,0-7.3,5.7-7.3,9c0,2.2,0.1,4.3,1.9,7.3c0.3,0.5,0.3,1.1,0,1.5c-1.2,1.9-2.3,3.7-3.3,5.3c-0.4,0.6-1,0.8-1.7,0.7c0,0,0,0,0,0
		c-3.6,0.2-8.5,3.6-8.5,10.8v43.3c0,0.4-0.2,0.8-0.5,1.1c-0.3,0.3-0.7,0.4-1.1,0.4c-4.7-0.4-7.8-0.1-8.8,0l-0.6,7.1
		c-0.1,0.7-0.6,1.3-1.3,1.4c-1.2,0.2-2,0.3-2.4,0.4l-1.7,17.3c0.3,0,0.7,0,1.2-0.1c0.4,0,0.8,0.2,1.1,0.5c0.3,0.3,0.4,0.7,0.4,1.2
		l-0.9,9.9c1.9,0.1,7.9,0.5,14,1.6c5.1,0.9,11.7,3.6,13.7,4.4l1.3-9.6c0.1-0.5,0.4-0.9,0.8-1.1c0.4-0.2,0.9-0.2,1.4,0
		c0.1,0,0.1,0.1,0.2,0.1l0.4-3.6c0.1-0.8,0.8-1.4,1.6-1.3c0.8,0,1.4,0.7,1.4,1.5v184.7c0,14.6,1.6,25,9.7,32
		c8.7,7.6,24.6,11,51.6,11c16.4,0,24.6-0.3,32.5-0.5c7.6-0.2,14.8-0.5,28.8-0.5c14,0,21.6,0.2,29.7,0.5c8.4,0.3,17.1,0.5,33.5,0.5
		c23.7,0,39.1-2.7,48.2-8.5c0.2-0.2,0.5-0.2,0.8-0.2c1.2,0,4.2-0.2,5.6-0.4c0.3-0.1,0.6,0,0.9,0.1l3.3-1.5c0.4-0.2,0.5-0.4,0.6-0.6
		c0.2-0.5,0-1.3-0.5-2.6c-0.2-0.4-0.1-0.9,0.1-1.3c0.2-0.4,0.6-0.7,1.1-0.7c1.2-0.2,2.2-0.5,2.6-0.7c0,0,0,0,0,0
		c0.1,0,0.1-0.1,0.2-0.1l3.1-2c0.4-0.2,0.5-0.5,0.5-0.6c0.2-1-1-2.9-2.6-5.3l-0.4-0.6c-0.4-0.7-0.8-1.4-1.2-2.3
		c-0.2-0.4-0.1-0.9,0.1-1.3c0.2-0.4,0.6-0.7,1-0.8c1.2-0.2,2-0.5,2.3-0.7c0,0,0,0,0,0l3.2-2c0.4-0.2,0.5-0.5,0.5-0.6
		c0.2-1-1-2.9-2.6-5.3l-0.4-0.6c-0.2-0.3-0.4-0.7-0.6-1.1c-0.2-0.4-0.2-0.9,0-1.3c0.2-0.4,0.5-0.7,1-0.8c1.3-0.4,2.6-0.9,3.1-1.2
		c0,0,0,0,0,0c0,0,0.1-0.1,0.1-0.1l2.8-2.4c0.3-0.3,0.4-0.5,0.4-0.7c0.1-1-1.4-2.8-3.3-4.9l-0.5-0.6c-0.5-0.6-1-1.3-1.5-2.1
		c-0.2-0.4-0.3-0.9-0.1-1.3c0.2-0.4,0.5-0.7,0.9-0.9c1.2-0.4,2-0.8,2.2-1c0,0,0,0,0,0l2.9-2.4c0.3-0.3,0.4-0.5,0.4-0.7
		c0.1-1-1.4-2.8-3.2-4.9l-0.5-0.6c-0.5-0.5-0.9-1.2-1.3-1.9c-0.2-0.4-0.3-0.9-0.1-1.3c0.2-0.4,0.5-0.8,0.9-0.9
		c1.2-0.4,2.2-0.9,2.5-1.2c0,0,0,0,0,0c0,0,0.1-0.1,0.1-0.1l2.7-2.5c0.3-0.3,0.4-0.5,0.4-0.7c0-1-1.5-2.7-3.4-4.8l-0.5-0.6
		c-0.5-0.6-1-1.3-1.5-2.1c-0.2-0.4-0.3-0.8-0.2-1.3c0.1-0.4,0.5-0.8,0.9-0.9c1.3-0.5,2-0.9,2.2-1.1l2.8-2.6c0.3-0.3,0.4-0.5,0.4-0.7
		c0-1-1.5-2.7-3.4-4.8l-0.5-0.6c-0.5-0.6-1-1.2-1.5-2c-0.2-0.4-0.3-0.8-0.2-1.3c0.1-0.4,0.5-0.8,0.9-0.9c1.2-0.5,2.1-1,2.5-1.3
		c0,0,0,0,0,0c0-0.1,0.1-0.1,0.1-0.1l2.6-2.6c0.3-0.3,0.3-0.6,0.3-0.7c0-1-1.6-2.6-3.6-4.7l-0.5-0.5c-0.6-0.6-1.1-1.2-1.6-2
		c-0.3-0.4-0.3-0.8-0.2-1.3s0.4-0.8,0.8-1c1.1-0.5,1.9-0.9,2.1-1.2l2.7-2.7c0.3-0.3,0.3-0.6,0.3-0.7c0-1-1.6-2.6-3.6-4.7l-0.5-0.5
		c-0.5-0.5-1.1-1.2-1.6-2c-0.3-0.4-0.3-0.8-0.2-1.3c0.1-0.4,0.4-0.8,0.8-1c1.1-0.5,1.8-0.9,2-1.1c0,0,0,0,0,0c0-0.1,0.1-0.1,0.1-0.1
		l2.6-2.6c0.3-0.3,0.3-0.6,0.3-0.7c0-1-1.6-2.6-3.6-4.7l-0.5-0.5c-0.6-0.6-1.1-1.2-1.6-2c-0.3-0.4-0.3-0.8-0.2-1.3s0.4-0.8,0.8-1
		c1.1-0.5,1.9-0.9,2.1-1.2l2.7-2.7c0.3-0.3,0.3-0.6,0.3-0.7c0-1-1.6-2.6-3.6-4.7l-0.5-0.5c-0.5-0.5-1.1-1.2-1.6-2
		c-0.3-0.4-0.3-0.8-0.2-1.3c0.1-0.4,0.4-0.8,0.8-1c1.1-0.5,1.8-0.9,2-1.1c0,0,0,0,0,0c0-0.1,0.1-0.1,0.1-0.1l2.6-2.6
		c0.3-0.3,0.3-0.6,0.3-0.7c0-1-1.6-2.6-3.6-4.7l-0.5-0.5c-0.6-0.6-1.1-1.2-1.6-2c-0.3-0.4-0.3-0.8-0.2-1.3s0.4-0.8,0.8-1
		c1.1-0.5,1.9-0.9,2.1-1.2l2.7-2.7c0.3-0.3,0.3-0.6,0.3-0.7c0-1-1.6-2.6-3.6-4.7l-0.5-0.5c-0.5-0.5-1.1-1.2-1.6-2
		c-0.3-0.4-0.3-0.8-0.2-1.3c0.1-0.4,0.4-0.8,0.8-1c1-0.4,1.7-0.8,2-1.1c0,0,0,0,0,0c0-0.1,0.1-0.1,0.1-0.2l2.6-2.6
		c0.3-0.3,0.3-0.6,0.3-0.7c0-1-1.6-2.6-3.6-4.7l-0.5-0.5c-0.6-0.6-1.1-1.2-1.6-2c-0.3-0.4-0.3-0.8-0.2-1.3s0.4-0.8,0.8-1
		c1.3-0.6,1.9-1,2.1-1.2l2.7-2.7c0.3-0.3,0.3-0.6,0.3-0.7c0-1-1.6-2.6-3.6-4.7l-0.5-0.5c-0.5-0.5-1.1-1.2-1.6-2
		c-0.3-0.4-0.3-0.8-0.2-1.3c0.1-0.4,0.4-0.8,0.8-1c1-0.4,1.7-0.8,2-1.1c0,0,0,0,0,0c0-0.1,0.1-0.1,0.1-0.2l2.6-2.6
		c0.3-0.3,0.3-0.6,0.3-0.7c0-1-1.6-2.6-3.6-4.7l-0.5-0.5c-0.6-0.6-1.1-1.2-1.6-2c-0.3-0.4-0.3-0.8-0.2-1.3s0.4-0.8,0.8-1
		c1.3-0.6,1.9-1,2.1-1.2l2.7-2.7c0.3-0.3,0.3-0.6,0.3-0.7c0-1-1.6-2.6-3.6-4.7l-0.5-0.5c-0.5-0.5-1.1-1.2-1.6-2
		c-0.3-0.4-0.3-0.8-0.2-1.3c0.1-0.4,0.4-0.8,0.8-1c1-0.4,1.7-0.8,2-1.1c0,0,0,0,0,0c0-0.1,0.1-0.1,0.1-0.2l2.6-2.6
		c0.3-0.3,0.3-0.6,0.3-0.7c0-1-1.6-2.6-3.6-4.7l-0.5-0.5c-0.6-0.6-1.1-1.2-1.6-2c-0.3-0.4-0.3-0.8-0.2-1.3s0.4-0.8,0.8-1
		c1.3-0.6,1.9-1,2.1-1.2l2.7-2.7c0.3-0.3,0.3-0.6,0.3-0.7c0-1-1.6-2.6-3.6-4.7l-0.5-0.5c-0.5-0.5-1.1-1.2-1.6-2
		c-0.3-0.4-0.3-0.8-0.2-1.3c0.1-0.4,0.4-0.8,0.8-1c1-0.4,1.7-0.8,2-1.1c0,0,0,0,0,0c0-0.1,0.1-0.1,0.1-0.2l2.6-2.6
		c0.3-0.3,0.3-0.6,0.3-0.7c0-1-1.6-2.6-3.6-4.7l-0.5-0.5c-0.6-0.6-1.1-1.2-1.6-2c-0.3-0.4-0.3-0.8-0.2-1.3s0.4-0.8,0.8-1
		c1.3-0.6,1.9-1,2.1-1.2l2.7-2.7C409.8,71.6,409.8,71.4,409.8,71.2z M129.9,54.5c0-5.1,3.3-6.7,4.3-7c0.4-0.2,0.9-0.1,1.3,0.2
		c0.6,0.4,1.4,0.6,1.7,0.7c0.1,0,0.3-0.1,0.5-0.2c0.6-0.4,1.3-0.3,1.8,0.1c1.4,1.2,2.1,3.3,2.1,6.4c0,1.9-1,6.8-3.1,14.7
		c-0.1,0.5-0.4,0.8-0.9,1c0,0,0,0-0.1,0c-1.1,0.7-3.6,2.4-4.8,5.2c-0.2,0.6-0.8,0.9-1.4,0.9c-0.1,0-0.2,0-0.3,0
		c-0.7-0.1-1.2-0.8-1.2-1.5V54.5z M131.5,89.1c-0.1,0-0.1,0-0.2,0c-0.7-0.1-1.3-0.7-1.3-1.5v-4.6c0-0.7,0.5-1.4,1.3-1.5
		c0.7-0.1,1.4,0.3,1.7,1c0.2,0.6,0.5,1.2,0.7,1.8c0.2,0.3,0.2,0.7,0.1,1.1l-0.8,2.6C132.7,88.6,132.1,89.1,131.5,89.1z M140.9,95.3
		C140.9,95.3,140.9,95.3,140.9,95.3l-0.5,0.6c-1.4,1.8-2.4,3.2-2.8,4.2c-0.2,0.6-0.8,1-1.4,1c-0.1,0-0.3,0-0.4-0.1
		c-0.5-0.2-1-0.3-1.6-0.5c-0.4-0.1-0.7-0.4-0.9-0.8s-0.2-0.8-0.1-1.2c0.5-1.4,1.5-4.3,2.8-8.1c0.2-0.5,0.5-0.8,1-1
		c0.5-0.1,1,0,1.4,0.2l0.2,0.2c0.4,0.3,1.4,0.8,2.8,1.2c0.4,0.1,0.8,0.4,1,0.9c0.2,0.4,0.2,0.9-0.1,1.3
		C141.7,94.1,141.3,94.8,140.9,95.3z M146.8,112.7c0,0.5-0.3,1-0.8,1.3c-0.2,0.1-0.5,0.2-0.7,0.2c-0.3,0-0.5-0.1-0.8-0.2l-0.4-0.3
		c-0.5-0.3-0.8-0.9-0.7-1.5l0.4-3.3c0.1-0.8,0.8-1.4,1.6-1.3c0.8,0.1,1.4,0.7,1.4,1.5V112.7z M146.8,103.9c0,0.6-0.3,1.1-0.8,1.3
		c-0.2,0.1-0.4,0.2-0.7,0.2c-0.3,0-0.6-0.1-0.9-0.3c-0.3-0.2-1-0.7-2-1.3c-0.4-0.2-0.6-0.6-0.7-1c-0.1-0.4,0-0.8,0.2-1.2
		c0.3-0.5,0.7-1,1-1.6c0.4-0.6,0.7-1.2,1.1-1.7c0.4-0.6,1.1-0.8,1.7-0.6c0.6,0.2,1.1,0.8,1.1,1.4V103.9z M146.8,70.4
		c0,0.6-0.4,1.2-1,1.4c-0.2,0.1-0.4,0.1-0.5,0.1c-0.4,0-0.8-0.2-1.1-0.5c-0.3-0.3-0.6-0.5-0.7-0.6c-0.6-0.3-1-1-0.8-1.7
		c0.4-2,0.9-4.1,1.2-6c0.1-0.8,0.8-1.3,1.6-1.2c0.8,0.1,1.4,0.7,1.4,1.5V70.4z M146.8,44.9v2.9c0,0.7-0.5,1.3-1.2,1.5
		c-0.1,0-0.2,0-0.3,0c-0.6,0-1.2-0.4-1.4-1c-0.6-1.5-1.4-2.7-2.5-3.5c-0.6-0.5-0.8-1.3-0.4-2l0.8-1.3c0.2-0.4,0.7-0.7,1.1-0.7
		c0.5,0,0.9,0.1,1.3,0.5c0.6,0.7,1.4,1.5,2.2,2.3C146.6,44.1,146.8,44.4,146.8,44.9C146.8,44.9,146.8,44.9,146.8,44.9z M150.7,32.6
		c0,1.7-0.7,3.1-1.8,3.5c-0.2,0.1-0.4,0.1-0.7,0.1c-0.3,0-0.6-0.1-1-0.2c-0.4-0.2-0.7-0.5-0.8-0.9c-0.1-0.4-0.1-0.9,0.2-1.2
		c0.4-0.6,0.7-1.1,0.8-1.3l0,0c0-0.3,0.1-1.2-1.1-2c-0.6-0.4-1.2-0.6-1.5-0.5c-0.5,0.2-1,0.1-1.4-0.2c-0.4-0.3-0.6-0.8-0.6-1.3
		c0.1-2.5,1.5-4.1,3.5-4.1c2.1,0,4.4,1.7,4.4,5V32.6z M393,33.5c-0.1,0.4-0.3,0.8-0.6,1c-0.7,0.5-1.3,0.7-1.8,0.7
		c-0.4,0-0.7-0.1-0.9-0.2c-1.1-0.5-1.8-1.7-1.8-3.1v-3.2c0-3.2,2.3-5,4.4-5c0.8,0,1.9,0.3,2.7,1.5c0.4,0.6,0.6,1.2,0.6,2
		c0,0.4-0.1,0.8-0.4,1.2c-0.3,0.3-0.7,0.5-1.2,0.4c-0.5,0-1.1,0.1-1.6,0.5c0,0,0,0,0,0c-0.9,0.6-1.1,1.1-1,1.4l1.3,1.6
		C393,32.7,393.1,33.1,393,33.5z M396,306.3c-0.2,0.1-0.5,0.2-0.7,0.2c-0.2,0-0.4,0-0.6-0.1c-0.6-0.2-0.9-0.8-0.9-1.4v0
		c0-0.7,0.5-1.3,1.2-1.5c0.6-0.1,1.2,0.1,1.5,0.5c0.2,0.3,0.3,0.6,0.3,0.9C396.8,305.5,396.5,306.1,396,306.3z M398.6,292.5
		c-0.1,0.4-0.4,0.8-0.7,1c-0.4,0.2-0.9,0.6-1.4,1.2c-0.3,0.4-0.7,0.6-1.2,0.6c-0.2,0-0.3,0-0.5-0.1c-0.6-0.2-1-0.8-1-1.4v-5.2
		c0-0.7,0.5-1.4,1.3-1.5c0.7-0.1,1.4,0.3,1.7,1.1c0.3,1,0.9,2.1,1.6,3.1C398.6,291.6,398.7,292,398.6,292.5z M400.9,81.4
		c0.3,0.3,0.4,0.8,0.4,1.2c-0.1,0.4-0.3,0.8-0.7,1.1c-0.6,0.4-1.8,1.4-2,3.3c-0.3,2.7-0.3,5.6,2.3,8.5c0.3,0.3,0.4,0.8,0.4,1.2
		c-0.1,0.4-0.3,0.8-0.7,1.1c-0.6,0.4-1.8,1.4-2,3.3c-0.3,2.7-0.3,5.6,2.3,8.5c0.3,0.3,0.4,0.8,0.4,1.2c-0.1,0.4-0.3,0.8-0.7,1.1
		c-0.6,0.4-1.8,1.4-2,3.3c-0.3,2.7-0.3,5.6,2.3,8.5c0.3,0.3,0.4,0.8,0.4,1.2c-0.1,0.4-0.3,0.8-0.7,1.1c-0.6,0.4-1.8,1.4-2,3.3
		c-0.3,2.7-0.3,5.6,2.3,8.5c0.3,0.3,0.4,0.8,0.4,1.2c-0.1,0.4-0.3,0.8-0.7,1.1c-0.6,0.4-1.8,1.4-2,3.3c-0.3,2.7-0.3,5.6,2.3,8.5
		c0.3,0.3,0.4,0.8,0.4,1.2c-0.1,0.4-0.3,0.8-0.7,1.1c-0.6,0.4-1.8,1.4-2,3.3c-0.3,2.7-0.3,5.6,2.3,8.5c0.3,0.3,0.4,0.8,0.4,1.2
		c-0.1,0.4-0.3,0.8-0.7,1.1c-0.6,0.4-1.8,1.4-2,3.3c-0.3,2.7-0.3,5.6,2.3,8.5c0.3,0.3,0.4,0.8,0.4,1.2c-0.1,0.4-0.3,0.8-0.7,1.1
		c-0.6,0.4-1.8,1.4-2,3.3c-0.3,2.7-0.3,5.6,2.3,8.5c0.3,0.3,0.4,0.8,0.4,1.2c-0.1,0.4-0.3,0.8-0.7,1.1c-0.6,0.4-1.8,1.4-2,3.3
		c-0.3,2.7-0.3,5.6,2.3,8.5c0.3,0.3,0.4,0.8,0.4,1.2c-0.1,0.4-0.3,0.8-0.7,1.1c-0.6,0.4-1.8,1.4-2,3.3c-0.3,2.7-0.3,5.6,2.3,8.5
		c0.3,0.3,0.4,0.8,0.4,1.2c-0.1,0.4-0.3,0.8-0.7,1.1c-0.6,0.4-1.8,1.4-2,3.3c-0.3,2.7-0.3,5.6,2.3,8.5c0.3,0.3,0.4,0.8,0.4,1.2
		c-0.1,0.4-0.3,0.8-0.7,1.1c-0.6,0.4-1.8,1.4-2,3.3c-0.3,2.7-0.3,5.5,2.2,8.4c0.3,0.3,0.4,0.8,0.4,1.2c-0.1,0.4-0.3,0.8-0.7,1.1
		c-0.7,0.4-1.9,1.3-2.2,3.2c-0.5,2.7-0.5,5.6,2,8.6c0.3,0.3,0.4,0.8,0.3,1.2c-0.1,0.4-0.3,0.8-0.7,1c-0.7,0.4-1.8,1.4-2.1,3.2
		c-0.4,2.6-0.5,5.4,1.8,8.4c0.3,0.3,0.4,0.8,0.3,1.2c-0.1,0.4-0.4,0.8-0.8,1c-0.7,0.4-1.9,1.2-2.3,3c-0.2,0.7-0.8,1.2-1.5,1.2
		c-0.1,0-0.1,0-0.2,0c-0.8-0.1-1.3-0.7-1.3-1.5V60.6c0-0.6,0.4-1.2,1-1.4c0.6-0.2,1.3,0,1.7,0.5c0.5,0.6,1,1,1.5,1.5
		c0.3,0.3,0.5,0.6,0.6,1c0.2,1.9,1,3.6,2.4,5.2c0.3,0.3,0.4,0.8,0.4,1.2c-0.1,0.4-0.3,0.8-0.7,1.1c-0.6,0.4-1.8,1.4-2,3.3
		C398.3,75.6,398.3,78.5,400.9,81.4z M400.9,55.5c-0.1,0.1-0.3,0.2-0.6,0.4c-0.3,0.3-0.8,0.4-1.2,0.3c-0.4-0.1-0.8-0.4-1-0.8
		c-0.8-1.4-1.2-3.1-1.2-4.9c0-2.8,1-5.5,2.8-7c0.3-0.3,0.7-0.4,1.1-0.4c0.4,0,0.8,0.2,1,0.5c0.5,0.6,0.9,1.1,1.2,1.4
		c0.3,0.3,0.6,0.5,0.9,0.5l0.1,0c0.4,0,0.8-0.3,1.3-0.7c0.3-0.3,0.8-0.5,1.2-0.4c0.4,0.1,0.8,0.3,1.1,0.7c0.9,1.5,1.4,3.4,1.4,5.3
		c0,2.9-1,5.5-2.8,7c-0.3,0.3-0.6,0.4-1,0.4c-0.3,0-0.7-0.1-1-0.3C403,56.5,401.7,55.7,400.9,55.5z"/>
</g>
<g id="lines">
	<path class="st1" d="M407.8,75.7l2.7-2.7c0.5-0.5,0.8-1.1,0.8-1.8c0-1.7-1.6-3.3-4.1-5.7l-0.5-0.5c-0.4-0.4-0.7-0.8-1-1.2
		c4.5-1.6,7.7-7,7.7-13.2c0-7.5-4.7-13.7-10.5-13.7v0c-0.7-0.9-1.5-1.8-2.2-2.7c1.1-2.4,1.2-4.3,1.2-6.3c0-5.1-2.8-10.5-8.8-10.5
		c-6.6,0-11.4,7.1-11.4,10.8v7.2c-1.9,0-4,0.2-6.4,0.5v-3.7c0-4.8-3-7.7-7.7-7.7h-47.3V13c0-0.6-0.4-1-1-1h-25v-1c0-0.6-0.4-1-1-1
		h-11V1c0-0.6-0.4-1-1-1h-22c-0.6,0-1,0.4-1,1v9h-11c-0.6,0-1,0.4-1,1v1h-25c-0.6,0-1,0.4-1,1v11.5H173c-4.8,0-7.7,3-7.7,7.7V36
		c-3.3-0.4-6-0.6-8.3-0.5V29c0-3.7-4.8-10.8-11.4-10.8c-6.1,0-8.8,5.4-8.8,10.5c0,2.5,0.2,4.8,2.1,8c-1.2,1.9-2.4,3.8-3.3,5.3v-0.1
		c-4.3,0-10.4,3.8-10.4,12.3v43.3c-5.9-0.5-9.4,0.1-9.6,0.1c-0.5,0.1-0.8,0.4-0.8,0.9L114,106c-1.8,0.2-2.8,0.5-2.9,0.5
		c-0.4,0.1-0.7,0.5-0.7,0.9l-1.7,18.2c0,0.3,0.1,0.6,0.3,0.8c0.2,0.2,0.5,0.3,0.8,0.3c0,0,0.6-0.1,1.7-0.1l-0.9,10.4
		c0,0.3,0.1,0.5,0.2,0.7c0.2,0.2,0.4,0.3,0.7,0.3c0,0,0.6,0,1.5,0.1c0.1,1.8,0.3,7.1,0.6,14c-0.3,5.3-0.7,11.7-1,18.8
		c-1.5,15.1-2.7,31-1.8,37.9c-0.8,19.3-1.4,38.6-1.3,52.7c-0.6,2.7-1.1,5.5-1.7,8.2c-1,3.6-2.1,7.1-3.3,10.7c-0.1,0.2,0,0.3,0.1,0.4
		c-1.6,4.4-1.9,8.8-1.5,13.6c0.6,6.8,1,13.5,1.1,20.4c0.1,7.5-0.2,15-0.3,22.5c0,0.5,0,1.1,0,1.7c-0.3,1.2-0.6,2.4-1,3.6
		c-1.2,3.2-3.2,5.7-5.6,8.1c-2.4,0.4-4.8,0.8-7.2,1.3c-0.6,0.1-0.4,1.1,0.3,1c1.8-0.3,3.6-0.5,5.4-0.8c-0.3,0.3-0.7,0.6-1.1,1
		c-0.1,0.1-0.3,0.2-0.4,0.2c-2.2,0.5-4.5,1-6.7,1.4c-0.3,0-0.4,0.2-0.4,0.4c-4.1,0.2-8,0.9-12,1.9c-0.8,0.1-1.6,0.2-2.4,0.3
		c-0.1-0.1-0.2-0.1-0.3-0.1c-2.3,0.1-4.6,0.3-6.9,0.4c-0.1,0-0.1,0-0.2,0c-1.6,0-3.2,0.1-4.8,0.2c-10.5,0.1-21,0-31.5,1.2
		c-9.5,1-18.9,2.5-28.5,2.6c-0.6,0-0.6,1,0,1c7.9,0.2,15.8,0.4,23.7,0.6c0.1,0.1,0.2,0.2,0.4,0.2c3.1,0.1,6.2,0.1,9.2,0.1
		c0.9,0,1.7,0,2.6,0c-3.8,1-7.7,1.9-11.6,2.5c-0.6,0.1-0.4,1,0.1,1c4.5-0.3,9-0.6,13.5-0.9c-0.2,0.3,0,0.8,0.4,0.8
		c1.9-0.1,3.8-0.3,5.7-0.8c5.7-0.7,11.5-1.2,17.3-1.5c1.2,0,2.5,0,3.7,0c-0.1,0.1-0.1,0.2-0.1,0.4c-2,0.1-4,0.3-5.9,0.4
		c-0.6,0-0.6,1,0,1c3.9-0.2,7.8-0.3,11.8-0.5c0.1,0.1,0.2,0.1,0.3,0.1c0.6-0.1,1.2-0.1,1.7-0.2c2.6-0.1,5.1-0.2,7.7-0.3
		c0,0.2,0.2,0.4,0.5,0.4c1.3-0.1,2.5-0.3,3.8-0.5c0.1,0.1,0.3,0.2,0.5,0.1c0.7-0.1,1.5-0.2,2.2-0.4c0.3,0,0.5,0,0.8,0
		c0,0,0,0-0.1,0.1c-0.3,0.3,0,1,0.5,0.8c0.7-0.2,1.4-0.4,2.1-0.7c1.2,0,2.3,0.1,3.5,0.1c0,0.2,0.2,0.4,0.5,0.4
		c1.2-0.1,2.4-0.2,3.6-0.3c1.3,0,2.6,0.1,3.8,0.1c0.5,0.1,1,0.2,1.5,0.3c0.1,0.1,0.2,0.2,0.4,0.1c0.1,0,0.2,0,0.3,0
		c0.2,0,0.5,0.1,0.7,0.1c-2.9,0.7-5.8,1.5-8.6,2.2c-0.6,0.1-0.4,1,0.1,1c1.2,0.1,2.4,0.1,3.6,0.1c0,0.2,0.2,0.4,0.5,0.3
		c0,0,0.1,0,0.1,0c0,0,0,0,0,0c0,0,0,0,0,0c0.8-0.1,1.7-0.3,2.5-0.4c2.2-0.1,4.5-0.3,6.7-0.7c0,0,0,0,0,0c0,0,0,0,0,0
		c0,0,0.1,0,0.1,0c0.6-0.1,0.4-0.9-0.1-1c-0.1,0-0.1,0-0.2,0c0.9-0.3,1.7-0.6,2.5-0.9c8.7,0.1,17.4-2,25.2-6.1
		c0.4-0.2,0.3-0.8-0.1-0.9c-2.9-1-5.6-0.3-8.5,0.4c-2.6,0.7-5.3,1.3-7.9,2c1.5-1,2.9-2.1,4.3-3.2c0,0,0,0,0,0
		c0.8-0.1,1.3-0.3,1.7-0.5c0,0,0,0,0,0c-0.1,0.6,0.9,0.9,1,0.3c0.2-1.6,0.4-3.2,0.6-4.9c0,0,0,0,0-0.1c0.1,1.5,0.3,3,0.4,4.5
		c0.1,0.6,1.1,0.6,1,0c-0.2-2.3-0.4-4.5-0.6-6.8c0.2-0.9,0.3-1.8,0.2-2.7c0.4,2.3,0.8,4.5,1.2,6.8c0.1,0.6,1,0.4,1-0.1
		c-0.3-6.9-0.4-13.9-0.3-20.9c0.3-0.5,0.5-1,0.7-1.6c0.8-2.5,0.9-5.2,0.7-7.7c-0.1-3-0.3-6-0.5-9c0.4-5.2,0.8-10.4,1.1-15.6
		c0.2-4.5-0.1-8.9-0.4-13.4c0-3.9-0.4-7.9-0.8-11.8c0.5-3.3,1.2-6.7,1.7-10c0.3,0.2,0.6,0.1,0.7-0.3c2.3-16.8,3.4-33.7,1.8-50.6
		c-0.3-3-0.6-6-0.9-9c0-0.2,0-0.4,0-0.5c0.1-1.3,0.2-2.5,0.1-3.8c0.4-4.7,0.3-9.5,0-14.1c0-3.3-0.1-6.7-0.1-10
		c0.1-0.4,0.1-0.8,0.2-1.1c0.8-3.9,2.1-7.7,3.1-11.6c1.7-7,2.2-14.8-2.5-20.8c-0.1-0.1-0.2-0.2-0.4-0.2c0.1-0.1,0.1-0.2,0.2-0.2
		c1.8,0.7,3,1.2,3.1,1.2c0.1,0.1,0.3,0.1,0.4,0.1c0.2,0,0.3,0,0.5-0.1c0.3-0.2,0.5-0.4,0.5-0.7l1.4-10.3c0.5,0.2,0.8,0.4,0.8,0.4
		c0.1,0.1,0.3,0.1,0.5,0.1c0.2,0,0.3,0,0.5-0.1c0.3-0.2,0.5-0.4,0.5-0.8l0.5-4.3v184.7c0,15,1.7,25.8,10.2,33.1
		c9,7.9,25.2,11.4,52.6,11.4c16.4,0,24.6-0.3,32.5-0.5c7.6-0.2,14.8-0.5,28.7-0.5c13.9,0,21.6,0.2,29.7,0.5
		c8.4,0.3,17.1,0.5,33.6,0.5c24.1,0,39.5-2.7,49-8.7c1.2,0,4.3-0.2,5.9-0.4c0.1,0,0.1,0.1,0.2,0.1c0.1,0.1,0.3,0.1,0.5,0.1
		c0.2,0,0.3,0,0.5-0.1l3.5-1.6c0.7-0.3,1.1-0.8,1.4-1.4c0.4-1,0.1-2.2-0.5-3.7c1.2-0.2,2.6-0.6,3.2-1c0,0,0.1-0.1,0.1-0.1l3.1-2
		c0.6-0.4,1-0.9,1.1-1.6c0.3-1.6-0.9-3.5-2.8-6.4l-0.4-0.6c-0.4-0.6-0.7-1.3-1-2.1c1.1-0.2,2.3-0.5,2.8-0.9c0,0,0,0,0,0l3.2-2.1
		c0.6-0.4,1-0.9,1.1-1.6c0.3-1.6-0.9-3.5-2.8-6.4l-0.4-0.6c-0.2-0.3-0.4-0.6-0.5-0.9c1.4-0.4,3.1-1,3.8-1.6c0,0,0-0.1,0.1-0.1
		l2.8-2.4c0.6-0.5,0.9-1.1,0.9-1.7c0.1-1.7-1.4-3.4-3.6-6l-0.5-0.6c-0.5-0.6-0.9-1.2-1.3-1.9c1.1-0.4,2.2-0.9,2.7-1.3c0,0,0,0,0,0
		l2.9-2.5c0.6-0.5,0.9-1.1,0.9-1.7c0.1-1.7-1.4-3.4-3.6-6l-0.5-0.6c-0.4-0.5-0.8-1.1-1.2-1.7c1.2-0.4,2.6-1,3.1-1.6
		c0,0,0-0.1,0.1-0.1l2.7-2.5c0.5-0.5,0.8-1.1,0.9-1.8c0.1-1.7-1.5-3.3-3.8-5.9l-0.5-0.5c-0.5-0.5-1-1.2-1.4-1.8
		c1.1-0.4,2.1-0.9,2.6-1.4c0,0,0,0,0,0l2.8-2.6c0.5-0.5,0.8-1.1,0.9-1.8c0.1-1.7-1.5-3.3-3.8-5.9l-0.5-0.6c-0.5-0.5-0.9-1.1-1.3-1.8
		c1.2-0.5,2.5-1.1,3.1-1.7c0,0,0-0.1,0.1-0.1l2.6-2.6c0.5-0.5,0.8-1.1,0.8-1.8c0-1.7-1.6-3.3-4.1-5.7l-0.5-0.5
		c-0.5-0.5-1-1.1-1.5-1.8c1.1-0.5,2.1-1,2.6-1.5l2.7-2.7c0.5-0.5,0.8-1.1,0.8-1.8c0-1.7-1.6-3.3-4.1-5.7l-0.5-0.5
		c-0.5-0.5-1-1.1-1.4-1.8c1-0.5,2.1-1,2.6-1.5c0,0,0-0.1,0.1-0.1l2.6-2.6c0.5-0.5,0.8-1.1,0.8-1.8c0-1.7-1.6-3.3-4.1-5.7l-0.5-0.5
		c-0.5-0.5-1-1.1-1.5-1.8c1.1-0.5,2.1-1,2.6-1.5l2.7-2.7c0.5-0.5,0.8-1.1,0.8-1.8c0-1.7-1.6-3.3-4.1-5.7l-0.5-0.5
		c-0.5-0.5-1-1.1-1.4-1.8c1-0.5,2.1-1,2.6-1.5c0,0,0-0.1,0.1-0.1l2.6-2.6c0.5-0.5,0.8-1.1,0.8-1.8c0-1.7-1.6-3.3-4.1-5.7l-0.5-0.5
		c-0.5-0.5-1-1.1-1.5-1.8c1.1-0.5,2.1-1,2.6-1.5l2.7-2.7c0.5-0.5,0.8-1.1,0.8-1.8c0-1.7-1.6-3.3-4.1-5.7l-0.5-0.5
		c-0.5-0.5-1-1.1-1.4-1.8c1-0.5,2.1-1,2.6-1.5c0,0,0-0.1,0.1-0.1l2.6-2.6c0.5-0.5,0.8-1.1,0.8-1.8c0-1.7-1.6-3.3-4.1-5.7l-0.5-0.5
		c-0.5-0.5-1-1.1-1.5-1.8c1.1-0.5,2.1-1,2.6-1.5c0,0,0,0,0,0l2.7-2.7c0.5-0.5,0.8-1.1,0.8-1.8c0-1.7-1.6-3.3-4.1-5.7l-0.5-0.5
		c-0.5-0.5-1-1.1-1.4-1.8c1-0.5,2.1-1,2.6-1.5c0,0,0-0.1,0.1-0.1l2.6-2.6c0.5-0.5,0.8-1.1,0.8-1.8c0-1.7-1.6-3.3-4.1-5.7l-0.5-0.5
		c-0.5-0.5-1-1.1-1.5-1.8c1.1-0.5,2.1-1,2.6-1.5c0,0,0,0,0,0l2.7-2.7c0.5-0.5,0.8-1.1,0.8-1.8c0-1.7-1.6-3.3-4.1-5.7l-0.5-0.5
		c-0.5-0.5-1-1.1-1.4-1.8c1-0.5,2.1-1,2.6-1.5c0,0,0-0.1,0.1-0.1l2.6-2.6c0.5-0.5,0.8-1.1,0.8-1.8c0-1.7-1.6-3.3-4.1-5.7l-0.5-0.5
		c-0.5-0.5-1-1.1-1.5-1.8c1.1-0.5,2.1-1,2.6-1.5c0,0,0,0,0,0l2.7-2.7c0.5-0.5,0.8-1.1,0.8-1.8c0-1.7-1.6-3.3-4.1-5.7l-0.5-0.5
		c-0.5-0.5-1-1.1-1.4-1.8c1-0.5,2.1-1,2.6-1.5c0,0,0-0.1,0.1-0.1l2.6-2.6c0.5-0.5,0.8-1.1,0.8-1.8c0-1.7-1.6-3.3-4.1-5.7l-0.5-0.5
		c-0.5-0.5-1-1.1-1.5-1.8C406.3,76.7,407.4,76.2,407.8,75.7C407.8,75.7,407.8,75.7,407.8,75.7z M409.3,71.2c0,0.1,0,0.2-0.2,0.4
		l-2.2,2.2c-0.6-0.7-1.7-2-2.5-3c-1-1.3-2-2.5-2.7-3.2c-3-3-2.9-6-2.6-8.5c0.1-1,0.6-1.8,1-2.3c0.8,2.6,2.7,7.1,5.2,9.6l0.5,0.5
		C407.6,68.7,409.3,70.4,409.3,71.2z M399.8,82.4c-0.8,0.6-2.4,1.9-2.7,4.3c-0.4,2.9-0.3,6.3,2.7,9.7c-0.8,0.6-2.4,1.9-2.7,4.3
		c-0.4,2.9-0.3,6.3,2.7,9.7c-0.8,0.6-2.4,1.9-2.7,4.3c-0.4,2.9-0.3,6.3,2.7,9.7c-0.8,0.6-2.4,1.9-2.7,4.3c-0.4,2.9-0.3,6.3,2.7,9.7
		c-0.8,0.6-2.4,1.9-2.7,4.3c-0.4,2.9-0.3,6.3,2.7,9.7c-0.8,0.6-2.4,1.9-2.7,4.3c-0.4,2.9-0.3,6.3,2.7,9.7c-0.8,0.6-2.4,1.9-2.7,4.3
		c-0.4,2.9-0.3,6.3,2.7,9.7c-0.8,0.6-2.4,1.9-2.7,4.3c-0.4,2.9-0.3,6.3,2.7,9.7c-0.8,0.6-2.4,1.9-2.7,4.3c-0.4,2.9-0.3,6.3,2.7,9.7
		c-0.8,0.6-2.4,1.9-2.7,4.3c-0.4,2.9-0.3,6.3,2.7,9.7c-0.8,0.6-2.4,1.9-2.7,4.3c-0.4,2.9-0.3,6.3,2.7,9.7c-0.8,0.6-2.4,1.9-2.7,4.3
		c-0.4,2.9-0.3,6.3,2.6,9.6c-0.8,0.5-2.5,1.7-2.9,4.3c-0.5,2.9-0.6,6.3,2.3,9.8c-0.9,0.5-2.4,1.8-2.8,4.2c-0.5,2.8-0.6,6.2,2.1,9.5
		c-0.8,0.4-2.5,1.6-3.1,4V60.6c0.5,0.6,1.1,1.2,1.8,1.7c0.2,2,0.9,4,2.8,6c-0.8,0.6-2.4,1.9-2.7,4.3
		C396.7,75.7,396.8,79.1,399.8,82.4z M391.5,28.2c-2.4,1.7-1.4,3.4-1.4,3.4l0.1,0.1c0.1,0.1,0.6,0.7,1.3,1.7
		c-0.5,0.3-0.9,0.5-1.3,0.3c-0.5-0.2-0.9-0.9-0.9-1.7v-3.2c0-2.3,1.5-3.5,2.9-3.5c0.6,0,1.1,0.3,1.5,0.9c0.3,0.4,0.3,0.9,0.4,1.3
		C393.4,27.3,392.5,27.5,391.5,28.2z M391.9,30.6c0-0.1,0.2-0.4,0.8-0.8c0.8-0.6,1.4-0.4,1.7-0.3c1.1,1.4,8.9,11.3,10.9,13.3
		c0.4,0.4,0.5,0.8,0.5,1c-0.4,0.6-1.2,1.4-1.8,1.5c-0.1,0-0.3,0-0.6-0.3C401.6,42.9,393.1,32.1,391.9,30.6z M402.4,57.4
		c-0.1-0.2-0.2-0.5-0.2-0.7c0.3,0.2,0.7,0.4,1,0.7c-0.1,0-0.2,0-0.3,0C402.7,57.4,402.6,57.4,402.4,57.4z M405.2,56.5
		c-1.1-0.9-2.8-2.2-4.3-2.5l0,0c-0.2,0-0.4,0-0.6,0.1c0,0-0.5,0.2-1.1,0.7c-0.6-1.2-1-2.6-1-4.2c0-2.4,0.9-4.6,2.3-5.9
		c0.5,0.7,1,1.2,1.3,1.5c0.7,0.8,1.5,1,2,1c0.1,0,0.2,0,0.2,0c0.9-0.1,1.6-0.6,2.2-1.1c0.8,1.2,1.2,2.9,1.2,4.6
		C407.5,53,406.6,55.2,405.2,56.5z M397.6,41c0.6,0.8,1.2,1.5,1.7,2.2c-1.9,1.6-3,4.4-3,7.4c0,2.1,0.6,4.2,1.6,5.8
		c-0.4,0.6-0.7,1.4-0.8,2.4c0,0.3-0.1,0.6-0.1,0.9c-0.7-0.8-1.3-1.7-1.8-2.7v-12c0-0.2,0-0.4,0-0.6C395.8,43,396.6,41.9,397.6,41z
		 M395.3,305C395.3,305,395.3,305,395.3,305C395.3,305,395.3,305,395.3,305L395.3,305z M395.3,288.6c0.3,1.2,0.9,2.4,1.9,3.6
		c-0.5,0.3-1.2,0.8-1.9,1.6V288.6z M411.4,50.6c0,5.6-2.9,10.4-6.8,11.4c-0.5-0.9-0.9-1.8-1.3-2.6c3.5-0.2,6.3-4.1,6.3-8.8
		c0-2.3-0.7-4.6-1.9-6.2l0-0.2c0-0.2,0.3-1.6-1-2.9c-0.4-0.4-1-1.2-1.9-2.1C408.5,40.4,411.4,45,411.4,50.6z M393,19.4
		c5.4,0,6.8,5.3,6.8,8.5c0,1.6-0.1,2.9-0.6,4.5c-1.5-1.8-2.7-3.4-3.2-4c0.1-0.5,0.2-2.1-0.6-3.4c-0.7-1.1-1.9-1.8-3.2-1.8
		c-2.4,0-4.9,1.9-4.9,5.5v3.2c0,1.7,0.8,3,2.1,3.6c0.4,0.2,0.7,0.2,1.1,0.2c0.7,0,1.5-0.3,2.2-0.8c1.1,1.3,2.3,2.9,3.6,4.5
		c-0.6,0.5-1.1,1.2-1.6,1.8c-0.5-1.4-1.2-2.5-2.3-3.4c-1.9-1.5-4.6-2.3-8.8-2.4v-7.2C383.6,25.7,387.7,19.4,393,19.4z M247.8,23h11
		v1.5h-11V23z M259.8,19.5h21V21h-21V19.5z M280.8,23v1.5h-21V23H280.8z M292.8,23v1.5h-11V23H292.8z M318.3,14v10.5h-24.5v-1.7
		c0.3-0.2,0.5-0.5,0.5-0.8v-8H318.3z M292.3,12v9h-10.5v-1.6c0.3-0.2,0.5-0.5,0.5-0.8V12H292.3z M260.3,2h20v15.5h-20V2z M248.3,12
		h10v6.5c0,0.4,0.2,0.7,0.5,0.8V21h-10.5V12z M222.3,14h24v8c0,0.4,0.2,0.7,0.5,0.8v1.7h-24.5V14z M168.3,32.2
		c0-2.2,0.8-4.7,4.7-4.7h194.5c3.9,0,4.7,2.6,4.7,4.7v4.1c-1.7,0.3-3.6,0.6-5.5,0.9c-0.2-4.9-1.5-5.3-7.2-5.3H181
		c-5.7,0-7,0.4-7.2,5.3c-2-0.4-3.8-0.7-5.5-0.9V32.2z M194.4,42.8V34h19.9v235.1c-1.1-5.6-1.5-12.1-1.5-19.4V83.4
		C212.8,62.2,210.7,49.8,194.4,42.8z M181.9,38.9c-2.2-0.5-4.2-0.9-6.1-1.3c0-1.8,0.2-2.8,0.6-3.2C177,34,178.6,34,181,34h11.4v8
		C189.4,40.8,185.9,39.8,181.9,38.9z M216.3,34h20.1v257.2c-10.7-1.5-16.8-6.8-20.1-15.1V34z M238.4,34h19.7v257.6h-15.3
		c-1.6,0-3.1-0.1-4.5-0.2V34z M260.2,34h19.5v257.6h-19.5V34z M281.7,34h19.8v257.4c-1.2,0.1-2.5,0.1-3.8,0.1h-15.9V34z M303.4,34
		h20v243.8c-3.5,7.5-9.7,12.2-20,13.5V34z M325.5,34h19.8v9.2c-15.5,7.1-17.5,19.4-17.5,40.3v166.3c0,8.7-0.6,16.3-2.3,22.5V34z
		 M347.3,34h12.3c2.4,0,4.1,0,4.6,0.5c0.4,0.4,0.6,1.4,0.6,3.2c-1.9,0.4-4,0.8-6.1,1.3c-4.4,0.9-8.1,2-11.4,3.3V34z M181.3,41.9
		c25.9,5.6,28.5,16.4,28.5,41.5v166.3c0,26.9,5.6,44.8,33.2,44.8h54.7c27.5,0,33.2-17.9,33.2-44.8V83.4c0-25.2,2.6-36,28.5-41.5
		c13.7-2.9,22.4-4,27.4-3.1v268.4c0,14.8-1.5,24.8-9,31.7c-8.2,7.5-23.1,10.9-48.5,10.9c-15.5,0-23.7-0.3-31.7-0.5
		c-7.7-0.2-15-0.5-28.2-0.5s-20,0.2-27.2,0.5c-7.5,0.3-15.2,0.5-30.7,0.5c-25.4,0-40.3-3.4-48.5-10.9c-7.5-6.9-9-16.9-9-31.7V38.7
		C158.9,37.9,167.6,38.9,181.3,41.9z M147.2,29.3c-1.3-0.9-2.3-0.9-2.9-0.7c0-1.1,0.5-2.7,2-2.7c1.5,0,2.9,1.2,2.9,3.5v3.2
		c0,1.1-0.4,1.9-0.8,2.1c-0.2,0.1-0.3,0-0.5-0.1c0.5-0.8,0.8-1.3,0.9-1.4l0.1-0.3C149.1,32.3,149,30.6,147.2,29.3z M145,30.5
		c0.1,0,0.5,0.1,1,0.5c0.8,0.6,0.9,1.2,0.9,1.4c-1,1.5-7.7,12.2-8.9,14.7c-0.2,0.5-0.6,0.7-0.8,0.8c-0.7-0.2-1.7-0.7-2-1.2
		c0-0.1-0.1-0.3,0.1-0.7C136.6,43.7,144,32.1,145,30.5z M134.7,48.9c1,0.7,2.1,0.9,2.3,1l0.2,0l0.2,0c0.1,0,0.6-0.1,1.1-0.5
		c1,0.9,1.5,2.6,1.5,5.3c0,2-1.5,8.2-3,14.3c-0.1,0-0.1,0-0.2,0.1l-0.1,0.1c-1.2,0.8-4,2.6-5.4,5.9V54.5
		C131.4,50.4,133.8,49.2,134.7,48.9z M141.2,45.4c2.1,1.6,3.1,4.6,3.1,9.2c0,5.6-3.7,22.3-5.7,26.4c-0.5-0.5-1.4-1.4-2.1-2.3
		c0.9-3.2,5.5-20,5.5-24c0-3.3-0.7-5.6-2.2-6.8C140.1,47.4,140.6,46.5,141.2,45.4z M145.3,70.4c-0.5-0.5-0.9-0.8-1.2-0.9
		c0.5-2,0.9-4.1,1.2-6.1V70.4z M131.4,82.9c0.2,0.6,0.5,1.3,0.8,2l-0.8,2.6V82.9z M132.8,77.2c0.5-2.5,2.1-4.1,3.5-5.2
		c-0.7,2.5-1.3,4.8-1.8,6.7c-0.1,0.3,0,0.6,0.2,0.9c1.3,1.7,3.1,3.8,4.2,3.8c0,0,0,0,0,0c0.4,0,0.8-0.2,1-0.5
		c1.1-1.4,2.5-6.1,3.7-11.3c0.4,0.3,0.9,1,1.2,2.2c0.1,0.4,0.2,0.8,0.3,1.2c0.1,0.3,0.2,0.7,0.2,1v4.4c-0.2,0.7-0.6,1.4-1.3,2.2
		c-0.1,0.1-0.1,0.2-0.2,0.3c-0.1,0-0.1,0.1-0.2,0.1c-0.3,0.2-0.4,0.6-0.3,0.9c0.1,0.5-0.5,3.8-1.7,6.9c-1.4-0.4-2.6-0.9-2.8-1.1
		c-0.7-0.5-2.6-2-3.3-3.1C133.2,83.1,132.3,79.9,132.8,77.2z M137.5,91.2c0.6,0.5,2,1,3.2,1.4c-0.3,0.6-0.7,1.2-1.1,1.8l-0.5,0.6
		c-1.5,1.9-2.6,3.3-3.1,4.6c-0.5-0.2-1.1-0.3-1.6-0.5c0.5-1.4,1.5-4.3,2.8-8.1C137.4,91.2,137.5,91.2,137.5,91.2z M140.8,96.2
		l0.5-0.6c2.2-2.8,3.5-7.5,3.9-10.2c0,0,0.1,0.1,0.1,0.1V96c-0.1,0.1-0.2,0.2-0.3,0.3c-0.7,0.9-1.6,2.3-2.5,3.6
		c-0.4,0.6-0.8,1.2-1.1,1.7c-1-0.5-2.1-1-3.3-1.4C138.4,99.3,139.6,97.8,140.8,96.2z M144.2,101c0.4-0.6,0.7-1.1,1.1-1.7v4.6
		c-0.3-0.2-1-0.7-2.1-1.4C143.5,102.1,143.8,101.6,144.2,101z M145.3,44.9v2.9c-0.7-1.8-1.7-3.2-3-4.2c0.2-0.4,0.5-0.8,0.8-1.2
		C143.7,43.2,144.5,44,145.3,44.9C145.3,44.9,145.3,44.9,145.3,44.9z M127.1,54.2c0-6.6,4-9.6,7.1-10.2c-0.2,0.4-0.4,0.8-0.6,1
		c-0.5,0.9-0.4,1.7-0.2,2.2c-2,1-4,3.3-4,7.2v39.7c0,0.5,0.4,0.9,0.9,1c0.1,0,0.1,0,0.1,0c0.4,0,0.8-0.3,1-0.7l2.2-7.2
		c0.1,0.1,0.1,0.2,0.2,0.4c0.4,0.6,1.1,1.4,1.8,2c-1.4,4.3-2.6,7.7-3.1,9c-0.6-0.1-1.3-0.3-2-0.4c-1.2-0.2-2.4-0.4-3.5-0.5V54.2z
		 M116.6,99.6c1.8-0.2,6.7-0.5,13.7,0.7c7.3,1.2,12.1,4.1,13.5,5.1l-0.8,6c-3.2-1.7-8.3-3.9-14.6-4.9c-5.2-0.8-9.4-0.8-12.3-0.6
		L116.6,99.6z M114,138.3c0.1,0,0.3,0,0.4,0c-0.1,0.9-0.1,2.2-0.2,3.9C114.1,140.4,114,139,114,138.3z M137,161.9
		c0.8-3.6,1.2-7.3,1.7-10.9c1.5,4.8,0.8,10-1.7,14.3C137,164.1,137,163,137,161.9z M138,148.8c-0.4,2.3-0.7,4.7-1,7
		c0-1.3,0-2.6,0-3.9c0.1-0.3,0.2-0.6,0.3-0.9c0.4-1,0.7-1.8,0.5-2.9c-0.1-0.5-0.5-1.2-0.8-2c0-0.2,0-0.5,0-0.7c0.6,1,1.1,2,1.5,3
		C138.3,148.4,138,148.5,138,148.8z M134.9,171.7c0.1,1.7,0.1,3.4,0.1,5.1c0,0.2-0.1,0.3-0.1,0.5c-0.2-1.4-0.3-2.8-0.2-4.1
		c0-0.7,0.1-1.5,0.1-2.2C134.9,171.2,134.9,171.4,134.9,171.7z M134.3,238.8c-0.2-1.9-0.4-3.8-0.5-5.7c0.3-2.2,0.6-4.4,0.8-6.6
		C135.1,230.5,134.9,234.7,134.3,238.8z M134.5,256.5c-0.2,5-1.2,9.9-2.1,14.9c0,0,0,0,0,0c-0.1-3.2-0.2-6.4-0.3-9.6
		c0.5-3.5,0.8-7,0.7-10.5c0.4-1.8,0.9-3.6,1.2-5.5C134.4,249.4,134.7,252.9,134.5,256.5z M132.4,292.2c0.1-1.9,0.1-3.9,0.1-5.8
		c0,0.3,0,0.6,0.1,0.9C132.7,289,132.6,290.6,132.4,292.2z M112.7,365.6c-0.4,0-0.8,0-1.1,0c1-0.2,1.9-0.5,2.9-0.7
		C113.9,365.1,113.3,365.3,112.7,365.6z M105.2,323.3c0.1,1.8,0.3,3.7,0.5,5.5c-0.3,1.3-0.5,2.5-0.7,3.8
		C105.1,329.5,105.1,326.4,105.2,323.3z M106.1,308.1c0.5,5.6,0.8,11.2,0.7,16.7c-0.1,0.1-0.1,0.1-0.2,0.2c-0.1,0.3-0.2,0.7-0.3,1
		C105.9,320.1,105.8,314.1,106.1,308.1z M114.1,166.1c0.1,3.9,0.2,7.9,0.3,11.8c-0.5,3.2-1.1,6.5-1.6,9.7c0.3-5.7,0.6-11.3,0.8-16.5
		C113.7,169.5,113.9,167.8,114.1,166.1z M118.5,139.8c-0.1,2.1-0.1,4.2-0.1,6.2c-0.3,0.7-0.4,1.1-0.4,1.1l0,0.1
		c0,0.1-0.1,0.6-0.2,1.4c0.2-3.5,0.5-6.6,0.7-8.6C118.4,140,118.4,139.9,118.5,139.8z M134.4,180.2c0,0.2,0,0.4,0.1,0.6
		c-0.1,0.6-0.1,1.2-0.2,1.8c-0.2-1.1-0.3-2.3-0.6-3.4c0-0.1-0.1-0.2-0.2-0.3c-0.1-3-0.3-5.9-0.6-8.9c0.5-0.4,0.9-0.9,1.3-1.4
		c0,0.2-0.1,0.5-0.1,0.7C133.6,173,133.8,176.5,134.4,180.2z M132.7,223.1c-0.4,0.2-0.8,0.4-1.1,0.6c0.2-3.1,1-6.1,1.9-9.2
		c-0.1,0.7-0.2,1.4-0.3,2C133,218.7,132.8,220.9,132.7,223.1z M133.7,226.3c0-0.8,0-1.7,0.1-2.5c0.1,0,0.1-0.1,0.2-0.1
		C133.9,224.5,133.8,225.4,133.7,226.3z M132.8,233c-0.2,1.3-0.4,2.6-0.6,3.9c-0.7,4.3-1.7,8.7-2.3,13c-0.1-1.7-0.2-3.4-0.3-5.1
		c1.6-5,3.3-9.7,2.5-15.2c-0.1-0.8-0.3-1.6-0.5-2.4c-0.1-0.8-0.1-1.6-0.1-2.5c0.4-0.2,0.8-0.4,1.1-0.6
		C132.6,227.2,132.7,230.1,132.8,233z M129.9,335.7c0-0.7,0-1.4,0-2.1c0-1.7,0.2-3.3,0.3-5C130.3,331,130.3,333.4,129.9,335.7z
		 M126.5,352.7c0-0.6,0-1.2,0.1-1.7c0.2-1,0.3-2.1,0.3-3.1c0-0.1-0.1-0.3-0.2-0.4c0.1-2,0.2-4,0.2-6.1c0.2-0.3,0.5-0.7,0.7-1
		C127.7,344.6,127.5,348.9,126.5,352.7z M104.7,340.1c0.3-1.1,0.5-2.1,0.6-3.2c0.3-1.3,0.6-2.6,0.8-4c0,0.1,0,0.3,0.1,0.4
		c0,0.1,0.1,0.2,0.1,0.2c-0.3,3.2-0.8,6.3-1.5,9.4c-0.1,0.6,0.8,0.9,1,0.3c0.5-2.4,0.9-4.8,1.3-7.3c0,2,0,4,0,6
		c-0.5,1.4-0.9,2.8-1.1,4.1c-0.2,0.2-0.4,0.3-0.5,0.5C104.8,344.7,104.7,342.4,104.7,340.1z M106.4,281.9c0.2-0.3,0.5-0.7,0.7-1
		c-0.6,2.7-0.9,5.4-0.8,8.1C105.4,286.8,105.8,284.3,106.4,281.9z M117.4,165.8c0.1,0.3,0.2,0.6,0.3,0.8c0.3,0.9,0.7,1.8,1,2.5
		c0,0.1,0,0.1,0.1,0.2c0,0.9-0.1,1.7-0.1,2.6c-0.1,0.1-0.1,0.2-0.2,0.3c-0.6-0.3-1.2-0.8-1.4-2.1c-0.1-0.4-0.1-0.8-0.1-1.3
		C117.1,167.7,117.2,166.7,117.4,165.8z M118.3,160.3c0.1,2.1,0.3,4.2,0.5,6.3c0-0.1-0.1-0.2-0.1-0.4c-0.3-0.9-0.6-2-0.7-3.3
		C118,162.1,118.1,161.2,118.3,160.3z M123.1,143.9c0.4,1.2,0.8,2.4,1.1,3.6c0,0,0,0.1,0,0.1c-0.4,0.8-0.7,1.6-1,2.4
		c-0.3-1.6-0.6-3.1-0.9-4.7C122.6,144.8,122.9,144.3,123.1,143.9z M131.3,181.9c0,0.5,0.1,1,0.1,1.4c-0.2,1.2-0.3,2.5-0.4,3.8
		c-0.6-6.4-1.5-12.8-1.4-19.2c0-0.1,0-0.1,0-0.2c0.3-2,0.4-3.9,0.5-5.9c0.1-0.3,0.2-0.5,0.3-0.8c0.1,0.3,0.1,0.7,0.2,1
		c-0.4,2.9-0.5,5.8-0.5,8.8c0,0.3,0.3,0.6,0.6,0.5c0.1,0,0.1-0.1,0.2-0.1C130.9,174.7,131,178.3,131.3,181.9z M132.3,183.2
		c0.1-0.5,0.2-0.9,0.4-1.4c0.2,3,0.4,6.1,0.8,9.1c-0.2,2.6-0.6,5.2-1.1,7.7c-0.2-0.6-0.5-1.2-0.7-1.8c0.3-2.7,0.1-5.5,0.2-8.2
		C132.2,186.8,132.3,185,132.3,183.2z M130.6,302.9c-0.1,0.8-0.2,1.5-0.3,2.3c0-0.7,0-1.4,0-2.1c0.1-0.5,0.2-1.1,0.3-1.7
		c0.1-0.4,0.2-0.7,0.2-1.1c0,0,0,0.1,0,0.1C130.7,301.3,130.6,302.1,130.6,302.9z M108.1,331.2c0.3,1.6,0.6,3.1,1,4.4
		c-0.2,0.7-0.3,1.4-0.5,2.1c-0.1,0.5-0.3,1-0.5,1.6C108.1,336.5,108.1,333.8,108.1,331.2z M113.6,194.8c0,2.7,0.1,5.5,0.3,8.2
		c-0.3,2.5-0.6,5-0.9,7.7c0,0.1,0,0.2,0,0.3c-0.2-2.7-0.5-5-0.7-6.4C111.8,201.7,112.4,198.6,113.6,194.8z M116.9,186.1
		c0.2-0.6,0.5-1.3,0.8-2c-0.1,1.2-0.3,2.4-0.4,3.5c-0.5,0.9-0.8,1.9-1,2.8c0,0,0,0,0,0.1c-0.2-0.2-0.5-0.5-0.7-0.7
		c0-0.1,0-0.1,0-0.2C115.9,188.5,116.4,187.3,116.9,186.1z M131.2,157.9c-0.1,0.4-0.1,0.8-0.2,1.2c0-0.1,0-0.1,0-0.2
		c0.1-0.4,0.1-0.7,0.2-1.1c0-0.7,0-1.4,0-2.1c0,0.1,0.1,0.2,0.1,0.4C131.2,156.7,131.2,157.3,131.2,157.9z M130.5,222.7
		c-0.1,0.3-0.1,0.6-0.2,0.9c-0.2-0.5-0.4-1-0.7-1.4c0-0.5,0-0.9,0-1.4c2.2-0.7,2-6.1,2-7.9c0-2.2,0-4.3-0.1-6.5
		c0.3-1.3,0.5-2.6,0.8-3.8C133.8,209.1,131.7,216.4,130.5,222.7z M129.5,261c-0.1,0.3-0.1,0.6-0.2,0.8c0-0.8,0.1-1.6,0.1-2.4
		C129.4,259.9,129.4,260.4,129.5,261z M130.2,298.8c-0.1-2.9-0.1-5.8-0.2-8.7c0.2-0.6,0.3-1.1,0.5-1.7c0.1,0.4,0.1,0.7,0.2,1.1
		c0,2.2,0,4.4,0,6.5c0,0.2,0,0.4-0.1,0.6C130.5,297.4,130.3,298.1,130.2,298.8z M119,354.4c-0.1,0.2-0.3,0.5-0.5,0.7
		c-0.5-0.7-1.2-1.3-2-1.7c0,0,0,0,0-0.1c0.1,0,0.1,0,0.2,0.1l0.8,0.2c0.4,0.1,0.9,0.2,1.5,0.4C119.1,354.1,119.1,354.3,119,354.4z
		 M103.2,357.7c-0.2,0-0.3,0-0.5,0.1c1.2-0.9,2.4-1.9,3.6-2.8c0,0.9,0.4,1.7,1.2,2.3c0,0-0.1,0-0.1,0
		C105.9,357.2,104.4,357.6,103.2,357.7z M111.1,277c-0.1-1.2-0.2-2.6-0.3-4.1c0.1-0.7,0.2-1.3,0.2-2c0.2-0.5,0.3-1,0.5-1.5
		c0,0,0,0,0,0c-0.1,2.7-0.2,5.3-0.3,7.7C111.2,277,111.2,277,111.1,277C111.1,277,111.1,277,111.1,277z M128.6,146.5
		c0.1,0.6,0.1,1.2,0.1,1.8c-0.4-0.8-0.8-1.7-1.2-2.5C127.9,146,128.3,146.3,128.6,146.5z M128.5,167.5c-0.2,1.4-0.4,2.8-0.6,4.2
		c0-0.9,0-1.7,0-2.6c0-1.2,0-2.3,0-3.5c0.1-0.1,0.1-0.3,0.2-0.4c0.2-0.3,0.3-0.6,0.5-0.9C128.6,165.4,128.5,166.5,128.5,167.5z
		 M130.7,212.4c0,1.3,0.4,3.3,0,4.5c0,0.2,0,0.4,0,0.7c-0.3,0.1-0.5,0.2-0.8,0.3c0.2-2.2,0.5-4.5,0.9-6.7
		C130.7,211.6,130.7,212,130.7,212.4z M130,286c0,0.1,0.1,0.3,0.1,0.4c0,0.1-0.1,0.2-0.1,0.3C130,286.5,130,286.3,130,286z
		 M129.1,289.7c-0.3,1.2-0.5,2.3-0.7,3.5c0-0.9,0-1.8,0-2.7c0.4-3.1,0.5-6.2,0.5-9.3c0.1,0.3,0.2,0.7,0.2,1
		C129.1,284.8,129.1,287.2,129.1,289.7z M111.2,359.6c-0.1-0.4-0.2-0.7-0.5-1c0,0,0,0-0.1-0.1c0.2,0,0.3,0,0.5,0.1
		c0.1,0,0.3,0,0.4,0c0.1,0.2,0.3,0.3,0.4,0.3c0.4,0,0.8-0.1,1.1-0.2c0.8,0,1.7,0,2.5,0c0,0,0.1,0,0.1,0
		C114.2,358.9,112.7,359.2,111.2,359.6z M98.3,362.7c-0.5,0-1.1,0.1-1.6,0.1c0.8-0.3,1.6-0.5,2.4-0.8
		C98.8,362.3,98.6,362.5,98.3,362.7z M108.7,361.5c0.2-0.1,0.3-0.2,0.3-0.3c0.4-0.1,0.7-0.2,1.1-0.3c-0.1,0.2-0.2,0.3-0.3,0.5
		c-0.4,0-0.9,0.1-1.3,0.1C108.6,361.5,108.7,361.5,108.7,361.5z M105.2,361.2c-1.5,0.3-3.1,0.7-4.6,1c0.7-0.5,1.4-0.9,2.2-1.2
		c0.5-0.2,1-0.3,1.5-0.5c0.4-0.1,0.4-0.6,0.2-0.8c1.4-0.4,2.8-0.8,4.2-1.2c0.3,0.1,0.6,0.1,0.8,0.3c0.4,0.3,0.7,0.7,0.8,1.1
		C108.5,360.2,106.9,360.7,105.2,361.2z M108.9,357.1c-1.8-0.8-1.9-2-1.3-3.1l0.1,0.1c0.1-0.1,0.3-0.4,0.4-0.6
		c0.2-0.1,0.4-0.3,0.5-0.4c0.6,0.5,1.2,1,2,1.3c0.2,0.7,0.5,1.3,0.9,1.9c0,0.5-0.1,0.9-0.1,1.4c-0.4,0-0.9-0.1-1.3-0.2
		c0-0.2-0.2-0.4-0.5-0.4c-0.2,0-0.5,0-0.7,0C109.1,357.1,109,357.1,108.9,357.1z M113.2,286.8c0.2,0.4,0.4,0.8,0.6,1.2
		c0.1,0.3,0.3,0.5,0.4,0.8c-0.3,1.3-0.6,2.6-1,3.9C113.1,291,113.1,289,113.2,286.8z M115.6,214c-0.2-3.4-0.5-6.7-0.6-10.1
		c0.3-3.7,0.9-7.4,1.7-11.1c-0.6,7-0.7,14-0.5,21.1c-0.2,0.4-0.3,0.8-0.5,1.2C115.6,214.8,115.6,214.4,115.6,214z M125.9,159.8
		c0.1,2.3,0.2,4.6,0.4,6.9c-0.1,0.3-0.3,0.6-0.4,0.9c-0.1-0.6-0.2-1.2-0.2-1.8c0-0.8-0.1-1.6-0.1-2.4c0-0.5,0-0.9,0.1-1.4
		C125.7,161.2,125.8,160.5,125.9,159.8z M126.2,308.6c-0.4-1.4-0.8-2.7-1.2-4.1c0.1-0.1,0.1-0.3,0.2-0.4c0-0.1,0.1-0.2,0-0.3
		c0.2,0.5,0.4,1,0.6,1.3c0.3,0.6,0.6,1.3,0.8,1.9c-0.1,0.4-0.2,0.8-0.3,1.2C126.3,308.4,126.2,308.5,126.2,308.6z M126.4,320.5
		c-0.3,0.9-0.7,1.7-1.1,2.6c0,0.1-0.1,0.1-0.1,0.2c-0.1-0.1-0.3-0.1-0.4-0.1c0-0.1,0-0.2,0-0.4c-0.3-3.4,0.3-6.5,1.1-9.6
		C126.3,315.7,126.5,318.1,126.4,320.5z M112.6,357.4c0,0,0-0.1-0.1-0.3c0.2,0.1,0.3,0.3,0.5,0.4
		C112.8,357.5,112.7,357.5,112.6,357.4z M112.7,322.8c0-0.1-0.1-0.2-0.1-0.3c0.2-1.1,0.4-2.2,0.6-3.4c0.3,0.1,0.7-0.1,0.7-0.5
		c-0.1-0.9-0.1-1.9-0.1-2.8c0.1-0.4,0.1-0.8,0.2-1.2c0.2-0.5,0.3-1,0.5-1.4c-0.1,0.8-0.2,1.7-0.4,2.5c-0.1,0.5,0.3,0.7,0.6,0.6
		c0.1,2,0.2,3.8,0.1,5.3c-0.5,1-1.1,2.1-1.6,3.1C113,324,112.8,323.4,112.7,322.8z M111.2,325c-0.7-2.7-0.8-7.7-0.6-13
		c0.3,1.7,0.7,3.3,1.4,5c-0.9,3-0.9,3.5-0.4,5.7C111.5,323.4,111.4,324.2,111.2,325z M112.1,301.5c0.3-0.5,0.6-0.9,1-1.3
		c0.3,2.5,0.7,5.4,1,8.3c-0.1,0.4-0.1,0.7-0.2,1.1c-0.5,1.5-0.9,3.1-1,4.7c-0.1,0.4-0.2,0.8-0.4,1.1
		C110.9,310.9,111.1,306.2,112.1,301.5z M115.6,256.2c0.3-0.7,0.7-1.3,1.1-1.9c0.2,2.5,0.3,4.6,0.5,6.1c-0.1,0.7-0.1,1.4-0.2,2.2
		c-0.2,0-0.5,0.2-0.5,0.5c0,0.1,0,0.2,0,0.3c-0.3-0.9-0.6-1.9-0.9-2.8C115.6,259.1,115.6,257.7,115.6,256.2z M116,242.2
		c0.1-0.7,0.2-1.5,0.4-2.2c-0.1,4.5,0,9.1,0.3,12.9c-0.4,0.5-0.7,1-1,1.6c0-0.5,0-0.9,0-1.4C116,249.5,115.9,245.9,116,242.2z
		 M117.9,203.4c0-2.4,0.5-4.6,1.1-6.8c-0.4,4-0.8,8.2-1.1,12.4C118,207.2,117.9,205.3,117.9,203.4z M117.6,193.3
		c0.3,0.3,0.7,0.7,1,1.1c-0.7,1.9-1.2,3.8-1.5,5.7c0,0.2,0,0.4-0.1,0.7c0.1-2.2,0.2-4.4,0.4-6.6
		C117.5,193.9,117.6,193.6,117.6,193.3z M123.9,184c0,0.3,0.1,0.5,0.1,0.8c0,0.2,0,0.4-0.1,0.6c-0.1,0-0.2-0.1-0.2-0.1
		c0-0.3,0-0.6,0.1-0.8C123.8,184.3,123.9,184.1,123.9,184z M125,271.8c0.1,2.8-0.3,5.5-1,8.2c0-0.9,0-1.7,0.1-2.6
		c0.2-2.4,0.4-4.9,0.6-7.3c0-0.4,0.1-0.9,0.1-1.3C124.9,269.8,125,270.8,125,271.8z M126.2,282.6c0.1,1.3,0.1,2.6,0.2,3.8
		c0.2,2.2,0.4,4.5,0.6,6.7c0,0.3-0.1,0.6-0.1,1c-0.2,1.2-0.4,2.5-0.7,3.7c-0.1,0.6-0.3,1.2-0.4,1.8c-0.6-0.1-1.1-0.2-1.4-0.5
		c0.3-1.6,0.5-3.2,0.7-4.9c0.4-3.5,0.7-7.1,0.9-10.6C126,283.3,126.1,283,126.2,282.6z M127.3,278.7c0,2.3,0,4.6,0,6.9
		c-0.2-2-0.3-4-0.2-6.1C127.2,279.2,127.3,279,127.3,278.7z M125.1,303.6c-0.1-0.1-0.3-0.2-0.4-0.2c0-0.1-0.1-0.2-0.1-0.3
		c0-0.1-0.1-0.2-0.1-0.3c0.1,0.1,0.2,0.1,0.3,0.1C124.8,303.1,124.9,303.3,125.1,303.6z M122.3,323.4c0.2,1.1,0.3,2.1,0.3,3.2
		c-0.8,1.3-1.5,2.7-2.2,4.1c0-0.3-0.1-0.5-0.1-0.8c0.7-2.3,1.4-4.7,1.9-7.1C122.3,323,122.3,323.2,122.3,323.4z M117.4,238.4
		c0,0.5,0,1,0.1,1.5c0.2,3.9,0.2,7.8,0.2,11.7c0,0-0.1,0.1-0.1,0.1C117.4,247.6,117.2,242.9,117.4,238.4z M120.2,196.2
		c0.7,0.8,1.3,1.7,1.8,2.5c0,0.1,0,0.3,0,0.4c-0.3,2.2-0.6,4.4-0.8,6.6c-0.3,1.2-0.6,2.4-1,3.6C120.2,204.9,120.2,200.6,120.2,196.2
		z M121.4,190.2c0.2,2.2,0.4,4.4,0.5,6.6c-0.5-0.7-1.1-1.4-1.7-2.1c0.1-0.8,0.2-1.6,0.3-2.3C120.8,191.6,121.1,190.9,121.4,190.2z
		 M129.5,204.4c-0.1,0.2-0.3,0.3-0.4,0.5c-0.1,0.1-0.3,0.3-0.4,0.4c0-0.4,0.1-0.7,0.1-1.1c0.1,0,0.2-0.1,0.3-0.2
		c0.2-0.3,0.4-0.5,0.6-0.8C129.5,203.6,129.5,204,129.5,204.4z M109.5,344.1c0.1-0.1,0.1-0.2,0.1-0.3c0,0,0.1,0,0.1-0.1
		c-0.1,0.5-0.2,1.1-0.3,1.6c-0.2,0.3-0.5,0.5-0.7,0.7c0.1-0.5,0.2-1,0.4-1.5C109.3,344.3,109.4,344.2,109.5,344.1z M118.2,233.2
		c0.5,1.4,1.1,2.8,1.8,4.1c0.2,0.4,0.7,0.3,0.9-0.1c-0.5,4.2-1.1,8.4-1.7,12.6c-0.2,0.2-0.4,0.4-0.5,0.6c0.1-5.7-0.2-11.3-0.5-17
		C118.1,233.3,118.2,233.2,118.2,233.2z M125,184.4c0-0.3,0.1-0.6,0.1-0.9c0.1,0.4,0.2,0.9,0.4,1.3c-0.1,0.4-0.2,0.9-0.2,1.3
		c0,0-0.1-0.1-0.1-0.1C125.1,185.5,125.1,185,125,184.4z M125.7,238.8c0-2-0.1-3.9-0.4-5.9c0.2-1.5,0.4-3.1,0.4-4.6
		c0.4-0.3,0.7-0.5,1.1-0.8c-0.2,3.4-0.4,6.8-0.6,10.3C126.1,238.2,125.9,238.5,125.7,238.8z M121.3,319.3c0,0.1,0,0.2,0.1,0.3
		c-0.4,0.6-0.9,1.2-1.4,1.8c0.1-1.8,0.3-3.5,0.6-5.3c0.2,0.8,0.5,1.7,0.7,2.5C121.3,318.8,121.3,319,121.3,319.3z M122.1,207
		c0.1-0.4,0.2-0.8,0.3-1.2c0.2,5.4,0.1,10.7-0.1,16.1c0,0.3,0,0.6-0.1,0.9c-0.1-0.5-0.1-1-0.2-1.5
		C121.7,216.4,121.7,211.7,122.1,207z M125.6,191c0.1-0.9,0.3-1.7,0.4-2.6c0.3,0.5,0.6,1,0.8,1.6c0.3,5.4,0.5,10.9,0.5,16.3
		c-0.5,0.4-1.1,0.8-1.5,1.3c0-0.2,0-0.3,0-0.5C126.1,201.8,126,196.5,125.6,191z M126.9,226.4c-0.4,0.2-0.7,0.5-1.1,0.7
		c0-0.9,0-1.9,0-2.8c-0.1-1.8-0.2-3.5-0.4-5.3c0.5,1.3,0.9,2.6,1.3,3.7c0.1,0.4,0.2,0.7,0.4,1.1C127,224.7,126.9,225.5,126.9,226.4z
		 M124.6,240.6C124.6,240.6,124.6,240.6,124.6,240.6c-0.1-0.7-0.1-1.5-0.2-2.3c0.1-0.4,0.2-0.9,0.3-1.3
		C124.7,238.2,124.7,239.4,124.6,240.6z M120.2,311.3c-0.1-0.2-0.1-0.4-0.2-0.6c0-0.1-0.1-0.2-0.1-0.4c0.1-0.9,0.1-1.8,0.2-2.7
		c0.6-1.9,1.3-3.9,1.7-5.8c0-0.2,0.1-0.4,0.1-0.6c0,1.8,0,3.6-0.1,5.4c-0.2,0.9-0.4,1.9-0.7,2.8
		C120.8,310.1,120.5,310.7,120.2,311.3z M115.3,341.4c0.4-0.1,0.7-0.2,1.1-0.3c0.2,0.3,0.3,0.7,0.5,0.9c0.1,0.1,0.1,0.2,0.2,0.3
		c-0.2,0.3-0.3,0.7-0.5,1c-0.3,0.5-0.7,1-1.1,1.4c-0.3-0.6-0.5-1.1-0.7-1.7C115,342.6,115.2,342,115.3,341.4z M121,267.5
		c0-0.5,0-1,0-1.4c-0.1-2.8,0-5.5,0.2-8.3c0.3,0.7,0.7,1.4,1,2.1C121.8,262.4,121.4,264.9,121,267.5z M117.3,331
		C117.3,331,117.3,331,117.3,331C117.3,331,117.3,331,117.3,331C117.3,331,117.3,331,117.3,331z M119.8,302.1
		c0.1-0.1,0.2-0.2,0.4-0.3c-0.1,0.3-0.2,0.6-0.3,1C119.8,302.5,119.8,302.3,119.8,302.1z M117.2,297.6c0-0.3,0-0.5,0-0.8
		c0-0.1,0-0.1,0-0.2C117.2,297,117.2,297.3,117.2,297.6z M118.8,304.8c0-0.4,0-0.8,0.1-1.2c0-0.1,0-0.2,0.1-0.3
		c0.1,0.7,0.1,1.4,0.1,2.1c0,0.2-0.1,0.3-0.1,0.5C118.9,305.5,118.8,305.2,118.8,304.8z M120.7,300.1c-0.4,0.2-0.8,0.5-1.1,0.8
		c0,0,0-0.1,0-0.1c0.3-1.2,0.7-2.4,1.1-3.6c0.1,0.5,0.3,1,0.5,1.5C121,299.1,120.8,299.6,120.7,300.1z M121.6,297
		c-0.1-0.6-0.2-1.2-0.2-1.9c0.2-0.6,0.4-1.1,0.7-1.7c0-0.1,0.1-0.2,0.1-0.3C122,294.4,121.8,295.7,121.6,297z M120.3,295.1
		c-0.4,1-0.8,2.1-1.1,3.2c0,0,0,0,0,0c0.1-0.7,0.1-1.4,0.1-2c0-0.4-0.5-0.6-0.8-0.4c0.1-1.7,0.3-3.5,0.5-5.2
		c0.9-3.3,1.7-6.6,1.8-9.9c0.5-2.4,1.1-4.7,1.6-7.1c0,3.8,0.1,7.5,0.1,11.3c-0.9,2.4-1.8,4.8-2.1,7.3
		C120.2,293.1,120.2,294.1,120.3,295.1z M119.3,278c0-0.7,0.1-1.3,0.1-2c0,0.2,0.1,0.4,0.1,0.6C119.5,277.1,119.4,277.5,119.3,278z
		 M116.6,334.4c0,0.3,0.1,0.6,0.1,0.9c-0.1,0.9-0.3,1.9-0.4,2.8c-0.1,0.4,0.4,0.6,0.7,0.4c0.1,0.5,0.1,1,0.2,1.5
		c-0.1,0-0.1,0-0.2,0.1c-0.3-0.6-0.6-1.4-0.9-2.3C116.3,336.6,116.5,335.5,116.6,334.4z M116,340.3c-0.1,0-0.3,0.1-0.4,0.1
		c0.1-0.2,0.1-0.5,0.2-0.8C115.8,339.9,115.9,340.1,116,340.3z M114.8,345.7c-0.3,0.3-0.6,0.6-0.9,0.9c0-0.3,0-0.5-0.1-0.8
		c0.2-0.4,0.4-0.8,0.5-1.2C114.4,345,114.6,345.3,114.8,345.7z M108.2,350.6C108.2,350.6,108.2,350.5,108.2,350.6
		C108.2,350.5,108.2,350.5,108.2,350.6C108.2,350.5,108.2,350.6,108.2,350.6z M117.6,345.2c-0.1,0-0.1,0.1-0.2,0.1
		c-0.4,0.3-0.9,0.6-1.3,0.8c0-0.1-0.1-0.2-0.1-0.3c0.6-0.6,1.1-1.2,1.5-1.9c0.1-0.1,0.1-0.2,0.2-0.3c0,0,0,0.1,0,0.1
		c0,0.3,0.1,0.5,0.1,0.8C117.7,344.7,117.6,344.9,117.6,345.2z M118,324.5c-0.2,0.5-0.4,1-0.6,1.5c0-0.7,0.1-1.4,0.1-2.1
		c0.2-0.9,0.4-1.8,0.6-2.7C118.1,322.3,118.1,323.5,118,324.5z M118,315.4c-0.1-0.3-0.1-0.6-0.2-0.8c0,0,0,0,0,0
		c0.2,0,0.3-0.1,0.3-0.3c0.1-0.7,0.3-1.4,0.4-2.1c0.1-0.2,0.1-0.4,0.2-0.6c-0.1,1.1-0.3,2.2-0.5,3.4
		C118.2,315.1,118.1,315.2,118,315.4z M121.5,292c0.2-1.3,0.5-2.7,0.9-3.9c0,0.7-0.1,1.4-0.1,2.1C122,290.8,121.8,291.4,121.5,292z
		 M122.5,268c-0.1,0.1-0.2,0.2-0.2,0.4c0,0.2,0,0.4,0,0.6c-0.4,2.1-0.9,4.1-1.4,6.2c0-0.4,0.1-0.8,0.1-1.3c0.2-1.3,0.4-2.6,0.6-3.8
		c0.4-2.8,0.9-5.6,1.3-8.5c0,0.1,0.1,0.2,0.1,0.3c0,1.1,0,2.3,0,3.4C122.9,266.2,122.7,267.1,122.5,268z M122.3,258
		c-0.4-0.8-0.7-1.6-1-2.4c0.2-2,0.5-4,0.8-6.1c0.1,0.4,0.1,0.9,0.2,1.3c0,0.3,0.2,0.5,0.5,0.5c0,0.5,0,1.1,0,1.6
		C122.7,254.7,122.5,256.4,122.3,258z M120.6,251.7c0-0.8,0.2-1.6,0.4-2.4c0.1-0.1,0.1-0.1,0.2-0.2c-0.2,1.1-0.4,2.1-0.5,3.2
		C120.6,252.1,120.6,251.9,120.6,251.7z M122.5,238.3c0,1.2,0,2.4,0.1,3.5c0,0.1,0,0.2-0.1,0.3c-0.1-1.6-0.1-3.3-0.2-4.9
		C122.4,237.6,122.5,238,122.5,238.3z M124.1,233.2c0-0.5,0-1.1-0.1-1.6c0.1,0.3,0.1,0.6,0.2,0.8C124.2,232.7,124.1,233,124.1,233.2
		z M124.2,228.2c-0.1-0.3-0.2-0.6-0.3-0.9c0-2.7,0.1-5.3,0.4-8c0,0.4,0.1,0.8,0.1,1.2c0.3,2.5,0.3,4.9,0.1,7.4
		C124.5,228,124.4,228.1,124.2,228.2z M127.3,210.6c-0.1,1.7-0.1,3.4-0.1,5.1c-0.4,1.1-0.3,2.2-0.1,3.1c-0.6-0.5-0.9-1.9-1.1-2.4
		c-0.3-1.5-0.3-3.1-0.3-4.7c0-0.8,0-1.7,0-2.5c0.4-0.7,0.9-1.2,1.5-1.6C127.3,208.6,127.3,209.6,127.3,210.6z M126.7,219.7
		c0.1,0.1,0.3,0.3,0.5,0.4c0,0.3,0,0.6,0,0.9C127,220.5,126.8,220.1,126.7,219.7z M123.7,216.5c-0.1,0.5-0.1,1-0.2,1.4
		c0-1.3,0.1-2.6,0.1-4c0.1,0.5,0.1,1,0.2,1.4C123.8,215.7,123.8,216.1,123.7,216.5z M121.5,240.8c0.1,1.4,0.2,2.9,0.3,4.3
		c-0.5,0.8-0.9,1.7-1.2,2.6C120.8,245.5,121.2,243.1,121.5,240.8z M119.7,253.2c0.1,0.8,0.3,1.5,0.5,2.3c-0.2,2.1-0.4,4.2-0.4,6.3
		c0,3.9,0.3,7.8,0.2,11.6c0,0.2-0.1,0.4-0.1,0.6c0-0.1,0-0.1,0-0.2c-0.1-0.5-0.3-1-0.4-1.5c0.1-3.8,0.1-7.7-0.1-11.5
		c0-0.4-0.4-0.6-0.7-0.5C119,258,119.4,255.6,119.7,253.2z M118.5,269.4c0-0.1-0.1-0.3-0.1-0.4c0-0.4,0.1-0.7,0.1-1.1
		C118.5,268.4,118.5,268.9,118.5,269.4z M118.5,272.6c0,2.6-0.1,5.3-0.3,7.9c-0.1,1.7-0.1,3.3-0.3,5c-0.2,0.5-0.3,1-0.5,1.5
		c0.3-5.5,0.5-10.9,0.7-15.2C118.3,272,118.4,272.3,118.5,272.6z M116.2,314.7c0-0.4,0.1-0.9,0.2-1.3c0,1.3-0.1,2.5-0.1,3.8
		c-0.1,0.5-0.2,1-0.2,1.6c-0.1-1.2-0.2-2.4-0.3-3.6C115.9,315.2,116.1,315.1,116.2,314.7z M114.9,337.3c0.1,0.2,0.1,0.3,0.2,0.5
		c-0.1,0.4-0.1,0.8-0.2,1.2c-0.1,0.6-0.2,1.1-0.4,1.7c-0.1,0-0.3,0.1-0.4,0.1c0,0,0,0,0-0.1C114.4,339.6,114.7,338.4,114.9,337.3z
		 M113.6,342.4c0.1,0.2,0.1,0.4,0.2,0.7c-0.1,0.4-0.2,0.7-0.4,1.1c-0.1-0.2-0.1-0.3-0.2-0.5C113.4,343.3,113.5,342.9,113.6,342.4z
		 M112.8,345.7c-0.2,0.3-0.3,0.7-0.5,1c0,0,0,0,0,0c0.2-0.5,0.3-0.9,0.5-1.4C112.7,345.5,112.7,345.6,112.8,345.7z M108.9,347.1
		c0.1,0,0.1-0.1,0.2-0.1c0,0.1,0,0.2-0.1,0.3C109,347.2,108.9,347.2,108.9,347.1z M114,348.6c0.2-0.1,0.5-0.3,0.7-0.4c0,0,0,0,0,0.1
		c-0.5,0.4-1.1,0.9-1.5,1.4c0-0.1,0-0.2,0-0.3C113.5,349,113.8,348.8,114,348.6z M116.2,348.4c0.1,0.2,0.3,0.4,0.4,0.6
		c-0.2,0.2-0.4,0.3-0.7,0.5c-0.1-0.3-0.1-0.6-0.1-0.9C115.9,348.5,116,348.4,116.2,348.4z M117.2,347.7l0.2,0.1
		c0.1-0.1,0.1-0.2,0.2-0.3c0.1-0.1,0.2-0.1,0.3-0.2c-0.2,0.3-0.3,0.6-0.5,1c-0.1-0.2-0.2-0.3-0.3-0.5
		C117.1,347.8,117.1,347.8,117.2,347.7z M118.9,343.9c-0.1,0.1-0.2,0.2-0.3,0.3c0-0.2,0-0.4-0.1-0.6c-0.1-0.6-0.1-1.2-0.2-1.8
		c0.1-0.4,0.2-0.7,0.3-1.1c0.5-0.1,0.9-0.3,1.3-0.5c0.2-0.1,0.5-0.2,0.7-0.3C120.2,341.2,119.6,342.5,118.9,343.9z M118,338.2
		C118,338.2,118,338.2,118,338.2C118,338.2,118,338.2,118,338.2C118,338.2,118,338.2,118,338.2C118,338.3,118,338.2,118,338.2z
		 M118.9,325.9c0-0.1-0.1-0.2-0.1-0.3c0-0.1,0-0.1,0-0.2c0-0.1,0-0.3,0.1-0.4c0,0,0,0,0,0C118.9,325.3,118.9,325.6,118.9,325.9z
		 M119,321.7c-0.1-1.1-0.2-2.1-0.4-3.2c0.1-0.4,0.1-0.8,0.2-1.1l0.2-1.2c0.1-0.3,0.1-0.6,0.2-0.9c0.2-0.5,0.5-0.9,0.7-1.4
		c0,0.1,0.1,0.2,0.1,0.3C119.5,316.7,119.1,319.2,119,321.7z M126.4,187.3c-0.1-0.1-0.2-0.2-0.3-0.3c0-0.1,0-0.1,0-0.2
		C126.3,187,126.4,187.2,126.4,187.3z M124.9,202.4c-0.1-0.4-0.3-0.9-0.5-1.3c0.1-1.4,0.3-2.8,0.4-4.3
		C124.9,198.7,124.9,200.6,124.9,202.4z M124.5,204.5c0.1,0.6,0.2,1.4,0.2,2.1c-0.1,1-0.1,1.9-0.2,2.9c-0.2,0.4-0.3,0.9-0.4,1.3
		c-0.1-0.6-0.2-1.2-0.3-1.9c0.1-1.8,0.2-3.7,0.4-5.5C124.3,203.8,124.4,204.1,124.5,204.5z M123.3,202.9c0-0.7-0.1-1.5-0.1-2.2
		c0.1,0.2,0.2,0.3,0.2,0.5C123.4,201.8,123.3,202.3,123.3,202.9z M120.8,215.9c-0.1-0.2-0.2-0.5-0.2-0.7c-0.1-0.9-0.1-1.9-0.1-2.8
		c0.2-0.5,0.3-0.9,0.5-1.4C120.8,212.6,120.8,214.2,120.8,215.9z M118.9,251.5c-0.1,0.9-0.3,1.8-0.4,2.7c0-0.8,0-1.6,0.1-2.3
		C118.7,251.7,118.8,251.6,118.9,251.5z M112.2,343.7c-0.6,1.8-1.2,3.5-1.9,5.2c-0.2-0.2-0.4-0.3-0.5-0.5c0.2-0.9,0.4-1.8,0.6-2.7
		c0.6-0.7,1.1-1.5,1.6-2.5C112.1,343.4,112.1,343.5,112.2,343.7z M112.2,350.2c0,0.1,0,0.1,0,0.2c0,0,0,0-0.1,0
		C112.1,350.3,112.1,350.2,112.2,350.2z M114.9,349.3c0.1,0.3,0.1,0.6,0.2,0.9c-0.4,0.4-0.8,0.7-1.1,1.1c-0.2-0.1-0.5-0.2-0.7-0.3
		C113.7,350.4,114.3,349.8,114.9,349.3z M115.4,351.2c0.1,0.2,0.1,0.4,0.2,0.6c0,0.1,0.1,0.1,0.1,0.2c-0.3-0.1-0.5-0.2-0.8-0.3
		C115.1,351.6,115.3,351.4,115.4,351.2z M122.3,341.7c-0.1-0.4-0.1-0.8-0.2-1.1c0-0.4,0.1-0.8,0.1-1.2c0.1-0.2,0.1-0.4,0.2-0.6
		c0.2-0.1,0.3-0.2,0.5-0.4c0,0,0,0.1,0,0.1C122.7,339.6,122.5,340.6,122.3,341.7z M122.8,337.2c0.1-0.2,0.1-0.5,0.2-0.7
		c0,0.2,0,0.4,0,0.6C122.9,337.1,122.8,337.2,122.8,337.2z M119,339.4c0,0-0.1,0-0.1,0c0.2-1.2,0.2-2.3,0.1-3.5
		c0.3-0.7,0.6-1.3,0.9-2c0.3,1.6,0.6,3.1,0.8,4.6C120.2,338.9,119.6,339.2,119,339.4z M119.3,332.9c0.1-0.3,0.2-0.6,0.3-0.8
		c0,0.1,0,0.1,0,0.2C119.5,332.5,119.4,332.7,119.3,332.9z M118.5,332.2c0-0.1,0-0.1,0-0.2c0.1-2,0.3-4,0.4-6
		c0.1,1.3,0.1,2.5,0.3,3.9C119,330.7,118.8,331.4,118.5,332.2z M119.9,323.1c0.5-0.8,1.1-1.5,1.7-2.2c-0.4,2.1-1,4.2-1.6,6.3
		C120,325.8,119.9,324.5,119.9,323.1z M121,314.2c0.1-0.3,0.1-0.5,0.2-0.8c0.2-0.7,0.3-1.4,0.5-2c-0.1,1.5-0.1,3-0.2,4.4
		C121.3,315.3,121.2,314.7,121,314.2z M123.6,303.1c0.1,0.4,0.2,0.8,0.3,1.2c-0.3,0.6-0.7,1.3-1,1.9
		C123.1,305.2,123.3,304.2,123.6,303.1z M124,257.6c0-1.6-0.1-3.2-0.1-4.9c0.1-0.8,0.1-1.7,0.2-2.5
		C124.1,252.7,124.1,255.2,124,257.6z M125.6,240.9c0.2-0.3,0.3-0.5,0.5-0.8c0,0.3,0,0.5-0.1,0.8c-0.2,0.3-0.4,0.6-0.5,0.9
		C125.5,241.5,125.6,241.2,125.6,240.9z M125.9,182.9c-0.2-0.8-0.4-1.6-0.5-2.3c0-0.6,0.1-1.2,0.1-1.8c0.1-0.5,0.2-1,0.3-1.5
		c0.1,1.3,0.2,2.6,0.3,3.9C126.1,181.7,126,182.3,125.9,182.9z M124.4,189.3c0,0.6,0.1,1.1,0.1,1.7c-0.4,2.8-0.7,5.5-1,8.3
		c0-0.1-0.1-0.1-0.1-0.2c-0.1-0.2-0.3-0.4-0.4-0.6c0,0,0-0.1,0-0.1C123.5,195.4,124,192.4,124.4,189.3z M120,222.3
		c0.1,0.7,0.2,1.4,0.3,2c-0.2,0.2-0.3,0.3-0.5,0.5C119.9,224,120,223.1,120,222.3z M120.5,225.5c0.2,1.6,0.5,3.2,0.8,4.8
		c-0.2,1.8-0.5,3.6-1,5.3c-0.7-1.3-1.2-2.7-1.7-4.1c0,0,0,0,0-0.1c0.4-1.6,0.7-3.2,0.9-4.9C119.8,226.2,120.1,225.9,120.5,225.5z
		 M118,229.6c0-0.1,0-0.2-0.1-0.2c0.1-0.1,0.1-0.3,0.2-0.4C118.1,229.2,118,229.4,118,229.6z M115.5,324.1c0,0.4,0.1,0.7,0.1,1.1
		c0,0.1,0,0.3,0,0.4c-0.1,1.2-0.2,2.3-0.4,3.5c-0.4,0.3-0.7,0.6-1,1c0-0.3-0.1-0.6-0.1-0.8c0.5-1.9,1-3.6,1.3-4.9
		C115.5,324.3,115.5,324.2,115.5,324.1z M114.6,331.6c0.1-0.2,0.2-0.4,0.4-0.6c-0.1,0.4-0.2,0.8-0.3,1.1
		C114.6,332,114.6,331.8,114.6,331.6z M110.9,343.2c0-0.1,0-0.1,0-0.2c0,0,0.1,0,0.1-0.1C111,343,110.9,343.1,110.9,343.2z
		 M108.2,349.1c-0.1,0-0.1,0.1-0.2,0.1c0-0.2,0-0.4,0-0.6C108.1,348.7,108.2,348.9,108.2,349.1z M111.7,351.3c0,0,0.1,0.1,0.1,0.1
		c0,0,0,0,0,0C111.8,351.3,111.8,351.3,111.7,351.3C111.7,351.3,111.7,351.3,111.7,351.3z M116.1,352.1
		C116.1,352.1,116.1,352.1,116.1,352.1C116.1,352.1,116.1,352.1,116.1,352.1C116.1,352.1,116.1,352.1,116.1,352.1z M119.9,347.2
		c0,0,0,0.1,0,0.1C119.9,347.3,119.9,347.3,119.9,347.2C119.9,347.2,119.9,347.2,119.9,347.2z M121.6,344c0,0.1,0,0.2,0,0.3
		c0,0-0.1,0-0.1,0.1C121.6,344.2,121.6,344.1,121.6,344z M123.6,327.1c0-0.1,0-0.2,0-0.2c0.1-0.2,0.2-0.4,0.3-0.6
		C123.8,326.6,123.7,326.9,123.6,327.1z M122.6,330c-0.4,1.4-0.8,2.8-0.9,4.2c-0.1,0.9-0.2,1.8-0.2,2.7c-0.2-0.9-0.3-1.8-0.5-2.7
		c-0.1-0.6-0.2-1.2-0.3-1.7c0.6-1.3,1.3-2.6,2-3.8C122.7,329.1,122.7,329.5,122.6,330z M123.1,312.9c0,0.1,0,0.3,0,0.4
		c-0.1,0.1-0.2,0.1-0.2,0.3c-0.1,0.4-0.2,0.8-0.4,1.2c0.1-2.1,0.2-4.2,0.3-6.3c0.1-0.3,0.3-0.5,0.4-0.8
		C123.1,309.4,123.1,311.1,123.1,312.9z M123.5,297.5c-0.1-0.2-0.1-0.5-0.1-0.7c0-0.3-0.1-0.7-0.1-1c-0.1-1.7,0.1-3.6,0.2-5.2
		c0-0.3,0-0.6,0.1-0.9c0.4-0.9,0.7-1.8,1.1-2.7C124.3,290.5,124,294,123.5,297.5z M124.8,283.5c-0.3,1-0.7,2-1.1,2.9
		c0.1-1,0.1-2,0.2-2.9c0.4-1.3,0.8-2.6,1.1-3.9C125,280.9,124.9,282.2,124.8,283.5z M125.2,251.8c0-0.6,0-1.2,0-1.9
		c-0.1-1.4-0.2-2.8-0.3-4.2c0.1-0.4,0.2-0.9,0.3-1.3c0.3-0.4,0.5-0.7,0.7-1.1C125.7,246.2,125.4,249,125.2,251.8z M128.4,214.9
		c0.1-0.2,0.1-0.4,0.2-0.6c-0.1,0.9-0.2,1.8-0.3,2.7C128.4,216.3,128.4,215.6,128.4,214.9z M128.5,211.9c0-1.8,0-3.5,0-5.3
		c0.2-0.2,0.5-0.4,0.7-0.6c0,0,0.1-0.1,0.1-0.1c-0.1,1.5-0.2,2.9-0.3,4.4C128.8,210.9,128.7,211.4,128.5,211.9z M129.7,200.7
		c-0.2,0.5-0.5,1-0.7,1.6c0.3-2,0.6-3.9,1-5.9C129.8,197.8,129.8,199.3,129.7,200.7z M128.5,197.6c0-1.6,0.1-3.3-0.1-4.9
		c0-0.4,0-0.8,0-1.2c0.3,0.7,0.7,1.3,1,2C129.1,194.9,128.8,196.3,128.5,197.6z M126.9,177.4c-0.1-1.3-0.2-2.5-0.4-3.8
		c0-0.2,0.1-0.5,0.1-0.7c0.1,1.5,0.2,2.9,0.3,4.4C126.9,177.3,126.9,177.4,126.9,177.4z M123.8,186.4c-0.1,1.2-0.3,2.3-0.4,3.5
		c0.1-1.2,0.2-2.4,0.2-3.6C123.7,186.4,123.7,186.4,123.8,186.4z M122.5,187.9c0-0.1,0-0.1,0-0.2c0,0,0-0.1,0-0.1
		C122.5,187.7,122.5,187.8,122.5,187.9z M121.2,188c0,0.1-0.1,0.2-0.1,0.3c0-0.2,0.1-0.4,0.1-0.6C121.2,187.8,121.2,187.9,121.2,188
		z M119.1,206.9c0,1.8,0.1,3.5,0.1,5.3c-0.2,0.5-0.4,1-0.6,1.6C118.8,211.4,118.9,209.2,119.1,206.9z M119.2,215.3
		c0.1,3.7-0.1,7.3-0.6,10.9c-0.3,0.4-0.5,0.7-0.7,1.1c0.1-3.2,0.3-6.7,0.5-10.2C118.7,216.5,118.9,215.9,119.2,215.3z M116.2,266.4
		c-0.1,0.9-0.1,1.9-0.2,2.8c0,0.4,0.4,0.5,0.7,0.5c-0.2,2.5-0.3,4.9-0.4,7.4c-0.3,1.9-0.6,3.8-0.9,5.7c0-6.2,0.1-12.3,0.1-18.5
		C115.8,265,116,265.7,116.2,266.4z M116.1,284.4c0,2.1,0,4.2,0,6.3c-0.3-0.6-0.6-1.3-0.9-1.9C115.6,287.3,115.9,285.8,116.1,284.4z
		 M114.4,302.1c0,0.2,0,0.3,0,0.5c-0.1-1.2-0.3-2.3-0.4-3.4c0.3-0.3,0.6-0.6,0.8-0.9C114.6,299.5,114.5,300.8,114.4,302.1z
		 M114.3,324.7c-0.2,0.7-0.4,1.5-0.6,2.3c-0.1-0.3-0.1-0.5-0.2-0.8C113.8,325.8,114.1,325.3,114.3,324.7z M113.5,331.4
		C113.5,331.4,113.5,331.4,113.5,331.4c0,0.1,0,0.1,0,0.2C113.5,331.5,113.5,331.4,113.5,331.4z M114.1,334.3
		c-0.2,0.6-0.3,1.1-0.5,1.7c0-0.8,0.1-1.7,0.3-2.5C114,333.8,114,334.1,114.1,334.3z M111.3,341.6c-0.1,0-0.2,0.1-0.2,0.1
		c0,0,0,0,0,0c0.1-0.1,0.1-0.1,0.2-0.2C111.3,341.5,111.3,341.6,111.3,341.6z M110.4,351.6c0.1,0,0.1,0.1,0.2,0.1
		c-0.1,0.5-0.1,0.9-0.1,1.4c-0.4-0.2-0.7-0.5-1-0.7C109.8,352.2,110.1,351.9,110.4,351.6z M111.8,354.4
		C111.8,354.4,111.8,354.4,111.8,354.4C111.8,354.4,111.8,354.4,111.8,354.4C111.8,354.4,111.8,354.4,111.8,354.4z M121.2,345.7
		C121.3,345.7,121.3,345.7,121.2,345.7c0.1,0,0,0.1,0,0.1C121.2,345.8,121.2,345.7,121.2,345.7z M123.8,338.9c0.1-0.5,0.2-1,0.3-1.5
		c0,0,0.1-0.1,0.1-0.1c-0.1,0.7-0.2,1.3-0.4,2C123.8,339.1,123.8,339,123.8,338.9z M123.8,319.2c-0.1,1.7,0,3.5,0.2,5.2
		c-0.2,0.3-0.3,0.5-0.5,0.8c-0.2-1.6-0.4-3.1-0.8-4.6c0.1-0.6,0.2-1.2,0.4-1.9c0,0,0,0,0,0c1.9-3.9,0.5-8.4,1.4-12.5
		c0.5,1.6,0.9,3.1,1.1,4.7C124.8,313.6,124,316.3,123.8,319.2z M126.4,304.3c-0.1-0.2-0.2-0.5-0.4-0.8c0,0,0,0,0,0
		c0.6,0.2,0.9-0.8,0.3-1c-0.4-0.1-0.7-0.3-1-0.4c-0.1-0.1-0.2-0.3-0.2-0.4c0.8-0.1,1.2-0.9,1.6-1.8c0.2-0.6,0.4-1.3,0.6-2
		c0.1,2.5,0,4.9-0.4,7.4C126.7,304.9,126.6,304.6,126.4,304.3z M126.4,275.4c-0.1,1.2-0.2,2.5-0.2,3.7c0,0.1-0.1,0.3-0.1,0.4
		c0.1-2,0.2-4,0.3-6c0.1-1.5,0.1-3,0.2-4.5c0.1,0.9,0.3,1.9,0.4,2.8C126.7,273,126.5,274.2,126.4,275.4z M125.6,267.2
		c-0.1-0.7-0.3-1.4-0.5-2.1c0.4-4.8,0.8-9.6,1.1-14.4C126,256.2,125.8,261.7,125.6,267.2z M120.4,180c0.1,1,0.2,2,0.4,3
		c-0.1,0.6-0.1,1.3-0.2,2c-0.1,0-0.1,0-0.2,0C120.3,183.3,120.3,181.6,120.4,180z M120.4,186.1c0,0.2-0.1,0.4-0.1,0.6
		c0,0,0-0.1,0-0.1C120.3,186.4,120.3,186.3,120.4,186.1C120.3,186.1,120.4,186.1,120.4,186.1z M119.2,192.8
		c-0.1,0.2-0.1,0.3-0.2,0.5c-0.4-0.4-0.8-0.9-1.3-1.3c0.1-1.3,0.3-2.5,0.4-3.8c0.3-0.6,0.7-1.1,1.1-1.5
		C119.3,188.8,119.2,190.8,119.2,192.8z M117,204.6c0,1.7,0.1,3.4,0,5.1C117,208,117,206.3,117,204.6z M117.8,211.2
		c-0.1,1.8-0.2,3.5-0.3,5.2c-0.1,0.2-0.2,0.4-0.2,0.6c0-0.9-0.1-1.8-0.1-2.7C117.4,213.3,117.7,212.3,117.8,211.2z M116.5,235.4
		c-0.1,0.2-0.1,0.5-0.2,0.7c0.1-0.6,0.2-1.3,0.3-1.9C116.6,234.6,116.6,235,116.5,235.4z M112.5,271.2c0-1.6,0.1-3.3,0.1-5
		c0.2-0.7,0.5-1.4,0.7-2.2c0,1.5,0,2.9,0,4.1c0,4.4-0.3,8.8-0.6,12.7c-0.1,0.7-0.1,1.3-0.2,2c-0.1-0.1-0.1-0.3-0.2-0.4
		C112.3,279.1,112.4,275.3,112.5,271.2z M113.6,280.9c0.3-3.9,0.6-8.4,0.6-12.8c0-2,0-4.7,0-7.6c0,0,0-0.1,0-0.1
		c0.1,0.3,0.1,0.5,0.2,0.8c-0.1,8.6-0.1,17.2-0.2,25.8c-0.3-0.7-0.7-1.4-1-2.2C113.4,283.5,113.5,282.2,113.6,280.9z M114.8,290.5
		c0-0.1,0-0.1,0-0.2c0.4,0.8,0.7,1.6,1.1,2.3c-0.3,1.1-0.5,2.3-0.8,3.4c-0.4,0.6-0.9,1.2-1.4,1.8c-0.1-0.8-0.2-1.6-0.3-2.3
		C113.9,293.8,114.4,292.2,114.8,290.5z M112.8,298.3c0,0.2,0,0.3,0.1,0.5c0,0-0.1,0.1-0.1,0.1c-0.1,0.1-0.2,0.2-0.3,0.3
		c0.1-0.3,0.2-0.7,0.3-1C112.8,298.2,112.8,298.3,112.8,298.3z M110.5,325.9c0.1,0.4,0.3,0.8,0.4,1.3c-0.2,1-0.4,2-0.6,3.1
		c-0.1-1.9-0.1-3.9-0.2-5.8C110.2,325.1,110.3,325.5,110.5,325.9z M111.8,327.2c0.1-0.7,0.3-1.5,0.4-2.2c0.1,0.4,0.2,0.8,0.3,1.2
		c-0.2,0.4-0.4,0.8-0.6,1.3C111.8,327.3,111.8,327.3,111.8,327.2z M112.8,327.7c0.1,0.5,0.2,0.9,0.3,1.5c-0.3,1.1-0.7,2.3-1.1,3.5
		c0-1.2,0-2.4,0-3.4C112.3,328.8,112.6,328.3,112.8,327.7z M113.2,332.4c-0.1,0.5-0.2,1.1-0.3,1.6c-0.2,1.3-0.2,2.7-0.1,4
		c-0.4,0.5-0.8,1.1-1.2,1.6c0-0.1-0.1-0.2-0.1-0.3c0.1-0.8,0.2-1.6,0.3-2.4C112.2,335.4,112.7,333.9,113.2,332.4z M106.8,351.7
		c0.1,0.1,0.1,0.2,0.2,0.4c-0.2,0-0.5,0.1-0.7,0.1c0,0,0-0.1,0.1-0.1C106.5,352,106.6,351.9,106.8,351.7z M113.7,356.9
		c-0.4-0.3-0.8-0.6-1.1-1c0.1-0.6,0.2-1.1,0.2-1.2c0-0.6,0.1-1.2,0.1-1.8c0.1,0,0.1,0,0.2,0c-0.1,0.3-0.2,0.6-0.2,0.9
		C112.8,354.9,113.1,356,113.7,356.9C113.7,356.9,113.7,356.9,113.7,356.9z M114.7,355c0,0.1-0.1,0.2-0.2,0.4
		c-0.3-0.5-0.3-1.1-0.2-1.7c0.3,0,0.6,0,1,0.2C115.1,354.2,114.9,354.6,114.7,355z M117.3,351.9c0.2-0.4,0.4-0.8,0.6-1.1
		c0.2,0.2,0.3,0.4,0.5,0.6C118.1,351.6,117.7,351.8,117.3,351.9z M120.6,348.4C120.6,348.4,120.6,348.4,120.6,348.4
		c0.1-0.1,0.2-0.2,0.2-0.2c0,0.2-0.1,0.3-0.1,0.5C120.6,348.6,120.6,348.5,120.6,348.4z M124.9,340.6c-0.1,0.2-0.2,0.3-0.4,0.5
		c0.1-0.6,0.2-1.2,0.3-1.9C124.9,339.7,124.9,340.2,124.9,340.6z M124.5,335.4c-0.1,0.1-0.1,0.2-0.2,0.2c0.1-0.9,0.2-1.7,0.3-2.6
		c0,0.4,0,0.8,0.1,1.1C124.7,334.6,124.6,335,124.5,335.4z M127,311.9c-0.1-0.4-0.2-0.9-0.3-1.3c0-0.1,0-0.1,0.1-0.2
		c0.2-0.5,0.3-1.1,0.4-1.6c0,0,0,0,0,0.1c0,1.2-0.1,2.3-0.1,3.5C127,312.2,127,312.1,127,311.9z M127.9,266.3
		c-0.1,0.8-0.3,1.6-0.4,2.4c-0.7-6.2-0.7-12.6,0.7-18.8C128.4,255.4,128.8,260.8,127.9,266.3z M127.4,249.2c0.1-3.2,0.3-6.4,0.4-9.5
		c0.1-0.4,0.3-0.7,0.4-1.1c0,0.2,0,0.3,0,0.5c-0.1,1.4-0.2,2.9-0.2,4.3c0,1.1,0,2.2,0,3.3C127.8,247.5,127.6,248.3,127.4,249.2z
		 M128.5,225.4c0,0,0-0.1,0-0.1c0.1-0.5,0.1-1,0.2-1.5c0,0.5,0,1,0,1.5C128.6,225.3,128.6,225.3,128.5,225.4z M129.7,224.6
		C129.7,224.6,129.7,224.6,129.7,224.6C129.7,224.7,129.7,224.7,129.7,224.6C129.7,224.7,129.7,224.6,129.7,224.6z M128,163.4
		c0.1-2.3,0.4-4.6,1-6.9c0-0.1,0.1-0.3,0.1-0.4c0,0.8,0,1.7,0,2.5c-0.1,1.1-0.3,2.2-0.4,3.3C128.6,162.5,128.3,163,128,163.4z
		 M129,151.2c0,0.8,0.1,1.5,0.1,2.3c-0.8,2-1.4,4.1-1.8,6.4c0,0.2,0,0.4-0.1,0.6c-0.1-2-0.3-4-0.6-6c0-2.6,0.1-5.3,0.2-7.9
		C127.7,148.2,128.4,149.7,129,151.2z M124,170.2c-0.1-1.3-0.1-2.7-0.2-4c0.2-0.4,0.4-0.7,0.6-1.1
		C124.3,166.8,124.2,168.5,124,170.2z M123.1,174c0.1,1.3,0.2,2.6,0.3,3.8c0,0.5-0.1,1-0.1,1.5c-0.2,1.6-0.3,3.2-0.4,4.8
		c-0.1,0.2-0.2,0.5-0.3,0.7c-0.1,0-0.2,0-0.3,0c-0.1-1.4-0.2-2.7-0.3-4.1c0.1-2.5,0-4.3-0.3-6c-0.1-1.7-0.1-3.4,0-5.1
		c0.5-0.6,0.9-1.2,1.3-1.9C122.9,169.9,122.9,172,123.1,174z M119.4,179.5c0,1.1,0,2.1,0,3.2c0,0.9,0,1.8,0,2.6
		c-0.2,0.1-0.3,0.2-0.5,0.3c-0.2,0.1-0.3,0.2-0.4,0.4c0.2-1.8,0.4-3.7,0.6-5.5C119.1,180.2,119.2,179.9,119.4,179.5z M115.4,193.8
		c0-0.8,0-1.7,0-2.6c0.2,0.1,0.3,0.3,0.5,0.4C115.8,192.4,115.6,193.1,115.4,193.8z M116.3,216.1c0,1,0.1,1.9,0.1,2.9
		c-0.1,0.2-0.2,0.5-0.3,0.7c-0.1-1-0.2-1.9-0.3-2.9C116,216.6,116.1,216.3,116.3,216.1z M116.5,221.6c0,0.6,0.1,1.2,0.1,1.8
		c-0.1-0.5-0.2-1-0.2-1.4C116.4,221.8,116.5,221.7,116.5,221.6z M116.8,229c0,0.2,0,0.5,0,0.7c-0.7,1.8-1.1,3.7-1.3,5.5
		c-0.3,2.3-0.4,4.6-0.4,6.9c-0.3,2.4-0.3,4.8-0.4,7.2c0,1.4,0,2.9,0,4.3c-0.1,0.6-0.2,1.2-0.3,1.9c0.1-10.6,0.3-22.6,0.3-22.8
		c0-0.1-0.1-1.9-0.3-4.5c0.4-1.5,0.9-3,1.4-4.4C116,225.5,116.4,227.3,116.8,229z M113.6,232.7c0,0.1,0,2.5-0.1,6
		c-0.1,0.1-0.2,0.2-0.2,0.4c-0.2,1.9-0.4,3.8-0.6,5.7c0-2.2,0-4.3,0-6.4c0.1-2.3,0.4-4.5,0.8-6.7
		C113.6,232.3,113.6,232.7,113.6,232.7z M113.4,247.5c0-0.1,0-0.2,0-0.2c0,1.3,0,2.6,0,4c-0.1-0.6-0.2-1.2-0.3-1.8
		C113.2,248.7,113.3,248.1,113.4,247.5z M113.3,256.3c0,1.1,0,2.2,0,3.2c-0.3,0.8-0.5,1.5-0.7,2.3c0-2.9,0.1-5.8,0.1-8.8
		C112.9,254.1,113.1,255.2,113.3,256.3z M110,275.8c0,0.4,0.1,0.8,0.1,1.1c-0.2,0-0.4,0-0.6,0C109.7,276.5,109.8,276.1,110,275.8z
		 M112,293.1c0.1-0.8,0.1-3.9,0.3-8.4c0,0.1,0.1,0.1,0.1,0.2c-0.2,3.3-0.3,6.3-0.1,8.7c0.1,0.5,0.1,1.1,0.2,1.7
		c-0.4,1.4-0.7,2.8-1,4.2c0.1-1.2,0.2-2.2,0.3-3.1C111.8,295,111.9,293.8,112,293.1z M109.4,332.8c0.1,0.1,0.2,0.2,0.3,0.2
		c0,0.2-0.1,0.3-0.1,0.5C109.5,333.3,109.5,333.1,109.4,332.8z M110.5,333.8c0.2-0.8,0.3-1.6,0.5-2.5c0-0.1,0.1-0.2,0.1-0.3
		c0,1.7-0.1,3.6-0.3,5.5c-0.1,0.2-0.1,0.3-0.2,0.5c-0.2-0.5-0.4-1.1-0.5-1.6C110.2,334.9,110.4,334.4,110.5,333.8z M110.1,338.6
		c-0.8,2.2-1.5,4-2.1,5.1c0-0.4,0-0.9,0-1.3c0.5-1.7,1.1-3.4,1.6-5.2C109.8,337.7,110,338.2,110.1,338.6z M104.7,352.5
		c-0.4,0.1-0.8,0.2-1.3,0.2c0.6-0.2,1.2-0.5,1.7-0.7C105,352.1,104.9,352.3,104.7,352.5z M104.1,354.7c0.1-0.1,0.1-0.2,0.2-0.3
		c0.8-0.3,1.6-0.7,2.4-1.1c0,0,0,0,0,0c-1.1,0.9-2.2,1.7-3.3,2.6C103.7,355.5,103.9,355.1,104.1,354.7z M89,363.2
		c-0.2,0.1-0.4,0.1-0.7,0.2c-1.4,0.1-2.8,0.2-4.1,0.3c0.1-0.1,0.2-0.1,0.3-0.2C86,363.4,87.5,363.3,89,363.2z M82.3,363.7
		c-0.6,0-1.1,0-1.7,0c0.6,0,1.2,0,1.9-0.1C82.4,363.6,82.4,363.6,82.3,363.7z M111.2,360.6c1.5-0.4,3.1-0.7,4.7-1
		c-1.6,0.5-3.2,1-4.8,1.5C111.2,360.9,111.2,360.8,111.2,360.6z M116.2,354.3c0.3,0.2,0.6,0.4,0.8,0.5c0.3,0.2,0.6,0.6,0.9,0.9
		c-0.5,0.4-1.1,0.6-1.8,0.5c-0.3,0-0.5-0.1-0.7-0.2C115.6,355.5,115.9,354.8,116.2,354.3z M118.1,352.7c0.3-0.1,0.7-0.3,1-0.5
		c0.1,0.1,0.1,0.2,0.2,0.2c0,0,0,0.1,0,0.1c0,0.2,0,0.3,0,0.5C118.9,352.9,118.5,352.8,118.1,352.7z M123.6,347.1c0.1-1,0.3-2,0.4-3
		c0.1,0,0.1-0.1,0.2-0.1c0.2-0.2,0.5-0.3,0.7-0.5c0,1.6-0.1,3.3-0.1,4.9c-0.4,0.3-0.9,0.7-1.3,1.1
		C123.5,348.7,123.5,347.9,123.6,347.1z M125.6,329.2c0,0.3-0.1,0.5-0.1,0.8c-0.1-0.7-0.1-1.5-0.2-2.2c0.2-0.5,0.5-1,0.7-1.5
		C125.9,327.3,125.8,328.2,125.6,329.2z M127.8,319.7c0.1-0.4,0.3-0.9,0.4-1.3c0,0.1,0,0.2-0.1,0.3c-0.1,0.5-0.2,1-0.4,1.4
		C127.8,320,127.8,319.9,127.8,319.7z M128.7,306.7c-0.1,2-0.1,4-0.1,6c-0.2,1.1-0.4,2.2-0.7,3.3c0-0.9,0.1-1.8,0.1-2.7
		c0-1.1,0.1-2.3,0.1-3.4c0.2-0.1,0.3-0.2,0.3-0.5c0-2.9,0-5.8,0-8.7c0.1-2.4,0.4-4.8,0.8-7.1c0.1,3,0.1,6.1,0.1,9.1
		C129.1,304.1,128.8,305.4,128.7,306.7z M130.8,284.1c-0.2-0.9-0.4-1.8-0.7-2.7c0.1-2.2,0.2-4.4,0.4-6.7c0.1-0.9,0.2-1.7,0.3-2.6
		c0.2,2.4,0.4,4.9,0.5,7.3c-0.1,1.3-0.2,2.5-0.3,3.8C130.9,283.6,130.8,283.9,130.8,284.1z M130.1,266.8c0,0.2,0.1,0.5,0.1,0.7
		c-0.4,3.4-0.7,6.8-0.9,10.2c0,0.1,0,0.3,0,0.4c-0.2-0.9-0.5-1.8-0.7-2.8c-0.1-0.6-0.1-1.2-0.2-1.9c0.5-3,0.9-6,1.4-9
		C129.9,265.3,130,266.1,130.1,266.8z M129.7,225.8c0.1-0.1,0.2-0.1,0.3-0.2c-0.1,0.7-0.3,1.4-0.4,2.1
		C129.6,227.1,129.7,226.5,129.7,225.8z M131.8,201c0-0.2,0-0.4,0.1-0.6c0,0.1,0,0.1,0.1,0.2C131.9,200.7,131.9,200.8,131.8,201z
		 M129.9,190.1c0,0.4,0,0.7,0.1,1.1c0,0.2-0.1,0.3-0.1,0.5c-0.9-3.5-1.4-7.1-1.6-10.6c-0.1-1.3-0.2-2.7-0.2-4
		c0.2-1.3,0.5-2.5,0.7-3.8c0.2,4,0.6,7.9,1.1,11.9c0.2,1.5,0.3,3,0.4,4.6C130,189.7,129.9,189.9,129.9,190.1z M130,149.7
		c0,0,0,0.1,0,0.1c0,0.1-0.1,0.2-0.1,0.4c-0.1-1.1-0.1-2.2-0.2-3.3c0,0,0,0,0.1,0c0.1,0.2,0.2,0.5,0.3,0.9c0.1,0.3,0.1,0.6,0.2,0.9
		C130.1,149,130,149.4,130,149.7z M124.2,155.8c-0.2-1.3-0.4-2.5-0.6-3.8c0.2-0.6,0.4-1.2,0.6-1.8
		C124.1,152,124.2,153.9,124.2,155.8z M124.2,162.8c-0.1,0.4-0.3,0.8-0.5,1.3c0-0.4,0-0.8-0.1-1.2c-0.1-2.5-0.4-5-0.9-7.4
		c0.1-0.3,0.1-0.6,0.2-1C123.4,157.3,123.8,160.1,124.2,162.8z M122.5,159.5c0.2,2.2,0.3,4.4,0.3,6.5c-0.2,0.3-0.3,0.6-0.5,0.9
		c-0.2,0.3-0.5,0.7-0.7,1c0.1-2,0.2-4.1,0.4-6.1c0.1-1.1,0.2-2.2,0.4-3.4C122.4,158.8,122.4,159.1,122.5,159.5z M120.4,169.5
		C120.4,169.5,120.4,169.5,120.4,169.5c0-6.5,0-13.1,0.1-19.6c0.1-0.2,0.1-0.3,0.2-0.5c0.3,2,0.8,4,1.2,6
		C120.9,160,120.5,164.7,120.4,169.5z M114.4,188.9c0,0-0.1,0-0.1-0.1c0.1-0.2,0.1-0.3,0.1-0.5C114.5,188.6,114.5,188.7,114.4,188.9
		C114.5,188.9,114.5,188.9,114.4,188.9z M113.7,212.7c0,1.7,0.1,3.3,0.2,5c0,0.4,0.5,0.7,0.9,0.4c0,0,0.1-0.1,0.1-0.1
		c0.1,1.2,0.3,2.4,0.4,3.7c-0.2,0.6-0.5,1.3-0.7,1.9c-0.2,0.6-0.4,1.2-0.6,1.8c-0.2-2.8-0.5-6.2-0.7-9.4
		C113.5,214.8,113.6,213.8,113.7,212.7z M113.3,228.1c-0.2,0.9-0.4,1.8-0.6,2.7c0-2.7-0.1-5.3-0.1-7.7c0.1-0.7,0.1-1.3,0.2-2
		C112.9,223.6,113.1,226.1,113.3,228.1z M111.6,265.2c0,0.2,0,0.5,0,0.7c-0.2,0.7-0.4,1.4-0.7,2c-0.1-0.7-0.2-1.4-0.4-2.2
		c0-0.8,0-1.6,0-2.4c0.4-1.6,0.7-3.3,1.1-4.9C111.6,260.6,111.6,262.9,111.6,265.2z M109.7,270.8c-0.2,0.5-0.5,1-0.8,1.5
		c0.3-0.8,0.5-1.7,0.7-2.6C109.7,270.1,109.7,270.5,109.7,270.8z M107.8,276.4c0.3-0.5,0.5-1,0.8-1.4c-0.2,0.6-0.3,1.2-0.5,1.8
		c-0.1,0-0.3,0-0.4,0C107.7,276.6,107.8,276.5,107.8,276.4z M108.1,280.9c0.2-0.8,0.3-1.5,0.5-2.3c0.2-0.3,0.3-0.6,0.5-0.9
		c0.3,0,0.7,0.1,1.1,0.1c0,0.3,0.1,0.5,0.1,0.8c-0.8,2.7-1.5,5.4-2.1,8.1c0-0.9,0-1.7,0-2.6C108.1,283.1,108.1,282,108.1,280.9z
		 M111.2,286.4c-0.1,3.5-0.2,5.9-0.2,6.6c0,0.7-0.1,1.8-0.3,3.3c-0.2,2-0.4,4.6-0.6,7.3c-0.9,2.8-0.9,5.9-1,9
		c-0.2,6.6-0.1,13.1,0.2,19.7c-0.1-0.7-0.3-1.4-0.4-2.2c-1.4-9.5-0.6-34.1,1.8-42C110.9,287.7,111,287.1,111.2,286.4z M103.3,351.2
		c-1.2,0.3-2.5,0.7-3.7,1c0.3-0.2,0.7-0.4,1-0.6C101.6,351.4,102.5,351.3,103.3,351.2z M100.1,353c-0.4,0.2-0.8,0.3-1.2,0.5
		c-1.1,0.2-2.1,0.4-3.2,0.7c0.2-0.1,0.4-0.2,0.6-0.3C97.5,353.7,98.8,353.4,100.1,353z M92,356.9c2.6-0.6,5.1-1.2,7.7-1.8
		c-2.4,0.7-4.8,1.3-7.3,1.8C92.2,356.9,92.1,356.9,92,356.9z M102.8,355.1c-0.4,0.7-0.7,1.4-0.9,2.2c-0.1,0.2,0.1,0.4,0.2,0.6
		c-3.8,0.4-7.5,0.8-11.3,1.2c2.8-0.5,5.6-1,8.4-1.5c0.6-0.1,0.4-1-0.1-1c-0.3,0-0.6,0-0.8,0C99.7,356.1,101.3,355.6,102.8,355.1z
		 M106.2,363.2c0.6-0.1,1.2-0.2,1.7-0.4c-0.1,0-0.1,0.1-0.2,0.1C107.3,363.1,106.8,363.2,106.2,363.2z M115.3,362.7
		C115.3,362.7,115.4,362.8,115.3,362.7c0,0.1-0.1,0.1-0.1,0.1C115.2,362.8,115.3,362.8,115.3,362.7z M116.1,360.6c0,0-0.1,0-0.1,0
		C116,360.6,116.1,360.6,116.1,360.6C116.1,360.6,116.1,360.6,116.1,360.6z M118,357.4c-0.2,0-0.3,0-0.5,0c-0.5,0-1,0-1.5,0.1
		c-0.1,0-0.2-0.1-0.3-0.1c-0.1-0.1-0.2-0.1-0.3-0.2c0.9,0.1,1.8,0,2.7-0.5c0.1,0,0.1-0.1,0.2-0.1c0,0,0,0,0,0.1
		C118.3,356.9,118.2,357.2,118,357.4z M120.6,351.5c0.2,0,0.3-0.1,0.4-0.3c0.1-0.3,0.1-0.5,0.2-0.8c0,0.5,0.1,1.1,0.2,1.6
		c0,0.3,0.4,0.4,0.7,0.3c0,0.2,0,0.3,0,0.5c0,0.2,0.1,0.4,0.3,0.4c0,0.2,0,0.3,0,0.5c0,0.1,0,0.1,0,0.1c-0.6-0.2-1.2-0.3-1.8-0.5
		C120.6,352.8,120.7,352.1,120.6,351.5z M123.3,353.7c0-0.9,0.1-1.9,0.1-2.8c0.4-0.4,0.9-0.8,1.3-1.2c-0.1,1.6-0.1,3.2-0.2,4.8
		c-0.4-0.1-0.9-0.3-1.4-0.5C123.2,354,123.3,353.9,123.3,353.7z M126,339.6c0,0-0.1,0-0.1,0c0-1.4,0-2.8-0.1-4.1
		c0.1-0.2,0.2-0.3,0.4-0.5C126.1,336.5,126.1,338.1,126,339.6z M126,333.4c0.1-0.6,0.2-1.2,0.3-1.7c0,0.4,0,0.9-0.1,1.3
		C126.2,333.1,126.1,333.3,126,333.4z M127.6,323.3c0.3-0.6,0.6-1.2,0.8-1.8c0.5-1.5,0.8-3,1-4.6c0.1,1,0.2,2.1,0.2,3.1
		c-0.2,3.3-0.7,6.6-1.9,9.8c-0.1,0.3-0.3,0.7-0.4,1C127.4,328.3,127.5,325.8,127.6,323.3z M129.8,314c-0.1,0-0.2,0-0.2,0
		c0-0.5,0-1,0-1.5c0-0.1,0-0.2,0-0.3c0.1-0.7,0.2-1.4,0.3-2.1C129.9,311.3,129.8,312.6,129.8,314z M130.8,262.5
		c-0.1-0.7-0.1-1.4-0.2-2.2c0.1-0.7,0.3-1.3,0.5-2c0,0.7,0,1.4,0,2.1C131,261.1,130.9,261.8,130.8,262.5z M131.1,254
		c-0.3,1-0.5,2.1-0.8,3.1c0-0.4-0.1-0.8-0.1-1.1c0-0.1,0-0.2,0-0.3c0.1-2.8,0.5-5.5,1-8.2C131.2,249.6,131.2,251.8,131.1,254z
		 M129.2,238.4c0.3-3.6,0.8-7.1,1.4-10.7c0.1,0.6,0.1,1.3,0.3,2c0,0.1,0.1,0.2,0.2,0.3c0.2,1.3,0.3,2.7,0.2,4.1
		c-0.1,2.9-1,5.6-1.9,8.3C129.4,241,129.3,239.7,129.2,238.4z M133.6,202.9c-0.1-0.9-0.4-1.7-0.7-2.5c0.4-2,0.8-4,1.1-5.9
		c0,0.2,0.1,0.4,0.1,0.6c0.1,2.3,0.3,4.6,0.5,6.9c0.1,0.6,0.1,1.2,0.2,1.8c-0.1,1.2-0.3,2.4-0.5,3.6c-0.1,0.7-0.3,1.3-0.4,2
		C134,207.1,134,205,133.6,202.9z M130.1,144.9c-0.2-0.3-0.4-0.6-0.7-0.9c0,0,0-0.1,0-0.1c0.5,0.2,0.9,0.8,1.1,1.8
		C130.4,145.5,130.3,145.2,130.1,144.9z M122.6,152c-0.1,0.3-0.2,0.6-0.2,0.9c-0.2-0.8-0.3-1.6-0.5-2.3c-0.2-1-0.4-2.1-0.5-3.1
		c0.1-0.2,0.2-0.5,0.3-0.7C122,148.5,122.3,150.3,122.6,152z M121.3,145.2c0-0.1,0-0.2,0-0.4c0,0.1,0,0.2,0,0.3
		C121.3,145.1,121.3,145.2,121.3,145.2z M118.5,173.7c-0.1,2.2-0.3,4.4-0.5,6.6c-0.1,0.2-0.1,0.4-0.2,0.6c-0.7,1.7-1.3,3.3-1.9,4.8
		c-0.2,0.4-0.3,0.8-0.5,1.2c0-1.7,0-3.4-0.1-5.1c0.2-1.7,0.5-3.3,1.2-4.9C117.2,175.7,117.8,174.7,118.5,173.7z M112.5,191.4
		c0.2,0,0.4,0,0.6-0.2c0.2-0.2,0.3-0.5,0.5-0.7c0,0.5,0,0.9,0,1.4c-0.5,1.3-0.9,2.5-1.2,3.7C112.4,194.2,112.5,192.8,112.5,191.4z
		 M112.3,215.9c0,0.1,0,0.2,0,0.2c0-0.5,0-1-0.1-1.4C112.3,215.1,112.3,215.5,112.3,215.9z M107.1,278.2c0,0.2,0,0.5,0,0.7
		c-0.1,0.1-0.1,0.2-0.2,0.3C107,278.8,107.1,278.5,107.1,278.2z M108.1,291.7c0.7-3.6,1.5-7.3,2.5-10.8c0.1,0.3,0.1,0.5,0.2,0.7
		c-0.3,2.7-0.6,4.9-1.1,6.4c-0.7,2.3-1.3,5.9-1.7,10.1c0-1.5,0-3,0-4.4C108.1,293,108.1,292.3,108.1,291.7z M105.8,347.7
		C105.8,347.7,105.8,347.7,105.8,347.7C105.8,347.7,105.8,347.7,105.8,347.7C105.8,347.7,105.8,347.7,105.8,347.7z M105.6,349.5
		c-0.8,0.1-1.7,0.2-2.5,0.3c0.6-0.5,1.3-1,1.9-1.5C105.2,348.8,105.4,349.1,105.6,349.5z M53.5,359.5c0,0,0.1,0,0.1,0
		c0.5,0,1.1,0,1.6,0c-12.4,1.1-24.7,2.1-37.1,2.2C29.9,361,41.7,360.2,53.5,359.5z M95.5,360.6c-0.2,0.1-0.4,0.2-0.6,0.3
		c-1.1,0.2-2.2,0.4-3.3,0.6c-0.2,0-0.5,0-0.7,0c0.8-0.2,1.6-0.3,2.4-0.5C93.9,361,94.7,360.8,95.5,360.6z M70.7,364.5
		c-0.8,0.1-1.6,0.1-2.4,0.2c0.2-0.1,0.4-0.1,0.7-0.2C69.6,364.5,70.1,364.5,70.7,364.5z M110,362.9c0.2-0.2,0.4-0.4,0.5-0.6
		c1.5-0.2,3-0.3,4.5-0.5c-0.6,0.5-1.2,1-1.8,1.4c0,0-0.1,0-0.1,0c-1.4,0.1-2.7,0.2-4.1,0.3C109.3,363.4,109.7,363.2,110,362.9z
		 M117.5,360.3c0.1-0.1,0.2-0.2,0.2-0.3c1.1-0.4,2.1-0.8,3.1-1.2c0,0,0,0,0,0c0,0,0,0,0,0c0,0,0.1,0,0.1,0c0.2-0.1,0.3-0.2,0.3-0.4
		c0,0,0.1,0,0.1,0l0.1,0.8C120.1,359.6,118.8,360,117.5,360.3z M122.7,355.5c-0.9,0.7-2,1.4-3.1,1.9c0,0,0,0,0,0
		c-0.1-0.2-0.1-0.5-0.2-0.7c0.2-0.5,0.4-1.1,0.5-1.7c0.1-0.2,0.3-0.5,0.4-0.7c1.4,0.4,2.9,0.8,4.2,1.3c0,0.3,0,0.5,0,0.8
		c-0.7,0.5-1.5,0.7-2.4,0.9c0.5-0.3,1-0.7,1.4-1C124,355.8,123.3,355.1,122.7,355.5z M128.3,334.7c-0.2-0.5-1-0.5-1,0.1
		c0.1,1.1,0.2,2.3,0.2,3.4c-0.1,0.5-0.3,0.9-0.5,1.4c0.1-2.1,0.2-4.3,0.2-6.4c0.8-1.5,1.5-3,2-4.6c-0.2,2.3-0.4,4.6-0.4,6.9
		c0,0.4,0,0.8,0,1.1c-0.1,0.1-0.2,0.1-0.3,0.2C128.6,336.2,128.5,335.5,128.3,334.7z M135.1,194.4c-0.1-1.8-0.2-3.6-0.1-5.4
		c0-0.9,0-1.9,0.1-2.8c0.1,1.3,0.2,2.6,0.2,3.9c0,1.6,0,3.2,0,4.8C135.2,194.7,135.1,194.5,135.1,194.4z M132.5,177.4
		c0,0.7,0,1.3,0.1,2c-0.2,0.3-0.3,0.6-0.4,0.9c0-0.4-0.1-0.9-0.1-1.3c-0.2-2.8-0.2-5.6-0.2-8.4c0.1-0.1,0.2-0.1,0.2-0.2
		C132.3,172.8,132.4,175.1,132.5,177.4z M131.8,169.5c0-0.3,0-0.7,0-1c0,0.3,0.1,0.6,0.1,0.9C131.9,169.4,131.9,169.5,131.8,169.5z
		 M131.9,146.3c-0.1,0-0.2,0-0.2,0c0-0.3,0-0.6,0-0.9c-0.1-1.5-1-2.5-2.4-2.6c0-0.1,0-0.2,0-0.3c0.5-0.4,0.9-0.7,1.4-1
		c0.8,1.1,1.5,2.2,1.5,3.5C132.1,145.5,132,145.9,131.9,146.3z M129.2,141.4c0-0.3-0.1-0.6-0.1-0.9c0.3,0.1,0.7,0.2,1,0.3
		C129.8,141,129.4,141.2,129.2,141.4z M125.3,145.5c0-0.6,0.1-1.1,0.2-1.7c0.1,0.3,0.3,0.6,0.4,0.9
		C125.7,144.9,125.5,145.2,125.3,145.5z M124.6,142.9c-0.1-0.8-0.3-1.6-0.5-2.3c0.2,0.5,0.4,0.9,0.6,1.4
		C124.6,142.3,124.6,142.6,124.6,142.9z M123.4,142.2c-0.2-0.1-0.4,0-0.6,0.2c-0.3,0.4-0.5,0.8-0.8,1.2c-0.1-0.6-0.2-1.2-0.4-1.8
		c0.2-0.9,0.6-1.8,1-2.6c0,0,0,0,0.1,0C123,140.2,123.2,141.2,123.4,142.2z M118.4,151c-0.1,1.3-0.2,2.7-0.2,4
		c-0.3,1.3-0.5,2.5-0.7,3.8c0-0.2,0-0.3,0-0.5C117.8,155.7,118.1,153,118.4,151z M116.5,171.4c0.4,0.8,0.9,1.2,1.4,1.5
		c-0.2,0.3-0.5,0.6-0.7,1c-0.6,1-1.2,2-1.7,3.1C115.8,175.1,116.1,173.3,116.5,171.4z M111.4,218.3c0.1,1.4,0.1,3,0.1,4.6
		c-0.2,2.1-0.4,4.2-0.5,6.3C111.1,225.7,111.3,222,111.4,218.3z M104.8,286.2c0-0.3,0-0.5,0.1-0.7c-0.1,2.2,0.2,4.2,1.6,6
		c0.2,0.2,0.5,0.2,0.7,0c0,0,0,0.1,0,0.1c-0.4,2.2-0.8,4.4-1.1,6.7c-0.3-2.5-0.6-5-0.9-7.5C104.9,289.2,104.7,287.7,104.8,286.2z
		 M107.1,297.8c0,3.4,0,6.8,0,10.2c-0.2-1.8-0.4-3.6-0.6-5.5C106.7,301,106.9,299.4,107.1,297.8z M103.8,342.9
		c0.1,1.5,0.3,3.1,0.8,4.5c-1.2,1-2.4,1.9-3.6,2.7c-0.4,0.1-0.8,0.1-1.2,0.2c1.8-2,3-4.3,3.8-6.8
		C103.7,343.3,103.8,343.1,103.8,342.9z M30,359.9c5.6-0.6,11.1-0.9,16.7-1C41.2,359.2,35.6,359.6,30,359.9z M72.2,358.9
		c0.1,0,0.1,0.1,0.2,0c1.9-0.1,3.8-0.2,5.7-0.3c-13.6,2.3-27.4,3.6-41.2,3.8c-2.3-0.1-4.5-0.1-6.8-0.2
		C44.2,361.6,58.2,360.2,72.2,358.9z M80.1,359.3c-1.5,0.4-2.9,0.8-4.4,1.2c-0.5,0.2-0.5,1,0.1,1c0.6-0.1,1.3-0.1,1.9-0.2
		c0,0,0.1,0,0.1,0c3.9,0,7.8-0.1,11.7-0.4c-1.2,0.3-2.5,0.6-3.7,0.9c-2.7,0.1-5.4,0.2-8.1,0.3c-0.1-0.1-0.2-0.2-0.4-0.2
		c-0.6,0.1-1.1,0.1-1.7,0.2c-7,0.2-14,0.3-21,0.3C63.2,361.9,71.7,360.8,80.1,359.3z M118.4,362.8c0,0,0.1,0,0.1,0
		C118.5,362.8,118.5,362.8,118.4,362.8C118.4,362.8,118.4,362.8,118.4,362.8z M123.2,358.1c0.1,0,0.3-0.1,0.4-0.1c0,0-0.1,0-0.1,0.1
		C123.3,358.1,123.3,358.1,123.2,358.1z M126.7,355.4c1.2-2.6,1.3-6.1,1.5-8.9c0-0.4,0-0.7,0.1-1.1c0.1,2.7,0,5.4-0.2,8.2
		C127.8,354.3,127.3,354.9,126.7,355.4C126.8,355.4,126.8,355.4,126.7,355.4z M128.9,340.1c-0.1-0.6-0.1-1.1,0.1-1.6
		c0,0.3,0,0.6,0.1,0.9C129,339.6,128.9,339.8,128.9,340.1z M131.3,326.9c-0.1-2.3-0.3-4.7-0.5-7c0-0.7,0-1.5-0.1-2.2
		c0-1.8,0-3.6,0.1-5.3c0-1.9,0.2-3.7,0.4-5.6c0.2,3.5,0.5,6.9,0.8,10.4C131.6,320.4,131.4,323.7,131.3,326.9z M132.6,248
		c-0.1-0.6-0.2-1.2-0.3-1.8c-0.1-0.4-0.5-0.4-0.7-0.3c0.4-2.1,0.8-4.2,1.2-6.3c0.1-0.8,0.3-1.5,0.4-2.3c0.2,1.7,0.4,3.5,0.5,5.2
		C133.4,244.3,133,246.2,132.6,248z M134,222.5c-0.1,0-0.2,0.1-0.2,0.1c0.2-2.9,0.5-5.8,0.8-8.7C134.5,216.7,134.3,219.6,134,222.5z
		 M132.7,168.8c-0.2-1.7-0.4-3.3-0.7-5c0.1-2,0.2-4,0.3-6c0-0.2,0.1-0.5,0.1-0.7c0.1-0.1,0.1-0.2,0.1-0.3c0-0.1,0-0.1,0-0.2
		c0-0.1,0-0.2,0-0.2c0.4,2.2,1,4.3,1.5,6.4c0.2,1.2,0.4,2.3,0.5,3.5C134.1,167.2,133.5,168,132.7,168.8z M134.1,142.4
		c0-0.1,0-0.2-0.1-0.3c0,0,0.1,0,0.1,0C134.1,142.2,134.1,142.3,134.1,142.4z M132.9,141.7c0,0,0,0.1,0,0.2c0.2,0.3,0.2,0.7,0.3,1.1
		c-0.1,0-0.2,0.1-0.3,0.3c0,0,0,0.1,0,0.1c-0.3-0.7-0.7-1.4-1.1-2C132.1,141.4,132.5,141.6,132.9,141.7z M128.2,142.1
		c-0.3,0.3-0.7,0.6-1,0.9c0.1-0.9,0.2-1.8,0.3-2.7c0-0.1,0-0.1,0-0.2c0.2,0,0.4,0.1,0.5,0.1c0,0.1,0,0.1,0,0.2
		C128.1,141,128.2,141.6,128.2,142.1z M126.6,140.1c-0.1,1-0.3,2-0.4,3c-0.2-0.4-0.4-0.8-0.5-1.2c0.1-0.7,0.2-1.4,0.3-2.1
		c0.2,0,0.4,0.1,0.6,0.1C126.6,140,126.6,140,126.6,140.1z M125,140c0-0.1-0.1-0.2-0.1-0.3c0-0.1-0.1-0.2-0.1-0.2c0.1,0,0.2,0,0.3,0
		C125,139.7,125,139.9,125,140z M123.9,139.7c0-0.1,0-0.2-0.1-0.3c0.1,0,0.2,0,0.3,0.1C124,139.5,123.9,139.6,123.9,139.7z
		 M119.5,143.3c0,0.1-0.1,0.2-0.1,0.3c0-1.6,0-3.2,0.1-4.7c0,0,0,0,0.1,0C119.5,140.3,119.5,141.8,119.5,143.3z M117.4,140
		c-0.4,4.1-1.1,11.9-0.9,18.4c-0.4,3.8-0.7,7.7-0.6,10.3c-0.2,1.3-0.5,2.7-0.7,4c-0.1-4.6-0.3-9.3-0.4-13.6
		c1.1-9.8,2.1-17.8,2.5-20.5c0.1,0,0.2,0,0.3,0C117.5,139,117.5,139.4,117.4,140z M114.6,152.4c0,0,0-0.1,0-0.1
		c0.4-6.9,0.7-11.8,0.8-13.9c0.3,0,0.6,0.1,0.9,0.1C116,140.6,115.4,145.7,114.6,152.4z M110.8,237.2c0,1.2,0.1,2.3,0.1,3.4
		c0.2,3.1,0.4,7.1,0.5,11.4c-0.3,1.6-0.6,3.2-1,4.7C110.5,250.9,110.6,244.2,110.8,237.2z M104.2,295c-0.2-1.9-0.3-3.9-0.3-5.9
		c0.1,0.6,0.1,1.1,0.2,1.7c0.4,3.5,0.9,7,1.3,10.5c0.1,0.4,0.1,0.9,0.1,1.3c-0.2,2-0.4,4.1-0.5,6.2
		C104.9,304.1,104.6,299.6,104.2,295z M88.9,355.6c0,0,0-0.1,0-0.1c0.3-0.1,0.6-0.1,0.9-0.2C89.5,355.4,89.2,355.5,88.9,355.6z
		 M43.5,363.6c-0.3,0.3-0.2,0.9,0.3,0.9c0.8,0,1.5,0,2.3,0c-4.3,0.3-8.6,0.6-12.9,0.9c2.3-0.5,4.5-1.1,6.7-1.8
		C41.1,363.6,42.3,363.6,43.5,363.6z M47.1,364.7c0-0.1-0.1-0.2-0.2-0.2c0.8,0,1.6,0,2.4,0C48.5,364.6,47.8,364.6,47.1,364.7z
		 M106.8,367.5c-1.5,0.1-2.9,0.4-4.3,0.7c-0.5,0-1,0-1.6,0c2.5-0.6,5-1.3,7.5-1.9c0.6,0.1,1.2,0.1,1.8,0.1
		C109.1,366.9,108,367.2,106.8,367.5z M126.5,361.8c3.2-0.8,6.6-2.1,9.9-1.6c-6.6,3.3-13.9,5.1-21.2,5.4c1.2-0.6,2.4-1.2,3.5-1.8
		C121.3,363.1,123.9,362.4,126.5,361.8z M125.9,357.7c0.4-0.3,0.8-0.7,1.2-1.1c0.3,0.2,0.5,0.3,0.5,0.5
		C127.5,357.2,127.3,357.4,125.9,357.7z M127.9,356.1c-0.1-0.1-0.2-0.1-0.2-0.2c0.1-0.1,0.2-0.3,0.3-0.4
		C128,355.7,127.9,355.9,127.9,356.1z M129.6,347c0-0.2,0-0.4,0-0.5c-0.1-1.1-0.2-2.3-0.2-3.4c0.2,1.4,0.4,2.8,0.6,4.2
		C129.9,347.1,129.8,347,129.6,347z M131.1,348.2c-0.5-3-0.9-6-1.1-8.9c0.3-1,0.6-2.1,0.8-3.1c0,0,0,0,0,0c0.1-0.1,0.2-0.2,0.2-0.3
		C131,339.9,131,344,131.1,348.2z M132.2,331.3c0-1.3,0.1-2.5,0.1-3.8c0-1.2,0.1-2.5,0.2-3.7C132.6,326.3,132.7,328.9,132.2,331.3z
		 M133,300.4c-0.1,2.9-0.3,5.9-0.5,8.8c-0.2-2.7-0.4-5.4-0.5-8.1c0.2-0.8,0.3-1.6,0.5-2.4c0.2-1,0.4-2.1,0.6-3.1
		C133.1,297.2,133.1,298.8,133,300.4z M136.8,232.4c0,7.1-0.5,14.1-1.2,21.1c-0.1-3.7-0.4-7.4-0.8-11.1c1.2-6.5,1.7-13.1,0.4-19.8
		c0-0.1,0-0.1-0.1-0.1c0.3-3.2,0.5-6.5,0.7-9.7C136.3,219.3,136.8,225.8,136.8,232.4z M135.9,172.8c-0.1-2.1-0.2-4.2-0.4-6.3
		c0,0,0-0.1,0-0.1c0.2-0.4,0.3-0.7,0.5-1.1c0,0.6,0,1.1,0,1.7c0,0.5,0.7,0.6,0.9,0.3c0.3-0.5,0.7-1,1-1.5
		C137.2,168.2,136.5,170.5,135.9,172.8z M135.5,145.4c0.1,0.3,0.3,0.6,0.5,0.9c0,1.7,0,3.4,0,5.1c-0.1,0.2-0.2,0.4-0.2,0.6
		c-0.5,1.3-0.7,2.7-0.7,4.2c-0.1,2,0.1,4,0,6c0,0.2,0,0.4-0.1,0.7c-0.2-1.2-0.4-2.4-0.7-3.6c-0.5-2-0.9-4-1-6c0.6-2.4,1.3-4.7,2.1-7
		c0.2-0.4-0.4-0.7-0.7-0.6c-0.1,0-0.1,0-0.2,0.1c0.2-0.9,0.4-1.8,0.5-2.6c0,0,0-0.1,0.1-0.1c0.1-0.2,0.1-0.3,0-0.5c0,0,0,0,0,0
		c0.2,0.1,0.4,0.2,0.7,0.2C135.3,143.5,135.2,144.5,135.5,145.4z M139.3,142c-2.5-1-8.5-3.4-13.2-4.2c-5.6-1-11.3-1.5-13.5-1.6
		l0.9-9.6c2.6,0,6.4,0.2,11.4,1c6.5,1,12.5,3.3,15.8,4.8L139.3,142z M142.9,131.2c-2.8-1.3-9.8-4.4-17.8-5.6c-5.3-0.8-9.3-1-12-1
		c-1,0-1.8,0-2.4,0.1l1.6-16.3c1.8-0.4,7.5-1.3,15.8,0.1c8.7,1.4,15.2,5.3,16.9,6.5L142.9,131.2z M144.8,112.4l0.4-3.3v3.5
		C145.1,112.6,145,112.5,144.8,112.4z M145.5,42.2c-0.5-0.5-1-1.1-1.4-1.6c0.9-1.5,1.9-3,2.7-4.3c0.5,0.3,1,0.4,1.4,0.4
		c0.4,0,0.7-0.1,0.9-0.2c1.3-0.5,2.1-2.1,2.1-4v-3.2c0-3.6-2.5-5.5-4.9-5.5c-2.3,0-4,2-4,4.8c0,0.7,0.1,1.3,0.2,1.9
		c-0.6,1-1.6,2.5-2.6,4.1c-1.3-2.6-1.3-4.4-1.3-6.1c0-3.2,1.4-8.5,6.8-8.5c5.3,0,9.4,6.3,9.4,8.8v6.6c-3,0.3-5.2,1.1-6.8,2.3
		C146.8,39,146,40.4,145.5,42.2z M299,354.2c-8.1-0.2-15.8-0.5-29.8-0.5c-14,0-21.2,0.2-28.8,0.5c-7.9,0.3-16.1,0.5-32.4,0.5
		c-56.9,0-59.7-15.8-59.7-41.5V44.9c0-2.2,0.6-3.7,1.8-4.7c0.7-0.6,1.7-1,2.9-1.3v268.2c0,27.2,3.9,43.6,58.4,43.6
		c15.5,0,23.2-0.3,30.7-0.5c7.2-0.2,14-0.5,27.2-0.5c13.2,0,20.4,0.2,28.1,0.5c8,0.3,16.2,0.5,31.7,0.5c54.5,0,58.4-16.5,58.4-43.6
		V38.9c1.2,0.3,2.2,0.7,2.9,1.3c1.2,1,1.8,2.5,1.8,4.7v268.3c0,25.7-2.9,41.5-59.8,41.5C316.1,354.7,307.5,354.5,299,354.2z
		 M385.1,346.4c0.3-0.2,0.5-0.5,0.8-0.7c0.1,0.4,0.3,0.8,0.4,1.1c-0.5,0.1-1.1,0.1-1.8,0.2C384.7,346.7,384.9,346.5,385.1,346.4z
		 M391.5,345c0,0.1-0.1,0.2-0.3,0.3l-2.8,1.3c-0.3-0.6-0.6-1.6-0.9-2.5c1-1.1,1.8-2.3,2.6-3.5C391,342.5,391.7,344.3,391.5,345z
		 M391.5,338.9l-0.3-0.6c0.3-0.6,0.6-1.3,0.9-2c0.1,0.3,0.2,0.5,0.4,0.8c0.6,1.2,1,2,1.3,2.6c-0.5,0.1-1.1,0.3-1.8,0.4
		C391.9,339.7,391.7,339.3,391.5,338.9z M398.5,336.9c0,0.1,0,0.2-0.3,0.3l-2.6,1.7c-0.4-0.6-1-1.8-1.4-2.7
		c-0.4-0.9-0.8-1.7-1.3-2.5c0.5-1.6,0.9-3.4,1.2-5.2c0.4,1,0.8,1.9,1.4,2.8l0.4,0.6C397.4,334.1,398.7,336.1,398.5,336.9z
		 M394.9,323.4c0-0.3,0-0.5,0.1-0.8c0,0,0,0,0,0.1c0.8,1.6,1.4,2.7,1.8,3.4c-0.4,0.1-0.8,0.2-1.2,0.3
		C395.3,325.3,395,324.3,394.9,323.4z M401.4,323.2c0,0.1,0,0.2-0.3,0.3l-2.6,1.7c-0.5-0.8-1.3-2.4-1.8-3.5
		c-0.6-1.2-1.1-2.2-1.6-3.1c0.1-1.7,0.1-3.5,0.1-5.4v-5.9c0.1-0.1,0.2-0.1,0.2-0.2c0.2,2.7,1.1,7.5,3,10.5l0.4,0.6
		C400.3,320.4,401.6,322.4,401.4,323.2z M397.6,308.2c0.4,0.5,0.8,1.2,1.2,1.8c1,1.5,1.7,2.5,2.3,3.2c-0.5,0.2-1.2,0.5-2,0.7
		c-0.1,0-0.1,0.1-0.2,0.1C398.2,311.9,397.8,309.8,397.6,308.2z M405.3,309.7c0,0.1,0,0.2-0.2,0.4l-2.3,2c-0.6-0.7-1.6-2.2-2.3-3.2
		c-0.9-1.4-1.8-2.6-2.5-3.4c-2.8-3.3-2.5-6.2-1.9-8.7c0.2-1,0.7-1.7,1.2-2.2c0.4,1.7,1.1,4.3,2.3,6.6c0,0.1,0,0.1,0.1,0.2
		c0.6,1.2,1.3,2.3,2.1,3.2l0.5,0.6C403.8,307,405.4,308.8,405.3,309.7z M399.5,295.4c0.1,0.2,0.2,0.4,0.4,0.5c1,1.5,1.7,2.5,2.2,3.1
		c-0.3,0.1-0.7,0.3-1.2,0.4C400.3,298.1,399.9,296.6,399.5,295.4z M406.4,295.7c0,0.1,0,0.2-0.2,0.4l-2.3,2
		c-0.6-0.7-1.6-2.2-2.3-3.2c-0.9-1.4-1.8-2.6-2.5-3.4c-2.8-3.3-2.5-6.2-1.9-8.7c0.2-1,0.7-1.7,1.2-2.2c0.5,2.7,2.1,7.3,4.4,10
		l0.5,0.6C404.9,293.1,406.5,294.9,406.4,295.7z M400.4,280.7c0.3,0.4,0.7,0.9,1,1.3c1.1,1.5,1.8,2.4,2.4,3.1
		c-0.5,0.2-1,0.4-1.6,0.6C401.3,284,400.8,282.1,400.4,280.7z M407.9,281.5c0,0.1,0,0.2-0.2,0.4l-2.2,2.1c-0.6-0.7-1.7-2.1-2.4-3.1
		c-1-1.3-1.9-2.6-2.6-3.3c-2.9-3.2-2.7-6.1-2.3-8.6c0.2-1,0.6-1.7,1.1-2.2c0.4,1.7,1.3,4.3,2.5,6.6c0,0,0,0.1,0.1,0.1
		c0.6,1.2,1.4,2.3,2.2,3.1l0.5,0.6C406.3,279,407.9,280.7,407.9,281.5z M401.6,267.5c0.1,0.2,0.3,0.4,0.4,0.5
		c1.1,1.4,1.8,2.4,2.3,3.1c-0.3,0.2-0.7,0.3-1.1,0.5C402.5,270.2,402,268.7,401.6,267.5z M408.5,267.6c0,0.1,0,0.2-0.2,0.4L406,270
		c-0.6-0.7-1.7-2.1-2.4-3.1c-1-1.3-1.9-2.6-2.6-3.3c-2.9-3.2-2.7-6.1-2.3-8.6c0.2-1,0.6-1.7,1.1-2.2c0.6,2.6,2.4,7.2,4.8,9.8
		l0.5,0.6C406.9,265,408.5,266.7,408.5,267.6z M401.9,252.9c0.3,0.4,0.6,0.8,0.9,1.1c1.1,1.4,1.9,2.4,2.5,3c-0.4,0.2-1,0.5-1.6,0.7
		C402.9,255.9,402.3,254.1,401.9,252.9z M405.8,248.9c1.8,1.8,3.5,3.5,3.5,4.3c0,0.1,0,0.2-0.2,0.4l-2.2,2.2c-0.6-0.7-1.7-2-2.5-3
		c-1-1.3-2-2.5-2.7-3.2c-3-3-2.9-6-2.6-8.5c0.1-1,0.6-1.8,1-2.3c0.5,1.7,1.5,4.2,2.8,6.4c0,0.1,0.1,0.1,0.1,0.2
		c0.7,1.1,1.5,2.2,2.3,3.1L405.8,248.9z M402.5,239.5c0.1,0.2,0.3,0.3,0.4,0.5c1.1,1.4,1.9,2.3,2.5,3c-0.3,0.2-0.7,0.3-1.1,0.5
		C403.5,242.1,402.9,240.6,402.5,239.5z M405.8,234.9c1.8,1.8,3.5,3.5,3.5,4.3c0,0.1,0,0.2-0.2,0.4l-2.2,2.2c-0.6-0.7-1.7-2-2.5-3
		c-1-1.3-2-2.5-2.7-3.2c-3-3-2.9-6-2.6-8.5c0.1-1,0.6-1.8,1-2.3c0.5,1.7,1.4,4.1,2.7,6.3c0,0,0,0,0,0c0,0.1,0.1,0.3,0.2,0.4
		c0.7,1.1,1.4,2.1,2.2,3L405.8,234.9z M402.5,225.5c0.1,0.2,0.3,0.3,0.4,0.5c1.1,1.4,1.9,2.4,2.5,3c-0.3,0.2-0.7,0.3-1.1,0.5
		C403.5,228.1,402.9,226.7,402.5,225.5z M405.8,220.9c1.8,1.8,3.5,3.5,3.5,4.3c0,0.1,0,0.2-0.2,0.4l-2.2,2.2c-0.6-0.7-1.7-2-2.5-3
		c-1-1.3-2-2.5-2.7-3.2c-3-3-2.9-6-2.6-8.5c0.1-1,0.6-1.8,1-2.3c0.5,1.7,1.5,4.2,2.8,6.4c0,0.1,0.1,0.1,0.1,0.2
		c0.7,1.1,1.5,2.2,2.3,3.1L405.8,220.9z M402.5,211.5c0.1,0.2,0.3,0.3,0.4,0.5c1.1,1.4,1.9,2.3,2.5,3c-0.3,0.2-0.7,0.3-1.1,0.5
		C403.5,214.1,402.9,212.6,402.5,211.5z M405.8,206.9c1.8,1.8,3.5,3.5,3.5,4.3c0,0.1,0,0.2-0.2,0.4l-2.2,2.2c-0.6-0.7-1.7-2-2.5-3
		c-1-1.3-2-2.5-2.7-3.2c-3-3-2.9-6-2.6-8.5c0.1-1,0.6-1.8,1-2.3c0.5,1.7,1.4,4.1,2.7,6.3c0,0,0,0,0,0c0,0.1,0.1,0.3,0.2,0.4
		c0.7,1.1,1.4,2.1,2.2,3L405.8,206.9z M402.5,197.5c0.1,0.2,0.3,0.3,0.4,0.5c1.1,1.4,1.9,2.4,2.5,3c-0.3,0.2-0.7,0.3-1.1,0.5
		C403.5,200.1,402.9,198.7,402.5,197.5z M405.8,192.9c1.8,1.8,3.5,3.5,3.5,4.3c0,0.1,0,0.2-0.2,0.4l-2.2,2.2c-0.6-0.7-1.7-2-2.5-3
		c-1-1.3-2-2.5-2.7-3.2c-3-3-2.9-6-2.6-8.5c0.1-1,0.6-1.8,1-2.3c0.5,1.7,1.5,4.2,2.8,6.4c0,0.1,0.1,0.1,0.1,0.2
		c0.7,1.1,1.5,2.2,2.3,3.1L405.8,192.9z M402.5,183.5c0.1,0.2,0.3,0.3,0.4,0.5c1.1,1.4,1.9,2.3,2.5,3c-0.3,0.2-0.7,0.3-1.1,0.5
		C403.5,186.1,402.9,184.6,402.5,183.5z M405.8,178.9c1.8,1.8,3.5,3.5,3.5,4.3c0,0.1,0,0.2-0.2,0.4l-2.2,2.2c-0.6-0.7-1.7-2-2.5-3
		c-1-1.3-2-2.5-2.7-3.2c-3-3-2.9-6-2.6-8.5c0.1-1,0.6-1.8,1-2.3c0.5,1.7,1.4,4.1,2.7,6.3c0,0,0,0,0,0c0,0.1,0.1,0.3,0.2,0.4
		c0.7,1.1,1.4,2.1,2.2,3L405.8,178.9z M402.5,169.5c0.1,0.2,0.3,0.3,0.4,0.5c1.1,1.4,1.9,2.4,2.5,3c-0.3,0.2-0.7,0.3-1.1,0.5
		C403.5,172.1,402.9,170.7,402.5,169.5z M405.8,164.9c1.8,1.8,3.5,3.5,3.5,4.3c0,0.1,0,0.2-0.2,0.4l-2.2,2.2c-0.6-0.7-1.7-2-2.5-3
		c-1-1.3-2-2.5-2.7-3.2c-3-3-2.9-6-2.6-8.5c0.1-1,0.6-1.8,1-2.3c0.5,1.7,1.5,4.2,2.8,6.4c0,0.1,0.1,0.1,0.1,0.2
		c0.7,1.1,1.5,2.2,2.3,3.1L405.8,164.9z M402.5,155.5c0.1,0.2,0.3,0.3,0.4,0.5c1.1,1.4,1.9,2.3,2.5,3c-0.3,0.2-0.7,0.3-1.1,0.5
		C403.5,158.1,402.9,156.6,402.5,155.5z M405.8,150.9c1.8,1.8,3.5,3.5,3.5,4.3c0,0.1,0,0.2-0.2,0.4l-2.2,2.2c-0.6-0.7-1.7-2-2.5-3
		c-1-1.3-2-2.5-2.7-3.2c-3-3-2.9-6-2.6-8.5c0.1-1,0.6-1.8,1-2.3c0.5,1.7,1.4,4.1,2.7,6.3c0,0,0,0,0,0c0,0.1,0.1,0.3,0.2,0.4
		c0.7,1.1,1.4,2.1,2.2,3L405.8,150.9z M402.5,141.5c0.1,0.2,0.3,0.3,0.4,0.5c1.1,1.4,1.9,2.4,2.5,3c-0.3,0.2-0.7,0.3-1.1,0.5
		C403.5,144.1,402.9,142.7,402.5,141.5z M405.8,136.9c1.8,1.8,3.5,3.5,3.5,4.3c0,0.1,0,0.2-0.2,0.4l-2.2,2.2c-0.6-0.7-1.7-2-2.5-3
		c-1-1.3-2-2.5-2.7-3.2c-3-3-2.9-6-2.6-8.5c0.1-1,0.6-1.8,1-2.3c0.5,1.7,1.5,4.2,2.8,6.4c0,0.1,0.1,0.1,0.1,0.2
		c0.7,1.1,1.5,2.2,2.3,3.1L405.8,136.9z M402.5,127.5c0.1,0.2,0.3,0.3,0.4,0.5c1.1,1.4,1.9,2.3,2.5,3c-0.3,0.2-0.7,0.3-1.1,0.5
		C403.5,130.1,402.9,128.6,402.5,127.5z M405.8,122.9c1.8,1.8,3.5,3.5,3.5,4.3c0,0.1,0,0.2-0.2,0.4l-2.2,2.2c-0.6-0.7-1.7-2-2.5-3
		c-1-1.3-2-2.5-2.7-3.2c-3-3-2.9-6-2.6-8.5c0.1-1,0.6-1.8,1-2.3c0.5,1.7,1.4,4.1,2.7,6.3c0,0,0,0,0,0c0,0.1,0.1,0.3,0.2,0.4
		c0.7,1.1,1.4,2.1,2.2,3L405.8,122.9z M402.5,113.5c0.1,0.2,0.3,0.3,0.4,0.5c1.1,1.4,1.9,2.4,2.5,3c-0.3,0.2-0.7,0.3-1.1,0.5
		C403.5,116.1,402.9,114.7,402.5,113.5z M405.8,108.9c1.8,1.8,3.5,3.5,3.5,4.3c0,0.1,0,0.2-0.2,0.4l-2.2,2.2c-0.6-0.7-1.7-2-2.5-3
		c-1-1.3-2-2.5-2.7-3.2c-3-3-2.9-6-2.6-8.5c0.1-1,0.6-1.8,1-2.3c0.5,1.7,1.5,4.2,2.8,6.4c0,0.1,0.1,0.1,0.1,0.2
		c0.7,1.1,1.5,2.2,2.3,3.1L405.8,108.9z M402.5,99.5c0.1,0.2,0.3,0.3,0.4,0.5c1.1,1.4,1.9,2.3,2.5,3c-0.3,0.2-0.7,0.3-1.1,0.5
		C403.5,102.1,402.9,100.6,402.5,99.5z M405.8,94.9c1.8,1.8,3.5,3.5,3.5,4.3c0,0.1,0,0.2-0.2,0.4l-2.2,2.2c-0.6-0.7-1.7-2-2.5-3
		c-1-1.3-2-2.5-2.7-3.2c-3-3-2.9-6-2.6-8.5c0.1-1,0.6-1.8,1-2.3c0.5,1.7,1.4,4.1,2.7,6.3c0,0,0,0,0,0c0,0.1,0.1,0.3,0.2,0.4
		c0.7,1.1,1.4,2.1,2.2,3L405.8,94.9z M402.5,85.5c0.1,0.2,0.3,0.3,0.4,0.5c1.1,1.4,1.9,2.4,2.5,3c-0.3,0.2-0.7,0.3-1.1,0.5
		C403.5,88.1,402.9,86.7,402.5,85.5z M405.8,80.9c1.8,1.8,3.5,3.5,3.5,4.3c0,0.1,0,0.2-0.2,0.4l-2.2,2.2c-0.6-0.7-1.7-2-2.5-3
		c-1-1.3-2-2.5-2.7-3.2c-3-3-2.9-6-2.6-8.5c0.1-1,0.6-1.8,1-2.3c0.5,1.7,1.5,4.2,2.8,6.4c0,0.1,0.1,0.1,0.1,0.2
		c0.7,1.1,1.5,2.2,2.3,3.1L405.8,80.9z M402.5,71.5c0.1,0.2,0.3,0.3,0.4,0.5c1.1,1.4,1.9,2.3,2.5,3c-0.3,0.2-0.7,0.3-1.1,0.5
		C403.5,74.1,402.9,72.6,402.5,71.5z"/>
</g>
</svg>
