<?xml version="1.0" encoding="utf-8"?>
<!-- Generator: Adobe Illustrator 20.1.0, SVG Export Plug-In . SVG Version: 6.00 Build 0)  -->
<svg version="1.1" xmlns="http://www.w3.org/2000/svg" xmlns:xlink="http://www.w3.org/1999/xlink" x="0px" y="0px"
	 viewBox="0 0 531 363" style="enable-background:new 0 0 531 363;" xml:space="preserve">
<style type="text/css">
	.st0{fill:#FFFFFF;}
	.st1{fill:#1A1A1A;}
</style>
<g id="back">
	<path class="st0" d="M529.3,270.2c-9.6-66.2-28.6-193.4-32-201c-4.3-9.7-7.8-12.8-20.7-13l-1.5,0V30.5H314.5v-3H301l0.4-1.8
		c1.3-6.5,9.9-11.7,16.1-11.7c4.4,0,9.6,2.4,12.9,5.8l2.5-2.2c-4-4-11.1-6.6-15.4-6.6c-3.1,0-7.3,1.4-10.8,3.5l-2.1,1.3l-0.2-2.4
		c-0.6-6.7-6.2-11.9-12.9-11.9c-6.6,0-12.2,5-12.9,11.5l-0.3,2.4l-2-1.3c-3-1.9-7-3.1-10.8-3.1c-3.6,0-7.8,1.2-10.8,3.2l-2.1,1.4
		l-0.3-2.4c-0.7-6.6-6.3-11.6-12.9-11.6c-6.7,0-12.4,5.2-12.9,11.9l-0.2,2.5l-2.1-1.3c-3.5-2.2-7.7-3.6-10.8-3.6
		c-4.4,0-11.5,2.6-15.4,6.6l2.6,2.2c3.3-3.4,8.5-5.8,12.9-5.8c6.2,0,14.8,5.2,16.1,11.7l0.4,1.8h-13.4v3H55.8v25.7l-1.5,0
		c-13,0.2-16.4,3.3-20.7,13c-3.5,7.7-22.4,134.9-32,201.1c-0.3,3.3,0.3,3.8,2.4,5.7c0.8,0.7,1.9,1.6,3.2,2.9
		c0.7,0.7,1.3,2.5,2.8,7.7c6,20.5,22,75,95.3,75h320.2c73.3,0,89.3-54.5,95.3-75c1.5-5.2,2.1-6.9,2.8-7.6c1.5-1.5,2.7-2.4,3.6-3.1
		C529.3,274.1,529.8,273.6,529.3,270.2L529.3,270.2z M249,27.5l0.4-1.8c1.3-6.5,9.9-11.7,16.1-11.7c6.5,0,14.8,5,16.1,11.7l0.4,1.8
		H249z"/>
</g>
<g id="lines">
	<g>
		<path class="st1" d="M530.7,270c-1.1-7.8-27.7-191.7-32.1-201.4c-4.5-10-8.4-13.6-22-13.9V30.5c0-0.8-0.7-1.5-1.5-1.5H316v-1.5
			c0-0.8-0.7-1.5-1.5-1.5h-11.7c1.2-5.9,9.3-10.5,14.7-10.5c4.1,0,9.1,2.3,12.1,5.6c0.4,0.4,1,0.4,1.4,0.1l3.3-2.8
			c0.2-0.2,0.3-0.4,0.3-0.7c0-0.3-0.1-0.5-0.3-0.7c-4.3-4.6-12.1-7.5-16.9-7.5c-3.4,0-7.9,1.5-11.6,3.8C305.3,5.9,299,0,291.5,0
			c-7.4,0-13.6,5.6-14.4,12.9c-3.2-2.1-7.4-3.4-11.6-3.4c-3.5,0-8,1.1-11.6,3.4C253.1,5.7,246.9,0,239.5,0
			c-7.6,0-13.8,5.9-14.4,13.3c-3.7-2.3-8.2-3.8-11.6-3.8c-4.8,0-12.6,2.9-16.9,7.5c-0.2,0.2-0.3,0.5-0.3,0.7c0,0.3,0.1,0.5,0.3,0.7
			l3.3,2.8c0.4,0.4,1,0.3,1.4-0.1c3-3.3,8-5.6,12.1-5.6c5.4,0,13.5,4.6,14.7,10.5h-11.6c-0.8,0-1.5,0.7-1.5,1.5V29H55.8
			c-0.8,0-1.5,0.7-1.5,1.5v24.2c-13.6,0.2-17.6,3.8-22.1,13.9C27.8,78.3,1.2,262.1,0.1,270c-0.4,4,0.4,4.9,2.9,7
			c0.8,0.7,1.9,1.6,3.1,2.9c0.5,0.6,1.5,3.9,2.4,7c6.1,20.8,22.3,76.1,96.7,76.1h320.2c74.4,0,90.6-55.3,96.7-76.1
			c0.9-3.2,1.9-6.5,2.4-7c1.4-1.4,2.5-2.3,3.4-3C530.6,275,531.4,274,530.7,270z M300.3,26c0.2-0.2,0.4-0.3,0.6-0.5
			c0,0.2-0.1,0.3-0.1,0.5H300.3z M332.1,17.6l-1.8,1.5c-3.4-3.4-8.5-5.6-12.9-5.6c-3.7,0-8.5,1.9-12.1,4.9c0.3-0.9,0.4-1.8,0.5-2.8
			c3.5-2.5,8.1-4.2,11.6-4.2C321.6,11.5,328.2,13.9,332.1,17.6z M291.5,3c6.3,0,11.5,5.2,11.5,11.5S297.8,26,291.5,26
			S280,20.8,280,14.5S285.1,3,291.5,3z M248.7,26h-0.5c0.2-0.2,0.4-0.3,0.6-0.5C248.8,25.7,248.8,25.8,248.7,26z M282.2,26
			c0-0.2-0.1-0.3-0.1-0.5c0.2,0.2,0.4,0.3,0.6,0.5H282.2z M277,15.3c0.1,1,0.2,2.1,0.5,3c-3.4-2.9-7.9-4.8-12-4.8
			c-3.7,0-8.5,1.9-12.1,4.9c0.3-1,0.4-2,0.5-3.1c3.3-2.6,8.1-3.9,11.5-3.9C269,11.5,273.8,12.7,277,15.3z M280.1,26h-29.3
			c1.2-5.9,9.3-10.5,14.7-10.5C271.5,15.5,279,20.3,280.1,26z M239.5,3c6.3,0,11.5,5.2,11.5,11.5S245.8,26,239.5,26
			S228,20.8,228,14.5S233.1,3,239.5,3z M213.4,13.5c-4.4,0-9.5,2.2-12.9,5.6l-1.8-1.5c3.9-3.7,10.6-6.1,14.7-6.1
			c3.4,0,8.1,1.7,11.6,4.2c0.1,1,0.3,1.9,0.5,2.8C222,15.4,217.1,13.5,213.4,13.5z M230,25.5c0.2,0.2,0.4,0.4,0.6,0.5h-0.5
			C230.1,25.8,230.1,25.7,230,25.5z M313,29v9.5h-95v-8c0,0,0,0,0,0s0,0,0,0V29H313z M215,32v8c0,0.8,0.7,1.5,1.5,1.5h98
			c0.8,0,1.5-0.7,1.5-1.5v-8h157.7v22.7l-17,0v-5.2c0-0.8-0.7-1.5-1.5-1.5H75.8c-0.8,0-1.5,0.7-1.5,1.5v5.2l-17,0V32H215z
			 M526.3,274.6c-0.9,0.7-2.2,1.7-3.7,3.2c-1,1-1.7,3.3-3.2,8.3c-5.9,20.2-21.7,73.9-93.8,73.9H105.3c-72.2,0-87.9-53.7-93.8-73.9
			c-1.5-5-2.2-7.3-3.2-8.3c-1.4-1.4-2.5-2.3-3.3-3c-2-1.7-2.2-1.8-1.9-4.4C12.6,204.3,31.6,77.3,35,69.8c4-9,6.7-12.1,20.8-12.1
			l20,0c0.4,0,0.8-0.2,1.1-0.4s0.4-0.7,0.4-1.1V51h376.3v5.2c0,0.4,0.2,0.8,0.4,1.1s0.7,0.4,1.1,0.4l19.9,0
			c14.1,0,16.8,3.1,20.8,12.1c3.4,7.5,22.3,134.5,31.9,200.6C528.2,273.1,528.1,273.1,526.3,274.6z"/>
		<path class="st1" d="M492.9,74c-4.5-10-8.3-13.1-22.6-13.1l-20.5,0v-5.4c0-0.6-0.4-1-1-1H82.1c-0.6,0-1,0.4-1,1v5.4l-20.5,0
			c-15.9,0-19,2.6-22.6,13.2c-3.4,9.6-29.2,186-30.3,193.4c-0.9,4.2,0.2,5.3,2.5,7.2c0.7,0.6,1.4,1.2,2.3,2.1
			c0.6,0.6,1.5,3.7,2.5,6.9c5.9,19.9,21.7,72.9,94.1,72.9h312.9c72.4,0,88.1-52.9,94.1-72.8c1-3.3,1.9-6.4,2.5-6.9
			c1.2-1.2,2.2-2,3-2.6c2.4-2,3-2.7,2.3-6.6C522.6,260,497.1,83.3,492.9,74z M520.1,272.6c-0.8,0.6-1.8,1.5-3.1,2.8
			c-0.9,0.9-1.6,3-3,7.8c-5.8,19.5-21.3,71.4-92.1,71.4H109c-71,0-86.4-51.9-92.2-71.5c-1.4-4.7-2.1-6.8-3-7.7c-1-1-1.8-1.7-2.5-2.2
			c-2-1.6-2.4-2-1.8-5.3C9.8,266,36.5,84.2,39.8,74.7c3.4-9.7,5.6-11.8,20.8-11.8l21.5,0c0.3,0,0.5-0.1,0.7-0.3s0.3-0.4,0.3-0.7
			v-5.4h364.7v5.4c0,0.3,0.1,0.5,0.3,0.7s0.4,0.3,0.7,0.3l21.5,0c14,0,16.8,3.3,20.8,11.9c4.1,9.1,30.3,191.1,30.6,193
			C522.2,270.8,522.1,270.9,520.1,272.6z"/>
	</g>
</g>
</svg>
