<?xml version="1.0" encoding="utf-8"?>
<!-- Generator: Adobe Illustrator 20.1.0, SVG Export Plug-In . SVG Version: 6.00 Build 0)  -->
<svg version="1.1" xmlns="http://www.w3.org/2000/svg" xmlns:xlink="http://www.w3.org/1999/xlink" x="0px" y="0px"
	 viewBox="0 0 443.3 567.3" style="enable-background:new 0 0 443.3 567.3;" xml:space="preserve">
<style type="text/css">
	.st0{fill:#FFFFFF;}
	.st1{fill:#1A1A1A;}
</style>
<g id="back">
	<path class="st0" d="M435.6,251.2l-1.7-1.6c-2.7-2.5-3.8-3.6-13-12.4c-3.2-3.1-5.4-5.8-7.3-8.1c-4.3-5.3-6.6-8.2-16.1-8.4l-0.7,0
		l-37.5-42v-7.6l0.9-0.4c0.9-0.4,1-1.2,1-1.8c0,0-0.1-21.5-0.1-22.6c0-1.3-0.6-1.6-0.9-1.7l-0.9-0.4l0-1c-0.3-20.8-8.5-56.1-30.8-87
		c-18-25-51.3-54.8-107.3-54.8c-55.2,0-88.5,31.5-106.8,58C91.3,93.2,84.6,129,84.2,143.3l0,1l-0.9,0.4c-0.2,0.1-0.9,0.3-0.9,1.7
		c0,1.1-0.1,22.6-0.1,22.6c0,0.6,0.2,1.4,1,1.8l0.9,0.4v7.6l-37.5,42l-0.7,0c-9.7,0.1-12,3.1-16.3,8.4c-1.9,2.3-4,5-7.3,8.1
		c-9.3,8.8-10.4,9.9-13,12.4l-1.7,1.6c-0.5,0.5-1,0.9-1.6,1.4c-4.1,3.5-6.5,6.3-2.9,19.6c0.9,3.4,3.6,17.8,8.4,43.9l0,0.1l0,0.1
		c-0.3,61.1,11.3,178,12.8,188.8c1,7.5,2.7,12.4,5.3,19.9c0.8,2.3,1.7,4.9,2.7,7.8c3.4,10.2,6.5,12.4,8.5,13.8
		c0.4,0.3,0.7,0.5,1,0.7c0.8,0.7,2,1.3,3.5,2c1.9,1,4.6,2.3,7.6,4.5l0.5,0.4l0.1,0.6c0.2,1.2,0.4,1.9,0.4,2.2
		c1.3,6.2,3.3,8.7,11.8,8.7h311.9c8.5,0,10.4-2.6,11.8-8.8c0.1-0.3,0.2-1,0.4-2.2l0.1-0.6l0.5-0.4c3-2.2,5.7-3.5,7.6-4.5
		c1.5-0.8,2.7-1.3,3.5-2c0.3-0.2,0.6-0.4,0.9-0.6c2.1-1.5,5.2-3.6,8.6-13.9c1-2.9,1.9-5.5,2.7-7.8c2.6-7.5,4.3-12.4,5.3-19.9
		c1.5-10.8,13-127.7,12.8-188.8l0-0.1l0-0.1c4.7-26.1,7.5-40.4,8.4-43.9c3.5-13.3,1.2-16.1-2.9-19.6l0,0l1-1.1l-1,1.1
		C436.6,252.2,436.1,251.7,435.6,251.2z M70,220.8L84,205l0.2,3.6c0.2,3.4,4.1,6.7,7.9,6.7c3.9,0,8.3-2.8,8.3-6.5v-3.5l2.5,2.4
		l13.9,13.1H70z M142.5,220.8l-42-39.6v-10l0.9-0.4c0.2-0.1,0.3-0.2,0.4-0.3c0.3-0.3,0.5-0.8,0.5-1.4v-22.4c0-1.6-0.7-1.9-0.9-2
		l-0.9-0.4l0.1-1c0.6-10,7.3-39.4,24.2-66.7c16-25.9,45.8-56.8,96.5-56.8c50.8,0,80.8,30.7,97,56.4c17.3,27.4,24.2,57.1,24.8,67.1
		l0.1,1l-0.9,0.4c-0.2,0.1-0.9,0.4-0.9,2v22.4c0,0.6,0.2,1.1,0.5,1.4c0.1,0.1,0.3,0.2,0.4,0.3l0.9,0.4v10l-42,39.6H142.5z
		 M326.6,220.8l16.4-15.5v3.5c0,3.7,4.5,6.5,8.3,6.5c3.7,0,7.7-3.3,7.9-6.7l0.2-3.6l14,15.8H326.6z"/>
</g>
<g id="lines">
	<g>
		<path class="st1" d="M92.4,541.4l-1,0.2c0.3,1.3,0.6,2.7,0.9,3.9l1-0.2C93,544.1,92.7,542.8,92.4,541.4z"/>
		<rect x="73.8" y="441" transform="matrix(0.9871 -0.1601 0.1601 0.9871 -69.9782 17.6107)" class="st1" width="1" height="4"/>
		<path class="st1" d="M93.7,547.3l-1,0.2c0.3,1.4,0.6,2.7,0.9,3.9l1-0.2C94.3,550,94,548.7,93.7,547.3z"/>
		<rect x="72.8" y="435.1" transform="matrix(0.9874 -0.1582 0.1582 0.9874 -68.2319 17.107)" class="st1" width="1" height="4"/>
		<path class="st1" d="M95.6,559.2c0.4,1.4,0.8,2.7,1.1,3.9l1-0.3c-0.4-1.1-0.7-2.4-1.1-3.8L95.6,559.2z"/>
		<path class="st1" d="M95.1,553.1l-1,0.2c0.3,1.4,0.7,2.7,1,3.9l1-0.3C95.8,555.8,95.4,554.5,95.1,553.1z"/>
		<rect x="74.8" y="446.9" transform="matrix(0.9871 -0.1601 0.1601 0.9871 -70.9146 17.8419)" class="st1" width="1" height="4"/>
		<rect x="68.1" y="405.4" transform="matrix(0.988 -0.1543 0.1543 0.988 -62.0292 15.4612)" class="st1" width="1" height="4"/>
		<rect x="67.2" y="399.5" transform="matrix(0.988 -0.1543 0.1543 0.988 -61.1253 15.2471)" class="st1" width="1" height="4"/>
		<rect x="71.9" y="429.2" transform="matrix(0.9874 -0.1582 0.1582 0.9874 -67.306 16.8815)" class="st1" width="1" height="4"/>
		<rect x="69" y="411.4" transform="matrix(0.9877 -0.1562 0.1562 0.9877 -63.6999 15.9322)" class="st1" width="1" height="4"/>
		<rect x="70.9" y="423.2" transform="matrix(0.9877 -0.1563 0.1563 0.9877 -65.5912 16.3918)" class="st1" width="1" height="4"/>
		<rect x="70" y="417.3" transform="matrix(0.9877 -0.1563 0.1563 0.9877 -64.676 16.1717)" class="st1" width="1" height="4"/>
		<rect x="76.7" y="458.8" transform="matrix(0.9864 -0.1641 0.1641 0.9864 -74.5612 18.9128)" class="st1" width="1" height="4"/>
		<rect x="82.8" y="494.3" transform="matrix(0.9848 -0.1739 0.1739 0.9848 -85.0368 22.044)" class="st1" width="1" height="4"/>
		<rect x="81.7" y="488.4" transform="matrix(0.9851 -0.1718 0.1718 0.9851 -83.0431 21.4259)" class="st1" width="1" height="4"/>
		<rect x="79.7" y="476.6" transform="matrix(0.9858 -0.168 0.168 0.9858 -79.2768 20.2811)" class="st1" width="1" height="4"/>
		<rect x="80.7" y="482.5" transform="matrix(0.9855 -0.1699 0.1699 0.9855 -81.1498 20.8479)" class="st1" width="1" height="4"/>
		<rect x="66.3" y="393.6" transform="matrix(0.9883 -0.1524 0.1524 0.9883 -59.4866 14.7894)" class="st1" width="1" height="4"/>
		<rect x="78.7" y="470.6" transform="matrix(0.9861 -0.166 0.166 0.9861 -77.3504 19.6997)" class="st1" width="1" height="4"/>
		<rect x="77.7" y="464.7" transform="matrix(0.9864 -0.1641 0.1641 0.9864 -75.5195 19.1552)" class="st1" width="1" height="4"/>
		<path class="st1" d="M88.9,523.8l-1,0.2c0.3,1.3,0.5,2.6,0.8,3.9l1-0.2C89.4,526.4,89.1,525.1,88.9,523.8z"/>
		<path class="st1" d="M91.2,535.6l-1,0.2c0.3,1.3,0.5,2.7,0.8,3.9l1-0.2C91.7,538.2,91.5,536.9,91.2,535.6z"/>
		<path class="st1" d="M90,529.7l-1,0.2c0.3,1.3,0.5,2.6,0.8,3.9l1-0.2C90.5,532.3,90.3,531,90,529.7z"/>
		<path class="st1" d="M87.7,517.9l-1,0.2c0.3,1.3,0.5,2.6,0.7,3.9l1-0.2C88.2,520.5,88,519.2,87.7,517.9z"/>
		<rect x="84.9" y="506.1" transform="matrix(0.9837 -0.1797 0.1797 0.9837 -89.9421 23.6274)" class="st1" width="1" height="4"/>
		<rect x="86" y="512" transform="matrix(0.9834 -0.1816 0.1816 0.9834 -91.9274 24.2615)" class="st1" width="1" height="4"/>
		<rect x="83.8" y="500.2" transform="matrix(0.9844 -0.1758 0.1758 0.9844 -86.9716 22.6463)" class="st1" width="1" height="4"/>
		<rect x="49.4" y="280.7" transform="matrix(0.9896 -0.1436 0.1436 0.9896 -40.0878 10.0945)" class="st1" width="1" height="4"/>
		<rect x="48.5" y="274.8" transform="matrix(0.9898 -0.1426 0.1426 0.9898 -38.9665 9.8179)" class="st1" width="1" height="4"/>
		<rect x="47.7" y="268.9" transform="matrix(0.9898 -0.1426 0.1426 0.9898 -38.1274 9.6348)" class="st1" width="1" height="4"/>
		<rect x="75.7" y="452.9" transform="matrix(0.9868 -0.1622 0.1622 0.9868 -72.7613 18.3837)" class="st1" width="1" height="4"/>
		<rect x="46" y="257" transform="matrix(0.9899 -0.1416 0.1416 0.9899 -36.1903 9.1838)" class="st1" width="1" height="4"/>
		<rect x="44.3" y="245.1" transform="matrix(0.9901 -0.1406 0.1406 0.9901 -34.2925 8.7469)" class="st1" width="1" height="4"/>
		<rect x="50.2" y="286.7" transform="matrix(0.9895 -0.1446 0.1446 0.9895 -41.2016 10.3688)" class="st1" width="1" height="4"/>
		<rect x="46.8" y="262.9" transform="matrix(0.9898 -0.1425 0.1425 0.9898 -37.2705 9.4461)" class="st1" width="1" height="4"/>
		<rect x="45.1" y="251" transform="matrix(0.9899 -0.1416 0.1416 0.9899 -35.3566 9.0035)" class="st1" width="1" height="4"/>
		<rect x="55.5" y="322.3" transform="matrix(0.9892 -0.1465 0.1465 0.9892 -46.9048 11.698)" class="st1" width="1" height="4"/>
		<rect x="54.6" y="316.4" transform="matrix(0.9892 -0.1465 0.1465 0.9892 -46.0442 11.5052)" class="st1" width="1" height="4"/>
		<rect x="65.3" y="387.6" transform="matrix(0.9883 -0.1524 0.1524 0.9883 -58.5911 14.5797)" class="st1" width="1" height="4"/>
		<rect x="52.9" y="304.5" transform="matrix(0.9895 -0.1446 0.1446 0.9895 -43.7516 10.9326)" class="st1" width="1" height="4"/>
		<rect x="53.7" y="310.5" transform="matrix(0.9895 -0.1446 0.1446 0.9895 -44.6014 11.1214)" class="st1" width="1" height="4"/>
		<rect x="52" y="298.6" transform="matrix(0.9895 -0.1446 0.1446 0.9895 -42.9018 10.7444)" class="st1" width="1" height="4"/>
		<rect x="51.1" y="292.6" transform="matrix(0.9895 -0.1446 0.1446 0.9895 -42.0518 10.5564)" class="st1" width="1" height="4"/>
		<rect x="59.9" y="352" transform="matrix(0.9889 -0.1484 0.1484 0.9889 -51.8655 12.8844)" class="st1" width="1" height="4"/>
		<rect x="62.6" y="369.8" transform="matrix(0.9886 -0.1504 0.1504 0.9886 -55.2211 13.7269)" class="st1" width="1" height="4"/>
		<rect x="61.7" y="363.9" transform="matrix(0.9886 -0.1504 0.1504 0.9886 -54.3398 13.5238)" class="st1" width="1" height="4"/>
		<rect x="63.5" y="375.8" transform="matrix(0.9886 -0.1504 0.1504 0.9886 -56.1011 13.9302)" class="st1" width="1" height="4"/>
		<rect x="64.4" y="381.7" transform="matrix(0.9883 -0.1524 0.1524 0.9883 -57.6963 14.3708)" class="st1" width="1" height="4"/>
		<rect x="43.4" y="239.1" transform="matrix(0.9901 -0.1406 0.1406 0.9901 -33.4637 8.5687)" class="st1" width="1" height="4"/>
		<rect x="60.8" y="358" transform="matrix(0.9889 -0.1484 0.1484 0.9889 -52.7366 13.0831)" class="st1" width="1" height="4"/>
		<rect x="59" y="346.1" transform="matrix(0.9889 -0.1484 0.1484 0.9889 -50.9944 12.6861)" class="st1" width="1" height="4"/>
		<rect x="57.2" y="334.2" transform="matrix(0.9892 -0.1465 0.1465 0.9892 -48.6258 12.0848)" class="st1" width="1" height="4"/>
		<rect x="41.7" y="227.2" transform="matrix(0.9903 -0.1392 0.1392 0.9903 -31.4833 8.1062)" class="st1" width="1" height="4"/>
		<rect x="42.6" y="233.1" transform="matrix(0.9902 -0.1396 0.1396 0.9902 -32.4151 8.3178)" class="st1" width="1" height="4"/>
		<rect x="56.4" y="328.3" transform="matrix(0.9892 -0.1465 0.1465 0.9892 -47.7654 11.8913)" class="st1" width="1" height="4"/>
		<rect x="58.1" y="340.2" transform="matrix(0.9889 -0.1484 0.1484 0.9889 -50.123 12.4883)" class="st1" width="1" height="4"/>
		<path class="st1" d="M352.7,239.3c0-3.4-0.4-5.8-5.1-5.8H95.7c-4.7,0-5.1,2.4-5.1,5.8v10.3c0,0.7,0,2.6,31.5,46.4
			c15.2,21.1,32.3,44.4,34.8,46.8c4.8,4.8,5.4,4.8,15.3,4.8H271c0.3,0,0.5,0,0.7,0c9.2,0,9.9-0.1,14.6-4.8
			c2.4-2.4,19.6-25.7,34.8-46.8c31.5-43.8,31.5-45.7,31.5-46.4V239.3z M349.7,249.3c-2.1,5-60,85.9-65.4,91.3
			c-3.9,3.9-4,3.9-13.2,3.9h-97.9h-0.8c-9.3,0-9.3,0-13.2-3.9c-5.2-5.2-59.7-81.2-65-90.6h2.1v-1h-2.5v-9.8c0-2.8,0-2.8,2.1-2.8
			h251.9c2.1,0,2.1,0,2.1,2.8V249.3z"/>
		<rect x="128.1" y="249" class="st1" width="4" height="1"/>
		<rect x="140.1" y="249" class="st1" width="4" height="1"/>
		<rect x="146.1" y="249" class="st1" width="4" height="1"/>
		<rect x="134.1" y="249" class="st1" width="4" height="1"/>
		<rect x="158.1" y="249" class="st1" width="4" height="1"/>
		<rect x="152.1" y="249" class="st1" width="4" height="1"/>
		<rect x="104.1" y="249" class="st1" width="4" height="1"/>
		<rect x="122.1" y="249" class="st1" width="4" height="1"/>
		<rect x="98.1" y="249" class="st1" width="4" height="1"/>
		<rect x="164.1" y="249" class="st1" width="4" height="1"/>
		<rect x="116.1" y="249" class="st1" width="4" height="1"/>
		<rect x="110.1" y="249" class="st1" width="4" height="1"/>
		<rect x="230.1" y="249" class="st1" width="4" height="1"/>
		<rect x="296.1" y="249" class="st1" width="4" height="1"/>
		<rect x="308.1" y="249" class="st1" width="4" height="1"/>
		<rect x="290.1" y="249" class="st1" width="4" height="1"/>
		<rect x="266.1" y="249" class="st1" width="4" height="1"/>
		<rect x="272.1" y="249" class="st1" width="4" height="1"/>
		<rect x="278.1" y="249" class="st1" width="4" height="1"/>
		<rect x="284.1" y="249" class="st1" width="4" height="1"/>
		<rect x="302.1" y="249" class="st1" width="4" height="1"/>
		<rect x="332.1" y="249" class="st1" width="4" height="1"/>
		<rect x="314.1" y="249" class="st1" width="4" height="1"/>
		<rect x="344.1" y="249" class="st1" width="4" height="1"/>
		<rect x="338.1" y="249" class="st1" width="4" height="1"/>
		<rect x="320.1" y="249" class="st1" width="4" height="1"/>
		<rect x="326.1" y="249" class="st1" width="4" height="1"/>
		<rect x="170.1" y="249" class="st1" width="4" height="1"/>
		<rect x="194.1" y="249" class="st1" width="4" height="1"/>
		<rect x="200.1" y="249" class="st1" width="4" height="1"/>
		<rect x="206.1" y="249" class="st1" width="4" height="1"/>
		<rect x="212.1" y="249" class="st1" width="4" height="1"/>
		<rect x="176.1" y="249" class="st1" width="4" height="1"/>
		<rect x="182.1" y="249" class="st1" width="4" height="1"/>
		<rect x="188.1" y="249" class="st1" width="4" height="1"/>
		<rect x="254.1" y="249" class="st1" width="4" height="1"/>
		<polygon class="st1" points="218.1,249 218.1,250 222.1,250 222.1,249 		"/>
		<rect x="248.1" y="249" class="st1" width="4" height="1"/>
		<rect x="260.1" y="249" class="st1" width="4" height="1"/>
		<rect x="242.1" y="249" class="st1" width="4" height="1"/>
		<rect x="224.1" y="249" class="st1" width="4" height="1"/>
		<rect x="236.1" y="249" class="st1" width="4" height="1"/>
		<path class="st1" d="M438.1,251.5c-0.5-0.4-1-0.9-1.5-1.3l-1.7-1.6c-2.7-2.5-3.8-3.5-13-12.4c-3.2-3-5.3-5.6-7.1-7.9
			c-4.4-5.4-7.1-8.8-17.2-9l-36.7-41.1v-6.1c1.2-0.5,1.9-1.7,1.9-3.2v0c0,0-0.1-21.5-0.1-22.6c0-1.6-0.7-2.6-1.8-3.1
			c-0.3-21.4-8.6-56.6-31.1-87.8C311.5,30.1,277.9,0,221.2,0c-55.9,0-89.6,31.9-108,58.6c-21.9,31.8-30.1,67.4-30.5,84.6
			c-1.2,0.5-1.9,1.5-1.9,3.1c0,1.1-0.1,22.6-0.1,22.6v0c0,1.5,0.7,2.6,1.9,3.2v6.1L46,219.3c-10.3,0.1-13.1,3.5-17.5,9
			c-1.9,2.3-4,4.9-7.1,7.9c-9.3,8.8-10.4,9.9-13,12.4l-1.7,1.6c-0.5,0.5-1,0.9-1.5,1.3c-4.6,3.9-7.1,7.2-3.4,21.1
			c1,3.6,4.1,20.2,8.3,43.7c-0.3,61.2,11.3,178.2,12.8,189c1,7.7,2.8,12.6,5.4,20.2c0.8,2.3,1.7,4.8,2.7,7.8
			c3.6,10.7,6.9,13,9.1,14.6c0.3,0.2,0.6,0.4,0.9,0.6c1,0.8,2.2,1.4,3.8,2.2c2,1,4.5,2.3,7.4,4.4c0.2,1.2,0.4,2,0.4,2.2
			c1.5,6.7,3.8,9.9,13.2,9.9h311.9c9.4,0,11.8-3.2,13.2-9.9c0.1-0.3,0.2-1,0.4-2.2c2.9-2.1,5.4-3.4,7.4-4.4c1.6-0.8,2.8-1.4,3.8-2.2
			c0.3-0.2,0.5-0.4,0.9-0.6c2.2-1.5,5.6-3.9,9.1-14.6c1-2.9,1.9-5.5,2.7-7.8c2.6-7.5,4.4-12.5,5.4-20.2c1.5-10.8,13-127.8,12.8-189
			c4.2-23.5,7.4-40.1,8.3-43.7C445.2,258.7,442.7,255.4,438.1,251.5z M393.5,219.3h-12.6l-20-23v-13.6L393.5,219.3z M143.1,219.3
			L102,180.5v-8.4c0.3-0.1,0.6-0.3,0.8-0.5c0.4-0.4,1-1.2,1-2.5v-22.4c0-2-0.9-2.9-1.8-3.3c0.5-8.9,6.7-38.1,24-66
			c15.8-25.6,45.2-56,95.2-56c50.1,0,79.7,30.3,95.7,55.7c17.7,28,24,57.4,24.5,66.4c-0.9,0.4-1.8,1.3-1.8,3.3v22.4
			c0,1.3,0.5,2,1,2.5c0.3,0.3,0.6,0.4,0.8,0.5v8.4l-41.1,38.7H143.1z M83.9,146.3c0-0.1,0-0.2,0-0.3c0.1,0,0.2,0,0.3,0h16.3
			c0.1,0,0.2,0,0.2,0c0,0.1,0.1,0.2,0.1,0.7v22.4c0,0.2,0,0.3,0,0.3c0,0-0.2,0.1-0.2,0.1l-16.2,0c-0.4,0-0.5,0-0.5-0.5
			C83.8,168.6,83.9,147.5,83.9,146.3z M99,172.4v36.3c0,2.7-3.8,5-6.8,5c-3.1,0-6.4-2.9-6.4-5.5v-35.8H99z M82.7,204.2l-13.4,15.1
			h-4l17.4-19.9V204.2z M82.8,208.7c0.3,4.1,4.8,8.1,9.4,8.1c4.6,0,9.8-3.4,9.8-8v0l11.2,10.5H73.4L82.8,208.7z M117.5,219.3
			L102,204.6v-4.7l20.7,19.3H117.5z M125.6,219.3L102,197.2v-12.5l36.7,34.6H125.6z M359.3,146c0.1,0,0.3,0,0.3,0c0,0.1,0,0.2,0,0.3
			c0,1.1,0.1,22.3,0.1,22.6c0,0.5-0.1,0.5-0.5,0.5l-16.2,0c-0.1,0-0.2,0-0.2,0c0,0,0-0.1,0-0.3v-22.4c0-0.4,0.1-0.6,0.1-0.6
			c0,0,0.1,0,0.3,0H359.3z M344.6,172.4h13.3v35.8c0,2.6-3.4,5.5-6.4,5.5c-3.1,0-6.8-2.3-6.8-5V172.4z M341.6,184.7v12.5l-23.6,22.1
			h-13.1L341.6,184.7z M341.6,199.9v4.7L326,219.3h-5.1L341.6,199.9z M341.6,208.7L341.6,208.7c0,4.6,5.2,8,9.8,8
			c4.6,0,9.1-3.9,9.4-8.1l9.4,10.6h-39.8L341.6,208.7z M374.2,219.3l-13.4-15.1v-4.9l17.4,19.9H374.2z M115.7,60.4
			C133.7,34.2,166.6,3,221.2,3c55.4,0,88.2,29.5,106.1,54.2c20.6,28.6,30.1,63.3,30.5,85.8h-1c-0.1-0.8-0.1-1.7-0.2-2.5l-1,0.1
			c0.1,0.8,0.1,1.6,0.2,2.4h-8.4c0-0.6-0.1-1.3-0.2-2l-1,0.1c0.1,0.7,0.1,1.3,0.2,1.9h-1.9c-0.7-9.6-7.2-39.4-25-67.7
			c-16.4-26-46.8-57.1-98.3-57.1c-51.4,0-81.5,31.2-97.7,57.5C106.1,103.9,99.7,133.5,99,143h-1.8c0-0.7,0.1-1.5,0.2-2.4l-1-0.1
			c-0.1,0.9-0.2,1.8-0.2,2.6h-8.4c0.1-0.8,0.2-1.6,0.3-2.4l-1-0.1c-0.1,0.9-0.2,1.7-0.3,2.5h-1.1C86.2,126.1,94.4,91.4,115.7,60.4z
			 M82.7,196.3l-20,23H50.1l32.7-36.6V196.3z M46.1,548c-1.4-0.7-2.5-1.3-3.2-1.9c-0.3-0.3-0.7-0.5-1-0.8c-1.9-1.3-4.7-3.3-8-13
			c-1-2.9-1.9-5.5-2.7-7.8c-2.6-7.4-4.3-12.2-5.3-19.6c-1.3-9.8-11-107.3-12.6-170.8c8.8,48.9,20.6,116.7,29,164.9
			c4.2,24.3,7.4,42.7,9.1,51.9C49.3,549.7,47.5,548.8,46.1,548z M417.4,505c-1,7.4-2.7,12.2-5.3,19.6c-0.8,2.3-1.7,4.9-2.7,7.8
			c-3.2,9.7-6.1,11.7-8,13c-0.4,0.3-0.7,0.5-1,0.8c-0.7,0.6-1.8,1.1-3.2,1.9c-1.4,0.7-3.2,1.6-5.3,2.9c1.6-9.2,4.8-27.6,9.1-51.9
			c8.4-48.2,20.2-115.9,29-164.9C428.4,397.7,418.8,495.1,417.4,505z M438.6,271.9c-3,11.4-26.5,146.2-40.6,226.7
			c-5.7,32.8-9.8,56.5-10.2,58.1c-1.1,5.1-2,7.6-10.3,7.6H65.7c-8.3,0-9.2-2.5-10.3-7.6c-0.4-1.6-4.5-25.3-10.2-58.1
			C31.2,418,7.7,283.3,4.7,271.9c-3.5-13.1-1-15.2,2.4-18.1c0.5-0.5,1.1-0.9,1.7-1.5l1.7-1.6c2.7-2.5,3.8-3.5,13-12.4
			c3.3-3.2,5.6-6,7.4-8.2c3.2-4,5.2-6.4,9.9-7.4l0.4,2.5l1-0.1l-0.4-2.6c1.4-0.2,3-0.3,4.9-0.3h95.1l0,0l0,0h159.8l0,0l0,0h94.9
			c1.9,0,3.5,0.1,4.9,0.3l-0.4,2.6l1,0.1l0.4-2.5c4.7,1,6.7,3.3,9.9,7.4c1.8,2.3,4.1,5.1,7.4,8.2c9.3,8.9,10.4,9.9,13,12.4l1.7,1.6
			c0.6,0.5,1.1,1,1.7,1.5C439.6,256.7,442.1,258.8,438.6,271.9z"/>
		<rect x="360.1" y="484" transform="matrix(0.1701 -0.9854 0.9854 0.1701 -176.9052 758.8857)" class="st1" width="4" height="1"/>
		<rect x="388" y="306" transform="matrix(0.1463 -0.9892 0.9892 0.1463 29.6766 647.4257)" class="st1" width="4" height="1"/>
		<rect x="383.6" y="335.7" transform="matrix(0.1466 -0.9892 0.9892 0.1466 -3.5501 668.3234)" class="st1" width="4" height="1"/>
		
			<rect x="382.7" y="341.7" transform="matrix(0.1485 -0.9889 0.9889 0.1485 -10.8193 671.7487)" class="st1" width="4" height="1"/>
		<rect x="384.5" y="329.8" transform="matrix(0.1466 -0.9892 0.9892 0.1466 3.0807 664.1305)" class="st1" width="4" height="1"/>
		<rect x="385.3" y="323.8" transform="matrix(0.1466 -0.9892 0.9892 0.1466 9.7077 659.9323)" class="st1" width="4" height="1"/>
		<rect x="375.5" y="389.1" transform="matrix(0.1524 -0.9883 0.9883 0.1524 -65.117 703.3271)" class="st1" width="4" height="1"/>
		<rect x="386.2" y="317.9" transform="matrix(0.1463 -0.9892 0.9892 0.1463 16.4305 655.8387)" class="st1" width="4" height="1"/>
		
			<rect x="381.8" y="347.6" transform="matrix(0.1485 -0.9889 0.9889 0.1485 -17.4499 675.9258)" class="st1" width="4" height="1"/>
		
			<rect x="377.3" y="377.3" transform="matrix(0.1524 -0.9883 0.9883 0.1524 -51.8348 695.0655)" class="st1" width="4" height="1"/>
		
			<rect x="376.4" y="383.2" transform="matrix(0.1524 -0.9883 0.9883 0.1524 -58.4665 699.1945)" class="st1" width="4" height="1"/>
		
			<rect x="380.9" y="353.5" transform="matrix(0.1485 -0.9889 0.9889 0.1485 -24.0819 680.0973)" class="st1" width="4" height="1"/>
		
			<rect x="378.2" y="371.3" transform="matrix(0.1504 -0.9886 0.9886 0.1504 -44.6016 691.7647)" class="st1" width="4" height="1"/>
		
			<rect x="379.1" y="365.4" transform="matrix(0.1504 -0.9886 0.9886 0.1504 -37.9762 687.6221)" class="st1" width="4" height="1"/>
		<rect x="380" y="359.5" transform="matrix(0.1504 -0.9886 0.9886 0.1504 -31.3422 683.4679)" class="st1" width="4" height="1"/>
		<rect x="387.1" y="312" transform="matrix(0.1444 -0.9895 0.9895 0.1444 23.7098 652.3406)" class="st1" width="4" height="1"/>
		<rect x="396.6" y="246.6" transform="matrix(0.1416 -0.9899 0.9899 0.1416 97.5646 606.6307)" class="st1" width="4" height="1"/>
		
			<rect x="397.4" y="240.6" transform="matrix(0.1406 -0.9901 0.9901 0.1406 104.5351 602.6425)" class="st1" width="4" height="1"/>
		<rect x="395.7" y="252.5" transform="matrix(0.1416 -0.9899 0.9899 0.1416 90.9453 610.8989)" class="st1" width="4" height="1"/>
		
			<rect x="399.1" y="228.7" transform="matrix(0.1396 -0.9902 0.9902 0.1396 118.1431 594.3376)" class="st1" width="4" height="1"/>
		<rect x="394.9" y="258.5" transform="matrix(0.1416 -0.9899 0.9899 0.1416 84.3249 615.1639)" class="st1" width="4" height="1"/>
		
			<rect x="398.2" y="234.6" transform="matrix(0.1396 -0.9902 0.9902 0.1396 111.5101 598.6371)" class="st1" width="4" height="1"/>
		<rect x="390.6" y="288.2" transform="matrix(0.1444 -0.9895 0.9895 0.1444 50.2051 635.4437)" class="st1" width="4" height="1"/>
		<rect x="391.4" y="282.2" transform="matrix(0.1425 -0.9898 0.9898 0.1425 57.5005 631.8633)" class="st1" width="4" height="1"/>
		<rect x="388.8" y="300.1" transform="matrix(0.1444 -0.9895 0.9895 0.1444 36.9607 643.8994)" class="st1" width="4" height="1"/>
		<rect x="394" y="264.4" transform="matrix(0.1425 -0.9898 0.9898 0.1425 77.362 619.117)" class="st1" width="4" height="1"/>
		<rect x="389.7" y="294.1" transform="matrix(0.1444 -0.9895 0.9895 0.1444 43.5837 639.6734)" class="st1" width="4" height="1"/>
		<polygon class="st1" points="394.9,268.9 394.4,272.8 395.4,272.9 395.9,269 395.4,268.9 		"/>
		<rect x="392.3" y="276.3" transform="matrix(0.1425 -0.9898 0.9898 0.1425 64.1207 627.6179)" class="st1" width="4" height="1"/>
		<path class="st1" d="M353.7,527.7l1,0.2c0.3-1.3,0.5-2.6,0.8-3.9l-1-0.2C354.2,525.1,353.9,526.4,353.7,527.7z"/>
		<path class="st1" d="M357.1,510l1,0.2c0.2-1.3,0.5-2.6,0.7-3.9l-1-0.2C357.5,507.4,357.3,508.7,357.1,510z"/>
		<rect x="357" y="501.7" transform="matrix(0.1777 -0.9841 0.9841 0.1777 -199.0327 766.2452)" class="st1" width="4" height="1"/>
		<rect x="354.8" y="513.5" transform="matrix(0.1837 -0.983 0.983 0.1837 -214.0184 770.3475)" class="st1" width="4" height="1"/>
		<rect x="358" y="495.8" transform="matrix(0.1758 -0.9844 0.9844 0.1758 -191.8349 763.4827)" class="st1" width="4" height="1"/>
		<path class="st1" d="M345.6,562.8l1,0.3c0.4-1.1,0.7-2.4,1.1-3.9l-1-0.3C346.3,560.4,345.9,561.7,345.6,562.8z"/>
		
			<rect x="359.1" y="489.9" transform="matrix(0.1739 -0.9848 0.9848 0.1739 -184.6347 760.6838)" class="st1" width="4" height="1"/>
		<path class="st1" d="M351.3,539.5l1,0.2c0.3-1.3,0.5-2.6,0.8-3.9l-1-0.2C351.8,536.9,351.6,538.2,351.3,539.5z"/>
		<path class="st1" d="M348.7,551.2l1,0.2c0.3-1.2,0.6-2.6,0.9-3.9l-1-0.2C349.3,548.7,349,550,348.7,551.2z"/>
		<path class="st1" d="M347.2,557l1,0.3c0.3-1.2,0.7-2.5,1-3.9l-1-0.2C347.9,554.5,347.5,555.8,347.2,557z"/>
		<path class="st1" d="M352.5,533.6l1,0.2c0.3-1.3,0.5-2.6,0.8-3.9l-1-0.2C353,531,352.8,532.3,352.5,533.6z"/>
		<rect x="374.5" y="395.1" transform="matrix(0.1543 -0.988 0.988 0.1543 -72.3782 706.5922)" class="st1" width="4" height="1"/>
		
			<rect x="361.1" y="478.1" transform="matrix(0.1698 -0.9855 0.9855 0.1698 -170.1389 755.1531)" class="st1" width="4" height="1"/>
		<path class="st1" d="M350,545.3l1,0.2c0.3-1.3,0.6-2.6,0.9-3.9l-1-0.2C350.6,542.8,350.3,544.1,350,545.3z"/>
		
			<rect x="353.7" y="519.4" transform="matrix(0.1875 -0.9823 0.9823 0.1875 -221.7003 771.8585)" class="st1" width="4" height="1"/>
		<rect x="368" y="436.6" transform="matrix(0.1593 -0.9872 0.9872 0.1593 -120.466 732.709)" class="st1" width="4" height="1"/>
		<rect x="370.8" y="418.8" transform="matrix(0.1562 -0.9877 0.9877 0.1562 -99.5491 722.076)" class="st1" width="4" height="1"/>
		
			<rect x="368.9" y="430.7" transform="matrix(0.1584 -0.9874 0.9874 0.1584 -113.5247 729.1337)" class="st1" width="4" height="1"/>
		
			<rect x="371.8" y="412.9" transform="matrix(0.1562 -0.9877 0.9877 0.1562 -92.9018 717.9965)" class="st1" width="4" height="1"/>
		
			<rect x="369.9" y="424.7" transform="matrix(0.1581 -0.9874 0.9874 0.1581 -106.7799 725.2264)" class="st1" width="4" height="1"/>
		<rect x="373.6" y="401" transform="matrix(0.1543 -0.988 0.988 0.1543 -79.0199 710.6984)" class="st1" width="4" height="1"/>
		<rect x="372.7" y="406.9" transform="matrix(0.1543 -0.988 0.988 0.1543 -85.664 714.7999)" class="st1" width="4" height="1"/>
		
			<rect x="362.1" y="472.1" transform="matrix(0.1679 -0.9858 0.9858 0.1679 -162.9308 752.2455)" class="st1" width="4" height="1"/>
		
			<rect x="365.1" y="454.4" transform="matrix(0.1622 -0.9868 0.9868 0.1622 -141.2897 743.3252)" class="st1" width="4" height="1"/>
		
			<rect x="366.1" y="448.4" transform="matrix(0.1603 -0.9871 0.9871 0.1603 -134.0666 740.2902)" class="st1" width="4" height="1"/>
		<rect x="363.1" y="466.2" transform="matrix(0.166 -0.9861 0.9861 0.166 -155.7214 749.3024)" class="st1" width="4" height="1"/>
		
			<rect x="364.1" y="460.3" transform="matrix(0.1641 -0.9864 0.9864 0.1641 -148.5076 746.3308)" class="st1" width="4" height="1"/>
		<rect x="367" y="442.5" transform="matrix(0.1603 -0.9871 0.9871 0.1603 -127.4067 736.2661)" class="st1" width="4" height="1"/>
		<path class="st1" d="M263.7,24.2c1.2,0.5,2.5,1,3.7,1.5l0.4-0.9c-1.2-0.5-2.5-1-3.7-1.5L263.7,24.2z"/>
		<path class="st1" d="M258.1,22.2c1.3,0.4,2.5,0.9,3.8,1.3l0.3-0.9c-1.2-0.5-2.5-0.9-3.8-1.3L258.1,22.2z"/>
		<path class="st1" d="M274.6,29.1c1.2,0.6,2.3,1.3,3.5,1.9l0.5-0.9c-1.2-0.7-2.3-1.3-3.5-1.9L274.6,29.1z"/>
		<path class="st1" d="M252.4,20.5c1.3,0.3,2.6,0.7,3.8,1.1l0.3-1c-1.3-0.4-2.6-0.8-3.9-1.1L252.4,20.5z"/>
		<path class="st1" d="M269.2,26.5c1.2,0.6,2.4,1.1,3.6,1.7l0.4-0.9c-1.2-0.6-2.4-1.2-3.6-1.7L269.2,26.5z"/>
		<path class="st1" d="M210.9,15.9l0.1,1c1.3-0.1,2.6-0.2,4-0.3l0-1C213.5,15.7,212.2,15.8,210.9,15.9z"/>
		<path class="st1" d="M279.8,32.1c1.1,0.7,2.3,1.4,3.4,2.1l0.5-0.8c-1.1-0.7-2.3-1.4-3.4-2.1L279.8,32.1z"/>
		<path class="st1" d="M222.9,16.5c1.3,0,2.7,0.1,4,0.1l0-1c-1.3-0.1-2.7-0.1-4-0.1L222.9,16.5z"/>
		<path class="st1" d="M246.6,19.1c1.3,0.3,2.6,0.6,3.9,0.9l0.2-1c-1.3-0.3-2.6-0.6-3.9-0.9L246.6,19.1z"/>
		<path class="st1" d="M228.9,16.7c1.3,0.1,2.7,0.2,4,0.3l0.1-1c-1.3-0.1-2.7-0.2-4-0.3L228.9,16.7z"/>
		<path class="st1" d="M216.9,15.6l0,1c1.3,0,2.6-0.1,4-0.1l0-1C219.5,15.5,218.2,15.5,216.9,15.6z"/>
		<path class="st1" d="M234.8,17.2c1.3,0.1,2.6,0.3,3.9,0.5l0.1-1c-1.3-0.2-2.6-0.3-4-0.5L234.8,17.2z"/>
		<path class="st1" d="M240.7,18c1.3,0.2,2.6,0.4,3.9,0.7l0.2-1c-1.3-0.3-2.6-0.5-4-0.7L240.7,18z"/>
		<path class="st1" d="M324.5,79.3c0.7,1.2,1.3,2.3,2,3.5l0.9-0.5c-0.6-1.2-1.3-2.3-2-3.5L324.5,79.3z"/>
		<path class="st1" d="M340.1,111.7l-0.9,0.3c0.4,1.3,0.8,2.6,1.2,3.8l1-0.3C341,114.3,340.6,113,340.1,111.7z"/>
		<path class="st1" d="M338.1,106l-0.9,0.3c0.5,1.3,0.9,2.5,1.4,3.8l0.9-0.3C339,108.6,338.6,107.3,338.1,106z"/>
		<path class="st1" d="M343.6,123.3l-1,0.3c0.4,1.3,0.7,2.6,1,3.9l1-0.2C344.3,125.9,344,124.6,343.6,123.3z"/>
		<path class="st1" d="M284.8,35.3c1.1,0.7,2.2,1.5,3.3,2.3l0.6-0.8c-1.1-0.8-2.2-1.6-3.3-2.3L284.8,35.3z"/>
		<path class="st1" d="M333.5,94.9l-0.9,0.4c0.5,1.2,1.1,2.4,1.6,3.7l0.9-0.4C334.6,97.4,334.1,96.1,333.5,94.9z"/>
		<path class="st1" d="M204.9,16.5l0.1,1c1.3-0.2,2.6-0.3,4-0.4l-0.1-1C207.5,16.2,206.2,16.4,204.9,16.5z"/>
		<path class="st1" d="M345.1,129.1l-1,0.2c0.3,1.4,0.6,2.7,0.8,3.9l1-0.2C345.7,131.8,345.4,130.5,345.1,129.1z"/>
		<path class="st1" d="M318.1,69.2c0.8,1.1,1.5,2.2,2.2,3.3l0.8-0.5c-0.7-1.1-1.5-2.2-2.2-3.3L318.1,69.2z"/>
		<path class="st1" d="M289.7,38.8c1.1,0.8,2.1,1.6,3.1,2.5l0.6-0.8c-1-0.8-2.1-1.7-3.2-2.5L289.7,38.8z"/>
		<path class="st1" d="M321.4,74.2c0.7,1.1,1.4,2.3,2.1,3.4l0.9-0.5c-0.7-1.1-1.4-2.3-2.1-3.4L321.4,74.2z"/>
		<path class="st1" d="M331,89.5l-0.9,0.4c0.6,1.2,1.2,2.4,1.7,3.6l0.9-0.4C332.2,91.9,331.6,90.7,331,89.5z"/>
		<path class="st1" d="M328.3,84.1l-0.9,0.5c0.6,1.2,1.2,2.4,1.8,3.5l0.9-0.4C329.5,86.5,328.9,85.3,328.3,84.1z"/>
		<path class="st1" d="M119.3,76.5l0.9,0.5c0.7-1.1,1.4-2.3,2.1-3.4l-0.8-0.5C120.7,74.2,120,75.3,119.3,76.5z"/>
		<path class="st1" d="M133.1,56.8l0.8,0.6c0.8-1,1.7-2,2.6-3l-0.7-0.7C134.8,54.7,134,55.8,133.1,56.8z"/>
		<path class="st1" d="M104.2,109.3l0.9,0.3c0.4-1.2,0.9-2.5,1.4-3.8l-0.9-0.3C105.1,106.7,104.7,108,104.2,109.3z"/>
		<path class="st1" d="M111,92.5l0.9,0.4c0.5-1.2,1.1-2.4,1.7-3.6l-0.9-0.4C112.1,90.1,111.5,91.3,111,92.5z"/>
		<path class="st1" d="M106.3,103.6l0.9,0.4c0.5-1.2,1-2.5,1.5-3.7l-0.9-0.4C107.3,101.1,106.8,102.4,106.3,103.6z"/>
		<path class="st1" d="M116.3,81.7l0.9,0.5c0.6-1.2,1.3-2.3,1.9-3.5l-0.9-0.5C117.6,79.4,117,80.5,116.3,81.7z"/>
		<path class="st1" d="M113.6,87.1l0.9,0.4c0.6-1.2,1.2-2.4,1.8-3.6l-0.9-0.5C114.8,84.7,114.1,85.9,113.6,87.1z"/>
		<path class="st1" d="M108.5,98l0.9,0.4c0.5-1.2,1-2.4,1.6-3.7l-0.9-0.4C109.6,95.6,109.1,96.8,108.5,98z"/>
		<path class="st1" d="M96.8,138.4l1,0.1c0.2-1.2,0.4-2.6,0.7-3.9l-1-0.2C97.2,135.8,97,137.2,96.8,138.4z"/>
		<path class="st1" d="M97.8,132.5l1,0.2c0.2-1.2,0.5-2.5,0.8-3.9l-1-0.2C98.4,129.9,98.1,131.2,97.8,132.5z"/>
		<path class="st1" d="M102.3,115l1,0.3c0.4-1.2,0.8-2.5,1.2-3.8l-0.9-0.3C103.2,112.4,102.7,113.7,102.3,115z"/>
		<path class="st1" d="M345.3,135.2c0.3,1.4,0.5,2.7,0.6,3.9l1-0.1c-0.2-1.2-0.4-2.6-0.6-4L345.3,135.2z"/>
		<path class="st1" d="M100.6,120.7l1,0.3c0.3-1.2,0.7-2.5,1.1-3.8l-1-0.3C101.4,118.2,101,119.5,100.6,120.7z"/>
		<path class="st1" d="M99.1,126.6l1,0.2c0.3-1.2,0.6-2.5,1-3.9l-1-0.3C99.8,124,99.4,125.3,99.1,126.6z"/>
		<path class="st1" d="M160,32.8l0.5,0.8c1.1-0.7,2.3-1.4,3.4-2.1l-0.5-0.9C162.2,31.3,161.1,32.1,160,32.8z"/>
		<path class="st1" d="M165.1,29.7l0.5,0.9c1.2-0.7,2.3-1.3,3.5-1.9l-0.5-0.9C167.5,28.4,166.3,29,165.1,29.7z"/>
		<path class="st1" d="M137.1,52.2l0.7,0.7c0.9-1,1.8-1.9,2.7-2.9l-0.7-0.7C138.9,50.3,138,51.3,137.1,52.2z"/>
		<path class="st1" d="M170.4,26.8l0.4,0.9c1.2-0.6,2.4-1.2,3.6-1.7l-0.4-0.9C172.9,25.7,171.6,26.3,170.4,26.8z"/>
		<path class="st1" d="M181.5,22.1l0.3,0.9c1.2-0.4,2.5-0.9,3.8-1.3l-0.3-1C184,21.2,182.8,21.7,181.5,22.1z"/>
		<path class="st1" d="M187.2,20.3l0.3,1c1.3-0.4,2.6-0.7,3.8-1.1l-0.3-1C189.8,19.5,188.5,19.9,187.2,20.3z"/>
		<path class="st1" d="M193.1,18.7l0.2,1c1.3-0.3,2.6-0.6,3.9-0.9l-0.2-1C195.7,18.1,194.3,18.4,193.1,18.7z"/>
		<path class="st1" d="M175.9,24.3l0.4,0.9c1.2-0.5,2.5-1,3.7-1.5l-0.4-0.9C178.4,23.3,177.1,23.8,175.9,24.3z"/>
		<path class="st1" d="M198.9,17.5l0.2,1c1.3-0.2,2.6-0.5,3.9-0.6l-0.1-1C201.6,17,200.2,17.2,198.9,17.5z"/>
		<path class="st1" d="M141.2,47.9l0.7,0.7c0.9-0.9,1.9-1.9,2.9-2.8l-0.7-0.7C143.2,46,142.2,47,141.2,47.9z"/>
		<path class="st1" d="M145.6,43.8l0.7,0.7c1-0.9,2-1.8,3-2.6l-0.6-0.8C147.6,42,146.6,42.9,145.6,43.8z"/>
		<path class="st1" d="M155,36.2l0.6,0.8c1.1-0.8,2.2-1.5,3.3-2.3l-0.6-0.8C157.2,34.6,156.1,35.4,155,36.2z"/>
		<path class="st1" d="M150.2,39.8l0.6,0.8c1-0.8,2.1-1.7,3.1-2.4l-0.6-0.8C152.3,38.2,151.2,39,150.2,39.8z"/>
		<path class="st1" d="M342,117.5l-1,0.3c0.4,1.3,0.8,2.6,1.1,3.8l1-0.3C342.7,120.1,342.4,118.8,342,117.5z"/>
		<path class="st1" d="M317,67.5l0.8-0.6c-0.8-1.1-1.5-2.2-2.3-3.3l-0.8,0.6C315.5,65.4,316.2,66.5,317,67.5z"/>
		<path class="st1" d="M122.5,71.3l0.8,0.5c0.7-1.1,1.4-2.2,2.2-3.3l-0.8-0.6C123.9,69.1,123.2,70.2,122.5,71.3z"/>
		<path class="st1" d="M294.3,42.5c1,0.8,2,1.7,3,2.6l0.7-0.7c-1-0.9-2-1.8-3-2.6L294.3,42.5z"/>
		<path class="st1" d="M314.3,62.1c-0.8-1.1-1.6-2.1-2.5-3.2l-0.8,0.6c0.8,1,1.7,2.1,2.5,3.1L314.3,62.1z"/>
		<path class="st1" d="M132.6,59l-0.8-0.6c-0.8,1-1.7,2.1-2.5,3.2l0.8,0.6C131,61,131.8,60,132.6,59z"/>
		<path class="st1" d="M303.1,50.6c0.9,1,1.8,1.9,2.7,2.9l0.7-0.7c-0.9-1-1.8-2-2.8-2.9L303.1,50.6z"/>
		<path class="st1" d="M336.5,104.5l0.9-0.4c-0.5-1.2-1-2.5-1.5-3.7l-0.9,0.4C335.5,102.1,336,103.3,336.5,104.5z"/>
		<path class="st1" d="M310.5,57.4c-0.9-1-1.7-2-2.6-3l-0.7,0.7c0.9,1,1.8,2,2.6,3L310.5,57.4z"/>
		<path class="st1" d="M298.8,46.5c1,0.9,1.9,1.8,2.9,2.8l0.7-0.7c-0.9-0.9-1.9-1.9-2.9-2.8L298.8,46.5z"/>
		<path class="st1" d="M129,63.7l-0.8-0.6c-0.8,1.1-1.6,2.2-2.3,3.3l0.8,0.6C127.4,65.8,128.2,64.8,129,63.7z"/>
		<path class="st1" d="M171.9,16.9l-0.4-0.9c-1.2,0.5-2.4,1.1-3.6,1.7l0.4,0.9C169.5,18,170.7,17.4,171.9,16.9z"/>
		<path class="st1" d="M188.8,10.9l-0.3-1c-1.3,0.3-2.6,0.7-3.9,1.1l0.3,1C186.2,11.6,187.5,11.3,188.8,10.9z"/>
		<path class="st1" d="M177.4,14.6l-0.4-0.9c-1.2,0.5-2.5,1-3.7,1.5l0.4,0.9C175,15.6,176.2,15.1,177.4,14.6z"/>
		<path class="st1" d="M183.1,12.6l-0.3-1c-1.3,0.4-2.5,0.9-3.8,1.3l0.3,0.9C180.6,13.5,181.8,13,183.1,12.6z"/>
		<path class="st1" d="M194.6,9.5l-0.2-1c-1.3,0.3-2.6,0.6-3.9,0.9l0.2,1C192,10.1,193.3,9.8,194.6,9.5z"/>
		<path class="st1" d="M206.4,7.6l-0.1-1c-1.3,0.2-2.7,0.3-4,0.5l0.1,1C203.7,7.9,205,7.7,206.4,7.6z"/>
		<path class="st1" d="M200.5,8.4l-0.2-1c-1.3,0.2-2.6,0.5-3.9,0.7l0.2,1C197.8,8.9,199.1,8.6,200.5,8.4z"/>
		<path class="st1" d="M146.5,32.5l-0.6-0.8c-1,0.8-2.1,1.7-3.1,2.6l0.6,0.8C144.5,34.1,145.5,33.3,146.5,32.5z"/>
		<path class="st1" d="M151.3,28.8l-0.6-0.8c-1.1,0.8-2.2,1.6-3.2,2.4l0.6,0.8C149.1,30.4,150.2,29.6,151.3,28.8z"/>
		<path class="st1" d="M156.2,25.5l-0.5-0.8c-1.1,0.7-2.2,1.5-3.3,2.2l0.6,0.8C154,26.9,155.1,26.2,156.2,25.5z"/>
		<path class="st1" d="M161.3,22.3l-0.5-0.9c-1.1,0.7-2.3,1.4-3.4,2.1l0.5,0.8C159,23.7,160.2,23,161.3,22.3z"/>
		<path class="st1" d="M166.6,19.5l-0.5-0.9c-1.2,0.6-2.4,1.2-3.5,1.9l0.5,0.9C164.2,20.7,165.4,20.1,166.6,19.5z"/>
		<path class="st1" d="M133.3,44.6l-0.7-0.7c-0.9,1-1.8,2-2.7,2.9l0.7,0.7C131.5,46.5,132.4,45.5,133.3,44.6z"/>
		<path class="st1" d="M137.6,40.3l-0.7-0.7c-1,0.9-1.9,1.9-2.9,2.8l0.7,0.7C135.7,42.2,136.6,41.3,137.6,40.3z"/>
		<path class="st1" d="M142,36.3l-0.7-0.8c-1,0.9-2,1.8-3,2.7L139,39C140,38.1,141,37.2,142,36.3z"/>
		<path class="st1" d="M121.8,58.3l-0.8-0.6c-0.8,1.1-1.6,2.2-2.4,3.2l0.8,0.6C120.2,60.4,121,59.4,121.8,58.3z"/>
		<path class="st1" d="M96.7,105.8l-0.9-0.3c-0.5,1.3-0.9,2.5-1.3,3.8l0.9,0.3C95.8,108.3,96.3,107,96.7,105.8z"/>
		<path class="st1" d="M129.3,49l-0.8-0.7c-0.9,1-1.8,2-2.6,3.1l0.8,0.6C127.6,51,128.4,50,129.3,49z"/>
		<path class="st1" d="M93.1,117.2l-1-0.3c-0.4,1.3-0.7,2.6-1.1,3.9l1,0.3C92.3,119.7,92.7,118.5,93.1,117.2z"/>
		<path class="st1" d="M98.8,100.2l-0.9-0.4c-0.5,1.3-1,2.5-1.4,3.8l0.9,0.3C97.9,102.6,98.3,101.4,98.8,100.2z"/>
		<path class="st1" d="M89,134.7l-1-0.2c-0.2,1.4-0.4,2.7-0.6,4l1,0.1C88.6,137.3,88.8,136,89,134.7z"/>
		<path class="st1" d="M101.1,94.6l-0.9-0.4c-0.5,1.2-1,2.5-1.5,3.7l0.9,0.4C100.1,97.1,100.6,95.8,101.1,94.6z"/>
		<path class="st1" d="M91.5,122.9l-1-0.2c-0.3,1.3-0.6,2.6-0.9,3.9l1,0.2C90.9,125.6,91.2,124.3,91.5,122.9z"/>
		<path class="st1" d="M90.2,128.8l-1-0.2c-0.3,1.3-0.5,2.7-0.8,3.9l1,0.2C89.6,131.4,89.9,130.1,90.2,128.8z"/>
		<path class="st1" d="M94.8,111.4l-1-0.3c-0.4,1.3-0.8,2.6-1.2,3.8l1,0.3C94,114,94.4,112.7,94.8,111.4z"/>
		<path class="st1" d="M212.3,7l-0.1-1c-1.3,0.1-2.7,0.2-4,0.3l0.1,1C209.7,7.2,211,7.1,212.3,7z"/>
		<path class="st1" d="M103.5,89.1l-0.9-0.4c-0.6,1.2-1.1,2.4-1.7,3.7l0.9,0.4C102.4,91.6,103,90.4,103.5,89.1z"/>
		<path class="st1" d="M115,68.1l-0.8-0.5c-0.7,1.1-1.4,2.3-2.1,3.4l0.9,0.5C113.6,70.4,114.3,69.3,115,68.1z"/>
		<path class="st1" d="M125.5,53.6l-0.8-0.6c-0.8,1-1.7,2.1-2.5,3.2l0.8,0.6C123.8,55.6,124.6,54.6,125.5,53.6z"/>
		<path class="st1" d="M118.3,63.2l-0.8-0.6c-0.8,1.1-1.5,2.2-2.2,3.3l0.8,0.5C116.8,65.4,117.6,64.3,118.3,63.2z"/>
		<path class="st1" d="M106.2,83.8l-0.9-0.5c-0.6,1.2-1.2,2.4-1.8,3.6l0.9,0.4C105,86.1,105.6,85,106.2,83.8z"/>
		<path class="st1" d="M111.9,73.2l-0.9-0.5c-0.7,1.2-1.3,2.3-2,3.5l0.9,0.5C110.5,75.6,111.2,74.4,111.9,73.2z"/>
		<path class="st1" d="M108.9,78.5l-0.9-0.5c-0.6,1.2-1.3,2.4-1.9,3.5l0.9,0.5C107.7,80.8,108.3,79.6,108.9,78.5z"/>
		<path class="st1" d="M354.5,132.6l1-0.2c-0.2-1.3-0.4-2.6-0.7-4l-1,0.2C354.1,130,354.3,131.3,354.5,132.6z"/>
		<path class="st1" d="M332.9,70.7c-0.7-1.1-1.4-2.3-2.1-3.4l-0.8,0.5c0.7,1.1,1.4,2.3,2.1,3.4L332.9,70.7z"/>
		<path class="st1" d="M335.9,75.9c-0.6-1.2-1.3-2.3-2-3.5l-0.9,0.5c0.7,1.2,1.3,2.3,2,3.5L335.9,75.9z"/>
		<path class="st1" d="M355.3,138.6l1-0.1c-0.1-1.3-0.3-2.6-0.5-4l-1,0.1C355,136,355.2,137.3,355.3,138.6z"/>
		<path class="st1" d="M329.7,65.6c-0.7-1.1-1.5-2.2-2.2-3.3l-0.8,0.6c0.8,1.1,1.5,2.2,2.2,3.3L329.7,65.6z"/>
		<path class="st1" d="M338.7,81.2c-0.6-1.2-1.2-2.4-1.9-3.6l-0.9,0.5c0.6,1.2,1.2,2.4,1.8,3.5L338.7,81.2z"/>
		<path class="st1" d="M319,51c-0.9-1-1.7-2-2.6-3l-0.7,0.7c0.9,1,1.8,2,2.6,3L319,51z"/>
		<path class="st1" d="M326.3,60.6c-0.8-1.1-1.6-2.2-2.4-3.2l-0.8,0.6c0.8,1.1,1.6,2.1,2.3,3.2L326.3,60.6z"/>
		<path class="st1" d="M322.7,55.7c-0.8-1.1-1.6-2.1-2.5-3.1l-0.8,0.6c0.8,1,1.7,2.1,2.5,3.1L322.7,55.7z"/>
		<path class="st1" d="M315,46.5c-0.9-1-1.8-2-2.7-2.9l-0.7,0.7c0.9,1,1.8,1.9,2.7,2.9L315,46.5z"/>
		<path class="st1" d="M342.9,92.5l0.9-0.4c-0.5-1.2-1.1-2.5-1.6-3.7l-0.9,0.4C341.8,90.1,342.3,91.3,342.9,92.5z"/>
		<path class="st1" d="M345.1,98l0.9-0.4c-0.5-1.2-1-2.5-1.5-3.7l-0.9,0.4C344.1,95.6,344.6,96.8,345.1,98z"/>
		<path class="st1" d="M353.5,126.7l1-0.2c-0.3-1.3-0.5-2.6-0.8-3.9l-1,0.2C353,124.2,353.2,125.5,353.5,126.7z"/>
		<path class="st1" d="M340.4,87l0.9-0.4c-0.6-1.2-1.1-2.4-1.7-3.6l-0.9,0.4C339.3,84.6,339.9,85.8,340.4,87z"/>
		<path class="st1" d="M347.2,103.7l0.9-0.3c-0.4-1.3-0.9-2.5-1.4-3.8l-0.9,0.3C346.3,101.2,346.7,102.4,347.2,103.7z"/>
		<path class="st1" d="M352.2,120.9l1-0.2c-0.3-1.3-0.6-2.6-1-3.9l-1,0.3C351.6,118.3,351.9,119.6,352.2,120.9z"/>
		<path class="st1" d="M349,109.4l1-0.3c-0.4-1.3-0.8-2.5-1.2-3.8l-0.9,0.3C348.2,106.8,348.7,108.1,349,109.4z"/>
		<path class="st1" d="M350.7,115.1l1-0.3c-0.4-1.3-0.7-2.6-1.1-3.9l-1,0.3C350,112.6,350.4,113.8,350.7,115.1z"/>
		<path class="st1" d="M265.6,13.1c-1.2-0.4-2.5-0.9-3.8-1.3l-0.3,1c1.3,0.4,2.5,0.8,3.8,1.3L265.6,13.1z"/>
		<path class="st1" d="M218.3,6.8l0-1c-1.3,0-2.7,0.1-4,0.1l0.1,1C215.6,6.9,217,6.8,218.3,6.8z"/>
		<path class="st1" d="M254.1,9.7c-1.3-0.3-2.6-0.6-3.9-0.9l-0.2,1c1.3,0.3,2.6,0.6,3.9,0.9L254.1,9.7z"/>
		<path class="st1" d="M259.9,11.3c-1.3-0.4-2.6-0.8-3.9-1.1l-0.3,1c1.3,0.3,2.6,0.7,3.8,1.1L259.9,11.3z"/>
		<path class="st1" d="M242.3,7.3c-1.3-0.2-2.6-0.4-4-0.5l-0.1,1c1.3,0.2,2.6,0.3,3.9,0.5L242.3,7.3z"/>
		<path class="st1" d="M248.2,8.3c-1.3-0.3-2.6-0.5-3.9-0.7l-0.2,1c1.3,0.2,2.6,0.5,3.9,0.7L248.2,8.3z"/>
		<path class="st1" d="M221.2,6.8c1,0,2,0,3,0l0-1c-1,0-2,0-3,0l-1,0l0,1L221.2,6.8z"/>
		<path class="st1" d="M230.3,6c-1.3-0.1-2.7-0.1-4-0.2l0,1c1.3,0,2.7,0.1,4,0.2L230.3,6z"/>
		<path class="st1" d="M236.3,6.5c-1.3-0.1-2.7-0.3-4-0.4l-0.1,1c1.3,0.1,2.7,0.2,4,0.4L236.3,6.5z"/>
		<path class="st1" d="M297.2,30.3c-1.1-0.8-2.1-1.6-3.2-2.4l-0.6,0.8c1.1,0.8,2.2,1.5,3.2,2.3L297.2,30.3z"/>
		<path class="st1" d="M302,34c-1-0.9-2.1-1.7-3.1-2.5l-0.6,0.8c1,0.8,2.1,1.7,3.1,2.5L302,34z"/>
		<path class="st1" d="M310.8,42.2c-0.9-0.9-1.9-1.9-2.9-2.8l-0.7,0.7c1,0.9,1.9,1.8,2.9,2.8L310.8,42.2z"/>
		<path class="st1" d="M292.3,26.8c-1.1-0.8-2.2-1.5-3.4-2.2l-0.5,0.8c1.1,0.7,2.2,1.4,3.3,2.2L292.3,26.8z"/>
		<path class="st1" d="M306.5,38c-1-0.9-2-1.8-3-2.7l-0.7,0.8c1,0.9,2,1.7,3,2.6L306.5,38z"/>
		<path class="st1" d="M276.7,17.8c-1.2-0.6-2.4-1.1-3.7-1.7l-0.4,0.9c1.2,0.5,2.4,1.1,3.6,1.7L276.7,17.8z"/>
		<path class="st1" d="M271.2,15.3c-1.2-0.5-2.5-1-3.7-1.5l-0.4,0.9c1.2,0.5,2.5,1,3.7,1.5L271.2,15.3z"/>
		<path class="st1" d="M282.1,20.5c-1.2-0.6-2.4-1.3-3.6-1.9l-0.4,0.9c1.2,0.6,2.4,1.2,3.5,1.8L282.1,20.5z"/>
		<path class="st1" d="M287.3,23.5c-1.1-0.7-2.3-1.4-3.5-2l-0.5,0.9c1.2,0.7,2.3,1.3,3.4,2L287.3,23.5z"/>
	</g>
</g>
</svg>
