<?xml version="1.0" encoding="utf-8"?>
<!-- Generator: Adobe Illustrator 20.1.0, SVG Export Plug-In . SVG Version: 6.00 Build 0)  -->
<svg version="1.1" xmlns="http://www.w3.org/2000/svg" xmlns:xlink="http://www.w3.org/1999/xlink" x="0px" y="0px"
	 viewBox="0 0 483.7 562.4" style="enable-background:new 0 0 483.7 562.4;" xml:space="preserve">
<style type="text/css">
	.st0{fill:#FFFFFF;}
	.st1{fill:#1A1A1A;}
</style>
<g id="back">
	<path class="st0" d="M473.9,472c-9.1-40.2-39.3-126-53.9-167.3c-2.3-6.5-4.1-11.8-5.4-15.5c-2.7-7.7-5.5-16.5-8.2-25
		c-7.5-23.5-15.3-47.7-21.3-54.3l-0.4-0.5l-0.1-0.6c-0.3-3.1-2.3-19.7-8.6-36c-3.9-10.2-11.2-31.7-17.7-50.7
		c-5.2-15.3-9.7-28.5-11.3-32.6c-0.3-0.7-0.6-1.5-0.9-2.5c-4.6-12.7-18.7-51.3-69.8-76.3C252.3-1,225.3-0.9,196.1,11
		c-28.7,11.6-48.7,30.2-54.2,35.6l-1.9,1.9l-0.9,0c-0.7,0-1.3,0-1.9,0c-7.8,0-14,2.4-16.8,5c-2.9,2.6-4.5,7.8-4.8,11.6
		c-0.3,3.5,0.7,10.7,0.9,12.8l0.1,0.7l-0.3,0.6c-6.3,10.8-10.9,22.2-13.7,33.9c-0.2,0.8-0.1,1.5,0.4,2.1c0.6,0.9,2,1.6,3.8,2l2,0.5
		l-0.6,2c-6.9,25.2-26.4,99.7-29.7,116.5C74.8,255,46,367.2,40.9,381.1C36,394.6,8.2,482.4,7.9,483.3c-6.2,21.2-9.3,34.7-0.5,43.4
		c30.9,30.9,57.6,33.6,58.8,33.7l173.8,0c7.7-0.1,190.1-1.8,204.7-3.1c21.3-1.9,34.4-17.3,35.8-22.9
		C481.6,529.7,484.4,518.4,473.9,472z M339.6,133.3c-0.2,6.7-3.6,22-5.1,29.7c-1.5,7.7-1,11.2-1,11.2s0.2,2.5-1.2,3.6
		c-11.9,9.3-25.2,32-28.9,39.4c-3.7,7.4-16.7,21.5-25.2,30c-8.5,8.5-21.7,15.5-23.1,16.2c-1.4,0.6-5.9,2.7-5.9,0.7s-2-4.2-3.5-4.9
		c-1.5-0.7-14.8,0.3-19.6,0.3s-4.6,1.6-4.6,1.6s-0.1,0.3-1,1.5c0,0,2.7,4.4-27.1-15.5s-40.9-40.8-42.8-44.1
		c-2-3.3-13.6-23.3-14.8-26.1c-1.1-2.8-4-21.2-4-21.2s-5.2-22-6.7-33c-4.5-33.2,2.2-51.4,2.2-51.4c46-59.6,97.9-61,105.5-60.9
		c25.6,0.3,43.9,10.2,59.7,18.2s32,29.2,37.7,38.1c5.7,8.9,9.5,27.6,10.5,36.8S339.8,126.6,339.6,133.3z"/>
</g>
<g id="lines">
	<g>
		<path class="st1" d="M475.9,471.6c-9.2-40.3-39.4-126.3-54-167.6c-2.3-6.4-4.1-11.7-5.4-15.4c-2.6-7.6-5.5-16.4-8.2-24.9
			c-8-24.8-15.5-48.2-21.8-55.1c-0.3-3.2-2.4-20-8.7-36.5c-3.9-10.1-11.2-31.7-17.7-50.6c-5.2-15.3-9.7-28.5-11.4-32.7
			c-0.3-0.7-0.6-1.5-0.9-2.5c-4.7-12.9-18.9-52.1-70.8-77.4c-24.5-11.9-52-11.8-81.7,0.3c-29,11.8-49.3,30.6-54.8,36
			c-0.4,0.4-0.8,0.8-1.3,1.3c-9.3-0.5-16.8,2.3-20.1,5.4c-3.3,3-5.1,8.7-5.4,12.9c-0.3,3.7,0.6,10.6,1,13.2
			c-5.6,9.6-10.7,21.1-13.9,34.4c-0.3,1.4-0.1,2.7,0.7,3.8c1.2,1.6,3.4,2.4,5,2.8c-6.5,23.6-26.4,99.5-29.8,116.7
			c-3.7,19-32.5,130.9-37.6,144.8C34,394,6.3,481.8,6,482.7c-6.4,21.9-9.6,35.9,0,45.5c31.4,31.4,58.8,34.2,60,34.3c0,0,0.1,0,0.1,0
			h173.8c7.8-0.1,190.2-1.8,204.9-3.1c22.6-2,36-18.3,37.6-24.4C483.6,530,486.5,518.4,475.9,471.6z M357.3,122.4
			c6.5,19,13.8,40.5,17.7,50.7c5.6,14.7,7.8,29.5,8.4,34.5c-19.8-6.8-31.4-15-34.1-20c1.4-2.6,7.4-15.1,7.4-35.3
			c0-19.9-4.2-40-8.6-56.8C350.3,101.8,353.6,111.5,357.3,122.4z M115.7,64.9c0.3-3.9,1.9-9,4.8-11.6c2.8-2.5,9-5,16.9-5
			c-5.3,5.4-13.4,14.4-21,26.8C115.9,72,115.5,67.5,115.7,64.9z M103.8,114.4c-0.2-0.3-0.4-0.6-0.2-1.3c8.7-35.8,31.5-58.4,39-65.8
			c25.3-25,81.9-60.8,133.2-35.8C315.7,31,332.8,58.9,340.6,76c0.2,0.5,0.3,1,0.5,1.6c5.4,18.8,13.6,47.1,13.6,74.7
			c0,21-6.8,33.7-7.4,34.7c-4.1,5.2-10.3,10.1-15.7,14.4c-3.1,2.4-6,4.7-8.4,6.9c-2.4,2.3-5.6,4.3-9.3,6.6
			c-3.8,2.4-8.1,5.1-12.9,8.8c3.4-4.9,6.3-9.7,8.5-14.2c9.7-20.1,25-31.4,25.1-31.5c0.1-0.1,0.2-0.2,0.3-0.2c0.6,0.3,1.4,0.6,2.3,1
			l0.4-0.9c-1-0.5-1.8-0.8-2.4-1.1c0-0.1,0-0.1,0-0.2c-0.6-6.2,0.3-10.7,1.5-16.9c0.4-1.9,0.8-3.9,1.2-6.2c0.1-0.7,0.3-1.5,0.5-2.5
			c1.4-7.4,4.4-22.8,3.9-40.7c-0.6-22.4-6.4-40.7-17.1-54.4C292.4,14.2,249,9.3,236.5,8.8c-23.6-1-59.5,13.1-83.5,32.7
			c-21.9,17.9-28.3,31.3-29,32.9c-5.5,8.3-12.2,27.7-14.8,35.3c-0.4,1.1-0.7,1.9-0.9,2.5c-0.2,0.5-0.6,1.8-1.2,4
			C105.9,115.8,104.4,115.3,103.8,114.4z M246.1,313.2c3.4,3.5,6.4,6.6,6.4,14.4c0,6.8-4.2,12.5-10.6,14.6v-1.9
			c5.1-2,8.6-7,8.6-12.6c0-6.7-2.8-9.5-5.4-12.3l-0.7-0.7l-16.8,0.8l-0.4,0.1l-0.3,0.3c-2.8,2.9-4.7,4.9-4.7,11.9
			c0,5.7,3.6,10.8,9,12.8v1.9c-6.5-2-11-7.9-11-14.7c0-8,1.9-10.1,5.3-13.6c4.1,0,16-0.6,20.4-0.9c0.1,0,0.1,0,0.2,0L246.1,313.2z
			 M226.6,407.1l22.5,0c2.6,0.4,3,2.1,3.7,5.6c0.8,4.2,4.5,33.5,4.7,36.8c0,0.7-0.1,1.2-0.4,1.5c-0.7,0.8-2.7,0.8-4.3,0.8h-27
			c-6.1,0-6.2-1.1-6.3-2.7c-0.1-2.1,2.3-30.5,2.9-36.5C222.7,409.3,224.1,407.5,226.6,407.1z M247.5,405h-19.8c-0.5,0-1,0-1.5,0.1
			h-0.4c-4.1-1.1-5.8-5.1-5.8-6.6c0-0.8,0-1.8,0.3-3.1c0.6,0.7,1.3,1.4,2.1,1.9c0.3,2.4,2.3,5.8,5.8,6.6l18.1,0l0.1,0
			c3.8-0.9,5.8-4.3,5.8-6.4c0-1.4,0-4.5-3.7-7.5c-3.7-3-6.8-4.1-11.2-4.1c-1.3,0-2.4,0.1-3.5,0.3c-2,0.4-3.8,1.1-5.6,2.3
			c-0.3-0.4-0.6-0.8-0.9-1.3c2.2-1.4,4.3-2.1,6.8-2.5c1-0.1,2-0.2,3.2-0.2c0.6,0,1.2,0,1.7,0.1c4.4,0.3,7.7,1.8,11.6,5.2
			c4.1,3.5,4.1,6.9,4.1,8.7c0,1.5-1.7,5.4-5.8,6.6C248.6,405,248.1,405,247.5,405z M240.3,393.6v-5.4c2.6,0.4,4.7,1.5,7.2,3.5
			c3,2.4,3,4.6,3,5.9c0,1-1.2,3.6-4.2,4.4h-17.5c-1.9-0.5-3.1-1.9-3.7-3.3c1.5,0.6,3.2,1,5.1,1C239.1,399.8,240.3,396.5,240.3,393.6
			z M233.2,388.6v2.4c-1.2-0.1-2.3-0.5-3.2-1C231,389.3,232.1,388.9,233.2,388.6z M226.4,382c0-4.2,4.5-6.4,6.8-7.2v8.2
			c-2.3,0.4-4.3,1.2-6.3,2.4C226.5,384.4,226.4,383.2,226.4,382z M238.3,373.3v9.4c-0.3,0-0.5,0-0.8,0c-0.8,0-1.6,0-2.3,0.1v-10.6
			l-1.2,0.3c-0.4,0.1-9.5,2.4-9.5,9.5c0,6.9,3.6,11.1,9.8,11.1h1v-4.9c0.7-0.1,1.5-0.2,2.3-0.2c0.3,0,0.6,0,0.8,0v5.5
			c0,1.6,0,4.2-8.2,4.2c-7.8,0-11.8-7.1-11.8-14.2c0-7.1,4.7-12.1,7.6-14c0.6-0.4,1.3-0.8,2-1.3c2.7-1.6,5.3-3.2,5.3-5.6v-24.5
			c0-5.3,1.2-5.3,3.2-5.3c1.5,0,2.4,0.2,2.9,0.8c0.8,0.8,0.7,2.4,0.7,4.5c0,0.4,0,0.8,0,1.3v28.7h4.3v5.2H238.3z M240.6,332.3
			c-0.9-0.9-2.3-1.4-4.3-1.4c-3.9,0-5.2,1.9-5.2,7.3v0c-4.2-1.8-7-6-7-10.6c0-6,1.4-7.6,3.9-10.2l15.5-0.7l0.1,0.1
			c2.6,2.7,4.8,5,4.8,10.9c0,4.5-2.6,8.5-6.6,10.4C241.9,335.7,242,333.6,240.6,332.3z M246.2,311l-21.3,1c-2.3,0-3-1.2-3-5.1v-42.8
			c0-1.5,0.3-2.7,1-3.3c0.7-0.7,1.5-0.7,1.5-0.7c0,0,0,0,0,0h20.8c1.1,0,2.5,0.9,2.6,3.4c0.1,3,0.9,40.8,0.9,41.3
			c0,0,0.3,3.5-1.3,5.3C247.1,310.5,246.7,310.8,246.2,311z M249.9,263.4c-0.2-3.7-2.4-5.3-4.6-5.3l-20.8,0c-0.2,0-1.7,0-2.9,1.2
			c-0.4,0.4-0.8,1-1,1.6c-24.5-10.2-48.9-33.4-55.8-40.4c-6.1-6.1-13.5-19.6-19-29.5c-3.4-6.1-5.8-10.5-7.2-12c-1.4-1.5-1.8-4-2.5-9
			c-0.9-5.6-2.1-14.2-5.9-27.9c-7.5-27.8-3-64.1-2.5-68.2c0-0.1,0-0.2,0-0.3c2.5-4.4,9.9-15.8,27.2-30c23.5-19.2,58.5-32.9,81.5-32
			c12.2,0.5,54.5,5.3,86.4,45.9c16.2,20.7,20.5,51.9,12.7,92.7c-0.2,1-0.4,1.9-0.5,2.6c-0.4,2.2-0.8,4.2-1.2,6.2
			c-1.2,6-2.1,10.7-1.6,16.9c-3.2,2.5-16.4,13.5-25.4,32.1c-9.9,20.6-36.8,49.3-56.6,55.5l-0.3,0.1
			C249.9,263.6,249.9,263.5,249.9,263.4z M127.1,189.2c0-0.1,0-0.2,0-0.3c0.3-0.6,0.8-1.3,1.3-2.2l-0.8-0.6
			c-0.3,0.4-0.5,0.7-0.7,1.1c-0.6-4.5-2.2-15.6-5.2-32.8c-2.9-16.2-1.5-41.6,1.4-60.7c-0.6,14.1-0.2,33,4.2,49.2
			c3.7,13.6,5,22,5.8,27.6c0.5,3.3,0.9,5.6,1.5,7.4c-0.6,0.6-1.2,1.2-1.8,1.9l0.7,0.7c0.5-0.6,1-1.1,1.5-1.6
			c0.4,0.8,0.8,1.5,1.4,2.1c1.1,1.2,3.8,5.9,6.8,11.4c3.7,6.7,8.3,14.9,12.8,21.6C139.8,202.7,128.7,190.9,127.1,189.2z
			 M109.7,118.2c0-0.1,0-0.1,0-0.2c0.8-2.7,1.3-4.4,1.4-5c0.2-0.6,0.5-1.4,0.9-2.5c2-5.9,6.6-19.2,11-28.3
			c-4,19.3-6.8,52.6-3.3,72.5c3.6,20.4,5.1,32.3,5.4,34.5c-3.4,4.5-18,16.6-39.4,20.8C93.3,179.4,105.4,133.7,109.7,118.2z M8.1,526
			c-8.4-8.4-5.3-21.6,0.8-42.5c0.2-0.6,14.7-46.5,24.6-77.1c5.8,12.2,10.4,32.1,14.3,60.6c2.9,21.7,14.7,55.4,25.6,66.2
			c9.1,9.1,25.8,20.6,39.6,26.1H66.2C64.7,559.3,38,555.9,8.1,526z M239.9,559.4H119c-14.1-4.2-34.2-17.6-44.2-27.5
			c-10.4-10.4-22.2-44.1-25-65.1c-4.1-30.2-9.1-50.8-15.4-63.1c3.4-10.5,6.2-18.8,7.4-22.3c5.3-14.5,33.8-125.5,37.7-145.2
			c0.9-4.5,3-13.3,5.6-24c21.5-4,36.6-15.9,41-21.1c3.2,3.4,15.8,16.3,33.1,27.8c1.1,1.4,2.2,2.7,3.3,3.8c7.1,7.1,32.1,31,57.3,41.3
			c0,0.1,0,0.1,0,0.2v42.8c0,2.1,0,5.7,3,6.8c-2.9,3.2-4.8,6-4.8,14c0,8,5.3,14.8,13,16.8v18.3c0,1.3-2.2,2.6-4.3,3.9
			c-0.7,0.4-1.4,0.9-2.1,1.3c-3.1,2.1-8.4,7.7-8.4,15.7c0,3.5,0.9,7.1,2.7,9.9c-0.8,1.9-0.9,3.6-0.9,5c0,2.3,1.9,5.9,5.3,7.7
			c-1.5,1-2.7,2.9-3,6.1c-0.4,4.1-3,34.3-2.9,36.8c0.2,3.1,1.5,4.6,8.2,4.6h27c0.1,0,0.2,0,0.3,0c2,0,4.2-0.1,5.5-1.4
			c0.7-0.7,1-1.8,0.9-3c-0.2-3.3-4-32.7-4.8-37c-0.5-2.5-0.9-4.9-2.9-6.2c3.3-1.9,5-5.3,5-7.6c0-2,0-6.1-4.8-10.2
			c-4-3.5-7.5-5.1-11.9-5.6v-7.5h6v-9.2h-4.3v-21.8c7.4-2.2,12.6-8.9,12.6-16.7c0-8.2-3.2-11.9-6.5-15.3c0.4-0.2,0.7-0.5,1-0.9
			c2.1-2.4,1.8-6.6,1.7-6.7c0-1.3-0.5-28-0.8-37.8c0.4-0.1,0.5-0.1,0.8-0.2l0.3-0.1c14.3-4.5,31.6-19.5,44.4-35.5
			c7.4-6.9,14-11.1,19.5-14.4c3.8-2.4,7.1-4.4,9.6-6.8c2.3-2.2,5.2-4.4,8.2-6.8c5.2-4.1,10.9-8.7,15.1-13.7
			c4.3,6.5,18.2,14.6,35.7,20.5c0.1,0.2,0.2,0.3,0.3,0.5c5.9,5.9,13.8,30.5,21.4,54.3c2.7,8.5,5.6,17.3,8.2,25
			c1.3,3.7,3.2,9,5.4,15.5c7.9,22.6,20.6,58.4,31.9,92.9c-7.7,10.1-20.8,32-26.3,70.8c-4.8,33.5-14.4,59.2-25.1,67.1
			c-6.6,4.8-19.8,10.1-31.4,14.7c-7.1,2.8-13.9,5.5-18.1,7.7C296.8,558.9,240.9,559.4,239.9,559.4z M479.5,534.2
			c-1,4-12.7,20.1-34.9,22.1c-6.4,0.6-46.6,1.2-89.7,1.8c3.9-1.8,8.9-3.7,14.1-5.8c11.7-4.7,25-10,31.8-14.9
			c11.3-8.3,21-33.8,25.9-68.4c4-27.7,13.1-52.5,25.1-68.7c9.1,27.7,17.2,54.3,21.2,72C483.4,518.4,480.6,529.5,479.5,534.2z"/>
		<path class="st1" d="M130.9,50.7c-0.3,0-7.2,1-10.5,5.4c-3.3,4.4-2.7,10.3-2.7,10.5c0,0.4,0.3,0.7,0.7,0.8c0.1,0,0.2,0,0.3,0
			c0.3,0,0.6-0.1,0.8-0.4l12.4-14.8c0.3-0.3,0.3-0.8,0.1-1.1C131.7,50.9,131.3,50.7,130.9,50.7z M119.7,63.8
			c0.2-1.9,0.7-4.3,2.3-6.4c1.6-2.1,4.3-3.3,6.4-4L119.7,63.8z"/>
		<path class="st1" d="M339,179.6c1.2,0.6,2.4,1.3,3.4,2l0.6-0.8c-1.1-0.7-2.2-1.4-3.5-2.1L339,179.6z"/>
		<path class="st1" d="M346.9,185.4l0.7-0.7c-0.8-0.9-1.9-1.9-3-2.8l-0.6,0.8C345.1,183.6,346.1,184.5,346.9,185.4z"/>
		<path class="st1" d="M131.3,181.4c-0.9,1-1.8,2.1-2.5,3.1l0.8,0.6c0.8-1,1.6-2,2.5-3.1L131.3,181.4z"/>
	</g>
</g>
</svg>
