<?xml version="1.0" encoding="utf-8"?>
<!-- Generator: Adobe Illustrator 20.1.0, SVG Export Plug-In . SVG Version: 6.00 Build 0)  -->
<svg version="1.1" xmlns="http://www.w3.org/2000/svg" xmlns:xlink="http://www.w3.org/1999/xlink" x="0px" y="0px"
	 viewBox="0 0 471.8 537.3" style="enable-background:new 0 0 471.8 537.3;" xml:space="preserve">
<style type="text/css">
	.st0{fill:#FFFFFF;}
	.st1{fill:#1A1A1A;}
</style>
<g id="back">
	<path class="st0" d="M452.2,66.9l2-0.3c12.7-5.5,15.3-7.6,15.9-8.1c0,0,0.2-0.4,0.2-0.4c0-0.2,0.2-0.7,0.1-1.1
		c-0.2-2-1.3-6.3-2.7-11.7c-0.2-0.8-0.9-3.1-1.8-6.5l-0.3-0.5l0-0.5c0.4-1.5,2.5-7.2,1.8-10.5c-0.7-3.5-3.6-7.6-6.7-10.2l-0.4-0.6
		l-0.1-0.9c-2.7-10.3-3.1-10.6-3.1-10.8c-0.2-0.8-0.6-1.9-1.6-2.4c-0.8-0.4-2-0.4-3.1-0.1c-0.2,0-0.3,0.3-0.5,0.3
		c-4.6,1.7-36.2,16.9-36.2,16.9c-0.6,0.5-1.8,1.7-1.9,4c0,1.3-0.2,3.3,0.6,5.7c0.9,2.8,1.6,5.1,2.1,6.7l0.6,0.4l-1,0.7
		c-0.5,0.5-0.9,1.3-1.3,1.7l-1.2,0.8c-0.3,0-7.3-0.5-18.9-1.2l0.2,0.2c-36-1.8-104.8-4.5-159-5.3h0C159.3,32,59.2,39,58.2,39.1
		l-0.9,0.1l-0.6-0.6c-0.4-0.4-0.9-0.8-1.4-1.3l-1-0.9l0.4-1.3c0.5-1.6,1.2-3.7,2.1-6.6c2.2-6.7,0.2-8.3-0.8-9.1
		C54.3,18.4,24.5,4.1,19.9,2.4c-1.3-0.5-2.4-0.5-3.3,0c-1,0.6-1.5,1.7-1.7,2.5c0,0.2-0.1,0.7-2.8,11l-0.2,0.6l-0.5,0.4
		c-3.1,2.7-5.7,7-6.5,10.5C4.3,30.7,5.7,36,6.1,37.5l0.2,0.5l-0.1,0.5c-0.9,3.5-1.6,6-1.7,6.7C2.8,52.1,2,56.7,2,58
		c0.6,0.6,3.3,2.6,16,8.1l1.7,0.7l-0.6,1.7C12.9,86.9,6.7,112,7.9,128c0.7,9.5,3.6,27.9,14.8,44.2l0.4,0.5l0,0.7
		c-0.5,12.3-2.1,35-4,61.4c-3.9,54.8-9.3,129.9-8.6,169.6c0.4,21.2,6.9,42.7,18.4,60.6c12.8,19.8,31.2,34.6,53.1,42.6
		c35,12.8,82.7,12.9,121,13l5.1,0l0.6,1c5.7,9.4,14.6,13.8,28.1,13.8c13.1,0,23-4.7,29.6-13.9l0.6-0.8l5.1,0
		c38.6-0.1,82.3-0.2,117.3-13c22-8,40.3-22.8,53.1-42.6c11.5-17.9,18.1-39.4,18.4-60.6c0.7-39.7-4.7-114.8-8.6-169.6l0-0.2
		c-1.9-25.9-3.4-48.2-4-60.6l0-0.7l0.4-0.6c11.5-16.4,14.4-35,15.2-44.7c1.2-16-5-41.2-11.1-59.4L452.2,66.9z M9.8,54.3
		c0-0.5,0.2-1.4,0.5-2.3c0.1,0.1,0.1,0.2,0.2,0.3c0.3,0.7,1,1.8,1.9,3.3C11.4,55.1,10.3,54.6,9.8,54.3z M50,30.6
		c-9.6-7.1-24.7-16.8-30-17.9c0.2-0.9,0.4-1.9,0.5-2c0.2-0.4,0.4-0.8,3.8,0.7c1.4,0.6,24.9,12,26.2,12.7
		C50.8,24.2,51.7,25.3,50,30.6z M461.3,52.3c0-0.1,0.1-0.2,0.2-0.3c0.2,0.9,0.5,1.8,0.5,2.3c-0.5,0.3-1.6,0.8-2.6,1.3
		C460.3,54.1,461,53,461.3,52.3z M421.3,24c1.3-0.7,24.8-12,26.2-12.7c3.4-1.6,3.5-1.2,3.8-0.7c0.1,0.2,0.3,1.2,0.5,2
		c-5.3,1.1-20.4,10.8-30,17.9C420,25.3,421,24.2,421.3,24z"/>
</g>
<g id="lines">
	<g>
		<path class="st1" d="M171.2,343.4l-1,0.1c0.1,1.3,0.1,2.7,0.2,4l1-0.1C171.3,346.1,171.3,344.8,171.2,343.4z"/>
		<path class="st1" d="M170.9,337.4l-1,0c0.1,1.3,0.1,2.7,0.2,4l1,0C171,340.1,171,338.8,170.9,337.4z"/>
		<path class="st1" d="M170.6,325.4l-1,0c0,1.3,0,2.7,0.1,4l1,0C170.6,328.1,170.6,326.7,170.6,325.4z"/>
		<path class="st1" d="M170.6,319.5l-1,0c0,1.3-0.1,2.6-0.1,4l1,0C170.6,322.1,170.6,320.7,170.6,319.5z"/>
		<path class="st1" d="M172.7,374.3l0-0.9l-1,0l0,0.8c0,1,0,2,0,3.1l1,0C172.7,376.3,172.7,375.2,172.7,374.3z"/>
		<path class="st1" d="M171.8,307.6l-1-0.2c-0.3,1.2-0.5,2.5-0.6,4l1,0.1C171.3,310,171.5,308.7,171.8,307.6z"/>
		<path class="st1" d="M171,313.5l-1-0.1c-0.1,1.2-0.2,2.6-0.2,4l1,0C170.8,316.1,170.9,314.7,171,313.5z"/>
		<path class="st1" d="M170.7,331.4l-1,0c0,1.3,0.1,2.7,0.1,4l1,0C170.8,334.1,170.7,332.8,170.7,331.4z"/>
		<path class="st1" d="M172.5,427.4l-1,0c0,1.6,0.1,2.9,0.2,4l1-0.1C172.6,430.3,172.6,429,172.5,427.4z"/>
		<path class="st1" d="M173,434.4c-0.1-0.3-0.1-0.6-0.1-1l-1,0.1c0,0.4,0.1,0.8,0.2,1.1c0.1,0.8,0.3,1.8,0.6,2.9l1-0.2
			C173.4,436.2,173.2,435.2,173,434.4z"/>
		<path class="st1" d="M172.4,421.4l-1,0c0,1.4,0,2.8,0.1,4l1,0C172.5,424.2,172.4,422.8,172.4,421.4z"/>
		<path class="st1" d="M172.4,415.4h-1c0,1.4,0,2.7,0,4l1,0C172.4,418.2,172.4,416.8,172.4,415.4z"/>
		<path class="st1" d="M172.5,365.4c-0.1-1.2-0.1-2.6-0.2-4l-1,0.1c0.1,1.4,0.2,2.8,0.2,4L172.5,365.4z"/>
		
			<rect x="171" y="355.4" transform="matrix(0.998 -6.249988e-02 6.249988e-02 0.998 -22.0039 11.418)" class="st1" width="1" height="4"/>
		<path class="st1" d="M171.5,349.4l-1,0.1c0.1,1.4,0.2,2.7,0.2,4l1-0.1C171.7,352.1,171.6,350.8,171.5,349.4z"/>
		<path class="st1" d="M173.2,439.4c0.4,1.4,1,2.6,1.6,3.8l0.9-0.5c-0.6-1.1-1.1-2.3-1.5-3.6L173.2,439.4z"/>
		<path class="st1" d="M185.7,452c1.2,0.4,2.5,0.8,3.9,1l0.2-1c-1.3-0.3-2.6-0.6-3.8-1L185.7,452z"/>
		<path class="st1" d="M189.1,294c-1.6,0.1-2.8,0.3-4,0.5l0.2,1c1.2-0.2,2.4-0.4,3.9-0.5L189.1,294z"/>
		<path class="st1" d="M191.6,453.4c1.3,0.2,2.6,0.3,4,0.4l0-1c-1.4-0.1-2.7-0.2-3.9-0.4L191.6,453.4z"/>
		<path class="st1" d="M176.7,444.4l-0.8,0.6c0.8,1.1,1.7,2.2,2.7,3.1l0.7-0.7C178.3,446.4,177.4,445.5,176.7,444.4z"/>
		<path class="st1" d="M178,298.2l-0.6-0.8c-1.2,0.8-2.2,1.7-3.1,2.7l0.8,0.6C175.9,299.7,176.9,298.9,178,298.2z"/>
		<path class="st1" d="M183.1,294.9c-1.4,0.4-2.7,0.8-3.8,1.4l0.4,0.9c1.1-0.5,2.3-1,3.7-1.3L183.1,294.9z"/>
		<path class="st1" d="M180.2,449.3c1.1,0.8,2.3,1.4,3.6,2l0.4-0.9c-1.2-0.5-2.4-1.2-3.4-1.9L180.2,449.3z"/>
		
			<rect x="169.9" y="404.9" transform="matrix(7.812262e-03 -1 1 7.812262e-03 -234.8488 574.1916)" class="st1" width="4" height="1"/>
		
			<rect x="170.1" y="386.9" transform="matrix(1.171795e-02 -0.9999 0.9999 1.171795e-02 -217.3122 554.9891)" class="st1" width="4" height="1"/>
		
			<rect x="170" y="392.9" transform="matrix(1.171795e-02 -0.9999 0.9999 1.171795e-02 -223.3818 560.8538)" class="st1" width="4" height="1"/>
		<path class="st1" d="M171.7,371.4l1,0l0-0.3c0-1.1-0.1-2.3-0.1-3.8l-1,0c0.1,1.4,0.1,2.7,0.1,3.7L171.7,371.4z"/>
		<path class="st1" d="M172.7,304.7c0.4-0.9,0.8-1.7,1.3-2.4l-0.8-0.5c-0.5,0.8-1,1.7-1.4,2.6c-0.1,0.3-0.3,0.7-0.4,1.1l1,0.3
			C172.4,305.4,172.5,305,172.7,304.7z"/>
		
			<rect x="170" y="398.9" transform="matrix(9.765159e-03 -1 1 9.765159e-03 -229.1205 567.5046)" class="st1" width="4" height="1"/>
		
			<rect x="170.2" y="380.9" transform="matrix(7.812262e-03 -1 1 7.812262e-03 -210.5893 550.6141)" class="st1" width="4" height="1"/>
		<path class="st1" d="M171.4,413.4l1,0c0-1.3,0-2.6,0-4l-1,0C171.4,410.8,171.4,412.1,171.4,413.4z"/>
		<path class="st1" d="M302.3,325.9l0,0.5l1,0.1l0-0.5c0.1-1.1,0.1-2.3,0.2-3.5l-1,0C302.4,323.6,302.4,324.8,302.3,325.9z"/>
		
			<rect x="299.8" y="384" transform="matrix(1.367060e-02 -0.9999 0.9999 1.367060e-02 -86.7642 681.0615)" class="st1" width="4" height="1"/>
		
			<rect x="299.8" y="390" transform="matrix(1.367060e-02 -0.9999 0.9999 1.367060e-02 -92.8499 686.9067)" class="st1" width="4" height="1"/>
		
			<rect x="299.7" y="396" transform="matrix(1.562309e-02 -0.9999 0.9999 1.562309e-02 -99.5201 691.9669)" class="st1" width="4" height="1"/>
		
			<rect x="300" y="372" transform="matrix(1.171795e-02 -0.9999 0.9999 1.171795e-02 -74.0126 670.0959)" class="st1" width="4" height="1"/>
		
			<rect x="299.9" y="378" transform="matrix(1.367060e-02 -0.9999 0.9999 1.367060e-02 -80.6779 675.212)" class="st1" width="4" height="1"/>
		
			<rect x="300.1" y="366" transform="matrix(1.171795e-02 -0.9999 0.9999 1.171795e-02 -67.9309 664.2318)" class="st1" width="4" height="1"/>
		
			<rect x="299.6" y="402" transform="matrix(1.562309e-02 -0.9999 0.9999 1.562309e-02 -105.618 697.7906)" class="st1" width="4" height="1"/>
		<path class="st1" d="M300.3,434.6l1,0.1c0.1-1.1,0.1-2.5,0.2-4l-1,0C300.4,432.1,300.4,433.5,300.3,434.6z"/>
		<path class="st1" d="M299.4,440.4l0.9,0.3c0.4-1.3,0.7-2.6,0.8-4l-1-0.1C300.1,437.9,299.8,439.2,299.4,440.4z"/>
		
			<rect x="299.5" y="408" transform="matrix(1.757541e-02 -0.9998 0.9998 1.757541e-02 -112.3005 702.8014)" class="st1" width="4" height="1"/>
		
			<rect x="300.1" y="360" transform="matrix(1.171795e-02 -0.9999 0.9999 1.171795e-02 -61.8468 658.3671)" class="st1" width="4" height="1"/>
		<path class="st1" d="M280.7,452.3l0.1,1c1.4-0.2,2.7-0.5,4-0.8l-0.2-1C283.3,451.9,282,452.1,280.7,452.3z"/>
		
			<rect x="299.4" y="414.1" transform="matrix(1.952753e-02 -0.9998 0.9998 1.952753e-02 -118.9896 707.7784)" class="st1" width="4" height="1"/>
		<path class="st1" d="M300.7,422.6l1,0c0-1.3,0.1-2.6,0.1-4l-1,0C300.8,419.9,300.7,421.3,300.7,422.6z"/>
		<path class="st1" d="M300.5,428.6l1,0c0-1.2,0.1-2.6,0.1-4l-1,0C300.6,426,300.6,427.3,300.5,428.6z"/>
		
			<rect x="300.3" y="347.9" transform="matrix(1.367060e-02 -0.9999 0.9999 1.367060e-02 -50.2519 645.9524)" class="st1" width="4" height="1"/>
		<path class="st1" d="M299.6,442.6l-0.9-0.4c-0.6,1.1-1.3,2.2-2.2,3.2l0.7,0.7C298.2,444.9,299,443.8,299.6,442.6z"/>
		
			<rect x="300.2" y="354" transform="matrix(1.367060e-02 -0.9999 0.9999 1.367060e-02 -56.3425 651.8053)" class="st1" width="4" height="1"/>
		<path class="st1" d="M300,303l0.9-0.5c-0.7-1.3-1.6-2.4-2.7-3.2l-0.6,0.8C298.5,300.9,299.3,301.9,300,303z"/>
		<path class="st1" d="M295.8,447.4l-0.6-0.8c-0.9,0.8-2,1.5-3.2,2.2l0.5,0.9C293.6,449,294.8,448.2,295.8,447.4z"/>
		<path class="st1" d="M301.9,308.5l1-0.2c-0.3-1.4-0.7-2.8-1.1-3.9l-0.9,0.4C301.2,305.9,301.6,307.1,301.9,308.5z"/>
		<path class="st1" d="M290.6,450.6l-0.4-0.9c-1.1,0.5-2.4,1-3.7,1.4l0.3,1C288.1,451.6,289.4,451.1,290.6,450.6z"/>
		<path class="st1" d="M290.8,296c-1.2-0.4-2.5-0.8-3.9-1.1l-0.2,1c1.3,0.3,2.6,0.7,3.8,1L290.8,296z"/>
		<path class="st1" d="M296.4,298.2c-1.1-0.6-2.4-1.1-3.7-1.6l-0.3,0.9c1.3,0.5,2.5,1,3.6,1.6L296.4,298.2z"/>
		<path class="st1" d="M302.5,314.4l1,0c-0.1-1.5-0.2-2.8-0.3-4l-1,0.1C302.4,311.7,302.5,313,302.5,314.4z"/>
		<path class="st1" d="M302.1,332.4l1,0c0-1.7,0.1-3.1,0.1-4l-1,0C302.1,329.3,302.1,330.7,302.1,332.4z"/>
		
			<rect x="300.5" y="335.9" transform="matrix(1.757541e-02 -0.9998 0.9998 1.757541e-02 -39.2022 632.9371)" class="st1" width="4" height="1"/>
		
			<rect x="300.4" y="341.9" transform="matrix(1.464687e-02 -0.9999 0.9999 1.464687e-02 -44.4452 639.7681)" class="st1" width="4" height="1"/>
		<path class="st1" d="M302.6,317.4c0,1,0,2,0,3l1,0c0-1,0-2,0-3c0-0.3,0-0.7,0-1l-1,0C302.6,316.7,302.6,317,302.6,317.4z"/>
		<path class="st1" d="M284.9,294.5c-1.3-0.3-2.6-0.5-4-0.7l-0.1,1c1.3,0.2,2.6,0.4,3.9,0.6L284.9,294.5z"/>
		<path class="st1" d="M268.5,256.5l-0.9-0.3c-0.5,1.2-0.9,2.5-1.3,3.8l0.9,0.3C267.6,259,268.1,257.7,268.5,256.5z"/>
		<path class="st1" d="M266.6,262.1l-1-0.3c-0.4,1.3-0.8,2.6-1.1,3.8l1,0.3C265.9,264.7,266.2,263.4,266.6,262.1z"/>
		<path class="st1" d="M270.8,250.9l-0.9-0.4c-0.5,1.2-1,2.5-1.5,3.7l0.9,0.4C269.7,253.3,270.2,252.1,270.8,250.9z"/>
		<path class="st1" d="M283.1,230.6l-0.8-0.6c-0.8,1-1.7,2.1-2.5,3.2l0.8,0.6C281.4,232.6,282.2,231.6,283.1,230.6z"/>
		<path class="st1" d="M263.5,273.7l-1-0.2c-0.3,1.3-0.6,2.6-0.9,3.9l1,0.2C262.8,276.3,263.2,275,263.5,273.7z"/>
		<path class="st1" d="M291.3,222l-0.7-0.7c-1,0.9-2,1.8-2.9,2.7l0.7,0.7C289.4,223.8,290.4,222.9,291.3,222z"/>
		<path class="st1" d="M287,226.1l-0.7-0.7c-0.9,1-1.8,2-2.7,3l0.8,0.7C285.2,228.1,286.1,227.1,287,226.1z"/>
		<path class="st1" d="M273.3,245.5l-0.9-0.5c-0.6,1.2-1.2,2.4-1.8,3.6l0.9,0.4C272.1,247.9,272.7,246.7,273.3,245.5z"/>
		<path class="st1" d="M276.2,240.3l-0.9-0.5c-0.7,1.1-1.4,2.3-2,3.5l0.9,0.5C274.8,242.6,275.5,241.4,276.2,240.3z"/>
		<path class="st1" d="M279.4,235.3l-0.8-0.6c-0.8,1.1-1.5,2.2-2.2,3.3l0.8,0.5C277.9,237.5,278.7,236.4,279.4,235.3z"/>
		<path class="st1" d="M265,267.9l-1-0.3c-0.4,1.3-0.7,2.6-1,3.9l1,0.2C264.3,270.4,264.6,269.2,265,267.9z"/>
		
			<rect x="255.9" y="328.7" transform="matrix(2.343106e-02 -0.9997 0.9997 2.343106e-02 -77.2001 579.3526)" class="st1" width="4" height="1"/>
		
			<rect x="255.8" y="334.7" transform="matrix(2.147942e-02 -0.9998 0.9998 2.147942e-02 -82.8398 585.7505)" class="st1" width="4" height="1"/>
		<path class="st1" d="M258.6,321.2l-1,0c0,1.3-0.1,2.7-0.1,4l1,0C258.6,323.9,258.6,322.5,258.6,321.2z"/>
		<path class="st1" d="M295.9,218.2l-0.6-0.8c-1.1,0.8-2.1,1.7-3.1,2.5l0.6,0.8C293.8,219.9,294.9,219,295.9,218.2z"/>
		
			<rect x="255.7" y="340.7" transform="matrix(1.952753e-02 -0.9998 0.9998 1.952753e-02 -88.4729 592.1812)" class="st1" width="4" height="1"/>
		<path class="st1" d="M258.8,315.2l-1,0c0,1.3-0.1,2.7-0.1,4l1,0C258.7,317.9,258.8,316.5,258.8,315.2z"/>
		<path class="st1" d="M261.5,282l0.6-2.5l-1-0.2l-0.6,2.5c-0.1,0.5-0.2,0.9-0.3,1.5l1,0.2C261.3,282.9,261.4,282.4,261.5,282z"/>
		<path class="st1" d="M260.9,285.3l-1-0.2c-0.2,1.2-0.4,2.5-0.5,4l1,0.1C260.5,287.8,260.7,286.5,260.9,285.3z"/>
		<path class="st1" d="M259,309.2l-1,0c-0.1,1.3-0.1,2.6-0.2,4l1,0C258.9,311.9,259,310.5,259,309.2z"/>
		<path class="st1" d="M260.2,291.3l-1-0.1c-0.1,1.3-0.2,2.6-0.3,4l1,0.1C259.9,293.9,260,292.5,260.2,291.3z"/>
		<path class="st1" d="M259.7,297.2l-1-0.1c-0.1,1.3-0.2,2.6-0.3,4l1,0.1C259.5,299.9,259.6,298.5,259.7,297.2z"/>
		<path class="st1" d="M259.3,303.2l-1-0.1c-0.1,1.3-0.1,2.6-0.2,4l1,0C259.2,305.9,259.2,304.5,259.3,303.2z"/>
		<path class="st1" d="M441.6,155.2l0.9,0.4c0.6-1.2,1.1-2.5,1.5-3.7l-0.9-0.3C442.7,152.8,442.1,154,441.6,155.2z"/>
		<path class="st1" d="M436.6,67.2l1-0.3c-0.4-1.3-0.8-2.6-1.3-3.8l-0.9,0.3C435.8,64.7,436.2,65.9,436.6,67.2z"/>
		<path class="st1" d="M414.7,180.7l-0.4-0.9c-1.2,0.5-2.4,1-3.7,1.5l0.4,0.9C412.2,181.7,413.5,181.2,414.7,180.7z"/>
		<path class="st1" d="M409.1,182.9l-0.3-0.9c-1.3,0.5-2.5,0.9-3.8,1.3l0.3,0.9C406.5,183.8,407.8,183.4,409.1,182.9z"/>
		<path class="st1" d="M403.4,184.9l-0.3-1c-1.3,0.4-2.6,0.8-3.8,1.1l0.3,1C400.8,185.6,402.1,185.3,403.4,184.9z"/>
		<path class="st1" d="M425.3,175l-0.6-0.8c-1.1,0.7-2.2,1.4-3.4,2.1l0.5,0.9C423.1,176.4,424.2,175.7,425.3,175z"/>
		<path class="st1" d="M427.7,44.9c-0.8-1.2-1.5-2.3-2.3-3.3l-0.8,0.6c0.8,1,1.5,2.1,2.3,3.2L427.7,44.9z"/>
		<path class="st1" d="M434.7,61.6l0.9-0.3c-0.5-1.3-1-2.5-1.5-3.7l-0.9,0.4C433.7,59,434.2,60.3,434.7,61.6z"/>
		<path class="st1" d="M433.4,55.6c-0.5-1.3-1.1-2.5-1.7-3.7l-0.9,0.4c0.6,1.2,1.1,2.4,1.7,3.6L433.4,55.6z"/>
		<path class="st1" d="M430.8,50.2c-0.6-1.2-1.3-2.4-2-3.5l-0.9,0.5c0.7,1.1,1.3,2.3,1.9,3.5L430.8,50.2z"/>
		<path class="st1" d="M420.1,178.1l-0.5-0.9c-1.1,0.6-2.3,1.2-3.6,1.8l0.4,0.9C417.7,179.3,419,178.7,420.1,178.1z"/>
		<path class="st1" d="M362.1,192.4l-0.2-1c-1.3,0.2-2.6,0.4-3.9,0.7l0.2,1C359.5,192.8,360.8,192.6,362.1,192.4z"/>
		<path class="st1" d="M368,191.5l-0.1-1c-1.3,0.2-2.6,0.4-4,0.6l0.2,1C365.4,191.8,366.7,191.7,368,191.5z"/>
		<path class="st1" d="M373.5,190.7l0.5-0.1l-0.1-1l-0.5,0.1c-1.2,0.2-2.3,0.3-3.5,0.5l0.1,1C371.2,191.1,372.3,190.9,373.5,190.7z"
			/>
		<path class="st1" d="M356.2,193.4l-0.2-1c-1.3,0.2-2.6,0.5-3.9,0.8l0.2,1C353.6,193.9,354.9,193.6,356.2,193.4z"/>
		<path class="st1" d="M379.9,189.9l-0.1-1c-1.3,0.2-2.6,0.4-4,0.5l0.1,1C377.3,190.3,378.6,190.1,379.9,189.9z"/>
		<path class="st1" d="M391.7,187.9l-0.2-1c-1.3,0.3-2.6,0.5-3.9,0.8l0.2,1C389.1,188.4,390.4,188.2,391.7,187.9z"/>
		<path class="st1" d="M397.6,186.5l-0.3-1c-1.3,0.3-2.6,0.7-3.9,0.9l0.2,1C395,187.2,396.3,186.9,397.6,186.5z"/>
		<path class="st1" d="M385.8,189l-0.2-1c-1.3,0.2-2.6,0.4-3.9,0.6l0.1,1C383.2,189.4,384.5,189.2,385.8,189z"/>
		<path class="st1" d="M435.2,165.1l0.8,0.7c0.9-1,1.7-2.1,2.5-3.2l-0.8-0.6C436.9,163.1,436,164.1,435.2,165.1z"/>
		<path class="st1" d="M446.2,138l1,0.1c0.1-1.3,0.3-2.6,0.3-4l-1-0.1C446.4,135.4,446.3,136.7,446.2,138z"/>
		<path class="st1" d="M443.8,149.6l1,0.3c0.4-1.3,0.8-2.6,1.1-3.9l-1-0.2C444.5,147.1,444.1,148.4,443.8,149.6z"/>
		<path class="st1" d="M445.2,143.9l1,0.2c0.3-1.3,0.5-2.6,0.7-4l-1-0.1C445.7,141.3,445.5,142.6,445.2,143.9z"/>
		<path class="st1" d="M446.6,132.1l1,0c0.1-1.3,0.1-2.6,0.1-4l-1,0C446.7,129.5,446.7,130.8,446.6,132.1z"/>
		<path class="st1" d="M446.7,126.1l1,0c0-1.2-0.1-2.6-0.1-4l-1,0C446.6,123.5,446.7,124.9,446.7,126.1z"/>
		<path class="st1" d="M426.4,173l0.6,0.8c1.1-0.8,2.2-1.6,3.2-2.5l-0.6-0.8C428.5,171.4,427.5,172.3,426.4,173z"/>
		<path class="st1" d="M438.7,160.4l0.8,0.5c0.7-1.1,1.4-2.3,2-3.5l-0.9-0.5C440.1,158.1,439.4,159.3,438.7,160.4z"/>
		<path class="st1" d="M431,169.3l0.7,0.7c1-0.9,2-1.9,2.9-2.8l-0.7-0.7C433,167.5,432,168.4,431,169.3z"/>
		<path class="st1" d="M350.4,194.6l-0.2-1c-1.3,0.3-2.6,0.6-3.9,0.9l0.2,1C347.8,195.2,349.1,194.9,350.4,194.6z"/>
		<path class="st1" d="M438.4,72.9l1-0.3c-0.4-1.3-0.7-2.6-1.1-3.8l-1,0.3C437.6,70.4,438,71.6,438.4,72.9z"/>
		<path class="st1" d="M441.3,84.6l1-0.2c-0.3-1.3-0.6-2.6-0.9-3.9l-1,0.2C440.7,82,441,83.3,441.3,84.6z"/>
		<path class="st1" d="M443.6,96.3l1-0.2c-0.2-1.3-0.5-2.6-0.7-4l-1,0.2C443.1,93.7,443.4,95,443.6,96.3z"/>
		<path class="st1" d="M442.5,90.4l1-0.2c-0.3-1.3-0.5-2.6-0.8-3.9l-1,0.2C442,87.8,442.3,89.1,442.5,90.4z"/>
		<path class="st1" d="M439.9,78.7l1-0.2c-0.3-1.3-0.7-2.6-1-3.9l-1,0.3C439.3,76.1,439.6,77.4,439.9,78.7z"/>
		<path class="st1" d="M446.5,120.1l1-0.1c-0.1-1.3-0.2-2.6-0.3-4l-1,0.1C446.3,117.5,446.4,118.8,446.5,120.1z"/>
		<path class="st1" d="M446,114.1l1-0.1c-0.1-1.3-0.3-2.6-0.4-4l-1,0.1C445.7,111.5,445.9,112.9,446,114.1z"/>
		<path class="st1" d="M445.3,108.2l1-0.1c-0.2-1.3-0.3-2.6-0.5-4l-1,0.1C445,105.6,445.2,106.9,445.3,108.2z"/>
		<path class="st1" d="M444.5,102.2l1-0.1c-0.2-1.3-0.4-2.6-0.6-4l-1,0.2C444.1,99.6,444.3,100.9,444.5,102.2z"/>
		<path class="st1" d="M318.4,205.3c1.2-0.5,2.4-1,3.6-1.5l-0.4-0.9c-1.2,0.5-2.4,1-3.6,1.5l-0.1,0l0.4,0.9L318.4,205.3z"/>
		<path class="st1" d="M338.8,197.8l-0.3-1c-1.2,0.4-2.5,0.8-3.8,1.2l0.3,0.9C336.3,198.5,337.6,198.1,338.8,197.8z"/>
		<path class="st1" d="M333.2,199.6l-0.3-0.9c-1.2,0.4-2.5,0.9-3.8,1.3l0.3,0.9C330.7,200.5,331.9,200,333.2,199.6z"/>
		<path class="st1" d="M327.5,201.6l-0.4-0.9c-1.2,0.5-2.5,0.9-3.7,1.4l0.4,0.9C325.1,202.6,326.3,202.1,327.5,201.6z"/>
		<path class="st1" d="M344.6,196.1l-0.3-1c-1.3,0.3-2.5,0.7-3.9,1.1l0.3,1C342.1,196.8,343.3,196.4,344.6,196.1z"/>
		<path class="st1" d="M311.1,208.7l-0.5-0.9c-1.2,0.6-2.4,1.2-3.5,1.9l0.5,0.9C308.7,209.9,309.9,209.3,311.1,208.7z"/>
		<path class="st1" d="M305.8,211.6l-0.5-0.9c-1.2,0.7-2.3,1.4-3.4,2.1l0.5,0.8C303.5,212.9,304.7,212.2,305.8,211.6z"/>
		<path class="st1" d="M316.5,206.1l-0.4-0.9c-1.2,0.5-2.5,1.1-3.6,1.7l0.4,0.9C314,207.3,315.2,206.7,316.5,206.1z"/>
		<path class="st1" d="M300.8,214.7l-0.6-0.8c-1.1,0.8-2.2,1.5-3.3,2.3l0.6,0.8C298.6,216.2,299.7,215.5,300.8,214.7z"/>
		<path class="st1" d="M213.8,459.3l-1,0c0,1.4,0,2.7,0.1,4l1,0C213.8,462,213.8,460.7,213.8,459.3z"/>
		<path class="st1" d="M217.9,494.7l-1,0.3c0.4,1.3,0.8,2.6,1.2,3.8l0.9-0.3C218.7,497.3,218.3,496.1,217.9,494.7z"/>
		<path class="st1" d="M214.1,471.2l-1,0c0.1,1.4,0.1,2.8,0.2,4l1-0.1C214.3,474,214.2,472.7,214.1,471.2z"/>
		<path class="st1" d="M213.7,453.3l-1,0c0,1.4,0,2.7,0,4l1,0C213.7,456,213.7,454.7,213.7,453.3z"/>
		<path class="st1" d="M213.9,465.3l-1,0c0,1.4,0.1,2.7,0.1,4l1,0C214,468,213.9,466.7,213.9,465.3z"/>
		<path class="st1" d="M216.3,489l-1,0.2c0.3,1.3,0.7,2.6,1,3.9l1-0.3C217,491.5,216.6,490.2,216.3,489z"/>
		<path class="st1" d="M214.5,477.2l-1,0.1c0.1,1.4,0.2,2.8,0.4,4l1-0.1C214.7,480,214.6,478.6,214.5,477.2z"/>
		<path class="st1" d="M215.1,483.1l-1,0.1c0.2,1.5,0.5,2.8,0.7,4l1-0.2C215.6,485.9,215.3,484.6,215.1,483.1z"/>
		<path class="st1" d="M213.7,447.3l-1,0c0,1.4,0,2.7,0,4l1,0C213.7,450,213.7,448.7,213.7,447.3z"/>
		
			<rect x="211.4" y="406.8" transform="matrix(1.171795e-02 -0.9999 0.9999 1.171795e-02 -196.3558 615.9083)" class="st1" width="4" height="1"/>
		
			<rect x="211.3" y="418.8" transform="matrix(9.765159e-03 -1 1 9.765159e-03 -208.065 628.4728)" class="st1" width="4" height="1"/>
		
			<rect x="211.3" y="412.8" transform="matrix(9.765159e-03 -1 1 9.765159e-03 -202.0089 622.5864)" class="st1" width="4" height="1"/>
		<path class="st1" d="M255.4,503l-1-0.2c-0.3,1.3-0.7,2.6-1.2,3.8l0.9,0.4C254.7,505.7,255.1,504.4,255.4,503z"/>
		
			<rect x="211.2" y="424.8" transform="matrix(7.812262e-03 -1 1 7.812262e-03 -213.7015 635.2001)" class="st1" width="4" height="1"/>
		<polygon class="st1" points="213.7,442.6 213.7,441.3 212.7,441.3 212.7,442.6 212.7,445.3 213.7,445.3 		"/>
		
			<rect x="211.2" y="436.8" transform="matrix(3.906220e-03 -1 1 3.906220e-03 -224.939 648.7563)" class="st1" width="4" height="1"/>
		
			<rect x="211.2" y="430.8" transform="matrix(5.859274e-03 -1 1 5.859274e-03 -219.328 641.9608)" class="st1" width="4" height="1"/>
		
			<rect x="255.9" y="450.4" transform="matrix(2.538244e-02 -0.9997 0.9997 2.538244e-02 -199.38 697.3376)" class="st1" width="4" height="1"/>
		<polygon class="st1" points="258.7,406.9 257.7,406.9 257.7,410.9 258.7,410.9 		"/>
		<polygon class="st1" points="258.8,404.9 258.8,402.7 258.8,400.9 257.8,400.9 257.8,402.7 257.8,404.9 		"/>
		<path class="st1" d="M258.7,418.9l-1,0c0,0.4,0,0.7,0,0.9c0,0.8,0.1,1.8,0.1,3.1l1,0c0-1.3-0.1-2.3-0.1-3.1
			C258.7,419.5,258.7,419.2,258.7,418.9z"/>
		<path class="st1" d="M257.9,426.4c0,0.8,0,1.6,0,2.5l1,0c0-0.9,0-1.7,0-2.5l0-1.5l-1,0L257.9,426.4z"/>
		<path class="st1" d="M258.7,416.5c0-1,0-2.3,0-3.6l-1,0c0,1.4,0,2.6,0,3.6v0.4h1V416.5z"/>
		
			<rect x="255.8" y="456.4" transform="matrix(2.928431e-02 -0.9996 0.9996 2.928431e-02 -206.51 701.217)" class="st1" width="4" height="1"/>
		<path class="st1" d="M258.8,436.9l-1,0c0,1.3,0,2.6-0.1,4l1,0C258.7,439.6,258.7,438.2,258.8,436.9z"/>
		<path class="st1" d="M219.8,500.4l-0.9,0.4c0.5,1.3,1,2.6,1.6,3.7l0.9-0.4C220.8,502.9,220.3,501.7,219.8,500.4z"/>
		<path class="st1" d="M258.6,442.9l-1,0c0,1.3-0.1,2.7-0.1,4l1,0C258.6,445.6,258.6,444.2,258.6,442.9z"/>
		<path class="st1" d="M225.4,510.8l-0.8,0.6c0.9,1.1,1.8,2.1,2.8,3l0.7-0.8C227.1,512.8,226.2,511.9,225.4,510.8z"/>
		
			<rect x="255.6" y="462.4" transform="matrix(3.123475e-02 -0.9995 0.9995 3.123475e-02 -213.1598 705.9387)" class="st1" width="4" height="1"/>
		<path class="st1" d="M229,515.6c1.2,0.8,2.4,1.4,3.7,1.8l0.3-0.9c-1.2-0.4-2.4-1-3.4-1.7L229,515.6z"/>
		<path class="st1" d="M257.8,434.9l1,0c0-1.4,0-2.7,0.1-4l-1,0C257.8,432.2,257.8,433.5,257.8,434.9z"/>
		<path class="st1" d="M221.3,506.3c0.7,1.3,1.4,2.4,2.1,3.5l0.8-0.6c-0.7-1-1.4-2.2-2-3.4L221.3,506.3z"/>
		<path class="st1" d="M238,517.3c-1.1,0-2.1-0.1-3.1-0.3l-0.2,1c1.1,0.2,2.2,0.3,3.3,0.3c0,0,0,0,0,0c0.3,0,0.5,0,0.8,0l0-1
			C238.5,517.3,238.3,517.3,238,517.3z"/>
		<path class="st1" d="M240.7,517.2l0.1,1c1.4-0.2,2.8-0.5,4-1l-0.4-0.9C243.3,516.7,242,517,240.7,517.2z"/>
		<path class="st1" d="M256.5,497l-1-0.1c-0.2,1.4-0.4,2.7-0.6,3.9l1,0.2C256.1,499.8,256.3,498.5,256.5,497z"/>
		<path class="st1" d="M246.2,515.4l0.5,0.9c1.2-0.7,2.3-1.5,3.3-2.5l-0.7-0.7C248.3,514,247.3,514.8,246.2,515.4z"/>
		<path class="st1" d="M250.5,511.6l0.8,0.6c0.8-1,1.5-2.2,2.1-3.5l-0.9-0.4C251.9,509.5,251.3,510.7,250.5,511.6z"/>
		
			<rect x="255.4" y="468.4" transform="matrix(3.318484e-02 -0.9994 0.9994 3.318484e-02 -219.8253 710.6292)" class="st1" width="4" height="1"/>
		<path class="st1" d="M257.3,485l-1,0c-0.1,1.5-0.1,2.9-0.2,4l1,0.1C257.1,487.9,257.2,486.5,257.3,485z"/>
		<path class="st1" d="M257,491.2l0-0.2l-1-0.1l0,0.3c-0.1,1.1-0.2,2.4-0.3,3.7l1,0.1C256.8,493.7,256.9,492.4,257,491.2z"/>
		
			<rect x="255.2" y="474.4" transform="matrix(3.708385e-02 -0.9993 0.9993 3.708385e-02 -226.9709 714.3354)" class="st1" width="4" height="1"/>
		<path class="st1" d="M257.5,479l-1,0c-0.1,1.4-0.1,2.8-0.2,4l1,0C257.4,481.7,257.5,480.4,257.5,479z"/>
		<path class="st1" d="M134.1,196.3c1.3,0.3,2.6,0.6,3.9,1l0.2-1c-1.3-0.3-2.6-0.6-3.9-1L134.1,196.3z"/>
		<path class="st1" d="M128.3,195c1.3,0.3,2.6,0.6,3.9,0.9l0.2-1c-1.3-0.3-2.6-0.6-3.9-0.9L128.3,195z"/>
		<path class="st1" d="M110.7,191.4c1.3,0.3,2.6,0.5,3.9,0.8l0.2-1c-1.3-0.3-2.6-0.5-3.9-0.8L110.7,191.4z"/>
		<path class="st1" d="M180.7,221.1c0.9,0.9,1.9,1.9,2.7,2.9l0.7-0.7c-0.9-1-1.8-2-2.8-2.9L180.7,221.1z"/>
		<path class="st1" d="M140,197.8c1.3,0.3,2.6,0.7,3.9,1.1l0.3-1c-1.3-0.4-2.6-0.7-3.9-1.1L140,197.8z"/>
		<path class="st1" d="M116.6,192.5c1.3,0.3,2.6,0.5,3.9,0.8l0.2-1c-1.3-0.3-2.6-0.5-3.9-0.8L116.6,192.5z"/>
		<path class="st1" d="M151.4,201.3c1.3,0.5,2.6,0.9,3.7,1.4l0.4-0.9c-1.2-0.5-2.5-0.9-3.8-1.4L151.4,201.3z"/>
		<path class="st1" d="M167.8,208.6l-0.6,0.8c0.6,0.5,1.3,1.1,2,1.6l1.1,0.9l0.6-0.8l-1.1-0.9C169.1,209.7,168.5,209.1,167.8,208.6z
			"/>
		<path class="st1" d="M171.8,213.2c1,0.8,2,1.7,3.1,2.6l0.7-0.8c-1-0.9-2.1-1.7-3.1-2.6L171.8,213.2z"/>
		<path class="st1" d="M176.4,217c1,0.9,2,1.8,2.9,2.7l0.7-0.7c-0.9-0.9-1.9-1.8-2.9-2.7L176.4,217z"/>
		<path class="st1" d="M162.3,206c1.2,0.7,2.3,1.4,3.3,2.1l0.6-0.8c-1-0.7-2.1-1.5-3.4-2.2L162.3,206z"/>
		<path class="st1" d="M145.7,199.4c1.3,0.4,2.6,0.8,3.8,1.2l0.3-0.9c-1.2-0.4-2.5-0.8-3.8-1.2L145.7,199.4z"/>
		<path class="st1" d="M157,203.4c1.3,0.5,2.5,1.1,3.6,1.7l0.5-0.9c-1.1-0.6-2.4-1.1-3.7-1.7L157,203.4z"/>
		<path class="st1" d="M122.4,193.7c1.3,0.3,2.6,0.5,3.9,0.8l0.2-1c-1.3-0.3-2.6-0.6-3.9-0.8L122.4,193.7z"/>
		<path class="st1" d="M25.6,125.2l-1,0.1c0.1,1.4,0.3,2.7,0.5,4l1-0.1C25.9,127.9,25.7,126.5,25.6,125.2z"/>
		<path class="st1" d="M25.4,122.5c-0.1-1-0.1-2.1-0.2-3.2l-1,0c0,1.1,0.1,2.2,0.2,3.3l0.1,0.8l1-0.1L25.4,122.5z"/>
		<path class="st1" d="M25.2,117.1c0-1.2,0-2.5,0.1-3.8l-1,0c-0.1,1.3-0.1,2.6-0.1,3.9v0.2h1V117.1z"/>
		<path class="st1" d="M25.7,107.3l-1-0.1c-0.1,1.3-0.3,2.7-0.4,4l1,0.1C25.5,110,25.6,108.7,25.7,107.3z"/>
		<path class="st1" d="M26.5,101.4l-1-0.2c-0.2,1.3-0.4,2.7-0.6,4l1,0.1C26.1,104.1,26.3,102.7,26.5,101.4z"/>
		<path class="st1" d="M27.4,137l-1,0.2c0.3,1.3,0.6,2.6,0.9,3.9l1-0.3C28,139.6,27.7,138.3,27.4,137z"/>
		<path class="st1" d="M30.8,148.4l-0.9,0.4c0.5,1.3,1,2.5,1.6,3.7l0.9-0.4C31.8,150.9,31.3,149.6,30.8,148.4z"/>
		<path class="st1" d="M26.3,131.1l-1,0.1c0.2,1.4,0.4,2.7,0.7,4l1-0.2C26.8,133.8,26.5,132.4,26.3,131.1z"/>
		<path class="st1" d="M28.9,142.8l-1,0.3c0.4,1.3,0.8,2.6,1.2,3.8l0.9-0.3C29.6,145.3,29.2,144,28.9,142.8z"/>
		<path class="st1" d="M27.6,95.5l-1-0.2c-0.3,1.3-0.5,2.6-0.8,3.9l1,0.2C27.1,98.1,27.3,96.8,27.6,95.5z"/>
		<path class="st1" d="M34.1,72.5l-0.9-0.3c-0.4,1.3-0.9,2.5-1.3,3.8l1,0.3C33.2,75,33.6,73.7,34.1,72.5z"/>
		<path class="st1" d="M43.2,50.3l-0.9-0.4c-0.6,1.2-1.1,2.4-1.7,3.6l0.9,0.4C42.1,52.7,42.7,51.5,43.2,50.3z"/>
		<path class="st1" d="M40.7,55.8l-0.9-0.4c-0.5,1.2-1.1,2.4-1.6,3.7l0.9,0.4C39.6,58.2,40.2,56.9,40.7,55.8z"/>
		<path class="st1" d="M45.9,45L45,44.5c-0.6,1.1-1.2,2.3-1.8,3.6l0.9,0.4C44.7,47.3,45.3,46.1,45.9,45z"/>
		<path class="st1" d="M38.3,61.3l-0.9-0.4c-0.5,1.2-1,2.5-1.5,3.7l0.9,0.4C37.3,63.7,37.8,62.5,38.3,61.3z"/>
		<path class="st1" d="M30.5,83.9l-1-0.3c-0.4,1.3-0.7,2.6-1.1,3.9l1,0.3C29.7,86.4,30.1,85.2,30.5,83.9z"/>
		<path class="st1" d="M32.2,78.2l-1-0.3c-0.4,1.3-0.8,2.5-1.2,3.8l1,0.3C31.4,80.7,31.8,79.4,32.2,78.2z"/>
		<path class="st1" d="M36.1,66.8l-0.9-0.4c-0.5,1.2-0.9,2.5-1.4,3.8l0.9,0.3C35.2,69.3,35.7,68.1,36.1,66.8z"/>
		<path class="st1" d="M28.9,89.7l-1-0.2c-0.3,1.3-0.6,2.6-0.9,3.9l1,0.2C28.3,92.3,28.6,91,28.9,89.7z"/>
		<path class="st1" d="M32.3,154.3c0.6,1.2,1.3,2.4,1.9,3.5l0.9-0.5c-0.7-1.1-1.3-2.3-1.9-3.5L32.3,154.3z"/>
		<path class="st1" d="M212.1,313.5l1-0.1c-0.1-1.3-0.2-2.7-0.3-4l-1,0.1C211.9,310.8,212,312.1,212.1,313.5z"/>
		<path class="st1" d="M213.3,343.4l1,0c0-1.3,0-2.7-0.1-4l-1,0C213.3,340.7,213.3,342,213.3,343.4z"/>
		<path class="st1" d="M213.2,337.4l1,0c0-1.3-0.1-2.7-0.1-4l-1,0C213.2,334.7,213.2,336.1,213.2,337.4z"/>
		<path class="st1" d="M87.1,186.9c1.3,0.3,2.6,0.5,3.9,0.8l0.2-1c-1.3-0.3-2.6-0.5-3.9-0.8L87.1,186.9z"/>
		<polygon class="st1" points="93,188 96.9,188.8 97.1,187.8 93.1,187.1 		"/>
		<path class="st1" d="M213.1,331.4l1,0c0-1.3-0.1-2.7-0.2-4l-1,0C213,328.7,213,330.1,213.1,331.4z"/>
		<polygon class="st1" points="104.8,190.3 108.7,191 108.9,190 104.9,189.3 		"/>
		<rect x="100.4" y="187" transform="matrix(0.1847 -0.9828 0.9828 0.1847 -103.5048 253.3121)" class="st1" width="1" height="4"/>
		<path class="st1" d="M212.8,325.4l1,0c-0.1-1.3-0.1-2.7-0.2-4l-1,0.1C212.7,322.7,212.8,324.1,212.8,325.4z"/>
		<path class="st1" d="M212.5,319.4l1-0.1c-0.1-1.3-0.2-2.7-0.3-4l-1,0.1C212.3,316.8,212.4,318.1,212.5,319.4z"/>
		<path class="st1" d="M35.3,159.5c0.7,1.1,1.5,2.2,2.3,3.3l0.8-0.6c-0.8-1-1.6-2.1-2.3-3.2L35.3,159.5z"/>
		<path class="st1" d="M81.2,185.7c1.3,0.3,2.6,0.5,3.9,0.8l0.2-1c-1.3-0.3-2.6-0.5-3.9-0.8L81.2,185.7z"/>
		<path class="st1" d="M52.7,176c1.1,0.7,2.3,1.3,3.5,1.9l0.5-0.9c-1.2-0.6-2.4-1.3-3.5-1.9L52.7,176z"/>
		<path class="st1" d="M43,168.8c1,0.9,2,1.8,3,2.7l0.6-0.8c-1-0.8-2-1.7-3-2.6L43,168.8z"/>
		<path class="st1" d="M38.9,164.4c0.9,1,1.8,2,2.7,3l0.7-0.7c-0.9-0.9-1.8-1.9-2.7-2.9L38.9,164.4z"/>
		<path class="st1" d="M47.7,172.7c1.1,0.8,2.2,1.6,3.3,2.3l0.5-0.8c-1.1-0.7-2.2-1.5-3.3-2.3L47.7,172.7z"/>
		<path class="st1" d="M69.4,182.9c1.2,0.3,2.5,0.7,3.9,1l0.2-1c-1.3-0.3-2.6-0.7-3.9-1L69.4,182.9z"/>
		<path class="st1" d="M75.3,184.4c1.3,0.3,2.6,0.6,3.9,0.9l0.2-1c-1.3-0.3-2.6-0.6-3.9-0.9L75.3,184.4z"/>
		<path class="st1" d="M58.5,178l-0.4,0.9c0.5,0.3,1.1,0.5,1.6,0.7c0.7,0.3,1.4,0.6,2.1,0.9l0.4-0.9c-0.7-0.3-1.4-0.6-2.1-0.8
			C59.5,178.5,59,178.2,58.5,178z"/>
		<path class="st1" d="M63.7,181.2c1.2,0.4,2.5,0.8,3.8,1.2l0.3-1c-1.4-0.4-2.7-0.8-3.8-1.2L63.7,181.2z"/>
		<path class="st1" d="M207.6,273.8l-1,0.2c0.3,1.3,0.6,2.6,0.8,3.9l1-0.2C208.1,276.3,207.9,275,207.6,273.8z"/>
		<path class="st1" d="M209.9,285.6l-1,0.2c0.2,1.3,0.4,2.6,0.6,3.9l1-0.1C210.3,288.2,210.1,286.8,209.9,285.6z"/>
		<path class="st1" d="M210.8,291.5l-1,0.1c0.2,1.3,0.4,2.6,0.5,4l1-0.1C211.1,294.1,211,292.8,210.8,291.5z"/>
		<path class="st1" d="M208.8,279.6l-1,0.2c0.2,1.3,0.5,2.6,0.7,3.9l1-0.2C209.3,282.2,209,280.9,208.8,279.6z"/>
		<path class="st1" d="M184.8,225.5c0.9,1,1.7,2,2.5,3.1l0.8-0.6c-0.8-1.1-1.7-2.1-2.5-3.1L184.8,225.5z"/>
		<path class="st1" d="M206.2,267.9l-1,0.2c0.3,1.3,0.6,2.6,0.9,3.9l1-0.2C206.8,270.5,206.5,269.2,206.2,267.9z"/>
		<path class="st1" d="M211.6,297.4l-1,0.1c0.2,1.3,0.3,2.6,0.5,4l1-0.1C211.9,300.1,211.7,298.8,211.6,297.4z"/>
		<path class="st1" d="M212.6,307.4c-0.1-1.3-0.3-2.7-0.4-4l-1,0.1c0.1,1.3,0.3,2.6,0.4,4L212.6,307.4z"/>
		<path class="st1" d="M202.7,256.4l-0.9,0.3c0.4,1.2,0.8,2.5,1.2,3.8l1-0.3C203.6,258.9,203.2,257.6,202.7,256.4z"/>
		<path class="st1" d="M191.8,235.1c0.7,1.1,1.4,2.3,2,3.4l0.9-0.5c-0.7-1.2-1.3-2.3-2-3.5L191.8,235.1z"/>
		<path class="st1" d="M188.4,230.2c0.8,1.1,1.5,2.2,2.3,3.3l0.8-0.5c-0.7-1.1-1.5-2.2-2.3-3.3L188.4,230.2z"/>
		<path class="st1" d="M204.6,262.1l-1,0.3c0.4,1.2,0.7,2.5,1.1,3.8l1-0.3C205.3,264.7,204.9,263.4,204.6,262.1z"/>
		<path class="st1" d="M195.6,239.8l-0.9,0.5c0.6,1.1,1.2,2.3,1.8,3.5l0.9-0.4C196.9,242.2,196.3,241,195.6,239.8z"/>
		<path class="st1" d="M198.3,245.2l-0.9,0.4c0.5,1.2,1.1,2.4,1.6,3.6l0.9-0.4C199.4,247.6,198.9,246.4,198.3,245.2z"/>
		<path class="st1" d="M200.7,250.7l-0.9,0.4c0.5,1.2,0.9,2.4,1.4,3.7l0.9-0.3C201.6,253.2,201.2,251.9,200.7,250.7z"/>
		<path class="st1" d="M441.7,300.5l1-0.1c-0.1-1.5-0.2-2.8-0.2-4l-1,0C441.5,297.7,441.6,299,441.7,300.5z"/>
		<path class="st1" d="M442.1,306.5l1-0.1c-0.1-1.4-0.2-2.7-0.3-4l-1,0.1C441.9,303.7,442,305.1,442.1,306.5z"/>
		
			<rect x="442.9" y="314.4" transform="matrix(0.9969 -7.819124e-02 7.819124e-02 0.9969 -23.3841 35.6358)" class="st1" width="1" height="4"/>
		<path class="st1" d="M442.6,312.5l1-0.1c-0.1-1.4-0.2-2.7-0.3-4l-1,0.1C442.3,309.8,442.4,311.1,442.6,312.5z"/>
		<path class="st1" d="M440.9,282.5l1,0c-0.1-1.3-0.1-2.6-0.2-4l-1,0.1C440.8,279.8,440.9,281.2,440.9,282.5z"/>
		<path class="st1" d="M441.4,294.5l1,0c0-1.2-0.1-2.6-0.1-4l-1,0C441.4,291.9,441.4,293.3,441.4,294.5z"/>
		
			<rect x="443.3" y="320.4" transform="matrix(0.9971 -7.609963e-02 7.609963e-02 0.9971 -23.2481 34.7103)" class="st1" width="1" height="4"/>
		<path class="st1" d="M441.2,288.5l1,0c-0.1-1.3-0.1-2.6-0.2-4l-1,0C441.1,285.9,441.2,287.2,441.2,288.5z"/>
		<path class="st1" d="M445.1,348.4l1-0.1c-0.1-1.3-0.1-2.7-0.2-4l-1,0.1C444.9,345.7,445,347,445.1,348.4z"/>
		<path class="st1" d="M445.7,366.4l1,0c0-1.3-0.1-2.7-0.1-4l-1,0C445.7,363.7,445.7,365,445.7,366.4z"/>
		<path class="st1" d="M445.3,354.4l1,0c-0.1-1.3-0.1-2.7-0.2-4l-1,0C445.2,351.7,445.3,353,445.3,354.4z"/>
		<path class="st1" d="M445.6,360.4l1,0c0-1.3-0.1-2.7-0.1-4l-1,0C445.5,357.7,445.5,359,445.6,360.4z"/>
		<path class="st1" d="M445.8,372.4l1,0c0-1.3,0-2.7-0.1-4l-1,0C445.8,369.7,445.8,371,445.8,372.4z"/>
		
			<rect x="440.5" y="272.4" transform="matrix(0.9986 -5.276397e-02 5.276397e-02 0.9986 -13.8655 23.6519)" class="st1" width="1" height="4"/>
		
			<rect x="443.8" y="326.4" transform="matrix(0.9974 -7.221798e-02 7.221798e-02 0.9974 -22.5559 32.9426)" class="st1" width="1" height="4"/>
		<path class="st1" d="M444.3,336.4l1-0.1c-0.1-1.3-0.2-2.7-0.3-4l-1,0.1C444.2,333.7,444.3,335.1,444.3,336.4z"/>
		<path class="st1" d="M444.7,342.4l1-0.1c-0.1-1.3-0.2-2.7-0.2-4l-1,0.1C444.6,339.7,444.6,341.1,444.7,342.4z"/>
		<path class="st1" d="M427.3,460.9l-0.8-0.6c-0.8,1.1-1.6,2.2-2.4,3.2l0.8,0.6C425.7,463,426.5,462,427.3,460.9z"/>
		<path class="st1" d="M433.7,450.7l-0.9-0.5c-0.7,1.2-1.3,2.3-2,3.4l0.9,0.5C432.4,453,433,451.9,433.7,450.7z"/>
		<path class="st1" d="M434.8,448.7c0.6-1.1,1.2-2.2,1.7-3.4l-0.9-0.4c-0.5,1.2-1.1,2.3-1.7,3.3l-0.1,0.2l0.9,0.5L434.8,448.7z"/>
		
			<rect x="435.6" y="194.4" transform="matrix(0.9977 -6.785882e-02 6.785882e-02 0.9977 -12.3249 30.0472)" class="st1" width="1" height="4"/>
		
			<rect x="436.8" y="212.4" transform="matrix(0.9979 -6.541730e-02 6.541730e-02 0.9979 -13.0915 29.0678)" class="st1" width="1" height="4"/>
		
			<rect x="436.4" y="206.4" transform="matrix(0.9978 -6.638941e-02 6.638941e-02 0.9978 -12.8745 29.467)" class="st1" width="1" height="4"/>
		<path class="st1" d="M421.1,468.7c0.9-1,1.7-2,2.6-3.1l-0.8-0.6c-0.8,1-1.7,2.1-2.6,3L421.1,468.7z"/>
		<path class="st1" d="M445.8,376.5l0,1.9l1,0l0-1.9c0-0.7,0-1.4,0-2.2l-1,0C445.8,375.1,445.8,375.8,445.8,376.5z"/>
		<path class="st1" d="M430.6,455.8l-0.8-0.5c-0.7,1.1-1.4,2.3-2.2,3.3l0.8,0.6C429.2,458.1,429.9,457,430.6,455.8z"/>
		
			<rect x="438.4" y="236.4" transform="matrix(0.998 -6.249988e-02 6.249988e-02 0.998 -14.044 27.8958)" class="st1" width="1" height="4"/>
		
			<rect x="439.1" y="248.4" transform="matrix(0.9982 -6.055404e-02 6.055404e-02 0.9982 -14.358 27.0804)" class="st1" width="1" height="4"/>
		
			<rect x="439.5" y="254.4" transform="matrix(0.9982 -5.958086e-02 5.958086e-02 0.9982 -14.4964 26.6702)" class="st1" width="1" height="4"/>
		
			<rect x="437.2" y="218.4" transform="matrix(0.9979 -6.444501e-02 6.444501e-02 0.9979 -13.2964 28.6669)" class="st1" width="1" height="4"/>
		
			<rect x="439.8" y="260.4" transform="matrix(0.9983 -5.763398e-02 5.763398e-02 0.9983 -14.3927 25.8147)" class="st1" width="1" height="4"/>
		
			<rect x="438.8" y="242.4" transform="matrix(0.998 -6.249988e-02 6.249988e-02 0.998 -14.4184 27.931)" class="st1" width="1" height="4"/>
		
			<rect x="437.6" y="224.4" transform="matrix(0.9979 -6.444501e-02 6.444501e-02 0.9979 -13.6821 28.7045)" class="st1" width="1" height="4"/>
		
			<rect x="440.2" y="266.4" transform="matrix(0.9984 -5.666030e-02 5.666030e-02 0.9984 -14.5012 25.4005)" class="st1" width="1" height="4"/>
		
			<rect x="438" y="230.4" transform="matrix(0.998 -6.347254e-02 6.347254e-02 0.998 -13.8691 28.301)" class="st1" width="1" height="4"/>
		
			<rect x="436" y="200.4" transform="matrix(0.9978 -6.638941e-02 6.638941e-02 0.9978 -12.477 29.4271)" class="st1" width="1" height="4"/>
		<path class="st1" d="M380.6,493.3l0.3,1c1.3-0.4,2.6-0.8,3.8-1.3l-0.3-0.9C383.1,492.5,381.9,492.9,380.6,493.3z"/>
		<path class="st1" d="M345.7,500.7l-0.3,0l0.1,1l0.3,0c1.2-0.2,2.5-0.4,3.7-0.5l-0.2-1C348.2,500.3,347,500.5,345.7,500.7z"/>
		<path class="st1" d="M339.5,501.4l0.1,1c1.4-0.2,2.7-0.3,4-0.5l-0.1-1C342.2,501.1,340.9,501.3,339.5,501.4z"/>
		<path class="st1" d="M333.6,502l0.1,1c1.4-0.1,2.7-0.3,4-0.4l-0.1-1C336.3,501.8,334.9,501.9,333.6,502z"/>
		<path class="st1" d="M369,496.5l0.2,1c1.3-0.3,2.6-0.6,3.9-1l-0.2-1C371.6,495.9,370.4,496.2,369,496.5z"/>
		<path class="st1" d="M357.3,498.8l0.2,1c1.3-0.2,2.6-0.5,3.9-0.7l-0.2-1C359.9,498.4,358.6,498.6,357.3,498.8z"/>
		<path class="st1" d="M327.6,502.5l0.1,1c1.4-0.1,2.7-0.2,4-0.3l-0.1-1C330.3,502.3,329,502.4,327.6,502.5z"/>
		<path class="st1" d="M374.8,495l0.3,1c1.3-0.4,2.6-0.7,3.9-1.1l-0.3-1C377.4,494.3,376.1,494.7,374.8,495z"/>
		<path class="st1" d="M363.2,497.7l0.2,1c1.3-0.3,2.6-0.5,3.9-0.8l-0.2-1C365.8,497.2,364.5,497.5,363.2,497.7z"/>
		<path class="st1" d="M351.4,499.8l0.2,1c1.3-0.2,2.6-0.4,4-0.6l-0.2-1C354,499.4,352.7,499.6,351.4,499.8z"/>
		
			<rect x="285.7" y="504.4" transform="matrix(0.9997 -2.538244e-02 2.538244e-02 0.9997 -12.7241 7.4648)" class="st1" width="4" height="1"/>
		<path class="st1" d="M291.7,504.3l0,1c1.3,0,2.7-0.1,4-0.1l0-1C294.3,504.2,293,504.3,291.7,504.3z"/>
		<path class="st1" d="M297.7,504.1l0,1c1.3,0,2.7-0.1,4-0.1l0-1C300.3,504,299,504.1,297.7,504.1z"/>
		<path class="st1" d="M279.7,504.6l0,1c1.3,0,2.7-0.1,4-0.1l0-1C282.3,504.6,281,504.6,279.7,504.6z"/>
		<path class="st1" d="M303.7,503.9l0,1c1.3-0.1,2.7-0.1,4-0.2l0-1C306.3,503.8,305,503.8,303.7,503.9z"/>
		<path class="st1" d="M315.6,503.3l0.1,1c1.4-0.1,2.7-0.2,4-0.2l-0.1-1C318.3,503.2,317,503.3,315.6,503.3z"/>
		<path class="st1" d="M321.6,503l0.1,1c1.4-0.1,2.7-0.2,4-0.3l-0.1-1C324.3,502.8,323,502.9,321.6,503z"/>
		<path class="st1" d="M309.7,503.6l0,1c1.4-0.1,2.7-0.1,4-0.2l-0.1-1C312.3,503.5,311,503.6,309.7,503.6z"/>
		<path class="st1" d="M440.2,431.8l1,0.3c0.3-1.3,0.7-2.6,1-3.9l-1-0.2C440.9,429.2,440.6,430.5,440.2,431.8z"/>
		<path class="st1" d="M442.7,420.1l1,0.2c0.2-1.3,0.4-2.6,0.6-4l-1-0.1C443.2,417.5,443,418.8,442.7,420.1z"/>
		<path class="st1" d="M443.7,414.2l1,0.1c0.2-1.3,0.3-2.6,0.5-4l-1-0.1C444,411.6,443.8,412.9,443.7,414.2z"/>
		<path class="st1" d="M444.4,408.3l1,0.1c0.1-1.3,0.3-2.7,0.4-4l-1-0.1C444.6,405.6,444.5,406.9,444.4,408.3z"/>
		<path class="st1" d="M441.6,426l1,0.2c0.3-1.3,0.5-2.6,0.8-3.9l-1-0.2C442.2,423.4,441.9,424.7,441.6,426z"/>
		<path class="st1" d="M445.6,390.3l1,0c0-1.3,0.1-2.7,0.1-4l-1,0C445.7,387.7,445.7,389,445.6,390.3z"/>
		<path class="st1" d="M445.8,384.4l1,0c0-1.3,0-2.7,0.1-4l-1,0C445.8,381.7,445.8,383,445.8,384.4z"/>
		<path class="st1" d="M444.9,402.3l1,0.1c0.1-1.3,0.2-2.7,0.3-4l-1-0.1C445.1,399.6,445,401,444.9,402.3z"/>
		<path class="st1" d="M445.3,396.3l1,0.1c0.1-1.3,0.1-2.7,0.2-4l-1,0C445.5,393.7,445.4,395,445.3,396.3z"/>
		<path class="st1" d="M386.2,491.4l0.4,0.9c1.3-0.5,2.5-1,3.7-1.5l-0.4-0.9C388.7,490.4,387.5,490.9,386.2,491.4z"/>
		<path class="st1" d="M391.7,489.1l0.4,0.9c1.2-0.6,2.5-1.1,3.6-1.7l-0.4-0.9C394.2,488,393,488.5,391.7,489.1z"/>
		<path class="st1" d="M397.1,486.5l0.5,0.9c1.2-0.6,2.4-1.3,3.5-2l-0.5-0.9C399.4,485.2,398.3,485.9,397.1,486.5z"/>
		<path class="st1" d="M407.2,480.2l0.6,0.8c1.1-0.8,2.1-1.6,3.2-2.5l-0.6-0.8C409.3,478.6,408.2,479.4,407.2,480.2z"/>
		<path class="st1" d="M438.5,437.5l0.9,0.3c0.4-1.2,0.8-2.5,1.2-3.8l-1-0.3C439.3,435,438.9,436.3,438.5,437.5z"/>
		<path class="st1" d="M402.3,483.5l0.5,0.8c1.1-0.7,2.3-1.5,3.4-2.2l-0.6-0.8C404.5,482.1,403.4,482.8,402.3,483.5z"/>
		<path class="st1" d="M436.4,443.1l0.9,0.4c0.5-1.2,1-2.5,1.5-3.7l-0.9-0.3C437.4,440.7,436.9,441.9,436.4,443.1z"/>
		<path class="st1" d="M416.2,472.4l0.7,0.7c0.9-0.9,1.9-1.9,2.8-2.9l-0.7-0.7C418.1,470.5,417.1,471.5,416.2,472.4z"/>
		<path class="st1" d="M411.8,476.5l0.7,0.8c1-0.9,2-1.8,3-2.7l-0.7-0.7C413.8,474.7,412.8,475.6,411.8,476.5z"/>
		<path class="st1" d="M65.2,481.6c1.1,0.8,2.2,1.6,3.3,2.3L69,483c-1.1-0.7-2.2-1.5-3.3-2.3L65.2,481.6z"/>
		<path class="st1" d="M55.9,473.9c1,0.9,2,1.8,3,2.7l0.6-0.8c-1-0.8-2-1.7-3-2.6L55.9,473.9z"/>
		<path class="st1" d="M51.5,469.8c0.9,1,1.9,1.9,2.9,2.8l0.7-0.7c-0.9-0.9-1.9-1.8-2.8-2.8L51.5,469.8z"/>
		<path class="st1" d="M60.4,477.9c1,0.9,2.1,1.7,3.2,2.5l0.6-0.8c-1-0.8-2.1-1.6-3.1-2.5L60.4,477.9z"/>
		<path class="st1" d="M70.2,485c1.1,0.7,2.3,1.4,3.4,2.1l0.5-0.9c-1.1-0.7-2.3-1.4-3.4-2.1L70.2,485z"/>
		<path class="st1" d="M75.3,488c1.2,0.6,2.4,1.3,3.5,1.9l0.5-0.9c-1.2-0.6-2.4-1.2-3.5-1.9L75.3,488z"/>
		<path class="st1" d="M80.7,490.8c1.2,0.6,2.4,1.1,3.6,1.7l0.4-0.9c-1.2-0.5-2.4-1.1-3.6-1.7L80.7,490.8z"/>
		<path class="st1" d="M29,428.3l-1,0.2c0.3,1.3,0.6,2.7,0.9,3.9l1-0.2C29.6,431,29.2,429.6,29,428.3z"/>
		<path class="st1" d="M32.1,439.8l-0.9,0.3c0.5,1.3,0.9,2.6,1.4,3.8l0.9-0.4C33.1,442.4,32.6,441.1,32.1,439.8z"/>
		<path class="st1" d="M33.4,445.8c0.6,1.3,1.2,2.5,1.8,3.6l0.9-0.5c-0.6-1.1-1.2-2.3-1.8-3.5L33.4,445.8z"/>
		<path class="st1" d="M86.2,493.3c1.2,0.5,2.5,1,3.7,1.5l0.4-0.9c-1.2-0.5-2.5-1-3.7-1.5L86.2,493.3z"/>
		
			<rect x="33.5" y="238.4" transform="matrix(5.860750e-02 -0.9983 0.9983 5.860750e-02 -205.0891 260.4055)" class="st1" width="4" height="1"/>
		<path class="st1" d="M30.4,434.1l-1,0.3c0.4,1.3,0.7,2.6,1.1,3.9l1-0.3C31.1,436.7,30.7,435.4,30.4,434.1z"/>
		<path class="st1" d="M37.1,450.6l-0.9,0.5c0.6,1,1.2,1.9,1.9,2.8l0.4,0.6l0.8-0.6l-0.4-0.6C38.3,452.4,37.7,451.5,37.1,450.6z"/>
		<path class="st1" d="M39.8,456c0.8,1.1,1.6,2.1,2.5,3.2l0.8-0.6c-0.8-1-1.6-2.1-2.5-3.1L39.8,456z"/>
		
			<rect x="33.9" y="232.4" transform="matrix(5.729279e-02 -0.9984 0.9984 5.729279e-02 -198.7466 255.4145)" class="st1" width="4" height="1"/>
		<path class="st1" d="M43.5,460.8c0.9,1,1.7,2.1,2.6,3.1l0.8-0.7c-0.9-1-1.7-2-2.6-3L43.5,460.8z"/>
		<path class="st1" d="M47.4,465.4c0.9,1,1.8,2,2.7,3l0.7-0.7c-0.9-1-1.8-1.9-2.7-2.9L47.4,465.4z"/>
		
			<rect x="158.5" y="502.5" transform="matrix(2.757740e-02 -0.9996 0.9996 2.757740e-02 -349.7164 649.4933)" class="st1" width="1" height="4"/>
		
			<rect x="164.5" y="502.7" transform="matrix(2.514160e-02 -0.9997 0.9997 2.514160e-02 -343.6712 656.8821)" class="st1" width="1" height="4"/>
		<path class="st1" d="M145,503.6l0,1c0.8,0,1.7,0.1,2.6,0.1l1.4,0l0-1l-1.4,0C146.7,503.6,145.8,503.6,145,503.6z"/>
		
			<rect x="152.5" y="502.3" transform="matrix(2.977922e-02 -0.9996 0.9996 2.977922e-02 -355.6826 642.2109)" class="st1" width="1" height="4"/>
		
			<rect x="170.5" y="502.8" transform="matrix(2.318995e-02 -0.9997 0.9997 2.318995e-02 -337.66 664.0148)" class="st1" width="1" height="4"/>
		
			<rect x="188.5" y="503.2" transform="matrix(1.709152e-02 -0.9999 0.9999 1.709152e-02 -319.3553 685.4569)" class="st1" width="1" height="4"/>
		
			<rect x="194.5" y="503.3" transform="matrix(1.513868e-02 -0.9999 0.9999 1.513868e-02 -313.1954 692.538)" class="st1" width="1" height="4"/>
		
			<rect x="176.5" y="502.9" transform="matrix(2.098891e-02 -0.9998 0.9998 2.098891e-02 -331.5665 671.2606)" class="st1" width="1" height="4"/>
		
			<rect x="182.5" y="503.1" transform="matrix(1.904649e-02 -0.9998 0.9998 1.904649e-02 -325.4787 678.363)" class="st1" width="1" height="4"/>
		<path class="st1" d="M133,503.8c1.3,0.1,2.6,0.2,4,0.3l0.1-1c-1.3-0.1-2.7-0.2-4-0.3L133,503.8z"/>
		<path class="st1" d="M115.1,501.5c1.3,0.2,2.6,0.5,4,0.7l0.2-1c-1.3-0.2-2.6-0.4-3.9-0.7L115.1,501.5z"/>
		<path class="st1" d="M103.3,498.9c1.3,0.3,2.6,0.6,3.9,0.9l0.2-1c-1.3-0.3-2.6-0.6-3.9-0.9L103.3,498.9z"/>
		<path class="st1" d="M109.2,500.3c1.3,0.3,2.6,0.5,3.9,0.8l0.2-1c-1.3-0.3-2.6-0.5-3.9-0.8L109.2,500.3z"/>
		<path class="st1" d="M97.5,497.3c1.3,0.4,2.5,0.8,3.9,1.1l0.3-1c-1.3-0.4-2.6-0.7-3.8-1.1L97.5,497.3z"/>
		<path class="st1" d="M91.8,495.4c1.2,0.4,2.5,0.9,3.8,1.3l0.3-1c-1.3-0.4-2.5-0.8-3.8-1.3L91.8,495.4z"/>
		<path class="st1" d="M121,502.4c1.3,0.2,2.6,0.4,4,0.5l0.1-1c-1.3-0.2-2.7-0.3-4-0.5L121,502.4z"/>
		<path class="st1" d="M139,504.2c1.3,0.1,2.6,0.2,4,0.2l0-1c-1.3-0.1-2.7-0.1-4-0.2L139,504.2z"/>
		<path class="st1" d="M127,503.2c1.3,0.1,2.6,0.3,4,0.4l0.1-1c-1.3-0.1-2.7-0.3-4-0.4L127,503.2z"/>
		<path class="st1" d="M28.7,332.8l-1-0.1c-0.2,1.3-0.3,2.6-0.5,4l1,0.1C28.4,335.4,28.5,334.1,28.7,332.8z"/>
		
			<rect x="31.7" y="268.4" transform="matrix(6.249988e-02 -0.998 0.998 6.249988e-02 -236.7976 285.7599)" class="st1" width="4" height="1"/>
		
			<rect x="31.3" y="274.4" transform="matrix(6.444501e-02 -0.9979 0.9979 6.444501e-02 -243.1734 290.4555)" class="st1" width="4" height="1"/>
		<path class="st1" d="M31.4,308.9l-1-0.1c-0.1,1.4-0.2,2.7-0.3,4l1,0.1C31.1,311.6,31.2,310.3,31.4,308.9z"/>
		
			<rect x="30.9" y="280.4" transform="matrix(6.638941e-02 -0.9978 0.9978 6.638941e-02 -249.5537 295.1168)" class="st1" width="4" height="1"/>
		<path class="st1" d="M27.9,422.4l-1,0.2c0.2,1.3,0.5,2.7,0.7,4l1-0.2C28.3,425.1,28.1,423.8,27.9,422.4z"/>
		<path class="st1" d="M31.8,302.9l-1-0.1c-0.1,1.4-0.2,2.7-0.3,4l1,0.1C31.6,305.6,31.7,304.3,31.8,302.9z"/>
		
			<rect x="30.5" y="286.4" transform="matrix(6.833305e-02 -0.9977 0.9977 6.833305e-02 -255.9418 299.7452)" class="st1" width="4" height="1"/>
		<path class="st1" d="M32.3,296.9l-1-0.1c-0.1,1.4-0.2,2.7-0.3,4l1,0.1C32.1,299.6,32.2,298.3,32.3,296.9z"/>
		
			<rect x="30.1" y="292.4" transform="matrix(7.034440e-02 -0.9975 0.9975 7.034440e-02 -262.3376 304.3134)" class="st1" width="4" height="1"/>
		
			<rect x="32.1" y="262.4" transform="matrix(6.249988e-02 -0.998 0.998 6.249988e-02 -230.4605 280.515)" class="st1" width="4" height="1"/>
		
			<rect x="35.2" y="208.4" transform="matrix(5.465912e-02 -0.9985 0.9985 5.465912e-02 -173.4572 234.6839)" class="st1" width="4" height="1"/>
		
			<rect x="32.8" y="250.4" transform="matrix(5.958086e-02 -0.9982 0.9982 5.958086e-02 -217.7393 270.7349)" class="st1" width="4" height="1"/>
		
			<rect x="35.5" y="202.4" transform="matrix(5.368591e-02 -0.9986 0.9986 5.368591e-02 -167.1299 229.5339)" class="st1" width="4" height="1"/>
		
			<rect x="35.9" y="196.4" transform="matrix(5.271254e-02 -0.9986 0.9986 5.271254e-02 -160.8029 224.3655)" class="st1" width="4" height="1"/>
		
			<rect x="34.9" y="214.4" transform="matrix(5.471245e-02 -0.9985 0.9985 5.471245e-02 -179.7614 240.0177)" class="st1" width="4" height="1"/>
		
			<rect x="33.2" y="244.4" transform="matrix(5.860750e-02 -0.9983 0.9983 5.860750e-02 -211.4063 265.6992)" class="st1" width="4" height="1"/>
		
			<rect x="34.5" y="220.4" transform="matrix(5.568645e-02 -0.9984 0.9984 5.568645e-02 -186.0912 245.1392)" class="st1" width="4" height="1"/>
		
			<rect x="34.2" y="226.4" transform="matrix(5.666030e-02 -0.9984 0.9984 5.666030e-02 -192.4214 250.2443)" class="st1" width="4" height="1"/>
		
			<rect x="32.4" y="256.4" transform="matrix(6.055404e-02 -0.9982 0.9982 6.055404e-02 -224.0881 275.763)" class="st1" width="4" height="1"/>
		<path class="st1" d="M25.4,374.7l-1,0c0,1.3-0.1,2.7-0.1,4l1,0C25.3,377.3,25.4,376,25.4,374.7z"/>
		<path class="st1" d="M25.2,386.6l-1,0c0,1.3,0,2.7,0,4l1,0C25.3,389.3,25.3,388,25.2,386.6z"/>
		<path class="st1" d="M25.3,392.6l-1,0c0,1.3,0.1,2.7,0.1,4l1,0C25.4,395.3,25.4,394,25.3,392.6z"/>
		<path class="st1" d="M25.3,380.7l-1,0c0,1.3,0,2.7,0,4l1,0C25.3,383.3,25.3,382,25.3,380.7z"/>
		<path class="st1" d="M25.5,398.6l-1,0c0.1,1.3,0.1,2.7,0.2,4l1-0.1C25.6,401.3,25.6,400,25.5,398.6z"/>
		<path class="st1" d="M27,416.5l-1,0.1c0.2,1.3,0.4,2.7,0.6,4l1-0.2C27.3,419.2,27.2,417.9,27,416.5z"/>
		<path class="st1" d="M25.8,404.6l-1,0.1c0.1,1.3,0.2,2.7,0.3,4l1-0.1C26,407.3,25.9,405.9,25.8,404.6z"/>
		<path class="st1" d="M26.3,410.6l-1,0.1c0.1,1.3,0.3,2.7,0.4,4l1-0.1C26.6,413.2,26.5,411.9,26.3,410.6z"/>
		<path class="st1" d="M26.4,356.7l-1-0.1c-0.1,1.3-0.2,2.6-0.3,4l1,0.1C26.2,359.3,26.3,358,26.4,356.7z"/>
		<path class="st1" d="M27.4,344.8l-1-0.1c-0.1,1.3-0.3,2.6-0.4,4l1,0.1C27.1,347.4,27.2,346.1,27.4,344.8z"/>
		<path class="st1" d="M29.5,326.9l-1-0.1c-0.2,1.2-0.3,2.5-0.5,4l1,0.1C29.1,329.4,29.3,328.1,29.5,326.9z"/>
		<path class="st1" d="M25.6,368.7l-1,0c-0.1,1.3-0.1,2.7-0.2,4l1,0C25.5,371.3,25.6,370,25.6,368.7z"/>
		<path class="st1" d="M30.2,320.9l-1-0.1c-0.2,1.5-0.3,2.8-0.5,4l1,0.1C29.9,323.8,30.1,322.4,30.2,320.9z"/>
		<path class="st1" d="M28,338.8l-1-0.1c-0.1,1.3-0.3,2.6-0.4,4l1,0.1C27.7,341.4,27.8,340.1,28,338.8z"/>
		<path class="st1" d="M26.8,350.7l-1-0.1c-0.1,1.3-0.2,2.6-0.3,4l1,0.1C26.6,353.4,26.7,352,26.8,350.7z"/>
		<path class="st1" d="M26,362.7l-1-0.1c-0.1,1.3-0.2,2.7-0.2,4l1,0.1C25.8,365.3,25.9,364,26,362.7z"/>
		<path class="st1" d="M30.8,314.9l-1-0.1c-0.1,1.4-0.3,2.8-0.4,4l1,0.1C30.6,317.7,30.7,316.3,30.8,314.9z"/>
		<path class="st1" d="M469.3,44.9c-0.2-0.8-0.8-3.3-1.8-6.8c0.6-2,2-7.4,1.2-11.2c-0.8-3.9-3.7-8.6-7.1-11.6
			c-1.5-5.8-2.7-10.4-2.8-10.9c-0.2-1.3-1.1-3-2.7-3.9c-1.4-0.8-3-0.8-4.9-0.1c-4.3,1.6-35.1,16.2-36.7,17.4
			c-1.9,1.5-3.8,4.1-1.5,11.3c0.9,2.8,1.6,5,2.1,6.5c-0.6,0.5-1.1,0.9-1.5,1.3c-23.3-1.5-111.4-5.4-177.8-6.3l0,1.6l0-1.6
			C170.4,30.2,83.6,35.3,58,37.1c-0.4-0.4-0.9-0.9-1.5-1.3c0.5-1.6,1.2-3.7,2.1-6.5c2.4-7.2,0.5-9.8-1.5-11.3
			C55.7,16.7,24.8,2.1,20.5,0.5c-1.9-0.7-3.5-0.6-4.9,0.1c-1.6,0.9-2.4,2.6-2.7,3.9c-0.1,0.5-1.3,5.1-2.8,10.9
			C6.8,18.3,3.9,23,3.1,26.9c-0.8,3.7,0.6,9.2,1.2,11.2c-0.9,3.5-1.6,6-1.8,6.8C2,46.8-0.3,56.4,0,58.5c0.1,0.6,0.4,2.2,17.2,9.5
			C11.1,85.8,4.7,111.4,6,128.2c0.8,9.8,3.7,28.5,15.2,45.1c-0.5,12.3-2.1,35-4,61.3c-3.9,54.9-9.3,130-8.6,169.8
			c0.4,21.6,7,43.4,18.7,61.6c13,20.2,31.7,35.2,54.1,43.4c35.3,12.9,83.2,13,121.7,13.1l4,0c5.3,8.8,14.2,14.7,29.8,14.7
			c15,0,25-6,31.2-14.7l4,0c38.7-0.1,82.7-0.2,118-13.1c22.4-8.2,41.1-23.2,54.1-43.4c11.7-18.2,18.4-40.1,18.7-61.6
			c0.7-39.8-4.7-114.9-8.6-169.8c-1.9-25.9-3.5-48.4-4-60.8c11.7-16.7,14.8-35.8,15.5-45.7c1.3-16.8-5.2-42.4-11.2-60.2
			c16.7-7.2,17-8.9,17.1-9.4C472.1,56.4,469.8,46.8,469.3,44.9z M466.8,27.4c0.1,0.3,0.1,0.6,0.1,1c0,0.1,0,0.1,0,0.2
			c0,0.4,0,0.7,0,1.1c0,0,0,0,0,0.1c0,1.2-0.2,2.5-0.4,3.9c0,0.1,0,0.3-0.1,0.4c-0.3-1.3-0.7-2.6-1-4c-0.9-3.3-1.9-7.1-2.8-10.7
			C464.6,21.8,466.2,24.8,466.8,27.4C466.8,27.4,466.8,27.4,466.8,27.4z M466.9,28.4C466.9,28.4,466.9,28.5,466.9,28.4
			C466.9,28.5,466.9,28.4,466.9,28.4z M466.5,33.7c0,0.1,0,0.2-0.1,0.3C466.5,33.8,466.5,33.7,466.5,33.7z M467.4,45.3
			c0.1,0.6,0.3,1.1,0.4,1.7C467.6,46.5,467.5,45.9,467.4,45.3L467.4,45.3c-0.2-0.8-0.8-3.3-1.7-6.7l-0.1-0.4
			C466.5,41.9,467.2,44.6,467.4,45.3z M466.4,26c-0.7-2.2-2.1-4.6-3.7-6.6c0,0,0,0,0,0C464.3,21.4,465.7,23.8,466.4,26z M459.8,16.5
			L459.8,16.5l-0.1-0.5C459.7,16.1,459.8,16.3,459.8,16.5z M459.6,15.5c-2.6-9.9-2.7-10.4-2.7-10.6c0-0.2-0.1-0.4-0.2-0.6
			c0.1,0.2,0.1,0.4,0.2,0.6C457,5.4,458,9.4,459.6,15.5z M456.3,3.4c-0.1-0.2-0.3-0.4-0.4-0.5C456,3.1,456.1,3.3,456.3,3.4z
			 M456.6,4.1c-0.1-0.2-0.2-0.4-0.3-0.5C456.5,3.8,456.6,4,456.6,4.1z M455.8,2.8c-0.2-0.2-0.4-0.4-0.6-0.5c0,0,0,0,0,0c0,0,0,0,0,0
			C455.4,2.5,455.6,2.7,455.8,2.8z M454.5,2.1c-0.1,0-0.2,0-0.3-0.1C454.3,2.1,454.4,2.1,454.5,2.1z M453.9,2c-0.2,0-0.4,0-0.6,0
			C453.5,2,453.7,2,453.9,2z M453.1,2.1c-0.2,0-0.5,0.1-0.7,0.2C452.7,2.2,452.9,2.1,453.1,2.1z M415.6,19.7
			C415.6,19.7,415.6,19.7,415.6,19.7C415.6,19.7,415.6,19.7,415.6,19.7z M415.4,19.8c0,0-0.1,0.1-0.1,0.1
			C415.4,19.9,415.4,19.8,415.4,19.8z M415.2,20c-0.1,0.1-0.1,0.1-0.2,0.2C415.1,20.1,415.1,20.1,415.2,20z M414.7,20.7
			c-0.1,0.1-0.1,0.2-0.2,0.4C414.5,20.9,414.6,20.8,414.7,20.7z M414.9,20.3c-0.1,0.1-0.2,0.2-0.2,0.3
			C414.8,20.5,414.9,20.4,414.9,20.3z M414.4,21.2c-0.1,0.2-0.1,0.3-0.2,0.5C414.3,21.5,414.3,21.3,414.4,21.2z M414.2,21.7
			c-0.1,0.4-0.2,0.9-0.2,1.5C414,22.6,414.1,22.1,414.2,21.7z M452.2,14.6c0.4,1.6,0.8,3.4,1.3,5.5c-5.5,0.2-9.4,11.3-12.8,23.3
			c0,0.1,0,0.2-0.1,0.3c-5.6-3.4-13.8-5.6-23.7-6.4c-0.1,0-0.3,0-0.4,0C424.8,30.2,446.3,15.9,452.2,14.6z M421.3,24
			c1.2-0.7,24.7-12,26.2-12.7c3.4-1.5,3.6-1.2,3.8-0.7c0.1,0.2,0.3,1,0.5,2.1c-5.1,1.1-19.9,10.4-30,17.9
			C420,25.3,421,24.2,421.3,24z M454,22.1L454,22.1c0.4,1.5,0.8,3,1.2,4.6c-0.3,1-4.7,2.8-7.2,3.7c-0.4,0.2-0.8,0.3-1.2,0.5
			C448.9,26,451.4,21.8,454,22.1z M461.3,52.3c0-0.1,0.1-0.2,0.1-0.3c0.2,0.9,0.5,1.8,0.5,2.3c-0.5,0.3-1.6,0.8-2.6,1.3
			C460.2,54.2,460.9,53,461.3,52.3z M460.1,50.4c-0.2,0.4-0.4,0.8-0.5,0.9c-1,2.1-4.7,7.8-6.8,11.1c-1-2.7-1.9-5.1-2.8-7.1
			c2.1-3.1,7.5-9.9,9.5-12.4c0.4,1.8,0.7,3.2,0.8,4c0.1,0.4,0.1,0.7,0.2,0.9c0.1,0.4,0.2,0.9,0.3,1.4
			C460.5,49.6,460.3,50.1,460.1,50.4z M458.6,40.8c-0.3,0.4-6.6,8.1-9.6,12.4c-0.3-0.7-0.7-1.4-1-2c-0.5-1-1.2-2-1.9-2.9
			c1.3-2.2,3.5-5.3,6.3-9.1c2.3-1,4.5-1.8,5.5-2c0.4,1.5,0.8,2.8,1.1,4L458.6,40.8z M444.6,46.7c-0.7-0.7-1.4-1.3-2.3-1.9
			c0.1-0.3,0.2-0.6,0.2-0.9c0.1-0.2,0.1-0.5,0.2-0.8c1.1-0.5,2.4-1,3.8-1.6c0.6-0.3,1.4-0.6,2.1-0.9C447,43.1,445.6,45.1,444.6,46.7
			z M31.2,43.7c0-0.1-0.1-0.2-0.1-0.3c-3.4-12-7.3-23.1-12.8-23.3c0.5-2.1,0.9-3.9,1.3-5.5c6,1.2,27.5,15.6,35.7,22.7
			c-0.1,0-0.2,0-0.3,0C45,38.1,36.8,40.3,31.2,43.7z M19.1,62.5c-2.1-3.2-5.8-9-6.9-11.1c-0.1-0.2-0.3-0.5-0.5-0.9
			c-0.2-0.4-0.5-0.8-0.7-1.2c0.1-0.5,0.2-1,0.3-1.4c0-0.2,0.1-0.5,0.2-0.9c0.1-0.8,0.4-2.2,0.8-4c2,2.5,7.5,9.4,9.5,12.4
			C21.1,57.4,20.1,59.8,19.1,62.5z M10.3,52c0.1,0.1,0.1,0.2,0.1,0.3c0.4,0.8,1.1,2,1.9,3.3c-1-0.5-2-1-2.6-1.3
			C9.9,53.8,10.1,52.9,10.3,52z M23.9,51.2c-0.3,0.6-0.6,1.3-1,2.1c-3-4.3-9.3-12.1-9.7-12.5l-0.4,0.3c0.3-1.2,0.6-2.5,1.1-4
			c1,0.2,3.2,1.1,5.5,2c2.9,3.8,5,7,6.4,9.2C25,49.2,24.4,50.2,23.9,51.2z M27.2,46.8c-1-1.6-2.4-3.7-4.2-6.1
			c0.7,0.3,1.5,0.6,2.1,0.9c1.4,0.6,2.7,1.2,3.8,1.6c0.1,0.3,0.1,0.5,0.2,0.8c0.1,0.3,0.2,0.6,0.3,0.9
			C28.6,45.5,27.9,46.1,27.2,46.8z M17.7,22.1L17.7,22.1c2.6-0.4,5.1,3.8,7.1,8.8c-0.4-0.2-0.8-0.3-1.2-0.5c-2.4-1-6.9-2.8-7.2-3.7
			C17,25.2,17.4,23.6,17.7,22.1z M50,30.6c-10.1-7.5-24.9-16.8-30-17.9c0.2-1,0.4-1.9,0.5-2.1c0.2-0.4,0.4-0.8,3.8,0.7
			c1.4,0.7,25,12,26.2,12.7C50.8,24.2,51.7,25.3,50,30.6z M5,27.4c0.6-2.6,2.1-5.6,4.1-8c-0.9,3.6-1.9,7.3-2.8,10.6
			c-0.4,1.4-0.7,2.8-1.1,4C4.8,31.6,4.6,29.1,5,27.4z M2,58.1c-0.1-1.5,1.1-7.5,2.4-12.7c0.3-1.3,2-7.6,3.9-14.9
			c3.6-13.9,6.5-24.7,6.6-25.6C15,4.2,15.5,3,16.6,2.4c0.8-0.5,1.9-0.5,3.3,0C24.5,4.1,54.5,18.5,56,19.5c1,0.8,3,2.4,0.8,9.1
			c-0.8,2.4-1.4,4.3-1.9,5.8c-1-0.8-2.1-1.6-3.2-2.5c1.3-3.6,2.4-8.1-0.3-9.6c-1.4-0.8-25.1-12.2-26.3-12.7
			c-2.4-1.1-5.1-2.3-6.4,0.2c-0.2,0.4-0.4,1.2-0.9,3.7c-0.7,3.1-1.7,7.7-3.2,12.8c-0.7,2.4,3.5,4.1,8.3,6.1c1.1,0.4,2.1,0.8,3,1.2
			c0.9,2.5,1.7,5,2.3,7.2c-0.7-0.3-1.5-0.7-2.3-1c-9.8-4.2-12.1-5.1-13.1-4.6c-0.3,0.1-0.5,0.4-0.6,0.7c-1.6,5.6-2.3,9.1-2.5,10.7
			c-0.1,0.4-0.1,0.6-0.2,0.8c-0.2,0.8-0.4,1.7-0.7,2.6c-0.9,3.3-1.3,4.8-0.5,5.6c0.2,0.2,0.3,0.3,3.7,2c0.9,0.5,1.8,0.9,2.4,1.2
			c1.5,2.4,3,4.7,3.8,6c-0.1,0.4-0.3,0.8-0.4,1.2C10.5,62.9,3,59.2,2,58.1z M26.5,52.5c2.4-4.7,8.3-8.3,16.9-10.4
			c-8.2,14.2-24.3,53.7-22.1,82.4c2.3,29.6,13.2,47.3,35.3,57.1c8.5,3.8,24.7,6.8,41.9,10c25.3,4.8,54,10.1,65,19.2
			c1.2,1,2.5,2,3.9,3.1c18.1,14.4,43,34,43,135.2h1c0-101.7-25.1-121.5-43.3-136c-1.3-1-2.6-2.1-3.8-3.1
			c-11.2-9.2-40.1-14.6-65.5-19.4c-17.1-3.2-33.2-6.2-41.6-10c-21.8-9.7-32.5-27-34.7-56.2C20.1,95.3,36.8,55,44.8,41.8
			c0.7-0.1,1.3-0.3,2-0.4c-0.3,0.4-0.5,0.9-0.8,1.4l0.9,0.5c0.4-0.8,0.8-1.5,1.2-2.1c2.2-0.4,4.6-0.7,7-0.8
			c1-0.1,103.2-7.3,180.8-6.5v0c70,1,163.9,5.2,180.8,6.5c3.9,0.3,7.5,0.8,10.7,1.5c16.6,20.3,22.9,70.1,22.6,87
			c-0.3,17.6-4.5,42.4-36.3,54.5c-14.2,5.4-25.1,6.8-36.6,8.3c-15.1,2-30.6,4-55.7,14.7c-43.8,18.6-51.5,51.6-57.1,75.6l-0.4,1.7
			c-2.4,10.3-2.9,34.4-3.4,59.8l-0.1,4.6c-0.8,0-1.5,0-2.3,0.1l0.1-3l-1,0l-0.1,3c-7.3,0.1-15.8,0.1-23.1,0.1
			c-3.8,0-7.9,0.2-11.8,0.5c-2.7,0.2-5.3,0.3-7.8,0.4c0-1.3,0-2.5,0-3.8l-1,0c0,1.3,0,2.5,0,3.8c-5.7,0.1-10.8-0.1-14.4-1.7
			c1.6-91.7-19.1-110.4-48.5-126.8c-9.3-5.2-25.8-8.2-43.3-11.4c-19.1-3.5-40.7-7.5-56.5-14.9c-34.2-16-40.5-51.8-41.6-66.5
			C7.2,104.9,20.5,64.6,26.5,52.5z M276.5,322.2c1.6,3.3,2.7,7.9,3,12.5c0.4,7-1.5,10-3.5,11.4C275.9,337.5,276.1,329.5,276.5,322.2
			z M274.8,348.9c4.9-1.8,7.1-6.5,6.7-14.3c-0.3-4.9-1.7-11.9-4.8-16c0.6-10.2,1.5-19.2,2.7-27.2c0.4,0,0.7,0.1,1.1,0.1
			c0.9,0.1,1.8,0.2,2.7,0.3c11.3,1.1,23,2.1,23.6,19.6c0.5,13.2-0.4,56.6-1.1,88.2c-0.3,15.5-0.6,27.7-0.6,32c0,16.4-7.8,24-24.5,24
			h-4.3c0-0.6,0-1.2,0-1.8c0.9,0,1.7-0.1,2.5-0.2l-0.1-1c-0.8,0.1-1.6,0.1-2.4,0.2c0-3.6,0-7.3,0-11.1c0-3.9,0-7.9,0-12
			c3.6-3.6,5.6-9.6,5.3-16.2c-0.3-8.6-1.7-13.3-8.1-15.3c-5.5-1.7-34.6-1.1-62.4-0.4c-2.8,0.1-5.1,0.1-6.5,0.2
			c-5.2,0.1-10.9,0.8-11.4,7c0,0.6-0.2,1.4-0.3,2.3c-0.7,4.7-1.9,12.4,3.3,18.3c0.1,9.3,0.4,19.8,0.6,29.9h-3.1
			c-16.7,0-24.5-7.6-24.5-24c0-4.3-0.3-16.5-0.6-32c-0.7-31.6-1.6-75-1.1-88.2c0.7-18.6,13.4-19.3,25.8-19.8
			c0.1,0.7,0.2,1.4,0.3,2.1c-0.6,0.1-1.3,0.1-2,0.1l-0.5,0l0.1,1l0.5,0c0.7,0,1.4-0.1,2-0.1c1,7.3,1.6,15.2,2,24
			c-3.2,3.2-8.5,17.5-2.8,26.5c3.1,5,9.9,6.1,18.1,6.1c3.6,0,7.4-0.2,11.4-0.5c3.9-0.2,7.9-0.5,11.7-0.5
			C254.8,350.3,271.1,350.2,274.8,348.9z M435.1,189.6l0.2,2.8l1-0.1l-0.2-3.5c0.8-0.6,1.5-1.2,2.3-1.8c0.9,14.1,5.4,89.6,6,111.8
			c0.1,4.6,0.7,11.4,1.3,20c2.8,35.4,8,101.4-9,132.4c-20,36.5-45.5,46.3-88.6,52.4c-15,2.1-39.7,3.5-73.5,4.1
			c0.2-0.7,0.3-1.4,0.5-2l2.6,0l0-1l-2.3,0c0.7-3.7,1-7.5,1-11.2c0-5.4,0-19-0.1-35.9h4.2c17.8,0,26.5-8.5,26.5-26
			c0-4.3,0.3-16.5,0.6-32c0.7-31.7,1.6-75,1.1-88.3c-0.7-19.2-13.9-20.4-25.5-21.5c-0.9-0.1-1.8-0.2-2.7-0.3c-0.3,0-0.6-0.1-1-0.1
			c6.8-42.1,22.4-54.5,43.2-66.1c8.8-4.9,25.1-7.9,42.4-11.1c19.3-3.5,41.1-7.6,57.3-15.1C427.2,195,431.4,192.4,435.1,189.6z
			 M276.1,401.8c2.3,1.9,3.2,5.3,3.4,11.8c0.2,5.1-1,9.7-3.4,13C276.1,418.4,276.1,410,276.1,401.8z M260.3,412.5
			c0,4.6-0.1,7.9,0,9.3c0.7,11,1,69.2-2,79.7c-3.4,11.9-11.4,19.1-21.5,19.1c-9.6,0-17.1-8.3-22.4-24.6c-3.2-10-3.9-30.7-3.2-96.1
			c0.5,0,1.1,0,1.6,0l0,3.4l1,0l0-3.5c12.4-0.3,32.9-0.9,46.4-0.6C260.4,404.2,260.4,408.8,260.3,412.5z M200.9,505.8
			c0.1,0.7,0.3,1.4,0.5,2c-19.6-0.2-39.3-0.7-56.9-1.2c-60.5-2-87.2-21.6-108.6-50.4c-22.6-30.5-10.7-118.1-9.3-128
			c3-21,8.4-122.9,9.2-139.2c0.6,0.5,1.2,0.9,1.8,1.3l-0.1,2.5l1,0.1l0.1-1.9c3.2,2.3,6.8,4.3,10.6,6.1c16.2,7.6,38,11.6,57.3,15.1
			c17.2,3.2,33.5,6.2,42.4,11.1c13.4,7.4,26.1,15.6,34.7,33.6c4.2,8.7,7.2,19.5,9.3,32.6c-12,0.5-26.7,1.4-27.5,21.7
			c-0.5,13.3,0.4,56.6,1.1,88.3c0.3,15.5,0.6,27.7,0.6,32c0,17.5,8.7,26,26.5,26h3.2c0.5,15.9,1.2,30.5,2.2,37.5
			c0.5,3.3,1,6.6,1.7,9.8l-1.8,0l0,1L200.9,505.8z M195.9,402.8c0,4.8,0.1,11.5,0.2,19.3c-2.7-4.9-1.8-10.7-1.2-14.4
			c0.1-1,0.3-1.8,0.3-2.5C195.3,404.3,195.5,403.5,195.9,402.8z M194.5,344c-4.4-6.9-1.3-17.7,1.2-22.2c0.3,7.4,0.3,15.4,0.2,23.9
			C195.4,345.2,194.9,344.7,194.5,344z M203.1,519.6c-38.3-0.1-85.9-0.2-120.7-13c-48.1-17.6-70.3-64-70.9-102.3
			c-0.7-39.7,4.7-114.7,8.6-169.5c1.7-23.9,3.2-44.8,3.8-57.7c3.1,3.9,6.8,7.7,11,11.1c-0.7,13.9-6.2,118.5-9.3,139.8
			c-1.4,9.9-13.4,98,9.4,128.8c21.6,29.1,48.4,48.8,109.4,50.8c17.7,0.6,37.4,1,57.1,1.2c1,3.8,2.2,7.4,3.8,10.7L203.1,519.6z
			 M236.9,534.3c-26.9,0-31.8-18.8-34.8-39.7c-2.3-16.3-3-75.7-3.1-93.9c1.4-0.4,3.3-0.6,5.7-0.7c1.3,0,3.3-0.1,5.8-0.2
			c-0.8,65.5-0.1,86.3,3.2,96.4c5.4,16.8,13.3,25.3,23.3,25.3c10.6,0,19-7.4,22.4-19.8c3-10.8,2.7-68.6,2-80c-0.1-1.4-0.1-4.7,0-9.2
			c0-3.7,0.1-8.3,0-13.3c5.6,0.1,9.8,0.4,11.5,0.9c0.1,0,0.1,0.1,0.2,0.1c0,13.7,0.1,28.1,0.1,41.4c0.1,24,0.2,44.7,0.2,51.8
			C273.4,503.1,270.7,534.3,236.9,534.3z M451.3,234.8c3.9,54.8,9.3,129.9,8.6,169.5c-0.6,38.2-22.8,84.7-70.9,102.3
			c-34.8,12.7-78.5,12.9-117,13l-2.1,0c1.9-3.3,3.4-7,4.4-10.8c33.9-0.6,58.8-2,73.9-4.1c35.8-5.1,67.3-12.6,89.4-52.9
			c17.1-31.3,11.9-97.4,9.1-132.9c-0.7-8.6-1.2-15.4-1.3-20c-0.6-22.6-5.3-100.7-6-112.6c3.1-2.7,5.8-5.6,8.2-8.6
			C448.2,190.5,449.7,211.2,451.3,234.8z M462.9,128c-1.1,14.7-7.4,50.5-41.6,66.5c-15.8,7.4-37.5,11.4-56.5,14.9
			c-17.5,3.2-34,6.3-43.3,11.4c-29.2,16.3-48.4,33.9-48.5,126.5c-2.2,0.4-6.4,0.6-11.5,0.8l0.1-4.5c0.5-25.4,1-49.4,3.4-59.6
			l0.4-1.7c5.5-23.8,13.1-56.5,56.5-74.9c25-10.6,40.5-12.6,55.5-14.6c11.6-1.5,22.6-2.9,36.8-8.4c32.4-12.4,36.7-37.6,37-55.5
			c0.3-16.7-5.8-65.5-22-86.6c8.3,2.1,14,5.7,16.3,10.3C451.4,64.6,464.7,104.9,462.9,128z M469.8,58.1c-1,1.2-8.5,4.8-15.8,8
			c-0.1-0.4-0.3-0.9-0.4-1.3c0.8-1.3,2.3-3.6,3.8-5.9c0.6-0.3,1.5-0.8,2.4-1.2c3.4-1.7,3.5-1.8,3.7-2c0.8-0.8,0.4-2.3-0.5-5.6
			c-0.3-0.9-0.5-1.8-0.7-2.6c0-0.2-0.1-0.5-0.2-0.8c-0.3-1.7-0.9-5.1-2.5-10.7c-0.1-0.3-0.3-0.6-0.6-0.7c-1-0.5-3.4,0.3-13.1,4.6
			c-0.8,0.4-1.6,0.7-2.3,1c0.6-2.1,1.4-4.7,2.3-7.2c0.9-0.4,1.9-0.8,3-1.2c4.8-2,9-3.6,8.3-6.1c-1.4-5.1-2.5-9.8-3.2-12.9
			c-0.6-2.5-0.8-3.3-0.9-3.7c-1.3-2.5-4-1.3-6.4-0.2c-1.2,0.5-24.9,12-26.3,12.7c-2.6,1.4-1.5,6-0.3,9.6c-1.2,0.9-2.3,1.7-3.2,2.5
			c-0.5-1.5-1.1-3.4-1.9-5.8c-0.8-2.4-1-4.2-1-5.4c0-0.8,0.2-1.5,0.4-2c0,0,0,0,0,0c0.2-0.5,0.5-0.9,0.8-1.1c0,0,0,0,0,0
			c0.1-0.1,0.1-0.1,0.2-0.2c0,0,0.1-0.1,0.1-0.1c0,0,0.1-0.1,0.1-0.1c0,0,0.1-0.1,0.1-0.1c1.5-1,31.5-15.4,36.1-17.1
			c0.2-0.1,0.3-0.1,0.5-0.1c0.3-0.1,0.5-0.1,0.7-0.2c0,0,0.1,0,0.1,0c0.2,0,0.4,0,0.6,0c0.1,0,0.2,0,0.3,0c0.1,0,0.2,0,0.4,0.1
			c0.2,0.1,0.4,0.1,0.6,0.2c0,0,0,0,0,0c0.2,0.1,0.4,0.3,0.6,0.5c0,0,0,0,0.1,0.1c0.2,0.2,0.3,0.4,0.4,0.6c0,0,0.1,0.1,0.1,0.1
			c0.1,0.2,0.2,0.4,0.3,0.6c0,0,0,0.1,0.1,0.1c0.1,0.2,0.1,0.4,0.2,0.6c0,0.2,0.1,0.7,2.8,11l0.2,0.6l0,0c1,4,2.3,8.8,3.7,14
			c0.7,2.7,1.4,5.3,2,7.5l0,0l0.1,0.5c0.9,3.5,1.6,6,1.7,6.7c0.3,1.2,0.6,2.3,0.8,3.4c0.1,0.4,0.2,0.8,0.3,1.2
			c0,0.2,0.1,0.3,0.1,0.5c0.1,0.3,0.1,0.5,0.2,0.8c0.1,0.4,0.2,0.8,0.2,1.1c0,0.1,0,0.1,0,0.2c0.4,1.9,0.6,3.4,0.7,4.4
			c-0.1-1-0.3-2.4-0.7-4.2C469.5,55.2,469.8,57.3,469.8,58.1z M468,48c0,0.1,0.1,0.3,0.1,0.4C468.1,48.3,468,48.1,468,48z"/>
	</g>
</g>
</svg>
