<?xml version="1.0" encoding="utf-8"?>
<!-- Generator: Adobe Illustrator 20.1.0, SVG Export Plug-In . SVG Version: 6.00 Build 0)  -->
<svg version="1.1" xmlns="http://www.w3.org/2000/svg" xmlns:xlink="http://www.w3.org/1999/xlink" x="0px" y="0px"
	 viewBox="0 0 528.9 558.7" style="enable-background:new 0 0 528.9 558.7;" xml:space="preserve">
<style type="text/css">
	.st0{fill:#FFFFFF;}
	.st1{fill:#1A1A1A;}
</style>
<g id="back">
	<path class="st0" d="M527.3,527.7c-0.9-16.3-3.3-28.1-5.9-40.6c-3.4-16.2-7.2-34.5-8.7-66.7c-2.8-58.4-18.3-191-19.6-200.3
		l-0.1-0.5l0.5,0c1.5-0.1,2.1-0.2,2.3-0.3c2.4-0.8,3.5-1.4,3.5-6.3c0-1.2,0-3.5,0.1-6.3l0-0.2c0.1-8.7,0.3-21.7-0.1-24.7
		c-0.3-2.7-1.8-11.7-7.6-14.2c-1.6-0.7-11.5-1.2-29.3-1.4l-0.1,0l-0.1-0.1c-3-1.5-15.1-4.1-56.4-8l-2.4,2.4l-0.2-0.9
		c-0.9-4.1-3.4-6.3-7.5-6.5l-0.4,0l-0.8-3.8l0.2-0.2c4.3-3.9,3.8-13.7,3.6-19.6c0-0.7-0.1-1.3-0.1-1.9c-0.2-6.2-6.2-26.7-17.2-48.8
		C377.2,70.9,340.7,1,267.8,1c-27.3,0-52,9.9-73.4,29.5c-17.3,15.8-27.7,33.6-32.7,42.1l-0.1,0.2c-9.7,16.6-26.8,56-26.8,63.5
		c0,4.3,1.1,7.3,3.3,9.1l0-0.1l0.8,0.5l-2.6,4.8l-0.4-0.1c-0.9-0.2-1.8-0.2-2.7-0.2c-2.9,0.1-6.6,1.3-7.7,6.8l-0.2,0.9l-2.5-2.3
		c-43,5.2-54.5,8.2-56.6,9.7l-0.1,0.1l-0.2,0c-18.2,0.1-27.8,0.4-29.1,0.9c-3.5,1.3-5.8,7.5-5.8,15.5c0,2,0,5.7-0.1,9.9
		c-0.1,11.2-0.2,26.5,0,27.7c0.3,1.5,0.5,2.8,3.5,2.8c0.3,0,0.7,0,1.3-0.1l0.6,0l-0.1,0.6c-1.6,15.6-6.2,65.5-7.8,86.4
		c-0.8,9.7-2.5,24-4.1,37.8c-2.1,17.2-4,33.3-4.2,40.8c-0.3,14.2-3.3,45.2-4.9,56.5c-0.5,3.4-2,10.2-3.8,18.8
		C7.1,483.6,0.5,514.4,1.6,526c1.6,15.9,3.4,25.6,14,27c3.5,0.5,8.3,0.7,14.7,0.7c1.6,0,3.3,0,5,0l0.5,0l0,0.5
		c0.2,1.6,0.5,2.7,0.9,3c0.2,0.2,1.9,0.6,6.4,0.6c4.1,0,8.1-0.3,9.1-0.8c0.7-0.3,1.2-1.5,1.6-3.5l0.1-0.4l0.4,0
		c4.1-0.2,8.2-0.4,12.3-0.6c18.6-0.9,37.8-1.8,49.2-0.8c19.2,1.6,71.7-0.5,103.1-1.7l0.2,0c6.9-0.3,12.6-0.5,16.4-0.6
		c22.7-0.7,170.5-3.6,199,0c17.6,2.2,30.4,2.3,38.6,2.1l0.5,0l0,0.5c0.1,1.7,0.3,2.8,0.7,3.1c0.5,0.5,4.5,0.9,9.6,0.9
		c2.9,0,5.2-0.2,5.8-0.4c0.6-0.2,1.3-1.1,1.8-4.1l0.1-0.5l0.5,0c0.7,0,1.5,0.1,2.3,0.2c7.7,0.6,20.5,1.7,27.7-5.3
		C525.9,541.9,527.7,535.8,527.3,527.7z M390.2,154c-1.3,0.9-2.9,2.9-2.9,7.3c0,1.5,0.3,2.9,0.9,4.1l0.3,0.7l-0.8,0
		c-29.1,0.2-58.1,0.5-79.3,0.8l-0.8,0c-11.8,0.1-21.1,0.2-25.8,0.3c-0.7,0-1.4,0-2.2,0c-9.8,0-32.3-0.3-60.1-0.6
		c-24.6-0.3-52.6-0.6-79.6-0.8l-1.4,0l1.1-0.9c0.2-0.2,0.4-0.3,0.6-0.5c1.4-1.4,2-3.5,1.9-6.4c0-1.8-0.5-3.4-1.3-4.6l-0.2-0.3
		l3.2-5.9l0.3,0c2-0.2,5.7-1.3,7.3-6.4c2.8-9,17.4-39.4,29.2-62.7c13.7-27.3,51.1-56.7,87.7-56.7c34.9,0,71,22.8,92,58.2
		c14.8,24.8,19.7,46.8,22,57.3c0.7,3,1.2,5.2,1.6,6.4c1.5,3.9,3.5,6.4,5.8,7.1l0.3,0.1l0.7,3.3L390.2,154z"/>
</g>
<g id="lines">
	<g>
		<path class="st1" d="M528.8,527.6c-0.9-16.4-3.4-28.3-6-40.8c-3.3-16.1-7.1-34.3-8.7-66.5c-2.7-56.5-17.4-183.6-19.5-199.3
			c0.9-0.1,1.3-0.2,1.6-0.3c3.3-1.2,4.5-2.5,4.5-7.7c0-1.2,0-3.6,0.1-6.5c0.1-8.7,0.3-21.8-0.1-24.9c-0.3-2.9-2-12.6-8.5-15.4
			c-0.8-0.3-2.8-1.2-30.6-1.5c-0.1,0-0.2,0-0.4,0c-4.7-1.6-17.9-4-55.4-7.5c-0.3,0-0.6,0.1-0.8,0.3l-1.1,1.1c-1.2-3.9-3.8-6-7.8-6.4
			l-0.5-2.5c4.4-4.3,4-14.2,3.7-20.2c0-0.7-0.1-1.3-0.1-1.9c-0.2-6.3-6.3-26.9-17.3-49.2c-4-8-40.8-78.4-114.2-78.4
			c-27.5,0-52.5,10-74.1,29.8c-17.4,15.9-27.8,33.8-32.9,42.3l-0.1,0.2c-9.8,16.7-27,56.4-27,64c0,4.7,1.2,8,3.8,10l-1.8,3.2
			c-0.8-0.1-1.7-0.2-2.6-0.2c-4.3,0.1-7.3,2.5-8.4,6.7l-1.2-1.1c-0.2-0.2-0.5-0.3-0.8-0.3c-40.3,4.9-52.4,7.7-56.1,9.4
			c-0.1,0-0.3-0.1-0.4-0.1c0,0,0,0,0,0c-27.6,0.1-29.1,0.7-29.8,1c-4.1,1.5-6.8,8.2-6.8,16.9c0,2,0,5.6-0.1,9.9
			c-0.1,17.7-0.1,26.8,0.1,28c0.3,1.5,0.7,4.1,5,4.1c0,0,0.1,0,0.2,0c-1.7,16.9-6.1,64.7-7.7,85.3c-0.8,9.6-2.5,24-4.1,37.8
			c-2.1,17.2-4,33.4-4.2,40.9c-0.3,13.7-3.3,45.1-4.9,56.3c-0.5,3.3-1.9,10.1-3.8,18.7c-4.7,21.7-11.2,51.4-10,63.2
			c1.6,16.1,3.6,26.8,15.3,28.3c3.9,0.5,8.9,0.7,14.9,0.7c1.5,0,3,0,4.6,0c0.3,1.8,0.7,2.4,1.1,2.7c0.7,0.6,3.6,0.8,6.8,0.8
			c4.1,0,8.7-0.4,9.7-0.8c0.9-0.4,1.6-1.5,2-3.3c3.9-0.2,8-0.4,12.1-0.6c18.5-0.9,37.7-1.8,49-0.8c19.3,1.6,71.9-0.5,103.3-1.7
			c7-0.3,12.7-0.5,16.6-0.6c22.6-0.7,170.3-3.7,198.8,0c16.2,2.1,28.8,2.3,38.4,2.1c0.2,1.8,0.6,2.5,1,2.8c0.9,0.8,5.8,1.2,10,1.2
			c3,0,5.7-0.2,6.5-0.5c1.1-0.4,1.8-1.7,2.3-3.9c0.6,0,1.2,0.1,1.9,0.1c7.9,0.6,21.1,1.7,28.8-5.7
			C527.3,542.6,529.3,536.1,528.8,527.6z M406.2,159.2c37.4,3.5,49.8,5.9,53.9,7.2c-0.6,0-1.2,0-1.7,0l0,1c-9.3,2.4-15.9,2.3-24,2.2
			c-1.8,0-3.7-0.1-5.7-0.1c-10.3,0-25.3,0.1-29.3,0.1v-3.4c0.7,0,1.7,0.1,3,0.1l0-1c-0.9,0-1.6-0.1-2.2-0.1L406.2,159.2z
			 M402.3,160.3l-4.7,4.7c-0.2,0.2-0.3,0.4-0.3,0.7v3.9c-2.8-0.2-9-1.4-9-8.2c0-2.9,0.7-4.6,1.6-5.6l0.4,1.8
			c0.2,0.9,0.7,1.7,1.5,2.2c0.6,0.4,1.2,0.6,1.9,0.6c0.2,0,0.5,0,0.7-0.1c0.9-0.2,1.7-0.7,2.2-1.5c0.5-0.8,0.7-1.7,0.5-2.6l-0.4-1.8
			C399.8,154.8,401.6,156.7,402.3,160.3z M143,158c-0.1-1.9-0.5-3.5-1.3-4.8l2.7-4.9c2.3-0.3,6.2-1.6,7.9-7.1
			c2.8-8.9,17.4-39.3,29.1-62.5c13.6-27,50.6-56.1,86.8-56.1c34.5,0,70.3,22.6,91.1,57.7c14.7,24.7,19.6,46.5,21.9,57
			c0.7,3,1.2,5.3,1.7,6.5c1.6,4.1,3.7,6.7,6.1,7.6l0.4,2.1c-1.5,1.1-3.1,3.4-3.1,7.9c0,1.2,0.2,2.3,0.5,3.3
			c-28.6,0.2-57.3,0.5-78.4,0.8c-12.2,0.1-21.8,0.3-26.6,0.3c-8.1,0-32.1-0.2-62.4-0.6c-24.2-0.3-51.4-0.6-78-0.8
			C143,162.3,143.1,159.8,143,158z M136.2,153l5.2-9.5c0.2-0.3,0.5-0.6,0.9-0.7c0.4-0.1,0.8-0.1,1.1,0.1c0.3,0.2,0.6,0.5,0.7,0.9
			c0.1,0.4,0.1,0.8-0.1,1.1l-5.2,9.5c-0.4,0.7-1.3,1-2,0.6c-0.3-0.2-0.6-0.5-0.7-0.9C136,153.7,136,153.3,136.2,153z M395,156.5
			c0.1,0.4,0,0.8-0.2,1.1c-0.2,0.3-0.5,0.5-0.9,0.6c-0.4,0.1-0.8,0-1.1-0.2c-0.3-0.2-0.5-0.5-0.6-0.9l-2.2-10.6
			c-0.1-0.4,0-0.8,0.2-1.1c0.2-0.3,0.5-0.6,0.9-0.6c0.1,0,0.2,0,0.3,0c0.3,0,0.6,0.1,0.8,0.2c0.3,0.2,0.5,0.5,0.6,0.9L395,156.5z
			 M136.6,141.6c0.4-0.7,0.9-1.6,1.6-2.8l-0.9-0.5c-0.4,0.8-0.8,1.4-1.1,1.9c-0.3-1.1-0.4-2.4-0.4-3.9c0-7.2,17.3-46.9,26.7-63
			l0.1-0.2C172.9,55.5,204.3,2,267.8,2c72.3,0,108.5,69.4,112.4,77.3c11.8,23.9,16.9,43.3,17.1,48.4c0,0.6,0,1.2,0.1,1.9
			c0.1,3,0.3,7.5-0.2,11.5c-0.2-0.7-0.5-1.3-0.7-2l-0.9,0.3c0.4,1.3,0.9,2.5,1.3,3.7c-0.4,1.6-0.9,3-1.6,4.1l-0.4-1.7
			c-0.4-1.9-2.2-3.1-4.1-2.7c-0.9,0.2-1.7,0.7-2.2,1.5c-0.5,0.8-0.7,1.7-0.5,2.6l0.4,1.9c-1.4-1.1-2.7-3-3.7-5.8
			c-0.4-1.1-0.9-3.3-1.6-6.2c-1.7-7.4-4.6-20.4-11.2-36.1l0.1,0c-0.2-1.1-0.5-2.4-0.8-3.9l-0.9,0.2c-2.6-5.7-5.6-11.6-9.3-17.8
			c-21.2-35.6-57.6-58.7-92.9-58.7c-22.4,0-41.6,10.2-53.7,18.7c-15.2,10.7-27.9,24.7-34.8,38.5c-1.7,3.3-3.4,6.7-5.1,10.1
			c0.1-0.4,0.3-0.8,0.4-1.2l-0.9-0.4c-0.5,1.3-0.9,2.6-1.3,3.8l0.6,0.2c-0.3,0.6-0.6,1.2-0.9,1.8l-0.3-0.1c-0.2,0.6-0.3,1.2-0.5,1.8
			c-9.8,20-19,39.6-21.2,46.7c-1,3.3-2.9,4.7-4.7,5.3l0-0.1c0.4-0.8,0.5-1.7,0.3-2.6s-0.9-1.6-1.7-2.1c-0.8-0.4-1.7-0.5-2.6-0.3
			c-0.9,0.3-1.6,0.9-2.1,1.7l-1.1,2C137.7,143.7,137,142.8,136.6,141.6z M133.3,151.4c0.5,0,1,0,1.5,0l-0.3,0.6
			c-0.4,0.8-0.5,1.7-0.3,2.6c0.3,0.9,0.9,1.6,1.7,2.1c0,0,0,0,0,0c0.5,0.3,1.1,0.4,1.6,0.4c1.2,0,2.4-0.7,3-1.8l0,0
			c0.3,0.8,0.5,1.7,0.5,2.7c0.1,2.7-0.4,4.5-1.6,5.7c-1.4,1.4-3.9,2.2-7.7,2.4l-0.1-3.2c0-0.3-0.1-0.5-0.3-0.7l-4.8-4.6
			C127.2,153.6,129.5,151.5,133.3,151.4z M128.8,162.6c-0.6,0-1.3,0.1-2.2,0.1l0.1,1c1.3-0.1,2.3-0.1,3-0.2l0.1,3.4
			c-4,0.1-19.1,0.4-29.3,0.7c-2,0.1-3.9,0.1-5.7,0.2c-8.1,0.3-14.7,0.6-24.1-1.6l0-1c-0.6,0-1.2,0-1.7,0c4.1-1.4,16.4-4.1,53.7-8.6
			L128.8,162.6z M32.6,219.3c-0.2-1.4-0.1-17.7,0-27.5c0-4.3,0.1-8,0.1-10c0-8,2.5-13.2,4.8-14.1c0,0,0.1,0,0.1,0
			c-0.2,0.5-0.4,1.1-0.5,1.8l1,0.2c0.2-1,0.5-1.7,0.7-2.2c2.5-0.2,9.3-0.5,27.1-0.6c0.2,0.1,0.3,0.2,0.5,0.2
			c8.1,2.3,14.3,2.8,20.3,2.8c2.7,0,5.4-0.1,8.2-0.2c1.8-0.1,3.7-0.2,5.7-0.2c11.9-0.3,30.1-0.7,30.3-0.7c0.3,0,0.5-0.1,0.7-0.3
			c0.1-0.1,0.2-0.3,0.2-0.5c2.6-0.1,4.7-0.5,6.4-1.2c0.3,0.3,0.6,0.4,1,0.4c27.2,0.2,55.4,0.6,80.2,0.8c27.9,0.3,50.5,0.6,60.2,0.6
			c0.8,0,1.6,0,2.2,0c4.8,0,14.4-0.1,26.6-0.3c21.3-0.3,50.5-0.6,79.5-0.8c0.2,0,0.3,0,0.4-0.1c2.4,2.9,6.3,4,9.9,4c0,0,0,0,0,0
			c0.2,0,18.5-0.1,30.3-0.1c2,0,3.9,0,5.7,0.1c9,0.1,16.8,0.2,28.4-3.3c0.4-0.1,0.6-0.3,0.8-0.5c18.1,0.3,24.4,0.7,26.6,1.1
			c0.7,0.8,1.3,1.7,1.8,2.6l0.9-0.5c-0.3-0.5-0.6-1.1-1-1.6c3.6,2.1,5.5,7.8,6,12.6c0.3,2.9,0.2,16.4,0.1,24.5
			c0,2.9-0.1,5.3-0.1,6.5c0,4-0.5,4.1-2.5,4.8c-0.6,0.2-4.2,0.6-23.8-0.2l-0.8,0c-3.5-0.1-5.3,1.8-5.8,3.7c-0.1,0.2-0.1,0.5-0.1,0.8
			c0,0,0,0,0,0c-0.8,0.1-1.7,0.3-2.7,0.4c0,0,0,0,0,0c0-0.4,0-0.7,0-1c0-0.1,0-0.2,0-0.3c0-0.4,0.1-0.9,0.1-1.4l-1,0
			c0,0.4,0,0.9,0,1.3c0,0.1,0,0.2,0,0.4c0,0.3,0,0.6,0,1c0,0,0,0.1,0,0.1c-7.4,0.9-19.9,1.4-41.1,0.5c-16.7-0.7-29.5-1.4-40.8-2
			c-23.8-1.3-38.2-2.1-58.9-1l-70-2.5c-0.3,0-0.5,0.1-0.7,0.3l-1.5,1.3l-27.7,1c-21,0.1-48.1,1.1-71.9,2c-16.7,0.6-32.4,1.2-43,1.4
			c-13.9,0.2-24.6-0.1-33.1-0.8c-0.1-0.9-0.2-1.8-0.3-2.5l-1,0.2c0.1,0.7,0.2,1.5,0.3,2.3c-1.3-0.1-2.4-0.2-3.6-0.4
			c0-0.1,0-0.2,0-0.2c0-0.1,0-0.2-0.1-0.3c-0.2-1.1-0.7-3.3-2.6-3.6c-1.1-0.2-6.5,0.3-17.7,1.5c-5.6,0.6-11.4,1.2-12.6,1.2
			C32.9,220.9,32.9,220.7,32.6,219.3z M468.1,279.1c0.3,1.5,0.1,2.7-0.8,3.7c-1.5,1.9-4.6,2.7-6.8,2.7c-0.4,0-1.3,0-2.6,0
			c-54-0.2-95.2,0.2-116,1.3c-34.9,1.7-111.2,0.7-128.6-0.3c-10.6-0.6-37,0.6-60.3,1.7c-15,0.7-29.2,1.3-36,1.3
			c-16.8,0-45.9-1.5-49.5-2c-3.1-0.4-3.4-0.7-4.3-3.1c-0.6-1.6,0.4-12.6,3.5-30.6c0.7,0.1,1.5,0.2,2.2,0.3c-0.1,1-0.2,2-0.3,3l1,0.1
			c0.1-1,0.2-2,0.3-3c3.8,0.3,8.3,0.5,13.4,0.5c13.4,0,30.6-1,48.7-2.3c9-0.6,16.8-1.1,21.6-1.2c22.6-0.5,53.6-1.6,66.9-3l72.1-1.9
			c0,0,0,0,0.1,0l25.6,0.9c4.4,0.8,13.6,1,23.4,1.3c8.8,0.2,17.8,0.5,24.4,1.1c13.1,1.2,55.1,3.7,85.4,3.8c0.2,0,0.4,0,0.6,0
			c6.3,0,10.8-0.4,14-1C466.4,259.6,467.3,275.7,468.1,279.1z M58.4,246.7l-0.4,0.4c-0.9-4.9-1-15.8-0.1-21.8
			c1.1,0.3,2.4,0.5,3.6,0.8l0.2-1c-1.3-0.2-2.5-0.5-3.6-0.8c0.1-0.5,0.2-1,0.3-1.4c9.7,2.2,23.9,3,47,2.7
			c10.6-0.1,26.4-0.7,43.1-1.4c23.5-0.9,50.1-1.9,70.9-2v21.6c-0.9,0.1-1.9,0.2-3,0.3l0.1,1c1.1-0.1,2-0.2,2.9-0.3v1.5
			c-13.7,1.4-43.8,2.4-65.9,2.9c-4.8,0.1-12.6,0.6-21.7,1.3c-25.3,1.7-67.7,4.6-72.9-1.1c-0.2-0.3-0.4-0.8-0.6-1.5
			c0.1,0.1,0.2,0.2,0.3,0.2l0.6-0.8C58.8,247.1,58.6,246.9,58.4,246.7z M60.9,221.4c1.5-0.1,2.7-0.2,3.3-0.2c0,0,0,0,0.1,0
			c0.1,0.2,0.2,0.5,0.3,0.8C63.2,221.8,62,221.6,60.9,221.4z M317.2,245.2l-66.7-2.5l-6.8-6.7v-10.4l6.7-6l68.6,2.4L317.2,245.2z
			 M242.1,224.5c-0.2,0.2-0.3,0.5-0.3,0.7v11.3c0,0.3,0.1,0.5,0.3,0.7l7.3,7.3c0.2,0.2,0.4,0.3,0.7,0.3l11.1,0.4l-39.9,1.1v-24
			l24.4-0.9L242.1,224.5z M451.3,251.5c-30.3-0.1-72.2-2.6-85.2-3.8c-6.7-0.6-15.8-0.9-24.6-1.1c-9.1-0.3-17.7-0.5-22.3-1.1l0.1-1.5
			c0.8,0.1,1.7,0.2,2.7,0.3l0.1-1c-1.1-0.1-2-0.2-2.8-0.3l1.5-18.3c1,0,1.9-0.1,2.8-0.1l0-1c-0.9,0-1.8,0.1-2.7,0.1l0.1-1.5
			c20.2-1,34.5-0.2,57.9,1.1c11.3,0.6,24.1,1.3,40.9,2c36.5,1.5,48.3-1,51.9-3.2c0,0.3,0.1,0.6,0.1,1c-0.2,0.3-0.7,0.9-2.8,1.6
			l0.3,0.9c1.3-0.4,2.1-0.9,2.6-1.3c1.5,12.3,0.3,22.2,0.1,23.6C471.8,248.3,468.8,251.6,451.3,251.5z M468.1,221.4
			c0.3-0.5,1-0.8,2.2-0.8C469.9,220.8,469.1,221.1,468.1,221.4z M51.6,556c-1.6,0.7-12.7,0.9-14.4,0.3c-0.1-0.1-0.2-0.4-0.3-1.2
			c4.8-0.1,10-0.3,15.4-0.5C52,555.8,51.6,556,51.6,556z M489.2,554.6c-1.6,0.6-12.7,0.4-14.4-0.3c-0.1-0.1-0.2-0.5-0.3-1.4
			c2.9-0.1,5.5-0.2,7.9-0.3c2.8-0.1,5.2-0.2,7.1-0.2c0.2,0,0.4,0,0.7,0C489.7,554.3,489.2,554.6,489.2,554.6z M520.8,544.8
			c-6.7,6.5-18.6,5.5-26.5,4.9c-1.9-0.2-3.5-0.3-4.8-0.3c-2,0-4.4,0.1-7.2,0.2c-10.2,0.4-25.5,1.1-47.8-1.8
			c-28.6-3.7-176.6-0.7-199.2,0c-3.9,0.1-9.6,0.4-16.6,0.6c-29.3,1.2-83.7,3.3-102.9,1.7c-11.5-1-30.8-0.1-49.4,0.8
			c-19.8,0.9-40.3,1.9-50.5,0.5c-9.2-1.2-11-9.1-12.7-25.7c-1.2-11.4,5.5-42,9.9-62.3c1.9-8.6,3.4-15.4,3.8-18.9
			c1.6-11.3,4.6-42.4,4.9-56.7c0.2-7.4,2.1-23.6,4.2-40.7c1.7-13.9,3.4-28.2,4.2-37.9c1.6-20.8,6.1-69.4,7.7-85.8
			c2.4-0.2,5.9-0.6,9.7-1c2.8-0.3,6.1-0.6,9-0.9c-1.6,5.2-2,25.9,0.7,28.9c1.1,1.2,3.3,2.1,6.3,2.7c-1.5,8.7-4.7,28.7-3.3,32.2
			c1.4,3.4,2.7,4.4,6.7,4.9c3.8,0.5,32.6,2,49.9,2c6.9,0,20.5-0.6,36.2-1.3c23.2-1.1,49.6-2.3,60-1.7c17.4,1,94,2,128.9,0.3
			c20.8-1,61.9-1.5,115.8-1.3c1.4,0,2.3,0,2.7,0c2.8,0,6.9-1,9.2-3.8c1.4-1.7,1.9-3.9,1.4-6.2c-0.5-2.2-1.3-12.4-2.1-26.6
			c0-0.1,0-0.1,0-0.2c4.2-1.3,5-2.8,5.2-3.3c0,0,0-0.1,0-0.1c0-0.1,1.8-12.6-0.5-27.6c9.3,0.4,14.8,0.4,18,0.4
			c1.9,14.3,16.7,142.6,19.5,199.3c1.6,32.4,5.4,50.7,8.7,66.9c2.7,13,5,24.2,5.9,40.4C526.2,535.4,524.5,541.1,520.8,544.8z"/>
		<path class="st1" d="M372.1,246.7c1.2,0.1,2.6,0.2,4,0.3l0.1-1c-1.4-0.1-2.7-0.2-4-0.3L372.1,246.7z"/>
		
			<rect x="343.6" y="242.6" transform="matrix(2.890446e-02 -0.9996 0.9996 2.890446e-02 89.6644 581.5197)" class="st1" width="1" height="4"/>
		<path class="st1" d="M360.1,245.7c1.4,0.1,2.7,0.2,4,0.3l0.1-1c-1.3-0.1-2.6-0.2-4-0.3L360.1,245.7z"/>
		<path class="st1" d="M366.1,246.2c1.2,0.1,2.5,0.2,4,0.3l0.1-1c-1.5-0.1-2.8-0.2-4-0.3L366.1,246.2z"/>
		<path class="st1" d="M354.1,245.4c1.4,0.1,2.7,0.1,4,0.2l0.1-1c-1.3-0.1-2.6-0.1-4-0.2L354.1,245.4z"/>
		<path class="st1" d="M324.1,244.4c1.2,0.1,2.6,0.2,4,0.2l0-1c-1.4-0.1-2.8-0.1-4-0.2L324.1,244.4z"/>
		<path class="st1" d="M330.1,244.7c1.3,0.1,2.6,0.1,4,0.1l0-1c-1.4,0-2.7-0.1-4-0.1L330.1,244.7z"/>
		
			<rect x="337.6" y="242.4" transform="matrix(2.926290e-02 -0.9996 0.9996 2.926290e-02 83.886 575.2586)" class="st1" width="1" height="4"/>
		<path class="st1" d="M348.1,245.2c1.3,0,2.7,0.1,4,0.1l0-1c-1.3,0-2.7-0.1-4-0.1L348.1,245.2z"/>
		
			<rect x="409.6" y="246.4" transform="matrix(4.414637e-02 -0.999 0.999 4.414637e-02 143.8466 647.0788)" class="st1" width="1" height="4"/>
		<path class="st1" d="M456.1,248.9l0,1c1.4,0,2.8-0.1,4-0.2l-0.1-1C458.8,248.8,457.5,248.9,456.1,248.9z"/>
		<path class="st1" d="M414.1,249c1.3,0.1,2.7,0.1,4,0.2l0-1c-1.3-0.1-2.7-0.1-4-0.2L414.1,249z"/>
		<path class="st1" d="M462,248.5l0.1,1c1.4-0.2,2.8-0.4,4-0.6l-0.2-1C464.7,248.2,463.4,248.4,462,248.5z"/>
		
			<rect x="403.6" y="246.1" transform="matrix(4.804017e-02 -0.9988 0.9988 4.804017e-02 136.862 639.7844)" class="st1" width="1" height="4"/>
		<path class="st1" d="M396.1,248.2c1.3,0.1,2.6,0.1,4,0.2l0.1-1c-1.4-0.1-2.7-0.1-4-0.2L396.1,248.2z"/>
		<path class="st1" d="M420.1,249.3c1.3,0,2.7,0.1,4,0.1l0-1c-1.3,0-2.7-0.1-4-0.1L420.1,249.3z"/>
		<path class="st1" d="M444.1,249.9c1.4,0,2.7,0,4,0l0-1c-1.3,0-2.6,0-4,0L444.1,249.9z"/>
		<path class="st1" d="M438.1,249.8c1.3,0,2.7,0.1,4,0.1l0-1c-1.3,0-2.7,0-4-0.1L438.1,249.8z"/>
		<path class="st1" d="M426.1,249.5c1.3,0,2.7,0.1,4,0.1l0-1c-1.3,0-2.7-0.1-4-0.1L426.1,249.5z"/>
		<path class="st1" d="M451.9,249l-1.8,0l0,1l1.8,0c0.8,0,1.5,0,2.2,0l0-1C453.4,249,452.7,249,451.9,249z"/>
		<path class="st1" d="M432.1,249.7c1.3,0,2.7,0.1,4,0.1l0-1c-1.3,0-2.7-0.1-4-0.1L432.1,249.7z"/>
		<path class="st1" d="M378.1,247.1c1.3,0.1,2.6,0.2,4,0.3l0.1-1c-1.4-0.1-2.7-0.2-4-0.3L378.1,247.1z"/>
		<path class="st1" d="M384.1,247.5c1.3,0.1,2.6,0.2,4,0.2l0.1-1c-1.4-0.1-2.7-0.2-4-0.2L384.1,247.5z"/>
		<path class="st1" d="M467.8,247.5l0.3,1c1.6-0.4,2.9-0.9,3.8-1.5l-0.5-0.9C470.5,246.6,469.3,247.1,467.8,247.5z"/>
		<path class="st1" d="M390.1,247.9c1.3,0.1,2.6,0.1,4,0.2l0.1-1c-1.4-0.1-2.7-0.1-4-0.2L390.1,247.9z"/>
		<path class="st1" d="M445.5,227.2l0,1c1.4,0,2.7-0.1,4-0.1l0-1C448.2,227.1,446.9,227.1,445.5,227.2z"/>
		<path class="st1" d="M355.6,224.5c1.3,0.1,2.6,0.1,4,0.2l0-1c-1.4-0.1-2.7-0.1-4-0.2L355.6,224.5z"/>
		<path class="st1" d="M451.5,227l0,1c1.4-0.1,2.8-0.1,4-0.2l-0.1-1C454.2,226.8,452.9,226.9,451.5,227z"/>
		<path class="st1" d="M421.5,227.8c1.4,0.1,2.7,0.1,4,0.1l0-1c-1.3,0-2.6-0.1-4-0.1L421.5,227.8z"/>
		
			<rect x="381.1" y="223.3" transform="matrix(5.521293e-02 -0.9985 0.9985 5.521293e-02 135.535 593.9155)" class="st1" width="1" height="4"/>
		
			<rect x="369.1" y="222.7" transform="matrix(5.327714e-02 -0.9986 0.9986 5.327714e-02 125.5667 581.813)" class="st1" width="1" height="4"/>
		
			<rect x="375.1" y="223" transform="matrix(5.484758e-02 -0.9985 0.9985 5.484758e-02 130.3394 587.7145)" class="st1" width="1" height="4"/>
		<path class="st1" d="M331.7,223.2l0,1c1.3,0,2.7,0,4-0.1l0-1C334.3,223.2,333,223.2,331.7,223.2z"/>
		<path class="st1" d="M433.5,228.2c1.4,0,2.7,0,4,0l0-1c-1.3,0-2.6,0-4,0L433.5,228.2z"/>
		<path class="st1" d="M427.5,228c1.4,0,2.7,0.1,4,0.1l0-1c-1.3,0-2.6-0.1-4-0.1L427.5,228z"/>
		<path class="st1" d="M361.6,224.8c1.3,0.1,2.6,0.1,4,0.2l0.1-1c-1.4-0.1-2.7-0.1-4-0.2L361.6,224.8z"/>
		<path class="st1" d="M457.5,226.6l0.1,1c1.4-0.1,2.8-0.3,4-0.4l-0.1-1C460.2,226.3,458.9,226.5,457.5,226.6z"/>
		<path class="st1" d="M463.4,225.9l0.2,1c1.5-0.2,2.8-0.5,4-0.8l-0.2-1C466.1,225.4,464.8,225.7,463.4,225.9z"/>
		<path class="st1" d="M337.7,223.2l0,1l1.3,0c0.9,0,1.8,0,2.7,0l0-1c-0.9,0-1.8,0-2.7,0L337.7,223.2z"/>
		
			<rect x="399.1" y="224.3" transform="matrix(5.043707e-02 -0.9987 0.9987 5.043707e-02 153.4037 613.9396)" class="st1" width="1" height="4"/>
		<path class="st1" d="M325.7,223.4l0,1c1.4-0.1,2.7-0.1,4-0.1l0-1C328.3,223.3,327,223.4,325.7,223.4z"/>
		
			<rect x="393.1" y="224" transform="matrix(5.264217e-02 -0.9986 0.9986 5.264217e-02 147.184 607.1223)" class="st1" width="1" height="4"/>
		
			<rect x="387.1" y="223.7" transform="matrix(5.434715e-02 -0.9985 0.9985 5.434715e-02 141.1894 600.418)" class="st1" width="1" height="4"/>
		<path class="st1" d="M349.6,224.3c1.3,0,2.6,0.1,4,0.1l0-1c-1.3,0-2.7-0.1-4-0.1L349.6,224.3z"/>
		
			<rect x="411" y="224.9" transform="matrix(4.566242e-02 -0.999 0.999 4.566242e-02 166.1171 627.6299)" class="st1" width="1" height="4"/>
		<path class="st1" d="M439.8,227.2h-0.3v1h0.3c0,0,0.1,0,0.1,0c1.2,0,2.4,0,3.6,0l0-1C442.3,227.2,441.1,227.2,439.8,227.2z"/>
		<path class="st1" d="M343.7,224.2c1.3,0,2.7,0,4,0.1l0-1c-1.3,0-2.7-0.1-4-0.1L343.7,224.2z"/>
		
			<rect x="405.1" y="224.6" transform="matrix(4.811049e-02 -0.9988 0.9988 4.811049e-02 159.7146 620.7772)" class="st1" width="1" height="4"/>
		
			<rect x="417" y="225.1" transform="matrix(4.322527e-02 -0.9991 0.9991 4.322527e-02 172.5638 634.4696)" class="st1" width="1" height="4"/>
		
			<rect x="177.4" y="224.6" transform="matrix(0.9995 -3.224129e-02 3.224129e-02 0.9995 -7.1655 5.9026)" class="st1" width="4" height="1"/>
		
			<rect x="171.4" y="224.8" transform="matrix(0.9994 -3.419309e-02 3.419309e-02 0.9994 -7.6039 6.0621)" class="st1" width="4" height="1"/>
		
			<rect x="147.4" y="225.7" transform="matrix(0.9992 -3.907083e-02 3.907083e-02 0.9992 -8.7252 6.0117)" class="st1" width="4" height="1"/>
		
			<rect x="165.4" y="225.1" transform="matrix(0.9993 -3.614450e-02 3.614450e-02 0.9993 -8.0433 6.1993)" class="st1" width="4" height="1"/>
		
			<rect x="159.4" y="225.3" transform="matrix(0.9993 -3.712005e-02 3.712005e-02 0.9993 -8.2698 6.1484)" class="st1" width="4" height="1"/>
		
			<rect x="183.5" y="224.4" transform="matrix(0.9995 -3.025957e-02 3.025957e-02 0.9995 -6.7219 5.7147)" class="st1" width="4" height="1"/>
		<path class="st1" d="M217.5,224.8l0-1c-1.3,0-2.7,0-4,0l0,1C214.8,224.8,216.2,224.8,217.5,224.8z"/>
		<path class="st1" d="M211.5,224.8l0-1c-1.3,0-2.7,0-4,0.1l0,1C208.8,224.9,210.2,224.9,211.5,224.8z"/>
		
			<rect x="141.4" y="226" transform="matrix(0.9993 -3.809549e-02 3.809549e-02 0.9993 -8.5233 5.629)" class="st1" width="4" height="1"/>
		<polygon class="st1" points="193.5,225.2 193.4,224.2 189.4,224.3 189.5,225.3 		"/>
		<path class="st1" d="M205.5,224.9l0-1c-1.3,0-2.7,0.1-4,0.1l0,1C202.8,225,204.1,225,205.5,224.9z"/>
		
			<rect x="195.5" y="224.1" transform="matrix(0.9997 -2.343106e-02 2.343106e-02 0.9997 -5.2087 4.6882)" class="st1" width="4" height="1"/>
		
			<rect x="153.4" y="225.5" transform="matrix(0.9993 -3.809549e-02 3.809549e-02 0.9993 -8.4971 6.0858)" class="st1" width="4" height="1"/>
		<path class="st1" d="M85.4,227.1c-1.4,0-2.7-0.1-4-0.1l0,1c1.3,0.1,2.6,0.1,4,0.1L85.4,227.1z"/>
		<path class="st1" d="M91.4,227.2c-1.4,0-2.7,0-4-0.1l0,1c1.3,0,2.6,0,4,0.1L91.4,227.2z"/>
		
			<rect x="135.4" y="226.2" transform="matrix(0.9993 -3.809549e-02 3.809549e-02 0.9993 -8.5363 5.4006)" class="st1" width="4" height="1"/>
		<path class="st1" d="M97.4,228.2l0-1l-0.6,0c-1.1,0-2.3,0-3.4,0l0,1c1.1,0,2.2,0,3.4,0L97.4,228.2z"/>
		<path class="st1" d="M67.5,226c-1.4-0.2-2.7-0.3-3.9-0.5l-0.2,1c1.3,0.2,2.6,0.4,4,0.5L67.5,226z"/>
		<path class="st1" d="M79.5,226.9c-1.4-0.1-2.7-0.1-4-0.2l-0.1,1c1.3,0.1,2.6,0.2,4,0.2L79.5,226.9z"/>
		<path class="st1" d="M73.5,226.5c-1.4-0.1-2.7-0.2-4-0.3l-0.1,1c1.3,0.1,2.6,0.2,4,0.4L73.5,226.5z"/>
		<path class="st1" d="M103.4,228.2l0-1c-1.4,0-2.7,0-4,0l0,1C100.7,228.2,102.1,228.2,103.4,228.2z"/>
		
			<rect x="123.4" y="226.6" transform="matrix(0.9994 -3.516885e-02 3.516885e-02 0.9994 -7.9103 4.5522)" class="st1" width="4" height="1"/>
		
			<rect x="129.4" y="226.4" transform="matrix(0.9993 -3.712005e-02 3.712005e-02 0.9993 -8.3327 5.0356)" class="st1" width="4" height="1"/>
		<path class="st1" d="M109.4,228.1l0-1c-1.4,0-2.7,0.1-4,0.1l0,1C106.7,228.1,108,228.1,109.4,228.1z"/>
		<polygon class="st1" points="121.5,227.8 121.4,226.8 117.4,226.9 117.5,227.9 		"/>
		<path class="st1" d="M115.5,227.9l0-1c-1.4,0-2.7,0.1-4,0.1l0,1C112.7,228,114.1,228,115.5,227.9z"/>
		<path class="st1" d="M108.3,249.5l0.1,1c1.3-0.1,2.7-0.1,4-0.2l-0.1-1C111,249.3,109.6,249.4,108.3,249.5z"/>
		<path class="st1" d="M96.3,250l0,1c1.3,0,2.7-0.1,4-0.2l0-1C99,249.9,97.6,250,96.3,250z"/>
		
			<rect x="126.3" y="248.2" transform="matrix(0.9977 -6.736133e-02 6.736133e-02 0.9977 -16.4645 9.2079)" class="st1" width="4" height="1"/>
		
			<rect x="132.3" y="247.8" transform="matrix(0.9977 -6.736133e-02 6.736133e-02 0.9977 -16.4235 9.6105)" class="st1" width="4" height="1"/>
		
			<rect x="120.3" y="248.6" transform="matrix(0.9979 -6.444501e-02 6.444501e-02 0.9979 -15.802 8.4005)" class="st1" width="4" height="1"/>
		<path class="st1" d="M114.3,249.2l0.1,1c1.3-0.1,2.7-0.2,4-0.2l-0.1-1C117,249,115.6,249.1,114.3,249.2z"/>
		<path class="st1" d="M138.3,247.6l0.1,1c1.4-0.1,2.7-0.2,4-0.3l-0.1-1C141,247.4,139.6,247.5,138.3,247.6z"/>
		<path class="st1" d="M90.3,250.2l0,1c1.3,0,2.7-0.1,4-0.1l0-1C93,250.2,91.6,250.2,90.3,250.2z"/>
		<path class="st1" d="M66.3,250.4c1.2,0.2,2.6,0.3,4,0.4l0.1-1c-1.4-0.1-2.8-0.3-3.9-0.4L66.3,250.4z"/>
		<path class="st1" d="M84.3,250.3l0,1c1.3,0,2.6,0,4,0l0-1C87,250.3,85.6,250.3,84.3,250.3z"/>
		<path class="st1" d="M78.3,251.3c1.3,0,2.6,0,4,0.1l0-1c-1.4,0-2.7,0-4-0.1L78.3,251.3z"/>
		<path class="st1" d="M72.3,251c1.3,0.1,2.6,0.1,4,0.2l0-1c-1.4,0-2.7-0.1-4-0.2L72.3,251z"/>
		<path class="st1" d="M192.3,245.5l0,1c1.3-0.1,2.7-0.1,4-0.2l0-1C195,245.4,193.6,245.5,192.3,245.5z"/>
		<path class="st1" d="M204.3,245l0.1,1c1.4-0.1,2.7-0.2,4-0.2l-0.1-1C207,244.8,205.6,244.9,204.3,245z"/>
		<path class="st1" d="M198.3,245.3l0,1c1.4-0.1,2.7-0.1,4-0.2l-0.1-1C201,245.1,199.6,245.2,198.3,245.3z"/>
		<path class="st1" d="M210.3,244.6l0.1,1c1.4-0.1,2.7-0.2,4-0.3l-0.1-1C213,244.4,211.7,244.5,210.3,244.6z"/>
		<path class="st1" d="M150.3,247.9c1.1,0,2.2-0.1,3.1-0.1l0.9,0l0-1l-0.9,0c-0.9,0-2,0.1-3.1,0.1L150.3,247.9z"/>
		<path class="st1" d="M64.5,249.1c-1.5-0.3-2.8-0.6-3.8-1l-0.4,0.9c1.1,0.4,2.4,0.8,3.9,1L64.5,249.1z"/>
		<path class="st1" d="M144.3,247.2l0.1,1c1.4-0.1,2.8-0.2,4-0.2l-0.1-1C147,247,145.7,247.1,144.3,247.2z"/>
		<polygon class="st1" points="156.3,246.7 156.3,247.7 160.3,247.6 160.3,246.6 		"/>
		<polygon class="st1" points="168.3,246.4 168.3,247.4 172.3,247.3 172.3,246.3 		"/>
		
			<rect x="162.3" y="246.5" transform="matrix(0.9997 -2.635803e-02 2.635803e-02 0.9997 -6.4534 4.4162)" class="st1" width="4" height="1"/>
		<path class="st1" d="M102.4,250.8c1.3-0.1,2.7-0.1,4-0.2l-0.1-1c-1.3,0.1-2.7,0.1-4,0.2L102.4,250.8z"/>
		
			<rect x="180.3" y="245.9" transform="matrix(0.9994 -3.516885e-02 3.516885e-02 0.9994 -8.554 6.5638)" class="st1" width="4" height="1"/>
		<path class="st1" d="M186.3,245.8l0,1c1.3-0.1,2.7-0.1,4-0.2l0-1C189,245.7,187.6,245.7,186.3,245.8z"/>
		
			<rect x="174.3" y="246.1" transform="matrix(0.9995 -3.224129e-02 3.224129e-02 0.9995 -7.8604 5.8123)" class="st1" width="4" height="1"/>
		<path class="st1" d="M225.6,228.3c0.9,0,1.7-0.8,1.7-1.7s-0.8-1.7-1.7-1.7s-1.7,0.8-1.7,1.7S224.7,228.3,225.6,228.3z
			 M225.6,225.9c0.4,0,0.7,0.3,0.7,0.7c0,0.4-0.3,0.7-0.7,0.7s-0.7-0.3-0.7-0.7C224.9,226.3,225.2,225.9,225.6,225.9z"/>
		<path class="st1" d="M315.6,226.4c0.9,0,1.7-0.8,1.7-1.7s-0.8-1.7-1.7-1.7s-1.7,0.8-1.7,1.7S314.7,226.4,315.6,226.4z M315.6,224
			c0.4,0,0.7,0.3,0.7,0.7c0,0.4-0.3,0.7-0.7,0.7s-0.7-0.3-0.7-0.7C314.9,224.3,315.2,224,315.6,224z"/>
		<path class="st1" d="M314.4,243.2c0.9,0,1.7-0.8,1.7-1.7s-0.8-1.7-1.7-1.7c-0.9,0-1.7,0.8-1.7,1.7S313.5,243.2,314.4,243.2z
			 M314.4,240.8c0.4,0,0.7,0.3,0.7,0.7c0,0.4-0.3,0.7-0.7,0.7s-0.7-0.3-0.7-0.7C313.7,241.1,314,240.8,314.4,240.8z"/>
		<path class="st1" d="M251.2,236.9c-0.9,0-1.7,0.8-1.7,1.7s0.8,1.7,1.7,1.7s1.7-0.8,1.7-1.7S252.1,236.9,251.2,236.9z M251.2,239.3
			c-0.4,0-0.7-0.3-0.7-0.7c0-0.4,0.3-0.7,0.7-0.7c0.4,0,0.7,0.3,0.7,0.7C251.9,239,251.6,239.3,251.2,239.3z"/>
		<path class="st1" d="M252,225.2c0.9,0,1.7-0.8,1.7-1.7s-0.8-1.7-1.7-1.7s-1.7,0.8-1.7,1.7S251.1,225.2,252,225.2z M252,222.8
			c0.4,0,0.7,0.3,0.7,0.7c0,0.4-0.3,0.7-0.7,0.7c-0.4,0-0.7-0.3-0.7-0.7C251.3,223.1,251.6,222.8,252,222.8z"/>
		<path class="st1" d="M225.6,243.7c0.9,0,1.7-0.8,1.7-1.7s-0.8-1.7-1.7-1.7s-1.7,0.8-1.7,1.7S224.7,243.7,225.6,243.7z
			 M225.6,241.4c0.4,0,0.7,0.3,0.7,0.7c0,0.4-0.3,0.7-0.7,0.7s-0.7-0.3-0.7-0.7C224.9,241.7,225.2,241.4,225.6,241.4z"/>
		<path class="st1" d="M475.5,214.4c-1.4-0.1-2.7-0.2-4-0.3l-0.1,1c1.3,0.1,2.6,0.2,4,0.3L475.5,214.4z"/>
		<path class="st1" d="M469.5,214.9l0.1-1c-1.6-0.2-3-0.2-4.1-0.1l0.1,1C466.6,214.6,467.9,214.7,469.5,214.9z"/>
		<path class="st1" d="M481.5,214.6c-1.3,0-2.7,0-4-0.1l0,1c1.3,0.1,2.7,0.1,4,0.1L481.5,214.6z"/>
		<path class="st1" d="M487.5,215.5l0-1c-1.3,0.1-2.6,0.1-4,0.1l0,1C484.9,215.6,486.2,215.5,487.5,215.5z"/>
		<path class="st1" d="M494.1,206.7l1,0c0-1.2-0.1-2.5-0.1-4l-1,0C494,204.1,494.1,205.5,494.1,206.7z"/>
		<path class="st1" d="M463.8,215.2l-0.4-0.9c-1.8,0.8-2.2,2.4-2.3,3.6l1,0.1C462.2,216.5,462.7,215.7,463.8,215.2z"/>
		<path class="st1" d="M494.2,208.7c0,0.4,0,0.8,0,1.2c0,1.2-0.1,2-0.2,2.7l1,0.2c0.2-0.7,0.2-1.6,0.2-2.9c0-0.4,0-0.8,0-1.2
			L494.2,208.7z"/>
		<path class="st1" d="M494.2,194.7l1,0c0-1.4,0.1-2.7,0.1-4l-1,0C494.2,191.9,494.2,193.3,494.2,194.7z"/>
		
			<rect x="492.9" y="186.2" transform="matrix(3.220984e-02 -0.9995 0.9995 3.220984e-02 292.3965 675.2891)" class="st1" width="4" height="1"/>
		<path class="st1" d="M491.5,215.2l0.3,0c0.7-0.1,1.3-0.2,1.8-0.4l-0.4-0.9c-0.4,0.2-0.9,0.2-1.5,0.3l-0.3,0
			c-0.4,0.1-1.1,0.1-1.9,0.2l0.1,1C490.4,215.3,491.1,215.2,491.5,215.2z"/>
		<path class="st1" d="M495.1,196.7l-1,0c0,1.4,0,2.7-0.1,4l1,0C495.1,199.4,495.1,198,495.1,196.7z"/>
		<path class="st1" d="M495,176.6c-0.3-1.3-0.8-2.6-1.3-3.9l-0.9,0.4c0.5,1.2,1,2.4,1.3,3.7L495,176.6z"/>
		<path class="st1" d="M494.6,181.2c0,0.2,0,0.4,0,0.6l0,0.9l1,0l0-0.9c0-0.2,0-0.4,0-0.6c0-0.9-0.1-1.7-0.2-2.6l-1,0.1
			C494.5,179.5,494.6,180.4,494.6,181.2z"/>
		<path class="st1" d="M150.3,285.1l0.1,1c1.5-0.1,2.8-0.2,4-0.3l-0.1-1C153.1,284.9,151.7,285,150.3,285.1z"/>
		<path class="st1" d="M144.3,285.5l0,1c1.4-0.1,2.7-0.1,4-0.2l-0.1-1C147,285.3,145.7,285.4,144.3,285.5z"/>
		<path class="st1" d="M126.3,286l0,1c1.3,0,2.7,0,4-0.1l0-1C129,285.9,127.6,286,126.3,286z"/>
		<path class="st1" d="M156.6,284.5l-0.4,0.1l0.1,1l0.4-0.1c1-0.1,2.2-0.3,3.6-0.4l-0.1-1C158.8,284.2,157.6,284.4,156.6,284.5z"/>
		<path class="st1" d="M138.3,285.7l0,1c1.4,0,2.7-0.1,4-0.1l0-1C141,285.6,139.7,285.6,138.3,285.7z"/>
		<path class="st1" d="M132.3,285.9l0,1c1.4,0,2.7-0.1,4-0.1l0-1C135,285.8,133.6,285.8,132.3,285.9z"/>
		<path class="st1" d="M174.2,283l0.1,1c1.3-0.1,2.6-0.1,4-0.2l0-1C176.8,282.9,175.5,282.9,174.2,283z"/>
		<path class="st1" d="M192.2,282.3l0,1c1.3,0,2.7-0.1,4-0.1l0-1C194.9,282.2,193.5,282.3,192.2,282.3z"/>
		<path class="st1" d="M120.3,286l0,1c1.3,0,2.7,0,4,0l0-1C122.9,286,121.6,286,120.3,286z"/>
		<path class="st1" d="M186.2,282.5l0,1c1.3,0,2.7-0.1,4-0.1l0-1C188.9,282.4,187.5,282.4,186.2,282.5z"/>
		<path class="st1" d="M162.2,283.9l0.1,1c1.2-0.1,2.6-0.2,4-0.3l-0.1-1C164.8,283.6,163.4,283.8,162.2,283.9z"/>
		<path class="st1" d="M168.2,283.4l0.1,1c1.3-0.1,2.6-0.2,4-0.3l-0.1-1C170.8,283.2,169.5,283.3,168.2,283.4z"/>
		<path class="st1" d="M180.2,282.7l0,1c1.3-0.1,2.6-0.1,4-0.2l0-1C182.9,282.6,181.5,282.7,180.2,282.7z"/>
		
			<rect x="66.5" y="260.7" transform="matrix(0.1015 -0.9948 0.9948 0.1015 -198.2991 302.8994)" class="st1" width="4" height="1"/>
		<path class="st1" d="M79.4,285.2l-1.1,0l0,1l1.1,0c1,0,1.9,0,2.9,0l0-1C81.3,285.2,80.4,285.2,79.4,285.2z"/>
		<path class="st1" d="M66.8,280.5c0-0.9,0.2-1.9,0.5-3.2l-1-0.2c-0.3,1.3-0.5,2.4-0.5,3.4c0,0.2,0,0.5,0,0.7l1-0.1
			C66.8,280.9,66.8,280.7,66.8,280.5z"/>
		<path class="st1" d="M72.3,285.9c1.1,0.1,2.4,0.2,4,0.3l0-1c-1.6,0-2.9-0.1-3.9-0.3L72.3,285.9z"/>
		<path class="st1" d="M67.4,282.7l-0.8,0.6c0.7,0.9,1.9,1.6,3.6,2.2l0.3-1C69,284,68,283.4,67.4,282.7z"/>
		
			<rect x="65.9" y="266.7" transform="matrix(9.960040e-02 -0.995 0.995 9.960040e-02 -204.703 308.1967)" class="st1" width="4" height="1"/>
		<path class="st1" d="M68,271.2l-1-0.1c-0.2,1.6-0.3,3-0.5,4l1,0.1C67.7,274.2,67.9,272.9,68,271.2z"/>
		<path class="st1" d="M108.3,287c1.3,0,2.6,0,4,0l0-1c-1.4,0-2.7,0-4,0L108.3,287z"/>
		<path class="st1" d="M102.3,286.9c1.2,0,2.6,0.1,4,0.1l0-1c-1.4,0-2.8-0.1-4-0.1L102.3,286.9z"/>
		<path class="st1" d="M114.9,286.1h-0.6v1h0.6c1.1,0,2.2,0,3.4,0l0-1C117.2,286.1,116,286.1,114.9,286.1z"/>
		<path class="st1" d="M198.2,282.2l0,1c1.3,0,2.7,0,4-0.1l0-1C200.9,282.1,199.6,282.1,198.2,282.2z"/>
		<path class="st1" d="M84.3,285.2l0,1c1.4,0,2.7,0,4,0l0-1C87,285.1,85.7,285.1,84.3,285.2z"/>
		<path class="st1" d="M96.2,286.5c0.9,0.1,2.2,0.2,4,0.3l0-1c-1.8-0.1-3.1-0.2-3.9-0.3L96.2,286.5z"/>
		<path class="st1" d="M90.3,286.1c1.6,0,2.9,0.1,4,0.2l0.1-1c-1.1-0.1-2.4-0.1-4-0.2L90.3,286.1z"/>
		<polygon class="st1" points="366.2,282.8 366.3,283.8 370.2,283.7 370.2,282.7 		"/>
		<path class="st1" d="M463,258.1c-0.1-1.3-0.2-2.6-0.3-4l-1,0.1c0.1,1.4,0.2,2.7,0.3,4L463,258.1z"/>
		
			<rect x="348.2" y="283.1" transform="matrix(0.9998 -1.952753e-02 1.952753e-02 0.9998 -5.4718 6.893)" class="st1" width="4" height="1"/>
		
			<rect x="372.2" y="282.6" transform="matrix(0.9997 -2.538244e-02 2.538244e-02 0.9997 -7.0646 9.5899)" class="st1" width="4" height="1"/>
		
			<rect x="384.2" y="282.3" transform="matrix(0.9997 -2.538244e-02 2.538244e-02 0.9997 -7.0528 9.8946)" class="st1" width="4" height="1"/>
		
			<rect x="378.2" y="282.4" transform="matrix(0.9997 -2.538244e-02 2.538244e-02 0.9997 -7.0587 9.7423)" class="st1" width="4" height="1"/>
		
			<rect x="390.2" y="282.1" transform="matrix(0.9996 -2.733353e-02 2.733353e-02 0.9996 -7.5779 10.8267)" class="st1" width="4" height="1"/>
		<path class="st1" d="M463.1,270.1l1-0.1c-0.1-1.1-0.3-2.5-0.4-4l-1,0.1C462.8,267.6,463,269,463.1,270.1z"/>
		
			<rect x="360.2" y="282.9" transform="matrix(0.9997 -2.343106e-02 2.343106e-02 0.9997 -6.5402 8.5648)" class="st1" width="4" height="1"/>
		
			<rect x="354.2" y="283" transform="matrix(0.9998 -2.147942e-02 2.147942e-02 0.9998 -6.0073 7.7168)" class="st1" width="4" height="1"/>
		<path class="st1" d="M461.8,280.8l0.5,0.9c1.3-0.8,2-1.9,2.4-3.6l-1-0.2C463.5,279.2,462.8,280.2,461.8,280.8z"/>
		<path class="st1" d="M463.5,272.6c0.3,1.3,0.4,2.4,0.4,3.4l1,0c0-1-0.1-2.2-0.4-3.6l-0.1-0.4l-1,0.2L463.5,272.6z"/>
		<path class="st1" d="M462.5,264.1l1-0.1c-0.1-1.3-0.2-2.6-0.3-4l-1,0.1C462.3,261.5,462.4,262.9,462.5,264.1z"/>
		<path class="st1" d="M438.3,281l0,1c1.4,0,2.8,0,4,0l0-1C441,281,439.7,281,438.3,281z"/>
		<path class="st1" d="M444.3,282c1.5,0,2.8,0,4,0l0-1c-1.2,0-2.5,0-4,0L444.3,282z"/>
		<path class="st1" d="M432.2,281.1l0,1c1.4,0,2.7,0,4-0.1l0-1C435,281.1,433.6,281.1,432.2,281.1z"/>
		<path class="st1" d="M450.2,282.1c1.2,0,2.1,0.1,2.7,0.2c0.4,0.1,0.9,0.1,1.3,0.2l0.1-1c-0.4,0-0.8-0.1-1.3-0.2
			c-0.6-0.1-1.5-0.2-2.8-0.2L450.2,282.1z"/>
		
			<rect x="396.2" y="281.9" transform="matrix(0.9996 -2.733353e-02 2.733353e-02 0.9996 -7.5713 10.9907)" class="st1" width="4" height="1"/>
		<path class="st1" d="M460.3,282.4l-0.2-1c-1,0.2-2.3,0.3-3.8,0.2l-0.1,1c0.4,0,0.8,0,1.2,0C458.6,282.7,459.5,282.6,460.3,282.4z"
			/>
		
			<rect x="426.2" y="281.2" transform="matrix(0.9998 -2.147942e-02 2.147942e-02 0.9998 -5.9521 9.2636)" class="st1" width="4" height="1"/>
		
			<rect x="402.2" y="281.8" transform="matrix(0.9996 -2.733353e-02 2.733353e-02 0.9996 -7.5647 11.1547)" class="st1" width="4" height="1"/>
		
			<rect x="408.2" y="281.6" transform="matrix(0.9997 -2.538244e-02 2.538244e-02 0.9997 -7.0288 10.5038)" class="st1" width="4" height="1"/>
		
			<rect x="414.2" y="281.5" transform="matrix(0.9997 -2.538244e-02 2.538244e-02 0.9997 -7.0231 10.6561)" class="st1" width="4" height="1"/>
		
			<rect x="420.2" y="281.3" transform="matrix(0.9997 -2.343106e-02 2.343106e-02 0.9997 -6.4877 9.971)" class="st1" width="4" height="1"/>
		<polygon class="st1" points="312.2,283.5 312.3,284.5 316.2,284.5 316.2,283.5 		"/>
		<rect x="282.2" y="283.6" class="st1" width="4" height="1"/>
		
			<rect x="277.7" y="282.1" transform="matrix(1.708565e-03 -1 1 1.708565e-03 -6.3365 561.7963)" class="st1" width="1" height="4"/>
		
			<rect x="271.7" y="282.1" transform="matrix(3.417114e-03 -1 1 3.417114e-03 -12.7761 555.2953)" class="st1" width="1" height="4"/>
		<path class="st1" d="M324.2,283.5l0,1c1.3,0,2.7,0,4,0l0-1C326.8,283.5,325.5,283.5,324.2,283.5z"/>
		
			<rect x="265.7" y="282" transform="matrix(5.369705e-03 -1 1 5.369705e-03 -19.2464 548.7105)" class="st1" width="1" height="4"/>
		
			<rect x="259.7" y="282" transform="matrix(8.053430e-03 -1 1 8.053430e-03 -25.8688 541.9054)" class="st1" width="1" height="4"/>
		<rect x="300.2" y="283.6" transform="matrix(1 -1.953121e-03 1.953121e-03 1 -0.5542 0.5908)" class="st1" width="4" height="1"/>
		<polygon class="st1" points="318.2,283.5 318.2,284.5 322.2,284.5 322.2,283.5 		"/>
		<rect x="294.2" y="283.6" transform="matrix(1 -1.953121e-03 1.953121e-03 1 -0.5543 0.5791)" class="st1" width="4" height="1"/>
		<path class="st1" d="M204.2,282.1l0,1c0.9,0,1.8,0,2.6,0l1.4,0l0-1l-1.4,0C206,282.1,205.1,282.1,204.2,282.1z"/>
		<rect x="306.2" y="283.5" transform="matrix(1 -3.906220e-03 3.906220e-03 1 -1.1072 1.2061)" class="st1" width="4" height="1"/>
		<path class="st1" d="M252.2,284.4c1.3,0,2.6,0,4,0l0-1c-1.4,0-2.7,0-4,0L252.2,284.4z"/>
		<path class="st1" d="M210.2,283.1c1.4,0,2.7,0,4,0.1l0-1c-1.3,0-2.6,0-4-0.1L210.2,283.1z"/>
		
			<rect x="342.2" y="283.2" transform="matrix(0.9998 -1.757541e-02 1.757541e-02 0.9998 -4.9337 6.0935)" class="st1" width="4" height="1"/>
		
			<rect x="336.2" y="283.3" transform="matrix(0.9999 -1.367060e-02 1.367060e-02 0.9999 -3.8487 4.6501)" class="st1" width="4" height="1"/>
		<rect x="330.2" y="283.4" transform="matrix(1 -9.765159e-03 9.765159e-03 1 -2.7567 3.2576)" class="st1" width="4" height="1"/>
		<path class="st1" d="M216.2,283.2c1.4,0,2.7,0.1,4,0.2l0-1c-1.3-0.1-2.6-0.1-4-0.2L216.2,283.2z"/>
		<polygon class="st1" points="288.2,283.6 288.2,284.6 292.2,284.6 292.2,283.6 		"/>
		<path class="st1" d="M240.2,284.2c1.3,0,2.6,0.1,4,0.1l0-1c-1.4,0-2.7-0.1-4-0.1L240.2,284.2z"/>
		<path class="st1" d="M222.3,282.5l-0.1,1l0.4,0c1.1,0.1,2.3,0.1,3.6,0.2l0.1-1c-1.3-0.1-2.5-0.1-3.6-0.2L222.3,282.5z"/>
		<path class="st1" d="M246.2,284.3c1.3,0,2.6,0,4,0.1l0-1c-1.4,0-2.7,0-4-0.1L246.2,284.3z"/>
		<path class="st1" d="M228.2,283.8c1.3,0.1,2.6,0.1,4,0.2l0-1c-1.4-0.1-2.7-0.1-4-0.2L228.2,283.8z"/>
		<path class="st1" d="M234.2,284c1.3,0,2.6,0.1,4,0.1l0-1c-1.4,0-2.7-0.1-4-0.1L234.2,284z"/>
		<path class="st1" d="M49.3,215c-1.4,0.2-2.8,0.4-4,0.6l0.1,1c1.2-0.2,2.5-0.4,4-0.6L49.3,215z"/>
		<path class="st1" d="M55.3,215.3l-0.1-1c-1.3,0.2-2.7,0.3-4,0.5l0.1,1C52.7,215.6,54,215.4,55.3,215.3z"/>
		<path class="st1" d="M61.3,214.7l-0.1-1c-1.2,0.1-2.5,0.2-4,0.3l0.1,1C58.8,214.9,60.1,214.8,61.3,214.7z"/>
		<path class="st1" d="M41.3,216.1c-0.8,0.1-1.4,0.2-2,0.2l0.1,1c0.6,0,1.2-0.1,2-0.2c0.5-0.1,1.2-0.2,2-0.3l-0.1-1
			C42.5,216,41.8,216.1,41.3,216.1z"/>
		<path class="st1" d="M36.5,215.5c-0.1-0.4-0.3-1-0.4-1.9l-1,0.1c0.1,1,0.3,1.6,0.4,2.1c0.3,0.8,0.7,1.4,1.7,1.6l0.2-1
			C36.9,216.3,36.7,216.1,36.5,215.5z"/>
		<path class="st1" d="M67.2,214.7l0.1-1c-1-0.1-2.4-0.2-4.1-0.1l0,1C64.9,214.6,66.3,214.6,67.2,214.7z"/>
		<path class="st1" d="M36.1,175.6l1,0.1c0.2-1.5,0.4-2.8,0.6-3.9l-1-0.2C36.4,172.8,36.2,174.1,36.1,175.6z"/>
		<path class="st1" d="M71.4,218.4c-0.5-1.6-1.1-2.8-2-3.7l-0.7,0.7c0.8,0.8,1.3,1.8,1.8,3.3L71.4,218.4z"/>
		<path class="st1" d="M35.7,195.6l-1,0c0,1.4-0.1,2.7-0.1,4l1,0C35.7,198.3,35.7,197,35.7,195.6z"/>
		<path class="st1" d="M35.7,207.6l-1,0c0.1,1.5,0.1,2.9,0.2,4l1-0.1C35.9,210.5,35.8,209.1,35.7,207.6z"/>
		<path class="st1" d="M36.8,177.7l-1-0.1c-0.1,1.3-0.3,2.6-0.4,4l1,0.1C36.5,180.3,36.7,179,36.8,177.7z"/>
		<path class="st1" d="M35.9,189.6l-1,0c-0.1,1.3-0.1,2.7-0.2,4l1,0C35.8,192.3,35.9,191,35.9,189.6z"/>
		<path class="st1" d="M36.3,183.7l-1-0.1c-0.1,1.3-0.2,2.7-0.3,4l1,0.1C36.1,186.3,36.2,185,36.3,183.7z"/>
		<path class="st1" d="M35.6,201.7L35.6,201.7h-1c0,1.4,0,2.7,0,4l1,0C35.7,204.4,35.6,203.1,35.6,201.7z"/>
		<path class="st1" d="M264.3,235.1l27,1c0,0,0,0,0,0c0.1,0,0.2,0,0.3-0.1c0.1-0.1,0.2-0.2,0.2-0.3l0.2-4.2c0-0.3-0.2-0.5-0.5-0.5
			l-9.8-0.4c-1.4-3.6-4.7-6-8.6-6.2c-3.9-0.2-7.4,2-9,5.5c0,0.1,0,0.1,0,0.2l-0.2,4.4c0,0.1,0,0.1,0,0.2
			C263.8,234.9,264,235.1,264.3,235.1z M265.1,234.2c1.6-2.8,4.6-4.5,7.8-4.4c3.2,0.1,6.1,2,7.4,4.9L265.1,234.2z M290.8,235.1
			l-9.2-0.3l0.1-3.2l9.2,0.3L290.8,235.1z M264.9,230.2c1.5-3.1,4.7-5,8.1-4.9c3.5,0.1,6.5,2.3,7.7,5.6l0,0.1c0,0,0,0,0,0s0,0,0,0
			l-0.1,2.2c-1.7-2.7-4.5-4.3-7.8-4.5c-0.1,0-0.2,0-0.4,0c-3,0-5.9,1.4-7.7,3.8L264.9,230.2z"/>
		<path class="st1" d="M432.3,166.2c-1.4,0-2.7-0.1-4-0.1l0,1c1.3,0,2.7,0.1,4,0.1L432.3,166.2z"/>
		
			<rect x="423.8" y="164.5" transform="matrix(2.390727e-02 -0.9997 0.9997 2.390727e-02 247.7548 586.7114)" class="st1" width="1" height="4"/>
		
			<rect x="405.8" y="164" transform="matrix(3.390776e-02 -0.9994 0.9994 3.390776e-02 226.6782 566.4172)" class="st1" width="1" height="4"/>
		<path class="st1" d="M414.3,165.7c-1.4,0-2.7-0.1-4-0.1l0,1c1.3,0,2.6,0.1,4,0.1L414.3,165.7z"/>
		<path class="st1" d="M444.3,166.3c-1.3,0-2.7,0-4,0l0,1c1.3,0,2.7,0,4,0L444.3,166.3z"/>
		<polygon class="st1" points="420.3,165.9 416.3,165.8 416.3,166.8 420.3,166.9 		"/>
		<path class="st1" d="M438.3,166.3c-1.3,0-2.7,0-4-0.1l0,1c1.3,0,2.7,0,4,0.1L438.3,166.3z"/>
		<path class="st1" d="M450.4,166.4c-1.3,0-2.7,0-4,0l0,1c1.3,0,2.7,0,4,0L450.4,166.4z"/>
		<polygon class="st1" points="456.4,167.4 456.4,166.4 454.3,166.4 452.4,166.4 452.4,167.4 454.3,167.4 		"/>
		<path class="st1" d="M100.7,165.2l0-1c-1.3,0.1-2.6,0.1-4,0.2l0,1C98,165.3,99.4,165.3,100.7,165.2z"/>
		<path class="st1" d="M88.7,165.7l0-1c-1.3,0.1-2.7,0.1-4,0.2l0,1C86,165.9,87.4,165.8,88.7,165.7z"/>
		<path class="st1" d="M94.7,165.5l0-1c-1.3,0.1-2.7,0.1-4,0.2l0,1C92,165.6,93.4,165.5,94.7,165.5z"/>
		<path class="st1" d="M76.7,166.2l0-1c-1.3,0-2.7,0.1-4,0.1l0,1C74,166.2,75.3,166.2,76.7,166.2z"/>
		<path class="st1" d="M82.7,166l0-1c-1.3,0-2.7,0.1-4,0.1l0,1C80,166.1,81.3,166,82.7,166z"/>
		
			<rect x="108.7" y="163.7" transform="matrix(0.9984 -5.568645e-02 5.568645e-02 0.9984 -8.9717 6.417)" class="st1" width="4" height="1"/>
		
			<rect x="114.7" y="163.4" transform="matrix(0.9983 -5.860750e-02 5.860750e-02 0.9983 -9.4028 7.1187)" class="st1" width="4" height="1"/>
		
			<rect x="120.7" y="163" transform="matrix(0.9981 -6.152705e-02 6.152705e-02 0.9981 -9.8274 7.8565)" class="st1" width="4" height="1"/>
		
			<rect x="102.7" y="164" transform="matrix(0.9987 -5.173901e-02 5.173901e-02 0.9987 -8.3714 5.6354)" class="st1" width="4" height="1"/>
		<path class="st1" d="M359,61.6c-0.7-1-1.5-2.1-2.3-3.3l-0.8,0.6c0.9,1.2,1.6,2.3,2.3,3.3L359,61.6z"/>
		<path class="st1" d="M339.1,39.1c-1-0.9-2-1.8-3.1-2.6l-0.6,0.8c1,0.8,2,1.7,3,2.6L339.1,39.1z"/>
		<path class="st1" d="M347.7,47.5c-0.9-1-1.8-2-2.8-2.9l-0.7,0.7c0.9,0.9,1.9,1.9,2.7,2.9L347.7,47.5z"/>
		<path class="st1" d="M343.6,43.2c-1-0.9-1.9-1.9-2.9-2.8l-0.7,0.7c1,0.9,1.9,1.8,2.9,2.7L343.6,43.2z"/>
		<path class="st1" d="M355.5,56.8c-0.8-1-1.6-2.1-2.5-3.2l-0.8,0.6c0.9,1.1,1.7,2.1,2.5,3.1L355.5,56.8z"/>
		<path class="st1" d="M351.7,52c-0.8-1-1.7-2-2.6-3l-0.7,0.7c0.9,1,1.8,2,2.6,3L351.7,52z"/>
		<path class="st1" d="M329.7,31.6c-1.1-0.8-2.2-1.5-3.3-2.2l-0.5,0.8c1.1,0.7,2.2,1.5,3.3,2.2L329.7,31.6z"/>
		<path class="st1" d="M308.5,20.2c-1.2-0.5-2.5-1-3.8-1.4l-0.3,0.9c1.2,0.4,2.5,0.9,3.7,1.4L308.5,20.2z"/>
		<path class="st1" d="M314,22.6c-1.2-0.6-2.4-1.1-3.7-1.6l-0.4,0.9c1.2,0.5,2.4,1.1,3.6,1.6L314,22.6z"/>
		<path class="st1" d="M334.5,35.2c-1.1-0.8-2.1-1.6-3.2-2.4l-0.6,0.8c1.1,0.8,2.1,1.6,3.2,2.4L334.5,35.2z"/>
		<path class="st1" d="M361,66.3c0.2,0.3,0.4,0.6,0.6,0.9l0.8-0.6c-0.2-0.3-0.4-0.6-0.6-0.9c-0.3-0.4-0.6-0.9-1-1.5l-0.7-1l-0.8,0.6
			l0.7,1C360.3,65.4,360.7,65.9,361,66.3z"/>
		<path class="st1" d="M319.4,25.3c-1.2-0.6-2.4-1.3-3.6-1.8l-0.4,0.9c1.2,0.6,2.4,1.2,3.5,1.8L319.4,25.3z"/>
		<path class="st1" d="M324.6,28.3c-1.1-0.7-2.3-1.4-3.5-2l-0.5,0.9c1.2,0.7,2.3,1.3,3.4,2L324.6,28.3z"/>
		<path class="st1" d="M302.8,18.1c-1.3-0.4-2.5-0.8-3.8-1.2l-0.3,1c1.3,0.4,2.6,0.8,3.8,1.2L302.8,18.1z"/>
		<path class="st1" d="M388.3,120.7l0.9-0.4c-0.5-1.2-1-2.5-1.5-3.7l-0.9,0.4C387.3,118.3,387.8,119.5,388.3,120.7z"/>
		<path class="st1" d="M386,115.2l0.9-0.4c-0.5-1.2-1-2.5-1.6-3.7l-0.9,0.4C384.9,112.7,385.5,114,386,115.2z"/>
		<path class="st1" d="M383.6,109.7l0.9-0.4c-0.5-1.2-1.1-2.4-1.6-3.7L382,106C382.5,107.2,383.1,108.5,383.6,109.7z"/>
		<path class="st1" d="M390.5,126.3l0.9-0.4c-0.5-1.2-1-2.5-1.5-3.7l-0.9,0.4C389.6,123.8,390.1,125.1,390.5,126.3z"/>
		<path class="st1" d="M394.8,137.5l0.9-0.3c-0.4-1.2-0.9-2.5-1.4-3.8l-0.9,0.4C393.9,135,394.4,136.3,394.8,137.5z"/>
		<path class="st1" d="M392.7,131.9l0.9-0.4c-0.5-1.2-0.9-2.5-1.4-3.7l-0.9,0.4C391.8,129.4,392.3,130.7,392.7,131.9z"/>
		<path class="st1" d="M381.2,104.2l0.9-0.4c-0.6-1.2-1.1-2.4-1.7-3.6l-0.9,0.4C380.1,101.8,380.6,103,381.2,104.2z"/>
		<path class="st1" d="M371.6,82.2c-0.6-1.2-1.3-2.4-1.9-3.5l-0.9,0.5c0.6,1.1,1.3,2.3,1.9,3.5L371.6,82.2z"/>
		<path class="st1" d="M368.7,76.9c-0.7-1.2-1.3-2.4-2-3.5l-0.9,0.5c0.7,1.1,1.3,2.3,2,3.5L368.7,76.9z"/>
		<path class="st1" d="M378.7,98.7l0.9-0.4c-0.6-1.2-1.1-2.4-1.7-3.6l-0.9,0.4C377.5,96.3,378.1,97.5,378.7,98.7z"/>
		<path class="st1" d="M297.1,16.4c-1.3-0.3-2.6-0.7-3.9-1l-0.2,1c1.3,0.3,2.6,0.6,3.9,1L297.1,16.4z"/>
		<path class="st1" d="M365.6,71.7c-0.7-1.2-1.4-2.3-2.1-3.4l-0.8,0.5c0.7,1.1,1.4,2.2,2.1,3.4L365.6,71.7z"/>
		<path class="st1" d="M377,92.9c-0.6-1.2-1.2-2.4-1.8-3.6l-0.9,0.4c0.6,1.2,1.2,2.4,1.8,3.6L377,92.9z"/>
		<path class="st1" d="M374.3,87.5c-0.6-1.2-1.2-2.4-1.8-3.6l-0.9,0.5c0.6,1.2,1.2,2.4,1.8,3.6L374.3,87.5z"/>
		<path class="st1" d="M237.8,17.4l-0.3-1c-1.3,0.4-2.6,0.8-3.8,1.2l0.3,0.9C235.3,18.1,236.5,17.7,237.8,17.4z"/>
		<path class="st1" d="M182.6,60.8l-0.8-0.6c-1,1.3-1.8,2.3-2.5,3.1l0.8,0.6C180.8,63.1,181.6,62.1,182.6,60.8z"/>
		<path class="st1" d="M177.7,66.7c0.4-0.4,0.8-0.8,1.2-1.2l-0.7-0.7c-0.4,0.4-0.7,0.8-1.1,1.2c-0.5,0.5-1,1.1-1.6,1.8l0.8,0.6
			C176.7,67.7,177.2,67.2,177.7,66.7z"/>
		<path class="st1" d="M171.6,74.9l-0.8-0.5c-0.7,1.1-1.4,2.2-2.1,3.4l0.9,0.5C170.2,77.1,170.9,76,171.6,74.9z"/>
		<path class="st1" d="M174.9,70l-0.8-0.6c-0.7,1-1.5,2.1-2.3,3.3l0.8,0.5C173.4,72,174.2,70.9,174.9,70z"/>
		<rect x="182.6" y="56.8" transform="matrix(0.6033 -0.7975 0.7975 0.6033 27.5793 169.9479)" class="st1" width="4" height="1"/>
		<path class="st1" d="M189.9,51.2l-0.8-0.6c-0.9,1.1-1.7,2.1-2.5,3.2l0.8,0.6C188.2,53.3,189,52.3,189.9,51.2z"/>
		<path class="st1" d="M168.5,80l-0.9-0.5c-0.7,1.1-1.3,2.3-2,3.5l0.9,0.5C167.1,82.3,167.8,81.2,168.5,80z"/>
		<path class="st1" d="M197.7,42.2l-0.7-0.7c-0.9,1-1.8,1.9-2.7,3l0.7,0.7C195.9,44.1,196.8,43.2,197.7,42.2z"/>
		<path class="st1" d="M201.9,38l-0.7-0.7c-1,0.9-1.9,1.8-2.9,2.8l0.7,0.7C200,39.8,201,38.9,201.9,38z"/>
		<path class="st1" d="M193.7,46.6l-0.8-0.7c-0.9,1-1.8,2.1-2.6,3.1l0.8,0.6C192,48.7,192.8,47.6,193.7,46.6z"/>
		<path class="st1" d="M157.1,101.2l-0.9-0.5c-0.6,1.2-1.2,2.4-1.8,3.6l0.9,0.5C155.9,103.6,156.5,102.4,157.1,101.2z"/>
		<rect x="143" y="123.8" transform="matrix(0.4433 -0.8964 0.8964 0.4433 -30.6683 199.1331)" class="st1" width="4" height="1"/>
		<rect x="145.6" y="118.4" transform="matrix(0.4441 -0.896 0.896 0.4441 -24.4235 198.374)" class="st1" width="4" height="1"/>
		<path class="st1" d="M165.5,85.3l-0.9-0.5c-0.6,1.1-1.3,2.3-1.9,3.5l0.9,0.5C164.2,87.6,164.9,86.4,165.5,85.3z"/>
		<path class="st1" d="M140.1,133c-0.7,1.3-1.3,2.5-1.8,3.6l0.9,0.5c0.6-1.1,1.2-2.3,1.8-3.6L140.1,133z"/>
		<path class="st1" d="M143.7,128.1l-0.9-0.4c-0.6,1.3-1.2,2.4-1.8,3.6l0.9,0.4C142.4,130.5,143,129.3,143.7,128.1z"/>
		<rect x="148.3" y="113" transform="matrix(0.446 -0.895 0.895 0.446 -18.2976 197.404)" class="st1" width="4" height="1"/>
		<path class="st1" d="M154.4,106.5l-0.9-0.4c-0.6,1.2-1.2,2.4-1.8,3.6l0.9,0.4C153.1,108.9,153.7,107.7,154.4,106.5z"/>
		<path class="st1" d="M162.6,90.5l-0.9-0.5c-0.6,1.2-1.2,2.3-1.9,3.5l0.9,0.5C161.4,92.9,162,91.7,162.6,90.5z"/>
		<path class="st1" d="M159.8,95.8l-0.9-0.5c-0.6,1.2-1.2,2.4-1.8,3.6l0.9,0.5C158.6,98.2,159.2,97,159.8,95.8z"/>
		<path class="st1" d="M206.4,34l-0.6-0.8c-1,0.8-2,1.7-3,2.6l0.7,0.7C204.4,35.7,205.4,34.9,206.4,34z"/>
		<path class="st1" d="M266.7,13.5l0.6,0l0-1l-0.6,0c-1.1,0-2.3,0-3.4,0l0,1C264.4,13.5,265.5,13.5,266.7,13.5z"/>
		<path class="st1" d="M291.2,15c-1.3-0.3-2.6-0.5-3.9-0.8l-0.2,1c1.3,0.2,2.6,0.5,3.9,0.7L291.2,15z"/>
		<path class="st1" d="M211.1,30.4l-0.6-0.8c-1.1,0.8-2.1,1.6-3.2,2.4l0.6,0.8C209,31.9,210.1,31.1,211.1,30.4z"/>
		<path class="st1" d="M261.3,13.6l0-1c-1.3,0.1-2.7,0.1-4,0.2l0.1,1C258.6,13.8,260,13.7,261.3,13.6z"/>
		<path class="st1" d="M243.6,15.9l-0.2-1c-1.3,0.3-2.6,0.6-3.9,0.9l0.3,1C241,16.5,242.3,16.2,243.6,15.9z"/>
		<path class="st1" d="M273.3,12.7c-1.3-0.1-2.7-0.1-4-0.1l0,1c1.3,0,2.7,0.1,4,0.1L273.3,12.7z"/>
		<path class="st1" d="M249.4,14.8l-0.2-1c-1.3,0.2-2.7,0.4-4,0.7l0.2,1C246.8,15.2,248.1,15,249.4,14.8z"/>
		<path class="st1" d="M255.4,14l-0.1-1c-1.3,0.1-2.7,0.3-4,0.5l0.1,1C252.7,14.3,254,14.2,255.4,14z"/>
		<path class="st1" d="M216.1,27l-0.5-0.8c-1.1,0.7-2.3,1.4-3.4,2.2l0.6,0.8C213.9,28.5,215,27.7,216.1,27z"/>
		<path class="st1" d="M232.1,19.2l-0.3-0.9c-1.3,0.5-2.5,0.9-3.7,1.5l0.4,0.9C229.6,20.1,230.9,19.7,232.1,19.2z"/>
		<path class="st1" d="M226.6,21.4l-0.4-0.9c-1.2,0.5-2.4,1.1-3.6,1.7l0.4,0.9C224.2,22.5,225.4,22,226.6,21.4z"/>
		<path class="st1" d="M279.3,13.1c-1.3-0.1-2.6-0.2-4-0.3l-0.1,1c1.3,0.1,2.7,0.2,4,0.3L279.3,13.1z"/>
		<path class="st1" d="M285.3,13.9c-1.3-0.2-2.6-0.4-4-0.5l-0.1,1c1.3,0.2,2.6,0.3,3.9,0.5L285.3,13.9z"/>
		<path class="st1" d="M221.2,24l-0.5-0.9c-1.2,0.6-2.4,1.3-3.5,2l0.5,0.9C218.9,25.3,220.1,24.7,221.2,24z"/>
		<path class="st1" d="M192.5,53l0.8,0.6c0.8-1.1,1.7-2.1,2.5-3.1l-0.8-0.7C194.2,50.9,193.4,52,192.5,53z"/>
		<path class="st1" d="M196.4,48.4l0.7,0.7c0.9-1,1.8-2,2.7-2.9l-0.7-0.7C198.3,46.4,197.3,47.4,196.4,48.4z"/>
		<path class="st1" d="M185.6,62.9l0.8,0.5c0.7-1.1,1.4-2.3,2.2-3.3l-0.8-0.6C187.1,60.7,186.3,61.8,185.6,62.9z"/>
		<path class="st1" d="M188.9,57.9l0.8,0.6c0.8-1.1,1.6-2.2,2.3-3.2l-0.8-0.6C190.5,55.7,189.7,56.8,188.9,57.9z"/>
		<path class="st1" d="M210.1,36.7l0.6,0.8c1.1-0.8,2.2-1.6,3.2-2.4l-0.6-0.8C212.3,35.1,211.2,35.9,210.1,36.7z"/>
		<path class="st1" d="M214.9,33.1l0.6,0.8c1.1-0.8,2.2-1.6,3.3-2.3l-0.6-0.8C217.1,31.6,216,32.3,214.9,33.1z"/>
		<path class="st1" d="M200.6,44.1l0.7,0.7c1-0.9,2-1.8,3-2.6l-0.6-0.8C202.7,42.3,201.6,43.2,200.6,44.1z"/>
		<path class="st1" d="M182.5,68.1l0.9,0.5c0.6-1.1,1.3-2.3,2-3.4l-0.9-0.5C183.9,65.8,183.2,67,182.5,68.1z"/>
		<rect x="205.2" y="38.9" transform="matrix(0.7996 -0.6005 0.6005 0.7996 17.8245 132.3062)" class="st1" width="4" height="1"/>
		<path class="st1" d="M359.7,69.2c0.7,1.1,1.3,2.3,1.9,3.5l0.9-0.5c-0.6-1.2-1.3-2.4-2-3.5L359.7,69.2z"/>
		<path class="st1" d="M259.3,17c1.3-0.1,2.6-0.2,4-0.2l0-1c-1.4,0.1-2.7,0.1-4,0.2L259.3,17z"/>
		<path class="st1" d="M253.3,17.6c1.3-0.2,2.6-0.3,4-0.4l-0.1-1c-1.4,0.1-2.7,0.3-4,0.4L253.3,17.6z"/>
		<path class="st1" d="M179.7,73.4l0.9,0.5c0.6-1.2,1.2-2.3,1.8-3.5l-0.9-0.5C180.9,71.1,180.3,72.3,179.7,73.4z"/>
		<path class="st1" d="M265.2,16.7c1,0,2,0,3.1,0l0.9,0l0-1l-0.9,0c-1,0-2.1,0-3.1,0L265.2,16.7z"/>
		<path class="st1" d="M247.5,18.6c1.3-0.3,2.6-0.5,3.9-0.7l-0.2-1c-1.3,0.2-2.7,0.4-4,0.7L247.5,18.6z"/>
		<path class="st1" d="M174.7,84.4l0.9,0.4c0.5-1.2,1-2.4,1.5-3.7l-0.9-0.4C175.7,82,175.2,83.2,174.7,84.4z"/>
		<path class="st1" d="M219.9,29.7l0.6,0.8c1.1-0.8,2.2-1.5,3.3-2.2l-0.5-0.8C222.1,28.2,221,28.9,219.9,29.7z"/>
		<path class="st1" d="M241.7,20c1.2-0.4,2.5-0.7,3.8-1l-0.2-1c-1.3,0.3-2.6,0.7-3.9,1L241.7,20z"/>
		<path class="st1" d="M368,85.1l-1,0.3c0.4,1.2,0.8,2.5,1.2,3.8l1-0.3C368.8,87.6,368.4,86.3,368,85.1z"/>
		<path class="st1" d="M341.4,45.7c0.9,0.9,1.9,1.9,2.8,2.8l0.7-0.7c-0.9-1-1.9-1.9-2.8-2.8L341.4,45.7z"/>
		<path class="st1" d="M345.5,50c0.9,1,1.8,2,2.6,3l0.8-0.7c-0.9-1-1.8-2-2.7-3L345.5,50z"/>
		<path class="st1" d="M349.5,54.5c0.8,1,1.7,2.1,2.5,3.1l0.8-0.6c-0.8-1.1-1.6-2.1-2.5-3.1L349.5,54.5z"/>
		<path class="st1" d="M332.3,38c1.1,0.8,2.1,1.6,3.1,2.5l0.6-0.8c-1-0.8-2.1-1.7-3.2-2.5L332.3,38z"/>
		<path class="st1" d="M353.1,59.2c0.8,1.1,1.6,2.2,2.3,3.3l0.8-0.6c-0.8-1.1-1.5-2.2-2.3-3.3L353.1,59.2z"/>
		<path class="st1" d="M336.9,41.7c1,0.9,2,1.7,3,2.6l0.7-0.7c-1-0.9-2-1.8-3-2.7L336.9,41.7z"/>
		<path class="st1" d="M368.8,91.2c0.4,1.4,0.7,2.7,1,3.9l1-0.2c-0.3-1.2-0.6-2.5-1-3.9L368.8,91.2z"/>
		<path class="st1" d="M178,79.3c0.5-1.2,1.1-2.4,1.7-3.6l-0.9-0.4c-0.6,1.2-1.2,2.4-1.7,3.6L178,79.3z"/>
		<path class="st1" d="M364.2,78l0.9-0.4c-0.3-0.7-0.6-1.3-0.9-1.9c-0.3-0.6-0.6-1.1-0.8-1.7l-0.9,0.5c0.3,0.6,0.6,1.1,0.8,1.7
			C363.7,76.7,364,77.3,364.2,78z"/>
		<path class="st1" d="M366,79.4l-0.9,0.4c0.5,1.2,1,2.4,1.4,3.7l0.9-0.3C366.9,81.9,366.4,80.6,366,79.4z"/>
		<path class="st1" d="M327.4,34.5c1.1,0.7,2.2,1.5,3.3,2.3l0.6-0.8c-1.1-0.8-2.2-1.6-3.3-2.3L327.4,34.5z"/>
		<path class="st1" d="M356.5,64.1c0.7,1.1,1.4,2.2,2.1,3.4l0.9-0.5c-0.7-1.2-1.4-2.3-2.1-3.4L356.5,64.1z"/>
		<path class="st1" d="M306.2,23.6c1.2,0.5,2.5,1,3.7,1.5l0.4-0.9c-1.2-0.5-2.5-1-3.7-1.5L306.2,23.6z"/>
		<path class="st1" d="M271.2,16.7c1.3,0,2.7,0.1,4,0.2l0.1-1c-1.3-0.1-2.7-0.2-4-0.2L271.2,16.7z"/>
		<path class="st1" d="M277.2,17.1c1.3,0.1,2.7,0.3,4,0.4l0.1-1c-1.3-0.2-2.7-0.3-4-0.4L277.2,17.1z"/>
		<path class="st1" d="M289,18.7c1.3,0.3,2.6,0.5,3.9,0.8l0.2-1c-1.3-0.3-2.6-0.6-3.9-0.9L289,18.7z"/>
		<path class="st1" d="M283.1,17.7c1.3,0.2,2.6,0.4,3.9,0.6l0.2-1c-1.3-0.2-2.6-0.4-4-0.6L283.1,17.7z"/>
		<path class="st1" d="M230.2,23.5l0.5,0.9c1.2-0.6,2.4-1.2,3.6-1.7l-0.4-0.9C232.6,22.3,231.4,22.9,230.2,23.5z"/>
		<path class="st1" d="M235.7,21l0.4,0.9c1.2-0.5,2.5-0.9,3.7-1.4l-0.3-0.9C238.2,20.1,237,20.5,235.7,21z"/>
		<path class="st1" d="M224.9,26.4l0.5,0.9c1.2-0.7,2.3-1.4,3.5-2l-0.5-0.9C227.3,25.1,226.1,25.7,224.9,26.4z"/>
		<path class="st1" d="M317.1,28.5c1.2,0.6,2.4,1.2,3.5,1.9l0.5-0.9c-1.2-0.7-2.4-1.3-3.5-1.9L317.1,28.5z"/>
		<path class="st1" d="M311.7,25.9c1.2,0.5,2.4,1.1,3.6,1.7l0.4-0.9c-1.2-0.6-2.4-1.2-3.6-1.7L311.7,25.9z"/>
		<path class="st1" d="M300.6,21.7c1.3,0.4,2.5,0.8,3.8,1.3l0.3-0.9c-1.3-0.4-2.5-0.9-3.8-1.3L300.6,21.7z"/>
		<path class="st1" d="M294.8,20c1.3,0.3,2.6,0.7,3.8,1.1l0.3-1c-1.3-0.4-2.6-0.7-3.9-1.1L294.8,20z"/>
		<path class="st1" d="M322.4,31.3c1.1,0.7,2.3,1.4,3.4,2.1l0.5-0.8c-1.1-0.7-2.3-1.4-3.4-2.1L322.4,31.3z"/>
	</g>
</g>
</svg>
