<?xml version="1.0" encoding="utf-8"?>
<!-- Generator: Adobe Illustrator 20.1.0, SVG Export Plug-In . SVG Version: 6.00 Build 0)  -->
<svg version="1.1" xmlns="http://www.w3.org/2000/svg" xmlns:xlink="http://www.w3.org/1999/xlink" x="0px" y="0px"
	 viewBox="0 0 531.2 529.2" style="enable-background:new 0 0 531.2 529.2;" xml:space="preserve">
<style type="text/css">
	.st0{fill:#FFFFFF;}
	.st1{fill:#1A1A1A;}
</style>
<g id="back">
	<path class="st0" d="M526.6,289.7c0.5-2.3,2.7-11.4,3.4-12.2l0.1-0.1c0.1-0.1,0.1-0.1,0-0.2v0c-0.2-0.4-2.5-1.6-4.4-2.1l-0.1,0
		c-0.2,0-0.4-0.1-0.5-0.1l-0.4-0.1l0-0.4c0-0.3,0.1-0.8,0.1-1.3c0.7-5.8,2.7-23.5-8.5-35.9l-0.1-0.1l0-0.2l-1.2-19.5
		c0-0.4-0.2-0.8-0.5-1.1c-0.3-0.3-0.7-0.4-1.1-0.4l-4.5,0.3c-0.1,0-0.1,0-0.2,0l-0.3,0.1l-0.2-0.3c-3.7-6.1-10-17.9-10.3-18.4
		c-0.1-0.2-0.1-0.3-0.1-0.5c0.1-0.4,0.6-0.7,1.5-1.1c0.8-0.4,1.6-0.8,1.8-1.4c0.1-0.3,0-0.6-0.2-0.9c-0.2-0.2-0.9-1.6-2.3-4.3
		l-1.2-2.4l0.5-0.2c2-0.8,4.1-3.1,3.8-5c-0.2-1.1-1.5-3.4-3.1-6.2c-1.5-2.6-3.3-5.8-4.9-9.3c-3-6.4-5.9-5.2-8.4-4.2l-1,0.4L484,162
		c-18.7-33.8-35.8-60.3-50.8-78.8l-0.4-0.5l0.6-0.3c2.6-1.2,4.3-2.6,4.6-3.6c0.1-0.4,0-0.8-0.3-1.1c-0.7-0.8-2.4-2.6-4.4-4.7
		c-3.1-3.2-7-7.2-9.1-9.7c-1.7-2.1-3.3-3.2-4.7-3.3c-0.8-0.1-1.3,0.3-1.6,0.6c-0.7,0.7-2.3,2-3,2.5l-0.3,0.2l-0.3-0.3
		c-0.4-0.3-0.8-0.7-1.2-1C376.1,32,338.1,1,259.1,1c-34.2,0-72,13.9-109.5,40.3c-27.9,19.7-55.5,46.4-73.8,71.4
		c-10.1,13.8-20,30.5-29.5,49.7l-0.3,0.6l-0.5-0.5c-0.6-0.6-2.3-2.3-3.5-2.2c-0.4,0-0.7,0.3-0.9,0.7c-2.1,3.7-12.1,22.6-11.7,24.3
		c0.6,1.3,2.7,2.6,4.3,3l0.6,0.1l-0.2,0.5c-5.4,12.8-8.9,22.6-9.5,25c-0.3,1.1-1.3,3.8-3.3,8.3l-1,2.3v-5.1c0-0.9-0.7-1.6-1.6-1.6
		h-4.5c-0.9,0-1.6,0.7-1.6,1.6l0,22.9c-5.7,13.5-8.3,20.4-8.3,22.4c0,4.5,1.5,9.7,2,11.2l0.2,0.5l-0.5,0.1c-0.3,0.1-0.6,0.2-0.8,0.2
		l0,0c-1.1,0.3-2.7,0.8-3.7,1.1c-1,0.3-0.8,4.8,0.3,8.5c0.4,1.3,1.5,4.3,3.1,3.9c0.5-0.1,1-0.2,1.5-0.2c0.8,0,1.6,0.2,2.2,0.7
		c1.4,1,2.2,3,2.3,5.7c0,0.5,0,2.1,0.1,4.4c0.2,9.9,0.5,32.9,1.7,35.6c1,2.3,6.6,4.2,11.4,5.1l0.4,0.1l0,0.4
		c-0.3,21.8-0.9,59.4-1.2,67.1c-0.2,6.2-0.3,17.6-0.1,30.5c0,0-0.1,4.1,0.1,5.8c0.2,11.6,0.6,22.5,1,30.6c1.8,33,27.5,49.7,78.8,51
		c14.9,0.4,30.3,0.6,47.1,0.6c27.9,0,53.9-0.5,76.8-1l0.7,0c17.1-0.3,31.8-0.6,42.6-0.6c11.1,0.1,30.9,0,53.8-0.1
		c43-0.2,96.5-0.4,111.9,0.3c11.2,0.5,39-0.4,56.8-18.4c11.9-12.1,17.2-29.8,15.9-52.6c-2.6-43.5-3.6-91-3.9-115.5l0-0.5h9.6
		c3.1,0,3.4-6.6,3.4-11.5c0-7,1.1-35.4,2.6-37.9l0.1-0.2l0.3,0c0.6,0,1.3,0.2,2.1,0.5c1.2,0.4,2.5,0.8,3.2,0.3
		C526.4,290.3,526.6,290.1,526.6,289.7z M509.8,259.3c-0.5,0.5-0.8,1.1-1.1,1.7c-0.8,1.4-1.7,2.9-5.5,4.7l-0.5,0.3l-0.1-0.6
		c-1-4-2.3-6.4-3.8-6.9c-6.7-2.4-19-2.2-31-2.1c-2.6,0-5.2,0-7.7,0c-2.5,0-8.9,0-17.9,0l-0.5,0c-43.9,0.1-146.7,0.3-172.4-0.2
		c-18.5-0.4-193.7-2-213-2c-18.4,0-30.5,0-30.5,7.8c0,0.6,0,2.2,0,4.6l0,1.5l-0.9-1.2c-1.2-1.6-3.2-4.4-3.7-5.2l-0.6,0.1l0-0.6
		l0-24.1c0.9-2.6,8.9-25.3,11.7-30.3l0.4-0.7l0.5,0.7c0.4,0.6,1.4,1.7,3.4,1.7c2.9,0,3.9-1.9,7.3-8.2l0.5-1c0.4-0.7,1.1-2.2,2.2-4.2
		c27.1-52.2,49-86.6,65.2-102.2c25.9-25,55.3-53.3,94-69c41.5-16.8,84-15.2,137.8,5.3C405,52.4,458.5,134.1,478.1,174
		c10.5,21.2,18.6,34,24,42.5c3.1,4.9,5.1,8.1,5.9,10.3l0,0.1l1.9,32.2L509.8,259.3z"/>
</g>
<g id="lines">
	<g>
		
			<rect x="147.6" y="521.1" transform="matrix(4.880372e-03 -1 1 4.880372e-03 -375.7485 668.6173)" class="st1" width="1" height="4"/>
		<path class="st1" d="M140.1,523.5c1.3,0,2.7,0,4,0l0-1c-1.3,0-2.7,0-4,0L140.1,523.5z"/>
		<path class="st1" d="M134.1,523.5c1.3,0,2.7,0,4,0l0-1c-1.3,0-2.7,0-4,0L134.1,523.5z"/>
		<path class="st1" d="M152.1,523.6c1.3,0,2.7,0,4,0v-1c-1.3,0-2.7,0-4,0L152.1,523.6z"/>
		<path class="st1" d="M110,522.9c1.3,0,2.7,0.1,4,0.1l0-1c-1.3,0-2.7-0.1-4-0.1L110,522.9z"/>
		
			<rect x="129.6" y="520.9" transform="matrix(1.635124e-02 -0.9999 0.9999 1.635124e-02 -394.9091 644.4022)" class="st1" width="1" height="4"/>
		<path class="st1" d="M116,523.1c1.3,0,2.7,0.1,4,0.1l0-1c-1.3,0-2.7-0.1-4-0.1L116,523.1z"/>
		<path class="st1" d="M122,523.3c1.3,0,2.7,0.1,4,0.1l0-1c-1.3,0-2.7-0.1-4-0.1L122,523.3z"/>
		<rect x="170.1" y="522.6" transform="matrix(1 -6.835778e-03 6.835778e-03 1 -3.5716 1.1886)" class="st1" width="4" height="1"/>
		
			<rect x="200.1" y="522.2" transform="matrix(0.9999 -1.562309e-02 1.562309e-02 0.9999 -8.1416 3.2217)" class="st1" width="4" height="1"/>
		<rect x="164.1" y="522.6" transform="matrix(1 -3.906220e-03 3.906220e-03 1 -2.0421 0.6527)" class="st1" width="4" height="1"/>
		
			<rect x="194.1" y="522.3" transform="matrix(0.9999 -1.367060e-02 1.367060e-02 0.9999 -7.1286 2.73)" class="st1" width="4" height="1"/>
		<polygon class="st1" points="212.2,522.1 212.1,522.6 212.2,523.1 216.1,523 216.1,522 		"/>
		
			<rect x="206.1" y="522.1" transform="matrix(0.9999 -1.562309e-02 1.562309e-02 0.9999 -8.1395 3.3154)" class="st1" width="4" height="1"/>
		
			<rect x="188.1" y="522.4" transform="matrix(0.9999 -1.269429e-02 1.269429e-02 0.9999 -6.6223 2.4556)" class="st1" width="4" height="1"/>
		<rect x="176.1" y="522.5" transform="matrix(1 -8.788723e-03 8.788723e-03 1 -4.5898 1.5855)" class="st1" width="4" height="1"/>
		<path class="st1" d="M104,522.7c1.3,0,2.7,0.1,4,0.1l0-1c-1.3,0-2.7-0.1-4-0.1L104,522.7z"/>
		
			<rect x="182.1" y="522.5" transform="matrix(0.9999 -1.074157e-02 1.074157e-02 0.9999 -5.6067 2.0078)" class="st1" width="4" height="1"/>
		<rect x="158.1" y="522.6" class="st1" width="4" height="1"/>
		<path class="st1" d="M31.7,482.8l-1,0.3c0.3,1.3,0.7,2.6,1.1,3.9l0.9-0.3C32.4,485.4,32,484.1,31.7,482.8z"/>
		<path class="st1" d="M32.5,488.8c0.5,1.3,1,2.5,1.6,3.7l0.9-0.4c-0.6-1.2-1.1-2.4-1.5-3.6L32.5,488.8z"/>
		<path class="st1" d="M98,522.5c1.3,0.1,2.7,0.1,4,0.2l0-1c-1.3,0-2.7-0.1-4-0.2L98,522.5z"/>
		<path class="st1" d="M35,494.3c0.6,1.2,1.3,2.4,2,3.5l0.8-0.5c-0.7-1.1-1.4-2.2-2-3.4L35,494.3z"/>
		<path class="st1" d="M29.6,471.1l-1,0.1c0.1,1.4,0.3,2.7,0.5,4l1-0.1C29.9,473.8,29.8,472.4,29.6,471.1z"/>
		
			<rect x="218.1" y="521.9" transform="matrix(0.9999 -1.562309e-02 1.562309e-02 0.9999 -8.1351 3.5029)" class="st1" width="4" height="1"/>
		<path class="st1" d="M28.9,459.1l-1,0c0,1.3,0.1,2.7,0.1,4l1,0C29,461.8,29,460.5,28.9,459.1z"/>
		<path class="st1" d="M29.2,465.1l-1,0.1c0.1,1.3,0.2,2.7,0.3,4l1-0.1C29.3,467.8,29.2,466.4,29.2,465.1z"/>
		<path class="st1" d="M38.2,499.5c0.8,1.1,1.6,2.1,2.5,3.2l0.8-0.7c-0.9-1-1.7-2-2.5-3.1L38.2,499.5z"/>
		<path class="st1" d="M30.4,477l-1,0.2c0.2,1.4,0.5,2.7,0.8,3.9l1-0.2C30.9,479.6,30.7,478.3,30.4,477z"/>
		<path class="st1" d="M74.1,519.9c1.3,0.3,2.6,0.5,3.9,0.7l0.2-1c-1.3-0.2-2.6-0.5-3.9-0.7L74.1,519.9z"/>
		<path class="st1" d="M68.3,518.5c1.3,0.3,2.6,0.7,3.9,1l0.2-1c-1.3-0.3-2.6-0.6-3.9-1L68.3,518.5z"/>
		<path class="st1" d="M86,521.7c1.3,0.1,2.6,0.3,4,0.4l0.1-1c-1.4-0.1-2.7-0.2-4-0.4L86,521.7z"/>
		<path class="st1" d="M92,522.2c1.3,0.1,2.6,0.2,4,0.2l0-1c-1.4-0.1-2.7-0.1-4-0.2L92,522.2z"/>
		<path class="st1" d="M56.9,514.4c1.2,0.5,2.4,1.1,3.7,1.6L61,515c-1.3-0.5-2.5-1-3.6-1.5L56.9,514.4z"/>
		<path class="st1" d="M46.6,508.2c1,0.8,2.1,1.6,3.3,2.3l0.5-0.8c-1.1-0.7-2.2-1.5-3.2-2.3L46.6,508.2z"/>
		<path class="st1" d="M51.6,511.6c1.1,0.7,2.3,1.3,3.5,1.9l0.4-0.9c-1.2-0.6-2.4-1.2-3.5-1.9L51.6,511.6z"/>
		<path class="st1" d="M62.5,516.7c1.2,0.4,2.5,0.9,3.8,1.2l0.3-1c-1.3-0.4-2.6-0.8-3.8-1.2L62.5,516.7z"/>
		<path class="st1" d="M42.1,504.1c0.9,1,1.9,1.9,2.9,2.8l0.6-0.8c-1-0.9-2-1.8-2.9-2.7L42.1,504.1z"/>
		<path class="st1" d="M80.1,520.9c1.3,0.2,2.6,0.4,4,0.5l0.1-1c-1.3-0.2-2.7-0.3-3.9-0.5L80.1,520.9z"/>
		<path class="st1" d="M441,520.5l-0.9,0l0,1l0.9,0c1,0,2.1,0,3.2-0.1l0-1C443.1,520.5,442,520.5,441,520.5z"/>
		<path class="st1" d="M434.1,521.4c1.5,0,2.8,0.1,4,0.1l0-1c-1.2,0-2.5-0.1-4-0.1L434.1,521.4z"/>
		<path class="st1" d="M446.1,520.3l0.1,1c1.3-0.1,2.7-0.2,4-0.4l-0.1-1C448.8,520.1,447.4,520.2,446.1,520.3z"/>
		<path class="st1" d="M452,519.6l0.2,1c1.3-0.2,2.6-0.5,4-0.7l-0.2-1C454.6,519.2,453.3,519.4,452,519.6z"/>
		<path class="st1" d="M428.1,521.3c1.4,0,2.7,0,4,0.1l0-1c-1.3,0-2.6,0-4-0.1L428.1,521.3z"/>
		<path class="st1" d="M457.9,518.5l0.2,1c1.3-0.3,2.6-0.7,3.9-1.1l-0.3-1C460.5,517.8,459.2,518.1,457.9,518.5z"/>
		<rect x="392.1" y="520.3" transform="matrix(1 -7.812262e-03 7.812262e-03 1 -4.0568 3.095)" class="st1" width="4" height="1"/>
		<rect x="404.1" y="520.2" transform="matrix(1 -5.859274e-03 5.859274e-03 1 -3.0442 2.3887)" class="st1" width="4" height="1"/>
		<rect x="398.1" y="520.3" transform="matrix(1 -7.812262e-03 7.812262e-03 1 -4.0562 3.1419)" class="st1" width="4" height="1"/>
		<path class="st1" d="M463.6,516.8l0.3,0.9c1.3-0.4,2.6-0.9,3.8-1.4l-0.4-0.9C466.1,515.9,464.9,516.4,463.6,516.8z"/>
		<rect x="410.1" y="520.2" transform="matrix(1 -1.953121e-03 1.953121e-03 1 -1.0163 0.806)" class="st1" width="4" height="1"/>
		<path class="st1" d="M422.2,521.2c1.4,0,2.7,0,4,0l0-1c-1.3,0-2.6,0-4,0L422.2,521.2z"/>
		<rect x="416.2" y="520.2" class="st1" width="4" height="1"/>
		<path class="st1" d="M479.6,509l0.6,0.8c1.1-0.8,2.2-1.6,3.3-2.4l-0.6-0.8C481.8,507.5,480.7,508.3,479.6,509z"/>
		<path class="st1" d="M501.9,475.2l1,0.2c0.3-1.3,0.5-2.6,0.7-4l-1-0.1C502.4,472.6,502.2,474,501.9,475.2z"/>
		<path class="st1" d="M500.5,481l1,0.3c0.4-1.3,0.7-2.6,1.1-3.9l-1-0.2C501.2,478.5,500.9,479.8,500.5,481z"/>
		<path class="st1" d="M498.4,486.6l0.9,0.4c0.5-1.2,1-2.5,1.5-3.8l-0.9-0.3C499.4,484.1,498.9,485.4,498.4,486.6z"/>
		<path class="st1" d="M469.2,514.7l0.4,0.9c1.2-0.5,2.5-1.1,3.7-1.7l-0.4-0.9C471.6,513.6,470.4,514.2,469.2,514.7z"/>
		<path class="st1" d="M502.9,469.4l1,0.1c0.1-1.3,0.3-2.7,0.3-4l-1-0.1C503.1,466.7,503,468.1,502.9,469.4z"/>
		<path class="st1" d="M503.3,459.4c0,0.6,0,1.1,0,1.7c0,0.8,0,1.5,0,2.3l1,0c0-0.8,0-1.5,0-2.3c0-0.6,0-1.1,0-1.7L503.3,459.4z"/>
		<path class="st1" d="M495.8,491.9l0.9,0.5c0.7-1.2,1.3-2.4,1.9-3.6l-0.9-0.4C497,489.5,496.4,490.7,495.8,491.9z"/>
		<rect x="386.1" y="520.4" transform="matrix(1 -9.765159e-03 9.765159e-03 1 -5.0679 3.815)" class="st1" width="4" height="1"/>
		<path class="st1" d="M474.5,512.1l0.5,0.9c1.2-0.6,2.4-1.3,3.5-2l-0.5-0.8C476.9,510.8,475.7,511.5,474.5,512.1z"/>
		<path class="st1" d="M484.4,505.4l0.6,0.8c1-0.9,2-1.8,3-2.7l-0.7-0.7C486.3,503.7,485.4,504.6,484.4,505.4z"/>
		<path class="st1" d="M488.7,501.4l0.7,0.7c0.9-1,1.8-2,2.7-3l-0.8-0.6C490.5,499.4,489.6,500.4,488.7,501.4z"/>
		<path class="st1" d="M492.5,496.8l0.8,0.6c0.8-1.1,1.6-2.2,2.3-3.3l-0.8-0.5C494,494.7,493.3,495.8,492.5,496.8z"/>
		<polygon class="st1" points="270,521.5 266.1,521.5 266.1,522.5 270.1,522.5 270.1,522 		"/>
		<rect x="284.1" y="521.4" transform="matrix(1 -5.859274e-03 5.859274e-03 1 -3.0532 1.6852)" class="st1" width="4" height="1"/>
		
			<rect x="230.1" y="521.8" transform="matrix(0.9999 -1.367060e-02 1.367060e-02 0.9999 -7.1178 3.2221)" class="st1" width="4" height="1"/>
		<rect x="248.1" y="521.6" transform="matrix(1 -7.812262e-03 7.812262e-03 1 -4.0708 1.9698)" class="st1" width="4" height="1"/>
		<rect x="296.1" y="521.3" transform="matrix(1 -7.812262e-03 7.812262e-03 1 -4.0676 2.3447)" class="st1" width="4" height="1"/>
		<rect x="290.1" y="521.4" transform="matrix(1 -7.812262e-03 7.812262e-03 1 -4.0682 2.2978)" class="st1" width="4" height="1"/>
		<path class="st1" d="M254.1,521.5l0,1c1.3,0,2.7,0,4,0l0-1C256.7,521.5,255.4,521.5,254.1,521.5z"/>
		
			<rect x="224.1" y="521.8" transform="matrix(0.9999 -1.464687e-02 1.464687e-02 0.9999 -7.6263 3.3681)" class="st1" width="4" height="1"/>
		<polygon class="st1" points="260.1,522.5 264.1,522.5 264.1,521.5 260.1,521.5 		"/>
		
			<rect x="242.1" y="521.6" transform="matrix(0.9999 -1.025337e-02 1.025337e-02 0.9999 -5.3406 2.5304)" class="st1" width="4" height="1"/>
		<rect x="272.1" y="521.5" transform="matrix(1 -3.906220e-03 3.906220e-03 1 -2.0369 1.0746)" class="st1" width="4" height="1"/>
		<rect x="278.1" y="521.5" transform="matrix(1 -3.906220e-03 3.906220e-03 1 -2.0367 1.098)" class="st1" width="4" height="1"/>
		<rect x="302.1" y="521.3" transform="matrix(1 -9.765159e-03 9.765159e-03 1 -5.0808 2.9944)" class="st1" width="4" height="1"/>
		
			<rect x="236.1" y="521.7" transform="matrix(0.9999 -1.269429e-02 1.269429e-02 0.9999 -6.6095 3.0648)" class="st1" width="4" height="1"/>
		
			<rect x="338.1" y="520.9" transform="matrix(0.9999 -1.171795e-02 1.171795e-02 0.9999 -6.0863 4.0211)" class="st1" width="4" height="1"/>
		
			<rect x="356.1" y="520.7" transform="matrix(0.9999 -1.171795e-02 1.171795e-02 0.9999 -6.0826 4.2322)" class="st1" width="4" height="1"/>
		
			<rect x="350.1" y="520.8" transform="matrix(0.9999 -1.171795e-02 1.171795e-02 0.9999 -6.0838 4.1619)" class="st1" width="4" height="1"/>
		
			<rect x="362.1" y="520.6" transform="matrix(0.9999 -1.171795e-02 1.171795e-02 0.9999 -6.0814 4.3026)" class="st1" width="4" height="1"/>
		
			<rect x="344.1" y="520.8" transform="matrix(0.9999 -1.171795e-02 1.171795e-02 0.9999 -6.0851 4.0916)" class="st1" width="4" height="1"/>
		
			<rect x="368.1" y="520.6" transform="matrix(0.9999 -1.171795e-02 1.171795e-02 0.9999 -6.0802 4.3729)" class="st1" width="4" height="1"/>
		<rect x="374.1" y="520.5" transform="matrix(1 -9.765159e-03 9.765159e-03 1 -5.0696 3.6978)" class="st1" width="4" height="1"/>
		<polygon class="st1" points="326.1,521.1 326.1,522.1 330.1,522 330.1,521 		"/>
		<rect x="314.1" y="521.2" transform="matrix(1 -9.765159e-03 9.765159e-03 1 -5.079 3.1117)" class="st1" width="4" height="1"/>
		
			<rect x="320.1" y="521.1" transform="matrix(0.9999 -1.171795e-02 1.171795e-02 0.9999 -6.0899 3.8101)" class="st1" width="4" height="1"/>
		
			<rect x="332.1" y="521" transform="matrix(0.9999 -1.171795e-02 1.171795e-02 0.9999 -6.0875 3.9506)" class="st1" width="4" height="1"/>
		<rect x="308.1" y="521.2" transform="matrix(1 -9.765159e-03 9.765159e-03 1 -5.0799 3.053)" class="st1" width="4" height="1"/>
		<rect x="380.1" y="520.4" transform="matrix(1 -9.765159e-03 9.765159e-03 1 -5.0687 3.7564)" class="st1" width="4" height="1"/>
		<rect x="341" y="448.5" class="st1" width="4" height="1"/>
		<rect x="371.1" y="448.5" class="st1" width="4" height="1"/>
		<rect x="377.1" y="448.5" class="st1" width="4" height="1"/>
		<rect x="383.1" y="448.5" class="st1" width="4" height="1"/>
		<rect x="347.1" y="448.5" class="st1" width="4" height="1"/>
		<rect x="389.1" y="448.5" class="st1" width="4" height="1"/>
		<rect x="353.1" y="448.5" class="st1" width="4" height="1"/>
		<rect x="365.1" y="448.5" class="st1" width="4" height="1"/>
		<rect x="359.1" y="448.5" class="st1" width="4" height="1"/>
		<rect x="281" y="448.5" class="st1" width="4" height="1"/>
		<rect x="257" y="448.5" class="st1" width="4" height="1"/>
		<rect x="263" y="448.5" class="st1" width="4" height="1"/>
		<rect x="269" y="448.5" class="st1" width="4" height="1"/>
		<rect x="275" y="448.5" class="st1" width="4" height="1"/>
		<rect x="251" y="448.5" class="st1" width="4" height="1"/>
		<rect x="239" y="448.5" class="st1" width="4" height="1"/>
		<rect x="245" y="448.5" class="st1" width="4" height="1"/>
		<rect x="395.1" y="448.5" class="st1" width="4" height="1"/>
		<rect x="293" y="448.5" class="st1" width="4" height="1"/>
		<rect x="317" y="448.5" class="st1" width="4" height="1"/>
		<rect x="323" y="448.5" class="st1" width="4" height="1"/>
		<rect x="329" y="448.5" class="st1" width="4" height="1"/>
		<rect x="311" y="448.5" class="st1" width="4" height="1"/>
		<rect x="287" y="448.5" class="st1" width="4" height="1"/>
		<rect x="335" y="448.5" class="st1" width="4" height="1"/>
		<rect x="299" y="448.5" class="st1" width="4" height="1"/>
		<rect x="305" y="448.5" class="st1" width="4" height="1"/>
		<path class="st1" d="M499,320.9l1,0c0-1.3,0.1-2.7,0.1-4l-1,0C499.1,318.3,499,319.6,499,320.9z"/>
		<path class="st1" d="M498.9,326.9l1,0c0-1.3,0.1-2.6,0.1-4l-1,0C498.9,324.3,498.9,325.6,498.9,326.9z"/>
		<path class="st1" d="M498.7,332.9l1,0c0-1.3,0.1-2.6,0.1-4l-1,0C498.8,330.3,498.7,331.6,498.7,332.9z"/>
		<path class="st1" d="M485.3,448.5l0,1c1.1,0,2.6,0,4-0.2l-0.1-1C487.9,448.5,486.4,448.5,485.3,448.5z"/>
		<path class="st1" d="M499.4,429l1,0c0-1.2-0.1-2.6-0.1-4l-1,0C499.3,426.4,499.3,427.7,499.4,429z"/>
		<path class="st1" d="M498.8,380.9c0-1.3-0.1-2.7-0.1-4l-1,0c0,1.3,0.1,2.7,0.1,4L498.8,380.9z"/>
		<path class="st1" d="M498.4,338.9l1,0c0.1-1.3,0.1-2.6,0.2-4l-1,0C498.5,336.3,498.5,337.6,498.4,338.9z"/>
		<rect x="233" y="448.5" class="st1" width="4" height="1"/>
		<path class="st1" d="M500.2,310.9l-1,0c0,1.3,0,2.7,0,4l1,0C500.1,313.6,500.2,312.3,500.2,310.9z"/>
		<path class="st1" d="M498.2,344.9l1,0c0.1-1.3,0.1-2.6,0.2-4l-1,0C498.3,342.3,498.2,343.6,498.2,344.9z"/>
		<path class="st1" d="M498.6,368.9c0-1.4,0-2.7,0-4l-1,0c0,1.3,0,2.6,0,4L498.6,368.9z"/>
		<path class="st1" d="M498.7,374.9c0-1.4,0-2.7-0.1-4l-1,0c0,1.3,0,2.6,0.1,4L498.7,374.9z"/>
		<path class="st1" d="M497.6,362.9l1,0c0-1.4,0-2.7,0-4l-1,0C497.6,360.2,497.6,361.5,497.6,362.9z"/>
		<path class="st1" d="M497.9,350.9l1,0.1c0.1-1.2,0.1-2.5,0.2-4l-1,0C498,348.4,498,349.7,497.9,350.9z"/>
		<path class="st1" d="M497.6,356.9l1,0c0-1.4,0.1-2.8,0.1-4l-1,0C497.7,354.1,497.7,355.5,497.6,356.9z"/>
		<rect x="419.1" y="448.5" class="st1" width="4" height="1"/>
		<rect x="401.1" y="448.5" class="st1" width="4" height="1"/>
		<rect x="425.1" y="448.5" class="st1" width="4" height="1"/>
		<rect x="431.1" y="448.5" class="st1" width="4" height="1"/>
		<rect x="437.1" y="448.5" class="st1" width="4" height="1"/>
		<rect x="479.2" y="448.5" class="st1" width="4.1" height="1"/>
		<rect x="413.1" y="448.5" class="st1" width="4" height="1"/>
		<rect x="407.1" y="448.5" class="st1" width="4" height="1"/>
		<rect x="461.2" y="448.5" class="st1" width="4" height="1"/>
		<rect x="467.2" y="448.5" class="st1" width="4" height="1"/>
		<rect x="473.2" y="448.5" class="st1" width="4" height="1"/>
		<rect x="449.1" y="448.5" class="st1" width="4" height="1"/>
		<rect x="443.1" y="448.5" class="st1" width="4" height="1"/>
		<rect x="455.2" y="448.5" class="st1" width="4" height="1"/>
		<path class="st1" d="M491.2,448.1l0.2,1c1.6-0.3,2.8-0.7,3.9-1.3l-0.5-0.9C493.8,447.4,492.7,447.8,491.2,448.1z"/>
		<path class="st1" d="M30.2,288.6c0-1.1,0-2.2,0-3.3l0-0.7l-1,0l0,0.7c0,1.1,0,2.2,0,3.3L30.2,288.6z"/>
		<path class="st1" d="M30.9,260.6l-1-0.1c-0.1,1.2-0.2,2.6-0.3,4l1,0.1C30.7,263.2,30.8,261.8,30.9,260.6z"/>
		
			<rect x="27.8" y="382.1" transform="matrix(4.492040e-02 -0.999 0.999 4.492040e-02 -353.7823 395.1806)" class="st1" width="4" height="1"/>
		
			<rect x="27.2" y="394.1" transform="matrix(4.297103e-02 -0.9991 0.9991 4.297103e-02 -366.2668 406.8888)" class="st1" width="4" height="1"/>
		<path class="st1" d="M30.6,266.6l-1,0c-0.1,1.3-0.1,2.6-0.1,4l1,0C30.5,269.2,30.5,267.9,30.6,266.6z"/>
		
			<rect x="27" y="400.1" transform="matrix(4.297103e-02 -0.9991 0.9991 4.297103e-02 -372.507 412.365)" class="st1" width="4" height="1"/>
		<path class="st1" d="M30.4,272.6l-1,0c0,1.3-0.1,2.6-0.1,4l1,0C30.3,275.2,30.3,273.9,30.4,272.6z"/>
		<path class="st1" d="M30.3,278.6l-1,0c0,1.3,0,2.6,0,4l1,0C30.2,281.2,30.3,279.9,30.3,278.6z"/>
		
			<rect x="27.5" y="388.1" transform="matrix(4.492040e-02 -0.999 0.999 4.492040e-02 -360.0324 400.6452)" class="st1" width="4" height="1"/>
		<path class="st1" d="M28.4,435l0-0.4l-1,0l0,0.4c0,1.3,0,2.6,0,3.7l1,0C28.4,437.6,28.4,436.3,28.4,435z"/>
		<path class="st1" d="M28.5,428.6l-1,0c0,1.4,0,2.8-0.1,4l1,0C28.4,431.4,28.5,430.1,28.5,428.6z"/>
		<path class="st1" d="M28.9,443.4c-0.1-0.5-0.3-1.4-0.3-2.8l-1,0.1c0.1,1.4,0.2,2.4,0.4,3c0.1,0.4,0.2,0.7,0.3,1.1l0.9-0.3
			C29.1,444.1,29,443.8,28.9,443.4z"/>
		<path class="st1" d="M28.6,422.6l-1,0c0,1.4-0.1,2.7-0.1,4l1,0C28.6,425.4,28.6,424,28.6,422.6z"/>
		
			<rect x="26.7" y="406.1" transform="matrix(4.102116e-02 -0.9992 0.9992 4.102116e-02 -378.7233 418.652)" class="st1" width="4" height="1"/>
		<rect x="227" y="448.5" class="st1" width="4" height="1"/>
		<path class="st1" d="M28.8,416.6l-1,0c0,1.4-0.1,2.7-0.1,4l1,0C28.8,419.3,28.8,418,28.8,416.6z"/>
		<path class="st1" d="M30.4,300.6c0-1.3,0-2.7-0.1-4l-1,0c0,1.3,0,2.7,0.1,4L30.4,300.6z"/>
		
			<rect x="29.7" y="314.6" transform="matrix(0.9997 -2.317581e-02 2.317581e-02 0.9997 -7.3287 0.784)" class="st1" width="1" height="4"/>
		
			<rect x="29.8" y="320.6" transform="matrix(0.9997 -2.524817e-02 2.524817e-02 0.9997 -8.1347 0.868)" class="st1" width="1" height="4"/>
		<path class="st1" d="M30.5,306.6c0-1.3,0-2.7-0.1-4l-1,0c0,1.3,0,2.7,0.1,4L30.5,306.6z"/>
		
			<rect x="29.5" y="308.6" transform="matrix(0.9998 -2.036163e-02 2.036163e-02 0.9998 -6.3174 0.6758)" class="st1" width="1" height="4"/>
		<path class="st1" d="M30.4,346.7c0,0.5,0,1.1,0,1.8v0.1h1v-0.1c0-0.7,0-1.3,0-1.8c0-0.6,0-1.3,0-2.1l-1,0
			C30.4,345.4,30.4,346.1,30.4,346.7z"/>
		<path class="st1" d="M29.2,290.6c0,1.3,0,2.7,0,4l1,0c0-1.3,0-2.7,0-4L29.2,290.6z"/>
		
			<rect x="30" y="326.6" transform="matrix(0.9996 -2.733353e-02 2.733353e-02 0.9996 -8.9697 0.9555)" class="st1" width="1" height="4"/>
		<path class="st1" d="M30,446.1l-0.8,0.5c0.8,1.2,1.8,1.9,3.6,2.3l0.2-1C31.4,447.7,30.6,447.1,30,446.1z"/>
		
			<rect x="30.3" y="338.6" transform="matrix(0.9997 -2.538244e-02 2.538244e-02 0.9997 -8.6349 0.8913)" class="st1" width="1" height="4"/>
		<path class="st1" d="M31.4,350.6l-1,0c0,1.2,0,2.6-0.1,4l1,0C31.4,353.2,31.4,351.8,31.4,350.6z"/>
		
			<rect x="30.1" y="332.6" transform="matrix(0.9996 -2.733353e-02 2.733353e-02 0.9996 -9.1337 0.9622)" class="st1" width="1" height="4"/>
		<path class="st1" d="M31.1,362.6l-1,0c0,1.3-0.1,2.6-0.2,4l1,0C31,365.3,31.1,363.9,31.1,362.6z"/>
		
			<rect x="28.3" y="370.1" transform="matrix(3.907083e-02 -0.9992 0.9992 3.907083e-02 -341.2108 386.4061)" class="st1" width="4" height="1"/>
		<path class="st1" d="M31.3,356.6l-1,0c0,1.3-0.1,2.6-0.1,4l1,0C31.2,359.2,31.3,357.9,31.3,356.6z"/>
		
			<rect x="28" y="376.1" transform="matrix(4.297103e-02 -0.9991 0.9991 4.297103e-02 -347.5083 390.4474)" class="st1" width="4" height="1"/>
		
			<rect x="26.5" y="412.1" transform="matrix(3.907083e-02 -0.9992 0.9992 3.907083e-02 -384.9266 424.9764)" class="st1" width="4" height="1"/>
		<rect x="160.9" y="448.5" class="st1" width="4" height="1"/>
		<rect x="167" y="448.5" class="st1" width="4" height="1"/>
		<rect x="173" y="448.5" class="st1" width="4" height="1"/>
		<rect x="154.9" y="448.5" class="st1" width="4" height="1"/>
		<rect x="136.9" y="448.5" class="st1" width="4" height="1"/>
		<rect x="179" y="448.5" class="st1" width="4" height="1"/>
		<rect x="148.9" y="448.5" class="st1" width="4" height="1"/>
		<rect x="142.9" y="448.5" class="st1" width="4" height="1"/>
		<rect x="221" y="448.5" class="st1" width="4" height="1"/>
		<rect x="215" y="448.5" class="st1" width="4" height="1"/>
		<rect x="130.9" y="448.5" class="st1" width="4" height="1"/>
		<rect x="209" y="448.5" class="st1" width="4" height="1"/>
		<rect x="203" y="448.5" class="st1" width="4" height="1"/>
		<rect x="191" y="448.5" class="st1" width="4" height="1"/>
		<rect x="197" y="448.5" class="st1" width="4" height="1"/>
		<rect x="185" y="448.5" class="st1" width="4" height="1"/>
		<rect x="82.9" y="448.5" class="st1" width="4" height="1"/>
		<rect x="64.8" y="448.5" class="st1" width="4" height="1"/>
		<rect x="58.8" y="448.5" class="st1" width="4" height="1"/>
		<rect x="70.8" y="448.5" class="st1" width="4" height="1"/>
		<rect x="124.9" y="448.5" class="st1" width="4" height="1"/>
		<path class="st1" d="M42.5,448.5c-0.6,0-1.2,0-1.7,0l0,1c0.6,0,1.1,0,1.8,0l2.2,0l0-1L42.5,448.5z"/>
		<polygon class="st1" points="46.8,449.5 50.8,449.5 50.8,448.5 46.7,448.5 		"/>
		<rect x="76.9" y="448.5" class="st1" width="4" height="1"/>
		<rect x="52.8" y="448.5" class="st1" width="4" height="1"/>
		<rect x="112.9" y="448.5" class="st1" width="4" height="1"/>
		<rect x="106.9" y="448.5" class="st1" width="4" height="1"/>
		<rect x="118.9" y="448.5" class="st1" width="4" height="1"/>
		<rect x="88.9" y="448.5" class="st1" width="4" height="1"/>
		<path class="st1" d="M34.7,449.3c1,0.1,2.3,0.2,4,0.2l0-1c-1.7,0-2.9-0.1-4-0.2L34.7,449.3z"/>
		<rect x="100.9" y="448.5" class="st1" width="4" height="1"/>
		<rect x="94.9" y="448.5" class="st1" width="4" height="1"/>
		<path class="st1" d="M499.1,296.9l1,0c0-1.3,0-2.7-0.1-4l-1,0C499.1,294.3,499.1,295.6,499.1,296.9z"/>
		<path class="st1" d="M497.9,273l1-0.1c-0.1-1.4-0.3-2.7-0.5-4l-1,0.1C497.6,270.3,497.8,271.6,497.9,273z"/>
		<path class="st1" d="M498.4,279l1-0.1c-0.1-1.4-0.2-2.7-0.3-4l-1,0.1C498.2,276.3,498.3,277.6,498.4,279z"/>
		<path class="st1" d="M498.8,285l1,0c-0.1-1.4-0.1-2.7-0.2-4l-1,0.1C498.7,282.3,498.7,283.6,498.8,285z"/>
		<path class="st1" d="M498.1,266.9c-0.2-1.4-0.5-2.8-0.8-4l-1,0.2c0.3,1.2,0.5,2.5,0.8,3.9L498.1,266.9z"/>
		<path class="st1" d="M499,386.9c0-1.3-0.1-2.7-0.1-4l-1,0c0,1.3,0.1,2.7,0.1,4L499,386.9z"/>
		<path class="st1" d="M496.3,445.8l0.7,0.7c1-0.9,1.7-2.1,2.3-3.5l-0.9-0.4C497.9,443.9,497.2,445,496.3,445.8z"/>
		<path class="st1" d="M499,290.9l1,0c0-1.4-0.1-2.7-0.1-4l-1,0C498.9,288.3,499,289.6,499,290.9z"/>
		<path class="st1" d="M499.4,431c0,1.5,0.1,2.9,0.1,4l1,0c0-1.1,0-2.5-0.1-4L499.4,431z"/>
		<path class="st1" d="M498.9,440.8l1,0.2c0.3-1.2,0.5-2.6,0.5-4l-1,0C499.4,438.4,499.2,439.7,498.9,440.8z"/>
		
			<rect x="499.1" y="419" transform="matrix(0.9995 -3.290899e-02 3.290899e-02 0.9995 -13.5829 16.6703)" class="st1" width="1" height="4"/>
		
			<rect x="498.3" y="395" transform="matrix(0.9995 -3.294110e-02 3.294110e-02 0.9995 -12.8053 16.6467)" class="st1" width="1" height="4"/>
		
			<rect x="498.5" y="401" transform="matrix(0.9994 -3.439506e-02 3.439506e-02 0.9994 -13.5644 17.4018)" class="st1" width="1" height="4"/>
		
			<rect x="498.7" y="407" transform="matrix(0.9994 -3.511742e-02 3.511742e-02 0.9994 -14.0536 17.7834)" class="st1" width="1" height="4"/>
		<path class="st1" d="M499.2,302.9l1,0c0-1.3,0-2.7,0-4l-1,0C499.2,300.3,499.2,301.6,499.2,302.9z"/>
		
			<rect x="498.1" y="388.9" transform="matrix(0.9995 -3.049594e-02 3.049594e-02 0.9995 -11.6903 15.3876)" class="st1" width="1" height="4"/>
		
			<rect x="498.9" y="413" transform="matrix(0.9994 -3.462183e-02 3.462183e-02 0.9994 -14.0673 17.5398)" class="st1" width="1" height="4"/>
		<path class="st1" d="M499.2,308.9l1,0c0-1.3,0-2.6,0-4v0l-1,0C499.2,306.3,499.2,307.6,499.2,308.9z"/>
		<path class="st1" d="M374.5,370.3H157.8c-0.6,0-1,0.4-1,1v60.6c0,0.6,0.4,1,1,1h216.7c0.6,0,1-0.4,1-1v-60.6
			C375.5,370.8,375,370.3,374.5,370.3z M373.5,430.9H158.8v-58.6h214.7V430.9z"/>
		<rect x="167.3" y="393.9" class="st1" width="1" height="4"/>
		<rect x="356.3" y="421.4" class="st1" width="4" height="1"/>
		<rect x="167.3" y="387.9" class="st1" width="1" height="4"/>
		<rect x="167.3" y="399.9" class="st1" width="1" height="4"/>
		<rect x="169.3" y="380.8" class="st1" width="4" height="1"/>
		<rect x="176.3" y="421.4" class="st1" width="4" height="1"/>
		<rect x="175.3" y="380.8" class="st1" width="4" height="1"/>
		<rect x="167.3" y="381.9" class="st1" width="1" height="4"/>
		<rect x="170.3" y="421.4" class="st1" width="4" height="1"/>
		<rect x="350.3" y="421.4" class="st1" width="4" height="1"/>
		<rect x="349.3" y="380.8" class="st1" width="4" height="1"/>
		<rect x="182.3" y="421.4" class="st1" width="4" height="1"/>
		<rect x="344.3" y="421.4" class="st1" width="4" height="1"/>
		<rect x="355.3" y="380.8" class="st1" width="4" height="1"/>
		<rect x="167.3" y="411.9" class="st1" width="1" height="4"/>
		<rect x="343.3" y="380.8" class="st1" width="4" height="1"/>
		<rect x="167.3" y="405.9" class="st1" width="1" height="4"/>
		<polygon class="st1" points="168.3,417.9 167.3,417.9 167.3,422.4 168.3,422.4 		"/>
		<rect x="338.3" y="421.4" class="st1" width="4" height="1"/>
		<rect x="181.3" y="380.8" class="st1" width="4" height="1"/>
		<rect x="223.3" y="380.8" class="st1" width="4" height="1"/>
		<rect x="217.3" y="380.8" class="st1" width="4" height="1"/>
		<rect x="224.3" y="421.4" class="st1" width="4" height="1"/>
		<rect x="218.3" y="421.4" class="st1" width="4" height="1"/>
		<rect x="187.3" y="380.8" class="st1" width="4" height="1"/>
		<rect x="236.3" y="421.4" class="st1" width="4" height="1"/>
		<rect x="241.3" y="380.8" class="st1" width="4" height="1"/>
		<rect x="235.3" y="380.8" class="st1" width="4" height="1"/>
		<rect x="230.3" y="421.4" class="st1" width="4" height="1"/>
		<rect x="229.3" y="380.8" class="st1" width="4" height="1"/>
		<rect x="193.3" y="380.8" class="st1" width="4" height="1"/>
		<rect x="199.3" y="380.8" class="st1" width="4" height="1"/>
		<rect x="212.3" y="421.4" class="st1" width="4" height="1"/>
		<rect x="188.3" y="421.4" class="st1" width="4" height="1"/>
		<rect x="194.3" y="421.4" class="st1" width="4" height="1"/>
		<rect x="200.3" y="421.4" class="st1" width="4" height="1"/>
		<rect x="206.3" y="421.4" class="st1" width="4" height="1"/>
		<rect x="211.3" y="380.8" class="st1" width="4" height="1"/>
		<rect x="205.3" y="380.8" class="st1" width="4" height="1"/>
		<rect x="283.3" y="380.8" class="st1" width="4" height="1"/>
		<rect x="242.3" y="421.4" class="st1" width="4" height="1"/>
		<rect x="302.3" y="421.4" class="st1" width="4" height="1"/>
		<rect x="307.3" y="380.8" class="st1" width="4" height="1"/>
		<rect x="296.3" y="421.4" class="st1" width="4" height="1"/>
		<rect x="284.3" y="421.4" class="st1" width="4" height="1"/>
		<rect x="308.3" y="421.4" class="st1" width="4" height="1"/>
		<rect x="295.3" y="380.8" class="st1" width="4" height="1"/>
		<rect x="289.3" y="380.8" class="st1" width="4" height="1"/>
		<rect x="290.3" y="421.4" class="st1" width="4" height="1"/>
		<rect x="301.3" y="380.8" class="st1" width="4" height="1"/>
		<rect x="325.3" y="380.8" class="st1" width="4" height="1"/>
		<rect x="326.3" y="421.4" class="st1" width="4" height="1"/>
		<rect x="331.3" y="380.8" class="st1" width="4" height="1"/>
		<rect x="332.3" y="421.4" class="st1" width="4" height="1"/>
		<rect x="319.3" y="380.8" class="st1" width="4" height="1"/>
		<rect x="320.3" y="421.4" class="st1" width="4" height="1"/>
		<rect x="313.3" y="380.8" class="st1" width="4" height="1"/>
		<rect x="314.3" y="421.4" class="st1" width="4" height="1"/>
		<rect x="337.3" y="380.8" class="st1" width="4" height="1"/>
		<rect x="265.3" y="380.8" class="st1" width="4" height="1"/>
		<rect x="278.3" y="421.4" class="st1" width="4" height="1"/>
		<rect x="364" y="414.1" class="st1" width="1" height="4"/>
		<rect x="247.3" y="380.8" class="st1" width="4" height="1"/>
		<rect x="364" y="408.1" class="st1" width="1" height="4"/>
		<polygon class="st1" points="364,421.4 362.3,421.4 362.3,422.4 365,422.4 365,420.1 364,420.1 		"/>
		<rect x="364" y="402.1" class="st1" width="1" height="4"/>
		<rect x="364" y="390.1" class="st1" width="1" height="4"/>
		<rect x="364" y="384.1" class="st1" width="1" height="4"/>
		<rect x="364" y="396.1" class="st1" width="1" height="4"/>
		<rect x="248.3" y="421.4" class="st1" width="4" height="1"/>
		<rect x="266.3" y="421.4" class="st1" width="4" height="1"/>
		<rect x="272.3" y="421.4" class="st1" width="4" height="1"/>
		<rect x="271.3" y="380.8" class="st1" width="4" height="1"/>
		<rect x="277.3" y="380.8" class="st1" width="4" height="1"/>
		<rect x="260.3" y="421.4" class="st1" width="4" height="1"/>
		<polygon class="st1" points="364,382.1 365,382.1 365,380.8 361.3,380.8 361.3,381.8 364,381.8 		"/>
		<rect x="254.3" y="421.4" class="st1" width="4" height="1"/>
		<rect x="259.3" y="380.8" class="st1" width="4" height="1"/>
		<rect x="253.3" y="380.8" class="st1" width="4" height="1"/>
		
			<rect x="118.2" y="406.2" transform="matrix(1.171795e-02 -0.9999 0.9999 1.171795e-02 -287.8691 522.1429)" class="st1" width="4" height="1"/>
		
			<rect x="118.4" y="376.2" transform="matrix(3.906220e-03 -1 1 3.906220e-03 -256.7104 495.6647)" class="st1" width="4" height="1"/>
		
			<rect x="118.5" y="364.2" transform="matrix(1.953121e-03 -1 1 1.953121e-03 -244.4332 484.4502)" class="st1" width="4" height="1"/>
		
			<rect x="118.4" y="382.2" transform="matrix(5.859274e-03 -1 1 5.859274e-03 -262.9728 500.8676)" class="st1" width="4" height="1"/>
		<rect x="120" y="356.7" class="st1" width="1" height="4"/>
		
			<rect x="118.4" y="388.2" transform="matrix(5.859274e-03 -1 1 5.859274e-03 -269.0116 506.7982)" class="st1" width="4" height="1"/>
		<rect x="120" y="344.7" transform="matrix(1 -1.953121e-03 1.953121e-03 1 -0.6768 0.236)" class="st1" width="1" height="4"/>
		<rect x="120" y="350.7" class="st1" width="1" height="4"/>
		<rect x="120" y="338.7" transform="matrix(1 -1.953121e-03 1.953121e-03 1 -0.6651 0.2359)" class="st1" width="1" height="4"/>
		<path class="st1" d="M119,438.7l1,0c0-1.3,0.1-2.6,0.1-4l-1,0C119.1,436.1,119.1,437.4,119,438.7z"/>
		<path class="st1" d="M120.5,422.7l-1,0c0,1.4-0.1,2.7-0.1,4l1,0C120.4,425.4,120.4,424.1,120.5,422.7z"/>
		<path class="st1" d="M120.3,428.7l-1,0c0,1.4-0.1,2.7-0.1,4l1,0C120.3,431.4,120.3,430.1,120.3,428.7z"/>
		
			<rect x="118.1" y="412.2" transform="matrix(1.367060e-02 -0.9999 0.9999 1.367060e-02 -294.1759 527.1859)" class="st1" width="4" height="1"/>
		<path class="st1" d="M119.6,446.8l-1-0.1c0,0.5-0.1,0.9-0.1,1.3l1,0.1C119.5,447.6,119.6,447.2,119.6,446.8z"/>
		
			<rect x="118.3" y="394.2" transform="matrix(7.812262e-03 -1 1 7.812262e-03 -275.2876 511.9469)" class="st1" width="4" height="1"/>
		<polygon class="st1" points="120.6,416.7 119.6,416.7 119.5,420.7 120.5,420.7 		"/>
		
			<rect x="118.3" y="400.2" transform="matrix(9.765159e-03 -1 1 9.765159e-03 -281.574 517.0632)" class="st1" width="4" height="1"/>
		<path class="st1" d="M119.4,276.7l1,0c0-1.4-0.1-2.7-0.1-4l-1,0C119.3,273.9,119.4,275.3,119.4,276.7z"/>
		
			<rect x="119.5" y="278.6" transform="matrix(0.9999 -1.562309e-02 1.562309e-02 0.9999 -4.3699 1.9083)" class="st1" width="1" height="4"/>
		
			<rect x="119.6" y="284.6" transform="matrix(0.9999 -1.367060e-02 1.367060e-02 0.9999 -3.9074 1.668)" class="st1" width="1" height="4"/>
		
			<rect x="119.6" y="290.6" transform="matrix(0.9999 -1.171795e-02 1.171795e-02 0.9999 -3.421 1.4278)" class="st1" width="1" height="4"/>
		<path class="st1" d="M119.9,440.7l-1,0c-0.1,1.5-0.1,2.8-0.2,4l1,0.1C119.8,443.6,119.9,442.2,119.9,440.7z"/>
		<path class="st1" d="M119.3,270.6l1,0c0-1.4-0.1-2.8-0.1-4l-1,0C119.2,267.9,119.2,269.2,119.3,270.6z"/>
		<path class="st1" d="M120.1,264.6c0-1.5-0.1-2.8-0.1-4l-1,0c0.1,1.2,0.1,2.5,0.1,4L120.1,264.6z"/>
		<rect x="119.8" y="308.7" transform="matrix(1 -7.812262e-03 7.812262e-03 1 -2.4233 0.9494)" class="st1" width="1" height="4"/>
		<rect x="119.7" y="296.7" transform="matrix(1 -9.765159e-03 9.765159e-03 1 -2.9107 1.1881)" class="st1" width="1" height="4"/>
		<rect x="119.9" y="326.7" transform="matrix(1 -3.906220e-03 3.906220e-03 1 -1.2829 0.4729)" class="st1" width="1" height="4"/>
		<rect x="119.9" y="314.7" transform="matrix(1 -5.859274e-03 5.859274e-03 1 -1.8534 0.7107)" class="st1" width="1" height="4"/>
		<rect x="119.9" y="320.7" transform="matrix(1 -5.859274e-03 5.859274e-03 1 -1.8885 0.711)" class="st1" width="1" height="4"/>
		<rect x="120" y="332.7" transform="matrix(1 -1.953121e-03 1.953121e-03 1 -0.6534 0.2359)" class="st1" width="1" height="4"/>
		<rect x="119.8" y="302.7" transform="matrix(1 -7.812262e-03 7.812262e-03 1 -2.3764 0.9488)" class="st1" width="1" height="4"/>
		
			<rect x="118.5" y="370.2" transform="matrix(1.953121e-03 -1 1 1.953121e-03 -250.4542 490.4316)" class="st1" width="4" height="1"/>
		<rect x="407.7" y="346.6" transform="matrix(1 -5.859274e-03 5.859274e-03 1 -2.0356 2.3978)" class="st1" width="1" height="4"/>
		<rect x="407.7" y="352.6" transform="matrix(1 -5.859274e-03 5.859274e-03 1 -2.0708 2.3981)" class="st1" width="1" height="4"/>
		<rect x="407.8" y="358.6" transform="matrix(1 -5.859274e-03 5.859274e-03 1 -2.106 2.3984)" class="st1" width="1" height="4"/>
		<rect x="407.7" y="340.6" transform="matrix(1 -5.859274e-03 5.859274e-03 1 -2.0004 2.3975)" class="st1" width="1" height="4"/>
		<rect x="407.6" y="334.6" transform="matrix(1 -5.859274e-03 5.859274e-03 1 -1.9653 2.3972)" class="st1" width="1" height="4"/>
		<rect x="407.8" y="370.6" transform="matrix(1 -5.859274e-03 5.859274e-03 1 -2.1764 2.3989)" class="st1" width="1" height="4"/>
		<rect x="407.8" y="364.6" transform="matrix(1 -5.859274e-03 5.859274e-03 1 -2.1412 2.3987)" class="st1" width="1" height="4"/>
		<rect x="407.9" y="376.6" transform="matrix(1 -5.859274e-03 5.859274e-03 1 -2.2116 2.3992)" class="st1" width="1" height="4"/>
		<rect x="407.9" y="382.7" transform="matrix(1 -5.859274e-03 5.859274e-03 1 -2.2468 2.3995)" class="st1" width="1" height="4"/>
		<rect x="407.9" y="388.7" transform="matrix(1 -5.859274e-03 5.859274e-03 1 -2.282 2.3998)" class="st1" width="1" height="4"/>
		<rect x="407.6" y="328.6" transform="matrix(1 -5.859274e-03 5.859274e-03 1 -1.9301 2.3969)" class="st1" width="1" height="4"/>
		<path class="st1" d="M407.8,262.5l-1,0c0,1.2,0.1,2.5,0.1,4l1,0C407.9,265,407.9,263.6,407.8,262.5z"/>
		
			<rect x="407.2" y="280.5" transform="matrix(0.9999 -1.171795e-02 1.171795e-02 0.9999 -3.2827 4.7968)" class="st1" width="1" height="4"/>
		<path class="st1" d="M408,268.5l-1,0c0,1.3,0.1,2.6,0.1,4l1,0C408,271.1,408,269.7,408,268.5z"/>
		<path class="st1" d="M408.1,278.5c0-1.4,0-2.7-0.1-4l-1,0c0,1.3,0,2.6,0.1,4L408.1,278.5z"/>
		<rect x="407.6" y="322.6" transform="matrix(1 -5.859274e-03 5.859274e-03 1 -1.8949 2.3966)" class="st1" width="1" height="4"/>
		<rect x="407.3" y="286.5" transform="matrix(1 -9.765159e-03 9.765159e-03 1 -2.7982 3.9957)" class="st1" width="1" height="4"/>
		<rect x="407.3" y="292.6" transform="matrix(1 -9.765159e-03 9.765159e-03 1 -2.8569 3.9966)" class="st1" width="1" height="4"/>
		<rect x="407.5" y="316.6" transform="matrix(1 -5.859274e-03 5.859274e-03 1 -1.8597 2.3962)" class="st1" width="1" height="4"/>
		<rect x="407.5" y="310.6" transform="matrix(1 -7.812262e-03 7.812262e-03 1 -2.4295 3.1968)" class="st1" width="1" height="4"/>
		<rect x="407.4" y="304.6" transform="matrix(1 -7.812262e-03 7.812262e-03 1 -2.3826 3.1963)" class="st1" width="1" height="4"/>
		<rect x="407.4" y="298.6" transform="matrix(1 -7.812262e-03 7.812262e-03 1 -2.3356 3.1957)" class="st1" width="1" height="4"/>
		<rect x="408.2" y="430.7" transform="matrix(1 -9.765159e-03 9.765159e-03 1 -4.2064 4.0116)" class="st1" width="1" height="4"/>
		<path class="st1" d="M408.3,440.8l1,0c0-1.2,0-2.6,0-4l-1,0C408.2,438.2,408.3,439.6,408.3,440.8z"/>
		<rect x="408.1" y="418.7" transform="matrix(1 -7.812262e-03 7.812262e-03 1 -3.2743 3.2049)" class="st1" width="1" height="4"/>
		<path class="st1" d="M408.4,446.8l1,0c0-1-0.1-2.4-0.1-4l-1,0C408.3,444.4,408.4,445.8,408.4,446.8z"/>
		<rect x="408.1" y="412.7" transform="matrix(1 -5.859274e-03 5.859274e-03 1 -2.4229 2.401)" class="st1" width="1" height="4"/>
		<rect x="408" y="394.7" transform="matrix(1 -5.859274e-03 5.859274e-03 1 -2.3172 2.4001)" class="st1" width="1" height="4"/>
		<rect x="408.1" y="424.7" transform="matrix(1 -7.812262e-03 7.812262e-03 1 -3.3213 3.2055)" class="st1" width="1" height="4"/>
		<rect x="408" y="400.7" transform="matrix(1 -5.859274e-03 5.859274e-03 1 -2.3524 2.4004)" class="st1" width="1" height="4"/>
		<rect x="408" y="406.7" transform="matrix(1 -5.859274e-03 5.859274e-03 1 -2.3877 2.4007)" class="st1" width="1" height="4"/>
		<ellipse class="st1" cx="16.6" cy="270.5" rx="1.5" ry="2.6"/>
		<path class="st1" d="M514.5,271.1C514.5,271.1,514.5,271.1,514.5,271.1c0.9,0,1.4-1.2,1.4-2.6c-0.1-1.4-0.8-2.5-1.6-2.5
			c0,0,0,0-0.1,0c-0.8,0-1.4,1.2-1.3,2.6C513,270,513.7,271.1,514.5,271.1z"/>
		<path class="st1" d="M531.1,276.7c-0.4-0.9-3.2-2.1-5-2.6c-0.1,0-0.1-0.1-0.2-0.1c0,0-0.1,0-0.1,0c0-0.2,0.1-0.5,0.1-0.8
			c0.7-5.9,2.7-23.8-8.6-36.6l-1.1-19.3c0-0.7-0.3-1.3-0.9-1.8c-0.5-0.5-1.2-0.7-1.9-0.6l-4.4,0.3c-3.5-5.8-9.1-16.2-10-17.9
			c0.2-0.1,0.6-0.3,0.8-0.5c0.9-0.5,2-1,2.3-2.1c0.1-0.4,0.1-1-0.4-1.8c-0.2-0.2-1.1-2-2.3-4.2c-0.2-0.5-0.5-0.9-0.7-1.4
			c2.1-1.1,4.2-3.4,3.9-5.8c-0.2-1.3-1.5-3.5-3.2-6.6c-1.5-2.6-3.3-5.8-4.9-9.2c-3.4-7.2-7-5.8-9.7-4.7c-0.1,0-0.1,0.1-0.2,0.1
			C463.7,123.5,447.2,99,434.4,83c1.6-0.8,4.1-2.3,4.5-4c0.2-0.7,0-1.4-0.5-2c-0.7-0.9-2.5-2.7-4.5-4.8c-3.1-3.2-7-7.2-9-9.7
			c-1.9-2.4-3.7-3.6-5.4-3.7c-0.9,0-1.8,0.3-2.4,0.9c-0.5,0.5-1.8,1.5-2.6,2.2c-0.3-0.2-0.6-0.5-0.9-0.7C376.6,31.1,338.4,0,259.1,0
			c-34.4,0-72.4,14-110,40.5c-28,19.7-55.7,46.5-74,71.6c-11.5,15.8-21.4,33.2-29.3,49.1c-1.1-1-2.4-2.1-3.8-1.9
			c-0.5,0.1-1.2,0.3-1.7,1.2c-0.1,0.2-12.8,22.9-11.7,25.2c0.7,1.5,2.7,2.8,4.4,3.4c-5.4,12.9-8.7,22.3-9.3,24.6
			c-0.3,1-1.2,3.3-2.2,5.9v-0.1c0-1.4-1.2-2.6-2.6-2.6h-4.5c-1.4,0-2.6,1.2-2.6,2.6v22.6c-5.8,13.7-8.3,20.5-8.3,22.7
			c0,4.2,1.3,9,1.9,11c-0.1,0-0.2,0.1-0.2,0.1c-1.1,0.3-2.8,0.8-3.8,1.1c-2.5,0.7-0.9,7.9-0.4,9.7c1.3,4.4,3.1,4.9,4.3,4.6
			c1.1-0.3,2.1-0.2,2.8,0.3c1.1,0.8,1.8,2.6,1.9,4.9c0,0.5,0,2.1,0.1,4.4c0.3,17.2,0.7,33.4,1.8,35.9c1.3,3.1,8.1,4.8,11.2,5.5
			c-0.5,30.8-0.9,60.1-1.2,66.7c-0.3,6.4-0.3,18-0.1,30.6c0,0.9,0,1.9,0,2.8c0.2,11.7,0.5,24,1.1,33.6c1.8,33.9,28.1,51.1,80.2,52.4
			c16,0.4,31.8,0.6,47.1,0.6c28,0,54.2-0.5,76.9-1c17.3-0.3,32.3-0.6,43.2-0.6c11.1,0.1,30.9,0,53.8-0.1c43-0.2,96.5-0.4,111.8,0.3
			c11.4,0.5,39.7-0.4,57.9-18.9c12.2-12.4,17.7-30.5,16.3-53.7c-2.4-39.8-3.5-83.9-3.9-114.9h5.4h2.7c3.9,0,4.4-6.3,4.4-12.5
			c0-7.2,1.1-33.3,2.3-37.1c0.4,0.1,1,0.2,1.5,0.4c1.4,0.4,2.9,0.9,4,0.3c0.4-0.2,0.8-0.6,1-1.5c0.6-2.8,2.6-10.8,3.2-11.8
			C531.2,277.7,531.3,277.2,531.1,276.7z M523.9,272.9c0,0.2-0.1,0.4-0.1,0.6c-0.8-0.2-1.7-0.4-2.6-0.6l-1.8-0.4l-1.9-32.5
			C526.3,251.9,524.5,267.6,523.9,272.9z M513.5,216.8C513.5,216.8,513.5,216.8,513.5,216.8c0.2,0,0.3,0.1,0.4,0.1
			c0.1,0.1,0.2,0.2,0.2,0.4l3.3,55.4c0,0.3-0.2,0.6-0.5,0.6l-4.5,0.3c-0.3,0-0.6-0.2-0.6-0.5l-0.8-13.9c0,0,0,0,0,0l-2.4-41.4
			c0-0.2,0-0.3,0.1-0.4c0.1-0.1,0.2-0.2,0.4-0.2L513.5,216.8z M490.6,453.7c-4.8,0-109.5-0.3-220.4-0.6
			c-113.4-0.3-230.7-0.6-236.1-0.6c-8,0-9.2-3.9-9.3-10.8c0-0.6,0-1.1,0-1.6c0-0.3,0-0.7,0-1c0,0,0-0.1,0-0.1
			c-0.2-12.3-0.1-23.6,0.1-29.8c0.6-14.8,2.3-140.9,2.3-147.3c0-1.9,1.1-3.2,3-4.1c0,0.2-0.1,0.5-0.1,0.7l1,0.1
			c0-0.4,0.1-0.9,0.1-1.3c4.8-1.7,13.6-1.7,24.9-1.7c6.7,0,31.7,0.2,62.5,0.5c0.1,0.6,0.1,1.4,0.2,2.5l1-0.1c-0.1-1-0.1-1.8-0.2-2.5
			c58.7,0.5,137.4,1.3,149.4,1.5c20.2,0.4,88,0.3,137.5,0.3c0,0.6,0.1,1.4,0.1,2.5l1,0c0-1.1-0.1-1.9-0.1-2.5
			c13.2,0,25.1,0,34.4-0.1c9,0,15.4,0,17.9,0c2.5,0,5.1,0,7.7,0c10.2-0.1,20.6-0.2,27.4,1.2c0.3,0.7,0.5,1.4,0.8,2.3l1-0.3
			c-0.2-0.6-0.4-1.2-0.6-1.7c0.7,0.2,1.3,0.3,1.9,0.5c3.5,1.3,5.6,18.4,5,40.8c-0.2,7.7-0.1,70.5,2.7,131.3
			C505.9,453.7,498.8,453.7,490.6,453.7z M32.8,207.5c0.9,0.8,2.3,1.8,3.6,1.8c2.9,0,6.3-5.3,8.7-9.8c0.4-0.7,1.2-2.2,2.2-4.2
			c27-52.1,48.9-86.4,65-101.9c25.9-24.9,55.2-53.2,93.7-68.8c41.3-16.7,83.5-15.1,137,5.3c61.3,23.4,114.6,104.8,134.2,144.6
			c10.5,21.3,18.6,34.1,24,42.6c3,4.8,5,8,5.8,10.1l1.9,31.7c-0.5,0.6-0.8,1.1-1.1,1.7c-0.7,1.2-1.4,2.4-4.1,3.8
			c-1.1-3.8-2.6-6.6-4.6-7.3c-6.9-2.4-19.4-2.3-31.5-2.2c-2.6,0-5.2,0-7.7,0c-2.5,0-8.9,0-17.9,0c-44,0.1-147.1,0.3-172.9-0.2
			c-18.5-0.4-193.7-2-213-2c-19.3,0-32,0-32,9.3c0,0.4,0,1.2,0,2.4c-1-1.3-1.9-2.7-2.3-3.2c-0.1-0.2-0.3-0.3-0.5-0.4v-23.5
			C23.9,230,30.3,212.3,32.8,207.5z M21.4,263.9c0.9,1.2,2,2.8,2.7,3.7c0,0.6,0,1.3,0,2c-0.7,0.2-1.6,0.6-2.7,0.9V263.9z
			 M504.2,266.3c3-1.5,4.1-2.8,4.9-4.1l0.5,8.2c-1.8-0.3-3.3-0.6-4.8-0.8C504.7,268.4,504.5,267.3,504.2,266.3z M492.7,166.6
			c1.6,3.5,3.5,6.7,4.9,9.3c1.5,2.7,2.8,5,3,5.9c0.2,1.3-1.3,3-2.8,3.7c-4.2-8-8.3-15.6-12.2-22.7
			C488.2,161.9,490.2,161.1,492.7,166.6z M418.5,61.2c0.1-0.1,0.4-0.3,0.9-0.3c0.6,0,2,0.5,4,2.9c2.1,2.5,6,6.6,9.1,9.8
			c2,2.1,3.7,3.8,4.4,4.7c0.1,0.1,0.1,0.2,0.1,0.2c-0.2,0.8-2,2-3.9,2.9c-6.7-8.2-12.4-14.1-17-18.2C416.9,62.6,418,61.7,418.5,61.2
			z M30.5,185.1c0.3-2.6,9.9-20.7,11.6-23.6c0.1-0.2,0.2-0.2,0.2-0.2c0.3,0,1,0.3,2.6,1.8c-4.3,8.7-8,16.9-11.1,24.2
			C32.5,186.9,30.9,185.9,30.5,185.1z M25.6,214.3c1.6-5.8,21.3-60.1,51.1-101C109.3,68.5,184.8,2,259.1,2
			c78.6,0,116.5,30.9,153.2,60.8c5.1,4.1,11.5,10.5,19.5,20.3c0,0,0,0,0,0.1c0.1,0.2,0.2,0.4,0.4,0.5
			c15.7,19.3,37.1,51.8,65.5,106.1c1.6,3.1,2.2,4.2,2.4,4.5c0.1,0.1,0.1,0.1,0.1,0.1c-0.1,0.2-0.8,0.6-1.2,0.8
			c-0.5,0.2-0.9,0.5-1.3,0.8c-0.2-0.5-0.6-1-1-1.7l-0.9,0.5c0.5,0.9,0.9,1.6,1.2,2.1c0,0,0,0,0,0c-0.1,0.3-0.1,0.7,0.1,1.3
			c0.1,0.1,6.2,11.7,10.1,18.1c-0.4,0.5-0.7,1.2-0.6,1.8l0.3,4.3c-1-1.7-2.3-3.7-3.8-6.1c-5.4-8.5-13.5-21.2-23.9-42.4
			c-9.3-18.8-27.1-48.7-49.5-76.2C401,62.1,372.1,38.8,343.7,28c-54-20.6-96.7-22.2-138.5-5.2c-38.9,15.8-68.3,44.2-94.3,69.2
			c-16.3,15.7-38.3,50.1-65.4,102.4c-1,2-1.8,3.4-2.2,4.2c-4.7,8.6-6.9,8.7-7,8.7c-0.8,0-2.2-1.2-3-2c0.2-0.6,0.6-1.5,1.2-2.9
			l-0.9-0.4c-0.5,1.2-1,2.3-1.2,3c-0.2,0-0.4,0.1-0.6,0.3c-1.9,2.4-7.4,17.4-10.5,25.9v-6.4C24,218.8,25.2,215.6,25.6,214.3z
			 M14.4,218.9h4.5c0.3,0,0.6,0.3,0.6,0.6V275c0,0.3-0.3,0.6-0.6,0.6h-4.5c-0.3,0-0.6-0.3-0.6-0.6v-0.2c0-0.1,0-0.3,0-0.4v-32
			c0,0,0,0,0,0v-22.8C13.8,219.2,14,218.9,14.4,218.9z M5.5,264.8c0-2.1,3.7-11.3,6.3-17.5v26.5c-1.7,0.6-3.3,1.1-4.5,1.4
			C6.7,273.3,5.5,268.8,5.5,264.8z M4.7,289.4c-0.2,0.1-0.5-0.3-0.6-0.5c-1.7-2.2-2.4-8.7-1.9-10c1.7-0.5,4.8-1.4,4.8-1.4
			c0,0,0.1,0,0.1-0.1c1.2-0.4,2.9-0.9,4.9-1.6c0.4,1,1.3,1.7,2.4,1.7h4.5c1.4,0,2.6-1.2,2.6-2.6v-2.2c0.9-0.3,1.8-0.6,2.7-0.9
			c0,3.5-0.1,7.8-0.2,12.7c-3.5,1.7-9.6,3-14.2,3.9c-1.4,0.3-2.6,0.5-3.6,0.8C5.6,289.2,5.2,289.2,4.7,289.4z M13.7,336.1
			c-1.1-2.5-1.5-27.1-1.6-35.2c0-2.4-0.1-4-0.1-4.5c-0.1-2.7-0.9-4.8-2.2-6.1c0.1,0,0.2,0,0.3-0.1c4.3-0.9,10-2,13.8-3.7
			c-0.2,14.8-0.5,34.4-0.7,53.7C19.4,339.5,14.5,337.9,13.7,336.1z M491.7,506.8c-17.3,17.7-44.7,18.5-55.7,18
			c-15.4-0.7-68.9-0.4-111.9-0.3c-22.9,0.1-42.8,0.2-53.8,0.1c-11-0.1-25.9,0.2-43.3,0.6c-35,0.7-78.5,1.6-123.8,0.4
			c-74.7-1.9-76.7-37.8-77.3-49.6c-0.4-6.9-0.7-15.1-0.9-23.5c0.8,0.8,1.7,1.4,2.9,1.9c0,0.9,0,1.8,0,2.7l1,0c0-0.8,0-1.5,0-2.3
			c1.4,0.4,3.2,0.7,5.2,0.7c5.5,0,122.7,0.3,236.1,0.6c110.9,0.3,215.6,0.6,220.4,0.6c4.8,0,9.1-0.4,12.3-3.1
			c0.1,1.3,0.2,2.6,0.3,3.9l1,0c-0.1-1.3-0.1-2.7-0.3-4l-0.9,0.1c1.5-1.3,2.7-3.1,3.7-5.6c0.1,2.5,0.3,5,0.4,7.5
			C508.5,477.7,503.3,495,491.7,506.8z M517.6,306.4c-0.5,8.9-0.8,18.3-0.8,21.5c0,9.1-1.5,10.5-2.4,10.5h-8.1
			c-0.2-20-0.2-34.2-0.1-37.6c0.1-4.1,0.2-8.9,0.1-13.8c4,0.9,9.9,2.5,13,3.3C518.7,292.1,518.2,296.4,517.6,306.4z M525.7,289.5
			c0,0.1-0.1,0.2-0.1,0.2c-0.3,0.2-1.8-0.2-2.4-0.4c-0.6-0.2-1.2-0.4-1.8-0.5c0,0,0,0-0.1,0c-0.3-0.1-0.9-0.2-1.5-0.4
			c-3.2-0.9-9.6-2.6-13.7-3.5c-0.1-4.5-0.4-9.1-1-13.2c1.4,0.2,2.9,0.5,4.6,0.8l0,0.7c0.1,1.4,1.2,2.4,2.6,2.4c0.1,0,0.1,0,0.2,0
			l4.5-0.3c0,0,0,0,0,0c0.7,0,1.4-0.4,1.8-0.9l2,0.5c1.5,0.3,2.8,0.6,3.7,0.8c0.1,0,0.1,0,0.2,0c0.3,0.1,0.6,0.1,0.9,0.2
			c1,0.3,2.7,1,3.5,1.5C527.7,280.4,525.7,289.4,525.7,289.5z"/>
		<path class="st1" d="M486.7,176.7c-0.6-1.1-1.3-2.2-2-3.4l-0.9,0.5c0.7,1.2,1.4,2.3,2,3.4L486.7,176.7z"/>
		<path class="st1" d="M137.8,59.7c0.6-0.5,1.2-1,1.8-1.4l-0.6-0.8c-0.6,0.5-1.2,1-1.8,1.4c-0.4,0.4-0.9,0.7-1.3,1.1l0.6,0.8
			C136.9,60.4,137.4,60.1,137.8,59.7z"/>
		<path class="st1" d="M419.6,77.4c-0.9-1-1.8-1.9-2.8-2.9l-0.7,0.7c0.9,0.9,1.8,1.9,2.8,2.9L419.6,77.4z"/>
		<rect x="478.7" y="162.9" transform="matrix(0.8581 -0.5135 0.5135 0.8581 -16.6777 269.421)" class="st1" width="1" height="4"/>
		<rect x="481.7" y="168" transform="matrix(0.8597 -0.5108 0.5108 0.8597 -19.1935 270.2069)" class="st1" width="1" height="4"/>
		<path class="st1" d="M144.3,54.6l-0.6-0.8c-1,0.8-2.1,1.6-3.2,2.5l0.6,0.8C142.2,56.2,143.2,55.4,144.3,54.6z"/>
		<path class="st1" d="M149,51l-0.6-0.8c-1.1,0.8-2.1,1.6-3.2,2.4l0.6,0.8C146.9,52.5,148,51.7,149,51z"/>
		
			<rect x="475.6" y="157.7" transform="matrix(0.8569 -0.5156 0.5156 0.8569 -14.2101 268.3088)" class="st1" width="1" height="4"/>
		<path class="st1" d="M492.8,187c-0.6-1.1-1.3-2.2-2-3.5l-0.9,0.5c0.7,1.3,1.4,2.4,2,3.5L492.8,187z"/>
		<path class="st1" d="M495.7,192.3c-0.6-1-1.2-2.1-2-3.5l-0.9,0.5c0.8,1.3,1.4,2.5,2,3.5L495.7,192.3z"/>
		<rect x="466.2" y="142.4" transform="matrix(0.8538 -0.5206 0.5206 0.8538 -6.9204 264.0675)" class="st1" width="1" height="4"/>
		<rect x="460" y="132.1" transform="matrix(0.8522 -0.5232 0.5232 0.8522 -2.1166 260.7551)" class="st1" width="1" height="4"/>
		<rect x="456.8" y="127" transform="matrix(0.8515 -0.5244 0.5244 0.8515 0.2774 259.0071)" class="st1" width="1" height="4"/>
		<rect x="463.1" y="137.2" transform="matrix(0.8529 -0.5221 0.5221 0.8529 -4.489 262.5452)" class="st1" width="1" height="4"/>
		<path class="st1" d="M449.3,115.2c-0.7-1.1-1.5-2.2-2.2-3.3l-0.8,0.6c0.7,1.1,1.5,2.2,2.2,3.3L449.3,115.2z"/>
		<rect x="453.7" y="121.9" transform="matrix(0.8508 -0.5255 0.5255 0.8508 2.6569 257.1747)" class="st1" width="1" height="4"/>
		<path class="st1" d="M134.9,62.1l-0.6-0.8c-1,0.9-2,1.7-3,2.6l0.7,0.8C132.9,63.8,133.9,62.9,134.9,62.1z"/>
		<rect x="469.4" y="147.5" transform="matrix(0.8547 -0.5192 0.5192 0.8547 -9.3221 265.6573)" class="st1" width="1" height="4"/>
		<path class="st1" d="M452.5,120.2c-0.7-1.1-1.4-2.3-2.1-3.4l-0.8,0.5c0.7,1.1,1.4,2.2,2.1,3.4L452.5,120.2z"/>
		
			<rect x="472.5" y="152.6" transform="matrix(0.8557 -0.5174 0.5174 0.8557 -11.7623 267.0324)" class="st1" width="1" height="4"/>
		<path class="st1" d="M75.7,129.3l-0.8-0.6c-0.8,1.1-1.5,2.2-2.3,3.3l0.8,0.6C74.2,131.5,74.9,130.4,75.7,129.3z"/>
		<path class="st1" d="M53.5,164.9l-0.9-0.5c-0.7,1.2-1.3,2.3-2,3.5l0.9,0.5C52.2,167.2,52.8,166.1,53.5,164.9z"/>
		<path class="st1" d="M72.3,134.2l-0.8-0.6c-0.7,1.1-1.5,2.2-2.2,3.3l0.8,0.5C70.8,136.5,71.6,135.3,72.3,134.2z"/>
		<path class="st1" d="M56.5,159.7l-0.9-0.5c-0.7,1.2-1.3,2.3-2,3.5l0.9,0.5C55.1,162,55.8,160.9,56.5,159.7z"/>
		<path class="st1" d="M62.6,149.4l-0.9-0.5c-0.7,1.2-1.4,2.3-2.1,3.4l0.9,0.5C61.2,151.7,61.9,150.5,62.6,149.4z"/>
		<path class="st1" d="M69,139.2l-0.8-0.5c-0.7,1.1-1.5,2.3-2.2,3.4l0.8,0.5C67.6,141.5,68.3,140.4,69,139.2z"/>
		<path class="st1" d="M65.8,144.3l-0.8-0.5c-0.7,1.1-1.4,2.3-2.1,3.4l0.9,0.5C64.4,146.6,65.1,145.4,65.8,144.3z"/>
		<path class="st1" d="M59.5,154.5l-0.9-0.5c-0.7,1.2-1.4,2.3-2,3.4l0.9,0.5C58.2,156.8,58.8,155.7,59.5,154.5z"/>
		<path class="st1" d="M130.4,66l-0.7-0.7c-1,0.9-2,1.8-3,2.7l0.7,0.7C128.4,67.8,129.4,66.9,130.4,66z"/>
		<path class="st1" d="M37,196.9l-0.9-0.4c-0.6,1.4-1.2,2.6-1.7,3.7l0.9,0.4C35.9,199.5,36.4,198.2,37,196.9z"/>
		<path class="st1" d="M42.2,186.1l-0.9-0.4c-0.6,1.2-1.2,2.4-1.8,3.6l0.9,0.4C41,188.5,41.6,187.3,42.2,186.1z"/>
		<path class="st1" d="M45,180.7l-0.9-0.5c-0.6,1.2-1.2,2.4-1.8,3.6l0.9,0.5C43.7,183.1,44.3,181.9,45,180.7z"/>
		<path class="st1" d="M47.7,175.4l-0.9-0.5c-0.6,1.2-1.3,2.4-1.9,3.5l0.9,0.5C46.5,177.8,47.1,176.6,47.7,175.4z"/>
		<path class="st1" d="M50.6,170.1l-0.9-0.5c-0.7,1.2-1.3,2.4-1.9,3.5l0.9,0.5C49.3,172.5,49.9,171.3,50.6,170.1z"/>
		<path class="st1" d="M39.6,191.5l-0.9-0.4c-0.6,1.3-1.2,2.5-1.7,3.6l0.9,0.4C38.4,194,39,192.7,39.6,191.5z"/>
		<path class="st1" d="M117.3,78.3l-0.7-0.7c-0.9,0.9-1.9,1.9-2.8,2.9l0.7,0.7C115.5,80.2,116.4,79.3,117.3,78.3z"/>
		<path class="st1" d="M113.2,82.6l-0.7-0.7c-0.9,1-1.8,1.9-2.7,2.9l0.7,0.7C111.3,84.5,112.3,83.6,113.2,82.6z"/>
		<path class="st1" d="M79.1,124.3l-0.8-0.6c-0.8,1.1-1.5,2.2-2.3,3.3l0.8,0.6C77.6,126.5,78.3,125.4,79.1,124.3z"/>
		<path class="st1" d="M109.1,87l-0.7-0.7c-0.9,1-1.8,2-2.7,3l0.7,0.7C107.3,88.9,108.2,88,109.1,87z"/>
		<path class="st1" d="M121.6,74.1l-0.7-0.7c-1,0.9-1.9,1.9-2.9,2.8l0.7,0.7C119.7,76,120.6,75.1,121.6,74.1z"/>
		<path class="st1" d="M126,70l-0.7-0.7c-1,0.9-2,1.8-2.9,2.7l0.7,0.7C124,71.8,125,70.9,126,70z"/>
		<path class="st1" d="M105.1,91.4l-0.7-0.7c-0.9,1-1.8,2-2.6,3l0.8,0.7C103.3,93.4,104.2,92.4,105.1,91.4z"/>
		<path class="st1" d="M89.8,109.9l-0.8-0.6c-0.8,1.1-1.6,2.1-2.4,3.2l0.8,0.6C88.2,112,89,110.9,89.8,109.9z"/>
		<path class="st1" d="M101.2,95.9l-0.8-0.6c-0.9,1-1.7,2-2.6,3.1l0.8,0.6C99.4,98,100.3,96.9,101.2,95.9z"/>
		<path class="st1" d="M82.6,119.5l-0.8-0.6c-0.8,1.1-1.6,2.2-2.3,3.3l0.8,0.6C81,121.6,81.8,120.6,82.6,119.5z"/>
		<path class="st1" d="M86.2,114.6l-0.8-0.6c-0.8,1.1-1.6,2.1-2.4,3.2l0.8,0.6C84.6,116.8,85.4,115.7,86.2,114.6z"/>
		<path class="st1" d="M93.5,105.2l-0.8-0.6c-0.8,1-1.7,2.1-2.5,3.1l0.8,0.6C91.9,107.3,92.7,106.2,93.5,105.2z"/>
		<path class="st1" d="M97.3,100.5l-0.8-0.6c-0.9,1-1.7,2.1-2.5,3.1l0.8,0.6C95.6,102.6,96.4,101.5,97.3,100.5z"/>
		<path class="st1" d="M489.8,181.8c-0.6-1.1-1.3-2.2-2-3.5l-0.9,0.5c0.7,1.2,1.4,2.4,2,3.5L489.8,181.8z"/>
		<path class="st1" d="M312.7,13.7c-1.3-0.3-2.6-0.6-3.9-0.9l-0.2,1c1.3,0.3,2.6,0.6,3.9,0.9L312.7,13.7z"/>
		<path class="st1" d="M330,18.6c-1.3-0.4-2.5-0.8-3.8-1.2l-0.3,1c1.3,0.4,2.5,0.8,3.8,1.2L330,18.6z"/>
		<path class="st1" d="M318.5,15.1c-1.3-0.3-2.6-0.7-3.9-1l-0.2,1c1.3,0.3,2.6,0.6,3.9,1L318.5,15.1z"/>
		<path class="st1" d="M324.3,16.8c-1.3-0.4-2.6-0.8-3.8-1.1l-0.3,1c1.3,0.4,2.6,0.7,3.8,1.1L324.3,16.8z"/>
		<path class="st1" d="M335.7,20.6c-1.3-0.5-2.5-0.9-3.8-1.4l-0.3,0.9c1.3,0.4,2.5,0.9,3.8,1.4L335.7,20.6z"/>
		<path class="st1" d="M445.9,110.2c-0.8-1.1-1.5-2.2-2.3-3.3l-0.8,0.6c0.8,1.1,1.5,2.2,2.3,3.3L445.9,110.2z"/>
		<path class="st1" d="M341.3,22.8c-1.2-0.5-2.5-1-3.7-1.5l-0.4,0.9c1.2,0.5,2.5,1,3.7,1.5L341.3,22.8z"/>
		<path class="st1" d="M283,8.8c-1.3-0.1-2.7-0.3-4-0.4l-0.1,1c1.3,0.1,2.7,0.2,4,0.4L283,8.8z"/>
		<path class="st1" d="M289,9.5c-1.3-0.2-2.7-0.3-4-0.5l-0.1,1c1.3,0.1,2.6,0.3,4,0.5L289,9.5z"/>
		<path class="st1" d="M352.3,27.7c-1.2-0.6-2.4-1.1-3.6-1.7l-0.4,0.9c1.2,0.5,2.4,1.1,3.6,1.7L352.3,27.7z"/>
		<path class="st1" d="M306.6,13.4l0.2-1l-0.4-0.1c-1.2-0.2-2.4-0.5-3.6-0.7l-0.2,1c1.2,0.2,2.4,0.4,3.6,0.7L306.6,13.4z"/>
		<path class="st1" d="M277,8.3c-1.3-0.1-2.7-0.2-4-0.2l0,1c1.3,0.1,2.7,0.1,4,0.2L277,8.3z"/>
		<path class="st1" d="M300.9,11.3c-1.3-0.2-2.6-0.5-4-0.7l-0.2,1c1.3,0.2,2.6,0.4,3.9,0.7L300.9,11.3z"/>
		<path class="st1" d="M294.9,10.3c-1.3-0.2-2.6-0.4-4-0.6l-0.1,1c1.3,0.2,2.6,0.4,4,0.6L294.9,10.3z"/>
		<path class="st1" d="M393,53.1c-1.1-0.8-2.1-1.6-3.2-2.4l-0.6,0.8c1.1,0.8,2.1,1.6,3.2,2.4L393,53.1z"/>
		<path class="st1" d="M402.3,60.8c-1-0.9-2-1.7-3-2.6l-0.6,0.8c1,0.9,2,1.7,3,2.6L402.3,60.8z"/>
		<path class="st1" d="M406.8,64.8c-1-0.9-2-1.8-3-2.7l-0.7,0.7c1,0.9,2,1.8,3,2.7L406.8,64.8z"/>
		<path class="st1" d="M397.7,56.9c-1-0.9-2.1-1.7-3.1-2.5l-0.6,0.8c1,0.8,2.1,1.7,3.1,2.5L397.7,56.9z"/>
		<path class="st1" d="M411.2,68.9c-1-0.9-1.9-1.8-2.9-2.8l-0.7,0.7c1,0.9,1.9,1.8,2.9,2.7L411.2,68.9z"/>
		<path class="st1" d="M271,8c-1.3-0.1-2.7-0.1-4-0.1l0,1c1.3,0,2.7,0.1,4,0.1L271,8z"/>
		<path class="st1" d="M415.4,73.1c-0.9-1-1.9-1.9-2.8-2.8l-0.7,0.7c0.9,0.9,1.9,1.9,2.8,2.8L415.4,73.1z"/>
		<path class="st1" d="M368.2,36.2c-1.2-0.7-2.3-1.3-3.5-2l-0.5,0.9c1.2,0.6,2.3,1.3,3.5,2L368.2,36.2z"/>
		<path class="st1" d="M357.7,30.4c-1.2-0.6-2.4-1.2-3.6-1.8l-0.4,0.9c1.2,0.6,2.4,1.2,3.6,1.8L357.7,30.4z"/>
		<path class="st1" d="M363,33.2c-1.2-0.6-2.4-1.3-3.5-1.9l-0.5,0.9c1.2,0.6,2.3,1.2,3.5,1.9L363,33.2z"/>
		<path class="st1" d="M388.2,49.5c-1.1-0.8-2.2-1.6-3.2-2.4l-0.6,0.8c1.1,0.8,2.2,1.6,3.2,2.4L388.2,49.5z"/>
		<path class="st1" d="M373.3,39.3c-1.1-0.7-2.3-1.4-3.4-2.1l-0.5,0.9c1.1,0.7,2.3,1.4,3.4,2.1L373.3,39.3z"/>
		<path class="st1" d="M378.4,42.5c-1.1-0.7-2.2-1.5-3.4-2.2l-0.5,0.8c1.1,0.7,2.2,1.4,3.3,2.2L378.4,42.5z"/>
		<path class="st1" d="M383.4,45.9c-1.1-0.8-2.2-1.5-3.3-2.3l-0.6,0.8c1.1,0.7,2.2,1.5,3.3,2.3L383.4,45.9z"/>
		<path class="st1" d="M346.8,25.2c-1.2-0.5-2.5-1.1-3.7-1.6l-0.4,0.9c1.2,0.5,2.4,1,3.7,1.6L346.8,25.2z"/>
		<path class="st1" d="M158.8,44l-0.6-0.8c-1.1,0.7-2.2,1.5-3.3,2.3l0.6,0.8C156.6,45.5,157.7,44.7,158.8,44z"/>
		<path class="st1" d="M174,34.4l-0.5-0.9c-1.1,0.7-2.3,1.3-3.4,2l0.5,0.9C171.7,35.7,172.8,35.1,174,34.4z"/>
		<path class="st1" d="M163.8,40.7l-0.5-0.8c-1.1,0.7-2.2,1.5-3.3,2.2l0.6,0.8C161.6,42.1,162.7,41.4,163.8,40.7z"/>
		<path class="st1" d="M168.8,37.5l-0.5-0.9c-1.1,0.7-2.3,1.4-3.4,2.1l0.5,0.8C166.6,38.9,167.7,38.2,168.8,37.5z"/>
		<path class="st1" d="M179.2,31.5l-0.5-0.9c-1.2,0.6-2.3,1.3-3.5,2l0.5,0.9C176.9,32.7,178,32.1,179.2,31.5z"/>
		<path class="st1" d="M189.8,26l-0.4-0.9c-1.2,0.6-2.4,1.2-3.6,1.8l0.4,0.9C187.4,27.2,188.6,26.6,189.8,26z"/>
		<path class="st1" d="M184.5,28.7l-0.5-0.9c-1.2,0.6-2.4,1.2-3.6,1.9l0.5,0.9C182.1,29.9,183.3,29.3,184.5,28.7z"/>
		<path class="st1" d="M153.9,47.4l-0.6-0.8c-1.1,0.8-2.2,1.6-3.2,2.3l0.6,0.8C151.7,49,152.8,48.2,153.9,47.4z"/>
		<path class="st1" d="M438.9,100.4c-0.8-1.1-1.6-2.1-2.4-3.2l-0.8,0.6c0.8,1,1.6,2.1,2.4,3.2L438.9,100.4z"/>
		<path class="st1" d="M442.5,105.3c-0.8-1.1-1.6-2.2-2.4-3.2l-0.8,0.6c0.8,1.1,1.6,2.1,2.3,3.2L442.5,105.3z"/>
		<path class="st1" d="M435.3,95.6c-0.8-1.1-1.7-2.1-2.5-3.1l-0.8,0.6c0.8,1,1.7,2.1,2.5,3.1L435.3,95.6z"/>
		<path class="st1" d="M427.7,86.3c-0.9-1-1.8-2-2.6-3l-0.7,0.7c0.9,1,1.8,2,2.6,3L427.7,86.3z"/>
		<path class="st1" d="M431.5,91c-0.9-1-1.7-2.1-2.6-3.1l-0.8,0.6c0.9,1,1.7,2,2.6,3.1L431.5,91z"/>
		<path class="st1" d="M206.4,19l-0.3-0.9c-1.2,0.5-2.5,0.9-3.8,1.4l0.4,0.9C203.9,20,205.1,19.5,206.4,19z"/>
		<path class="st1" d="M241.1,10.4l-0.1-1c-1.3,0.2-2.6,0.4-4,0.6l0.2,1C238.5,10.7,239.8,10.6,241.1,10.4z"/>
		<path class="st1" d="M229.3,12.4l-0.2-1c-1.3,0.3-2.6,0.6-3.9,0.9l0.2,1C226.7,13,228,12.7,229.3,12.4z"/>
		<path class="st1" d="M247.1,9.7l-0.1-1c-1.3,0.1-2.7,0.3-4,0.4l0.1,1C244.4,10,245.7,9.8,247.1,9.7z"/>
		<path class="st1" d="M235.2,11.3l-0.2-1c-1.3,0.2-2.6,0.5-3.9,0.7l0.2,1C232.6,11.8,233.9,11.5,235.2,11.3z"/>
		<path class="st1" d="M195.3,23.5l-0.4-0.9c-1.2,0.5-2.4,1.1-3.7,1.7l0.4,0.9C192.8,24.6,194.1,24,195.3,23.5z"/>
		<path class="st1" d="M259,8.9l0-1c-1.3,0-2.7,0.1-4,0.2l0.1,1C256.3,9,257.7,9,259,8.9z"/>
		<path class="st1" d="M253,9.2l-0.1-1c-1.3,0.1-2.7,0.2-4,0.3l0.1,1C250.4,9.4,251.7,9.3,253,9.2z"/>
		<path class="st1" d="M263.9,8.8l1.1,0l0-1l-1.1,0c-1,0-2,0-2.9,0l0,1C262,8.9,262.9,8.8,263.9,8.8z"/>
		<path class="st1" d="M212,17.1l-0.3-1c-1.3,0.4-2.5,0.8-3.8,1.3l0.3,0.9C209.5,17.9,210.8,17.5,212,17.1z"/>
		<path class="st1" d="M423.7,81.8c-0.9-1-1.8-2-2.7-3l-0.7,0.7c0.9,1,1.8,2,2.7,2.9L423.7,81.8z"/>
		<path class="st1" d="M200.8,21.2l-0.4-0.9c-1.2,0.5-2.5,1-3.7,1.5l0.4,0.9C198.3,22.2,199.6,21.7,200.8,21.2z"/>
		<path class="st1" d="M217.7,15.3l-0.3-1c-1.3,0.4-2.6,0.8-3.8,1.2l0.3,1C215.2,16.1,216.5,15.7,217.7,15.3z"/>
		<path class="st1" d="M223.5,13.8l-0.2-1c-1.3,0.3-2.6,0.7-3.9,1l0.3,1C220.9,14.4,222.2,14.1,223.5,13.8z"/>
	</g>
</g>
</svg>
