<?xml version="1.0" encoding="utf-8"?>
<!-- Generator: Adobe Illustrator 20.1.0, SVG Export Plug-In . SVG Version: 6.00 Build 0)  -->
<svg version="1.1" xmlns="http://www.w3.org/2000/svg" xmlns:xlink="http://www.w3.org/1999/xlink" x="0px" y="0px"
	 viewBox="0 0 531.7 572.4" style="enable-background:new 0 0 531.7 572.4;" xml:space="preserve">
<style type="text/css">
	.st0{fill:#FFFFFF;}
	.st1{fill:#1A1A1A;}
</style>
<g id="back">
	<path class="st0" d="M528.4,427.5c-3.6-30.3-17.1-97.8-42.5-136.6c-18.8-28.8-53-58.1-87.2-74.7l-0.3-0.1l0-0.3
		c0.1-2.5,0.5-15.5-3-24.4c-2.6-6.5-1.8-13.3-1-21.2c0.5-4.4,1-8.9,1-13.8l0-1.6c0-15.1,0.1-46.7-23-80.4c-2.7-4-5.6-7.9-8.5-11.8
		l-0.1-0.1c-19.4-40.6-57.7-58.2-72.2-59.9l-1.8-0.2c-20-2.4-40.7-5-83.2,22.5c-43.3,27.9-46.8,88.5-46.9,89.1l0.1,0.2l0,0.2
		c-2.3,8.8-4.3,18.2-5.9,28c-0.2,1.3-0.4,2.3-0.5,3.1c-1,5.3-1.2,15.3-1.5,24.2c-0.3,11-0.6,18.4-1.5,19.8c-1.9,2.9-2.9,6.6-4,12
		c-0.2,1-0.5,4.2-0.9,8.2l0,0.3l-0.3,0.1c-36.2,15.8-64.3,43.5-81.5,63.9l-0.2,0.2l-0.3-0.1c-1.5-0.3-3-0.5-4.6-0.6l-0.6,0l0.2-0.6
		l0-6.9c0-2.6-2.1-4.8-4.8-4.8s-4.8,2.1-4.8,4.8v8.2l-0.4,0.1c-4.8,0.9-8.3,2.4-8.9,2.6l-0.6,0.3l-0.1-0.7c-0.2-1.2-0.6-2-1.3-2.6
		c-0.9-0.7-2.3-0.9-4.1-0.5c-14.1,3.2-17.5,6.1-17.5,6.1c-0.2,0.1-2.7,1.9-3.3,5.8l0,0.3l-0.2,0.1c-3.3,1.6-3.7,2.6-3.8,3.6
		c-0.2,1.5-0.1,11.3,0,16.9l0,0c0,0.3,0.1,0.5,0.2,0.6c0.5,0.6,1.3,0.7,2.2,0.3l0.7-0.3l0,0.8c-0.3,12.6-0.9,45.3,0.5,76l0,0.1
		l0,0.1c-10.5,46.9-13,98.7-7.5,153.8c0.7,6.5,2.5,12.4,18.1,12.4c1.2,0,2.5,0,3.9-0.1l11.3,0l0,0.5c0,0.9,0.2,1.7,0.4,2.4
		c0.1,0.3,0.2,0.8,0.4,1.3c1.3,4.6,4.5,15.4,10.8,16.1c3.1,0.4,5.4,0.5,7.3,0.5c2.4,0,4.2-0.3,6.8-0.6l1-0.1l0.4-0.2l0.2,0.4
		c0.6,1,1.8,1.5,3,1.2c0.9-0.3,1.6-1.2,1.6-2.2l0-0.5h0.5c8.1-1.3,17.1-3.7,17.9-5.9l0.1-0.2c0.7-2,1.4-3.7-2-12l-0.3-0.7h424.5
		c9.2,0,19-5.3,19-13.3c0-1.3,0.1-4.4,0.2-8.7l0-0.6C530.1,504.7,531.3,451.8,528.4,427.5z M54.3,285.7c-6.3,8.3-10.8,15-13.4,19.2
		l-0.9,1.4l0-1.6c-0.1-2.7-0.1-4.9-0.2-6.5l0-0.9l0.8,0.5l0,0c1.1-0.7,1.3-1.1,1.2-1.9l0-0.1l0-0.1c0.1-1,0.1-3.7,0-7.4l0-0.5h0.5
		c0.2-0.1,4.1-2.6,11.6-2.8l1,0L54.3,285.7z M365.4,135.6c-0.2,3.6-0.5,7.1-0.6,10.4c-1.1,18.7-1.8,28.6-4,30.4
		c-2.8,2.4-6.1,8.4-5.9,23.6l0.3,0.8l-0.8-0.2c-2.2-0.5-4.2-0.9-5.9-1.2c-48.3-8.7-106.3-15.5-169.9-0.1l-0.6,0.1l0-13
		c0-0.2,0.5-3.9-1.6-6.4c-3.1-3.6-6-20.1-6.9-33.4c2.8-24,11.6-47.5,19.1-60.2c10.8-18.3,33.1-50.4,61-59l1.4-0.4
		c14.3-4.5,34-10.6,76.6,20.4c11.2,8.1,20.8,18.3,28.6,30.3l0.1,0.1l0,0.1C356.1,78.2,366.9,112.9,365.4,135.6z"/>
</g>
<g id="lines">
	<g>
		<path class="st1" d="M529.9,427.3c-3.6-30.4-17.2-98.1-42.7-137.2c-19-29.1-53.4-58.6-87.7-75.2c0,0,0,0,0,0
			c0.1-4.2,0.2-15.6-3.1-23.8c-2.5-6.2-1.8-12.9-0.9-20.7c0.5-4.4,1-8.9,1-13.9l0-1.6c0-15.2,0.1-47-23.2-81
			c-2.8-4.1-5.7-8-8.5-11.8c-19.5-41-58.2-58.7-72.9-60.4l-1.8-0.2c-20.2-2.5-41.1-5-83.9,22.6c-43.7,28.2-47.3,89.3-47.3,89.9
			c0,0.1,0,0.1,0,0.2c-2.3,8.8-4.3,18.1-5.9,28c-0.2,1.3-0.4,2.3-0.5,3.1c-1,5.4-1.2,15-1.5,24.3c-0.2,8-0.5,18-1.4,19.3
			c-2,3-3,6.8-4.1,12.4c-0.1,0.7-0.5,3.6-0.8,7.6c-0.1,0-0.2,0.1-0.3,0.1c-32.1,14-60.3,38.7-81.5,63.7c-1-0.2-2.1-0.3-3.1-0.4V266
			c0-3.4-2.8-6.3-6.3-6.3s-6.3,2.8-6.3,6.3v6.9c-3.3,0.7-5.9,1.6-7.3,2.1c-0.3-1-0.9-1.8-1.6-2.4c-1.3-1-3.1-1.2-5.4-0.7
			c-13.5,3.1-17.5,5.9-18.1,6.4c-0.5,0.4-3,2.4-3.7,6.2c-3.4,1.7-4,3-4.2,4.7c-0.2,1.9,0,15.7,0,17.2c0,0.1,0,0.2,0,0.3
			c0,0.1,0,0.2,0.1,0.2c0,0,0,0,0,0c0.1,0.3,0.2,0.6,0.4,0.8c0.7,0.8,1.5,1.1,2.4,1.1c0.1,0,0.1,0,0.1,0c-0.3,12.5-0.8,44.3,0.5,74
			c0,0,0,0.1,0,0.1c-10.5,47-13,99-7.5,154.5c0.8,8.4,4.5,13.6,19.5,13.6c1.3,0,2.6,0,4-0.1h9.8c0.1,0.7,0.2,1.4,0.4,2.1
			c0.1,0.3,0.2,0.8,0.4,1.2c1.5,5.3,4.7,16.3,12.1,17.2c3.3,0.4,5.6,0.5,7.5,0.5c2.5,0,4.4-0.3,7-0.6l1-0.1c0,0,0.1,0,0.1,0
			c0.3,0.3,0.6,0.5,1,0.7c0.5,0.2,1,0.4,1.5,0.4c0.4,0,0.8-0.1,1.1-0.2c0.9-0.3,1.6-0.9,2-1.8c0.1-0.1,0.1-0.2,0.1-0.3
			c6.6-1.1,17.8-3.4,19.1-6.8l0.1-0.2c0.9-2.4,1.3-4.7-1.6-12h422.4c9.9,0,20.5-5.6,20.5-14.6c0-1.4,0.1-4.7,0.2-9.3
			C531.6,504.6,532.8,451.7,529.9,427.3z M139.2,417.8l-70.6-15.7c3.2-5.8,17.4-10.9,30.6-10.6c-0.1,1.4-0.2,2.7-0.3,3.8
			c-1.1-0.1-2.2,0.6-2.4,1.7l-0.1,0.3c-0.3,1.2,0.5,2.4,1.7,2.6l17.2,3.6c0.2,0,0.3,0,0.5,0c1,0,1.9-0.7,2.2-1.8l0.1-0.3
			c0.2-1.1-0.5-2.3-1.6-2.6c0.1-0.8,0.2-1.8,0.3-3C128.3,401.6,139.4,411,139.2,417.8z M76.2,539.9c-0.2,0.3-0.6,0.7-1.1,1
			c-0.1,0-0.2,0.1-0.3,0.2c-2.7,1.6-8.7,3.6-15.5,4.5c-1,0.1-2,0.3-2.9,0.4c-5.8,0.9-10.9,1.6-15-0.3c-0.6-0.3-1.2-0.8-1.7-1.6
			c0,0,0,0,0-0.1c-1.6-2.2-2.8-5.9-3.5-9.4c0.6,0.3,1.2,0.5,1.9,0.7c0,0,0,0,0,0c0.4,0.1,0.9,0.2,1.4,0.4c1.8,0.4,3.8,0.6,5.9,0.6
			c9.3,0,21.2-3.3,26.7-6.3c0.1,0,0.1-0.1,0.2-0.1c1.1-0.6,1.9-1.1,2.4-1.6c0.2-0.2,0.3-0.3,0.4-0.5
			C76.9,532.3,77.1,538.2,76.2,539.9z M67.9,560.6c-0.6-1.8-2.6-2.8-4.4-2.1c-0.9,0.3-1.6,0.9-2,1.8s-0.5,1.8-0.2,2.6l0.5,1.6
			c-5,0.6-9.5,1-10.7-0.4c-3-3.4-5.2-10.6-6.2-14.3c0.9,0.1,1.8,0.2,2.7,0.2c2.9,0,5.9-0.4,9.2-0.9c0.9-0.1,1.9-0.3,2.9-0.4
			c4.5-0.6,10.8-2,15-4.1c1,3.3,2.7,6.1,4.1,8.4c1.9,3.1,3,5.1,2.5,6.8c-1.1,0.7-5.9,2.4-12.5,3.5L67.9,560.6z M36.3,531.5
			c-0.6-0.4-0.9-0.8-1-1.2c-0.1-0.5,0.1-1,0.4-1.5C35.9,529.8,36.2,530.8,36.3,531.5z M73.3,524.9c-0.1,0.5-0.5,1.1-0.8,1.4
			c0,0-0.1,0.1-0.1,0.1c-0.3-1-0.6-2.1-0.8-3.1c0.8,0.2,1.3,0.6,1.6,0.9C73.1,524.5,73.1,524.7,73.3,524.9z M69.7,528
			c-0.7,0.3-1.5,0.7-2.4,1c-0.3-0.8-0.5-1.7-0.8-2.5l-1,0.3c0.3,0.9,0.5,1.7,0.8,2.6c-6.2,2.3-15.9,4.6-23.2,4l0.4-0.1
			c0,0-0.3-1.4-1-3.9l-1,0.2c0.5,2,0.8,3.3,0.9,3.7c-0.9-0.1-1.7-0.2-2.5-0.4c-0.1,0-0.2,0-0.3-0.1c-2-8.3-18.3-75.4-23.8-117.4
			c0.5-1.9,4-12.6,13.6-18.4c8.6,2.2,15.6,10.8,16.9,12.4c3.4,22.7,7.9,50.6,13.6,77.8c0,0.2,0,0.4,0.1,0.6
			C63,501.7,66.2,515.3,69.7,528z M15.9,305.6c0-0.9,0.1-1.7,0.1-2.4c2.1-0.8,5-1.8,8.9-3l3.4-1c2.6-0.8,4.7-1.4,6.6-1.9
			c0,0.6,0,1.4,0,2.3l1,0c0-1.1,0-2,0-2.6c0.9-0.3,1.7-0.5,2.4-0.6c0,1.9,0.1,5.4,0.3,9.9c0,0,0,0.1,0,0.1
			c0.7,21.2,2.5,66.3,6.7,94.9c0.1,0.9,0.3,1.8,0.4,2.7c-0.9-0.9-1.9-1.9-3-2.9c-0.2-1.3-0.4-2.6-0.5-3.8l-1,0.1
			c0.1,0.9,0.2,1.8,0.4,2.7c-3.2-2.6-7.3-5.2-11.9-6.2c-0.4-0.1-0.7,0-1.1,0.2c-4.4,2.5-7.6,5.9-10,9.3l0,0l-1,0.1l0.1,1.2
			c-1,1.6-1.9,3.1-2.5,4.5c-0.3-2.3-0.5-4.5-0.6-6.6c-3.1-38.6-1.7-90.7-1.5-98.1c0.6-0.3,1.2-0.6,2-0.9c0,0.5,0,1.2-0.1,1.9
			L15.9,305.6z M174.4,241.4c0.7,0,1.8-0.5,2.4-3.2c3.4,2.8,5.5,6.7,5.6,10.7c0.1,4.1-1.1,6.8-2.1,8.2c0,0,0,0,0,0
			c-0.2-0.2-0.5-0.2-0.8-0.2c-0.1,0-9.9,2.3-17.7,2.6c-2.1,0.1-4.6-0.2-7.4-0.6c0.1-0.3,0.1-0.5,0.1-0.7c0-2.9-8.3-6-8.4-6.1
			c-3.5-1.3-4.5-0.8-5-0.3c-0.1,0.1-0.1,0.1-0.1,0.2c0,0-0.1,0.1-0.1,0.3c-0.3-1-0.4-2.1-0.5-3.2c-0.1-3.1,1.3-6.4,3.8-9
			c0.1,0.5,0.3,0.9,0.5,1.1C146.8,243.2,166.2,242,174.4,241.4z M174.2,239.4C174.3,239.4,174.3,239.4,174.2,239.4
			C174.3,239.4,174.3,239.4,174.2,239.4C174.3,239.4,174.3,239.4,174.2,239.4z M368.2,202.6c-4.2-1.3-8.2-2.4-12.4-3.3
			c-0.1-14.2,2.9-20,5.5-22.2c2.4-2.1,3.1-11,4.3-31.1c0.2-3.2,0.4-6.7,0.6-10.4c1.1-16.7-4.4-39.8-7.4-51.2
			c18.1,32,18.4,64.9,18.4,66.8c0,21.2-1.6,34.8-4.9,40.5C370.7,195.1,369.3,198.7,368.2,202.6z M355,78.1
			C355,78.1,355,78.2,355,78.1c0.1,0.4,10.8,34.9,9.3,57.5c-0.2,3.6-0.5,7.1-0.6,10.4c-1,15.7-1.7,28.1-3.6,29.7
			c-2.9,2.5-6.3,8.6-6.2,23.3c-1.7-0.4-3.4-0.7-5.2-1c-48.3-8.7-106.1-15.5-169.5-0.3v-11.2c0.1-0.6,0.3-4.4-2-7.1
			c-3-3.5-5.8-21.1-6.5-35.3c3.2-23.6,11.8-45.7,18.6-57.2c10.7-18.2,32.8-50.1,60.4-58.6l1.4-0.4c14.1-4.4,33.5-10.4,75.7,20.3
			C338.9,57,348,67.4,355,78.1z M169.6,155.7c1.2,10.8,3.3,21.9,6,25c1.9,2.2,1.5,5.6,1.5,5.6c0,0,0,0.1,0,0.1v11.7c0,0,0,0,0,0
			c-0.1,0-0.3,0.1-0.4,0.1c-0.3-2.5-0.8-4.6-1.4-6.2c-0.8-2-1.4-3.6-1.9-4.9c-1.6-3.9-2.3-5.7-3-10.9
			C169.4,169.5,169.2,162.6,169.6,155.7z M136.4,262.6c-2.5-3.3-3.8-7.4-4-12.3c-0.4-11.8,5.6-18.1,11.2-21.4
			c-0.1,3.4,0,6.5,0.2,8.7c0,0,0,0,0,0c-3.6,3.2-5.5,7.4-5.4,11.5c0.1,2.2,0.6,4.2,1.3,5.7C138.9,256.6,137.8,259.2,136.4,262.6z
			 M130.4,250.4c0.2,5.7,1.8,10.4,4.9,14.1c0.1,0.1,0.1,0.1,0.2,0.1c-1.9,4.6-4.1,10.2-6.5,16.9c-0.2,0.1-0.4,0.1-0.6,0.2
			c-2.2,0.7-4.4,6.3-4.8,9.1c-0.3,1.7,0,2.9,0.7,3.4c0.1,0,0.1,0.1,0.2,0.1c-2.8,8.2-5.1,16.9-7.8,26.9c-0.8,2.9-1.6,6-2.5,9.2
			c-1.1,0.2-2.2,0.6-3.2,1.2c-2.3,1.4-3.9,3.5-4.6,6.1l-2.2,8.6c-0.8,3-0.1,6.2,1.9,8.7c-0.6,2.7-1.3,5.6-1.9,8.5
			c-2.1,1.7-3.5,9.9-2.7,11.6c0.1,0.2,0.2,0.3,0.3,0.4c-0.8,4.3-1.7,9.5-2.3,14.1c-13.8-0.3-30.6,5.1-33.1,13c0,0,0,0,0,0
			c0,0,0,0,0,0l-10.4,46.7c-3.1-17.6-5.6-34.4-7.7-48.5c-3-20.5-4.8-49.5-5.8-72.1c7.9-17.1,16.5-31.1,24.7-40.7
			c20.7-23.9,44.1-42.9,69.8-56.4C133.1,235.7,130.1,241.6,130.4,250.4z M127.3,340.4c0.4,0.8,0.6,1.7,0.4,2.6l-2.3,8.8
			c-0.2,0.9-0.8,1.6-1.5,2.1C125,348.9,126.1,344.4,127.3,340.4z M125.5,339.1c-1.3,4.5-2.6,9.7-3.9,15.6c-0.2,0.2-0.3,0.5-0.3,0.8
			c0,0.1,0,0.2,0.1,0.3c-0.2,1.1-0.4,2.1-0.7,3.2c-0.2,0.2-0.4,0.4-0.4,0.8c0,0.2,0.1,0.3,0.1,0.5c-0.5,2.6-1,5.4-1.6,8.3
			c-0.9,0-2-0.3-4.4-0.8l-1.6-0.4c-3.9-0.9-6-2.5-6.9-3.3c2.2-10.2,4.8-20.8,6.1-24.9c0.6-1.9,2.4-3,4.2-2.5l8.8,2.3
			c0.2,0,0.3,0.1,0.5,0.2C125.6,339,125.6,339.1,125.5,339.1z M116.1,400.4c0.1-0.1,0.1-0.2,0.2-0.3c0.5,0.2,0.9,0.8,0.7,1.4
			l-0.1,0.3c-0.1,0.7-0.8,1.1-1.4,0.9l-3.4-0.7C113.9,401.8,115.3,401.3,116.1,400.4z M98.9,396.4C98.9,396.4,98.9,396.4,98.9,396.4
			c0.2,1.3,1.2,2.5,3,3.4l-3.6-0.8c-0.7-0.1-1.1-0.8-0.9-1.4l0.1-0.3C97.6,396.6,98.3,396.2,98.9,396.4z M41.3,298.9L41.3,298.9
			c1.5-0.9,2-1.9,1.9-3.1c0,0,0,0,0,0c0.1-1.1,0.1-4.2,0-7.6c1.1-0.6,4-1.9,8.8-2.3c-3.9,5.2-7.5,10.4-10.7,15.4
			C41.4,300.4,41.3,299.6,41.3,298.9z M56.8,454.5L68,404.1l70.9,15.7c-1.7,7.9-13,61.4-14.9,67.9l-0.3,1.1
			c-1.9,6.3-2.7,9.1-12.1,10.2c-9.7,1.1-34.6-0.4-48.2-11.1C60.9,476.8,58.7,465.5,56.8,454.5z M114.4,399.3
			c-1.4,1.1-6.2,0.9-9.9-0.5c-2.2-0.8-3.6-2-3.6-2.9c0.1-3.8,1-10.3,2.5-18.7c1.4,1.1,3.4,2,6,2.8c2.1,0.6,4,0.9,5.6,0.9
			c0.7,0,1.4-0.1,2-0.1C115.6,389.3,114.8,395.9,114.4,399.3z M118.9,378.1c-0.2,0.1-0.6,0.3-1,0.4c0,0,0,0,0,0
			c-1.5,0.4-4.3,0.7-7.9-0.4c-3.2-1-5.4-2.1-6.4-3.4c0,0,0,0,0,0c-0.1-0.2-0.3-0.4-0.4-0.6c-0.4-1.1,0.6-6.6,1.7-8.5
			c1.2,1,3.6,2.6,7.6,3.6l1.6,0.4c3.3,0.8,4.7,1.1,6.2,0.7C120.2,373.9,119.4,377.6,118.9,378.1z M123.3,356.2c1.9-0.5,3.5-2,4-3.9
			l2.3-8.8c0.7-2.9-1-5.9-3.9-6.6l-8.8-2.3c-2.8-0.7-5.7,0.9-6.6,3.9c-0.8,2.6-2.2,7.7-3.6,13.8c-0.8-1.7-1-3.6-0.6-5.5l2.2-8.6
			c0.5-2.1,1.8-3.8,3.7-4.9c1.8-1.1,4-1.4,6.1-0.9l7.7,2c2.1,0.5,3.8,1.8,4.9,3.7c1.1,1.8,1.4,4,0.9,6.1l-2.2,8.6
			c-0.8,3.1-3.4,5.4-6.4,5.9C123,357.8,123.2,357,123.3,356.2z M126.2,332.4l-7.7-2c-0.7-0.2-1.5-0.3-2.3-0.3
			c0.8-2.9,1.6-5.7,2.3-8.4c2.8-10.2,5.2-19.1,8.1-27.5c2.3-0.1,6.9,0.1,11.9,3c-4.1,12.2-7.7,24.2-10.8,35.7
			C127.2,332.7,126.7,332.6,126.2,332.4z M127.7,292.2c-1,0-1.8,0.1-2.3,0.1c0-0.7,0.2-2.2,1-4.4c1.1-2.8,2.2-4.2,2.6-4.3
			c6.4-2,13.9,2.7,15.4,3.6c0.1,0.8-0.2,3-1.3,5.7c-0.8,1.9-1.6,3-2.1,3.5C135.7,292.9,130.7,292.2,127.7,292.2z M131.2,281.2
			c5.9-16,10.5-26.1,11.4-28c1.9-0.2,9.2,3.4,9.8,4.9c-0.2,0.7-1.1,3.3-2.4,6.5c-1.7,4.5-4.2,11.3-7.1,19.5
			C140.2,282.6,135.7,280.8,131.2,281.2z M152,265.3c0.8-2.1,1.3-3.6,1.7-4.6c3,0.6,5.8,0.8,8.1,0.7c6.5-0.2,14-1.7,16.9-2.3
			l0.4,12.1c-1.7,0.7-7.5,2.9-17.9,3.2c-4.6,0.1-8.6-0.4-12.1-1.5C150.2,270,151.2,267.4,152,265.3z M180.7,259.7
			c1-1,3.9-4.4,3.7-10.9c-0.2-4.9-2.9-9.7-7.2-12.8c0.1-1.2,0.2-2.7,0.2-4.5c0-1,0-2.2,0-3.5c8.4,4.1,13,11.6,13.4,21.8
			c0.4,13.2-7.7,18-9.8,19L180.7,259.7z M177,201.2c64-15.9,122.4-9.1,171.1-0.4c6.9,1.2,12.9,2.7,19.4,4.7
			c-0.8,3.8-1.2,7.7-1.2,11.8c0,0.2,0,0.3,0,0.5c-31.4-9.9-69.2-14.5-119-14.5c-24.5,0-48,3.2-69.9,9.6
			C177.5,208.9,177.3,204.9,177,201.2z M365.7,235.9c-4.6,3.2-7.3,7.8-7.3,12.5c0,6.1,2.7,9.3,3.8,10.3l-0.6,8.2
			c-2.7-1.4-9.2-6.1-9.2-17.5c0-13,7.2-19.1,13.7-22C366,230.4,365.8,233.5,365.7,235.9z M364.3,257.8c3,1.1,10.5,3.6,17,3.6
			c6.5,0,14-1.3,16.9-1.8v12.1c-1.7,0.7-7.5,2.7-17.9,2.7c-10.6,0-15.6-3.4-16.8-4.4L364.3,257.8z M381.2,259.4
			c-7.7,0-17.4-3.9-17.5-3.9c-0.3-0.1-0.6-0.1-0.9,0.1c-0.2,0.1-0.3,0.2-0.4,0.4c-1-1.4-2.1-3.9-2.1-7.6c0-3.6,1.9-7.2,5.2-9.9
			c-0.1,1.7-0.2,2.7-0.2,2.8c0,0.3,0.1,0.5,0.3,0.7c0.2,0.2,0.4,0.3,0.7,0.3l30,0.9c0,0,0,0,0,0c0.5,0,1-0.3,1-0.8l0.3-3.3
			c3.9,3.4,4.8,7.5,4.8,10.5c0,4.2-1.4,6.9-2.5,8.3c0-0.1-0.1-0.1-0.2-0.2c-0.2-0.2-0.5-0.3-0.8-0.2
			C398.8,257.4,389,259.4,381.2,259.4z M400.1,260.5c1-0.9,4.3-4.3,4.3-11c0-5.1-2.3-9.7-6.6-12.9l0.6-7.9
			c8.2,4.4,12.3,11.8,12.3,21.9c0,13.9-9.2,18.3-10.7,18.8V260.5z M207.2,25.7C249.4-1.5,269.9,1,289.7,3.4l1.8,0.2
			c14.6,1.8,46.9,18.1,66.2,49.8c-21.1-24.9-43.4-40.6-62.1-42.9c-2.2-0.3-4.5-0.7-7-1.1c-18-3-42.8-7.1-81.8,23.1
			C187.1,47.8,172.3,71,162.3,102C165.7,82.8,176.1,45.8,207.2,25.7z M151.2,189.9c1.1-1.7,1.4-8.5,1.7-20.4
			c0.2-8.8,0.5-18.8,1.5-24c0.1-0.8,0.3-1.8,0.5-3.1C163.2,91.4,181,55,208,34.2c38.4-29.7,62.6-25.6,80.3-22.7
			c2.5,0.4,4.8,0.8,7.1,1.1c22.9,2.8,51.4,26.2,76.2,62.4c22.9,33.5,22.9,64.8,22.8,79.8l0,1.6c0,4.9-0.5,9.4-1,13.7
			c-0.9,8-1.6,15,1,21.6c3.4,8.5,3.1,20.8,3,23.9c-0.1,0.3-0.1,0.6-0.1,1l-1.9,24.8l-28-0.9c0.2-3.6,0.9-15.5,0.9-23
			c0-9.2,2.1-17.9,5.9-24.5c3.5-6,5.1-19.6,5.1-41.5c0-2.8-0.6-67.8-51.4-104.8c-43-31.3-62.9-25.1-77.5-20.6l-1.4,0.4
			c-28.3,8.7-50.7,41-61.6,59.4c-6.7,11.4-15.2,32.8-18.6,56c-0.2,0.2-0.4,0.5-0.4,0.8c0,0.5,0,0.9,0.1,1.4
			c-1.4,10.8-1.7,21.9-0.2,32.4c0.8,5.4,1.6,7.4,3.2,11.3c0.5,1.3,1.2,2.9,1.9,4.9c0.7,1.8,1.1,4.3,1.4,7.2c0,0,0,0,0,0
			c0.8,7.6,0.7,18.1,0.6,25.7c0,2.2-0.1,4.2-0.1,5.8c0,6.3-1,7.8-1.2,8c-12.5,0.9-26.3,1.3-28,0.3c-1.4-2.7,0.1-32.2,1.3-38.1
			C148.4,196.3,149.4,192.7,151.2,189.9z M144.4,212.1c-0.3,4.3-0.6,9.3-0.7,13.9c-28.9,13.8-55.1,34.3-78,60.8
			c-7.8,9.1-15.9,22-23.4,37.7c-0.3-6.8-0.5-12.9-0.7-17.8C49.1,294.5,86.4,237.9,144.4,212.1z M53.7,283.9
			c-5.2,0.1-8.6,1.3-10.4,2.1c-0.1-3.8-0.3-7.5-0.4-8.2c0-0.2-0.1-0.4-0.2-0.5c3.6-1.2,10.5-3,18-2C58.2,278.1,55.9,281,53.7,283.9z
			 M50.2,266c0-1.8,1.5-3.3,3.3-3.3s3.3,1.5,3.3,3.3v6c-2.3,0-4.5,0.1-6.5,0.4V266z M16.5,280.8c0.1,0,0.1-0.1,0.2-0.1
			c0,0,3.4-2.7,16.9-5.8c0.9-0.2,2.2-0.3,2.9,0.2c0.4,0.3,0.5,0.7,0.6,1.1c-2.8,0.5-7.4,1.7-15.1,4.2c-3,1-5.4,1.8-7.3,2.6
			C15.5,281.5,16.5,280.8,16.5,280.8z M9.9,289.5c0.1-0.7,0.2-2,13.1-6.3c12.1-4,15.8-4.4,16.9-4.3c0.2,2.2,0.5,9.9,0.5,14.1
			c-1.8,0.1-5.2,1.1-12.9,3.4l-3.4,1c-7.8,2.3-12,4.1-14.3,5.5C9.8,297.1,9.7,290.5,9.9,289.5z M5.8,537.3
			c-5.1-50.9-3.3-98.8,5.2-142.5c0.2,2.7,0.4,5.4,0.6,8.1c0.3,3.8,0.8,8,1.3,12.4C8,441.1,6.4,465,8.4,484.5
			c0.8,8.4,1.1,19.4,1.4,30c0.4,13.3,0.7,25.9,2.1,32.3C6.6,544.7,6.2,540.8,5.8,537.3z M26.3,548.1c-5.4,0.3-9.3,0-12.2-0.7
			c-1.5-5.5-1.9-18.9-2.3-33c-0.3-10.7-0.6-21.7-1.5-30.1c-1.8-17.7-0.6-39.3,3.4-62.6c5.1,35,16.2,83.3,21,103.4
			c-1.1,1.1-3,3.4-2.4,5.9c0,0,0,0.1,0,0.1c0.2,1.4,1.2,9.3,4.3,14.2c-0.2,0.6-0.4,1.6-0.5,2.8L26.3,548.1z M49.4,568.6
			c-5.3-0.6-8.4-11.1-9.5-15.1c-0.1-0.5-0.3-0.9-0.4-1.3c-0.5-1.5-0.4-3-0.2-4.3c0.3,0.2,0.6,0.4,0.9,0.5c0.5,0.2,1,0.4,1.5,0.6
			c0.7,2.9,3.3,12.5,7.2,16.9c1.3,1.5,3.4,1.9,6.1,1.9c2.2,0,4.9-0.3,7.9-0.7l0.4,1.2l-0.2,0C58.6,569.2,56.6,569.5,49.4,568.6z
			 M68.4,569.6c-0.2,0.4-0.5,0.6-0.8,0.7c-0.4,0.1-0.8,0.1-1.1-0.1c-0.3-0.2-0.6-0.4-0.7-0.7c0-0.1-0.1-0.3-0.1-0.4l-2.4-6.9
			c-0.1-0.4-0.1-0.8,0.1-1.1c0.2-0.4,0.5-0.6,0.8-0.7c0.2-0.1,0.3-0.1,0.5-0.1c0.6,0,1.2,0.4,1.4,1l2.5,7.2
			C68.6,568.8,68.6,569.2,68.4,569.6z M86.7,562l-0.1,0.2c-0.7,1.2-7.2,3.4-16.5,4.9l-0.3-1c2.6-0.5,13.3-2.6,14.2-5.1
			c1.3-3.3-0.5-6.3-2.7-9.7c-1.5-2.4-3.1-5.2-4-8.4c0.6-0.5,1.1-1,1.5-1.6c0.1-0.2,0.2-0.4,0.3-0.7c0.7,0.6,1.8,1.9,3.2,5
			C88.1,558.3,87.4,560.2,86.7,562z M86.7,548.1c-0.5-1.1-1-2.4-1.6-3.7c-1.8-3.9-3.6-6.2-5.4-6.9c0.2-4.1-0.8-9.9-3.5-13.6
			c-0.1-0.2-0.1-0.4-0.2-0.6c-0.7-1.7-2.8-2.9-5.3-3.1c-2.4-9.4-4.7-19.3-6.8-29.3c11.8,8.1,29.6,10.5,41.1,10.5
			c2.6,0,4.9-0.1,6.7-0.3c10.7-1.2,11.9-5.1,13.8-11.6l0.3-1.1c2.2-7.1,14.7-66.5,15.2-69.1c0,0,0,0,0,0c1.9-8.8-12.7-19.9-24-25.3
			c0.5-3.6,1.1-8.3,1.9-13.7c0.4-0.1,0.6-0.3,0.9-0.4c2-1.1,2.5-8.3,2.3-11c0-0.3-0.2-0.6-0.5-0.8c-0.2-0.1-0.4-0.2-0.7-0.1
			c0.5-2.5,0.9-4.9,1.4-7.2c4.2-0.4,7.7-3.3,8.8-7.5l2.2-8.6c0.7-2.6,0.3-5.3-1.1-7.6c-0.7-1.3-1.7-2.3-2.9-3.1
			c3.1-11.5,6.7-23.4,10.8-35.6c0,0,0.1,0.1,0.1,0.1c0.2,0.1,0.4,0.2,0.6,0.2c0.1,0,0.3,0,0.4-0.1c1.8-0.7,3.2-3.7,3.9-5.4
			c0.2-0.5,1.9-5.1,1-7c-0.1-0.1-0.2-0.3-0.3-0.4c-0.1-0.1-0.5-0.3-1.1-0.7c1.3-3.8,2.6-7.2,3.7-10.3c3.3,1.1,7,1.6,11.2,1.6
			c0.5,0,1.1,0,1.6,0c13.1-0.4,19.1-3.6,19.3-3.7c0.3-0.2,0.5-0.5,0.5-0.9l0-1c0.1,0,0.2,0,0.2,0c0.1,0,12-5,11.5-21.2
			c-0.4-11.3-5.7-19.5-15.3-23.9c0-3.2,0.1-6.8,0.1-10.6c21.8-6.4,45.3-9.7,69.8-9.7c49.9,0,87.7,4.6,119,14.6
			c0,1.6-0.1,3.4-0.1,5.2c-7.4,3-15.8,9.6-15.8,24.2c0,13.5,8.8,18.6,11.1,19.7l-0.1,1.2c0,0.3,0.1,0.6,0.3,0.8
			c0.2,0.2,5.3,5.3,18.6,5.3c13.1,0,19.1-3,19.3-3.1c0.3-0.2,0.5-0.5,0.5-0.9v-1c0.1,0,0.1,0,0.2,0c0.1,0,0.2,0,0.3-0.1
			c0.1,0,12.1-4.6,12.1-20.8c0-4.9-1-9.2-2.8-13c34.6,19.3,61.7,48,78.5,83.2l2.4,5c15.5,32.4,18.7,39.2,27.5,106.7
			c7.3,56.1,2,106.4,1.1,113.8c-2.8,1.2-6,1.8-9.1,1.8H86.7z M528.1,527.2c-0.1,4.6-0.2,7.9-0.2,9.3c0,3.7-2.6,6.7-6.2,8.8
			c1.2-10.8,5.8-59.2-1.3-113c-8.9-67.9-12.1-74.7-27.7-107.3l-2.4-5c-17.5-36.6-45.9-66.3-82.4-85.8c-2.3-3.2-5.4-5.7-9.3-7.7
			l0.7-8.4c33.5,16.5,66.9,45.3,85.4,73.6c25.2,38.6,38.7,105.8,42.3,135.9C529.8,451.8,528.6,504.6,528.1,527.2z"/>
		<path class="st1" d="M305.4,249.4c-5.9,0-35.7,1-36,1c-1.3,0-31.1,1-36.2,2c-3.7,0.7-5,2.4-5.3,3.7c-0.5,1.6,0.2,3.4,1.8,5
			c3,3,35.2,33.3,37,35c0.4,0.4,2.5,2.7,4.8,2.7c2.4,0,4.5-2.5,4.7-2.8c0.3-0.4,30.5-35.5,32.9-37.9c1.8-1.8,2.5-4.2,1.8-6
			C310.3,250.9,309,249.4,305.4,249.4z M307.7,256.7c-2.5,2.5-31.8,36.6-33.1,38.1c-0.4,0.5-1.9,2-3.1,2c-1.3,0-2.9-1.5-3.3-2.1
			c0,0,0-0.1-0.1-0.1c-0.3-0.3-34-32-37-35c-1.1-1.1-1.6-2.2-1.3-3c0.3-1,1.7-1.9,3.8-2.3c4.9-1,35.5-2,35.8-2h0c0.3,0,30.1-1,36-1
			c1.9,0,3.2,0.5,3.6,1.5C309.4,253.9,308.9,255.5,307.7,256.7z"/>
		<path class="st1" d="M15.5,325.5l-1,0c0,1.3,0,2.6,0,4l1,0C15.5,328.2,15.5,326.8,15.5,325.5z"/>
		<path class="st1" d="M15.6,319.5l-1,0c0,1.3,0,2.6-0.1,4l1,0C15.6,322.2,15.6,320.8,15.6,319.5z"/>
		<path class="st1" d="M15.7,313.5l-1,0c0,1.3-0.1,2.6-0.1,4l1,0C15.7,316.1,15.7,314.8,15.7,313.5z"/>
		<path class="st1" d="M15.5,331.2l-1,0.1c0,1.3,0,2.8,0,3.8h1C15.5,334.1,15.5,332.5,15.5,331.2z"/>
		<path class="st1" d="M15.5,337.5l-1,0c0,1.3,0,2.6,0,4l1,0C15.5,340.2,15.5,338.9,15.5,337.5z"/>
		<path class="st1" d="M15.6,349.5l-1,0c0,1.3,0,2.7,0.1,4l1,0C15.6,352.2,15.6,350.9,15.6,349.5z"/>
		<path class="st1" d="M17.4,401.5l1-0.1c-0.1-1.3-0.3-2.6-0.4-4l-1,0.1C17.1,398.9,17.2,400.2,17.4,401.5z"/>
		<path class="st1" d="M15.5,343.5l-1,0c0,1.3,0,2.7,0,4l1,0C15.5,346.2,15.5,344.9,15.5,343.5z"/>
		<path class="st1" d="M16.8,395.5l1-0.1c-0.1-1.3-0.2-2.6-0.3-4l-1,0.1C16.5,392.9,16.6,394.2,16.8,395.5z"/>
		<path class="st1" d="M15.8,383.6l1-0.1c-0.1-1.3-0.2-2.7-0.2-4l-1,0.1C15.7,380.9,15.8,382.2,15.8,383.6z"/>
		<path class="st1" d="M14.8,311.5l1,0c0-1.5,0.1-2.8,0.1-4l-1,0C14.8,308.7,14.8,310,14.8,311.5z"/>
		<path class="st1" d="M16.3,389.6l1-0.1c-0.1-1.3-0.2-2.7-0.3-4l-1,0.1C16.1,386.9,16.2,388.2,16.3,389.6z"/>
		<path class="st1" d="M15.5,377.6l1-0.1c-0.1-1.3-0.1-2.7-0.2-4l-1,0C15.4,374.9,15.4,376.2,15.5,377.6z"/>
		<path class="st1" d="M14.8,361.6c0,1.3,0.1,2.7,0.1,4l1,0c0-1.3-0.1-2.7-0.1-4L14.8,361.6z"/>
		<path class="st1" d="M15.2,371.6l1,0c-0.1-1.3-0.1-2.7-0.2-4l-1,0C15.1,368.9,15.1,370.2,15.2,371.6z"/>
		<path class="st1" d="M15.7,355.5l-1,0c0,1.3,0.1,2.7,0.1,4l1,0C15.7,358.2,15.7,356.9,15.7,355.5z"/>
		<path class="st1" d="M38.8,377.6l1-0.1c-0.1-1.3-0.3-2.7-0.4-4l-1,0.1C38.5,374.9,38.6,376.2,38.8,377.6z"/>
		<path class="st1" d="M38.2,371.6l1-0.1c-0.1-1.3-0.2-2.7-0.4-4l-1,0.1C37.9,368.9,38,370.2,38.2,371.6z"/>
		<path class="st1" d="M37.6,365.6l1-0.1c-0.1-1.3-0.2-2.7-0.3-4l-1,0.1C37.4,362.9,37.5,364.3,37.6,365.6z"/>
		<path class="st1" d="M37.1,359.6l1-0.1c-0.1-1.3-0.2-2.7-0.3-4l-1,0.1C36.9,356.9,37,358.3,37.1,359.6z"/>
		<path class="st1" d="M40.1,389.5l1-0.1c-0.2-1.3-0.3-2.7-0.5-4l-1,0.1C39.8,386.8,39.9,388.2,40.1,389.5z"/>
		<path class="st1" d="M35.9,305.6c0-0.9,0-1.7,0-2.5l0-1.5l-1,0l0,1.5c0,0.8,0,1.6,0,2.5L35.9,305.6z"/>
		<path class="st1" d="M39.4,383.5l1-0.1c-0.1-1.3-0.3-2.7-0.4-4l-1,0.1C39.1,380.9,39.2,382.2,39.4,383.5z"/>
		<path class="st1" d="M36.7,353.6l1-0.1c-0.1-1.3-0.2-2.7-0.3-4l-1,0.1C36.5,350.9,36.6,352.3,36.7,353.6z"/>
		<path class="st1" d="M40.8,395.4l1-0.1c-0.2-1.3-0.3-2.6-0.5-4l-1,0.1C40.5,392.8,40.7,394.1,40.8,395.4z"/>
		<path class="st1" d="M34.9,311.6l1,0c0-1.4,0-2.8,0-4l-1,0C34.9,308.9,34.9,310.2,34.9,311.6z"/>
		<path class="st1" d="M35,317.6l1,0c0-1.4-0.1-2.7-0.1-4l-1,0C35,314.9,35,316.2,35,317.6z"/>
		<path class="st1" d="M35.2,323.6l1,0c0-1.4-0.1-2.7-0.1-4l-1,0C35.1,320.9,35.1,322.3,35.2,323.6z"/>
		<path class="st1" d="M36.3,347.6l1-0.1c-0.1-1.3-0.2-2.7-0.2-4l-1,0.1C36.1,344.9,36.2,346.3,36.3,347.6z"/>
		<path class="st1" d="M35.4,329.6l1,0c-0.1-1.4-0.1-2.7-0.1-4l-1,0C35.3,326.9,35.3,328.3,35.4,329.6z"/>
		<path class="st1" d="M35.6,335.6l1,0c-0.1-1.4-0.1-2.7-0.2-4l-1,0C35.5,332.9,35.6,334.3,35.6,335.6z"/>
		<path class="st1" d="M35.9,341.6l1-0.1c-0.1-1.4-0.1-2.7-0.2-4l-1,0C35.8,338.9,35.9,340.3,35.9,341.6z"/>
		<path class="st1" d="M49.4,507.2c-0.2,0-0.4,0-0.5,0c-1.9,0.2-3.3,1.7-3.1,3.3c0.2,1.4,1.6,2.5,3.3,2.5c0.2,0,0.4,0,0.5,0
			c1.9-0.2,3.3-1.7,3.1-3.3C52.5,508.2,51.1,507.2,49.4,507.2z"/>
		<path class="st1" d="M54.7,480l-1,0.2c0.3,1.3,0.6,2.6,0.9,3.9l1-0.2C55.3,482.6,55,481.3,54.7,480z"/>
		<path class="st1" d="M53.5,474.1l-1,0.2c0.3,1.3,0.5,2.6,0.8,3.9l1-0.2C54,476.7,53.8,475.4,53.5,474.1z"/>
		<path class="st1" d="M46.8,436.7c-0.2-1.4-0.4-2.7-0.6-4l-1,0.1c0.2,1.3,0.4,2.6,0.6,4L46.8,436.7z"/>
		<path class="st1" d="M45.3,426.8l-1,0.1c0.2,1.3,0.4,2.6,0.6,4l1-0.1C45.7,429.4,45.5,428.1,45.3,426.8z"/>
		<path class="st1" d="M25.4,407.3l-0.8-0.6c-0.8,1-1.6,2.1-2.3,3.4l0.9,0.5C23.9,409.4,24.6,408.3,25.4,407.3z"/>
		<path class="st1" d="M20.9,423.5l-1,0.1c0.2,1.3,0.4,2.6,0.6,4l1-0.2C21.3,426.1,21.1,424.8,20.9,423.5z"/>
		<path class="st1" d="M29.5,403.3l-0.6-0.8c-1.1,0.7-2.1,1.6-3.1,2.7l0.7,0.7C27.6,404.8,28.5,403.9,29.5,403.3z"/>
		<path class="st1" d="M24.9,447.2l-1,0.2c0.2,1.3,0.5,2.6,0.7,3.9l1-0.2C25.3,449.8,25.1,448.5,24.9,447.2z"/>
		<path class="st1" d="M56,485.8l-1,0.2c0.3,1.3,0.6,2.6,0.9,3.9l1-0.2C56.6,488.4,56.3,487.1,56,485.8z"/>
		<path class="st1" d="M20.1,417.5l-1,0.1c0.2,1.3,0.4,2.6,0.5,4l1-0.1C20.4,420.2,20.2,418.8,20.1,417.5z"/>
		<path class="st1" d="M23.8,441.3l-1,0.2c0.2,1.3,0.5,2.6,0.7,3.9l1-0.2C24.3,443.9,24,442.6,23.8,441.3z"/>
		<path class="st1" d="M22.8,435.3l-1,0.2c0.2,1.3,0.4,2.6,0.7,4l1-0.2C23.2,438,23,436.6,22.8,435.3z"/>
		<path class="st1" d="M21.8,429.4l-1,0.2c0.2,1.3,0.4,2.6,0.6,4l1-0.2C22.2,432,22,430.7,21.8,429.4z"/>
		<path class="st1" d="M22.2,412.3l-0.9-0.5c-0.8,1.5-1.4,2.8-1.7,3.7l0.9,0.4C20.9,415.1,21.4,413.8,22.2,412.3z"/>
		<path class="st1" d="M50.9,466.5l1-0.2c-0.3-1.3-0.5-2.6-0.8-3.9l-1,0.2C50.4,463.8,50.7,465.1,50.9,466.5z"/>
		<path class="st1" d="M39.5,408.1c-0.9-0.8-2-1.7-3.2-2.5l-0.6,0.8c1.1,0.8,2.2,1.6,3.1,2.5L39.5,408.1z"/>
		<path class="st1" d="M49.8,460.6l1-0.2c-0.2-1.3-0.5-2.6-0.7-3.9l-1,0.2C49.3,457.9,49.6,459.2,49.8,460.6z"/>
		<path class="st1" d="M52.1,472.4l1-0.2c-0.3-1.3-0.5-2.6-0.8-3.9l-1,0.2C51.6,469.7,51.9,471,52.1,472.4z"/>
		<path class="st1" d="M46.7,442.8l1-0.2c-0.2-1.4-0.4-2.7-0.6-4l-1,0.2C46.3,440.1,46.5,441.5,46.7,442.8z"/>
		<path class="st1" d="M47.7,448.7l1-0.2c-0.2-1.3-0.4-2.7-0.7-3.9l-1,0.2C47.3,446.1,47.5,447.4,47.7,448.7z"/>
		<path class="st1" d="M48.7,454.7l1-0.2c-0.2-1.3-0.5-2.7-0.7-3.9l-1,0.2C48.3,452,48.5,453.3,48.7,454.7z"/>
		<rect x="31.3" y="482.5" transform="matrix(0.9779 -0.2091 0.2091 0.9779 -100.5975 17.3659)" class="st1" width="1" height="4"/>
		<rect x="37.9" y="511.9" transform="matrix(0.9745 -0.2246 0.2246 0.9745 -114.4199 21.7501)" class="st1" width="1" height="4"/>
		<rect x="36.6" y="506" transform="matrix(0.9749 -0.2227 0.2227 0.9749 -112.2124 21.0126)" class="st1" width="1" height="4"/>
		<rect x="39.3" y="517.7" transform="matrix(0.9735 -0.2285 0.2285 0.9735 -117.7009 22.8363)" class="st1" width="1" height="4"/>
		<rect x="40.7" y="523.6" transform="matrix(0.9727 -0.2322 0.2322 0.9727 -120.8909 23.9143)" class="st1" width="1" height="4"/>
		<path class="st1" d="M43.8,414.9l-1,0.1c0.1,1,0.3,2.3,0.5,4l1-0.1C44.1,417.3,43.9,415.9,43.8,414.9z"/>
		<path class="st1" d="M43.5,412.5l-0.1-0.1c-0.6-1-1.5-2-2.5-2.9l-0.7,0.7c0.9,0.9,1.7,1.8,2.3,2.7l0,0.1l1-0.1L43.5,412.5z"/>
		<rect x="35.2" y="500.1" transform="matrix(0.9758 -0.2188 0.2188 0.9758 -109.0004 19.9827)" class="st1" width="1" height="4"/>
		<path class="st1" d="M30.7,476.6l-1,0.2c0.3,1.3,0.6,2.6,0.8,3.9l1-0.2C31.2,479.2,31,477.9,30.7,476.6z"/>
		<path class="st1" d="M29.5,470.7l-1,0.2c0.3,1.3,0.5,2.6,0.8,3.9l1-0.2C30,473.4,29.7,472,29.5,470.7z"/>
		<path class="st1" d="M28.3,464.9l-1,0.2c0.3,1.3,0.5,2.6,0.8,3.9l1-0.2C28.8,467.5,28.5,466.2,28.3,464.9z"/>
		<path class="st1" d="M27.1,459l-1,0.2c0.3,1.3,0.5,2.6,0.8,3.9l1-0.2C27.6,461.6,27.4,460.3,27.1,459z"/>
		<path class="st1" d="M26,453.1l-1,0.2c0.3,1.3,0.5,2.6,0.8,3.9l1-0.2C26.5,455.7,26.2,454.4,26,453.1z"/>
		<rect x="32.6" y="488.4" transform="matrix(0.9771 -0.2128 0.2128 0.9771 -103.6002 18.2802)" class="st1" width="1" height="4"/>
		<rect x="33.9" y="494.3" transform="matrix(0.9762 -0.2167 0.2167 0.9762 -106.7393 19.2535)" class="st1" width="1" height="4"/>
		<path class="st1" d="M44.5,420.9l-1,0.1c0.2,1.2,0.3,2.5,0.5,4l1-0.1C44.9,423.4,44.7,422.1,44.5,420.9z"/>
		<path class="st1" d="M34.7,404.4c-1.4-0.9-2.7-1.7-3.5-2.1l-0.5,0.9c0.8,0.4,2,1.1,3.4,2.1L34.7,404.4z"/>
		<path class="st1" d="M59.2,503.6c0.3,1.3,0.7,2.6,1,3.9l1-0.3c-0.3-1.3-0.7-2.6-1-3.9L59.2,503.6z"/>
		<path class="st1" d="M61.7,513.3l1-0.3c-0.3-1.3-0.7-2.6-1-3.9l-1,0.3C61,510.7,61.4,512,61.7,513.3z"/>
		<path class="st1" d="M57.3,491.7l-1,0.2c0.3,1.3,0.6,2.6,0.9,3.9l1-0.2C58,494.3,57.6,493,57.3,491.7z"/>
		<path class="st1" d="M63.3,519.1l1-0.3c-0.4-1.3-0.7-2.6-1.1-3.9l-1,0.3C62.6,516.5,63,517.8,63.3,519.1z"/>
		<path class="st1" d="M58.7,497.5l-1,0.2c0.3,1.3,0.6,2.6,1,3.9l1-0.2C59.4,500.1,59,498.8,58.7,497.5z"/>
		<path class="st1" d="M65,524.9l1-0.3c-0.4-1.3-0.7-2.6-1.1-3.8l-1,0.3C64.2,522.3,64.6,523.6,65,524.9z"/>
		<path class="st1" d="M63.8,465.4l-1-0.2c-0.3,1.4-0.6,2.7-0.9,3.9l1,0.2C63.2,468.2,63.5,466.9,63.8,465.4z"/>
		<path class="st1" d="M62.5,471.3l-1-0.2c-0.4,2-0.7,3.3-0.8,4l1,0.2C61.9,474.6,62.1,473.2,62.5,471.3z"/>
		<rect x="63.6" y="455.1" transform="matrix(0.2234 -0.9747 0.9747 0.2234 -393.1142 417.719)" class="st1" width="4" height="1"/>
		<rect x="62.2" y="460.9" transform="matrix(0.2207 -0.9754 0.9754 0.2207 -399.982 422.2598)" class="st1" width="4" height="1"/>
		<path class="st1" d="M62.1,476.7l-0.8,0.6c0.6,0.8,1.7,1.6,3.3,2.6l0.5-0.9C63.7,478.1,62.7,477.4,62.1,476.7z"/>
		
			<rect x="64.9" y="449.2" transform="matrix(0.2246 -0.9745 0.9745 0.2246 -386.3088 413.9137)" class="st1" width="4" height="1"/>
		<rect x="70.4" y="425.7" transform="matrix(0.2285 -0.9735 0.9735 0.2285 -359.1285 399.303)" class="st1" width="4" height="1"/>
		
			<rect x="71.7" y="419.9" transform="matrix(0.2285 -0.9735 0.9735 0.2285 -352.3567 396.1138)" class="st1" width="4" height="1"/>
		<rect x="66.3" y="443.3" transform="matrix(0.2264 -0.974 0.974 0.2264 -379.4767 409.8341)" class="st1" width="4" height="1"/>
		<path class="st1" d="M89,489.2c1.3,0.3,2.6,0.6,4,0.8l0.2-1c-1.3-0.2-2.6-0.5-3.9-0.8L89,489.2z"/>
		<path class="st1" d="M95,490.2c1.3,0.2,2.7,0.3,4,0.4l0.1-1c-1.3-0.1-2.6-0.2-3.9-0.4L95,490.2z"/>
		
			<rect x="75.9" y="415.7" transform="matrix(0.2371 -0.9715 0.9715 0.2371 -347.4955 392.9272)" class="st1" width="1" height="4"/>
		<path class="st1" d="M66.4,480.9c1.1,0.6,2.3,1.2,3.6,1.7l0.4-0.9c-1.3-0.6-2.5-1.2-3.6-1.7L66.4,480.9z"/>
		<path class="st1" d="M83.5,486.6l-0.3,1l1,0.3c0.9,0.3,1.9,0.6,2.8,0.8l0.3-1c-1-0.3-1.9-0.5-2.8-0.8L83.5,486.6z"/>
		<path class="st1" d="M102.3,489.7c-0.4,0-0.9,0-1.3,0l0,1c0.4,0,0.9,0,1.3,0c0.9,0,1.9,0,2.7-0.1l-0.1-1
			C104.1,489.7,103.2,489.7,102.3,489.7z"/>
		<path class="st1" d="M77.5,485.6c1.2,0.4,2.5,0.9,3.8,1.3l0.3-0.9c-1.3-0.4-2.5-0.9-3.8-1.3L77.5,485.6z"/>
		<rect x="69" y="431.6" transform="matrix(0.2272 -0.9739 0.9739 0.2272 -365.9307 403.0917)" class="st1" width="4" height="1"/>
		<rect x="67.6" y="437.5" transform="matrix(0.2266 -0.974 0.974 0.2266 -372.7095 406.5266)" class="st1" width="4" height="1"/>
		<path class="st1" d="M71.9,483.4c1.2,0.5,2.4,1,3.7,1.5L76,484c-1.3-0.5-2.5-1-3.7-1.5L71.9,483.4z"/>
		
			<rect x="116.7" y="425.7" transform="matrix(0.2371 -0.9715 0.9715 0.2371 -326.0415 440.1642)" class="st1" width="1" height="4"/>
		
			<rect x="120.4" y="444.2" transform="matrix(0.2227 -0.9749 0.9749 0.2227 -338.3802 464.9243)" class="st1" width="4" height="1"/>
		
			<rect x="121.7" y="438.3" transform="matrix(0.2207 -0.9754 0.9754 0.2207 -331.5731 462.6301)" class="st1" width="4" height="1"/>
		<rect x="123" y="432.4" transform="matrix(0.2207 -0.9754 0.9754 0.2207 -324.803 459.3519)" class="st1" width="4" height="1"/>
		
			<rect x="122.6" y="427.1" transform="matrix(0.2371 -0.9715 0.9715 0.2371 -322.9767 446.9126)" class="st1" width="1" height="4"/>
		<path class="st1" d="M106.9,489.4l0.1,1c1.7-0.2,3-0.6,4-1.1l-0.4-0.9C109.8,488.9,108.5,489.2,106.9,489.4z"/>
		<path class="st1" d="M112,487.3c0,0.1,0,0.1-0.1,0.2l0.9,0.4c0.1-0.1,0.1-0.2,0.1-0.3c0.1-0.5,0.4-1.7,0.9-3.7l-1-0.2
			C112.4,485.6,112.1,486.8,112,487.3z"/>
		
			<rect x="116.3" y="461.8" transform="matrix(0.2246 -0.9745 0.9745 0.2246 -358.6725 473.7715)" class="st1" width="4" height="1"/>
		<rect x="119" y="450" transform="matrix(0.2227 -0.9749 0.9749 0.2227 -345.1388 468.1819)" class="st1" width="4" height="1"/>
		<rect x="115" y="467.6" transform="matrix(0.2246 -0.9745 0.9745 0.2246 -365.4304 477.0046)" class="st1" width="4" height="1"/>
		
			<rect x="105.1" y="422.8" transform="matrix(0.2371 -0.9715 0.9715 0.2371 -332.1709 426.6677)" class="st1" width="1" height="4"/>
		<rect x="93.4" y="420" transform="matrix(0.2373 -0.9714 0.9714 0.2373 -338.2987 413.0692)" class="st1" width="1" height="4"/>
		
			<rect x="99.2" y="421.4" transform="matrix(0.2373 -0.9714 0.9714 0.2373 -335.2354 419.8293)" class="st1" width="1" height="4"/>
		
			<rect x="117.7" y="455.9" transform="matrix(0.2229 -0.9748 0.9748 0.2229 -351.8964 471.3321)" class="st1" width="4" height="1"/>
		
			<rect x="81.8" y="417.1" transform="matrix(0.2371 -0.9715 0.9715 0.2371 -344.4307 399.6756)" class="st1" width="1" height="4"/>
		<rect x="87.6" y="418.6" transform="matrix(0.237 -0.9715 0.9715 0.237 -341.3664 406.4362)" class="st1" width="1" height="4"/>
		
			<rect x="113.6" y="473.5" transform="matrix(0.2246 -0.9745 0.9745 0.2246 -372.1932 480.2305)" class="st1" width="4" height="1"/>
		<path class="st1" d="M114.3,481.9c0.3-1.2,0.6-2.5,0.9-3.9l-1-0.2c-0.3,1.4-0.6,2.7-0.9,3.9L114.3,481.9z"/>
		<rect x="110.9" y="424.2" transform="matrix(0.237 -0.9715 0.9715 0.237 -329.106 433.4287)" class="st1" width="1" height="4"/>
	</g>
</g>
</svg>
