<?xml version="1.0" encoding="utf-8"?>
<!-- Generator: Adobe Illustrator 20.1.0, SVG Export Plug-In . SVG Version: 6.00 Build 0)  -->
<svg version="1.1" xmlns="http://www.w3.org/2000/svg" xmlns:xlink="http://www.w3.org/1999/xlink" x="0px" y="0px"
	 viewBox="0 0 531.3 478.6" style="enable-background:new 0 0 531.3 478.6;" xml:space="preserve">
<style type="text/css">
	.st0{fill:#FFFFFF;}
	.st1{fill:#1A1A1A;}
</style>
<g id="back">
	<path class="st0" d="M527.4,160.8c0,0-0.2-0.1-0.7-0.2l-1.5-0.3l0-0.1c-8-1.7-26.7-4.8-53.9-4.8c-11,0-17.5,0.2-22.3,0.4
		c-7.9,0.2-11.5,0.4-23.2-0.7c-4.3-0.4-11.4-1.3-20.4-2.5c-13.3-1.8-31.4-4.2-51.6-6.3l-1.3-0.1l0-1.3c-0.1-9.5-1.2-42.9-11.5-75.3
		c-6.4-19.9-15-35.8-25.8-47.1C301.8,8.5,285.2,1.5,265.8,1.5h-0.4c-19.4,0-36,7-49.2,20.9c-10.8,11.3-19.5,27.1-25.8,47.1
		c-10.3,32.5-11.4,65.9-11.5,75.3l0,1.3l-1.3,0.1c-20.2,2.1-38.4,4.5-51.6,6.3c-9.1,1.2-16.2,2.1-20.4,2.5
		c-11.7,1.1-15.3,1-23.2,0.7c-4.8-0.1-11.3-0.4-22.3-0.4c-27.2,0-45.9,3.1-53.9,4.8l0,0l-1.5,0.3c-0.5,0.1-0.7,0.2-0.7,0.2
		c-3.2,1.5-2.5,4.9-1.2,9.4c0.3,1.1,2.2,9.1,5.8,24.5l0.2,1l-0.9,0.6c-1.6,1-1.7,2.4-0.5,8c0.4,1.8,0.6,3.1,0.8,4.1
		c0.6,2.9,0.6,3.1,1.5,5.5c0.4,1.1,0.8,1.3,0.9,1.4c0.3,0.1,0.6,0.1,1.2,0l1.5-0.4l0.3,1.5c4.1,17.7,9,38.5,13.8,58.9
		c9.3,39.8,18.1,77.5,20.3,86.7c5.2,21.6,12.4,47.2,15.7,56.7c3.3,9.7,6.9,25.8,8.9,34.5c0.7,3.3,1.3,5.6,1.5,6.2
		c0.1,0.2,0.1,0.4,0.2,0.7c0.8,2.4,2.8,8.9,8,12l0.3,0.2l0.2,0.3c0.4,0.6,0.8,1.1,1.3,1.5c3.7,3.5,9.5,3.3,16.9,3
		c2.4-0.1,4.9-0.2,7.6-0.2c18.5,0,155.9,0.4,157.2,0.4h0.8c1.3,0,138.5-0.4,157.2-0.4c2.7,0,5.2,0.1,7.6,0.2
		c7.4,0.3,13.3,0.6,16.9-3c0.4-0.4,0.9-0.9,1.3-1.5l0.2-0.3l0.3-0.2c5.3-3.1,7.3-9.6,8-12c0.1-0.3,0.2-0.5,0.2-0.7
		c0.2-0.5,0.7-2.9,1.5-6.2c2-8.7,5.6-24.8,8.9-34.5c3.2-9.5,10.5-35.1,15.7-56.7c2.2-9.2,11-46.8,20.3-86.7
		c4.8-20.4,9.6-41.2,13.8-58.9l0.3-1.5l1.5,0.4c0.6,0.2,0.9,0.1,1.2,0c0.1-0.1,0.5-0.3,0.9-1.4c0.9-2.5,0.9-2.6,1.5-5.5l0-0.2
		c0.2-1,0.4-2.2,0.8-3.9c0.7-3.4,1.1-5.6,0.5-6.9c-0.2-0.5-0.5-0.8-1.1-1.2l-0.9-0.6l0.2-1c3.6-15.4,5.5-23.4,5.8-24.5
		C530,165.7,530.7,162.4,527.4,160.8z M327,142.5l-0.3,1.3l-1.3-0.1c-21.7-1.8-41.7-2.6-59.4-2.6h-0.8c-17.7,0-37.6,0.9-59.4,2.6
		l-1.3,0.1l-0.3-1.3c-1-4.5-4.2-20.7-4.2-41.3c0-22.4,20.1-81.3,65.4-81.3h0.4c45.3,0,65.4,58.9,65.4,81.3
		C331.2,121.8,328,138,327,142.5z"/>
</g>
<g id="lines">
	<g>
		<path class="st1" d="M528.1,159.5c-0.2-0.1-0.6-0.2-1.1-0.3l0,0c-7-1.6-26.5-5.2-55.7-5.2c-11,0-17.6,0.2-22.4,0.4
			c-7.8,0.2-11.4,0.4-23-0.7c-4.2-0.4-11.4-1.3-20.4-2.5c-13.3-1.8-31.4-4.2-51.7-6.3c-0.1-9.4-1.2-43-11.6-75.8
			c-6.4-20.2-15.2-36.2-26.2-47.6C302.6,7.2,285.6,0,265.8,0h-0.4c-19.8,0-36.7,7.2-50.3,21.4C204.2,32.8,195.4,48.9,189,69
			c-10.4,32.8-11.5,66.4-11.6,75.8c-20.2,2.1-38.4,4.5-51.7,6.3c-9,1.2-16.2,2.1-20.4,2.5c-11.6,1.1-15.2,1-23,0.7
			C77.5,154.2,71,154,60,154c-29.2,0-48.7,3.6-55.7,5.2l0,0c-0.5,0.1-0.9,0.2-1.1,0.3c-4.6,2.2-3.2,7.2-2.1,11.2
			c0.3,1.1,2.2,9.1,5.8,24.4c-2.7,1.7-2.3,4.3-1.2,9.6c0.4,1.8,0.6,3.1,0.8,4.1c0.6,3,0.6,3.2,1.5,5.7c0.4,1.2,0.9,1.9,1.7,2.2
			c0.4,0.2,0.7,0.2,1.1,0.2c0.4,0,0.7-0.1,1.1-0.2c4.2,17.8,9.1,38.7,13.8,59.2c9.3,39.7,18,77.2,20.2,86.4
			c5.2,21.6,12.5,47.3,15.7,56.8c3.2,9.6,6.9,25.7,8.8,34.3c0.9,3.9,1.3,5.7,1.5,6.3c0.1,0.2,0.1,0.4,0.2,0.6
			c0.8,2.6,2.9,9.5,8.7,12.9c0.4,0.6,0.9,1.2,1.5,1.7c4.1,3.9,10.3,3.7,18,3.4c2.4-0.1,4.9-0.2,7.6-0.2c18.5,0,155.8,0.4,157.2,0.4
			h0.8c1.4,0,138.6-0.4,157.2-0.4c2.7,0,5.2,0.1,7.6,0.2c7.8,0.3,13.9,0.6,18-3.4c0.5-0.5,1-1.1,1.5-1.7c5.7-3.4,7.9-10.3,8.7-12.9
			c0.1-0.3,0.1-0.5,0.2-0.6c0.2-0.6,0.6-2.5,1.5-6.3c2-8.7,5.6-24.8,8.8-34.3c3.2-9.5,10.5-35.2,15.7-56.8
			c2.2-9.2,11-46.8,20.3-86.7c4.7-20.3,9.6-41.1,13.7-58.8c0.4,0.1,0.7,0.2,1.1,0.2c0.4,0,0.8-0.1,1.1-0.2c0.7-0.4,1.3-1.1,1.7-2.2
			c0.9-2.6,0.9-2.8,1.5-5.7c0.2-1,0.5-2.3,0.8-4.1c0.8-3.8,1.2-6.1,0.4-7.8c-0.3-0.7-0.9-1.3-1.6-1.8c3.6-15.1,5.5-23.4,5.8-24.4
			C531.3,166.7,532.7,161.7,528.1,159.5z M425.7,156.6c11.8,1.1,15.4,1,23.4,0.7c4.8-0.1,11.3-0.4,22.3-0.4c12,0,22.2,0.6,30.7,1.4
			c-11.5,0.1-23.2,0.5-26.5,0.9c-7,0.9-24.2,0.4-33.5,0.1c-1.9-0.1-3.5-0.1-4.7-0.1c-4-0.5-41.8-4.9-83.4-8.5c0-0.9,0-1.9,0-3
			c20.1,2.1,38.1,4.5,51.3,6.3C414.2,155.3,421.4,156.2,425.7,156.6z M190.9,69.6C205.2,24.8,230.3,2,265.5,2h0.4
			c35.2,0,60.3,22.8,74.6,67.6c11,34.4,11.5,69.8,11.5,76.6c0,9.5,0.4,10.8,1.9,13.4H353v5.7h-22.3v-5.7H329
			c1.8-4.4,6.5-19,6.5-52.1c0-21.4-6.6-44.3-17.6-61.3c-9.2-14.1-25.7-31-52.1-31h-0.4c-26.5,0-42.9,16.9-52.1,31
			c-11,17-17.6,39.9-17.6,61.3c0,33.2,4.7,47.8,6.5,52.1h-1.7v5.7h-22.3v-5.7h-0.8c1.5-2.7,1.9-3.9,1.9-13.4
			C179.4,139.5,179.9,104,190.9,69.6z M353,187.5v115.3c0,9.7-9.9,14.8-11.2,14.8c-1.2,0-11.2-5.1-11.2-14.8V187.5V178h1.1v123.7
			c0,8.2,8.1,13.6,10,13.6s10-5.4,10-13.6V178h1.1V187.5z M328.7,161.6V176v9.5h-2.5v-23.9H328.7z M332.8,178h18v123.7
			c0,7.9-7.8,12.6-9,12.6c-1.2,0-9-4.8-9-12.6V178z M330.7,176v-8.6H353v8.6H330.7z M355,176v-14.4h2.5v23.9H355V176z M331.2,142.6
			c-1.2-0.1-2.4-0.2-3.6-0.3c1.1-5,4.2-20.9,4.2-41.2c0-12.2-5-32.4-16.1-50.1c-9-14.4-25-31.6-49.7-31.6h-0.4
			c-24.7,0-40.7,17.2-49.7,31.6c-11.1,17.8-16.1,38-16.1,50.1c0,20.3,3.1,36.2,4.2,41.2c-1.2,0.1-2.4,0.2-3.6,0.3
			c-1.3-8.2-2.4-19.6-2.4-35.1c0-21,6.5-43.6,17.3-60.2c8.9-13.7,24.9-30.1,50.4-30.1h0.4c25.6,0,41.5,16.4,50.4,30.1
			c10.8,16.7,17.3,39.2,17.3,60.2C333.5,123,332.5,134.4,331.2,142.6z M205.8,142.1c-1-4.6-4.2-20.5-4.2-41
			c0-22,19.6-79.8,63.9-79.8h0.4c44.2,0,63.9,57.8,63.9,79.8c0,20.5-3.2,36.5-4.2,41c-21.8-1.8-41.8-2.6-59.5-2.6h-0.8
			C247.5,139.5,227.5,140.4,205.8,142.1z M200.6,145.6c23.8-2,45.5-3.1,64.6-3.1h0.8c19.1,0,40.8,1,64.6,3.1
			c-0.2,1.2-0.4,2.3-0.7,3.3c-26.8-2-48.4-3-64-3h-0.8c-15.6,0-37.1,1-64,3C201.1,147.9,200.8,146.8,200.6,145.6z M200.6,187.5
			v115.3c0,9.7-9.9,14.8-11.2,14.8c-1.2,0-11.2-5.1-11.2-14.8V187.5V178h1.1v123.7c0,8.2,8.1,13.6,10,13.6s10-5.4,10-13.6V178h1.1
			V187.5z M176.3,161.6V176v9.5h-2.5v-23.9H176.3z M180.4,178h18v123.7c0,7.9-7.8,12.6-9,12.6s-9-4.8-9-12.6V178z M178.3,176v-8.6
			h22.3v8.6H178.3z M202.6,176v-14.4h2.5v23.9h-2.5V176z M82.2,157.4c8,0.2,11.6,0.4,23.4-0.7c4.3-0.4,11.4-1.3,20.5-2.5
			c13.2-1.7,31.2-4.1,51.3-6.3c0,1.1,0,2.1,0,3c-41.6,3.6-79.4,8-83.4,8.5c-1.2,0-2.8,0.1-4.7,0.1c-9.3,0.3-26.5,0.8-33.5-0.1
			c-3.3-0.4-15-0.8-26.5-0.9C37.7,157.6,48,157,60,157C70.9,157,77.4,157.2,82.2,157.4z M4,169.8c-1.7-5.9-1.1-6.9,0.4-7.6
			c0.1,0,0.3-0.1,0.5-0.1l0,0c0.1,0,0.1,0,0.2,0c5.8-1,41.7-0.8,50.3,0.3c6.8,0.9,21.9,0.5,32,0.2c-1.1,1.9-1.3,4.8-1.5,9.4
			l-0.1,1.5c-0.1,2.4-0.3,7-0.4,10.7c-0.9,0-2,0-3.1,0.1l-0.4,0c-0.5,0-1,0.3-1.5,0.8c-0.5,0.5-0.9,1.5-1.3,2.7
			c-2.3-0.1-4.6-0.1-6.9-0.2c0.1-1.6,0.1-2.6,0.1-2.6c0-0.5-0.4-1-0.9-1.1c-13.2-1.1-24.6-0.1-31.8,1c-2.3,0.3-4,2.2-5.1,4.7
			c-7.6,0.9-15.1,2.2-22.4,3.7c-0.9,0.2-1.6,0.4-2.3,0.6C6.2,178.6,4.3,170.9,4,169.8z M104,190.4c3.5-0.7,7.3-1.4,9.4-1.4
			c6.7,0,23.6,9.1,23.6,11.9c0,3-17,12.4-22.5,12.4c-1.3,0-3.7-0.4-7-1.2c6.3-1.6,12.2-4.3,14.7-6.8c1-1,1.5-1.9,1.5-2.8
			C123.8,199.2,113.4,193.3,104,190.4z M105.4,212.6c4.4,1.1,7.5,1.7,9.1,1.7c5.5,0,23.5-9.6,23.5-13.4c0-3.9-18.3-12.9-24.6-12.9
			c-2.6,0-7.6,0.9-11.5,1.8c-0.8-0.2-1.7-0.4-2.4-0.6c4.3-1.2,10.3-2.4,14.2-2.4c8.8,0,27,10.7,27,13.9c0,3.3-18.8,14.6-26,14.6
			c-2.8,0-8.3-1.2-12.7-2.3C103.1,213.1,104.3,212.9,105.4,212.6z M96.3,190.8c10.8,1,25.3,9.5,25.4,11.7c0,0.1-0.1,0.6-0.9,1.4
			c-3.7,3.6-15.4,7.9-24.3,7.7c-2.2-0.1-5.9-0.3-8.7-0.6c0-0.3,0-0.5,0-0.8c3.5,0.3,7.8,0.6,9.5,0.6c0.2,0,0.3,0,0.5,0
			c9.9,0,19.6-5.2,21.7-7.2c0.4-0.4,0.6-0.7,0.6-1c0-1.8-13.3-9.8-23.3-10.4c-0.5,0-1.1-0.1-1.9-0.1c-1.8-0.1-4.1-0.3-6.4-0.5
			c0.1-0.4,0.2-0.8,0.3-1.2C91.9,190.4,94.6,190.7,96.3,190.8z M71.7,215.1c-9.5,0.7-25.6,0.1-30.5-0.6c-3.2-0.4-7-7-7-12.2
			c0-5.8,1.5-14.7,5.7-15.3c7-1,17.8-2,30.4-1.1c0,0.4,0,1-0.1,1.7c-1.1,0-2.1,0-3.2,0c0,0-0.1,0-0.1,0c-10.9-0.3-19.7,0.3-24,1
			c-0.4,0.1-0.8,0.2-1.1,0.3c0,0-0.1,0-0.1,0l0,0c-3.6,1.7-4.4,8.3-4.6,11.4c-0.2,0-0.4,0.1-0.5,0.1c-0.5,0.2-0.8,0.7-0.6,1.3
			c0.1,0.4,0.5,0.7,1,0.7c0.1,0,0.1,0,0.2,0c0.2,4.4,3.3,10,6.8,10.4c1.9,0.2,5.7,0.4,9.9,0.4c5,0,10.5-0.2,14.2-0.5
			c0.3,0,0.6-0.2,0.7-0.4c0.1-0.2,0.2-0.4,0.2-0.6c0.8,0,1.5,0,2.3,0.1C71.3,212.9,71.5,214,71.7,215.1z M12.5,195.3
			c6.9-1.4,14-2.6,21.2-3.5c-0.1,0.4-0.3,0.8-0.4,1.3c-8.5,1.1-17.3,2.6-26,4.5C7.9,196.4,9.4,195.9,12.5,195.3z M78.4,190.8
			c-7.5-0.2-20.5-0.4-37.3,1.3c0.4-0.6,0.8-1,1.3-1.3c9.5-0.9,19.2-1.3,28.8-1.2c2.5,0,5,0.1,7.5,0.2
			C78.6,190.1,78.5,190.5,78.4,190.8z M42.9,210.2c-0.3-0.2-0.7-0.6-1-0.9c11.3-0.7,23.8-0.9,35.4-0.3c0,0.4,0,0.7,0.1,1.1
			C66.4,209.3,54.8,209.4,42.9,210.2z M77.3,208c-11.8-0.5-24.5-0.4-36,0.4c-1.2-1.8-2.1-4.3-2.1-6.4c2.2-0.3,5.7-0.7,9.5-0.5
			c0.6,0,1-0.4,1-1c0-0.6-0.4-1-1-1c-3.5-0.1-7.1,0.2-9.5,0.5c0.2-2.3,0.6-4.8,1.4-6.7c16.9-1.7,30.1-1.5,37.7-1.4
			C77.4,196.4,77.1,202.4,77.3,208z M82.1,186.3l0.4,0c1.2-0.1,4.6-0.2,5.6,0.2c-2.6,5.5-2.3,15.7-2.2,22.5c0.1,2.1,0.1,4.2,0,5
			c-1.5,0.4-5.6,0.4-6.1-0.3C78.2,202,80.3,187.4,82.1,186.3z M87.8,208.9c-0.1-4.5-0.3-11.2,0.6-16.4c2.2,0.1,4.6,0.3,6.4,0.5
			c0.8,0.1,1.5,0.1,1.9,0.2c10,0.7,21.5,8.1,22.3,9.5c-0.7,1.4-10.9,7.4-21.8,7.2c-1.8,0-6.9-0.4-9.5-0.7
			C87.8,209,87.8,209,87.8,208.9z M7.7,204.3c-0.6-2.7-0.9-4.4-0.8-5.7c8.8-1.9,17.6-3.4,26.1-4.5c-0.6,2.8-0.9,5.8-0.9,8.2
			c0,2.1,0.6,4.5,1.5,6.7c-10.4,1-18.5,2.5-23.8,4.4c-0.7-2-0.7-2.3-1.3-5C8.4,207.4,8.1,206.1,7.7,204.3z M10.7,214.9
			c-0.2-0.1-0.3-0.3-0.5-0.6c5.2-1.9,13.4-3.4,23.9-4.4c0.2,0.3,0.3,0.7,0.5,1c-9.3,0.9-16.2,2.1-18.6,2.6c-1.2,0.2-2.2,0.6-3,0.9
			C12,214.8,11.1,215.1,10.7,214.9z M75.2,459.6c-0.1-0.3-0.2-0.5-0.2-0.7c-0.2-0.5-0.7-3.1-1.4-6c-2-8.7-5.6-24.9-8.9-34.6
			c-3.2-9.5-10.4-35-15.6-56.5c-2.2-9.2-11-46.7-20.2-86.4c-4.8-20.5-9.7-41.6-13.9-59.4c0.5-0.1,0.9-0.3,1.5-0.4
			c2.5-0.5,9.7-1.7,19.4-2.7c1.5,2,3.3,3.4,5.2,3.7c3.4,0.4,12.2,0.9,20.6,0.9c4.2,0,8.3-0.1,11.5-0.4c0.3,0,0.6-0.2,0.7-0.4
			c0.2-0.2,0.2-0.5,0.2-0.8c-0.3-1.2-0.5-2.5-0.7-3.9c1.5,0.1,2.9,0.1,4.4,0.2c0.1,0.6,0.1,1.3,0.2,1.9c0.1,0.5,0.3,1.1,1.2,1.6
			c1,0.5,2.5,0.7,4,0.7c0.5,0,1,0,1.5-0.1c-1.3,38.3-7.1,216.4-7.1,238.6c0,4.8,0.3,8.7,1,11.9C76.6,464,75.7,461.1,75.2,459.6z
			 M430.9,475.5c-2.4-0.1-4.9-0.2-7.7-0.2c-18.5,0-155.8,0.4-157.2,0.4h-0.8c-1.4,0-138.6-0.4-157.2-0.4c-2.7,0-5.3,0.1-7.7,0.2
			c-7.3,0.3-12.6,0.5-15.8-2.5c-2.9-2.8-4.3-8.6-4.3-18.2c0-22.4,5.9-203.1,7.1-239.4c0.3-0.4,0.4-1,0.4-2.4
			c2.3,0.2,5.1,0.5,7.2,0.6c1.4,0.4,14.4,4,19.6,4c7.4,0,28-11.4,28-16.6c0-5.3-20.8-15.9-29-15.9c-5.1,0-14.4,1.9-18.6,3.8
			c-1.6-0.1-3.5-0.3-5.7-0.4c0.2-0.4,0.3-0.8,0.5-1.2c0.4-0.8,0.2-1.4,0-1.7c-0.3-0.4-0.8-0.7-1.4-0.9c0.1-3.8,0.3-8.5,0.4-10.9
			l0.1-1.5c0.3-8.7,0.5-9.1,5.4-9.7c3.5-0.5,41.2-4.9,82.9-8.5c-0.2,2.7-0.7,3.5-1.5,4.9c-0.1,0.3-0.3,0.5-0.5,0.9h-3.4v27.9h4.5
			v115.3c0,11,11,16.8,13.2,16.8s13.2-5.9,13.2-16.8V187.5h4.5v-27.9h-2.6c-0.4-1-1.4-3.4-2.5-7.8c26.5-2,47.8-3,63.3-3h0.8
			c15.5,0,36.7,1,63.3,3c-1.1,4.4-2.1,6.8-2.5,7.8h-2.6v27.9h4.5v115.3c0,11,11,16.8,13.2,16.8s13.2-5.9,13.2-16.8V187.5h4.5v-27.9
			h-3.4c-0.2-0.3-0.3-0.6-0.5-0.9c-0.8-1.4-1.3-2.3-1.5-4.9c41.6,3.6,79.4,8,82.9,8.5c4.8,0.7,5,1,5.4,9.7l0.1,1.6
			c0.1,2.5,0.3,7.1,0.4,10.8c-0.7,0.2-1.2,0.5-1.4,0.9c-0.2,0.3-0.5,0.9,0,1.7c0.2,0.4,0.3,0.7,0.5,1.2c-2.2,0.2-4.2,0.3-5.7,0.4
			c-4.1-1.9-13.5-3.8-18.6-3.8c-8.2,0-29,10.6-29,15.9c0,5.2,20.6,16.6,28,16.6c5.2,0,18.2-3.6,19.6-4c2.2-0.1,5-0.3,7.2-0.6
			c0,1.4,0.1,2.1,0.4,2.4c1.2,36.3,7.1,217,7.1,239.4c0,9.6-1.4,15.4-4.3,18.2C443.5,476,438.2,475.8,430.9,475.5z M451.6,213.6
			c-0.5,0.7-4.7,0.7-6.2,0.3c-0.1-0.8,0-3,0-5c0.2-6.8,0.4-17.1-2.2-22.5c1-0.4,4.4-0.2,5.6-0.2l0.4,0
			C450.9,187.4,453.1,202,451.6,213.6z M461,185.9c12.6-1,23.4,0,30.4,1.1c4.2,0.6,5.7,9.5,5.7,15.3c0,5.2-3.8,11.8-7,12.2
			c-4.9,0.6-21,1.2-30.5,0.6c0.2-1,0.4-2.1,0.6-3.3c0.8,0,1.5-0.1,2.3-0.1c0,0.2,0,0.4,0.2,0.6c0.2,0.2,0.4,0.4,0.7,0.4
			c3.7,0.3,9.2,0.5,14.2,0.5c4.2,0,8-0.1,9.9-0.4c3.5-0.4,6.6-6,6.8-10.4c0.1,0,0.1,0,0.2,0c0.4,0,0.8-0.3,1-0.7
			c0.2-0.5-0.1-1.1-0.6-1.3c-0.1,0-0.3-0.1-0.5-0.1c-0.2-3.1-1-9.7-4.6-11.4l0,0c0,0-0.1,0-0.1,0c-0.3-0.2-0.7-0.3-1.1-0.3
			c-4.3-0.6-13.1-1.3-24-1c0,0-0.1,0-0.1,0c-1.1,0-2.1,0-3.2,0C461,186.9,461,186.3,461,185.9z M524,197.6c-8.8-1.9-17.5-3.4-26-4.5
			c-0.1-0.4-0.2-0.9-0.4-1.3c7.2,0.9,14.3,2.1,21.2,3.5C522,196,523.5,196.6,524,197.6z M492.1,199.9c-2.4-0.3-6-0.6-9.5-0.5
			c-0.6,0-1,0.5-1,1c0,0.6,0.5,1,1,1c3.7-0.1,7.3,0.2,9.5,0.5c0,2.1-0.9,4.6-2.1,6.4c-11.5-0.8-24.2-0.9-36-0.4
			c0.2-5.6-0.2-11.6-1-16.1c7.6-0.2,20.8-0.4,37.7,1.4C491.5,195.1,492,197.7,492.1,199.9z M454,209c11.6-0.5,24-0.4,35.4,0.3
			c-0.3,0.4-0.7,0.7-1,0.9c-11.9-0.8-23.4-0.9-34.4-0.2C453.9,209.7,454,209.3,454,209z M460.1,189.6c9.6-0.1,19.3,0.4,28.8,1.2
			c0.5,0.3,0.9,0.7,1.3,1.3c-16.8-1.7-29.8-1.5-37.3-1.3c-0.1-0.4-0.2-0.8-0.2-1.1C455.1,189.7,457.6,189.6,460.1,189.6z
			 M434.7,211.6c-8.9,0.2-20.5-4-24.3-7.7c-0.8-0.8-0.9-1.3-0.9-1.4c0.1-2.1,14.7-10.7,25.4-11.7c1.8-0.2,4.4-0.4,7.5-0.6
			c0.1,0.4,0.2,0.8,0.3,1.2c-2.2,0.1-4.6,0.3-6.4,0.5c-0.8,0.1-1.5,0.1-1.9,0.1c-10,0.7-23.3,8.6-23.3,10.4c0,0.3,0.2,0.6,0.6,1
			c2.1,2,11.8,7.2,21.7,7.2c0.2,0,0.3,0,0.5,0c1.7,0,6-0.4,9.5-0.6c0,0.3,0,0.6,0,0.8C440.6,211.2,436.9,211.5,434.7,211.6z
			 M409,205.3c2.5,2.5,8.4,5.2,14.7,6.8c-3.3,0.8-5.7,1.2-7,1.2c-5.5,0-22.5-9.4-22.5-12.4c0-2.8,16.8-11.9,23.6-11.9
			c2.1,0,6,0.6,9.4,1.4c-9.4,2.9-19.7,8.8-19.7,12.1C407.5,203.4,408,204.3,409,205.3z M429.3,189.9c-3.9-0.9-8.9-1.8-11.5-1.8
			c-6.3,0-24.6,9-24.6,12.9c0,3.8,17.9,13.4,23.5,13.4c1.6,0,4.7-0.6,9.1-1.7c1.2,0.2,2.3,0.4,3.5,0.6c-4.4,1.1-9.9,2.3-12.7,2.3
			c-7.2,0-26-11.3-26-14.6c0-3.2,18.2-13.9,27-13.9c3.8,0,9.9,1.1,14.2,2.4C430.9,189.4,430.1,189.6,429.3,189.9z M442.3,186.7
			l0.9-0.5c0,0,0,0,0,0L442.3,186.7z M443.4,208.9c0,0.1,0,0.1,0,0.2c-2.6,0.2-7.7,0.6-9.5,0.7c-10.8,0.2-21-5.9-21.8-7.2
			c0.9-1.4,12.4-8.8,22.3-9.5c0.5,0,1.1-0.1,1.9-0.2c1.8-0.1,4.2-0.3,6.4-0.5C443.7,197.7,443.6,204.4,443.4,208.9z M502.6,275
			c-9.3,39.9-18.1,77.5-20.3,86.7c-5.2,21.5-12.4,47.1-15.6,56.5c-3.3,9.7-7,25.9-8.9,34.6c-0.7,3-1.3,5.6-1.4,6
			c-0.1,0.2-0.1,0.4-0.2,0.7c-0.5,1.6-1.4,4.4-3.1,7.1c0.7-3.2,1-7.1,1-11.9c0-22.3-5.8-200.3-7.1-238.6c0.5,0,1,0.1,1.5,0.1
			c1.5,0,3-0.2,4-0.7c0.9-0.5,1.1-1.1,1.2-1.6c0.1-0.6,0.2-1.3,0.2-1.9c1.4-0.1,2.9-0.2,4.4-0.2c-0.2,1.4-0.5,2.8-0.7,3.9
			c-0.1,0.3,0,0.6,0.2,0.8c0.2,0.2,0.4,0.4,0.7,0.4c3.2,0.3,7.3,0.4,11.5,0.4c8.3,0,17.2-0.4,20.6-0.9c1.9-0.2,3.7-1.7,5.2-3.7
			c9.8,0.9,17,2.1,19.4,2.7c0.5,0.1,1,0.2,1.5,0.4C512.2,233.6,507.3,254.5,502.6,275z M520.6,214.9c-0.4,0.2-1.3-0.1-2.2-0.5
			c-0.8-0.3-1.8-0.7-3-0.9c-2.4-0.5-9.3-1.7-18.6-2.6c0.2-0.3,0.4-0.7,0.5-1c10.4,1,18.6,2.5,23.9,4.4
			C520.9,214.6,520.7,214.8,520.6,214.9z M523.6,204.3c-0.4,1.8-0.6,3.1-0.8,4.1c-0.5,2.7-0.6,3-1.3,5c-5.2-1.9-13.4-3.4-23.8-4.4
			c0.9-2.2,1.5-4.6,1.5-6.7c0-2.3-0.2-5.3-0.9-8.2c8.5,1.1,17.3,2.6,26.1,4.5C524.4,199.9,524.1,201.7,523.6,204.3z M527.3,169.8
			c-0.3,1.1-2.1,8.8-5.7,24.1c-0.7-0.2-1.4-0.4-2.3-0.6c-7.3-1.5-14.9-2.8-22.4-3.7c-1.1-2.5-2.8-4.4-5.1-4.7
			c-7.2-1.1-18.6-2.1-31.8-1c-0.5,0-0.9,0.5-0.9,1.1c0,0,0.1,1,0.1,2.6c-2.3,0-4.6,0.1-6.9,0.2c-0.4-1.2-0.8-2.1-1.3-2.7
			c-0.4-0.5-0.9-0.8-1.5-0.8l-0.4,0c-1.1-0.1-2.2-0.1-3.1-0.1c-0.1-3.7-0.3-8.2-0.4-10.6l-0.1-1.6c-0.2-4.6-0.4-7.5-1.5-9.4
			c10.1,0.3,25.2,0.7,32-0.2c8.6-1.1,44.3-1.2,50.2-0.3c0.1,0,0.2,0,0.3,0.1l0,0c0.2,0,0.3,0.1,0.4,0.1
			C528.4,162.9,528.9,163.9,527.3,169.8z"/>
		<path class="st1" d="M188.3,231.9v6.3c0,0.8,0.7,1.5,1.5,1.5s1.5-0.7,1.5-1.5v-6.3c1.7-0.6,2.9-2.2,2.9-4.1c0-2.4-2-4.4-4.4-4.4
			s-4.4,2-4.4,4.4C185.4,229.7,186.6,231.3,188.3,231.9z M189.8,225.4c1.3,0,2.4,1.1,2.4,2.4c0,1.3-1.1,2.4-2.4,2.4
			s-2.4-1.1-2.4-2.4C187.4,226.5,188.4,225.4,189.8,225.4z"/>
		<path class="st1" d="M188.3,280.4v6.3c0,0.8,0.7,1.5,1.5,1.5s1.5-0.7,1.5-1.5v-6.3c1.7-0.6,2.9-2.2,2.9-4.1c0-2.4-2-4.4-4.4-4.4
			s-4.4,2-4.4,4.4C185.4,278.2,186.6,279.8,188.3,280.4z M189.8,273.9c1.3,0,2.4,1.1,2.4,2.4s-1.1,2.4-2.4,2.4s-2.4-1.1-2.4-2.4
			S188.4,273.9,189.8,273.9z"/>
		<path class="st1" d="M340,231.9v6.3c0,0.8,0.7,1.5,1.5,1.5s1.5-0.7,1.5-1.5v-6.3c1.7-0.6,2.9-2.2,2.9-4.1c0-2.4-2-4.4-4.4-4.4
			s-4.4,2-4.4,4.4C337.2,229.7,338.4,231.3,340,231.9z M341.5,225.4c1.3,0,2.4,1.1,2.4,2.4c0,1.3-1.1,2.4-2.4,2.4s-2.4-1.1-2.4-2.4
			C339.2,226.5,340.2,225.4,341.5,225.4z"/>
		<path class="st1" d="M340,280.4v6.3c0,0.8,0.7,1.5,1.5,1.5s1.5-0.7,1.5-1.5v-6.3c1.7-0.6,2.9-2.2,2.9-4.1c0-2.4-2-4.4-4.4-4.4
			s-4.4,2-4.4,4.4C337.2,278.2,338.4,279.8,340,280.4z M341.5,273.9c1.3,0,2.4,1.1,2.4,2.4s-1.1,2.4-2.4,2.4s-2.4-1.1-2.4-2.4
			S340.2,273.9,341.5,273.9z"/>
		<path class="st1" d="M26.3,204.5c1,0,1.8-0.8,1.8-1.8c0-1-0.8-1.8-1.8-1.8c-1,0-1.8,0.8-1.8,1.8C24.5,203.7,25.3,204.5,26.3,204.5
			z M26.3,201.9c0.4,0,0.8,0.4,0.8,0.8s-0.4,0.8-0.8,0.8s-0.8-0.4-0.8-0.8S25.8,201.9,26.3,201.9z"/>
		<path class="st1" d="M10.4,207.7c1,0,1.8-0.8,1.8-1.8c0-1-0.8-1.8-1.8-1.8c-1,0-1.8,0.8-1.8,1.8C8.6,206.9,9.4,207.7,10.4,207.7z
			 M10.4,205.1c0.4,0,0.8,0.4,0.8,0.8s-0.4,0.8-0.8,0.8s-0.8-0.4-0.8-0.8S9.9,205.1,10.4,205.1z"/>
		<path class="st1" d="M505,200.9c-1,0-1.8,0.8-1.8,1.8c0,1,0.8,1.8,1.8,1.8c1,0,1.8-0.8,1.8-1.8C506.8,201.7,506,200.9,505,200.9z
			 M505,203.5c-0.4,0-0.8-0.4-0.8-0.8s0.4-0.8,0.8-0.8s0.8,0.4,0.8,0.8S505.5,203.5,505,203.5z"/>
		<path class="st1" d="M520.9,204.1c-1,0-1.8,0.8-1.8,1.8c0,1,0.8,1.8,1.8,1.8c1,0,1.8-0.8,1.8-1.8
			C522.7,204.9,521.9,204.1,520.9,204.1z M520.9,206.7c-0.4,0-0.8-0.4-0.8-0.8s0.4-0.8,0.8-0.8s0.8,0.4,0.8,0.8
			S521.3,206.7,520.9,206.7z"/>
	</g>
</g>
</svg>
