<?xml version="1.0" encoding="utf-8"?>
<!-- Generator: Adobe Illustrator 20.1.0, SVG Export Plug-In . SVG Version: 6.00 Build 0)  -->
<svg version="1.1" id="Layer_4" xmlns="http://www.w3.org/2000/svg" xmlns:xlink="http://www.w3.org/1999/xlink" x="0px" y="0px"
	 viewBox="0 0 20 20" style="enable-background:new 0 0 20 20;" xml:space="preserve">
<style type="text/css">
	.st0{fill:#0077B5;}
</style>
<g>
	<path class="st0" d="M11.2,8.5L11.2,8.5C11.2,8.5,11.2,8.5,11.2,8.5L11.2,8.5z"/>
	<path class="st0" d="M4.6,19.6H0.3V6.7h4.3V19.6z M2.4,4.9L2.4,4.9C0.9,4.9,0,3.9,0,2.7c0-1.3,1-2.2,2.4-2.2c1.5,0,2.4,1,2.4,2.2
		C4.8,3.9,3.9,4.9,2.4,4.9z M20,19.6h-4.3v-6.9c0-1.7-0.6-2.9-2.2-2.9c-1.2,0-1.9,0.8-2.2,1.6c-0.1,0.3-0.1,0.7-0.1,1v7.2H6.9
		c0,0,0.1-11.7,0-12.9h4.3v1.8c0.6-0.9,1.6-2.1,3.9-2.1c2.8,0,4.9,1.8,4.9,5.8V19.6z"/>
</g>
</svg>
